<?xml version="1.0" standalone="no"?>
<!DOCTYPE svg PUBLIC "-//W3C//DTD SVG 1.1//EN" "http://www.w3.org/Graphics/SVG/1.1/DTD/svg11.dtd" >
<svg xmlns="http://www.w3.org/2000/svg" xmlns:xlink="http://www.w3.org/1999/xlink" version="1.1">
<metadata>
Created by FontForge 20201107 at Mon Mar 11 16:46:49 2024
 By 
Copyright (c) 1985, 1987, 1990, 1994, 2002 Adobe Systems Incorporated.  All Rights Reserved.
</metadata>
<defs>
<font id="NewBaskervilleStd-Italic" horiz-adv-x="1064" >
  <font-face 
    font-family="ITC New Baskerville Std"
    font-weight="400"
    font-style="italic"
    font-stretch="normal"
    units-per-em="2048"
    panose-1="2 3 6 3 7 5 6 9 3 4"
    ascent="1397"
    descent="-651"
    x-height="883"
    cap-height="1352"
    bbox="-283 -561 2759 1855"
    underline-thickness="102"
    underline-position="-204"
    slope="-16"
    unicode-range="U+0020-FB02"
  />
<missing-glyph horiz-adv-x="1413" 
d="M389 0v1434h1024v-1434h-1024zM901 809l348 522h-696zM963 717l348 -522v1044zM553 102h696l-348 523zM492 1239v-1044l348 522z" />
    <glyph glyph-name="f_i" unicode="fi" horiz-adv-x="1105" 
d="M625 856h485l-141 -496q-3 -9 -13.5 -43.5t-17.5 -58.5t-15.5 -56.5t-13 -58.5t-4.5 -43q0 -65 25 -65q18 0 40.5 20.5t47.5 59t42.5 67.5t40.5 72t25 47l41 -20q-17 -36 -29 -59.5t-35.5 -65t-46 -69t-50.5 -56.5t-60 -43.5t-65 -14.5q-54 0 -88.5 39t-34.5 94
q0 16 4 38.5t8.5 38t12 41t10.5 34.5l135 475q0 2 4.5 17t8 28t3.5 17q0 7 -4 11t-11 5.5t-13 1.5t-14.5 -1t-10.5 -1h-281l-157 -555q-9 -35 -27 -105.5t-27 -105.5q-15 -58 -27.5 -102t-36 -110t-47 -114.5t-59.5 -102.5t-75 -88.5t-91.5 -57.5t-111.5 -23q-37 0 -73 10.5
t-64.5 37.5t-28.5 65q0 26 14 44.5t39 18.5q19 0 32.5 -11.5t19.5 -24t12 -33.5q7 -30 19 -46t38 -16q82 0 156 146q55 112 123 352l229 821h-252l12 45h252q22 65 38 109t43.5 104.5t53.5 101t65 84.5t81.5 70.5t99 43.5t121.5 17q40 0 84 -10t82.5 -37.5t38.5 -68.5
q0 -25 -16.5 -41.5t-41.5 -16.5q-28 0 -42 17t-25 49q-15 42 -31 52.5t-63 10.5q-41 0 -77.5 -15t-63.5 -36.5t-52.5 -58.5t-42 -68.5t-34.5 -80t-27.5 -78.5t-24 -79.5t-20.5 -68.5z" />
    <glyph glyph-name="f_l" unicode="fl" horiz-adv-x="1187" 
d="M1317 1409l-295 -940q-24 -78 -54 -200.5t-30 -168.5q0 -65 35 -65q69 0 219 272l45 -20q-68 -136 -109 -190q-92 -124 -200 -124q-68 0 -106 40.5t-38 107.5q0 86 78 311l172 551q2 8 13.5 45t22.5 72.5t22.5 75.5t18.5 70t7 40q0 19 -13.5 32.5t-34 20.5t-39.5 10
t-36 3q-41 0 -78 -15t-64.5 -37.5t-54 -60.5t-44 -70.5t-36.5 -82t-29.5 -81t-25.5 -81.5t-22 -70h209l-14 -45h-207l-195 -692q-14 -50 -22.5 -81.5t-27.5 -90.5t-34.5 -99.5t-41.5 -97t-50.5 -95t-59 -80.5t-70 -67.5t-80.5 -42t-93 -16.5q-54 0 -112 35t-58 88
q0 26 18 42.5t45 16.5q28 0 43.5 -21.5t20 -47t19.5 -47t42 -21.5q28 0 56 21t50.5 52.5t46 80t40.5 91t35 98.5t27.5 90t21.5 78t14 50l213 756h-227l12 45h227q2 5 15.5 42t17 46t16.5 42.5t19 46.5t18.5 41.5t22 44.5t22.5 39t26.5 40.5t27.5 34.5q90 101 174 132t231 34
z" />
    <glyph glyph-name=".notdef" horiz-adv-x="1413" 
d="M389 0v1434h1024v-1434h-1024zM901 809l348 522h-696zM963 717l348 -522v1044zM553 102h696l-348 523zM492 1239v-1044l348 522z" />
    <glyph glyph-name=".null" horiz-adv-x="0" 
 />
    <glyph glyph-name="nonmarkingreturn" horiz-adv-x="682" 
 />
    <glyph glyph-name="space" unicode=" " horiz-adv-x="532" 
 />
    <glyph glyph-name="exclam" unicode="!" horiz-adv-x="614" 
d="M461 410l-47 14l123 704q2 10 7 43.5t8.5 54t13.5 51t22.5 48.5t33.5 31.5t48 13.5q40 0 66 -25t26 -65q0 -69 -152 -471zM346 -27q-46 0 -79.5 32.5t-33.5 78.5q0 50 33.5 81.5t83.5 31.5q45 0 76 -34t31 -79t-33 -78t-78 -33z" />
    <glyph glyph-name="quotedbl" unicode="&#x22;" horiz-adv-x="942" 
d="M1012 1241l-162 -393q-30 -80 -51 -80q-20 0 -11 43l107 471q5 22 8.5 35.5t12.5 35t18.5 34t26 22.5t36.5 10q24 0 38 -14.5t14 -38.5q0 -29 -37 -125zM692 1241l-162 -393q-30 -80 -51 -80q-19 0 -10 43l106 471q6 27 12 45t17.5 42t30 37t43.5 13q24 0 37.5 -14.5
t13.5 -38.5q0 -29 -37 -125z" />
    <glyph glyph-name="numbersign" unicode="#" 
d="M1159 557v-113h-221l-68 -444h-114l67 444h-268l-70 -444h-114l69 444h-213v113h230l43 281h-224v112h242l64 420h114l-63 -420h268l64 420h114l-63 -420h192v-112h-211l-43 -281h205zM883 838h-269l-43 -281h269z" />
    <glyph glyph-name="dollar" unicode="$" 
d="M692 1358l39 164h70l-39 -156q104 0 158 -16l41 172h63l-41 -183q33 -11 67 -28.5t68.5 -42t56 -56.5t21.5 -65q0 -32 -20.5 -51t-53.5 -19q-72 0 -80 97q-3 27 -5 38.5t-9 26.5t-20.5 24.5t-36.5 18.5l-121 -516q43 -30 63 -45t55 -43.5t52 -47.5t40 -50t33.5 -59.5
t18.5 -66.5t8 -81q0 -94 -37 -169.5t-100.5 -124t-144 -75.5t-172.5 -31l-66 -278h-59l63 278q-31 6 -158 25l-71 -303h-64l74 319q-79 26 -158.5 86.5t-79.5 124.5q0 33 21.5 58.5t54.5 25.5q35 0 59 -26t27 -62q1 -34 3.5 -52.5t10.5 -40t26 -35t48 -21.5l156 669
q-92 48 -146.5 125t-54.5 176q0 136 100.5 221t239.5 95zM610 707l-153 -656q51 -21 155 -26l144 600zM592 920l90 387q-82 -15 -142.5 -69t-60.5 -134q0 -64 26.5 -102t86.5 -82zM809 590l-131 -561q117 0 206 89t89 206q0 79 -46 151t-118 115zM649 881l144 -80l116 504
q-70 12 -104 12q-37 0 -55 -4z" />
    <glyph glyph-name="percent" unicode="%" horiz-adv-x="2129" 
d="M1774 1497l-979 -1647h-84l866 1463l-4 4q-50 -27 -78 -40.5t-73.5 -26.5t-88.5 -13q-16 0 -32 2t-34 6.5t-29.5 8t-33.5 11t-30 9.5q22 -71 22 -141q0 -76 -26 -160.5t-71.5 -158.5t-117 -122.5t-152.5 -48.5q-138 0 -226.5 92.5t-88.5 231.5q0 80 32.5 164t86 152.5
t131 112.5t160.5 44q54 0 96.5 -14.5t72 -35.5t59.5 -42t74.5 -35.5t102.5 -14.5q202 0 377 199h68zM967 1378q-66 0 -124.5 -53.5t-95.5 -130.5t-58 -157t-21 -140q0 -76 42.5 -134t116.5 -58q72 0 133 47.5t97.5 119.5t57 148t20.5 141q0 54 -16.5 101.5t-56 81.5
t-95.5 34zM1618 -98q-135 0 -222 89t-87 224q0 84 31.5 170t85.5 155t133.5 112.5t166.5 43.5q125 0 196 -83.5t71 -209.5q0 -82 -24.5 -168t-70 -161.5t-119 -123.5t-161.5 -48zM1753 635q-63 0 -120.5 -54t-93 -131.5t-56.5 -157t-21 -136.5q0 -80 42.5 -136.5
t119.5 -56.5q70 0 130.5 48t97.5 119.5t58 148t21 139.5q0 86 -46.5 151.5t-131.5 65.5z" />
    <glyph glyph-name="ampersand" unicode="&#x26;" horiz-adv-x="2007" 
d="M1675 594q0 -113 -45 -214t-120 -174t-172.5 -126.5t-204 -80t-211.5 -26.5q-90 0 -178 17t-171 54.5t-146 92t-101.5 135.5t-38.5 179q0 160 94.5 301t241.5 213q-11 57 -11 92q0 159 116 274t273 115q38 0 74 -7.5t67.5 -31.5t31.5 -61q0 -32 -23.5 -55t-54.5 -23
q-21 0 -37.5 10t-28.5 24t-26 28t-39 24t-58 10q-94 0 -163.5 -75t-69.5 -171q0 -68 41 -117q47 15 78 15q48 0 86.5 -21.5t38.5 -66.5t-39 -75t-86 -30q-35 0 -65 15t-47 31.5t-44 48.5q-99 -39 -158 -134t-59 -204q0 -89 37 -162.5t96.5 -122.5t138 -83.5t159 -49.5
t161.5 -15q85 0 169.5 17.5t163 56t138 92t95.5 131.5t36 170q0 57 -21.5 99.5t-59 66.5t-83 35.5t-100.5 11.5q-35 0 -72 -7t-74.5 -22t-61.5 -44t-24 -68q0 -22 10.5 -37.5t32.5 -15.5q15 0 46 11t53 11q32 0 55.5 -19.5t23.5 -51.5q0 -49 -40.5 -82t-90.5 -33
q-68 0 -109.5 44t-41.5 112q0 92 57 169t142.5 117.5t175.5 40.5q58 0 172 -12t172 -12q127 0 211 47q52 31 84 79.5t32 106.5q0 49 -27 86t-75 37q-17 0 -30.5 -11t-25 -27t-25 -32t-37 -27t-54.5 -11q-28 0 -49 17.5t-21 45.5q0 54 62.5 96.5t126.5 42.5q95 0 156 -61
t61 -156q0 -89 -43 -163t-112.5 -120t-152 -71t-165.5 -25q-12 0 -38 1t-38 1q59 -88 59 -190z" />
    <glyph glyph-name="quotesingle" unicode="'" horiz-adv-x="573" 
d="M666 1241l-162 -393q-30 -80 -51 -80q-20 0 -11 43l107 471q5 22 8.5 35.5t12.5 35t18.5 34t26 22.5t36.5 10q24 0 37.5 -14.5t13.5 -38.5q0 -32 -36 -125z" />
    <glyph glyph-name="parenleft" unicode="(" horiz-adv-x="696" 
d="M813 1364l35 -33q-121 -101 -212.5 -234.5t-146 -283t-81.5 -305.5t-27 -318q0 -341 141 -583l-39 -25q-104 159 -169.5 365.5t-65.5 388.5q0 201 77 395t200 348.5t288 284.5z" />
    <glyph glyph-name="parenright" unicode=")" horiz-adv-x="696" 
d="M170 -418l-35 33q121 101 212.5 234.5t146 283t81.5 305t27 316.5q0 343 -141 585l39 25q103 -160 169 -366.5t66 -387.5q0 -152 -43.5 -300t-121.5 -277.5t-178 -241.5t-222 -209z" />
    <glyph glyph-name="asterisk" unicode="*" horiz-adv-x="1024" 
d="M434 803q-32 0 -55 24.5t-23 57.5q0 40 30 60t71 20q21 0 62 -6.5t61 -6.5q27 0 84 11q1 0 9.5 1.5t16.5 3.5t17 4.5t14.5 6.5t5.5 8q0 7 -14 21.5t-21 19.5q-41 40 -64 56.5t-67 33.5q-108 41 -108 109q0 32 24.5 55t57.5 23q22 0 39 -8.5t29 -28t18 -32t15 -38.5
q2 -5 3 -8q25 -80 74 -129q43 -43 51 -43q12 0 26.5 59t14.5 84q0 21 -5 63t-5 62q0 38 22 68t60 30q33 0 54 -22.5t21 -56.5q0 -44 -53 -105q-30 -36 -44.5 -61t-25.5 -64q-1 -5 -7.5 -32t-6.5 -35q0 -7 10 -7q13 0 45 9q48 11 77.5 25t68.5 46q3 2 12.5 10t12.5 10.5
t11.5 9t13 9t13 7t14.5 6t14.5 3t16.5 1.5q32 0 55 -24.5t23 -57.5q0 -40 -29.5 -61t-70.5 -21q-20 0 -61 7t-62 7q-32 0 -84 -10q-1 0 -9.5 -1.5t-16.5 -3.5t-17.5 -5t-15 -7.5t-5.5 -9.5t14.5 -20t20.5 -19q39 -39 62.5 -55.5t68.5 -34.5q23 -10 38 -17.5t33.5 -21t28 -31
t9.5 -38.5q0 -32 -24.5 -55t-57.5 -23q-22 0 -39 8.5t-29 28t-18 32t-15 38.5q-2 5 -3 8q-27 80 -76 129q-43 43 -49 43q-14 0 -25 -56q-16 -62 -16 -88q0 -21 5 -60.5t5 -58.5q-9 -106 -82 -106q-33 0 -54.5 24t-21.5 58q0 15 4 28t14.5 29t15 22t19.5 25q34 41 60 94.5
t26 96.5q0 6 -4 6q-17 6 -53 -6q-46 -10 -76 -25t-69 -47q-25 -21 -34.5 -28t-31.5 -17t-43 -10z" />
    <glyph glyph-name="plus" unicode="+" 
d="M209 508h399v399h109v-399h399v-109h-399v-399h-109v399h-399v109z" />
    <glyph glyph-name="comma" unicode="," horiz-adv-x="573" 
d="M88 -338l-14 45q50 25 76.5 40t62 42.5t61.5 60.5q30 36 44 68t14 72q-5 -2 -27 -13q-16 -4 -29 -4q-39 0 -68.5 30.5t-29.5 70.5q0 52 32.5 87.5t82.5 35.5q64 0 100.5 -53.5t36.5 -120.5q0 -64 -31.5 -123t-84 -104t-109.5 -78.5t-117 -55.5z" />
    <glyph glyph-name="hyphen" unicode="-" horiz-adv-x="491" 
d="M137 502h471l-14 -109h-473z" />
    <glyph glyph-name="period" unicode="." horiz-adv-x="573" 
d="M319 -27q-46 0 -80 32t-34 79q0 49 32 81t82 32q46 0 77.5 -34t31.5 -81q0 -43 -33 -76t-76 -33z" />
    <glyph glyph-name="slash" unicode="/" horiz-adv-x="901" 
d="M993 1419h115l-907 -1695h-115z" />
    <glyph glyph-name="zero" unicode="0" 
d="M586 -27q-75 0 -135.5 28t-99 73.5t-64.5 107.5t-36.5 126t-10.5 132q0 286 166 574q37 67 82.5 126t104 113t129.5 85.5t144 31.5q88 0 156.5 -37t108.5 -100t60.5 -138t20.5 -159q0 -143 -42.5 -299.5t-114.5 -284.5q-37 -68 -83.5 -130t-106 -120.5t-132.5 -93.5
t-147 -35zM881 1325q-45 0 -87 -18.5t-73.5 -46t-62 -71.5t-50.5 -82t-41.5 -92.5t-32.5 -87.5t-26 -81q-121 -369 -121 -602q0 -94 47.5 -160t138.5 -66q58 0 111.5 37t87.5 80t72.5 123.5t53 119t40.5 115.5q3 7 4 11q123 367 123 610q0 94 -46 152.5t-138 58.5z" />
    <glyph glyph-name="one" unicode="1" 
d="M1010 1380l-244 -909q-3 -13 -26.5 -100t-39.5 -155t-16 -93q0 -14 3 -25.5t11 -19.5t15 -13.5t22 -9.5t25 -6.5t30.5 -3.5t32 -1.5t36 -1.5t36.5 -1l-12 -45q-53 1 -160 4t-160 4q-51 -1 -152.5 -4t-152.5 -4l12 45q2 0 20.5 0.5t26.5 1t27.5 2t30.5 3.5t28 5t27.5 7
t22 10.5t18.5 13.5q6 6 12 14.5t12 21t10.5 22t9.5 26t8 25t8 27t6.5 24t6.5 24t5 19.5l199 755q1 6 8 36t11.5 52.5t4.5 34.5q0 26 -16 40t-34 17t-46 3q-22 -1 -63.5 -2t-63.5 -2l10 47q252 16 451 112z" />
    <glyph glyph-name="two" unicode="2" 
d="M1108 324l-131 -328q-21 1 -61 4t-60 4q-114 -1 -344 -4t-344 -4v29l278 278l371 367q47 47 80 88.5t63.5 110.5t30.5 139q0 107 -68 171t-175 64q-106 0 -188.5 -69t-82.5 -173q0 -33 6.5 -66.5t12.5 -55.5t6 -25q0 -12 -13 -12q-27 0 -50 67.5t-23 128.5q0 101 51 178
t133 115.5t182 38.5q167 0 275 -93t108 -257q0 -44 -12.5 -88.5t-28.5 -79t-49.5 -76.5t-55.5 -67t-69 -65.5t-67.5 -56.5t-71.5 -56q-25 -19 -37 -29l-416 -352h363h53q33 -1 61 -0.5t50.5 3t42.5 9.5t36.5 18.5t33 31.5t33 47t34.5 65h43z" />
    <glyph glyph-name="three" unicode="3" 
d="M528 1161l37 168q115 41 236 41q67 0 126 -10.5t117 -35.5t92.5 -75t34.5 -121q0 -42 -12.5 -79.5t-39.5 -68t-53 -53.5t-69 -46.5t-70 -36.5t-73 -33v-4q97 -1 152 -71t55 -171q0 -77 -31.5 -150.5t-84.5 -133t-116 -106t-133 -79.5q-255 -123 -585 -123l14 52
q297 27 453 106q127 63 213 173.5t86 240.5q0 94 -58.5 140t-154.5 46q-51 0 -121 -12t-72 -12q-35 0 -35 24q0 12 7 20t21.5 12.5t25 6.5t28.5 4t21 2q58 6 116 18t127 36.5t120.5 56.5t86.5 83.5t35 112.5q0 48 -34 79.5t-77.5 43t-91.5 11.5q-115 0 -293 -56z" />
    <glyph glyph-name="four" unicode="4" 
d="M1147 1399l-223 -830h39h11q34 0 52 1t44.5 6.5t47.5 17.5q4 3 9 -1t3 -9l-24 -97h-203l-125 -487h-166l131 487h-546l18 66l899 846h33zM315 569h451l152 559l-5 5z" />
    <glyph glyph-name="five" unicode="5" 
d="M557 1204l-47 -184l121 6q84 0 155.5 -18t130 -56t92 -104t33.5 -154q0 -165 -96 -309t-246 -242q-128 -83 -273.5 -120.5t-326.5 -49.5l13 52q318 35 514 168q111 76 186.5 188.5t75.5 234.5q0 244 -299 244q-26 0 -96 -6.5t-88 -7.5l163 571q99 -35 173 -52t159 -17
q44 0 86.5 6t72.5 15t53.5 17.5t37 14.5t14.5 6q6 0 6 -4q0 -24 -43 -74q-123 -139 -413 -135q-25 0 -158 10z" />
    <glyph glyph-name="six" unicode="6" 
d="M1245 1384l10 -36q-206 -62 -341 -139.5t-246 -221.5q-112 -145 -186 -351.5t-74 -385.5q0 -61 17.5 -111.5t60.5 -85.5t106 -35q79 0 147.5 55.5t110.5 138t66 170.5t24 161q0 82 -34 138t-113 56q-45 0 -85 -25t-62.5 -54.5t-43 -54.5t-31.5 -25q-20 0 -20 22
q0 29 43 84q106 135 254 135q131 0 203.5 -83.5t72.5 -217.5q0 -99 -41.5 -198t-109.5 -175.5t-163.5 -124t-195.5 -47.5q-115 0 -200.5 60t-127.5 154.5t-42 207.5q0 178 97.5 358.5t244.5 315.5q280 258 659 315z" />
    <glyph glyph-name="seven" unicode="7" 
d="M1276 1343l-668 -1370h-237l587 875q16 22 48.5 78t80 141.5t68.5 122.5h-412q-131 0 -162 -7q-24 -6 -40 -18q-21 -16 -41.5 -58t-55.5 -132h-43l129 477h41q0 -3 0.5 -18t1.5 -23t4 -20t8.5 -20t14.5 -13q26 -15 154 -15h522z" />
    <glyph glyph-name="eight" unicode="8" 
d="M797 801l20 -19q112 51 179 133t67 195q0 102 -58 165.5t-159 63.5t-168.5 -68.5t-67.5 -170.5q0 -19 3.5 -37.5t7.5 -33.5t14.5 -34.5t16 -30.5t21.5 -31t21.5 -27.5t25.5 -28t24.5 -25.5t27.5 -27t25 -24zM655 682q-132 -54 -214.5 -155t-82.5 -236q0 -124 64 -198.5
t186 -74.5q123 0 199 87t76 212q0 56 -18.5 108t-55.5 99.5t-70 80.5t-84 77zM854 748q90 -90 141.5 -176.5t51.5 -188.5q0 -123 -62.5 -218t-164.5 -143.5t-224 -48.5q-155 0 -263 83t-108 233q0 66 24 125t60.5 101.5t91.5 82t104.5 65t112.5 52.5q-77 74 -119 146
t-42 161q0 108 59 192.5t151.5 127t198.5 42.5q85 0 158.5 -30t122.5 -94t49 -150q0 -57 -21.5 -107.5t-52.5 -86t-80.5 -69.5t-90.5 -54.5t-97 -44.5z" />
    <glyph glyph-name="nine" unicode="9" 
d="M256 -27l-10 35q206 63 340.5 140t244.5 221q113 146 188 352.5t75 384.5q0 61 -18 111.5t-61.5 85t-105.5 34.5q-64 0 -122 -36.5t-98.5 -94.5t-70.5 -128.5t-44.5 -139t-14.5 -125.5q0 -83 35 -139t113 -56q45 0 85 25t62.5 55t43 55t30.5 25q20 0 20 -22t-22.5 -57.5
t-59.5 -72t-95 -63t-120 -26.5q-131 0 -203.5 83.5t-72.5 217.5q0 133 69 259t188.5 206.5t254.5 80.5q115 0 200.5 -60.5t127.5 -155t42 -207.5q0 -178 -98.5 -358t-245.5 -316q-279 -261 -657 -314z" />
    <glyph glyph-name="colon" unicode=":" horiz-adv-x="573" 
d="M494 659q-46 0 -80.5 32t-34.5 79q0 48 33 80.5t82 32.5q46 0 77 -34.5t31 -80.5q0 -43 -32.5 -76t-75.5 -33zM319 -27q-46 0 -80 32t-34 79q0 49 32 81t82 32q46 0 77.5 -34t31.5 -81q0 -43 -33 -76t-76 -33z" />
    <glyph glyph-name="semicolon" unicode=";" horiz-adv-x="573" 
d="M88 -338l-14 45q50 25 76.5 40t62 42.5t61.5 60.5q30 36 44 68t14 72q-5 -2 -27 -13q-16 -4 -29 -4q-39 0 -68.5 30.5t-29.5 70.5q0 52 32.5 87.5t82.5 35.5q64 0 100.5 -53.5t36.5 -120.5q0 -64 -31.5 -123t-84 -104t-109.5 -78.5t-117 -55.5zM494 659q-46 0 -80.5 32
t-34.5 79q0 48 33 80.5t82 32.5q46 0 77 -34.5t31 -80.5q0 -43 -32.5 -76t-75.5 -33z" />
    <glyph glyph-name="less" unicode="&#x3c;" 
d="M291 406v100l737 342v-111l-612 -284l612 -277v-102z" />
    <glyph glyph-name="equal" unicode="=" 
d="M209 641h907v-109h-907v109zM209 373h907v-109h-907v109z" />
    <glyph glyph-name="greater" unicode="&#x3e;" 
d="M1028 506v-100l-737 -332v102l612 277l-612 284v111z" />
    <glyph glyph-name="question" unicode="?" horiz-adv-x="901" 
d="M801 481l33 -32q-82 -89 -183 -89q-69 0 -112 48t-43 116q0 61 34.5 113t92.5 106l114 105q83 77 110 110q60 75 60 152q0 94 -53 146.5t-147 52.5q-78 0 -136.5 -45.5t-58.5 -120.5q0 -48 33.5 -87.5t81.5 -39.5q12 0 25.5 6.5t13.5 17.5q0 4 -19.5 27.5t-19.5 52.5
q0 28 20 48t49 20q36 0 60 -25.5t24 -62.5q0 -59 -47.5 -97t-107.5 -38q-75 0 -124.5 49t-49.5 123q0 108 78 170.5t188 62.5q136 0 229.5 -86t93.5 -221q0 -93 -55.5 -173.5t-144.5 -158.5l-68 -57q-6 -5 -32 -27t-45 -39.5t-41.5 -41t-35 -45.5t-12.5 -40q0 -26 19 -42.5
t47 -16.5q62 0 129 59zM565 -27q-46 0 -79 32.5t-33 78.5q0 50 34 81.5t84 31.5q45 0 75 -34t30 -79t-33 -78t-78 -33z" />
    <glyph glyph-name="at" unicode="@" horiz-adv-x="1474" 
d="M1001 559l113 270q19 46 20.5 91t-23 77.5t-73.5 32.5q-66 0 -137.5 -73.5t-123 -174.5t-85 -204t-33.5 -166q0 -41 28 -69t69 -28q44 0 83.5 22.5t70 63t50.5 76t41 82.5zM1182 971l32 84h158l-221 -516q-26 -63 -38.5 -96.5t-19 -65t3 -43.5t33.5 -12q58 0 124.5 39
t123.5 104.5t95 162.5t38 201q0 132 -69 237.5t-179 160.5t-237 55q-180 0 -325 -90t-225.5 -243.5t-80.5 -338.5q0 -239 144 -394t376 -155q162 0 311 83t236 223h80q-82 -176 -261 -285t-374 -109q-131 0 -246 48.5t-197 132.5t-129.5 201.5t-47.5 250.5q0 150 59 290.5
t157.5 244.5t234.5 166.5t282 62.5q115 0 219.5 -37t184 -104t126.5 -168.5t47 -222.5q0 -120 -46.5 -230t-118.5 -185t-159.5 -120t-168.5 -45q-53 0 -98 29.5t-48 79.5q-118 -109 -239 -109q-89 0 -140 68.5t-51 160.5q0 94 37.5 198.5t99.5 193t151.5 146.5t184.5 58
q63 0 116 -28.5t61 -83.5h4z" />
    <glyph glyph-name="A" unicode="A" horiz-adv-x="1310" 
d="M981 1368l162 -1106q23 -153 41 -178q7 -9 18.5 -16.5t22.5 -11.5t28 -7t26.5 -4t28.5 -2.5t23 -1.5l-12 -45q-45 1 -136 4t-136 4q-44 -1 -132.5 -4t-132.5 -4l11 45q8 1 34.5 2t36.5 2.5t31 5t30.5 10t22 17t17 26.5t4.5 37q0 39 -13 123l-45 295h-397l-90 -170
q-1 -3 -14 -28t-24 -48t-26.5 -56.5t-26 -60t-18.5 -52.5t-8 -40q0 -13 6.5 -23t20.5 -16.5t26 -11t32.5 -7t30.5 -3.5t29.5 -1.5t20.5 -0.5l-12 -45q-39 1 -117 4t-117 4q-35 -1 -104.5 -4t-104.5 -4l13 45q55 8 89.5 24t69.5 54q19 21 45 60.5t44.5 72t46.5 83.5t36 66
l558 967h61zM549 621h352l-61 505h-4z" />
    <glyph glyph-name="B" unicode="B" horiz-adv-x="1228" 
d="M631 702l-103 -376q-2 -8 -9.5 -39t-12.5 -52t-9.5 -47t-4.5 -41q0 -34 14.5 -56.5t41.5 -32.5t52 -13.5t59 -3.5q183 0 290.5 110.5t107.5 299.5q0 64 -18.5 110t-46.5 72t-73 41.5t-87 21t-99 6.5h-102zM66 -4l12 45q122 -5 160.5 34.5t73.5 164.5q2 6 3 10l222 827
q38 133 38 158q0 20 -10.5 34t-24.5 21t-37.5 11t-38.5 4.5t-39.5 1t-29.5 0.5l13 45q46 -1 137 -4.5t137 -4.5q158 4 213 9q64 -1 121 -9.5t115.5 -29.5t100.5 -53.5t68.5 -86.5t26.5 -124q0 -65 -26 -118t-66 -87t-97 -60t-110.5 -39.5t-114.5 -21.5v-4q76 -14 134 -36
t109 -59t78.5 -96.5t27.5 -138.5q0 -86 -33 -155t-86 -113t-124.5 -73.5t-144.5 -41t-149 -10.5q-63 1 -187 4t-186 4q-48 -1 -143 -4t-143 -4zM754 1165l-111 -417h131q359 10 359 344q0 215 -254 215q-66 0 -86 -31q-14 -20 -39 -111z" />
    <glyph glyph-name="C" unicode="C" horiz-adv-x="1269" 
d="M1339 428l-108 -432h-23l-24 106q-102 -71 -196 -100t-220 -29q-229 0 -369.5 145.5t-140.5 375.5q0 104 27.5 210.5t77 203.5t121.5 181.5t157 146.5t189 98t212 36q93 0 163.5 -25t162.5 -81l72 73h20l-78 -381h-41q-4 65 -12 114t-27.5 99.5t-49.5 82.5t-80 52.5
t-117 20.5q-110 0 -208.5 -64.5t-167 -165.5t-118.5 -224t-74 -241.5t-24 -215.5q0 -179 85.5 -287.5t260.5 -108.5q65 0 119 12t102.5 49t76 57.5t71.5 89t55 87.5t57 105q4 7 6 10h43z" />
    <glyph glyph-name="D" unicode="D" horiz-adv-x="1351" 
d="M322 1307l12 45q45 -1 136 -4.5t136 -4.5q34 1 101.5 4.5t101.5 4.5q258 13 444 -138q95 -78 144 -189t49 -237q0 -161 -65.5 -312.5t-182.5 -266.5q-125 -120 -266.5 -169t-323.5 -44q-59 1 -178.5 4t-179.5 4q-43 -1 -129 -4t-129 -4l12 45q44 -2 76 1.5t54.5 15t38 26
t27.5 40t20.5 52t19.5 66.5q1 5 2 8l221 827q1 5 9.5 33.5t14 47t10.5 42t5 35.5q0 20 -10.5 34t-24.5 21t-37.5 11t-38.5 4.5t-39.5 1t-29.5 0.5zM696 1208l-223 -829q-45 -160 -45 -217q0 -34 13.5 -57.5t31.5 -35.5t49 -19t53 -8t56 -1q167 0 277.5 74t195.5 229
q65 122 101 265.5t36 281.5q0 204 -117.5 320t-310.5 96q-73 -7 -86 -15q-4 -3 -7 -7t-6 -12.5t-5 -15t-6 -22.5t-7 -27z" />
    <glyph glyph-name="E" unicode="E" horiz-adv-x="1146" 
d="M-8 -4l12 45q66 -3 105 5t64.5 41t35.5 59t29 98q1 4 2 6l221 827q1 6 11.5 44t17 67t6.5 43q0 22 -11.5 37t-26 22.5t-39.5 11.5t-39 4.5t-38 0.5l12 45q43 -1 128 -4.5t128 -4.5q113 1 342 4.5t342 4.5l29 -312h-39q-43 153 -111 210t-186 57h-272l-148 -557h158
q92 0 142 43t108 174h37l-107 -523h-41q0 14 2.5 47t2.5 56.5t-3.5 52t-17.5 50t-37 34.5q-37 21 -111 21h-145l-117 -435q-20 -70 -20 -108q0 -22 7.5 -40.5t22.5 -31t31 -21.5t40.5 -14.5t43.5 -9t46.5 -4t43 -1t40.5 0t32 0.5q93 0 158 16.5t115 56.5t86 93.5t77 140.5
h47l-94 -352q-140 1 -418 4t-417 4q-48 -1 -143.5 -4t-143.5 -4z" />
    <glyph glyph-name="F" unicode="F" horiz-adv-x="983" 
d="M567 709l-118 -443q-2 -6 -12 -43.5t-16.5 -66t-6.5 -43.5q0 -17 6 -30t17 -20.5t25.5 -12.5t31 -6.5t34 -2t35 0t33.5 -0.5l-12 -45q-51 1 -152.5 4t-152.5 4q-47 -1 -142.5 -4t-142.5 -4l12 45q44 -2 76 1.5t54.5 15t38 26t27.5 40t20.5 52t19.5 66.5q1 5 2 8l233 827
q1 5 9.5 33.5t14 47t10.5 42t5 35.5q0 20 -10 35t-26 21.5t-36 11t-40 4t-38 0.5t-30 0l12 45q45 -1 135 -4.5t135 -4.5q112 1 336.5 4.5t335.5 4.5l29 -328h-41q-19 89 -48.5 144.5t-78 86t-107 41.5t-149.5 11q-26 -2 -79.5 -5.5t-80.5 -5.5l-153 -542h170
q85 1 133.5 46.5t99.5 168.5h41l-104 -523h-41v34q0 25 0.5 49.5t-2.5 47.5t-8 42.5t-16.5 36t-27.5 28.5t-41 18.5t-57 6.5h-162z" />
    <glyph glyph-name="G" unicode="G" horiz-adv-x="1392" 
d="M1407 1239l59 82h23l-78 -379h-41q-1 181 -83 282t-212 101q-116 0 -218.5 -64t-173 -164.5t-121.5 -224t-75 -243t-24 -221.5q0 -173 88.5 -281.5t259.5 -108.5q176 0 277.5 102t101.5 277q0 25 -8.5 42.5t-20 26.5t-32 14.5t-35.5 6.5t-41 2.5t-39 2.5l10 45
q45 -1 135 -4.5t135 -4.5q45 1 136.5 4.5t136.5 4.5l-13 -45q-4 0 -22 -1t-29 -2t-26.5 -3t-27 -7t-19.5 -12q-9 -9 -19.5 -35.5t-17 -50.5t-15.5 -57.5t-10 -38.5q-2 -10 -10.5 -40.5t-11.5 -44t-8.5 -38t-7.5 -44.5t-3 -40q-9 1 -28.5 2t-28.5 2q-54 0 -110 -17t-99 -37.5
t-115 -37.5t-153 -17q-233 0 -384 139t-151 371q0 103 26.5 210t74.5 205t119 184.5t155 150t188 100.5t213 37q110 0 186.5 -30t186.5 -101z" />
    <glyph glyph-name="H" unicode="H" horiz-adv-x="1597" 
d="M627 657l-119 -391q-2 -10 -13 -45.5t-18.5 -66t-7.5 -45.5q0 -16 5.5 -28t17.5 -19t24 -11.5t31.5 -6.5t32.5 -2.5t35 -0.5h32l-14 -45q-51 1 -152.5 4t-152.5 4q-44 -1 -131 -4t-131 -4l12 45q122 -5 160.5 34.5t73.5 164.5q2 6 3 10l236 827q1 5 9.5 33.5t14 47
t10.5 42t5 35.5q0 20 -10.5 34t-24.5 21t-37.5 11t-38.5 4.5t-39.5 1t-29.5 0.5l12 45q48 -1 144.5 -4.5t144.5 -4.5q48 1 143 4.5t143 4.5l-12 -45q-91 -3 -125 -16q-32 -13 -49 -36q-29 -36 -86 -237l-82 -299h682l96 358q1 6 11.5 43.5t17 66.5t6.5 44q0 17 -5.5 30.5
t-18.5 21t-23.5 13t-32.5 7.5t-33 2.5t-36.5 1t-32.5 0.5l12 45q44 -1 132 -4.5t132 -4.5q53 1 159 4.5t159 4.5l-13 -45q-91 -3 -125 -16q-32 -13 -49 -36q-29 -36 -86 -237l-200 -752q-2 -10 -13 -45.5t-18.5 -66t-7.5 -45.5q0 -16 5.5 -28t17.5 -19t24 -11.5t31.5 -6.5
t32.5 -2.5t35 -0.5h32l-14 -45q-48 1 -144.5 4t-144.5 4q-47 -1 -140.5 -4t-140.5 -4l13 45q122 -5 160.5 34.5t73.5 164.5q2 6 3 10l109 407h-682z" />
    <glyph glyph-name="I" unicode="I" horiz-adv-x="696" 
d="M715 1018l-217 -752q-2 -10 -13 -45.5t-18.5 -66t-7.5 -45.5q0 -16 5.5 -28t17.5 -19t24 -11.5t31.5 -6.5t32.5 -2.5t35 -0.5h32l-14 -45q-48 1 -144.5 4t-144.5 4q-47 -1 -140.5 -4t-140.5 -4l13 45q122 -5 160.5 34.5t73.5 164.5q2 6 3 10l238 827q1 3 11.5 43t16.5 68
t6 43q0 17 -5.5 30.5t-18.5 21t-23.5 13t-32.5 7.5t-33 2.5t-36.5 1t-32.5 0.5l13 45q44 -1 132 -4.5t132 -4.5q53 1 158.5 4.5t158.5 4.5l-12 -45q-91 -3 -125 -16q-32 -13 -49 -36q-29 -36 -86 -237z" />
    <glyph glyph-name="J" unicode="J" horiz-adv-x="614" 
d="M393 1307l13 45q44 -1 132 -4.5t132 -4.5q53 1 158.5 4.5t158.5 4.5l-12 -45q-91 -3 -125 -16q-32 -13 -49 -36q-29 -36 -86 -237l-209 -821q-5 -20 -23 -88t-27 -101.5t-25.5 -89t-32.5 -99.5t-33 -83q-131 -289 -416 -289q-36 0 -73 7t-74.5 22t-61 44t-23.5 68
q0 35 22 58.5t58 23.5q38 0 59 -26t19 -64q-2 -19 -1 -32t11 -29q35 -27 74 -27q157 0 217 227l365 1358q1 3 11.5 43t16.5 68t6 43q0 17 -5.5 30.5t-18.5 21t-23.5 13t-32.5 7.5t-33 2.5t-36.5 1t-32.5 0.5z" />
    <glyph glyph-name="K" unicode="K" horiz-adv-x="1351" 
d="M614 651l-104 -385q-2 -6 -8.5 -32t-11 -45t-9 -42t-4.5 -34q0 -17 6 -30t16.5 -20.5t24.5 -12.5t30 -6.5t34 -2t35.5 0t33.5 -0.5l-12 -45q-49 1 -147.5 4t-147.5 4q-47 -1 -142 -4t-142 -4l10 45q53 -2 88.5 4.5t58 20t38 40.5t25.5 57t23 78q1 6 2 9l221 827
q35 115 35 154q0 17 -5.5 30.5t-18.5 21t-23.5 13t-32 7.5t-32.5 2.5t-36 1t-32 0.5l12 45q46 -1 137.5 -4.5t137.5 -4.5q51 1 154.5 4.5t154.5 4.5l-12 -45q-90 -3 -125 -16q-32 -13 -49 -36q-19 -26 -45 -104t-39 -133l-78 -289l412 266q3 2 43.5 33.5t67 54t62.5 55
t55 61t19 48.5q0 60 -151 60l12 45q37 -1 109.5 -4.5t109.5 -4.5q39 1 117 4.5t117 4.5l-13 -45q-40 -5 -72 -15.5t-64 -33t-49.5 -38t-57.5 -51.5l-527 -401l279 -422q128 -197 178 -248q10 -10 20 -17.5t18 -13t20.5 -9.5t18.5 -6t21.5 -4t21 -3t24 -2t24.5 -2l-12 -45
q-49 1 -148.5 4t-148.5 4q-47 -1 -140.5 -4t-140.5 -4l12 45q3 0 29.5 1.5t41.5 4.5t36.5 9t32 18t10.5 30q0 19 -19.5 56t-49.5 83t-31 48l-252 385z" />
    <glyph glyph-name="L" unicode="L" horiz-adv-x="1228" 
d="M1305 340l-93 -344q-146 1 -437 4t-437 4q-45 -1 -136 -4t-136 -4l12 45q122 -5 160.5 34.5t73.5 164.5q2 6 3 10l224 827q1 5 9.5 33.5t14 47t10.5 42t5 35.5q0 13 -4.5 24t-13 18.5t-18 13t-24 8.5t-25.5 5t-27.5 2.5t-25.5 1t-24 0t-19 -0.5l13 45q45 -1 134 -4.5
t134 -4.5q52 1 155.5 4.5t155.5 4.5l-12 -45q-135 0 -174 -54q-29 -36 -86 -237l-191 -707q-30 -113 -30 -162q0 -27 10.5 -47t32 -31.5t42.5 -18.5t52.5 -9t51.5 -2t50 1t39 1q85 0 142 6.5t111 24t92.5 51t73.5 86.5t67 131h45z" />
    <glyph glyph-name="M" unicode="M" horiz-adv-x="1802" 
d="M1018 291l635 1061q82 -6 166 -9q35 1 103 4.5t103 4.5l-12 -45q-51 1 -86.5 -9t-56 -24t-34 -44.5t-19 -56t-13.5 -73.5q-4 -24 -6 -37l-151 -891q-7 -43 2.5 -70t36 -38.5t51.5 -15.5t63 -6q17 0 25 -1l-10 -45q-48 1 -144.5 4t-144.5 4q-47 -1 -140.5 -4t-140.5 -4
l12 45q39 3 54 4.5t40.5 6t33.5 8t23 13.5t19 20t12.5 28.5t12.5 39t10 52.5l178 1004l-4 4l-723 -1221h-32l-219 1231h-5l-194 -733q-2 -8 -19.5 -73t-27 -103.5t-19.5 -90t-10 -77.5q0 -31 9.5 -52.5t19 -32.5t36 -17.5t39 -7.5t50.5 -2q13 -1 20 -1l-12 -45q-42 1 -127 4
t-127 4q-37 -1 -111.5 -4t-111.5 -4l12 45q72 0 118.5 22.5t76.5 83.5q35 72 120 361l207 713q9 29 -8 48t-51.5 26t-59 9.5t-51.5 2.5l10 45q34 -1 101.5 -4.5t101.5 -4.5q29 1 87.5 4.5t88.5 4.5z" />
    <glyph glyph-name="N" unicode="N" horiz-adv-x="1433" 
d="M403 532l170 639q-22 41 -29 54t-24 34.5t-24.5 25t-31.5 11.5t-44.5 8.5t-63.5 2.5l13 45q29 -1 88.5 -4.5t89.5 -4.5q25 1 75.5 4.5t75.5 4.5l545 -1100l180 670q50 194 50 266q0 31 -9.5 53t-21.5 33.5t-37.5 18.5t-42 9t-50.5 4q-11 1 -16 1l13 45q37 -1 109.5 -4.5
t109.5 -4.5q38 1 114.5 4.5t114.5 4.5l-10 -45q-55 -1 -92.5 -16.5t-62 -51t-37 -67t-29.5 -91.5l-297 -1118h-47l-568 1143l-159 -594q-74 -270 -74 -360q0 -30 11.5 -51t22 -31.5t41.5 -17.5t41.5 -7.5t49.5 -2.5q9 -1 14 -1l-12 -45q-40 1 -121 4t-121 4
q-39 -1 -117.5 -4t-117.5 -4l10 45q38 5 52 7.5t42 9.5t41.5 17t31 28t30.5 44t27 62t29 85t24.5 80.5t25 89t18.5 68.5z" />
    <glyph glyph-name="O" unicode="O" horiz-adv-x="1433" 
d="M1044 1370q228 0 368 -149t140 -377q0 -123 -40.5 -250t-115.5 -237t-172.5 -197t-220.5 -137t-251 -50q-231 0 -362.5 144t-131.5 377q0 124 39 250.5t111.5 238t168 198.5t217.5 138t250 51zM1071 1325q-80 0 -155 -36t-135 -97t-111.5 -141t-89 -168.5t-64.5 -179.5
t-40 -174.5t-13 -151.5q0 -69 16 -131t48.5 -114t88.5 -83t129 -31q82 0 157.5 35.5t135 96t110.5 140t87 167.5t62 179t38.5 175t12.5 154q0 62 -17.5 124t-50.5 115.5t-87.5 87t-121.5 33.5z" />
    <glyph glyph-name="P" unicode="P" horiz-adv-x="1146" 
d="M360 1307l13 45q35 -1 113 -4.5t120 -4.5q42 1 126 4.5t126 4.5q61 -1 113.5 -6t114 -17t108.5 -35t88 -57t64 -86t24 -119q-1 -79 -28 -143t-74 -106.5t-105 -73.5t-128 -48t-135.5 -24.5t-135.5 -7.5q-30 1 -91 4t-91 4l-101 -371q-2 -10 -13 -45.5t-18.5 -66
t-7.5 -45.5q0 -16 5.5 -28t18 -19t24 -11.5t31.5 -6.5t32.5 -2.5t35 -0.5h32.5l-15 -45q-40 1 -139.5 4t-153.5 4q-46 -1 -139.5 -4t-142.5 -4l12 45q44 -2 76 1.5t54.5 15t38 26t27.5 40t20.5 52t19.5 66.5q1 5 2 8l221 827q1 5 9.5 33.5t14 47t10.5 42t5 35.5
q0 20 -10.5 34t-24.5 21t-37.5 11t-39 4.5t-40 1t-29.5 0.5zM731 1196l-137 -508q22 -2 67 -5t68 -5q191 0 313.5 102.5t122.5 290.5q0 119 -81 177.5t-201 58.5q-106 0 -129 -35q-7 -12 -23 -76z" />
    <glyph glyph-name="Q" unicode="Q" horiz-adv-x="1433" 
d="M557 -123h78q91 0 184.5 -26.5t171.5 -64t155 -75t164.5 -64t170.5 -26.5q40 0 73.5 10.5t54 25t35 29t22.5 25t11 10.5q6 0 6 -14q0 -24 -9.5 -55.5t-32 -68t-54.5 -66.5t-82.5 -50t-109.5 -20q-115 0 -220 57t-282 207q-72 61 -144 91t-161 30q-63 0 -108.5 -14
t-106.5 -49q-44 -29 -60 -29q-20 0 -31.5 13t-11.5 34q0 34 64 49q56 14 85.5 25t80.5 39l143 77q-191 43 -288 179.5t-97 339.5q0 124 37.5 251t109 238t165.5 197.5t216 137t252 50.5q236 0 371 -137.5t135 -370.5q0 -161 -67.5 -324t-180.5 -292q-113 -128 -246.5 -193.5
t-306.5 -79.5l-186 -92v-4zM1055 1325q-108 0 -206 -67t-166.5 -171t-119.5 -230t-75.5 -246t-24.5 -216q0 -70 16 -134.5t48.5 -120t89.5 -89t131 -33.5q111 0 210 69.5t166.5 177.5t117.5 238t73.5 252.5t23.5 219.5q0 68 -16.5 129t-49.5 111.5t-89 80t-129 29.5z" />
    <glyph glyph-name="R" unicode="R" horiz-adv-x="1310" 
d="M311 250l221 827q1 5 9.5 33.5t14 47t10.5 42t5 35.5q0 20 -10.5 34t-24.5 21t-37.5 11t-38.5 4.5t-39.5 1t-29.5 0.5l12 45q41 -1 129.5 -4.5t133.5 -4.5q42 1 124.5 4.5t124.5 4.5q57 2 110 -1.5t114.5 -13t111.5 -31t92 -53.5t65.5 -83.5t23.5 -116.5q0 -74 -35 -135
t-88.5 -100.5t-125 -69t-137.5 -43.5t-133 -21v-4q84 -24 137 -55t83 -79.5t41.5 -105.5t13.5 -145q1 -25 1.5 -40t3.5 -43.5t7.5 -47t13.5 -41t21 -36t31 -23t43 -9.5q26 0 52 14.5t39 27t38 40.5l37 -22q-39 -62 -115.5 -102t-151.5 -40q-114 0 -169 78.5t-50 194.5l8 192
q0 73 -14 117.5t-48 68.5t-78 32t-116 8q-21 -1 -63 -2.5t-62 -2.5l-106 -393q-2 -10 -13 -45.5t-18.5 -66t-7.5 -45.5q0 -16 5.5 -28t17.5 -19t24 -11.5t31.5 -6.5t32.5 -2.5t35 -0.5h32l-14 -45q-39 1 -135.5 4t-149.5 4q-47 -1 -142 -4t-142 -4l10 45q53 -2 88.5 4.5
t58 20t38 40.5t25.5 57t23 78q1 6 2 9zM756 1174l-127 -467q200 7 284 22q50 9 91 23q103 36 163 117t60 188q0 130 -80 190t-213 60q-35 0 -78 -7.5t-59 -25.5q-8 -10 -22 -44.5t-19 -55.5z" />
    <glyph glyph-name="S" unicode="S" horiz-adv-x="983" 
d="M1051 1251l61 74h27l-74 -348h-35q-5 159 -71.5 253.5t-204.5 94.5q-92 0 -155.5 -58t-63.5 -149q0 -56 26.5 -109.5t68.5 -98.5t93 -91t102.5 -95.5t93.5 -102.5t68.5 -122t26.5 -145q0 -169 -118 -275t-290 -106q-102 0 -206 40.5t-173 111.5l-65 -84h-27l68 381h41
q6 -87 25 -155t55.5 -126.5t101 -90.5t154.5 -32q108 0 178.5 74.5t70.5 183.5q0 63 -26 121.5t-67 105.5t-91 93.5t-100.5 94t-91.5 98t-67 115.5t-26 136q0 151 108 240.5t261 89.5q176 0 322 -119z" />
    <glyph glyph-name="T" unicode="T" horiz-adv-x="1310" 
d="M1094 1307l-277 -1041q-2 -10 -13 -45.5t-18.5 -66t-7.5 -45.5q0 -16 5.5 -28t17.5 -19t24 -11.5t31.5 -6.5t32.5 -2.5t35 -0.5h32l-14 -45q-41 1 -141.5 4t-155.5 4q-47 -1 -141.5 -4t-141.5 -4l13 45q122 -5 160.5 34.5t73.5 164.5q2 6 3 10l281 1057q-89 0 -135 -2
t-113 -10t-105 -27t-82.5 -51.5t-76 -85t-57.5 -125.5h-39l90 346q104 -1 309 -4.5t309 -4.5q94 1 284 4.5t284 4.5v-346h-41q-12 70 -25.5 116.5t-37 81.5t-51 54t-75.5 30.5t-100.5 15t-136.5 3.5z" />
    <glyph glyph-name="U" unicode="U" horiz-adv-x="1392" 
d="M373 614l125 463q1 5 9.5 33.5t14 47t10.5 42t5 35.5q0 20 -10.5 34t-24.5 21t-37.5 11t-39 4.5t-40 1t-29.5 0.5l13 45q45 -1 135 -4.5t135 -4.5q51 1 153.5 4.5t153.5 4.5l-12 -45q-43 -2 -65 -3.5t-57 -14.5t-52 -36q-29 -36 -86 -237l-125 -469q-5 -20 -14.5 -57
t-15 -60.5t-10.5 -56t-5 -60.5q0 -131 89 -204.5t222 -73.5q61 0 113.5 14t92 36t74 59t58.5 73t47.5 88.5t38.5 95.5t33 103q44 138 104 374t60 312q0 31 -10.5 53.5t-24 34t-40 18t-43.5 8t-50 3.5l12 45q114 -6 219 -9q56 0 232 9l-13 -45q-35 0 -63 -7t-48 -16
t-37 -29.5t-27 -35.5t-21 -46.5t-16 -50t-15 -57.5l-107 -381q-66 -233 -94 -308q-87 -228 -222 -322q-118 -81 -290 -81q-69 0 -134 12t-126.5 39t-107.5 67t-73.5 101t-27.5 136q0 31 7.5 71.5t15.5 70.5t22 77t19 67z" />
    <glyph glyph-name="V" unicode="V" horiz-adv-x="1187" 
d="M614 -37l-161 1198q-4 30 -9.5 50.5t-10.5 36t-17.5 25t-21 15.5t-32 9.5t-37.5 5t-51 4.5l13 45q44 -1 132 -4.5t132 -4.5q47 1 141.5 4.5t141.5 4.5l-13 -45q-3 0 -19 -1t-22.5 -1.5t-22.5 -2.5t-24 -4l-22 -5.5t-21.5 -8t-17.5 -11t-15 -14.5t-8.5 -18.5t-3.5 -23.5
q0 -36 17 -189l98 -813h4q528 908 528 1014q0 26 -13 42.5t-36 23.5t-44 9t-46 3h-10l10 45q35 -1 103.5 -4.5t103.5 -4.5q37 1 111.5 4.5t111.5 4.5l-12 -45q-61 -7 -104.5 -33.5t-80.5 -77.5q-32 -44 -67 -103.5t-79.5 -143.5t-59.5 -111q-271 -481 -314 -553l-194 -322
h-58z" />
    <glyph glyph-name="W" unicode="W" horiz-adv-x="1720" 
d="M1155 1061l-520 -1098h-68l-123 1120q-2 14 -4.5 42t-3.5 39t-4.5 32.5t-7 30t-10.5 23.5t-15.5 21t-21 15t-28.5 12t-37.5 6t-47.5 3l12 45q43 -1 129.5 -4.5t129.5 -4.5q46 1 138 4.5t138 4.5l-12 -45q-12 -1 -37 -2.5t-40 -2.5t-35.5 -6.5t-31.5 -14.5t-19.5 -26.5
t-8.5 -42.5q1 -15 1 -45.5t1 -46.5l84 -860h4l358 764l22.5 45t30 62t22.5 56.5t11 49.5q0 17 -10 29.5t-22.5 19t-34 11t-35.5 6t-36.5 3t-27.5 1.5l11 45q41 -1 123.5 -4.5t123.5 -4.5q43 1 128 4.5t128 4.5l-10 -45q-8 -1 -29 -3.5t-27.5 -3.5t-23 -4.5t-21.5 -6t-17 -8
t-15.5 -11.5t-10.5 -15.5t-9.5 -21t-4.5 -26.5t-2 -33l13 -193l75 -735h5l266 559q166 341 166 418q0 17 -5 30t-15.5 21.5t-20 14t-27.5 9t-27.5 4.5t-30 2.5t-26.5 2.5l12 45q33 -1 97.5 -4.5t97.5 -4.5q34 1 101.5 4.5t101.5 4.5l-8 -45q-26 -5 -50.5 -16.5t-42.5 -24
t-37 -35t-30.5 -38.5t-27.5 -45.5t-23 -44.5t-22.5 -48.5t-20.5 -44.5l-506 -1047h-66l-129 1098h-4z" />
    <glyph glyph-name="X" unicode="X" horiz-adv-x="1310" 
d="M944 739l207 -448q2 -4 15 -32t19.5 -41t20 -39t22.5 -42t21.5 -33t22.5 -26q7 -7 15.5 -12.5t15.5 -9t17.5 -6t16.5 -4t18.5 -2.5t17 -1.5t19 -1t17.5 -0.5l-10 -45q-47 1 -140.5 4t-140.5 4q-44 -1 -132 -4t-132 -4l10 45q5 0 20.5 0.5t22 1t21 1.5t22 3t19 5t17.5 7.5
t12 11t9 15.5t3 20q0 15 -7.5 40.5t-16 45t-21 48.5t-15.5 36l-30 70l-113 250l-148 -162q-227 -244 -227 -323q0 -17 9.5 -29.5t22 -19t33.5 -11t34.5 -6t35.5 -3t27 -1.5l-10 -45q-42 1 -125 4t-125 4q-37 -1 -111.5 -4t-111.5 -4l12 45q60 7 105.5 29t73 48t75.5 81
l401 463l-205 450q-42 99 -58 123q-35 51 -108 65q-27 5 -65 7l12 45q44 -1 131 -4.5t131 -4.5q47 1 142.5 4.5t142.5 4.5l-12 -45q-8 -1 -32 -2t-40.5 -3.5t-35.5 -9t-29.5 -20t-10.5 -33.5q0 -57 78 -223l99 -219l151 170q193 209 193 284q0 17 -10.5 28.5t-30 16.5
t-35.5 7t-39.5 2.5t-30.5 1.5l14 45q37 -1 110 -4.5t110 -4.5q39 1 117.5 4.5t117.5 4.5l-12 -45q-80 -10 -133 -45q-13 -8 -26.5 -18.5t-29.5 -25.5t-27.5 -26t-30.5 -31.5t-26.5 -28.5t-26.5 -30t-22 -25z" />
    <glyph glyph-name="Y" unicode="Y" horiz-adv-x="1187" 
d="M547 250l96 362l-149 506q-28 108 -52 142q-15 21 -40.5 31.5t-41.5 12.5t-53 3l12 45q41 -1 123 -4.5t123 -4.5q43 1 129 4.5t129 4.5l-12 -45q-2 0 -23.5 -0.5t-28.5 -1.5t-26.5 -3t-27.5 -7t-20 -12t-16.5 -19t-4.5 -27q0 -26 8 -57l149 -518q1 1 134 153t215.5 262.5
t82.5 155.5q0 12 -3 22.5t-10.5 17.5t-14 12.5t-19 9t-20 6t-23 3.5t-21.5 1.5t-21.5 1t-18.5 0.5l12 45q33 -1 97.5 -4.5t97.5 -4.5q35 1 103.5 4.5t103.5 4.5l-13 -45q-21 1 -41.5 -5.5t-34.5 -15t-34 -28.5t-28 -29t-28 -35t-24 -31l-479 -581l-99 -369q-20 -74 -20 -100
q0 -17 6 -30t17 -20.5t25.5 -12.5t30.5 -6.5t33.5 -2t34.5 0t33 -0.5l-10 -45q-52 1 -157 4t-157 4q-45 -1 -135 -4t-135 -4l10 45q66 -3 105 5t64.5 41t35.5 59t29 98q1 4 2 6z" />
    <glyph glyph-name="Z" unicode="Z" horiz-adv-x="1146" 
d="M1384 1352l-956 -1311h240q67 0 112.5 2t96 9t86 20.5t74 35t70 53.5t63.5 76t63 103h41q-21 -58 -65 -172.5t-66 -171.5q-142 1 -424.5 4t-423.5 4q-23 -1 -69 -4t-68 -4l948 1311h-178q-79 0 -135 -6.5t-107.5 -23t-94 -48t-84 -77t-87.5 -114.5h-41l125 314
q122 -1 366.5 -4.5t366.5 -4.5q25 1 74 4.5t73 4.5z" />
    <glyph glyph-name="bracketleft" unicode="[" horiz-adv-x="778" 
d="M608 1364h369l-19 -61h-225l-360 -1518h229l-18 -61h-363z" />
    <glyph glyph-name="backslash" unicode="\" horiz-adv-x="573" 
d="M227 1419h115l461 -1695h-115z" />
    <glyph glyph-name="bracketright" unicode="]" horiz-adv-x="778" 
d="M834 1364l-388 -1640h-368l18 61h226l360 1518h-229l18 61h363z" />
    <glyph glyph-name="asciicircum" unicode="^" 
d="M436 584h-112l327 759h101l333 -759h-112l-275 630z" />
    <glyph glyph-name="underscore" unicode="_" horiz-adv-x="1024" 
d="M0 -154h1024v-102h-1024v102z" />
    <glyph glyph-name="grave" unicode="`" horiz-adv-x="696" 
d="M879 1071h-58l-235 148q-1 1 -10 6t-11.5 7t-10.5 7.5t-11.5 8.5t-10 8.5t-9.5 10.5t-6.5 11t-5 12t-1.5 13q0 27 19 49t46 22q15 0 31 -7.5t33 -23t28 -27t27.5 -32t20.5 -24.5z" />
    <glyph glyph-name="a" unicode="a" horiz-adv-x="1024" 
d="M758 838q-58 0 -122 -54.5t-116 -137.5t-95 -176.5t-67 -177.5t-24 -134q0 -54 25.5 -97t74.5 -43q41 0 82 22t70.5 53t60.5 77.5t49 81t39 78.5q119 257 119 399q0 43 -27 76t-69 33zM897 772l31 84h145l-90 -244q-41 -108 -88 -278t-47 -250q0 -49 26 -49q14 0 31 11.5
t34 33.5t32.5 44.5t33 54.5t27.5 51.5t24 48.5t17 34l43 -18q-9 -18 -30.5 -64t-35.5 -73.5t-39.5 -67t-49.5 -62t-58 -39t-72 -16.5q-56 0 -89 31t-33 86q0 18 3 38t8 44t7 35l-4 4q-133 -238 -305 -238q-101 0 -166.5 70t-65.5 172q0 98 47 215.5t122 217.5t179 167.5
t207 67.5q112 0 156 -111z" />
    <glyph glyph-name="b" unicode="b" horiz-adv-x="860" 
d="M672 1364l-127 -375l-94 -301l4 -4q120 199 270 199q101 0 159 -74.5t58 -179.5q0 -80 -29 -171.5t-82.5 -176.5t-121 -154.5t-152 -111.5t-168.5 -42q-99 0 -159 57.5t-60 155.5q0 84 72 303l200 646q2 7 9 30.5t11.5 43t4.5 30.5q0 21 -11.5 34t-34 18t-36.5 6t-38 1
h-7l12 45zM401 18q76 0 152 81t127 193t83 225t32 183q0 50 -26 94t-71 44q-58 0 -118.5 -57t-108.5 -143.5t-87 -184t-60 -184t-21 -138.5q0 -47 25.5 -80t72.5 -33z" />
    <glyph glyph-name="c" unicode="c" horiz-adv-x="737" 
d="M739 281l41 -25q-145 -283 -358 -283q-113 0 -174.5 78t-61.5 195q0 95 42 206.5t110.5 207t166 159.5t197.5 64q59 0 107.5 -30.5t48.5 -86.5q0 -33 -22.5 -59.5t-55.5 -26.5q-29 0 -49 22t-20 50q0 19 11 37.5t11 23.5q0 25 -45 25q-72 0 -141 -84.5t-113.5 -199.5
t-72 -223.5t-27.5 -166.5q0 -60 29.5 -103t85.5 -43q160 0 290 263z" />
    <glyph glyph-name="d" unicode="d" horiz-adv-x="1024" 
d="M723 838q-71 0 -145 -83t-125.5 -196t-85 -226t-33.5 -177q0 -56 27 -97t81 -41q60 0 119.5 56.5t104 141.5t79.5 181t53.5 179.5t18.5 132.5q0 50 -23.5 89.5t-70.5 39.5zM850 797l96 336q27 103 27 114q0 16 -11 26.5t-30.5 15t-37 6t-41 2t-30.5 1.5l15 45l321 21
l-98 -352l-86 -320q-5 -17 -27.5 -101.5t-35 -135.5t-30 -126.5t-26 -134t-8.5 -100.5q0 -59 33 -59q31 0 76 61.5t73 118.5t47 102l45 -16q-19 -51 -44 -100.5t-62 -104.5t-84 -89t-96 -34q-57 0 -89 39.5t-32 98.5q0 39 18 131l-4 4q-21 -41 -40 -74.5t-49 -72.5
t-60.5 -65t-71 -43.5t-84.5 -17.5q-110 0 -174 76t-64 187q0 75 27.5 163.5t78.5 173.5t115.5 154.5t146 112.5t163.5 43q42 0 77 -23.5t56 -62.5z" />
    <glyph glyph-name="e" unicode="e" horiz-adv-x="696" 
d="M715 264l37 -26q-36 -54 -70.5 -95.5t-80.5 -83t-100.5 -64t-113.5 -22.5q-106 0 -167.5 63.5t-61.5 170.5q0 97 43.5 214.5t114 220t171 172t203.5 69.5q64 0 106 -39t42 -103q0 -60 -32 -115.5t-79 -96t-112.5 -78t-119 -61.5t-111.5 -48q-8 -3 -11 -4l-33 -14
q-35 -115 -35 -189q0 -51 25.5 -84t75.5 -33q22 0 43.5 4.5t43 16t37.5 21t37.5 30t33 31t32.5 37t28.5 35.5t28.5 37.5t25 33.5zM356 379q60 26 119.5 63t118 87t95 113t36.5 128q0 31 -16.5 49.5t-46.5 18.5q-52 0 -105 -52.5t-93 -132.5t-66.5 -149t-41.5 -125z" />
    <glyph glyph-name="f" unicode="f" horiz-adv-x="573" 
d="M586 809l-164 -668q-51 -207 -74 -277q-125 -385 -349 -414q-20 -3 -40 -3q-40 0 -77.5 11t-67 39.5t-29.5 68.5q0 24 15.5 40.5t39.5 16.5q30 0 45.5 -20.5t19 -45t20.5 -45t50 -20.5q31 0 58.5 20.5t48.5 56t34.5 64.5t26.5 63q3 8 4 11l283 1102h-168l14 45h166
q58 194 102 281q115 229 306 229q38 0 76.5 -12.5t68 -42t29.5 -68.5q0 -25 -13.5 -42t-37.5 -17q-32 0 -47.5 19.5t-24.5 53.5q-7 33 -19.5 48.5t-41.5 15.5q-38 0 -71 -28t-55.5 -67.5t-43.5 -97.5t-32 -102t-24 -98.5t-18 -71.5h178l-14 -45h-174z" />
    <glyph glyph-name="g" unicode="g" horiz-adv-x="901" 
d="M887 -264q0 -65 -27 -116.5t-70 -83t-101 -52.5t-115 -29t-117 -8q-54 0 -107.5 7.5t-109.5 26t-98.5 47.5t-69.5 75.5t-27 105.5q0 63 44.5 107.5t107.5 44.5q34 0 82 -25q-46 -18 -73.5 -55t-27.5 -86q0 -58 26 -99.5t71 -63t93.5 -31t104.5 -9.5q52 0 100 8.5
t95.5 28.5t76.5 59.5t29 94.5q0 20 -5 38t-11.5 31t-20.5 24.5t-23.5 19t-30 15t-31 11t-35.5 8t-34 6t-35.5 4.5t-31.5 4q-142 22 -196 39q-162 52 -162 166q0 44 20 79t54 57.5t70.5 36.5t78.5 22q-61 37 -99 95t-38 124q0 101 54.5 198.5t148 159.5t196.5 62
q127 0 205 -97q82 86 160 86q50 0 89.5 -31.5t39.5 -78.5q0 -33 -23.5 -57.5t-56.5 -24.5q-26 0 -45.5 17.5t-22.5 43.5q-1 4 -2 14.5t-2 14.5t-4 10t-8.5 8.5t-14.5 2.5q-10 0 -19.5 -3t-19.5 -10t-16 -11.5t-17 -14.5t-14 -13q23 -58 23 -108q0 -110 -50 -207.5
t-141.5 -158t-201.5 -62.5q-221 0 -221 -86q0 -32 26 -53t68.5 -29.5t97 -17t111.5 -15.5t111.5 -25.5t97 -45t68.5 -76.5t26 -119zM518 248q58 0 105 50.5t72.5 124t39 144t13.5 123.5q0 59 -31 103.5t-86 44.5q-45 0 -85.5 -34t-67.5 -85.5t-47.5 -112.5t-30 -115.5
t-9.5 -93.5q0 -61 33.5 -105t93.5 -44z" />
    <glyph glyph-name="h" unicode="h" horiz-adv-x="1024" 
d="M756 393l41 109q67 198 67 248q0 28 -16.5 45.5t-44.5 17.5q-46 0 -93.5 -32t-87 -80t-79.5 -118t-69 -132.5t-59 -137t-45 -118t-30 -89.5l-35 -106h-137l326 1116q24 99 24 117q0 10 -2 18t-5 14t-9.5 11t-10.5 8t-13 5.5t-13.5 4t-16 2.5t-15 1t-16 0.5t-14.5 0.5h-30
l12 45l332 21l-223 -758l4 -4q85 122 132 170q102 102 212 102q149 0 145 -176q0 -114 -65 -290l-91 -242q0 -1 -3 -9t-5.5 -15t-5.5 -18t-5 -20t-3.5 -20t0 -19t4 -15t9.5 -11t16 -4q29 0 63.5 29.5t65.5 76t52.5 83.5t37.5 71l45 -19q-130 -303 -297 -303q-119 0 -119 136
q2 97 70 284z" />
    <glyph glyph-name="i" unicode="i" horiz-adv-x="573" 
d="M319 397l58 138q0 1 14 38t21 57.5t18.5 54.5t17 57.5t5.5 37.5q0 16 -9.5 28.5t-25.5 12.5q-29 0 -72 -47t-72 -92.5t-49 -83.5l-41 23q68 115 98 154q86 108 177 108q56 0 91.5 -41.5t35.5 -98.5q0 -28 -6 -59.5t-18.5 -68.5t-22 -61.5t-27 -67t-23.5 -56.5l-65 -166
q-1 -3 -20 -53t-30.5 -87t-11.5 -54q0 -13 9 -24t22 -11q36 0 84.5 51t81.5 102t53 93l41 -21q-18 -37 -37.5 -71t-49 -75t-59.5 -71t-68.5 -50t-76.5 -20q-61 0 -97 43t-36 105q0 30 10.5 71t20.5 66.5t32.5 76.5t26.5 62zM582 1157q-37 0 -65 26t-28 64q0 40 27 68t66 28
q41 0 67.5 -28t26.5 -68q0 -37 -28 -63.5t-66 -26.5z" />
    <glyph glyph-name="j" unicode="j" horiz-adv-x="532" 
d="M203 553l-39 25q23 47 55 95.5t74.5 98t94 80.5t99.5 31q43 0 68 -31t25 -74q0 -66 -31 -208t-60 -234l-184 -610q-36 -117 -125.5 -198t-208.5 -81q-38 0 -74.5 9.5t-66 35.5t-29.5 64q0 22 15.5 38.5t38.5 16.5q28 0 43.5 -18.5t20 -41t21.5 -41t48 -18.5
q36 0 68.5 25.5t56 66.5t38.5 78t25 74l125 440q139 563 139 594t-22 31q-25 0 -73.5 -53.5t-85.5 -107t-56 -87.5zM594 1157q-39 0 -66.5 26t-27.5 64q0 40 27 68t67 28q39 0 65.5 -28t26.5 -68q0 -37 -27.5 -63.5t-64.5 -26.5z" />
    <glyph glyph-name="k" unicode="k" horiz-adv-x="901" 
d="M549 426l-162 -74l-102 -352h-154l311 1180q15 58 15 75q0 12 -7 20.5t-19.5 13t-26.5 7.5t-31 3.5t-29.5 0t-26 -1t-16.5 -0.5l14 45l334 21l-69 -252l-111 -438l4 -4q152 213 318 213q58 0 105.5 -35.5t47.5 -89.5q0 -45 -22.5 -85t-64.5 -72t-80 -54.5t-92.5 -50.5
t-78.5 -43q105 -29 136 -90t24 -175l-2 -59q-15 -94 27 -94q30 0 59.5 38.5t60.5 106.5t35 74l39 -16q-4 -9 -14.5 -34t-16 -37t-16.5 -35t-19 -35.5t-21 -32t-24 -30.5t-27 -24.5t-31.5 -20t-35.5 -11.5t-41 -5q-60 0 -95.5 41t-35.5 101q0 35 5 104.5t5 104.5
q0 47 -13.5 69.5t-55.5 32.5zM401 410q50 20 95 41t103 56t99 71t70 84t29 96q0 29 -18.5 46t-49.5 17q-56 0 -112 -44.5t-98 -113t-71.5 -133t-46.5 -120.5z" />
    <glyph glyph-name="l" unicode="l" horiz-adv-x="532" 
d="M721 1364l-244 -776q-3 -9 -20.5 -67t-27.5 -89.5t-26 -90t-25 -97.5t-16.5 -81.5t-7.5 -68.5q0 -59 39 -59q31 0 78 53.5t80.5 110t50.5 94.5l47 -23q-67 -129 -106 -179q-89 -118 -193 -118q-69 0 -106 45.5t-37 116.5q0 85 78 328l209 686q20 67 20 84q0 21 -10 34.5
t-29.5 19t-34.5 8t-40.5 2.5t-32.5 1l12 45z" />
    <glyph glyph-name="m" unicode="m" horiz-adv-x="1474" 
d="M1239 430l41 113q61 151 61 219q0 23 -11.5 40t-33.5 17q-31 0 -70 -29t-75 -75t-59.5 -80.5t-42.5 -67.5q-29 -50 -54.5 -103.5t-51.5 -121t-40 -105.5t-42.5 -125t-37.5 -112h-145l106 326q119 353 119 444q0 19 -10 35t-27 16q-46 0 -101 -53.5t-100.5 -132
t-79 -147.5t-50.5 -119l-138 -369h-137l111 371q78 293 78 383q0 67 -31 67q-34 0 -77.5 -56.5t-72 -113t-43.5 -98.5l-41 16q19 54 43 102.5t59 99.5t82 81.5t99 30.5q56 0 85.5 -43t29.5 -101q0 -36 -10 -105t-11 -77l4 -4q79 143 127 202q103 128 217 128q57 0 92 -40.5
t35 -97.5q0 -59 -28 -149l4 -4q24 39 32.5 52.5t34.5 52.5t42 57.5t44.5 48t52 43.5t54.5 25.5t61 11.5q61 0 96 -47.5t35 -110.5q0 -98 -71 -299l-78 -219q-35 -101 -35 -125q0 -47 33 -47q27 0 60.5 30.5t65 78t53 84.5t38.5 71l39 -23q-17 -44 -44.5 -92.5t-64.5 -98
t-83.5 -81t-92.5 -31.5q-57 0 -92 40.5t-35 99.5q0 98 82 317z" />
    <glyph glyph-name="n" unicode="n" horiz-adv-x="1146" 
d="M430 63l-18 -63h-154l45 129q156 475 156 627q0 65 -39 65q-23 0 -48.5 -21t-50 -58.5t-42 -69t-37.5 -73.5t-25 -50l-41 14q1 3 16 37t19.5 43t20 41t23.5 44t25 39t29.5 38.5t32 30t37.5 26.5t40.5 14.5t45.5 6.5q60 0 92.5 -40t32.5 -102q0 -23 -17 -151l-6 -37l4 -4
q25 49 48 87.5t59.5 87.5t73 81.5t85.5 55t99 22.5q68 0 114 -49t46 -117q0 -119 -70 -301l-37 -99q-3 -8 -16.5 -45t-24 -66.5t-19.5 -62.5t-9 -47q0 -21 11.5 -41t31.5 -20q29 0 62.5 30t62.5 75.5t49 83t34 69.5l43 -21q-140 -299 -292 -299q-64 0 -100 41t-36 105
q0 24 4.5 52.5t15 64.5t17.5 58t21.5 63.5t17.5 50.5l37 100q2 5 14 34t17 42.5t15 42t15 46.5t9 40t4 39q0 28 -20 48.5t-50 20.5q-39 0 -82 -28t-81 -73.5t-64.5 -84.5t-48.5 -78q-101 -177 -197 -494z" />
    <glyph glyph-name="o" unicode="o" horiz-adv-x="860" 
d="M471 -27q-132 0 -208.5 82.5t-76.5 216.5q0 90 36 196t96.5 198.5t151 154.5t189.5 62q91 0 157 -48t96 -121.5t30 -162.5q0 -72 -23 -152t-66.5 -155t-100.5 -136t-130.5 -98t-150.5 -37zM473 18q64 0 119.5 53t91.5 132.5t62 173t37.5 173.5t11.5 136q0 61 -33 106.5
t-92 45.5q-75 0 -142 -79.5t-107.5 -191.5t-63.5 -219.5t-23 -175.5q0 -72 34.5 -113t104.5 -41z" />
    <glyph glyph-name="p" unicode="p" horiz-adv-x="983" 
d="M694 1171l-137 -487l4 -4q26 39 42 61t44 53.5t53.5 47.5t61.5 28.5t76 12.5q105 0 166 -76.5t61 -183.5q0 -97 -40 -210t-106.5 -211t-164.5 -163.5t-203 -65.5q-50 0 -95.5 31t-60.5 78h-4l-76 -277q-2 -6 -14.5 -51t-21 -78t-17 -71t-8.5 -54q0 -14 5 -25.5t16 -18
t20.5 -11.5t27 -7t25.5 -3t25.5 -1.5t19.5 -0.5l-14 -45q-37 1 -109.5 4t-109.5 4q-34 -1 -100.5 -4t-100.5 -4l12 45q81 5 107 31q23 27 67 186l285 1040q-112 -77 -145 -108q-68 -63 -107 -164l-41 16q24 87 70.5 141t136.5 122q75 55 102 93.5t50 125.5l57 225zM811 838
q-73 0 -145 -82t-120.5 -195t-79 -224.5t-30.5 -178.5q0 -51 27.5 -95.5t75.5 -44.5q59 0 118.5 54.5t105 137t81.5 176.5t55 178t19 136q0 51 -29 94.5t-78 43.5z" />
    <glyph glyph-name="q" unicode="q" horiz-adv-x="901" 
d="M719 838q-57 0 -116.5 -54.5t-106 -137.5t-84 -175.5t-58 -174t-20.5 -128.5q0 -58 21.5 -104t72.5 -46q75 0 149.5 84t124.5 199.5t81.5 230t31.5 181.5q0 50 -24.5 87.5t-71.5 37.5zM864 758l31 125h133l-301 -1078q-68 -242 -68 -266q0 -19 10.5 -31.5t31 -17t37 -6
t42.5 -1t33 0.5l-12 -45q-38 1 -115 4t-115 4q-37 -1 -111.5 -4t-111.5 -4l14 45q2 0 24.5 1.5t36 2.5t31 5.5t25.5 10.5q22 17 58 129l159 562l-4 4q-122 -226 -284 -226q-113 0 -167.5 70.5t-54.5 185.5q0 76 26.5 165.5t76.5 175t113 156t143.5 114t161.5 43.5
q122 0 153 -125h4z" />
    <glyph glyph-name="r" unicode="r" horiz-adv-x="696" 
d="M180 565l-43 17q16 40 42 87.5t61 97.5t78 83t81 33q48 0 80.5 -31.5t44.5 -73t11 -86.5q-1 -25 -8 -70.5t-9 -64.5l4 -4q15 41 32.5 79t45.5 86t58 82.5t70 58.5t81 24q45 0 80 -26t35 -69q0 -31 -24 -53t-56 -22q-30 0 -49 17.5t-19 47.5q0 1 0.5 9t0 12t-1.5 10
t-4.5 9t-8.5 3q-28 0 -69 -52.5t-60 -90.5q-77 -148 -187 -483l-65 -195h-152l105 338q59 236 59 371q0 112 -33 112q-32 0 -95.5 -101t-84.5 -155z" />
    <glyph glyph-name="s" unicode="s" horiz-adv-x="696" 
d="M305 641q0 113 83 177.5t200 64.5q43 0 85.5 -11.5t77.5 -42t35 -75.5q0 -24 -14 -39t-37 -15q-28 0 -40.5 14t-14.5 34.5t-6 41t-24 34.5t-60 14q-55 0 -96 -35t-41 -90q0 -39 24 -83.5t58.5 -87t69 -87.5t59.5 -101t26 -112q3 -127 -88.5 -198t-224.5 -71
q-41 0 -81.5 9t-79.5 27t-63 52t-24 78q0 76 53 76q25 0 43.5 -17.5t18.5 -43.5q0 -9 -3 -28t-3 -28q0 -41 40.5 -60.5t86.5 -19.5q76 0 127 40.5t51 113.5q0 39 -24.5 85.5t-59.5 91.5t-70 91t-59.5 99t-24.5 102z" />
    <glyph glyph-name="t" unicode="t" horiz-adv-x="573" 
d="M506 1141h141l-88 -285h160l-14 -45h-160l-17 -53q-37 -118 -103.5 -369t-66.5 -299q0 -55 35 -55q20 0 42.5 16.5t40.5 37.5t40.5 56.5t34 57.5t30 58t21.5 42l41 -22q-5 -9 -23 -46t-26 -52.5t-27.5 -49.5t-33.5 -51t-36.5 -41.5t-43.5 -36.5t-48.5 -21.5t-56.5 -9.5
q-60 0 -98.5 39t-38.5 99q0 79 65 297l117 403h-162l17 45h162z" />
    <glyph glyph-name="u" unicode="u" horiz-adv-x="1146" 
d="M567 494l-86 -271q-28 -87 -28 -121q0 -32 20 -49.5t53 -17.5q38 0 79 26t74.5 64t66.5 87.5t54.5 89.5t37.5 77l166 493h151l-78 -258q-6 -20 -27.5 -94t-32 -113.5t-25.5 -102.5t-22 -114.5t-7 -95.5q0 -59 34 -59q31 0 73.5 53t72 111t39.5 94l45 -17
q-110 -303 -266 -303q-70 0 -107 44t-31 112q2 21 5.5 62.5t5.5 62.5l-5 4q-30 -50 -48.5 -78t-54.5 -73t-67.5 -70t-76 -44.5t-90.5 -19.5q-73 0 -123 48t-50 122q0 13 1 26.5t2 23t4 24.5t4.5 22t6.5 24.5t6.5 22t7.5 25t7 23.5l37 121q7 22 21.5 67t23 73.5t17.5 67.5
t12 70l1 11q2 10 2 15.5t0.5 16.5t-1 17t-4.5 13.5t-8 11t-13 3.5q-26 0 -61 -32.5t-68.5 -83t-55 -88t-38.5 -70.5l-43 20q22 45 40 79.5t50 82t63 78.5t73.5 53.5t85.5 22.5q57 0 90.5 -46.5t33.5 -105.5q0 -84 -49 -237z" />
    <glyph glyph-name="v" unicode="v" horiz-adv-x="983" 
d="M920 633l-5 92q-1 11 -2 34t-2 34q0 90 72 90q43 0 62.5 -35.5t19.5 -83.5q0 -71 -17.5 -156t-50 -173.5t-82 -171.5t-109 -147.5t-137 -103.5t-159.5 -39q-99 0 -164 61.5t-65 160.5q0 46 14 97.5t43 110.5t51 98t62.5 104t52.5 85l-4 4q-75 -32 -113 -32q-31 0 -73 18
t-54 18q-21 0 -32 -17.5t-11 -39.5v-14q0 -19 -12 -19q-18 0 -25.5 26t-7.5 50q0 58 35 96.5t92 38.5q49 0 96 -41q35 -35 58 -35q30 0 64.5 17t41.5 43q1 3 5 16t6 19t7 16.5t10 15.5t13 9t18 4q13 0 23 -11t10 -26q0 -12 -9 -32t-24.5 -45.5t-17.5 -29.5
q-64 -109 -102.5 -245.5t-38.5 -260.5q0 -198 121 -198q47 0 97 35.5t81.5 75t60.5 87.5q101 170 101 400z" />
    <glyph glyph-name="w" unicode="w" horiz-adv-x="1310" 
d="M297 831q35 0 62.5 -19.5t48 -39.5t38.5 -20q41 0 65 13.5t32 33t12.5 38.5t14.5 32.5t30 13.5q14 0 24.5 -10t10.5 -23q0 -14 -10.5 -35.5t-26.5 -47.5t-18 -30q-60 -99 -114 -255t-54 -257q0 -32 4.5 -61t15 -60t33 -50t55.5 -19t64 19t54.5 46t46 71t37.5 80t31 87.5
t23 79t17 67.5l24 93q2 6 14 53.5t22 80.5t19 50q19 37 60 37q30 0 49.5 -19.5t19.5 -50.5t-32.5 -139t-65.5 -229.5t-33 -184.5q0 -53 23.5 -97t71.5 -44q66 0 125 61.5t95 148.5t56.5 172t20.5 142q0 63 -17 156q-10 57 -10 69q0 99 78 99q88 0 88 -156
q0 -77 -21.5 -174.5t-64.5 -199t-100 -186.5t-136.5 -139.5t-165.5 -54.5q-82 0 -127 52.5t-47 134.5h-4q-54 -82 -130.5 -134.5t-164.5 -52.5q-89 0 -148 52t-59 139q0 50 17.5 107.5t54.5 125t63 110t77.5 117t62.5 91.5l-4 4q-3 -2 -19 -12t-20.5 -12.5t-18 -9
t-21.5 -8.5t-20.5 -4.5t-25.5 -2.5q-8 2 -19 3.5t-17 2.5t-15 4.5t-19 9.5q-40 15 -51 15q-20 0 -28.5 -17t-8.5 -39v-18q0 -15 -10 -15q-19 0 -27 27.5t-8 52.5q0 57 33 96t88 39z" />
    <glyph glyph-name="x" unicode="x" horiz-adv-x="942" 
d="M360 147l181 263l-107 299q-12 51 -47 51q-56 0 -87 -167q-1 -5 -1 -7l-45 14q4 41 17.5 87t36 91.5t59 75t79.5 29.5q60 0 101 -68q30 -47 80 -205l20 -61l37 51l26 37q25 37 37 52.5t39.5 52t47 55.5t45 43t48 34.5t42.5 10.5q34 0 61 -26t27 -60q0 -89 -119 -213
l-35 26q4 6 20.5 30.5t25 39.5t17.5 36.5t9 37.5t-10 26.5t-27 10.5q-8 0 -18.5 -5t-22.5 -15t-23.5 -21t-24.5 -26.5t-23.5 -28t-23.5 -29.5t-20 -26.5t-16.5 -23.5t-11.5 -16l-84 -113l108 -296q2 -3 8.5 -19t12 -26.5t13.5 -24t17.5 -20.5t18.5 -7q16 0 30 12.5t26 35.5
t20 42t17 45.5t11 32.5l49 -16q-11 -39 -29.5 -82t-46 -88.5t-65 -75t-76.5 -29.5q-13 0 -25.5 4t-22.5 9t-20 16t-16.5 18.5t-15.5 23.5t-13 23.5t-11.5 26.5t-9.5 25t-9 25t-8 22l-68 182l-180 -266q-77 -109 -147 -109q-37 0 -61.5 28t-24.5 65q0 84 102 210l45 -28
q-2 -3 -10.5 -16t-13 -19.5t-12 -19t-12 -21.5t-9.5 -20t-7 -21t-2 -18q0 -19 9 -33t26 -14q9 0 19 4.5t17.5 10t17 16.5t14 16.5t13.5 18.5t11 15z" />
    <glyph glyph-name="y" unicode="y" horiz-adv-x="778" 
d="M203 582q1 -13 2 -39.5t2 -40.5h-45q-1 15 -2 44.5t-2 45.5q0 38 8 84t24.5 94.5t49 80.5t75.5 32q37 0 73 -35.5t63.5 -91t44.5 -100.5t28 -85q61 -208 72 -512h4q64 124 108 259.5t44 248.5q0 56 -15 99t-33.5 63.5t-33.5 44t-15 45.5q0 27 19.5 45.5t46.5 18.5
q22 0 39 -9.5t26.5 -29.5t15.5 -37t8 -46t2.5 -42t0.5 -39q0 -183 -64 -383t-167 -373q-41 -69 -94.5 -142t-125.5 -153t-153 -131t-152 -51q-32 0 -57 16t-25 41q0 81 119 76q83 -3 129 11t103 63q139 145 139 330q0 101 -21 250.5t-49 248.5q-8 33 -27.5 91.5t-51 122
t-54.5 63.5q-31 0 -45 -65.5t-14 -112.5z" />
    <glyph glyph-name="z" unicode="z" horiz-adv-x="737" 
d="M614 750q18 0 32 6t24 20.5t15.5 25t14.5 32.5q1 2 3 7l3 7.5t3 7t3.5 7t4 6.5t5.5 6t6.5 4t7.5 3t9 1q14 0 23.5 -8t9.5 -21q0 -23 -43 -80l-461 -608q98 16 144 16q56 0 141 -20q8 -1 24 -4.5t29 -5.5t25 -2q55 0 85.5 29t33.5 83q0 31 12 31q20 0 29.5 -36.5
t9.5 -63.5q0 -95 -51.5 -157.5t-145.5 -62.5q-51 0 -93 18t-93 52q-4 3 -24 17t-25.5 17.5t-21.5 13t-25 12.5t-22 6.5t-25 3.5q-75 0 -101 -82q-13 -42 -27 -51q-9 -7 -22 -7q-14 0 -23.5 8.5t-9.5 20.5q0 15 7 33t21 38.5t24.5 34.5t28.5 35.5t22 26.5l417 541l-4 4
q-94 -25 -149 -25q-28 0 -78 10.5t-74 10.5q-35 0 -53 -30t-16 -67q6 -28 -11 -28q-19 0 -29.5 38t-10.5 62q0 74 56 127t132 53q39 0 74.5 -18t57.5 -40t49 -40t52 -18z" />
    <glyph glyph-name="braceleft" unicode="{" horiz-adv-x="901" 
d="M350 -18l94 354q12 43 13.5 75.5t-4 54t-21.5 37.5t-34.5 26t-47.5 20l4 2q96 22 136.5 67.5t66.5 145.5l82 311q44 167 117.5 231.5t230.5 57.5l-4 -4q-45 -8 -81 -31.5t-59 -56.5t-36.5 -64t-22.5 -65l-88 -328q-15 -57 -30 -95.5t-40.5 -75t-64.5 -59.5t-94 -34h-4v-4
q39 -6 64 -20.5t40 -42t14 -73t-18 -110.5l-94 -354q-28 -90 -9.5 -142t99.5 -77l-4 -4q-157 1 -200.5 57.5t-4.5 200.5z" />
    <glyph glyph-name="bar" unicode="|" horiz-adv-x="778" 
d="M526 1536h109v-2048h-109v2048z" />
    <glyph glyph-name="braceright" unicode="}" horiz-adv-x="901" 
d="M578 786l94 355q16 59 16 94q2 47 -22.5 77t-83.5 48l4 4q119 -2 171 -33t52 -104q2 -41 -18 -121l-95 -354q-14 -49 -14 -88q0 -53 26 -79.5t83 -45.5l-5 -2q-96 -22 -136 -67.5t-66 -145.5l-82 -312q-44 -167 -117.5 -231t-230.5 -57l4 4q45 8 81 31.5t58.5 56.5t36 64
t22.5 65l88 327q15 57 30.5 96t41 75.5t64.5 59.5t94 34h4v4q-58 10 -88.5 40t-30.5 91q0 40 19 114z" />
    <glyph glyph-name="asciitilde" unicode="~" 
d="M465 573q74 0 227 -61q6 -3 28.5 -11.5t30 -11.5t26.5 -10.5t27.5 -10t24 -7.5t25.5 -7t21.5 -3.5t21.5 -1.5q31 0 57.5 10t49.5 32t37.5 40t35.5 49l82 -54q-32 -44 -52 -68.5t-53 -55t-70.5 -44.5t-82.5 -14q-33 0 -77 11.5t-68 20.5t-82 32q-150 61 -211 61
q-65 0 -107 -36.5t-86 -106.5l-82 53q60 94 122.5 144t154.5 50z" />
    <glyph glyph-name="uni00A0" unicode="&#xa0;" horiz-adv-x="532" 
 />
    <glyph glyph-name="exclamdown" unicode="&#xa1;" horiz-adv-x="614" 
d="M422 446l49 -14l-123 -704q-1 -8 -6.5 -43t-9.5 -54t-14 -50.5t-22.5 -48.5t-33 -30.5t-47.5 -13.5q-40 0 -66 25t-26 65q0 75 149 469zM539 883q46 0 78 -32t32 -79q0 -49 -33 -81t-81 -32q-46 0 -77.5 34.5t-31.5 80.5q0 44 34 76.5t79 32.5z" />
    <glyph glyph-name="cent" unicode="&#xa2;" 
d="M1026 1384l-78 -229q57 0 105.5 -35t48.5 -90q0 -31 -22 -55.5t-54 -24.5q-30 0 -51 18.5t-21 47.5q0 19 10.5 38t10.5 27q0 23 -45 29l-273 -809q47 -3 89.5 11.5t72.5 35.5t63 60t52 67.5t47 75.5l41 -25q-29 -59 -65.5 -109t-84 -92.5t-107 -65.5t-124.5 -19l-88 -267
h-78l90 277q-91 24 -145.5 104t-54.5 178q0 94 42.5 198.5t111 192.5t162 152t187.5 80l80 229h78zM590 326l262 770q-83 -25 -163.5 -146t-125.5 -254.5t-45 -218.5q0 -48 17 -91t55 -60z" />
    <glyph glyph-name="sterling" unicode="&#xa3;" 
d="M451 158q-84 53 -138 53q-45 0 -75.5 -26t-30.5 -70q0 -39 28 -64.5t66 -25.5q87 0 150 133zM475 244l14 215l13 223h-256l18 66h246q1 6 7.5 41.5t8 44.5t7.5 40.5t9.5 44t10 39.5t11.5 43.5t12.5 39t16 41.5t17.5 38q60 115 156.5 182.5t220.5 67.5q50 0 103 -15.5
t96 -53t43 -89.5q0 -33 -21 -59.5t-53 -26.5q-39 0 -60.5 20.5t-30 50t-17 58.5t-31 49.5t-62.5 20.5q-45 0 -82.5 -28.5t-62.5 -77t-44 -106t-31 -121.5t-20 -117t-13 -99q-2 -20 -3 -28h297l-18 -66h-291q-39 -281 -135 -471q191 -80 307 -80q60 0 105.5 17t70 41t41 48
t28.5 41t23 17q21 0 21 -21q0 -59 -57 -141q-102 -160 -261 -160q-57 0 -119.5 24t-101.5 49t-102 71q-87 -144 -213 -144q-61 0 -104.5 42.5t-43.5 101.5q0 68 58.5 111.5t128.5 43.5q17 0 38 -3t33 -6t38.5 -10t33.5 -9z" />
    <glyph glyph-name="currency" unicode="&#xa4;" 
d="M293 256l102 102q-100 121 -100 281t100 272l-102 101l55 55l101 -100q117 97 274 100q168 3 283 -100l100 100l55 -55l-100 -101q98 -116 98 -276q3 -158 -98 -277l100 -102l-55 -53l-100 100q-123 -105 -283 -102q-151 3 -274 102l-101 -100zM725 283
q139 0 240.5 104.5t101.5 245.5q0 142 -99 247t-239 105q-139 0 -240.5 -104t-101.5 -244t100 -247t238 -107z" />
    <glyph glyph-name="yen" unicode="&#xa5;" 
d="M870 735l-61 -65l-37 -138h313l-18 -65h-313l-58 -207q-30 -101 -30 -133q0 -23 8.5 -38.5t21 -23.5t32 -12.5t36 -5.5t39 -2.5t35.5 -3.5l-13 -45q-48 1 -143 4t-143 4q-50 -1 -149.5 -4t-149.5 -4l12 45q6 1 41 3t48 4t39 8t43 17t32 27q24 24 47 109l71 258h-297
l19 65h297l33 117l-27 86h-258l18 66h222l-82 274q-1 3 -9 30t-11.5 39t-12.5 37.5t-16 40t-17 31t-20 25.5q-26 26 -68 29l12 45q42 -1 125 -4.5t125 -4.5q43 1 129 4.5t129 4.5l-12 -45q-30 0 -52 -1.5t-47.5 -8.5t-41 -18.5t-26.5 -33.5t-11 -53q0 -62 67 -289l54 -170
l211 234q188 204 188 266q0 16 -5 28t-17 19.5t-21 12.5t-28.5 8t-26.5 3.5t-27 2.5l12 45q34 -1 101.5 -4.5t101.5 -4.5q31 1 95 4.5t96 4.5l-13 -45q-18 -3 -36 -10t-31.5 -13t-32 -21.5t-27.5 -22.5t-28.5 -28t-24.5 -26t-26 -29.5t-23 -26.5l-299 -329h240l-19 -66h-285
z" />
    <glyph glyph-name="brokenbar" unicode="&#xa6;" horiz-adv-x="778" 
d="M526 1382h109v-716h-109v716zM526 358h109v-716h-109v716z" />
    <glyph glyph-name="section" unicode="&#xa7;" horiz-adv-x="1024" 
d="M920 432q0 97 -129 246q-100 121 -195 121q-54 0 -91.5 -35.5t-37.5 -89.5q0 -38 19 -84t38.5 -75t50.5 -71q116 -145 209 -145q57 0 96.5 38t39.5 95zM580 203l-60 69l-55 68q-115 147 -115 266q0 107 60.5 180.5t164.5 73.5q37 0 91 -20l4 4q-133 141 -133 268
q0 121 85 189.5t209 68.5q61 0 118.5 -21t99 -68t41.5 -110q0 -50 -29.5 -81t-79.5 -31q-39 0 -63.5 24.5t-24.5 63.5q0 43 31 74q30 26 30 45q0 27 -43.5 43t-76.5 16q-72 0 -126.5 -45.5t-54.5 -116.5q0 -42 20.5 -85.5t40 -68t58.5 -67.5l51 -59l82 -99
q131 -158 131 -288q0 -102 -60 -180t-159 -78q-36 0 -90 16l-4 -4q64 -64 97.5 -125t33.5 -139q0 -84 -46 -147t-117 -93.5t-154 -30.5q-100 0 -180.5 59t-80.5 156q0 49 29.5 83t77.5 34q39 0 67.5 -24.5t28.5 -63.5q0 -58 -61 -98q-25 -15 -25 -27q0 -33 51.5 -53.5
t87.5 -20.5q84 0 144.5 49t60.5 132q0 19 -5 39.5t-17 42.5t-20.5 38t-28.5 41l-28 35t-31.5 36t-26.5 30z" />
    <glyph glyph-name="dieresis" unicode="&#xa8;" horiz-adv-x="819" 
d="M584 1120q-41 0 -71 29t-30 70q0 42 29.5 72t71.5 30q41 0 70.5 -29.5t29.5 -70.5t-29.5 -71t-70.5 -30zM920 1120q-41 0 -71 29t-30 70q0 42 29.5 72t71.5 30q41 0 70.5 -29.5t29.5 -70.5t-29.5 -71t-70.5 -30z" />
    <glyph glyph-name="copyright" unicode="&#xa9;" horiz-adv-x="1474" 
d="M928 -27q-197 0 -350.5 92.5t-235.5 250.5t-82 352t81 353t235 254t354 95q202 0 359.5 -93t241 -251t83.5 -352q0 -201 -84.5 -360t-241.5 -250t-360 -91zM932 1282q-251 0 -412.5 -170t-161.5 -436q0 -279 163 -447t423 -168q251 0 411.5 171.5t160.5 441.5
q0 275 -162 441.5t-422 166.5zM1237 1044v-223h-61q-6 99 -62.5 158t-152.5 59q-56 0 -102.5 -19.5t-78.5 -52t-54 -77t-32 -93.5t-10 -102q0 -95 31 -177.5t99.5 -138.5t162.5 -56q146 0 235 147l48 -18q-24 -64 -80 -110.5t-122.5 -68.5t-135.5 -22q-180 0 -290 118
t-110 300q0 192 117 312t307 120q135 0 291 -56z" />
    <glyph glyph-name="ordfeminine" unicode="&#xaa;" horiz-adv-x="737" 
d="M711 1329q-57 0 -121.5 -76t-104 -168.5t-39.5 -148.5q0 -30 14 -51t42 -21q48 0 98 48.5t85 115.5t57 135t22 111q0 23 -15 39t-38 16zM922 1354l-62 -154q-3 -9 -31.5 -87.5t-43.5 -132t-15 -87.5q0 -21 14 -21q25 0 63.5 58.5t59.5 105.5l41 -16q-7 -12 -21.5 -41.5
t-24 -46.5t-26.5 -41t-33 -38t-39 -24t-48 -10q-37 0 -60.5 20t-23.5 56q0 17 4 37l-4 4q-79 -117 -180 -117q-65 0 -109.5 42.5t-44.5 107.5q0 63 31.5 135t81.5 130.5t117 97t132 38.5q69 0 99 -55l16 39h107z" />
    <glyph glyph-name="guillemotleft" unicode="&#xab;" horiz-adv-x="983" 
d="M442 410l129 -244q11 -17 11 -27q0 -6 -4 -10t-9 -4q-6 0 -26 20l-226 269l324 260q1 1 12 10.5t22 17t15 7.5q6 0 10.5 -4.5t4.5 -10.5q0 -4 -8.5 -14.5t-19 -20.5t-11.5 -12zM778 410l129 -244q11 -17 11 -27q0 -6 -4 -10t-9 -4q-6 0 -26 20l-226 269l324 260
q1 1 12 10.5t22 17t15 7.5q14 0 14 -15q0 -4 -8.5 -14.5t-19 -20.5t-11.5 -12z" />
    <glyph glyph-name="logicalnot" unicode="&#xac;" 
d="M1008 111v421h-799v109h907v-530h-108z" />
    <glyph glyph-name="uni00AD" unicode="&#xad;" horiz-adv-x="491" 
d="M137 502h471l-14 -109h-473z" />
    <glyph glyph-name="registered" unicode="&#xae;" horiz-adv-x="1474" 
d="M928 -27q-197 0 -350.5 92.5t-235.5 250.5t-82 352t81 353t235 254t354 95q202 0 359.5 -93t241 -251t83.5 -352q0 -201 -84.5 -360t-241.5 -250t-360 -91zM932 1282q-251 0 -412.5 -170t-161.5 -436q0 -279 163 -447t423 -168q251 0 411.5 171.5t160.5 441.5
q0 275 -162 441.5t-422 166.5zM834 666v-273q0 -36 14.5 -47.5t77.5 -11.5v-37h-322v37q44 0 64.5 6.5t25 17t4.5 35.5v621q0 25 -4.5 35.5t-25 17t-64.5 6.5v37h326q76 0 129 -8t98 -29t67.5 -62t22.5 -102q0 -88 -65.5 -148t-153.5 -63v-4q29 -4 54 -21t47.5 -51t35.5 -59
t35 -71q6 -12 16.5 -35.5t16 -34.5t15 -28.5t17.5 -26t20 -17.5t25.5 -12.5t30.5 -3.5v-37h-53q-4 0 -32.5 -1t-39.5 0t-31 6.5t-34 16.5q-23 18 -41.5 54.5t-30 76t-31 82t-43 74t-67.5 49t-104 11.5zM834 715h26q46 0 78 3t68 13.5t57.5 29t36 52t14.5 80.5
q0 91 -46.5 130.5t-139.5 39.5q-65 0 -79.5 -11.5t-14.5 -72.5v-264z" />
    <glyph glyph-name="macron" unicode="&#xaf;" horiz-adv-x="819" 
d="M1032 1196h-534v70h534v-70z" />
    <glyph glyph-name="degree" unicode="&#xb0;" horiz-adv-x="819" 
d="M911 1114q0 -105 -75.5 -180.5t-180.5 -75.5q-106 0 -181 75t-75 181q-1 104 74.5 180t181.5 76q104 0 180 -76t76 -180zM844 1114q0 77 -56.5 133t-134.5 56q-76 0 -131 -56t-55 -133q0 -78 55 -133t133 -55q77 0 133 55t56 133z" />
    <glyph glyph-name="plusminus" unicode="&#xb1;" 
d="M209 610h399v297h109v-297h399v-108h-399v-297h-109v297h-399v108zM209 109h907v-109h-907v109z" />
    <glyph glyph-name="two.superior" unicode="&#xb2;" horiz-adv-x="638" 
d="M782 737l-86 -196q-14 0 -39 2t-39 2q-75 0 -224 -2t-224 -2v16q30 27 91 83.5t91 84.5l256 233q47 49 73 93t26 96q0 65 -45 103t-115 38q-69 0 -122.5 -41.5t-53.5 -103.5q0 -19 4 -39t8 -33.5t4 -15.5q0 -6 -8 -6q-18 0 -32.5 40.5t-14.5 75.5q0 91 69 145t168 54
q110 0 180 -55.5t70 -153.5q0 -23 -4.5 -44.5t-16 -42.5t-21 -37.5t-30 -37t-32.5 -33t-38 -33t-36.5 -28.5t-39.5 -29t-36 -26l-270 -207v-4h235q12 0 39.5 -0.5t35 0t27.5 1.5t26 3.5t20 8t20.5 12.5t17.5 18.5t19.5 26t18.5 34.5h28z" />
    <glyph glyph-name="three.superior" unicode="&#xb3;" horiz-adv-x="638" 
d="M436 1239l23 100q77 25 153 25q43 0 81.5 -6t77 -20.5t61 -44.5t22.5 -72q0 -30 -14 -57t-31.5 -45t-51 -37t-53.5 -28t-57 -24v-4q63 0 99 -41.5t36 -101.5q0 -90 -69.5 -165t-167.5 -118q-170 -74 -381 -74l10 31q186 15 293 64q83 38 139 104t56 145q0 56 -38 83.5
t-100 27.5q-34 0 -80 -7l-45 -7q-24 0 -24 14q0 7 4.5 12t14.5 8t16 4t19 2l13 1q49 5 96.5 16t101 31.5t86 56t32.5 80.5q0 41 -40.5 60.5t-90.5 19.5q-83 0 -191 -33z" />
    <glyph glyph-name="acute" unicode="&#xb4;" horiz-adv-x="614" 
d="M440 1069l219 201q28 28 41.5 40.5t43.5 31t53 18.5q25 0 44 -19.5t19 -44.5q0 -15 -7 -28.5t-15 -22.5t-24.5 -20.5t-25.5 -16l-29 -14.5l-24 -12l-227 -113h-68z" />
    <glyph glyph-name="mu" unicode="&#xb5;" horiz-adv-x="1146" 
d="M567 494l-86 -271q-28 -87 -28 -121q0 -32 20 -49.5t53 -17.5q38 0 79 26t74.5 64t66.5 87.5t54.5 89.5t37.5 77l166 493h151l-78 -258q-6 -20 -27.5 -94t-32 -113.5t-25.5 -102.5t-22 -114.5t-7 -95.5q0 -59 34 -59q31 0 73.5 53t72 111t39.5 94l45 -17
q-110 -303 -266 -303q-70 0 -107 44t-31 112q2 21 5.5 62.5t5.5 62.5l-5 4q-30 -50 -48.5 -78t-54.5 -73t-67.5 -70t-76 -44.5t-90.5 -19.5q-50 0 -86 25l-48 -270q-1 -4 -5.5 -36t-7 -46t-9.5 -43.5t-16 -45t-22 -34t-31.5 -27t-41.5 -8.5q-40 0 -63.5 25t-14.5 61
q153 570 211 760l37 121q7 22 21.5 67t23 73.5t17.5 67.5t12 70l1 11q2 10 2 15.5t0.5 16.5t-1 17t-4.5 13.5t-8 11t-13 3.5q-26 0 -61 -32.5t-68.5 -83t-55 -88t-38.5 -70.5l-43 20q22 45 40 79.5t50 82t63 78.5t73.5 53.5t85.5 22.5q57 0 90.5 -46.5t33.5 -105.5
q0 -84 -49 -237z" />
    <glyph glyph-name="paragraph" unicode="&#xb6;" horiz-adv-x="1024" 
d="M1100 967l-240 -861q-55 -203 -55 -251q0 -20 5.5 -35t18 -23.5t23 -13.5t32 -7t32 -2.5t34.5 -0.5h13l-11 -45h-325l430 1552h-117l-430 -1552h-344l10 45q16 1 48.5 1.5t50 2.5t42 7.5t43 19t33.5 34.5q36 49 94 268l146 525q-67 0 -109.5 3t-92 17t-78 39.5
t-47.5 72.5t-19 114q0 109 54.5 217.5t143.5 167.5q82 53 190 74.5t214 15.5q174 -9 178 -9q56 1 167 4.5t167 4.5l-12 -45q-91 -2 -123 -14q-46 -16 -72 -58q-39 -56 -94 -268z" />
    <glyph glyph-name="periodcentered" unicode="&#xb7;" horiz-adv-x="532" 
d="M375 340q-47 0 -79 32t-32 79q0 45 33 78.5t78 33.5q48 0 80 -29.5t32 -76.5q0 -48 -30.5 -82.5t-81.5 -34.5z" />
    <glyph glyph-name="cedilla" unicode="&#xb8;" horiz-adv-x="573" 
d="M315 0l-30 -96q52 0 92.5 -29t40.5 -78q0 -65 -49.5 -101t-116.5 -36q-32 0 -67 7.5t-67 30t-32 54.5q0 18 12.5 31.5t30.5 13.5q19 0 27.5 -9.5t15.5 -29.5q8 -30 20 -41.5t41 -11.5q40 0 69.5 25t29.5 65q0 25 -20 41t-44 20t-49 3l45 141h51z" />
    <glyph glyph-name="one.superior" unicode="&#xb9;" horiz-adv-x="638" 
d="M737 1364l-157 -545q-3 -10 -17.5 -60.5t-25.5 -92t-11 -56.5q0 -22 17 -33t40 -13t61 -3h20l-9 -26q-35 0 -103 2t-103 2q-34 0 -100 -2t-99 -2l8 26q3 0 18 1t24 1.5t24.5 2.5t26 4.5t21.5 7t17 10.5q25 23 49 121l129 452q1 6 6 23t8 31t3 20q0 16 -10.5 25t-22 10.5
t-29.5 1.5q-29 -2 -84 -2l6 26q157 9 293 68z" />
    <glyph glyph-name="ordmasculine" unicode="&#xba;" horiz-adv-x="696" 
d="M549 819q-87 0 -141 49.5t-54 135.5q0 83 42 167t117 141.5t159 57.5q82 0 131 -60t49 -143q0 -76 -41 -156.5t-113 -136t-149 -55.5zM670 1325q-45 0 -86 -44.5t-66.5 -107.5t-40 -125t-14.5 -104q0 -80 82 -80q47 0 87 44.5t63 108.5t35.5 125.5t12.5 104.5
q0 34 -19.5 56t-53.5 22z" />
    <glyph glyph-name="guillemotright" unicode="&#xbb;" horiz-adv-x="983" 
d="M817 426l-129 242q-10 20 -10 28q0 5 4 9t10 4q14 0 25 -21l225 -268l-324 -258q-4 -6 -23 -21.5t-26 -15.5q-12 0 -12 14q0 10 37 47zM481 426l-129 242q-10 20 -10 28q0 5 4 9t10 4q14 0 25 -21l225 -268l-323 -258q-4 -6 -23.5 -21.5t-26.5 -15.5q-12 0 -12 14
q0 10 37 47z" />
    <glyph glyph-name="onequarter" unicode="&#xbc;" horiz-adv-x="1597" 
d="M1688 840l-146 -498h27q71 0 100 14q3 1 5.5 -1t2.5 -5l-16 -57h-131l-82 -293h-109l86 293h-356l12 39l586 508h21zM1147 342h293l98 334l-4 4zM1563 1370l-979 -1370h-84l979 1370h84zM737 1364l-157 -545q-3 -10 -17.5 -60.5t-25.5 -92t-11 -56.5q0 -22 17 -33t40 -13
t61 -3h20l-9 -26q-35 0 -103 2t-103 2q-34 0 -100 -2t-99 -2l8 26q3 0 18 1t24 1.5t24.5 2.5t26 4.5t21.5 7t17 10.5q25 23 49 121l129 452q1 6 6 23t8 31t3 20q0 16 -10.5 25t-22 10.5t-29.5 1.5q-29 -2 -84 -2l6 26q157 9 293 68z" />
    <glyph glyph-name="onehalf" unicode="&#xbd;" horiz-adv-x="1597" 
d="M1794 193l-86 -197q-14 0 -39 2t-39 2q-75 0 -224 -2t-224 -2v16q31 27 91.5 84t90.5 84l256 234q47 49 72.5 92.5t25.5 95.5q0 65 -44.5 103t-114.5 38q-69 0 -123 -41.5t-54 -103.5q0 -19 4 -39t8.5 -33.5t4.5 -15.5q0 -6 -8 -6q-18 0 -33 41t-15 76q0 90 69.5 144
t168.5 54q110 0 180 -55.5t70 -153.5q0 -23 -4.5 -44.5t-16 -42.5t-21 -37.5t-30 -37t-32.5 -33t-38 -33t-36.5 -28.5t-39.5 -29t-36 -26l-270 -207v-4h235h36h32t26 0.5t24 2.5t19.5 5.5t19 9t16 13t17 18.5t15.5 24.5t18 31.5h29zM1563 1370l-979 -1370h-84l979 1370h84z
M737 1364l-157 -545q-3 -10 -17.5 -60.5t-25.5 -92t-11 -56.5q0 -22 17 -33t40 -13t61 -3h20l-9 -26q-35 0 -103 2t-103 2q-34 0 -100 -2t-99 -2l8 26q3 0 18 1t24 1.5t24.5 2.5t26 4.5t21.5 7t17 10.5q25 23 49 121l129 452q1 6 6 23t8 31t3 20q0 16 -10.5 25t-22 10.5
t-29.5 1.5q-29 -2 -84 -2l6 26q157 9 293 68z" />
    <glyph glyph-name="threequarters" unicode="&#xbe;" horiz-adv-x="1597" 
d="M1688 840l-146 -498h27q71 0 100 14q3 1 5.5 -1t2.5 -5l-16 -57h-131l-82 -293h-109l86 293h-356l12 39l586 508h21zM1542 1370l-979 -1370h-84l979 1370h84zM1147 342h293l98 334l-4 4zM436 1245l23 101q74 24 153 24q43 0 81.5 -6t77 -20.5t61 -44.5t22.5 -72
q0 -30 -14 -57t-31.5 -45t-51 -37t-53.5 -28t-57 -24v-4q63 0 99 -41.5t36 -101.5q0 -90 -69.5 -165t-167.5 -118q-170 -74 -381 -74l10 31q186 15 293 64q83 38 139 104.5t56 145.5q0 56 -38 83t-100 27q-34 0 -80 -7l-45 -7q-24 0 -24 14q0 7 4.5 12t14.5 8t16 4t19 2
l13 1q49 5 96.5 16t101 31.5t86 56t32.5 80.5q0 41 -40.5 60.5t-90.5 19.5q-83 0 -191 -33z" />
    <glyph glyph-name="questiondown" unicode="&#xbf;" horiz-adv-x="901" 
d="M383 371l-33 32q82 89 182 89q69 0 112.5 -48t43.5 -116q0 -61 -34.5 -113t-92.5 -106l-115 -105q-83 -77 -110 -110q-60 -75 -60 -152q0 -94 53.5 -146.5t147.5 -52.5q78 0 136.5 45.5t58.5 120.5q0 48 -33.5 87.5t-81.5 39.5q-12 0 -25.5 -6.5t-13.5 -17.5
q0 -4 19.5 -27.5t19.5 -52.5q0 -28 -20.5 -48t-49.5 -20q-36 0 -60 25.5t-24 62.5q0 59 48 97t108 38q75 0 124.5 -49t49.5 -123q0 -108 -78 -170.5t-188 -62.5q-136 0 -230 86t-94 221q0 92 55.5 172.5t145.5 159.5l68 57q6 5 32 27t45 39.5t41.5 41t35 45.5t12.5 40
q0 26 -19 42.5t-47 16.5q-62 0 -129 -59zM616 883q46 0 78.5 -32.5t32.5 -78.5q0 -50 -32.5 -81.5t-82.5 -31.5q-46 0 -77 34t-31 79t33.5 78t78.5 33z" />
    <glyph glyph-name="Agrave" unicode="&#xc0;" horiz-adv-x="1310" 
d="M981 1368l162 -1106q23 -153 41 -178q7 -9 18.5 -16.5t22.5 -11.5t28 -7t26.5 -4t28.5 -2.5t23 -1.5l-12 -45q-45 1 -136 4t-136 4q-44 -1 -132.5 -4t-132.5 -4l11 45q8 1 34.5 2t36.5 2.5t31 5t30.5 10t22 17t17 26.5t4.5 37q0 39 -13 123l-45 295h-397l-90 -170
q-1 -3 -14 -28t-24 -48t-26.5 -56.5t-26 -60t-18.5 -52.5t-8 -40q0 -13 6.5 -23t20.5 -16.5t26 -11t32.5 -7t30.5 -3.5t29.5 -1.5t20.5 -0.5l-12 -45q-39 1 -117 4t-117 4q-35 -1 -104.5 -4t-104.5 -4l13 45q55 8 89.5 24t69.5 54q19 21 45 60.5t44.5 72t46.5 83.5t36 66
l558 967h61zM549 621h352l-61 505h-4zM1186 1538h-58l-235 148q-1 0 -13 7.5t-15 10t-13.5 9.5t-14 12t-10 12.5t-8.5 15.5t-2 16q0 27 19.5 49.5t46.5 22.5q18 0 41 -15t35.5 -27.5t37 -41.5t25.5 -31z" />
    <glyph glyph-name="Aacute" unicode="&#xc1;" horiz-adv-x="1310" 
d="M981 1368l162 -1106q23 -153 41 -178q7 -9 18.5 -16.5t22.5 -11.5t28 -7t26.5 -4t28.5 -2.5t23 -1.5l-12 -45q-45 1 -136 4t-136 4q-44 -1 -132.5 -4t-132.5 -4l11 45q8 1 34.5 2t36.5 2.5t31 5t30.5 10t22 17t17 26.5t4.5 37q0 39 -13 123l-45 295h-397l-90 -170
q-1 -3 -14 -28t-24 -48t-26.5 -56.5t-26 -60t-18.5 -52.5t-8 -40q0 -13 6.5 -23t20.5 -16.5t26 -11t32.5 -7t30.5 -3.5t29.5 -1.5t20.5 -0.5l-12 -45q-39 1 -117 4t-117 4q-35 -1 -104.5 -4t-104.5 -4l13 45q55 8 89.5 24t69.5 54q19 21 45 60.5t44.5 72t46.5 83.5t36 66
l558 967h61zM549 621h352l-61 505h-4zM788 1536l220 201q60 60 91 77q25 13 46 13q25 0 44 -19.5t19 -44.5q0 -15 -7 -28.5t-15 -22.5t-24.5 -20.5t-25.5 -16l-29 -14.5l-24 -12l-227 -113h-68z" />
    <glyph glyph-name="Acircumflex" unicode="&#xc2;" horiz-adv-x="1310" 
d="M981 1368l162 -1106q23 -153 41 -178q7 -9 18.5 -16.5t22.5 -11.5t28 -7t26.5 -4t28.5 -2.5t23 -1.5l-12 -45q-45 1 -136 4t-136 4q-44 -1 -132.5 -4t-132.5 -4l11 45q8 1 34.5 2t36.5 2.5t31 5t30.5 10t22 17t17 26.5t4.5 37q0 39 -13 123l-45 295h-397l-90 -170
q-1 -3 -14 -28t-24 -48t-26.5 -56.5t-26 -60t-18.5 -52.5t-8 -40q0 -13 6.5 -23t20.5 -16.5t26 -11t32.5 -7t30.5 -3.5t29.5 -1.5t20.5 -0.5l-12 -45q-39 1 -117 4t-117 4q-35 -1 -104.5 -4t-104.5 -4l13 45q55 8 89.5 24t69.5 54q19 21 45 60.5t44.5 72t46.5 83.5t36 66
l558 967h61zM549 621h352l-61 505h-4zM1090 1845l159 -291h-51l-170 168l-260 -168h-76l295 291h103z" />
    <glyph glyph-name="Atilde" unicode="&#xc3;" horiz-adv-x="1310" 
d="M981 1368l162 -1106q23 -153 41 -178q7 -9 18.5 -16.5t22.5 -11.5t28 -7t26.5 -4t28.5 -2.5t23 -1.5l-12 -45q-45 1 -136 4t-136 4q-44 -1 -132.5 -4t-132.5 -4l11 45q8 1 34.5 2t36.5 2.5t31 5t30.5 10t22 17t17 26.5t4.5 37q0 39 -13 123l-45 295h-397l-90 -170
q-1 -3 -14 -28t-24 -48t-26.5 -56.5t-26 -60t-18.5 -52.5t-8 -40q0 -13 6.5 -23t20.5 -16.5t26 -11t32.5 -7t30.5 -3.5t29.5 -1.5t20.5 -0.5l-12 -45q-39 1 -117 4t-117 4q-35 -1 -104.5 -4t-104.5 -4l13 45q55 8 89.5 24t69.5 54q19 21 45 60.5t44.5 72t46.5 83.5t36 66
l558 967h61zM549 621h352l-61 505h-4zM1233 1747l47 -6q-10 -64 -57.5 -118t-108.5 -54q-44 0 -97 21.5t-99 43t-72 21.5q-23 0 -41.5 -11.5t-28 -24t-24.5 -36.5l-50 6q26 74 75.5 121t121.5 47q46 0 136 -41t114 -41q53 0 84 72z" />
    <glyph glyph-name="Adieresis" unicode="&#xc4;" horiz-adv-x="1310" 
d="M981 1368l162 -1106q23 -153 41 -178q7 -9 18.5 -16.5t22.5 -11.5t28 -7t26.5 -4t28.5 -2.5t23 -1.5l-12 -45q-45 1 -136 4t-136 4q-44 -1 -132.5 -4t-132.5 -4l11 45q8 1 34.5 2t36.5 2.5t31 5t30.5 10t22 17t17 26.5t4.5 37q0 39 -13 123l-45 295h-397l-90 -170
q-1 -3 -14 -28t-24 -48t-26.5 -56.5t-26 -60t-18.5 -52.5t-8 -40q0 -13 6.5 -23t20.5 -16.5t26 -11t32.5 -7t30.5 -3.5t29.5 -1.5t20.5 -0.5l-12 -45q-39 1 -117 4t-117 4q-35 -1 -104.5 -4t-104.5 -4l13 45q55 8 89.5 24t69.5 54q19 21 45 60.5t44.5 72t46.5 83.5t36 66
l558 967h61zM549 621h352l-61 505h-4zM829 1587q-41 0 -70.5 29t-29.5 70q0 42 29 72t71 30q41 0 71 -29.5t30 -70.5t-30 -71t-71 -30zM1165 1587q-41 0 -70.5 29t-29.5 70q0 42 29 72t71 30q41 0 71 -29.5t30 -70.5t-30 -71t-71 -30z" />
    <glyph glyph-name="Aring" unicode="&#xc5;" horiz-adv-x="1310" 
d="M981 1368l162 -1106q23 -153 41 -178q7 -9 18.5 -16.5t22.5 -11.5t28 -7t26.5 -4t28.5 -2.5t23 -1.5l-12 -45q-45 1 -136 4t-136 4q-44 -1 -132.5 -4t-132.5 -4l11 45q8 1 34.5 2t36.5 2.5t31 5t30.5 10t22 17t17 26.5t4.5 37q0 39 -13 123l-45 295h-397l-90 -170
q-1 -3 -14 -28t-24 -48t-26.5 -56.5t-26 -60t-18.5 -52.5t-8 -40q0 -13 6.5 -23t20.5 -16.5t26 -11t32.5 -7t30.5 -3.5t29.5 -1.5t20.5 -0.5l-12 -45q-39 1 -117 4t-117 4q-35 -1 -104.5 -4t-104.5 -4l13 45q55 8 89.5 24t69.5 54q19 21 45 60.5t44.5 72t46.5 83.5t36 66
l558 967h61zM549 621h352l-61 505h-4zM991 1436q-87 0 -150 59.5t-63 146.5q0 89 63 151t152 62t150 -62.5t61 -150.5q0 -87 -63 -146.5t-150 -59.5zM991 1503q57 0 98 41t41 98q0 61 -39.5 103.5t-99.5 42.5q-59 0 -99 -43t-40 -103q0 -57 40.5 -98t98.5 -41z" />
    <glyph glyph-name="AE" unicode="&#xc6;" horiz-adv-x="1884" 
d="M735 707h295l144 532l-5 4zM242 162l243 323q27 33 124 152t160 197t141 177t118.5 157.5t40.5 72.5t-3.5 24.5t-12.5 17t-18.5 10t-26.5 5.5t-31 3t-38 2.5t-42 3.5l10 45q60 -1 181 -4.5t182 -4.5q116 1 346 4.5t346 4.5l29 -312h-39q-18 67 -39.5 114t-47.5 76t-57 46
t-67.5 23.5t-80.5 8t-95 -0.5h-62h-123l-145 -557h154q96 0 146.5 42.5t106.5 174.5h41l-106 -523h-45l6 84q0 28 -1.5 46t-6.5 42t-18 41t-33 27q-46 21 -133 21h-123l-117 -435q-15 -57 -15 -98t12.5 -65.5t35.5 -39.5t55 -19.5t70 -6.5t81 0h48q93 0 158 16.5t115.5 56.5
t86.5 93.5t78 140.5h45l-94 -352q-137 1 -412 4t-412 4q-49 -1 -148 -4t-148 -4l10 45q53 -2 88.5 4.5t58 20t38 40.5t25.5 57t23 78q1 6 2 9l109 412h-324q-7 -9 -66 -82.5t-100.5 -128.5t-95 -129.5t-82.5 -130.5t-29 -85q0 -25 18 -39.5t38.5 -18.5t53 -7t44.5 -6
l-10 -39q-35 1 -105.5 4t-105.5 4q-33 -1 -98.5 -4t-98.5 -4l11 39q60 7 96.5 36.5t79.5 90.5z" />
    <glyph glyph-name="Ccedilla" unicode="&#xc7;" horiz-adv-x="1269" 
d="M649 -141l39 123q-196 23 -313 162.5t-117 349.5q0 104 27.5 210.5t77 203.5t121.5 181.5t157 146.5t189 98t212 36q93 0 163.5 -25t162.5 -81l72 73h20l-78 -381h-41q-4 65 -12 114t-27.5 99.5t-49.5 82.5t-80 52.5t-117 20.5q-110 0 -208.5 -64.5t-167 -165.5
t-118.5 -224t-74 -241.5t-24 -215.5q0 -179 85.5 -287.5t260.5 -108.5q65 0 119 12t102.5 49t76 57.5t71.5 89t55 87.5t57 105q4 7 6 10h43l-108 -432h-23l-24 106q-102 -71 -196 -100t-220 -29q-21 0 -31 4l-22 -73q52 0 92.5 -29t40.5 -78q0 -65 -49.5 -101t-116.5 -36
q-32 0 -67 7.5t-67 30t-32 54.5q0 18 12.5 31.5t30.5 13.5q19 0 27.5 -9.5t15.5 -29.5q8 -30 20.5 -41.5t41.5 -11.5q40 0 69 25t29 65q0 25 -20 41t-44 20t-49 3z" />
    <glyph glyph-name="Egrave" unicode="&#xc8;" horiz-adv-x="1146" 
d="M-8 -4l12 45q66 -3 105 5t64.5 41t35.5 59t29 98q1 4 2 6l221 827q1 6 11.5 44t17 67t6.5 43q0 22 -11.5 37t-26 22.5t-39.5 11.5t-39 4.5t-38 0.5l12 45q43 -1 128 -4.5t128 -4.5q113 1 342 4.5t342 4.5l29 -312h-39q-43 153 -111 210t-186 57h-272l-148 -557h158
q92 0 142 43t108 174h37l-107 -523h-41q0 14 2.5 47t2.5 56.5t-3.5 52t-17.5 50t-37 34.5q-37 21 -111 21h-145l-117 -435q-20 -70 -20 -108q0 -22 7.5 -40.5t22.5 -31t31 -21.5t40.5 -14.5t43.5 -9t46.5 -4t43 -1t40.5 0t32 0.5q93 0 158 16.5t115 56.5t86 93.5t77 140.5
h47l-94 -352q-140 1 -418 4t-417 4q-48 -1 -143.5 -4t-143.5 -4zM1104 1538h-57l-236 148q-1 0 -13 7.5t-15 10t-13.5 9.5t-14 12t-10 12.5t-8.5 15.5t-2 16q0 27 19.5 49.5t46.5 22.5q18 0 41 -15t35.5 -27.5t37 -41.5t25.5 -31z" />
    <glyph glyph-name="Eacute" unicode="&#xc9;" horiz-adv-x="1146" 
d="M-8 -4l12 45q66 -3 105 5t64.5 41t35.5 59t29 98q1 4 2 6l221 827q1 6 11.5 44t17 67t6.5 43q0 22 -11.5 37t-26 22.5t-39.5 11.5t-39 4.5t-38 0.5l12 45q43 -1 128 -4.5t128 -4.5q113 1 342 4.5t342 4.5l29 -312h-39q-43 153 -111 210t-186 57h-272l-148 -557h158
q92 0 142 43t108 174h37l-107 -523h-41q0 14 2.5 47t2.5 56.5t-3.5 52t-17.5 50t-37 34.5q-37 21 -111 21h-145l-117 -435q-20 -70 -20 -108q0 -22 7.5 -40.5t22.5 -31t31 -21.5t40.5 -14.5t43.5 -9t46.5 -4t43 -1t40.5 0t32 0.5q93 0 158 16.5t115 56.5t86 93.5t77 140.5
h47l-94 -352q-140 1 -418 4t-417 4q-48 -1 -143.5 -4t-143.5 -4zM707 1536l219 201q60 60 91 77q25 13 46 13q25 0 44 -19.5t19 -44.5q0 -15 -7 -28.5t-15 -22.5t-24.5 -20.5t-25.5 -16l-29 -14.5l-24 -12l-227 -113h-67z" />
    <glyph glyph-name="Ecircumflex" unicode="&#xca;" horiz-adv-x="1146" 
d="M-8 -4l12 45q66 -3 105 5t64.5 41t35.5 59t29 98q1 4 2 6l221 827q1 6 11.5 44t17 67t6.5 43q0 22 -11.5 37t-26 22.5t-39.5 11.5t-39 4.5t-38 0.5l12 45q43 -1 128 -4.5t128 -4.5q113 1 342 4.5t342 4.5l29 -312h-39q-43 153 -111 210t-186 57h-272l-148 -557h158
q92 0 142 43t108 174h37l-107 -523h-41q0 14 2.5 47t2.5 56.5t-3.5 52t-17.5 50t-37 34.5q-37 21 -111 21h-145l-117 -435q-20 -70 -20 -108q0 -22 7.5 -40.5t22.5 -31t31 -21.5t40.5 -14.5t43.5 -9t46.5 -4t43 -1t40.5 0t32 0.5q93 0 158 16.5t115 56.5t86 93.5t77 140.5
h47l-94 -352q-140 1 -418 4t-417 4q-48 -1 -143.5 -4t-143.5 -4zM1008 1845l159 -291h-51l-170 168l-260 -168h-76l295 291h103z" />
    <glyph glyph-name="Edieresis" unicode="&#xcb;" horiz-adv-x="1146" 
d="M-8 -4l12 45q66 -3 105 5t64.5 41t35.5 59t29 98q1 4 2 6l221 827q1 6 11.5 44t17 67t6.5 43q0 22 -11.5 37t-26 22.5t-39.5 11.5t-39 4.5t-38 0.5l12 45q43 -1 128 -4.5t128 -4.5q113 1 342 4.5t342 4.5l29 -312h-39q-43 153 -111 210t-186 57h-272l-148 -557h158
q92 0 142 43t108 174h37l-107 -523h-41q0 14 2.5 47t2.5 56.5t-3.5 52t-17.5 50t-37 34.5q-37 21 -111 21h-145l-117 -435q-20 -70 -20 -108q0 -22 7.5 -40.5t22.5 -31t31 -21.5t40.5 -14.5t43.5 -9t46.5 -4t43 -1t40.5 0t32 0.5q93 0 158 16.5t115 56.5t86 93.5t77 140.5
h47l-94 -352q-140 1 -418 4t-417 4q-48 -1 -143.5 -4t-143.5 -4zM748 1587q-41 0 -71 29t-30 70q0 42 29.5 72t71.5 30q41 0 70.5 -29.5t29.5 -70.5t-29.5 -71t-70.5 -30zM1083 1587q-41 0 -70.5 29t-29.5 70q0 42 29 72t71 30q41 0 71 -29.5t30 -70.5t-30 -71t-71 -30z" />
    <glyph glyph-name="Igrave" unicode="&#xcc;" horiz-adv-x="696" 
d="M715 1018l-217 -752q-2 -10 -13 -45.5t-18.5 -66t-7.5 -45.5q0 -16 5.5 -28t17.5 -19t24 -11.5t31.5 -6.5t32.5 -2.5t35 -0.5h32l-14 -45q-48 1 -144.5 4t-144.5 4q-47 -1 -140.5 -4t-140.5 -4l13 45q122 -5 160.5 34.5t73.5 164.5q2 6 3 10l238 827q1 3 11.5 43t16.5 68
t6 43q0 17 -5.5 30.5t-18.5 21t-23.5 13t-32.5 7.5t-33 2.5t-36.5 1t-32.5 0.5l13 45q44 -1 132 -4.5t132 -4.5q53 1 158.5 4.5t158.5 4.5l-12 -45q-91 -3 -125 -16q-32 -13 -49 -36q-29 -36 -86 -237zM879 1538h-58l-235 148q-1 0 -13 7.5t-15 10t-13.5 9.5t-14 12
t-10 12.5t-8.5 15.5t-2 16q0 27 19 49.5t46 22.5q15 0 31 -8t33 -23.5t28 -27.5t27.5 -31.5t20.5 -24.5z" />
    <glyph glyph-name="Iacute" unicode="&#xcd;" horiz-adv-x="696" 
d="M715 1018l-217 -752q-2 -10 -13 -45.5t-18.5 -66t-7.5 -45.5q0 -16 5.5 -28t17.5 -19t24 -11.5t31.5 -6.5t32.5 -2.5t35 -0.5h32l-14 -45q-48 1 -144.5 4t-144.5 4q-47 -1 -140.5 -4t-140.5 -4l13 45q122 -5 160.5 34.5t73.5 164.5q2 6 3 10l238 827q1 3 11.5 43t16.5 68
t6 43q0 17 -5.5 30.5t-18.5 21t-23.5 13t-32.5 7.5t-33 2.5t-36.5 1t-32.5 0.5l13 45q44 -1 132 -4.5t132 -4.5q53 1 158.5 4.5t158.5 4.5l-12 -45q-91 -3 -125 -16q-32 -13 -49 -36q-29 -36 -86 -237zM563 1536l219 201q28 28 41.5 40.5t43.5 31t53 18.5q25 0 44 -19.5
t19 -44.5q0 -15 -7 -28.5t-15 -22.5t-24.5 -20.5t-25.5 -16l-29 -14.5l-24 -12l-227 -113h-68z" />
    <glyph glyph-name="Icircumflex" unicode="&#xce;" horiz-adv-x="696" 
d="M715 1018l-217 -752q-2 -10 -13 -45.5t-18.5 -66t-7.5 -45.5q0 -16 5.5 -28t17.5 -19t24 -11.5t31.5 -6.5t32.5 -2.5t35 -0.5h32l-14 -45q-48 1 -144.5 4t-144.5 4q-47 -1 -140.5 -4t-140.5 -4l13 45q122 -5 160.5 34.5t73.5 164.5q2 6 3 10l238 827q1 3 11.5 43t16.5 68
t6 43q0 17 -5.5 30.5t-18.5 21t-23.5 13t-32.5 7.5t-33 2.5t-36.5 1t-32.5 0.5l13 45q44 -1 132 -4.5t132 -4.5q53 1 158.5 4.5t158.5 4.5l-12 -45q-91 -3 -125 -16q-32 -13 -49 -36q-29 -36 -86 -237zM823 1845l160 -291h-51l-170 168l-260 -168h-76l295 291h102z" />
    <glyph glyph-name="Idieresis" unicode="&#xcf;" horiz-adv-x="696" 
d="M715 1018l-217 -752q-2 -10 -13 -45.5t-18.5 -66t-7.5 -45.5q0 -16 5.5 -28t17.5 -19t24 -11.5t31.5 -6.5t32.5 -2.5t35 -0.5h32l-14 -45q-48 1 -144.5 4t-144.5 4q-47 -1 -140.5 -4t-140.5 -4l13 45q122 -5 160.5 34.5t73.5 164.5q2 6 3 10l238 827q1 3 11.5 43t16.5 68
t6 43q0 17 -5.5 30.5t-18.5 21t-23.5 13t-32.5 7.5t-33 2.5t-36.5 1t-32.5 0.5l13 45q44 -1 132 -4.5t132 -4.5q53 1 158.5 4.5t158.5 4.5l-12 -45q-91 -3 -125 -16q-32 -13 -49 -36q-29 -36 -86 -237zM604 1587q-41 0 -70.5 29t-29.5 70q0 42 29 72t71 30q41 0 71 -29.5
t30 -70.5t-30 -71t-71 -30zM940 1587q-41 0 -70.5 29t-29.5 70q0 42 29 72t71 30q41 0 70.5 -29.5t29.5 -70.5t-29.5 -71t-70.5 -30z" />
    <glyph glyph-name="Eth" unicode="&#xd0;" horiz-adv-x="1351" 
d="M242 250l116 434h-170l25 66h164l86 327q3 12 13 48.5t18 67.5t8 42q0 72 -142 72h-38l12 45q33 -1 127 -5t145 -4q31 0 120 4.5t138 4.5q218 0 389 -138q95 -78 144 -189t49 -237q0 -162 -65.5 -314t-182.5 -265q-123 -118 -261 -165.5t-314 -47.5q-68 0 -191.5 4
t-181.5 4q-49 0 -139 -3.5t-119 -4.5l12 45h37q31 0 55 5.5t41 11.5t32 23t23 28t18.5 40t15.5 45t16 56zM696 1208l-123 -458h271l-25 -66h-264l-82 -305q-45 -160 -45 -217q0 -34 13.5 -57.5t31.5 -35.5t49 -19t53 -8t56 -1q168 0 279.5 74t193.5 229q65 122 101 265.5
t36 281.5q0 200 -105.5 308t-289.5 108q-87 0 -108.5 -14t-41.5 -85z" />
    <glyph glyph-name="Ntilde" unicode="&#xd1;" horiz-adv-x="1433" 
d="M403 532l170 639q-22 41 -29 54t-24 34.5t-24.5 25t-31.5 11.5t-44.5 8.5t-63.5 2.5l13 45q29 -1 88.5 -4.5t89.5 -4.5q25 1 75.5 4.5t75.5 4.5l545 -1100l180 670q50 194 50 266q0 31 -9.5 53t-21.5 33.5t-37.5 18.5t-42 9t-50.5 4q-11 1 -16 1l13 45q37 -1 109.5 -4.5
t109.5 -4.5q38 1 114.5 4.5t114.5 4.5l-10 -45q-55 -1 -92.5 -16.5t-62 -51t-37 -67t-29.5 -91.5l-297 -1118h-47l-568 1143l-159 -594q-74 -270 -74 -360q0 -30 11.5 -51t22 -31.5t41.5 -17.5t41.5 -7.5t49.5 -2.5q9 -1 14 -1l-12 -45q-40 1 -121 4t-121 4
q-39 -1 -117.5 -4t-117.5 -4l10 45q38 5 52 7.5t42 9.5t41.5 17t31 28t30.5 44t27 62t29 85t24.5 80.5t25 89t18.5 68.5zM1294 1747l47 -6q-10 -64 -57 -118t-108 -54q-56 0 -148 43t-121 43q-23 0 -41.5 -11.5t-28 -24t-24.5 -36.5l-49 6q26 74 75.5 121t121.5 47
q46 0 135.5 -41t113.5 -41q53 0 84 72z" />
    <glyph glyph-name="Ograve" unicode="&#xd2;" horiz-adv-x="1433" 
d="M1044 1370q228 0 368 -149t140 -377q0 -123 -40.5 -250t-115.5 -237t-172.5 -197t-220.5 -137t-251 -50q-231 0 -362.5 144t-131.5 377q0 124 39 250.5t111.5 238t168 198.5t217.5 138t250 51zM1071 1325q-80 0 -155 -36t-135 -97t-111.5 -141t-89 -168.5t-64.5 -179.5
t-40 -174.5t-13 -151.5q0 -69 16 -131t48.5 -114t88.5 -83t129 -31q82 0 157.5 35.5t135 96t110.5 140t87 167.5t62 179t38.5 175t12.5 154q0 62 -17.5 124t-50.5 115.5t-87.5 87t-121.5 33.5zM1247 1538h-57l-236 148q-1 1 -11 7t-13 8t-12 8.5t-12.5 10l-10 10t-9 12
t-5 13t-2.5 14.5q0 27 19 49.5t46 22.5q18 0 41 -15t35.5 -27.5t37 -41.5t25.5 -31z" />
    <glyph glyph-name="Oacute" unicode="&#xd3;" horiz-adv-x="1433" 
d="M1044 1370q228 0 368 -149t140 -377q0 -123 -40.5 -250t-115.5 -237t-172.5 -197t-220.5 -137t-251 -50q-231 0 -362.5 144t-131.5 377q0 124 39 250.5t111.5 238t168 198.5t217.5 138t250 51zM1071 1325q-80 0 -155 -36t-135 -97t-111.5 -141t-89 -168.5t-64.5 -179.5
t-40 -174.5t-13 -151.5q0 -69 16 -131t48.5 -114t88.5 -83t129 -31q82 0 157.5 35.5t135 96t110.5 140t87 167.5t62 179t38.5 175t12.5 154q0 62 -17.5 124t-50.5 115.5t-87.5 87t-121.5 33.5zM850 1536l219 201q60 60 91 77q25 13 46 13q25 0 44.5 -19.5t19.5 -44.5
q0 -15 -7 -28.5t-15 -22.5t-24.5 -20.5t-25.5 -16l-29 -14.5l-24 -12l-227 -113h-68z" />
    <glyph glyph-name="Ocircumflex" unicode="&#xd4;" horiz-adv-x="1433" 
d="M1044 1370q228 0 368 -149t140 -377q0 -123 -40.5 -250t-115.5 -237t-172.5 -197t-220.5 -137t-251 -50q-231 0 -362.5 144t-131.5 377q0 124 39 250.5t111.5 238t168 198.5t217.5 138t250 51zM1071 1325q-80 0 -155 -36t-135 -97t-111.5 -141t-89 -168.5t-64.5 -179.5
t-40 -174.5t-13 -151.5q0 -69 16 -131t48.5 -114t88.5 -83t129 -31q82 0 157.5 35.5t135 96t110.5 140t87 167.5t62 179t38.5 175t12.5 154q0 62 -17.5 124t-50.5 115.5t-87.5 87t-121.5 33.5zM1192 1845l160 -291h-52l-170 168l-260 -168h-75l295 291h102z" />
    <glyph glyph-name="Otilde" unicode="&#xd5;" horiz-adv-x="1433" 
d="M1044 1370q228 0 368 -149t140 -377q0 -123 -40.5 -250t-115.5 -237t-172.5 -197t-220.5 -137t-251 -50q-231 0 -362.5 144t-131.5 377q0 124 39 250.5t111.5 238t168 198.5t217.5 138t250 51zM1071 1325q-80 0 -155 -36t-135 -97t-111.5 -141t-89 -168.5t-64.5 -179.5
t-40 -174.5t-13 -151.5q0 -69 16 -131t48.5 -114t88.5 -83t129 -31q82 0 157.5 35.5t135 96t110.5 140t87 167.5t62 179t38.5 175t12.5 154q0 62 -17.5 124t-50.5 115.5t-87.5 87t-121.5 33.5zM1294 1747l47 -6q-10 -64 -57 -118t-108 -54q-56 0 -148 43t-121 43
q-23 0 -41.5 -11.5t-28 -24t-24.5 -36.5l-49 6q26 74 75.5 121t121.5 47q46 0 135.5 -41t113.5 -41q53 0 84 72z" />
    <glyph glyph-name="Odieresis" unicode="&#xd6;" horiz-adv-x="1433" 
d="M1044 1370q228 0 368 -149t140 -377q0 -123 -40.5 -250t-115.5 -237t-172.5 -197t-220.5 -137t-251 -50q-231 0 -362.5 144t-131.5 377q0 124 39 250.5t111.5 238t168 198.5t217.5 138t250 51zM1071 1325q-80 0 -155 -36t-135 -97t-111.5 -141t-89 -168.5t-64.5 -179.5
t-40 -174.5t-13 -151.5q0 -69 16 -131t48.5 -114t88.5 -83t129 -31q82 0 157.5 35.5t135 96t110.5 140t87 167.5t62 179t38.5 175t12.5 154q0 62 -17.5 124t-50.5 115.5t-87.5 87t-121.5 33.5zM932 1587q-41 0 -71 29t-30 70q0 42 29.5 72t71.5 30q41 0 70.5 -29.5
t29.5 -70.5t-29.5 -71t-70.5 -30zM1268 1587q-41 0 -71 29t-30 70q0 42 29.5 72t71.5 30q41 0 70.5 -29.5t29.5 -70.5t-29.5 -71t-70.5 -30z" />
    <glyph glyph-name="multiply" unicode="&#xd7;" 
d="M586 455l-320 319l78 76l318 -320l319 320l78 -76l-320 -319l320 -320l-78 -76l-319 320l-318 -320l-78 76z" />
    <glyph glyph-name="Oslash" unicode="&#xd8;" horiz-adv-x="1433" 
d="M1462 1542l-147 -239q227 -152 227 -445q0 -159 -62.5 -318.5t-168 -284.5t-256 -203.5t-314.5 -78.5q-94 0 -206 33l-144 -235h-92l164 270q-205 133 -205 448q0 121 38 247.5t109 239t164.5 201.5t213.5 141t247 52q102 0 215 -37l133 209h84zM522 139l688 1135
q-66 51 -149 51q-81 0 -156 -36t-133.5 -97.5t-109.5 -141.5t-87 -168.5t-61.5 -178.5t-38 -171.5t-12.5 -148.5q0 -137 59 -244zM1270 1214l-697 -1144q60 -52 158 -52q99 0 187.5 46.5t153 124.5t116.5 175.5t84 203t48.5 204.5t16.5 182q0 167 -67 260z" />
    <glyph glyph-name="Ugrave" unicode="&#xd9;" horiz-adv-x="1392" 
d="M373 614l125 463q1 5 9.5 33.5t14 47t10.5 42t5 35.5q0 20 -10.5 34t-24.5 21t-37.5 11t-39 4.5t-40 1t-29.5 0.5l13 45q45 -1 135 -4.5t135 -4.5q51 1 153.5 4.5t153.5 4.5l-12 -45q-43 -2 -65 -3.5t-57 -14.5t-52 -36q-29 -36 -86 -237l-125 -469q-5 -20 -14.5 -57
t-15 -60.5t-10.5 -56t-5 -60.5q0 -131 89 -204.5t222 -73.5q61 0 113.5 14t92 36t74 59t58.5 73t47.5 88.5t38.5 95.5t33 103q44 138 104 374t60 312q0 31 -10.5 53.5t-24 34t-40 18t-43.5 8t-50 3.5l12 45q114 -6 219 -9q56 0 232 9l-13 -45q-35 0 -63 -7t-48 -16
t-37 -29.5t-27 -35.5t-21 -46.5t-16 -50t-15 -57.5l-107 -381q-66 -233 -94 -308q-87 -228 -222 -322q-118 -81 -290 -81q-69 0 -134 12t-126.5 39t-107.5 67t-73.5 101t-27.5 136q0 31 7.5 71.5t15.5 70.5t22 77t19 67zM1227 1538h-58l-235 148q-1 0 -13 7.5t-15 10
t-13.5 9.5t-14 12t-10 12.5t-8.5 15.5t-2 16q0 27 19.5 49.5t46.5 22.5q18 0 41 -15t35.5 -27.5t37 -41.5t25.5 -31z" />
    <glyph glyph-name="Uacute" unicode="&#xda;" horiz-adv-x="1392" 
d="M373 614l125 463q1 5 9.5 33.5t14 47t10.5 42t5 35.5q0 20 -10.5 34t-24.5 21t-37.5 11t-39 4.5t-40 1t-29.5 0.5l13 45q45 -1 135 -4.5t135 -4.5q51 1 153.5 4.5t153.5 4.5l-12 -45q-43 -2 -65 -3.5t-57 -14.5t-52 -36q-29 -36 -86 -237l-125 -469q-5 -20 -14.5 -57
t-15 -60.5t-10.5 -56t-5 -60.5q0 -131 89 -204.5t222 -73.5q61 0 113.5 14t92 36t74 59t58.5 73t47.5 88.5t38.5 95.5t33 103q44 138 104 374t60 312q0 31 -10.5 53.5t-24 34t-40 18t-43.5 8t-50 3.5l12 45q114 -6 219 -9q56 0 232 9l-13 -45q-35 0 -63 -7t-48 -16
t-37 -29.5t-27 -35.5t-21 -46.5t-16 -50t-15 -57.5l-107 -381q-66 -233 -94 -308q-87 -228 -222 -322q-118 -81 -290 -81q-69 0 -134 12t-126.5 39t-107.5 67t-73.5 101t-27.5 136q0 31 7.5 71.5t15.5 70.5t22 77t19 67zM829 1536l220 201q60 60 91 77q25 13 46 13
q25 0 44 -19.5t19 -44.5q0 -15 -7 -28.5t-15 -22.5t-24.5 -20.5t-25.5 -16l-29 -14.5l-24 -12l-227 -113h-68z" />
    <glyph glyph-name="Ucircumflex" unicode="&#xdb;" horiz-adv-x="1392" 
d="M373 614l125 463q1 5 9.5 33.5t14 47t10.5 42t5 35.5q0 20 -10.5 34t-24.5 21t-37.5 11t-39 4.5t-40 1t-29.5 0.5l13 45q45 -1 135 -4.5t135 -4.5q51 1 153.5 4.5t153.5 4.5l-12 -45q-43 -2 -65 -3.5t-57 -14.5t-52 -36q-29 -36 -86 -237l-125 -469q-5 -20 -14.5 -57
t-15 -60.5t-10.5 -56t-5 -60.5q0 -131 89 -204.5t222 -73.5q61 0 113.5 14t92 36t74 59t58.5 73t47.5 88.5t38.5 95.5t33 103q44 138 104 374t60 312q0 31 -10.5 53.5t-24 34t-40 18t-43.5 8t-50 3.5l12 45q114 -6 219 -9q56 0 232 9l-13 -45q-35 0 -63 -7t-48 -16
t-37 -29.5t-27 -35.5t-21 -46.5t-16 -50t-15 -57.5l-107 -381q-66 -233 -94 -308q-87 -228 -222 -322q-118 -81 -290 -81q-69 0 -134 12t-126.5 39t-107.5 67t-73.5 101t-27.5 136q0 31 7.5 71.5t15.5 70.5t22 77t19 67zM1130 1845l160 -291h-51l-170 168l-260 -168h-76
l295 291h102z" />
    <glyph glyph-name="Udieresis" unicode="&#xdc;" horiz-adv-x="1392" 
d="M373 614l125 463q1 5 9.5 33.5t14 47t10.5 42t5 35.5q0 20 -10.5 34t-24.5 21t-37.5 11t-39 4.5t-40 1t-29.5 0.5l13 45q45 -1 135 -4.5t135 -4.5q51 1 153.5 4.5t153.5 4.5l-12 -45q-43 -2 -65 -3.5t-57 -14.5t-52 -36q-29 -36 -86 -237l-125 -469q-5 -20 -14.5 -57
t-15 -60.5t-10.5 -56t-5 -60.5q0 -131 89 -204.5t222 -73.5q61 0 113.5 14t92 36t74 59t58.5 73t47.5 88.5t38.5 95.5t33 103q44 138 104 374t60 312q0 31 -10.5 53.5t-24 34t-40 18t-43.5 8t-50 3.5l12 45q114 -6 219 -9q56 0 232 9l-13 -45q-35 0 -63 -7t-48 -16
t-37 -29.5t-27 -35.5t-21 -46.5t-16 -50t-15 -57.5l-107 -381q-66 -233 -94 -308q-87 -228 -222 -322q-118 -81 -290 -81q-69 0 -134 12t-126.5 39t-107.5 67t-73.5 101t-27.5 136q0 31 7.5 71.5t15.5 70.5t22 77t19 67zM911 1587q-41 0 -70.5 29t-29.5 70q0 42 29 72t71 30
q41 0 71 -29.5t30 -70.5t-30 -71t-71 -30zM1247 1587q-41 0 -70.5 29t-29.5 70q0 42 29 72t71 30q41 0 71 -29.5t30 -70.5t-30 -71t-71 -30z" />
    <glyph glyph-name="Yacute" unicode="&#xdd;" horiz-adv-x="1187" 
d="M547 250l96 362l-149 506q-28 108 -52 142q-15 21 -40.5 31.5t-41.5 12.5t-53 3l12 45q41 -1 123 -4.5t123 -4.5q43 1 129 4.5t129 4.5l-12 -45q-2 0 -23.5 -0.5t-28.5 -1.5t-26.5 -3t-27.5 -7t-20 -12t-16.5 -19t-4.5 -27q0 -26 8 -57l149 -518q1 1 134 153t215.5 262.5
t82.5 155.5q0 12 -3 22.5t-10.5 17.5t-14 12.5t-19 9t-20 6t-23 3.5t-21.5 1.5t-21.5 1t-18.5 0.5l12 45q33 -1 97.5 -4.5t97.5 -4.5q35 1 103.5 4.5t103.5 4.5l-13 -45q-21 1 -41.5 -5.5t-34.5 -15t-34 -28.5t-28 -29t-28 -35t-24 -31l-479 -581l-99 -369q-20 -74 -20 -100
q0 -17 6 -30t17 -20.5t25.5 -12.5t30.5 -6.5t33.5 -2t34.5 0t33 -0.5l-10 -45q-52 1 -157 4t-157 4q-45 -1 -135 -4t-135 -4l10 45q66 -3 105 5t64.5 41t35.5 59t29 98q1 4 2 6zM727 1536l219 201q60 60 91 77q25 13 46 13q25 0 44.5 -19.5t19.5 -44.5q0 -15 -7 -28.5
t-15 -22.5t-24.5 -20.5t-25.5 -16l-29 -14.5l-24 -12l-227 -113h-68z" />
    <glyph glyph-name="Thorn" unicode="&#xde;" horiz-adv-x="1146" 
d="M360 1307l13 45q23 -1 111.5 -4.5t152.5 -4.5q53 1 158.5 4.5t158.5 4.5l-12 -45q-91 -3 -125 -16q-32 -13 -49 -36q-32 -40 -74 -194l-6 -25q18 -2 84 -2q52 -1 97 -4.5t98 -12.5t96 -23t85 -38.5t70.5 -57t46.5 -79.5t19 -104q-2 -94 -41 -167t-99.5 -116.5
t-142.5 -71.5t-160 -38.5t-163 -10.5q-31 1 -91.5 4t-90.5 4l-15 -53q-2 -10 -13 -45.5t-18.5 -66t-7.5 -45.5q0 -16 5.5 -28t18 -19t24 -11.5t31.5 -6.5t32.5 -2.5t35 -0.5h32.5l-15 -45q-40 1 -139.5 4t-153.5 4q-46 -1 -139.5 -4t-142.5 -4l12 45q44 -2 76 1.5t54.5 15
t38 26t27.5 40t20.5 52t19.5 66.5q1 5 2 8l221 827q1 5 9.5 33.5t14 47t10.5 42t5 35.5q0 20 -10.5 34t-24.5 21t-37.5 11t-39 4.5t-40 1t-29.5 0.5zM645 879l-137 -508q23 -2 68 -5.5t67 -5.5q191 0 313.5 103t122.5 291q0 119 -81 177t-201 58q-106 0 -129 -35
q-8 -13 -23 -75z" />
    <glyph glyph-name="germandbls" unicode="&#xdf;" horiz-adv-x="942" 
d="M659 756q0 23 43 28q60 9 106 49t70.5 97.5t36 116.5t11.5 118q0 174 -107 174q-29 0 -53.5 -20t-42.5 -52.5t-34.5 -81t-29.5 -98.5t-28 -111q-4 -17 -6 -26l-215 -860q-55 -223 -100 -329q-130 -314 -353 -314q-38 0 -75 10t-67 37t-30 66q0 25 14.5 42t38.5 17
q21 0 36 -12.5t21.5 -26t12.5 -35.5q6 -20 11 -29.5t16.5 -16.5t31.5 -7q107 0 164 178q80 252 129 436l234 904q12 45 27 88t44 97.5t63.5 94t86.5 67t112 27.5q115 0 180.5 -80t65.5 -198q0 -145 -86 -236.5t-231 -115.5v-4q116 -17 173.5 -91.5t57.5 -197.5
q0 -73 -28 -157.5t-75 -158.5t-118.5 -123t-149.5 -49q-57 0 -97 26.5t-40 80.5q0 34 17 58t49 24q26 0 41.5 -16.5t15.5 -43.5q0 -20 -9 -36.5t-9 -22.5q0 -10 5.5 -17.5t14.5 -7.5q36 0 75.5 48t63.5 94q40 78 68.5 186.5t28.5 190.5q0 52 -13.5 88.5t-33.5 54t-43.5 29
t-43.5 16t-33.5 12t-13.5 19.5z" />
    <glyph glyph-name="agrave" unicode="&#xe0;" horiz-adv-x="1024" 
d="M758 838q-58 0 -122 -54.5t-116 -137.5t-95 -176.5t-67 -177.5t-24 -134q0 -54 25.5 -97t74.5 -43q41 0 82 22t70.5 53t60.5 77.5t49 81t39 78.5q119 257 119 399q0 43 -27 76t-69 33zM897 772l31 84h145l-90 -244q-41 -108 -88 -278t-47 -250q0 -49 26 -49q14 0 31 11.5
t34 33.5t32.5 44.5t33 54.5t27.5 51.5t24 48.5t17 34l43 -18q-9 -18 -30.5 -64t-35.5 -73.5t-39.5 -67t-49.5 -62t-58 -39t-72 -16.5q-56 0 -89 31t-33 86q0 18 3 38t8 44t7 35l-4 4q-133 -238 -305 -238q-101 0 -166.5 70t-65.5 172q0 98 47 215.5t122 217.5t179 167.5
t207 67.5q112 0 156 -111zM1042 1071h-57l-235 148q-1 1 -10 6t-11.5 7t-10.5 7.5t-11.5 8.5t-10 8.5t-9.5 10.5t-6.5 11t-5 12t-1.5 13q0 27 19 49t46 22q15 0 31 -7.5t33 -23t28 -27t27.5 -32t20.5 -24.5z" />
    <glyph glyph-name="aacute" unicode="&#xe1;" horiz-adv-x="1024" 
d="M758 838q-58 0 -122 -54.5t-116 -137.5t-95 -176.5t-67 -177.5t-24 -134q0 -54 25.5 -97t74.5 -43q41 0 82 22t70.5 53t60.5 77.5t49 81t39 78.5q119 257 119 399q0 43 -27 76t-69 33zM897 772l31 84h145l-90 -244q-41 -108 -88 -278t-47 -250q0 -49 26 -49q14 0 31 11.5
t34 33.5t32.5 44.5t33 54.5t27.5 51.5t24 48.5t17 34l43 -18q-9 -18 -30.5 -64t-35.5 -73.5t-39.5 -67t-49.5 -62t-58 -39t-72 -16.5q-56 0 -89 31t-33 86q0 18 3 38t8 44t7 35l-4 4q-133 -238 -305 -238q-101 0 -166.5 70t-65.5 172q0 98 47 215.5t122 217.5t179 167.5
t207 67.5q112 0 156 -111zM645 1069l219 201q60 60 91 77q25 13 46 13q25 0 44.5 -19.5t19.5 -44.5q0 -15 -7 -28.5t-15 -22.5t-24.5 -20.5t-25.5 -16l-29 -14.5l-24 -12l-227 -113h-68z" />
    <glyph glyph-name="acircumflex" unicode="&#xe2;" horiz-adv-x="1024" 
d="M758 838q-58 0 -122 -54.5t-116 -137.5t-95 -176.5t-67 -177.5t-24 -134q0 -54 25.5 -97t74.5 -43q41 0 82 22t70.5 53t60.5 77.5t49 81t39 78.5q119 257 119 399q0 43 -27 76t-69 33zM897 772l31 84h145l-90 -244q-41 -108 -88 -278t-47 -250q0 -49 26 -49q14 0 31 11.5
t34 33.5t32.5 44.5t33 54.5t27.5 51.5t24 48.5t17 34l43 -18q-9 -18 -30.5 -64t-35.5 -73.5t-39.5 -67t-49.5 -62t-58 -39t-72 -16.5q-56 0 -89 31t-33 86q0 18 3 38t8 44t7 35l-4 4q-133 -238 -305 -238q-101 0 -166.5 70t-65.5 172q0 98 47 215.5t122 217.5t179 167.5
t207 67.5q112 0 156 -111zM946 1378l160 -291h-51l-170 168l-260 -168h-76l295 291h102z" />
    <glyph glyph-name="atilde" unicode="&#xe3;" horiz-adv-x="1024" 
d="M758 838q-58 0 -122 -54.5t-116 -137.5t-95 -176.5t-67 -177.5t-24 -134q0 -54 25.5 -97t74.5 -43q41 0 82 22t70.5 53t60.5 77.5t49 81t39 78.5q119 257 119 399q0 43 -27 76t-69 33zM897 772l31 84h145l-90 -244q-41 -108 -88 -278t-47 -250q0 -49 26 -49q14 0 31 11.5
t34 33.5t32.5 44.5t33 54.5t27.5 51.5t24 48.5t17 34l43 -18q-9 -18 -30.5 -64t-35.5 -73.5t-39.5 -67t-49.5 -62t-58 -39t-72 -16.5q-56 0 -89 31t-33 86q0 18 3 38t8 44t7 35l-4 4q-133 -238 -305 -238q-101 0 -166.5 70t-65.5 172q0 98 47 215.5t122 217.5t179 167.5
t207 67.5q112 0 156 -111zM1090 1280l47 -6q-10 -64 -57.5 -118t-108.5 -54q-43 0 -96.5 21.5t-100 43t-72.5 21.5q-23 0 -41.5 -11.5t-28 -24t-24.5 -36.5l-49 6q26 74 75.5 121t121.5 47q46 0 136 -41t114 -41q53 0 84 72z" />
    <glyph glyph-name="adieresis" unicode="&#xe4;" horiz-adv-x="1024" 
d="M758 838q-58 0 -122 -54.5t-116 -137.5t-95 -176.5t-67 -177.5t-24 -134q0 -54 25.5 -97t74.5 -43q41 0 82 22t70.5 53t60.5 77.5t49 81t39 78.5q119 257 119 399q0 43 -27 76t-69 33zM897 772l31 84h145l-90 -244q-41 -108 -88 -278t-47 -250q0 -49 26 -49q14 0 31 11.5
t34 33.5t32.5 44.5t33 54.5t27.5 51.5t24 48.5t17 34l43 -18q-9 -18 -30.5 -64t-35.5 -73.5t-39.5 -67t-49.5 -62t-58 -39t-72 -16.5q-56 0 -89 31t-33 86q0 18 3 38t8 44t7 35l-4 4q-133 -238 -305 -238q-101 0 -166.5 70t-65.5 172q0 98 47 215.5t122 217.5t179 167.5
t207 67.5q112 0 156 -111zM686 1120q-41 0 -70.5 29t-29.5 70q0 42 29 72t71 30q41 0 70.5 -29.5t29.5 -70.5t-29.5 -71t-70.5 -30zM1022 1120q-41 0 -70.5 29t-29.5 70q0 42 29 72t71 30q41 0 70.5 -29.5t29.5 -70.5t-29.5 -71t-70.5 -30z" />
    <glyph glyph-name="aring" unicode="&#xe5;" horiz-adv-x="1024" 
d="M758 838q-58 0 -122 -54.5t-116 -137.5t-95 -176.5t-67 -177.5t-24 -134q0 -54 25.5 -97t74.5 -43q41 0 82 22t70.5 53t60.5 77.5t49 81t39 78.5q119 257 119 399q0 43 -27 76t-69 33zM897 772l31 84h145l-90 -244q-41 -108 -88 -278t-47 -250q0 -49 26 -49q14 0 31 11.5
t34 33.5t32.5 44.5t33 54.5t27.5 51.5t24 48.5t17 34l43 -18q-9 -18 -30.5 -64t-35.5 -73.5t-39.5 -67t-49.5 -62t-58 -39t-72 -16.5q-56 0 -89 31t-33 86q0 18 3 38t8 44t7 35l-4 4q-133 -238 -305 -238q-101 0 -166.5 70t-65.5 172q0 98 47 215.5t122 217.5t179 167.5
t207 67.5q112 0 156 -111zM848 969q-87 0 -150 60t-63 147q0 89 63 151t152 62t150 -62.5t61 -150.5q0 -87 -63 -147t-150 -60zM848 1036q57 0 98 41.5t41 98.5q0 61 -39 103t-100 42q-59 0 -99 -43t-40 -102q0 -57 40.5 -98.5t98.5 -41.5z" />
    <glyph glyph-name="ae" unicode="&#xe6;" horiz-adv-x="1228" 
d="M864 385q173 68 281 193q33 41 60.5 95t27.5 97q0 31 -21.5 49.5t-54.5 18.5q-49 0 -99.5 -53t-88.5 -131.5t-64.5 -147t-40.5 -121.5zM950 840l140 24q66 19 96 19q69 0 114.5 -37t45.5 -105q0 -61 -36 -119.5t-88.5 -101t-124.5 -82t-130 -63t-119 -43.5
q-35 -122 -35 -195q0 -48 28.5 -83.5t73.5 -35.5q23 0 46.5 7.5t42.5 17t42 28.5t37.5 32.5t36.5 40t31.5 39t31.5 41.5t27 36l39 -27q-36 -52 -69.5 -91.5t-79.5 -81t-98.5 -64.5t-108.5 -23q-84 0 -145 46.5t-80 125.5q-70 -79 -140.5 -125.5t-154.5 -46.5
q-92 0 -137.5 61.5t-45.5 158.5q0 139 74.5 261.5t196.5 209.5q106 77 224.5 117t264.5 59zM995 807l-2 2q-267 -22 -448 -203q-88 -88 -147.5 -209.5t-59.5 -236.5q0 -31 5.5 -56.5t25 -47t51.5 -21.5q51 0 124 60t115 118q21 183 104.5 324.5t231.5 269.5z" />
    <glyph glyph-name="ccedilla" unicode="&#xe7;" horiz-adv-x="737" 
d="M362 -141l37 114q-103 10 -158 86.5t-55 186.5q0 95 42 206.5t110.5 207t166 159.5t197.5 64q59 0 107.5 -30.5t48.5 -86.5q0 -33 -22.5 -59.5t-55.5 -26.5q-29 0 -49 22t-20 50q0 19 11 37.5t11 23.5q0 25 -45 25q-72 0 -141 -84.5t-113.5 -199.5t-72 -223.5
t-27.5 -166.5q0 -60 29.5 -103t85.5 -43q160 0 290 263l41 -25q-135 -264 -329 -281l-23 -71q52 0 92.5 -29t40.5 -78q0 -65 -49.5 -101t-116.5 -36q-32 0 -67 7.5t-67 30t-32 54.5q0 18 12.5 31.5t30.5 13.5q19 0 27.5 -9.5t15.5 -29.5q8 -30 20.5 -41.5t41.5 -11.5
q40 0 69 25t29 65q0 25 -20 41t-44 20t-49 3z" />
    <glyph glyph-name="egrave" unicode="&#xe8;" horiz-adv-x="696" 
d="M715 264l37 -26q-36 -54 -70.5 -95.5t-80.5 -83t-100.5 -64t-113.5 -22.5q-106 0 -167.5 63.5t-61.5 170.5q0 97 43.5 214.5t114 220t171 172t203.5 69.5q64 0 106 -39t42 -103q0 -60 -32 -115.5t-79 -96t-112.5 -78t-119 -61.5t-111.5 -48q-8 -3 -11 -4l-33 -14
q-35 -115 -35 -189q0 -51 25.5 -84t75.5 -33q22 0 43.5 4.5t43 16t37.5 21t37.5 30t33 31t32.5 37t28.5 35.5t28.5 37.5t25 33.5zM356 379q60 26 119.5 63t118 87t95 113t36.5 128q0 31 -16.5 49.5t-46.5 18.5q-52 0 -105 -52.5t-93 -132.5t-66.5 -149t-41.5 -125zM879 1071
h-58l-235 148q-1 1 -10 6t-11.5 7t-10.5 7.5t-11.5 8.5t-10 8.5t-9.5 10.5t-6.5 11t-5 12t-1.5 13q0 27 19 49t46 22q15 0 31 -7.5t33 -23t28 -27t27.5 -32t20.5 -24.5z" />
    <glyph glyph-name="eacute" unicode="&#xe9;" horiz-adv-x="696" 
d="M715 264l37 -26q-36 -54 -70.5 -95.5t-80.5 -83t-100.5 -64t-113.5 -22.5q-106 0 -167.5 63.5t-61.5 170.5q0 97 43.5 214.5t114 220t171 172t203.5 69.5q64 0 106 -39t42 -103q0 -60 -32 -115.5t-79 -96t-112.5 -78t-119 -61.5t-111.5 -48q-8 -3 -11 -4l-33 -14
q-35 -115 -35 -189q0 -51 25.5 -84t75.5 -33q22 0 43.5 4.5t43 16t37.5 21t37.5 30t33 31t32.5 37t28.5 35.5t28.5 37.5t25 33.5zM356 379q60 26 119.5 63t118 87t95 113t36.5 128q0 31 -16.5 49.5t-46.5 18.5q-52 0 -105 -52.5t-93 -132.5t-66.5 -149t-41.5 -125zM481 1069
l219 201q28 28 41.5 40.5t43.5 31t53 18.5q25 0 44 -19.5t19 -44.5q0 -15 -7 -28.5t-15 -22.5t-24.5 -20.5t-25.5 -16l-29 -14.5l-24 -12l-227 -113h-68z" />
    <glyph glyph-name="ecircumflex" unicode="&#xea;" horiz-adv-x="696" 
d="M715 264l37 -26q-36 -54 -70.5 -95.5t-80.5 -83t-100.5 -64t-113.5 -22.5q-106 0 -167.5 63.5t-61.5 170.5q0 97 43.5 214.5t114 220t171 172t203.5 69.5q64 0 106 -39t42 -103q0 -60 -32 -115.5t-79 -96t-112.5 -78t-119 -61.5t-111.5 -48q-8 -3 -11 -4l-33 -14
q-35 -115 -35 -189q0 -51 25.5 -84t75.5 -33q22 0 43.5 4.5t43 16t37.5 21t37.5 30t33 31t32.5 37t28.5 35.5t28.5 37.5t25 33.5zM356 379q60 26 119.5 63t118 87t95 113t36.5 128q0 31 -16.5 49.5t-46.5 18.5q-52 0 -105 -52.5t-93 -132.5t-66.5 -149t-41.5 -125zM782 1378
l160 -291h-51l-170 168l-260 -168h-76l295 291h102z" />
    <glyph glyph-name="edieresis" unicode="&#xeb;" horiz-adv-x="696" 
d="M715 264l37 -26q-36 -54 -70.5 -95.5t-80.5 -83t-100.5 -64t-113.5 -22.5q-106 0 -167.5 63.5t-61.5 170.5q0 97 43.5 214.5t114 220t171 172t203.5 69.5q64 0 106 -39t42 -103q0 -60 -32 -115.5t-79 -96t-112.5 -78t-119 -61.5t-111.5 -48q-8 -3 -11 -4l-33 -14
q-35 -115 -35 -189q0 -51 25.5 -84t75.5 -33q22 0 43.5 4.5t43 16t37.5 21t37.5 30t33 31t32.5 37t28.5 35.5t28.5 37.5t25 33.5zM356 379q60 26 119.5 63t118 87t95 113t36.5 128q0 31 -16.5 49.5t-46.5 18.5q-52 0 -105 -52.5t-93 -132.5t-66.5 -149t-41.5 -125zM522 1120
q-41 0 -70.5 29t-29.5 70q0 42 29 72t71 30q41 0 71 -29.5t30 -70.5t-30 -71t-71 -30zM858 1120q-41 0 -70.5 29t-29.5 70q0 42 29 72t71 30q41 0 70.5 -29.5t29.5 -70.5t-29.5 -71t-70.5 -30z" />
    <glyph glyph-name="igrave" unicode="&#xec;" horiz-adv-x="573" 
d="M319 397l58 138q0 1 14 38t21 57.5t18.5 54.5t17 57.5t5.5 37.5q0 16 -9.5 28.5t-25.5 12.5q-29 0 -72 -47t-72 -92.5t-49 -83.5l-41 23q68 115 98 154q86 108 177 108q56 0 91.5 -41.5t35.5 -98.5q0 -28 -6 -59.5t-18.5 -68.5t-22 -61.5t-27 -67t-23.5 -56.5l-65 -166
q-1 -3 -20 -53t-30.5 -87t-11.5 -54q0 -13 9 -24t22 -11q36 0 84.5 51t81.5 102t53 93l41 -21q-18 -37 -37.5 -71t-49 -75t-59.5 -71t-68.5 -50t-76.5 -20q-61 0 -97 43t-36 105q0 30 10.5 71t20.5 66.5t32.5 76.5t26.5 62zM776 1071h-57l-236 148q-1 1 -9 5.5t-10 6
t-9.5 6.5t-10.5 7.5l-9 7.5t-9 9t-7 9.5t-6 10t-3.5 10.5t-1.5 12q0 27 19 49t46 22q15 0 31 -8t32.5 -23t27.5 -27t27.5 -31.5t20.5 -24.5z" />
    <glyph glyph-name="iacute" unicode="&#xed;" horiz-adv-x="573" 
d="M319 397l58 138q0 1 14 38t21 57.5t18.5 54.5t17 57.5t5.5 37.5q0 16 -9.5 28.5t-25.5 12.5q-29 0 -72 -47t-72 -92.5t-49 -83.5l-41 23q68 115 98 154q86 108 177 108q56 0 91.5 -41.5t35.5 -98.5q0 -28 -6 -59.5t-18.5 -68.5t-22 -61.5t-27 -67t-23.5 -56.5l-65 -166
q-1 -3 -20 -53t-30.5 -87t-11.5 -54q0 -13 9 -24t22 -11q36 0 84.5 51t81.5 102t53 93l41 -21q-18 -37 -37.5 -71t-49 -75t-59.5 -71t-68.5 -50t-76.5 -20q-61 0 -97 43t-36 105q0 30 10.5 71t20.5 66.5t32.5 76.5t26.5 62zM420 1069l219 201q60 60 91 77q25 13 46 13
q25 0 44.5 -19.5t19.5 -44.5q0 -15 -7 -28.5t-15 -22.5t-24.5 -20.5t-25.5 -16l-29 -14.5l-24 -12l-228 -113h-67z" />
    <glyph glyph-name="icircumflex" unicode="&#xee;" horiz-adv-x="573" 
d="M319 397l58 138q0 1 14 38t21 57.5t18.5 54.5t17 57.5t5.5 37.5q0 16 -9.5 28.5t-25.5 12.5q-29 0 -72 -47t-72 -92.5t-49 -83.5l-41 23q68 115 98 154q86 108 177 108q56 0 91.5 -41.5t35.5 -98.5q0 -28 -6 -59.5t-18.5 -68.5t-22 -61.5t-27 -67t-23.5 -56.5l-65 -166
q-1 -3 -20 -53t-30.5 -87t-11.5 -54q0 -13 9 -24t22 -11q36 0 84.5 51t81.5 102t53 93l41 -21q-18 -37 -37.5 -71t-49 -75t-59.5 -71t-68.5 -50t-76.5 -20q-61 0 -97 43t-36 105q0 30 10.5 71t20.5 66.5t32.5 76.5t26.5 62zM639 1378l160 -291h-51l-170 168l-261 -168h-75
l295 291h102z" />
    <glyph glyph-name="idieresis" unicode="&#xef;" horiz-adv-x="573" 
d="M319 397l58 138q0 1 14 38t21 57.5t18.5 54.5t17 57.5t5.5 37.5q0 16 -9.5 28.5t-25.5 12.5q-29 0 -72 -47t-72 -92.5t-49 -83.5l-41 23q68 115 98 154q86 108 177 108q56 0 91.5 -41.5t35.5 -98.5q0 -28 -6 -59.5t-18.5 -68.5t-22 -61.5t-27 -67t-23.5 -56.5l-65 -166
q-1 -3 -20 -53t-30.5 -87t-11.5 -54q0 -13 9 -24t22 -11q36 0 84.5 51t81.5 102t53 93l41 -21q-18 -37 -37.5 -71t-49 -75t-59.5 -71t-68.5 -50t-76.5 -20q-61 0 -97 43t-36 105q0 30 10.5 71t20.5 66.5t32.5 76.5t26.5 62zM399 1120q-41 0 -70.5 29t-29.5 70q0 42 29 72
t71 30q41 0 71 -29.5t30 -70.5t-30 -71t-71 -30zM735 1120q-41 0 -70.5 29t-29.5 70q0 42 29 72t71 30q41 0 71 -29.5t30 -70.5t-30 -71t-71 -30z" />
    <glyph glyph-name="eth" unicode="&#xf0;" horiz-adv-x="860" 
d="M670 838q-75 0 -142 -79.5t-107.5 -191.5t-63.5 -219.5t-23 -175.5q0 -72 34.5 -113t104.5 -41q64 0 119.5 53t91.5 132.5t62 173t37.5 173.5t11.5 136q0 61 -33 106.5t-92 45.5zM526 1444l43 35q121 -92 201 -199l219 111l37 -56l-215 -110q147 -225 147 -514
q0 -97 -19.5 -198.5t-60.5 -198.5t-97.5 -172.5t-137 -122t-172.5 -46.5q-132 0 -208.5 82.5t-76.5 216.5q0 90 36 196t96.5 198.5t151 154.5t189.5 62q36 0 67 -14t46 -27.5t37 -38.5q-3 195 -86 377l-215 -111l-41 59l225 113q-72 125 -166 203z" />
    <glyph glyph-name="ntilde" unicode="&#xf1;" horiz-adv-x="1146" 
d="M430 63l-18 -63h-154l45 129q156 475 156 627q0 65 -39 65q-23 0 -48.5 -21t-50 -58.5t-42 -69t-37.5 -73.5t-25 -50l-41 14q1 3 16 37t19.5 43t20 41t23.5 44t25 39t29.5 38.5t32 30t37.5 26.5t40.5 14.5t45.5 6.5q60 0 92.5 -40t32.5 -102q0 -23 -17 -151l-6 -37l4 -4
q25 49 48 87.5t59.5 87.5t73 81.5t85.5 55t99 22.5q68 0 114 -49t46 -117q0 -119 -70 -301l-37 -99q-3 -8 -16.5 -45t-24 -66.5t-19.5 -62.5t-9 -47q0 -21 11.5 -41t31.5 -20q29 0 62.5 30t62.5 75.5t49 83t34 69.5l43 -21q-140 -299 -292 -299q-64 0 -100 41t-36 105
q0 24 4.5 52.5t15 64.5t17.5 58t21.5 63.5t17.5 50.5l37 100q2 5 14 34t17 42.5t15 42t15 46.5t9 40t4 39q0 28 -20 48.5t-50 20.5q-39 0 -82 -28t-81 -73.5t-64.5 -84.5t-48.5 -78q-101 -177 -197 -494zM1151 1280l47 -6q-10 -64 -57.5 -118t-108.5 -54q-44 0 -97 21.5
t-99 43t-72 21.5q-23 0 -41.5 -11.5t-28 -24t-24.5 -36.5l-49 6q26 74 75 121t121 47q46 0 136 -41t114 -41q53 0 84 72z" />
    <glyph glyph-name="ograve" unicode="&#xf2;" horiz-adv-x="860" 
d="M471 -27q-132 0 -208.5 82.5t-76.5 216.5q0 90 36 196t96.5 198.5t151 154.5t189.5 62q91 0 157 -48t96 -121.5t30 -162.5q0 -72 -23 -152t-66.5 -155t-100.5 -136t-130.5 -98t-150.5 -37zM473 18q64 0 119.5 53t91.5 132.5t62 173t37.5 173.5t11.5 136q0 61 -33 106.5
t-92 45.5q-75 0 -142 -79.5t-107.5 -191.5t-63.5 -219.5t-23 -175.5q0 -72 34.5 -113t104.5 -41zM961 1071h-58l-235 148q-1 1 -10 6t-11.5 7t-10.5 7.5t-11.5 8.5t-10 8.5t-9.5 10.5t-6.5 11t-5 12t-1.5 13q0 27 19 49t46 22q15 0 31 -7.5t33 -23t28 -27t27.5 -32
t20.5 -24.5z" />
    <glyph glyph-name="oacute" unicode="&#xf3;" horiz-adv-x="860" 
d="M471 -27q-132 0 -208.5 82.5t-76.5 216.5q0 90 36 196t96.5 198.5t151 154.5t189.5 62q91 0 157 -48t96 -121.5t30 -162.5q0 -72 -23 -152t-66.5 -155t-100.5 -136t-130.5 -98t-150.5 -37zM473 18q64 0 119.5 53t91.5 132.5t62 173t37.5 173.5t11.5 136q0 61 -33 106.5
t-92 45.5q-75 0 -142 -79.5t-107.5 -191.5t-63.5 -219.5t-23 -175.5q0 -72 34.5 -113t104.5 -41zM563 1069l219 201q28 28 41.5 40.5t43.5 31t53 18.5q25 0 44 -19.5t19 -44.5q0 -15 -7 -28.5t-15 -22.5t-24.5 -20.5t-25.5 -16l-29 -14.5l-24 -12l-227 -113h-68z" />
    <glyph glyph-name="ocircumflex" unicode="&#xf4;" horiz-adv-x="860" 
d="M471 -27q-132 0 -208.5 82.5t-76.5 216.5q0 90 36 196t96.5 198.5t151 154.5t189.5 62q91 0 157 -48t96 -121.5t30 -162.5q0 -72 -23 -152t-66.5 -155t-100.5 -136t-130.5 -98t-150.5 -37zM473 18q64 0 119.5 53t91.5 132.5t62 173t37.5 173.5t11.5 136q0 61 -33 106.5
t-92 45.5q-75 0 -142 -79.5t-107.5 -191.5t-63.5 -219.5t-23 -175.5q0 -72 34.5 -113t104.5 -41zM864 1378l160 -291h-51l-170 168l-260 -168h-76l295 291h102z" />
    <glyph glyph-name="otilde" unicode="&#xf5;" horiz-adv-x="860" 
d="M471 -27q-132 0 -208.5 82.5t-76.5 216.5q0 90 36 196t96.5 198.5t151 154.5t189.5 62q91 0 157 -48t96 -121.5t30 -162.5q0 -72 -23 -152t-66.5 -155t-100.5 -136t-130.5 -98t-150.5 -37zM473 18q64 0 119.5 53t91.5 132.5t62 173t37.5 173.5t11.5 136q0 61 -33 106.5
t-92 45.5q-75 0 -142 -79.5t-107.5 -191.5t-63.5 -219.5t-23 -175.5q0 -72 34.5 -113t104.5 -41zM1008 1280l47 -6q-10 -64 -57.5 -118t-108.5 -54q-55 0 -147 43t-121 43q-23 0 -42 -11.5t-28.5 -24t-24.5 -36.5l-49 6q26 74 75.5 121t121.5 47q46 0 136 -41t114 -41
q53 0 84 72z" />
    <glyph glyph-name="odieresis" unicode="&#xf6;" horiz-adv-x="860" 
d="M471 -27q-132 0 -208.5 82.5t-76.5 216.5q0 90 36 196t96.5 198.5t151 154.5t189.5 62q91 0 157 -48t96 -121.5t30 -162.5q0 -72 -23 -152t-66.5 -155t-100.5 -136t-130.5 -98t-150.5 -37zM473 18q64 0 119.5 53t91.5 132.5t62 173t37.5 173.5t11.5 136q0 61 -33 106.5
t-92 45.5q-75 0 -142 -79.5t-107.5 -191.5t-63.5 -219.5t-23 -175.5q0 -72 34.5 -113t104.5 -41zM604 1120q-41 0 -70.5 29t-29.5 70q0 42 29 72t71 30q41 0 71 -29.5t30 -70.5t-30 -71t-71 -30zM940 1120q-41 0 -70.5 29t-29.5 70q0 42 29 72t71 30q41 0 70.5 -29.5
t29.5 -70.5t-29.5 -71t-70.5 -30z" />
    <glyph glyph-name="divide" unicode="&#xf7;" 
d="M209 508h907v-109h-907v109zM662 707q-42 0 -71.5 28.5t-29.5 69.5q0 42 29.5 72t71.5 30q41 0 70.5 -29.5t29.5 -70.5t-29.5 -70.5t-70.5 -29.5zM662 0q-42 0 -71.5 28.5t-29.5 69.5q0 42 29.5 72.5t71.5 30.5q41 0 70.5 -30t29.5 -71t-29.5 -70.5t-70.5 -29.5z" />
    <glyph glyph-name="oslash" unicode="&#xf8;" horiz-adv-x="860" 
d="M926 1092l-119 -236q129 -97 129 -301q0 -72 -23 -153t-66 -156.5t-100 -137t-131 -98.5t-151 -37q-39 0 -86 13l-117 -234h-76l129 260q-61 37 -91.5 115.5t-30.5 161.5q0 71 22.5 152.5t65.5 159.5t98.5 141.5t128.5 102t149 38.5q33 0 86 -11l107 220h76zM356 98
l361 731q-18 9 -53 9q-60 0 -114.5 -51t-91.5 -128t-64.5 -166.5t-40.5 -167.5t-13 -130q0 -47 16 -97zM768 774l-362 -737q34 -19 57 -19q65 1 121.5 52.5t92.5 129t62 169t37.5 170.5t11.5 135q0 63 -20 100z" />
    <glyph glyph-name="ugrave" unicode="&#xf9;" horiz-adv-x="1146" 
d="M567 494l-86 -271q-28 -87 -28 -121q0 -32 20 -49.5t53 -17.5q38 0 79 26t74.5 64t66.5 87.5t54.5 89.5t37.5 77l166 493h151l-78 -258q-6 -20 -27.5 -94t-32 -113.5t-25.5 -102.5t-22 -114.5t-7 -95.5q0 -59 34 -59q31 0 73.5 53t72 111t39.5 94l45 -17
q-110 -303 -266 -303q-70 0 -107 44t-31 112q2 21 5.5 62.5t5.5 62.5l-5 4q-30 -50 -48.5 -78t-54.5 -73t-67.5 -70t-76 -44.5t-90.5 -19.5q-73 0 -123 48t-50 122q0 13 1 26.5t2 23t4 24.5t4.5 22t6.5 24.5t6.5 22t7.5 25t7 23.5l37 121q7 22 21.5 67t23 73.5t17.5 67.5
t12 70l1 11q2 10 2 15.5t0.5 16.5t-1 17t-4.5 13.5t-8 11t-13 3.5q-26 0 -61 -32.5t-68.5 -83t-55 -88t-38.5 -70.5l-43 20q22 45 40 79.5t50 82t63 78.5t73.5 53.5t85.5 22.5q57 0 90.5 -46.5t33.5 -105.5q0 -84 -49 -237zM1022 1071h-57l-236 148q-1 1 -10 6t-11.5 7
t-10.5 7.5t-11.5 8.5t-10 8.5t-9.5 10.5t-6.5 11t-5 12t-1.5 13q0 27 19.5 49t46.5 22q15 0 31 -8t32.5 -23t27.5 -27t27.5 -31.5t20.5 -24.5z" />
    <glyph glyph-name="uacute" unicode="&#xfa;" horiz-adv-x="1146" 
d="M567 494l-86 -271q-28 -87 -28 -121q0 -32 20 -49.5t53 -17.5q38 0 79 26t74.5 64t66.5 87.5t54.5 89.5t37.5 77l166 493h151l-78 -258q-6 -20 -27.5 -94t-32 -113.5t-25.5 -102.5t-22 -114.5t-7 -95.5q0 -59 34 -59q31 0 73.5 53t72 111t39.5 94l45 -17
q-110 -303 -266 -303q-70 0 -107 44t-31 112q2 21 5.5 62.5t5.5 62.5l-5 4q-30 -50 -48.5 -78t-54.5 -73t-67.5 -70t-76 -44.5t-90.5 -19.5q-73 0 -123 48t-50 122q0 13 1 26.5t2 23t4 24.5t4.5 22t6.5 24.5t6.5 22t7.5 25t7 23.5l37 121q7 22 21.5 67t23 73.5t17.5 67.5
t12 70l1 11q2 10 2 15.5t0.5 16.5t-1 17t-4.5 13.5t-8 11t-13 3.5q-26 0 -61 -32.5t-68.5 -83t-55 -88t-38.5 -70.5l-43 20q22 45 40 79.5t50 82t63 78.5t73.5 53.5t85.5 22.5q57 0 90.5 -46.5t33.5 -105.5q0 -84 -49 -237zM707 1069l219 201q60 60 91 77q25 13 46 13
q25 0 44 -19.5t19 -44.5q0 -15 -7 -28.5t-15 -22.5t-24.5 -20.5t-25.5 -16l-29 -14.5l-24 -12l-227 -113h-67z" />
    <glyph glyph-name="ucircumflex" unicode="&#xfb;" horiz-adv-x="1146" 
d="M567 494l-86 -271q-28 -87 -28 -121q0 -32 20 -49.5t53 -17.5q38 0 79 26t74.5 64t66.5 87.5t54.5 89.5t37.5 77l166 493h151l-78 -258q-6 -20 -27.5 -94t-32 -113.5t-25.5 -102.5t-22 -114.5t-7 -95.5q0 -59 34 -59q31 0 73.5 53t72 111t39.5 94l45 -17
q-110 -303 -266 -303q-70 0 -107 44t-31 112q2 21 5.5 62.5t5.5 62.5l-5 4q-30 -50 -48.5 -78t-54.5 -73t-67.5 -70t-76 -44.5t-90.5 -19.5q-73 0 -123 48t-50 122q0 13 1 26.5t2 23t4 24.5t4.5 22t6.5 24.5t6.5 22t7.5 25t7 23.5l37 121q7 22 21.5 67t23 73.5t17.5 67.5
t12 70l1 11q2 10 2 15.5t0.5 16.5t-1 17t-4.5 13.5t-8 11t-13 3.5q-26 0 -61 -32.5t-68.5 -83t-55 -88t-38.5 -70.5l-43 20q22 45 40 79.5t50 82t63 78.5t73.5 53.5t85.5 22.5q57 0 90.5 -46.5t33.5 -105.5q0 -84 -49 -237zM926 1378l159 -291h-51l-170 168l-260 -168h-76
l295 291h103z" />
    <glyph glyph-name="udieresis" unicode="&#xfc;" horiz-adv-x="1146" 
d="M567 494l-86 -271q-28 -87 -28 -121q0 -32 20 -49.5t53 -17.5q38 0 79 26t74.5 64t66.5 87.5t54.5 89.5t37.5 77l166 493h151l-78 -258q-6 -20 -27.5 -94t-32 -113.5t-25.5 -102.5t-22 -114.5t-7 -95.5q0 -59 34 -59q31 0 73.5 53t72 111t39.5 94l45 -17
q-110 -303 -266 -303q-70 0 -107 44t-31 112q2 21 5.5 62.5t5.5 62.5l-5 4q-30 -50 -48.5 -78t-54.5 -73t-67.5 -70t-76 -44.5t-90.5 -19.5q-73 0 -123 48t-50 122q0 13 1 26.5t2 23t4 24.5t4.5 22t6.5 24.5t6.5 22t7.5 25t7 23.5l37 121q7 22 21.5 67t23 73.5t17.5 67.5
t12 70l1 11q2 10 2 15.5t0.5 16.5t-1 17t-4.5 13.5t-8 11t-13 3.5q-26 0 -61 -32.5t-68.5 -83t-55 -88t-38.5 -70.5l-43 20q22 45 40 79.5t50 82t63 78.5t73.5 53.5t85.5 22.5q57 0 90.5 -46.5t33.5 -105.5q0 -84 -49 -237zM666 1120q-41 0 -71 29t-30 70q0 42 29.5 72
t71.5 30q41 0 70.5 -29.5t29.5 -70.5t-29.5 -71t-70.5 -30zM1001 1120q-41 0 -70.5 29t-29.5 70q0 42 29 72t71 30q41 0 71 -29.5t30 -70.5t-30 -71t-71 -30z" />
    <glyph glyph-name="yacute" unicode="&#xfd;" horiz-adv-x="778" 
d="M203 582q1 -13 2 -39.5t2 -40.5h-45q-1 15 -2 44.5t-2 45.5q0 38 8 84t24.5 94.5t49 80.5t75.5 32q37 0 73 -35.5t63.5 -91t44.5 -100.5t28 -85q61 -208 72 -512h4q64 124 108 259.5t44 248.5q0 56 -15 99t-33.5 63.5t-33.5 44t-15 45.5q0 27 19.5 45.5t46.5 18.5
q22 0 39 -9.5t26.5 -29.5t15.5 -37t8 -46t2.5 -42t0.5 -39q0 -183 -64 -383t-167 -373q-41 -69 -94.5 -142t-125.5 -153t-153 -131t-152 -51q-32 0 -57 16t-25 41q0 81 119 76q83 -3 129 11t103 63q139 145 139 330q0 101 -21 250.5t-49 248.5q-8 33 -27.5 91.5t-51 122
t-54.5 63.5q-31 0 -45 -65.5t-14 -112.5zM522 1069l219 201q28 28 41.5 40.5t43.5 31t53 18.5q25 0 44 -19.5t19 -44.5q0 -15 -7 -28.5t-15 -22.5t-24.5 -20.5t-25.5 -16l-29 -14.5l-24 -12l-227 -113h-68z" />
    <glyph glyph-name="thorn" unicode="&#xfe;" horiz-adv-x="983" 
d="M756 1364l-199 -680l4 -4q26 39 42 61t44 53.5t53.5 47.5t61.5 28.5t76 12.5q105 0 166 -76.5t61 -183.5q0 -97 -40 -210t-106.5 -211t-164.5 -163.5t-203 -65.5q-50 0 -95.5 31t-60.5 78h-4l-76 -277q-2 -6 -14.5 -51t-21 -78t-17 -71t-8.5 -54q0 -14 5 -25.5t16 -18
t20.5 -11.5t27 -7t25.5 -3t25.5 -1.5t19.5 -0.5l-14 -45q-37 1 -109.5 4t-109.5 4q-34 -1 -100.5 -4t-100.5 -4l12 45q81 5 107 31q23 27 67 186l400 1434q2 6 8.5 30t11 43.5t4.5 30.5q0 21 -11.5 34t-34 18t-36.5 6t-38 1h-7l13 45zM811 838q-73 0 -145 -82t-120.5 -195
t-79 -224.5t-30.5 -178.5q0 -51 27.5 -95.5t75.5 -44.5q59 0 118.5 54.5t105 137t81.5 176.5t55 178t19 136q0 51 -29 94.5t-78 43.5z" />
    <glyph glyph-name="ydieresis" unicode="&#xff;" horiz-adv-x="778" 
d="M203 582q1 -13 2 -39.5t2 -40.5h-45q-1 15 -2 44.5t-2 45.5q0 38 8 84t24.5 94.5t49 80.5t75.5 32q37 0 73 -35.5t63.5 -91t44.5 -100.5t28 -85q61 -208 72 -512h4q64 124 108 259.5t44 248.5q0 56 -15 99t-33.5 63.5t-33.5 44t-15 45.5q0 27 19.5 45.5t46.5 18.5
q22 0 39 -9.5t26.5 -29.5t15.5 -37t8 -46t2.5 -42t0.5 -39q0 -183 -64 -383t-167 -373q-41 -69 -94.5 -142t-125.5 -153t-153 -131t-152 -51q-32 0 -57 16t-25 41q0 81 119 76q83 -3 129 11t103 63q139 145 139 330q0 101 -21 250.5t-49 248.5q-8 33 -27.5 91.5t-51 122
t-54.5 63.5q-31 0 -45 -65.5t-14 -112.5zM481 1120q-41 0 -70.5 29t-29.5 70q0 42 29 72t71 30q41 0 71 -29.5t30 -70.5t-30 -71t-71 -30zM817 1120q-41 0 -70.5 29t-29.5 70q0 42 29 72t71 30q41 0 71 -29.5t30 -70.5t-30 -71t-71 -30z" />
    <glyph glyph-name="dotlessi" unicode="&#x131;" horiz-adv-x="573" 
d="M319 397l58 138q0 1 14 38t21 57.5t18.5 54.5t17 57.5t5.5 37.5q0 16 -9.5 28.5t-25.5 12.5q-29 0 -72 -47t-72 -92.5t-49 -83.5l-41 23q68 115 98 154q86 108 177 108q56 0 91.5 -41.5t35.5 -98.5q0 -28 -6 -59.5t-18.5 -68.5t-22 -61.5t-27 -67t-23.5 -56.5l-65 -166
q-1 -3 -20 -53t-30.5 -87t-11.5 -54q0 -13 9 -24t22 -11q36 0 84.5 51t81.5 102t53 93l41 -21q-18 -37 -37.5 -71t-49 -75t-59.5 -71t-68.5 -50t-76.5 -20q-61 0 -97 43t-36 105q0 30 10.5 71t20.5 66.5t32.5 76.5t26.5 62z" />
    <glyph glyph-name="Lslash" unicode="&#x141;" horiz-adv-x="1228" 
d="M1305 340l-93 -344q-146 1 -437 4t-437 4q-45 -1 -136 -4t-136 -4l12 45q122 -5 160.5 34.5t73.5 164.5q2 6 3 10l95 344l-191 -86l23 86l190 88l107 395q1 5 9.5 33.5t14 47t10.5 42t5 35.5q0 13 -4.5 24t-13 18.5t-18 13t-24 8.5t-25.5 5t-27.5 2.5t-25.5 1t-24 0
t-19 -0.5l13 45q45 -1 134 -4.5t134 -4.5q52 1 155.5 4.5t155.5 4.5l-12 -45q-135 0 -174 -54q-29 -36 -86 -237l-66 -248l330 147l-25 -88l-329 -145l-101 -373q-30 -113 -30 -162q0 -27 10.5 -47t32 -31.5t42.5 -18.5t52.5 -9t51.5 -2t50 1t39 1q85 0 142 6.5t111 24
t92.5 51t73.5 86.5t67 131h45z" />
    <glyph glyph-name="lslash" unicode="&#x142;" horiz-adv-x="532" 
d="M721 1364l-164 -522l213 112l-31 -98l-213 -111l-49 -157q-3 -9 -20.5 -67t-27.5 -89.5t-26 -90t-25 -97.5t-16.5 -81.5t-7.5 -68.5q0 -59 39 -59q31 0 78 53.5t80.5 110t50.5 94.5l47 -23q-67 -129 -106 -179q-89 -118 -193 -118q-69 0 -106 45.5t-37 116.5q0 85 78 328
l65 211l-200 -109l28 92l195 109l121 383q20 67 20 84q0 21 -10 34.5t-29.5 19t-34.5 8t-40.5 2.5t-32.5 1l12 45z" />
    <glyph glyph-name="OE" unicode="&#x152;" horiz-adv-x="2048" 
d="M1163 395l127 479q53 207 53 279q0 48 -17.5 80t-50.5 47.5t-67.5 21t-81.5 5.5q-106 0 -200.5 -38.5t-165.5 -104.5t-128.5 -152t-94 -184t-55.5 -198.5t-19 -195.5q0 -184 98.5 -288.5t280.5 -104.5q47 0 85 8.5t65.5 22t50 37.5t37.5 48t28.5 60.5t23 67.5t22.5 77z
M2163 1352l30 -318h-43q-34 89 -64 139t-77.5 82t-106.5 42t-157 10h-148l-143 -564h158q35 0 63 6.5t50.5 23t38 31.5t32.5 45.5t26.5 49.5t26.5 59h39l-100 -514h-41q4 116 -6 157q-22 97 -123 97h-178l-105 -391q-2 -8 -8.5 -33.5t-10.5 -41t-7.5 -37.5t-3.5 -37
q0 -18 6 -33.5t20.5 -26.5t27 -19.5t37 -14.5t38 -9.5t42.5 -6.5t38 -3.5t37 -2.5l28 -1q78 -4 136.5 6t102 30t82.5 62t68.5 87.5t69.5 121.5h47l-94 -352q-149 1 -428.5 4t-401.5 4q-69 -1 -180 -4t-154 -4q-95 -1 -178.5 15t-156 52.5t-124 92t-81 137t-29.5 182.5
q0 172 59 333t172 286q128 141 278 199.5t353 58.5q57 -1 172 -4.5t172 -4.5q116 1 349 4.5t350 4.5z" />
    <glyph glyph-name="oe" unicode="&#x153;" horiz-adv-x="1269" 
d="M672 838q-63 0 -119.5 -50t-95 -126t-67.5 -164.5t-42.5 -166.5t-13.5 -132q0 -76 31.5 -128.5t103.5 -52.5q65 0 122.5 52t95.5 130t66.5 169t41 169.5t12.5 131.5q0 72 -33 120t-102 48zM907 383q75 25 158 84.5t146 144t63 160.5q0 31 -21.5 48.5t-54.5 17.5
q-47 0 -91 -36t-74.5 -86t-57.5 -118.5t-41.5 -117t-26.5 -97.5zM459 -27q-86 0 -149.5 46t-93.5 117.5t-30 156.5q0 76 23.5 158.5t68 159t102.5 138t134.5 98t157.5 36.5q85 0 142 -37t101 -113q80 69 155 109.5t159 40.5q65 0 111 -37.5t46 -102.5q0 -60 -36 -118.5
t-89.5 -103t-124 -84.5t-130 -65t-117.5 -44q-31 -98 -31 -176q0 -53 25.5 -93.5t74.5 -40.5q31 0 63.5 13.5t56 29.5t54.5 49.5t45.5 51t44 57t35.5 47.5l39 -28q-35 -48 -56 -75t-60 -69t-72 -64t-78.5 -39.5t-93.5 -17.5q-84 0 -141 43.5t-76 124.5q-108 -168 -260 -168z
" />
    <glyph glyph-name="Scaron" unicode="&#x160;" horiz-adv-x="983" 
d="M1051 1251l61 74h27l-74 -348h-35q-5 159 -71.5 253.5t-204.5 94.5q-92 0 -155.5 -58t-63.5 -149q0 -56 26.5 -109.5t68.5 -98.5t93 -91t102.5 -95.5t93.5 -102.5t68.5 -122t26.5 -145q0 -169 -118 -275t-290 -106q-102 0 -206 40.5t-173 111.5l-65 -84h-27l68 381h41
q6 -87 25 -155t55.5 -126.5t101 -90.5t154.5 -32q108 0 178.5 74.5t70.5 183.5q0 63 -26 121.5t-67 105.5t-91 93.5t-100.5 94t-91.5 98t-67 115.5t-26 136q0 151 108 240.5t261 89.5q176 0 322 -119zM758 1554l-158 293h51l170 -170l258 170h78l-295 -293h-104z" />
    <glyph glyph-name="scaron" unicode="&#x161;" horiz-adv-x="696" 
d="M305 641q0 113 83 177.5t200 64.5q43 0 85.5 -11.5t77.5 -42t35 -75.5q0 -24 -14 -39t-37 -15q-28 0 -40.5 14t-14.5 34.5t-6 41t-24 34.5t-60 14q-55 0 -96 -35t-41 -90q0 -39 24 -83.5t58.5 -87t69 -87.5t59.5 -101t26 -112q3 -127 -88.5 -198t-224.5 -71
q-41 0 -81.5 9t-79.5 27t-63 52t-24 78q0 76 53 76q25 0 43.5 -17.5t18.5 -43.5q0 -9 -3 -28t-3 -28q0 -41 40.5 -60.5t86.5 -19.5q76 0 127 40.5t51 113.5q0 39 -24.5 85.5t-59.5 91.5t-70 91t-59.5 99t-24.5 102zM614 1087l-157 293h51l170 -170l258 170h78l-295 -293
h-105z" />
    <glyph glyph-name="Ydieresis" unicode="&#x178;" horiz-adv-x="1187" 
d="M547 250l96 362l-149 506q-28 108 -52 142q-15 21 -40.5 31.5t-41.5 12.5t-53 3l12 45q41 -1 123 -4.5t123 -4.5q43 1 129 4.5t129 4.5l-12 -45q-2 0 -23.5 -0.5t-28.5 -1.5t-26.5 -3t-27.5 -7t-20 -12t-16.5 -19t-4.5 -27q0 -26 8 -57l149 -518q1 1 134 153t215.5 262.5
t82.5 155.5q0 12 -3 22.5t-10.5 17.5t-14 12.5t-19 9t-20 6t-23 3.5t-21.5 1.5t-21.5 1t-18.5 0.5l12 45q33 -1 97.5 -4.5t97.5 -4.5q35 1 103.5 4.5t103.5 4.5l-13 -45q-21 1 -41.5 -5.5t-34.5 -15t-34 -28.5t-28 -29t-28 -35t-24 -31l-479 -581l-99 -369q-20 -74 -20 -100
q0 -17 6 -30t17 -20.5t25.5 -12.5t30.5 -6.5t33.5 -2t34.5 0t33 -0.5l-10 -45q-52 1 -157 4t-157 4q-45 -1 -135 -4t-135 -4l10 45q66 -3 105 5t64.5 41t35.5 59t29 98q1 4 2 6zM768 1587q-41 0 -70.5 29t-29.5 70q0 42 29 72t71 30q41 0 70.5 -29.5t29.5 -70.5t-29.5 -71
t-70.5 -30zM1104 1587q-41 0 -70.5 29t-29.5 70q0 42 29 72t71 30q41 0 70.5 -29.5t29.5 -70.5t-29.5 -71t-70.5 -30z" />
    <glyph glyph-name="Zcaron" unicode="&#x17d;" horiz-adv-x="1146" 
d="M1384 1352l-956 -1311h240q67 0 112.5 2t96 9t86 20.5t74 35t70 53.5t63.5 76t63 103h41q-21 -58 -65 -172.5t-66 -171.5q-142 1 -424.5 4t-423.5 4q-23 -1 -69 -4t-68 -4l948 1311h-178q-79 0 -135 -6.5t-107.5 -23t-94 -48t-84 -77t-87.5 -114.5h-41l125 314
q122 -1 366.5 -4.5t366.5 -4.5q25 1 74 4.5t73 4.5zM840 1554l-158 293h51l170 -170l258 170h78l-295 -293h-104z" />
    <glyph glyph-name="zcaron" unicode="&#x17e;" horiz-adv-x="737" 
d="M614 750q18 0 32 6t24 20.5t15.5 25t14.5 32.5q1 2 3 7l3 7.5t3 7t3.5 7t4 6.5t5.5 6t6.5 4t7.5 3t9 1q14 0 23.5 -8t9.5 -21q0 -23 -43 -80l-461 -608q98 16 144 16q56 0 141 -20q8 -1 24 -4.5t29 -5.5t25 -2q55 0 85.5 29t33.5 83q0 31 12 31q20 0 29.5 -36.5
t9.5 -63.5q0 -95 -51.5 -157.5t-145.5 -62.5q-51 0 -93 18t-93 52q-4 3 -24 17t-25.5 17.5t-21.5 13t-25 12.5t-22 6.5t-25 3.5q-75 0 -101 -82q-13 -42 -27 -51q-9 -7 -22 -7q-14 0 -23.5 8.5t-9.5 20.5q0 15 7 33t21 38.5t24.5 34.5t28.5 35.5t22 26.5l417 541l-4 4
q-94 -25 -149 -25q-28 0 -78 10.5t-74 10.5q-35 0 -53 -30t-16 -67q6 -28 -11 -28q-19 0 -29.5 38t-10.5 62q0 74 56 127t132 53q39 0 74.5 -18t57.5 -40t49 -40t52 -18zM553 1087l-158 293h51l170 -170l258 170h78l-295 -293h-104z" />
    <glyph glyph-name="florin" unicode="&#x192;" 
d="M842 954h223l-23 -65h-211l-83 -469q-10 -59 -17.5 -98t-23 -107.5t-30.5 -117t-38.5 -113t-49 -109.5t-61.5 -93t-75.5 -77t-90.5 -48t-108 -19q-66 0 -118 27t-52 85q0 39 24.5 66.5t63.5 27.5q30 0 49 -15t28 -36t16.5 -42.5t22 -36.5t38.5 -15q34 0 65 29.5t47 60
t29 66.5q46 122 84 374l102 660h-192l22 65h181q22 79 34.5 121.5t38.5 108.5t54 112q60 97 151.5 152t202.5 55q57 0 104 -28t47 -82q0 -37 -22.5 -63.5t-59.5 -26.5q-33 0 -57.5 21.5t-36 48t-28.5 48t-37 21.5q-37 0 -68 -29.5t-51 -72t-37 -102.5t-25.5 -108t-18 -102.5
t-13.5 -73.5z" />
    <glyph glyph-name="circumflex" unicode="&#x2c6;" horiz-adv-x="819" 
d="M844 1378l160 -291h-52l-170 168l-260 -168h-76l295 291h103z" />
    <glyph glyph-name="caron" unicode="&#x2c7;" horiz-adv-x="819" 
d="M676 1087l-158 293h51l170 -170l258 170h78l-295 -293h-104z" />
    <glyph glyph-name="uni02C9" unicode="&#x2c9;" horiz-adv-x="819" 
d="M1032 1196h-534v70h534v-70z" />
    <glyph glyph-name="breve" unicode="&#x2d8;" horiz-adv-x="860" 
d="M1055 1337h57q-66 -100 -174 -176t-211 -76q-113 0 -162.5 68.5t-46.5 183.5h47q1 -40 17.5 -67.5t46 -40.5t60 -18t69.5 -5q156 0 297 131z" />
    <glyph glyph-name="dotaccent" unicode="&#x2d9;" horiz-adv-x="450" 
d="M584 1120q-41 0 -71 29t-30 70q0 42 29.5 72t71.5 30q41 0 70.5 -29.5t29.5 -70.5t-29.5 -71t-70.5 -30z" />
    <glyph glyph-name="ring" unicode="&#x2da;" horiz-adv-x="696" 
d="M684 969q-87 0 -150 60t-63 147q0 89 63 151t152 62t150 -62.5t61 -150.5q0 -87 -63 -147t-150 -60zM684 1036q57 0 98 41.5t41 98.5q0 61 -39 103t-100 42q-59 0 -99 -43t-40 -102q0 -57 40.5 -98.5t98.5 -41.5z" />
    <glyph glyph-name="ogonek" unicode="&#x2db;" horiz-adv-x="614" 
d="M406 -162l32 -51q-43 -47 -109.5 -80t-125.5 -33q-49 0 -91 24.5t-42 70.5q0 152 346 231l-86 -49q-1 -1 -16 -9.5t-19.5 -11.5t-19 -12t-20 -14.5t-17.5 -15t-17 -17t-12 -17t-9.5 -19t-2.5 -19.5q0 -25 16 -41.5t41 -16.5q57 0 152 80z" />
    <glyph glyph-name="tilde" unicode="&#x2dc;" horiz-adv-x="819" 
d="M987 1280l47 -6q-10 -64 -57.5 -118t-108.5 -54q-43 0 -96.5 21.5t-99.5 43t-72 21.5q-23 0 -41.5 -11.5t-28 -24t-24.5 -36.5l-49 6q26 74 75 121t121 47q46 0 136 -41t114 -41q53 0 84 72z" />
    <glyph glyph-name="hungarumlaut" unicode="&#x2dd;" horiz-adv-x="901" 
d="M440 1069l219 201q28 28 41.5 40.5t43.5 31t53 18.5q25 0 44 -19.5t19 -44.5q0 -15 -7 -28.5t-15 -22.5t-24.5 -20.5t-25.5 -16l-29 -14.5l-24 -12l-227 -113h-68zM737 1069l217 201q1 1 15.5 15t19.5 18t18.5 16t21.5 16.5t20 11.5t22.5 10t20.5 3q25 0 44 -19.5
t19 -44.5q0 -13 -4 -24t-13.5 -21.5t-16.5 -17.5t-23 -16t-22 -12.5t-25 -12.5t-21 -10l-227 -113h-66z" />
    <glyph glyph-name="uni03A9" unicode="&#x3a9;" horiz-adv-x="1392" 
d="M1399 258l-121 -258h-440v35q19 23 72 84t88.5 102.5t88 111t88.5 127.5t72 133t56 146q35 122 40 220.5t-14 163.5t-58.5 108.5t-90 62.5t-111.5 19q-174 0 -324.5 -143t-236.5 -441q-12 -42 -19.5 -85t-11.5 -78.5t-2.5 -79.5t2.5 -72t9.5 -73t12 -65.5t16.5 -67
t16.5 -59.5t18.5 -60t17 -54l-24 -35h-437l31 258l43 4q1 -94 23 -122.5t80 -28.5h209q-33 40 -57.5 76t-54 99t-43.5 126t-12.5 150.5t27.5 178.5q82 281 290 453t445 172q243 0 349 -164t26 -444q-23 -81 -68 -163t-93.5 -145.5t-115.5 -131.5t-117 -111.5t-114 -95.5h213
q63 0 95.5 25.5t91.5 125.5z" />
    <glyph glyph-name="uni03BC" unicode="&#x3bc;" horiz-adv-x="1146" 
d="M567 494l-86 -271q-28 -87 -28 -121q0 -32 20 -49.5t53 -17.5q38 0 79 26t74.5 64t66.5 87.5t54.5 89.5t37.5 77l166 493h151l-78 -258q-6 -20 -27.5 -94t-32 -113.5t-25.5 -102.5t-22 -114.5t-7 -95.5q0 -59 34 -59q31 0 73.5 53t72 111t39.5 94l45 -17
q-110 -303 -266 -303q-70 0 -107 44t-31 112q2 21 5.5 62.5t5.5 62.5l-5 4q-30 -50 -48.5 -78t-54.5 -73t-67.5 -70t-76 -44.5t-90.5 -19.5q-50 0 -86 25l-48 -270q-1 -4 -5.5 -36t-7 -46t-9.5 -43.5t-16 -45t-22 -34t-31.5 -27t-41.5 -8.5q-40 0 -63.5 25t-14.5 61
q153 570 211 760l37 121q7 22 21.5 67t23 73.5t17.5 67.5t12 70l1 11q2 10 2 15.5t0.5 16.5t-1 17t-4.5 13.5t-8 11t-13 3.5q-26 0 -61 -32.5t-68.5 -83t-55 -88t-38.5 -70.5l-43 20q22 45 40 79.5t50 82t63 78.5t73.5 53.5t85.5 22.5q57 0 90.5 -46.5t33.5 -105.5
q0 -84 -49 -237z" />
    <glyph glyph-name="pi" unicode="&#x3c0;" horiz-adv-x="1071" 
d="M1233 920l37 -19q-42 -84 -111 -153q-36 -7 -135 -7q-40 -105 -147 -485q-27 -86 -20 -133t54 -47q31 0 56 14t63 49l17 -35q-105 -127 -226 -127q-38 0 -62.5 11t-39 37.5t-11.5 75.5t23 120q57 201 172 524q-292 5 -321 5l-13 -41q-44 -156 -98 -291t-100 -217
t-79 -129t-50 -62q-71 -30 -115 -33l-2 29q69 62 134 159.5t114.5 205t84.5 201t60 180.5q-62 1 -116 -14t-80 -30t-82 -51l-15 39q2 1 28 23.5t33.5 28.5t35 26.5t43 28t45 22t54 20t58 10.5t68.5 5q33 0 111.5 -1t123.5 -1q172 -4 275 -4q44 0 70.5 13t62.5 53z" />
    <glyph glyph-name="endash" unicode="&#x2013;" horiz-adv-x="1024" 
d="M133 502h1024l-16 -109h-1024z" />
    <glyph glyph-name="emdash" unicode="&#x2014;" horiz-adv-x="2048" 
d="M133 502h2048l-16 -109h-2048z" />
    <glyph glyph-name="quoteleft" unicode="&#x2018;" horiz-adv-x="491" 
d="M696 1384l21 -45q-61 -26 -134 -102t-73 -129q0 -11 4 -23q30 19 53 19q41 0 71 -30t30 -73q0 -47 -32.5 -77.5t-80.5 -30.5q-61 0 -98 49t-37 113q0 57 24 107.5t69 92t85.5 69.5t97.5 60z" />
    <glyph glyph-name="quoteright" unicode="&#x2019;" horiz-adv-x="491" 
d="M451 893l-21 45q61 26 134 102t73 129q0 11 -4 23q-29 -18 -53 -18q-42 0 -71.5 30t-29.5 72q0 47 32.5 77.5t80.5 30.5q61 0 98 -48.5t37 -112.5q0 -46 -17.5 -89t-43 -75.5t-65 -65.5t-73 -54t-77.5 -46z" />
    <glyph glyph-name="quotesinglbase" unicode="&#x201a;" horiz-adv-x="491" 
d="M115 -307l-21 45q61 26 134 102t73 129q0 11 -4 23q-23 -12 -25 -12q-14 -7 -28 -7q-41 0 -71 30t-30 73q0 47 32.5 77.5t80.5 30.5q61 0 98 -48.5t37 -112.5q0 -46 -17.5 -89t-43 -75.5t-65 -65.5t-73 -54t-77.5 -46z" />
    <glyph glyph-name="quotedblleft" unicode="&#x201c;" horiz-adv-x="860" 
d="M696 1384l21 -45q-61 -26 -134 -102t-73 -129q0 -11 4 -23q30 19 53 19q41 0 71 -30t30 -73q0 -47 -32.5 -77.5t-80.5 -30.5q-61 0 -98 49t-37 113q0 57 24 107.5t69 92t85.5 69.5t97.5 60zM1032 1384l21 -45q-61 -26 -134 -102t-73 -129q0 -11 4 -23q30 19 53 19
q41 0 71 -30t30 -73q0 -47 -32.5 -77.5t-80.5 -30.5q-61 0 -98 49t-37 113q0 57 24 107.5t69 92t85.5 69.5t97.5 60z" />
    <glyph glyph-name="quotedblright" unicode="&#x201d;" horiz-adv-x="860" 
d="M786 893l-20 45q61 26 134 102t73 129q0 11 -4 23q-29 -18 -54 -18q-41 0 -70.5 29.5t-29.5 72.5q0 47 32.5 77.5t80.5 30.5q61 0 98 -48.5t37 -112.5q0 -46 -17.5 -89.5t-43 -75.5t-65.5 -65t-73.5 -54t-77.5 -46zM451 893l-21 45q61 26 134 102t73 129q0 11 -4 23
q-29 -18 -53 -18q-42 0 -71.5 30t-29.5 72q0 47 32.5 77.5t80.5 30.5q61 0 98 -48.5t37 -112.5q0 -46 -17.5 -89t-43 -75.5t-65 -65.5t-73 -54t-77.5 -46z" />
    <glyph glyph-name="quotedblbase" unicode="&#x201e;" horiz-adv-x="860" 
d="M451 -307l-21 45q61 26 134 102t73 129q0 11 -4 23q-23 -12 -25 -12q-14 -7 -28 -7q-41 0 -71 30t-30 73q0 47 32.5 77.5t80.5 30.5q61 0 98 -48.5t37 -112.5q0 -46 -17.5 -89t-43 -75.5t-65 -65.5t-73 -54t-77.5 -46zM115 -307l-21 45q61 26 134 102t73 129q0 11 -4 23
q-23 -12 -25 -12q-14 -7 -28 -7q-41 0 -71 30t-30 73q0 47 32.5 77.5t80.5 30.5q61 0 98 -48.5t37 -112.5q0 -46 -17.5 -89t-43 -75.5t-65 -65.5t-73 -54t-77.5 -46z" />
    <glyph glyph-name="dagger" unicode="&#x2020;" horiz-adv-x="1024" 
d="M535 -283h-52q8 40 36 169t43 205t29.5 185.5t14.5 188.5q0 16 -1 33t-2.5 38t-2.5 33q99 130 131 322q-10 1 -19.5 1t-19 -1t-17 -2t-18 -3.5t-16.5 -4.5t-17.5 -6t-17 -6t-18.5 -7.5t-19 -7.5t-22.5 -9t-25.5 -10.5t-22.5 -6.5t-25.5 -3q-39 0 -65.5 25t-26.5 63
t25.5 63t62.5 25q13 0 23.5 -2t15 -3.5t18 -7t19.5 -7.5q61 -26 104 -36t96 -9q25 98 25 170q0 26 -8 75t-8 74q0 50 22.5 82.5t71.5 32.5q38 0 63 -25t25 -65q0 -23 -9 -47t-17.5 -38t-26.5 -40q-61 -94 -82 -219q59 -1 96 7.5t104 35.5q54 18 72 18q38 0 63 -26t25 -64
q0 -36 -27 -61t-63 -25q-33 0 -76 19q-118 51 -209 51q-20 -92 -20 -162q0 -88 33 -182q-44 -72 -79 -152t-62 -172.5t-44 -160.5t-41.5 -179t-37.5 -166z" />
    <glyph glyph-name="daggerdbl" unicode="&#x2021;" horiz-adv-x="1024" 
d="M709 887l-37 2q-11 0 -20.5 -0.5t-18.5 -2.5t-15 -3t-16 -4.5t-14.5 -5.5t-17.5 -7.5t-19 -7.5t-25 -10t-27 -10.5t-23 -5.5t-30 -3q-38 0 -63 22.5t-25 59.5q0 35 24 59.5t58 24.5q37 0 111 -28q54 -21 85.5 -26.5t86.5 -4.5q2 12 7.5 36t9 38.5t6 35.5t2.5 39
q0 29 -9.5 84t-9.5 84q0 45 24.5 81t67.5 36q39 0 62.5 -24.5t23.5 -63.5q0 -8 -1 -15.5t-2 -13.5t-3.5 -14t-4 -12.5t-6 -13t-6 -12t-7 -13t-7 -12t-8.5 -13t-8 -12.5q-60 -102 -78 -215q67 -2 160 29q4 1 25 9t29.5 10.5t24.5 5.5t29 3q35 0 58.5 -26t23.5 -62
q0 -34 -25 -59t-57 -25q-13 0 -27.5 3t-24 6.5t-26.5 10t-24 9.5q-54 22 -87.5 28.5t-92.5 8.5q-29 -92 -29 -178q0 -92 33 -168q-43 -43 -75 -107t-46 -111.5t-33 -127.5l37 -2q9 0 16.5 0.5t15 1.5t12.5 1.5t12.5 2.5t11 3t12.5 4.5t12 4.5t14 5.5t15 6.5q7 3 25 10
t26.5 10t23.5 6t29 3q38 0 63.5 -22.5t25.5 -59.5q0 -35 -24 -59.5t-58 -24.5q-12 0 -23 1.5t-25 5.5t-19.5 5.5t-23 8.5t-20.5 8q-53 20 -85 25.5t-87 4.5q-2 -12 -7.5 -36t-9 -38.5t-6 -35.5t-2.5 -39q0 -29 9.5 -84.5t9.5 -83.5q0 -45 -24.5 -81t-67.5 -36
q-39 0 -62.5 24.5t-23.5 63.5q0 8 1 15.5t2 13.5t3.5 14t4 12.5t6 13t6 12t7 13t7 12t8.5 13t8 12.5q60 102 78 215q-70 3 -160 -28q-6 -2 -25.5 -9t-29 -10t-25.5 -6.5t-29 -3.5q-35 0 -58 26t-23 62q0 34 24.5 59t56.5 25q13 0 28 -3t24.5 -6.5t27 -10.5t23.5 -9
q53 -21 86.5 -27.5t93.5 -8.5q31 128 31 192q0 75 -31 154q118 126 150 346z" />
    <glyph glyph-name="bullet" unicode="&#x2022;" 
d="M719 346q-141 0 -243.5 93.5t-102.5 232.5q0 149 99.5 247.5t246.5 98.5q142 0 233.5 -103.5t91.5 -246.5q0 -128 -97.5 -225t-227.5 -97z" />
    <glyph glyph-name="ellipsis" unicode="&#x2026;" horiz-adv-x="2048" 
d="M1708 -27q-46 0 -80.5 32t-34.5 79q0 49 33.5 81t81.5 32t78.5 -34t30.5 -81q0 -43 -33 -76t-76 -33zM1026 -27q-46 0 -80.5 32t-34.5 79q0 49 32.5 81t82.5 32q46 0 77.5 -34t31.5 -81q0 -43 -33 -76t-76 -33zM344 -27q-46 0 -80.5 32t-34.5 79q0 49 32.5 81t82.5 32
q46 0 77.5 -34t31.5 -81q0 -43 -33 -76t-76 -33z" />
    <glyph glyph-name="perthousand" unicode="&#x2030;" horiz-adv-x="2826" 
d="M1581 -37q72 0 133 48t98 119.5t57.5 148t20.5 141.5q0 86 -43.5 150.5t-126.5 64.5q-66 0 -124.5 -53t-95.5 -130t-58 -156.5t-21 -139.5q0 -76 43 -134.5t117 -58.5zM2384 -98q-135 0 -222 89t-87 224q0 84 31.5 170t85.5 155t133.5 112.5t166.5 43.5q125 0 196 -83.5
t71 -209.5q0 -82 -24.5 -168t-70 -161.5t-119 -123.5t-161.5 -48zM1577 -98q-135 0 -222 89t-87 224q0 114 53 224t151 183.5t214 73.5q125 0 195.5 -83t70.5 -210q0 -82 -24.5 -168t-70 -161.5t-119 -123.5t-161.5 -48zM2390 -37q72 0 133 48t97.5 119.5t56.5 148t20 141.5
q0 55 -16.5 102t-56 80t-95.5 31q-53 1 -102.5 -34t-84.5 -89.5t-61.5 -119.5t-39.5 -126t-13 -108q0 -76 44 -134.5t118 -58.5zM1733 1497l-979 -1647h-84l866 1463l-4 4q-50 -27 -78 -40.5t-73.5 -26.5t-88.5 -13q-16 0 -32 2t-34 6.5t-29.5 8t-33.5 11t-30 9.5
q22 -71 22 -141q0 -76 -26 -160.5t-71.5 -158.5t-117 -122.5t-152.5 -48.5q-138 0 -226.5 92.5t-88.5 231.5q0 80 32.5 164t86 152.5t131 112.5t160.5 44q54 0 96.5 -14.5t72 -35.5t59.5 -42t74.5 -35.5t102.5 -14.5q202 0 377 199h68zM786 705q72 0 133 47.5t97.5 119.5
t57 148t20.5 141q0 54 -16.5 101.5t-56 81.5t-95.5 34q-66 0 -124.5 -53.5t-95.5 -130.5t-58 -157t-21 -140q0 -76 42.5 -134t116.5 -58z" />
    <glyph glyph-name="guilsinglleft" unicode="&#x2039;" horiz-adv-x="655" 
d="M442 410l129 -244q11 -17 11 -27q0 -6 -4 -10t-9 -4q-6 0 -26 20l-226 269l324 260q1 1 12 10.5t22 17t15 7.5q6 0 10.5 -4.5t4.5 -10.5q0 -8 -39 -47z" />
    <glyph glyph-name="guilsinglright" unicode="&#x203a;" horiz-adv-x="655" 
d="M481 426l-129 242q-10 20 -10 28q0 5 4 9t10 4q14 0 25 -21l225 -268l-323 -258q-4 -6 -23.5 -21.5t-26.5 -15.5q-12 0 -12 14q0 10 37 47z" />
    <glyph glyph-name="fraction" unicode="&#x2044;" horiz-adv-x="245" 
d="M846 1370l-979 -1370h-84l979 1370h84z" />
    <glyph glyph-name="Euro" unicode="&#x20ac;" 
d="M950 614l-18 -65h-371q-26 -133 -26 -225q0 -58 4 -101t16 -84t32 -66.5t53 -41t79 -15.5q50 0 99.5 25.5t88 64t73.5 90t58 96.5t41 89h45l-108 -385h-23l-14 86q-58 -52 -123 -80.5t-160 -28.5q-157 0 -239 113.5t-82 316.5q0 64 10 146h-172l18 65h166q16 72 47 164
h-174l19 66h182q37 88 84 168q101 165 229 261.5t258 96.5q141 0 211 -96l58 63h22l-86 -364h-43q4 54 4 86q0 43 -6 83t-21.5 84.5t-49.5 71.5t-82 27q-89 0 -178 -91.5t-171 -264.5q-49 -120 -51 -125h367l-19 -66h-372q-31 -92 -47 -164h372z" />
    <glyph glyph-name="afii61289" unicode="&#x2113;" horiz-adv-x="763" 
d="M752 209l26 -29q-166 -203 -360 -203q-125 0 -164 76q-21 37 -18 102.5t36 178.5l50 172l-144 -92l-12 41l172 116l70 244q73 254 122.5 359t131.5 176q88 82 174 82q51 0 78.5 -35.5t27.5 -92t-18 -126.5q-32 -111 -104 -219.5t-153.5 -192t-191.5 -172.5l-55 -193
q-40 -129 -36.5 -202.5t32 -101t86.5 -27.5q118 0 250 139zM571 934l-73 -260q119 107 211.5 242.5t128.5 261.5q26 85 17 141.5t-54 56.5q-55 0 -108 -101.5t-122 -340.5z" />
    <glyph glyph-name="trademark" unicode="&#x2122;" horiz-adv-x="1638" 
d="M272 1174v169h598v-169h-45q0 78 -30.5 100t-110.5 22h-55v-561q0 -23 15.5 -35.5t33.5 -15.5t51 -4v-39h-315v39q34 1 52 4t33 15.5t15 35.5v561h-41q-39 0 -57 -1t-41.5 -7t-33.5 -19t-17 -36t-7 -59h-45zM1767 1272v-508q0 -54 15 -68.5t73 -15.5v-39h-290v39
q58 1 73 15.5t15 68.5v502h-15l-245 -625h-17l-250 625h-14v-531q0 -23 15 -35.5t33 -15.5t52 -4v-39h-249v39q34 1 52 4t33 15.5t15 35.5v543q0 5 -1 9t-4 7t-5.5 5t-7.5 3t-8.5 2t-10 1h-10.5h-11.5h-11.5v38h205l217 -518l207 518h223v-38q-43 0 -60.5 -5.5t-17.5 -27.5z
" />
    <glyph glyph-name="Omega" unicode="&#x2126;" horiz-adv-x="1392" 
d="M1399 258l-121 -258h-440v35q19 23 72 84t88.5 102.5t88 111t88.5 127.5t72 133t56 146q35 122 40 220.5t-14 163.5t-58.5 108.5t-90 62.5t-111.5 19q-174 0 -324.5 -143t-236.5 -441q-12 -42 -19.5 -85t-11.5 -78.5t-2.5 -79.5t2.5 -72t9.5 -73t12 -65.5t16.5 -67
t16.5 -59.5t18.5 -60t17 -54l-24 -35h-437l31 258l43 4q1 -94 23 -122.5t80 -28.5h209q-33 40 -57.5 76t-54 99t-43.5 126t-12.5 150.5t27.5 178.5q82 281 290 453t445 172q243 0 349 -164t26 -444q-23 -81 -68 -163t-93.5 -145.5t-115.5 -131.5t-117 -111.5t-114 -95.5h213
q63 0 95.5 25.5t91.5 125.5z" />
    <glyph glyph-name="estimated" unicode="&#x212e;" horiz-adv-x="2070" 
d="M2005 651h-1255q-11 0 -11 -8v-379q0 -25 17 -45q95 -97 217 -151t258 -54q147 0 276 61.5t224 168.5h110q-107 -124 -267.5 -196.5t-344.5 -72.5q-158 0 -301 55t-247 148.5t-165 222t-61 269.5q0 142 61 271t165 222t247 148t301 55t301.5 -55t247.5 -148t165.5 -222
t61.5 -271v-19zM1720 700v381q0 30 -20 47q-94 92 -215 144.5t-254 52.5q-134 0 -256 -54t-217 -149q-19 -19 -19 -49v-373q0 -3 3.5 -7.5t7.5 -4.5h962q8 0 8 12z" />
    <glyph glyph-name="partialdiff" unicode="&#x2202;" horiz-adv-x="1001" 
d="M737 838h2q73 0 136.5 -37.5t91.5 -108.5q49 134 71 205q51 166 37 313q-8 82 -63 145.5t-144 63.5q-133 0 -286 -104q-14 -2 -24.5 15t-10.5 42.5t14 44.5q149 82 289 82q129 0 201.5 -69.5t103.5 -204.5q40 -182 -37 -451q-88 -303 -233 -498q-219 -299 -465 -299
q-157 0 -220.5 105.5t-11.5 288.5q28 94 82.5 176.5t120.5 142.5q72 65 165 106.5t181 41.5zM752 766h-2q-135 0 -256 -115q-122 -131 -187 -348q-32 -112 1.5 -191t125.5 -79q140 0 293 205q63 83 105 163.5t98 212.5q-8 52 -55.5 102t-122.5 50z" />
    <glyph glyph-name="Delta" unicode="&#x2206;" horiz-adv-x="1200" 
d="M1128 0h-1062l10 39l870 1307l68 20l127 -1327zM983 80l-98 1073l-705 -1073h803z" />
    <glyph glyph-name="product" unicode="&#x220f;" horiz-adv-x="1669" 
d="M1616 1348v-45q-44 -3 -70 -6t-47 -9.5t-30.5 -13t-16 -21.5t-7.5 -29.5t-1 -41.5v-1168q0 -47 3.5 -69t22.5 -38.5t49.5 -22t92.5 -9.5v-45h-465v45q44 3 66 5t44 8.5t30 13.5t15 24t8 35.5t1 52.5v1215q0 39 -12.5 49t-53.5 10h-438q-41 0 -52.5 -9t-11.5 -42v-1223
v-37.5t2.5 -28.5t5.5 -23.5t11 -16t18 -13t27.5 -8.5t37.5 -7l50 -5v-45h-451v45q42 3 65.5 6t45 9.5t30 14t15.5 24t8.5 35t1.5 50.5v1168q0 41 -3.5 59.5t-23 33t-50.5 19t-97 9.5v45h1180z" />
    <glyph glyph-name="summation" unicode="&#x2211;" horiz-adv-x="1429" 
d="M1386 168l-79 -342h-867v41l437 694l-426 746v41h856q2 -31 24 -301l-47 -11q-19 131 -59 195q-19 35 -57 47t-142 12h-401l372 -643l-432 -700h512q47 0 71.5 1.5t52 10t41 21t32 41.5t32 64t33.5 95z" />
    <glyph glyph-name="minus" unicode="&#x2212;" 
d="M209 508h907v-109h-907v109z" />
    <glyph glyph-name="uni2215" unicode="&#x2215;" horiz-adv-x="245" 
d="M846 1370l-979 -1370h-84l979 1370h84z" />
    <glyph glyph-name="uni2219" unicode="&#x2219;" horiz-adv-x="532" 
d="M375 340q-47 0 -79 32t-32 79q0 45 33 78.5t78 33.5q48 0 80 -29.5t32 -76.5q0 -48 -30.5 -82.5t-81.5 -34.5z" />
    <glyph glyph-name="radical" unicode="&#x221a;" horiz-adv-x="1435" 
d="M1399 1739l-312 -2013l-34 -21l-420 1075l-166 -82l-18 58l276 133l338 -889h4l264 1755z" />
    <glyph glyph-name="infinity" unicode="&#x221e;" horiz-adv-x="1683" 
d="M1591 559v-2q0 -132 -84.5 -214.5t-199.5 -82.5q-85 0 -162.5 52.5t-177.5 170.5q-46 -53 -77.5 -85t-77.5 -68t-95 -53t-103 -17q-117 0 -198.5 84t-81.5 207q0 129 83.5 213t209.5 84q95 0 176.5 -59t169.5 -164q89 100 130 135q104 88 218 88q121 0 195.5 -80.5
t74.5 -208.5zM625 350h2q25 0 49 5.5t48 20t41.5 25.5t42.5 35.5t36 35.5t37.5 40.5t33.5 36.5q-83 101 -122 136q-87 77 -179 77q-86 0 -136 -61.5t-50 -151.5q0 -85 55 -142t142 -57zM1311 762h-2q-30 0 -61 -11t-55 -26.5t-52 -41t-45 -43.5t-41.5 -45.5t-34.5 -37.5
q104 -116 163.5 -161.5t129.5 -45.5q84 0 135 61.5t51 139.5q0 98 -52.5 154.5t-135.5 56.5z" />
    <glyph glyph-name="integral" unicode="&#x222b;" horiz-adv-x="1085" 
d="M700 45l-36 811q-9 189 1.5 332t34.5 229t63 139.5t81 73t94 19.5q37 0 70.5 -21.5t33.5 -58.5q0 -35 -20.5 -53.5t-50.5 -18.5q-19 0 -33 12t-21 26t-18.5 26t-26.5 12q-14 0 -27 -8.5t-26.5 -32t-22.5 -60t-13 -97.5t-1 -140l35 -758q9 -153 3.5 -272.5t-15.5 -209
t-32 -153.5t-45.5 -105.5t-55.5 -66t-62.5 -34t-66.5 -9.5q-48 0 -77.5 24.5t-29.5 59.5q-1 32 23.5 54t60.5 22q21 0 35 -20t27 -40t30 -20q46 0 70.5 93.5t17.5 244.5z" />
    <glyph glyph-name="approxequal" unicode="&#x2248;" horiz-adv-x="1271" 
d="M1128 821l60 -51q-89 -178 -240 -178q-52 0 -95.5 17.5t-119.5 60.5q-36 21 -58 32t-53.5 21t-60.5 10q-59 0 -100 -36t-84 -103l-62 49q42 84 109.5 132t148.5 48q32 0 66 -9.5t49.5 -16.5t53 -27.5t38.5 -21.5q8 -4 30.5 -17t29.5 -17t25 -12.5t28.5 -11t26.5 -5.5
t32 -3q54 0 94 33.5t82 105.5zM1128 506l60 -51q-90 -179 -240 -179q-36 0 -73 10.5t-62.5 23.5t-79.5 42q-104 64 -172 64q-60 0 -101.5 -36.5t-82.5 -103.5l-62 52q42 83 109.5 130.5t146.5 47.5q26 0 51 -4.5t49 -14.5t38.5 -17t39.5 -21t31 -17q42 -25 59 -34t49.5 -20
t63.5 -11q55 0 94.5 33t81.5 106z" />
    <glyph glyph-name="notequal" unicode="&#x2260;" horiz-adv-x="1318" 
d="M1020 954l-82 -180h287v-92h-324l-125 -270h449v-93h-486l-98 -219l-74 33l84 186h-276v93h315l121 270h-436v92h473l98 215z" />
    <glyph glyph-name="lessequal" unicode="&#x2264;" horiz-adv-x="1359" 
d="M1262 195l-834 421v99l834 420v-109l-734 -356v-4l734 -361v-110zM1268 23h-850v96h850v-96z" />
    <glyph glyph-name="greaterequal" unicode="&#x2265;" horiz-adv-x="1359" 
d="M430 1135l834 -420v-99l-834 -421v110l733 359v4l-733 358v109zM1266 23h-846v96h846v-96z" />
    <glyph glyph-name="lozenge" unicode="&#x25ca;" horiz-adv-x="1445" 
d="M1354 651l-381 -784h-107l-381 784l383 789h107zM1249 651l-323 684h-6l-328 -682l328 -684h6z" />
    <glyph glyph-name="zero.taboldstyle" unicode="&#xf643;" horiz-adv-x="1138" 
d="M981 631q0 112 -45 172.5t-133 60.5q-107 0 -201.5 -93.5t-147.5 -234.5t-53 -284q0 -112 45.5 -173t133.5 -61q81 0 156.5 56t128 143.5t84.5 197.5t32 216zM233 324q0 106 41.5 210.5t114.5 188t182 135t234 51.5q82 0 149 -29t108.5 -78t64 -111.5t22.5 -131.5
q0 -85 -26 -169.5t-76.5 -159t-118.5 -132.5t-159 -91.5t-191 -33.5q-109 0 -189 50.5t-118 128.5t-38 172z" />
    <glyph glyph-name="one.taboldstyle" unicode="&#xf644;" horiz-adv-x="1138" 
d="M1096 887l-13 -45q-125 -9 -166.5 -35.5t-68.5 -122.5l-115 -416q-35 -119 -35 -157q0 -37 39 -51.5t158 -18.5l-10 -45q-110 4 -303 4q-161 0 -293 -4l12 45q126 9 166 32t65 111l123 430q35 119 35 158t-38 52t-154 18l10 45q110 -4 299 -4q157 0 289 4z" />
    <glyph glyph-name="two.taboldstyle" unicode="&#xf645;" horiz-adv-x="1138" 
d="M223 -4l6 37l351 241q156 107 217 184.5t61 149.5q0 79 -53 123.5t-150 44.5q-111 0 -175 -55t-64 -137q0 -13 1 -26.5t1 -18.5q0 -19 -17 -19q-15 0 -23.5 26t-8.5 68q0 126 91.5 210.5t250.5 84.5q157 0 236 -72t79 -188q0 -91 -64.5 -168t-236.5 -180l-242 -145v-4
h318q89 0 132.5 23.5t82.5 96.5h41q-18 -50 -103 -276q-148 4 -366 4q-189 0 -365 -4z" />
    <glyph glyph-name="three.taboldstyle" unicode="&#xf646;" horiz-adv-x="1138" 
d="M422 694l37 162q113 53 268 53q149 0 235.5 -64t86.5 -177q0 -108 -77.5 -188t-223.5 -144q100 -30 147 -91t47 -165q0 -132 -78.5 -246.5t-205 -191t-282.5 -122t-315 -50.5l15 45q311 39 498.5 186.5t187.5 343.5q0 96 -52.5 152.5t-146.5 56.5q-50 0 -114 -14.5
t-76 -14.5q-29 0 -29 25q0 32 51 35q54 4 116.5 17t133 39.5t126.5 62t93 89.5t37 117q0 70 -51 107t-141 37q-64 0 -146 -19t-141 -41z" />
    <glyph glyph-name="four.taboldstyle" unicode="&#xf647;" horiz-adv-x="1138" 
d="M1065 96l-37 -96h-207l-143 -508h-162l143 508h-520l8 53l897 877h37l-239 -856h94q22 0 43 3.5t47 10t39 8.5zM678 74l164 575l-4 4l-594 -579h434z" />
    <glyph glyph-name="five.taboldstyle" unicode="&#xf648;" horiz-adv-x="1138" 
d="M528 702l-53 -182q46 4 68 4q202 0 321 -89.5t119 -258.5q0 -99 -43 -199.5t-125.5 -189.5t-192.5 -159t-254.5 -112.5t-301.5 -45.5l10 45q167 15 308 71t236.5 138t149 185.5t53.5 213.5q0 114 -80.5 173.5t-236.5 59.5q-32 0 -83.5 -4t-55.5 -4l168 567
q187 -77 350 -77q70 0 149 18q63 18 74 18q22 0 22 -22q0 -19 -27 -46t-74.5 -54.5t-125 -46.5t-164.5 -19q-110 0 -211 16z" />
    <glyph glyph-name="six.taboldstyle" unicode="&#xf649;" horiz-adv-x="1138" 
d="M1266 1413l12 -45q-169 -42 -309.5 -131.5t-234 -201.5t-158 -246t-93 -264t-28.5 -255q0 -115 49.5 -183.5t132.5 -68.5q94 0 176 81t128 208.5t46 263.5q0 85 -39 139t-104 54q-110 0 -193 -131q-2 -4 -5.5 -9.5t-5 -8.5t-4.5 -7l-4.5 -6t-4 -4t-4.5 -3t-5 -1
q-16 0 -16 16q0 13 11 38.5t35 58.5t57 62t84 49t108 20q128 0 199 -81t71 -227q0 -140 -68.5 -268.5t-187.5 -208.5t-256 -80q-164 0 -262 117t-98 301q0 115 39.5 239.5t121 248.5t194.5 230t273 187.5t343 116.5z" />
    <glyph glyph-name="seven.taboldstyle" unicode="&#xf64a;" horiz-adv-x="1138" 
d="M1192 883l-684 -1391h-221q199 276 416.5 628.5t359.5 606.5h-471q-52 0 -78 -4.5t-53 -27t-46.5 -64t-45.5 -119.5h-45l137 485h43q-6 -30 -6 -53q0 -31 22 -46t82 -15h590z" />
    <glyph glyph-name="eight.taboldstyle" unicode="&#xf64b;" horiz-adv-x="1138" 
d="M905 328q0 49 -15.5 97.5t-35 83t-55.5 77t-57 62.5t-60 57q-151 -71 -229 -167.5t-78 -244.5q0 -122 68 -198.5t188 -76.5q108 0 191 89.5t83 220.5zM844 803q252 115 252 340q0 96 -56 160.5t-153 64.5q-111 0 -178.5 -68.5t-67.5 -177.5q0 -81 53 -157.5t150 -161.5z
M649 735q-155 139 -155 307q0 165 114.5 268t286.5 103q141 0 237.5 -76.5t96.5 -203.5q0 -123 -95.5 -215t-254.5 -152q91 -86 138.5 -173t47.5 -194q0 -125 -63 -224t-163 -150.5t-214 -51.5q-166 0 -274.5 93t-108.5 241q0 267 407 428z" />
    <glyph glyph-name="nine.taboldstyle" unicode="&#xf64c;" horiz-adv-x="1138" 
d="M152 -530l-13 45q142 35 264 103t210.5 156.5t157 192t109.5 214.5t62 219.5t21 211.5q0 115 -50 183.5t-133 68.5q-94 0 -176 -81t-128 -208.5t-46 -263.5q0 -85 39 -138.5t104 -53.5q110 0 193 131q2 4 5.5 9.5t5 8.5t4.5 7l4.5 6t4 4t4.5 3t5 1q16 0 16 -17
q0 -18 -18.5 -52.5t-52 -75t-93.5 -70t-131 -29.5q-128 0 -199 80.5t-71 226.5q0 140 68.5 268.5t187.5 208.5t256 80q164 0 262 -116.5t98 -300.5q0 -115 -39.5 -239.5t-120.5 -248.5t-194 -230t-273 -187.5t-343 -116.5z" />
    <glyph glyph-name="dollar.taboldstyle" unicode="&#xf653;" horiz-adv-x="1138" 
d="M729 1358l39 164h70l-39 -156q103 0 157 -16l41 172h64l-41 -183q33 -11 67 -28.5t68.5 -42t56 -56.5t21.5 -65q0 -32 -20.5 -51t-53.5 -19q-72 0 -80 97q-3 27 -5 38.5t-9 26.5t-20.5 24.5t-36.5 18.5l-121 -516q43 -30 63 -45t55 -43.5t52 -47.5t40 -50t33.5 -59.5
t18.5 -66.5t8 -81q0 -94 -37 -169.5t-101 -124t-144.5 -75.5t-172.5 -31l-65 -278h-59l63 278q-31 6 -158 25l-71 -303h-64l74 319q-79 26 -158.5 86.5t-79.5 124.5q0 33 21.5 58.5t54.5 25.5q35 0 59 -26t27 -62q1 -34 3.5 -52.5t10.5 -40t26 -35t48 -21.5l156 669
q-92 48 -146.5 125t-54.5 176q0 136 100.5 221t239.5 95zM647 707l-153 -656q51 -21 155 -26l144 600zM629 920l90 387q-82 -15 -142.5 -69t-60.5 -134q0 -64 26.5 -102t86.5 -82zM846 590l-131 -561q117 0 206 89t89 206q0 79 -46 151t-118 115zM686 881l143 -80l117 504
q-70 12 -104 12q-38 0 -56 -4z" />
    <glyph glyph-name="cent.taboldstyle" unicode="&#xf654;" horiz-adv-x="1138" 
d="M1063 1384l-78 -229q57 0 105.5 -35t48.5 -90q0 -31 -22 -55.5t-54 -24.5q-30 0 -51 18.5t-21 47.5q0 19 10.5 38t10.5 27q0 23 -45 29l-273 -809q47 -3 89.5 11.5t72.5 35.5t63 60t52 67.5t47 75.5l41 -25q-29 -59 -65.5 -109t-84 -92.5t-107 -65.5t-124.5 -19l-88 -267
h-78l90 277q-91 24 -146 104t-55 178q0 126 71 263t189 238t244 122l80 229h78zM627 326l262 770q-83 -25 -163.5 -146t-125.5 -254.5t-45 -218.5q0 -48 17 -91t55 -60z" />
    </font>
</defs>
</svg>
