<?xml version="1.0" standalone="no"?>
<!DOCTYPE svg PUBLIC "-//W3C//DTD SVG 1.1//EN" "http://www.w3.org/Graphics/SVG/1.1/DTD/svg11.dtd" >
<svg xmlns="http://www.w3.org/2000/svg" xmlns:xlink="http://www.w3.org/1999/xlink" version="1.1">
<metadata>
Created by FontForge 20201107 at Mon Mar 11 16:46:50 2024
 By 
Copyright (c) 2017 by Andrea Amato - Tipiblu. All rights reserved.
</metadata>
<defs>
<font id="SempioneGrotesk-Light" horiz-adv-x="839" >
  <font-face 
    font-family="SempioneGrotesk Light"
    font-weight="300"
    font-stretch="normal"
    units-per-em="2048"
    panose-1="0 0 0 0 0 0 0 0 0 0"
    ascent="1536"
    descent="-512"
    x-height="1034"
    cap-height="1413"
    bbox="-297 -512 2439 1763"
    underline-thickness="102"
    underline-position="-255"
    unicode-range="U+0020-25CA"
  />
<missing-glyph horiz-adv-x="1024" 
d="M102 -512v2048h820v-2048h-820zM205 -410h614v1844h-614v-1844z" />
    <glyph glyph-name="f_f" unicode="ff" horiz-adv-x="1263" 
d="M346 0h-149l4 352v570h-158v112h158v131q0 125 70.5 197t193.5 72q48 0 117 -15v-108q-48 10 -93 10q-71 0 -109 -40.5t-38 -115.5v-131h508v131q0 125 70.5 197t193.5 72q48 0 117 -15v-108q-48 10 -92 10q-71 0 -109.5 -40.5t-38.5 -115.5v-131h242v-112h-242l-2 -570
l6 -352h-149l4 352v570h-508l-2 -570z" />
    <glyph glyph-name="f_f_i" unicode="ffi" horiz-adv-x="1718" 
d="M346 0h-149l4 352v570h-158v112h158v131q0 125 70.5 197t193.5 72q48 0 117 -15v-108q-48 10 -93 10q-71 0 -109 -40.5t-38 -115.5v-131h215v2h293v129q0 125 70.5 197t193.5 72q48 0 117 -15v-108q-48 10 -92 10q-71 0 -109.5 -40.5t-38.5 -115.5v-129h500v-2h68
l-5 -362v-320l5 -352h-150l4 352v320l-2 250h-420l-2 -570l6 -352h-149l4 352v570h-508l-2 -570zM1569 1225h-170v159h170v-159z" />
    <glyph glyph-name="f_f_l" unicode="ffl" horiz-adv-x="1726" 
d="M346 0h-149l4 352v570h-158v112h158v131q0 125 70.5 197t193.5 72q48 0 117 -15v-108q-48 10 -93 10q-71 0 -109 -40.5t-38 -115.5v-131h508v131q0 125 70.5 197t193.5 72q48 0 117 -15v-108q-48 10 -92 10q-71 0 -109.5 -40.5t-38.5 -115.5v-131h432v27l-4 350h150
l-4 -350v-834q0 -65 29.5 -100t84.5 -35q51 0 111 29v-113q-58 -28 -119 -28q-117 0 -182.5 69t-65.5 191v682h-432l-2 -570l6 -352h-149l4 352v570h-508l-2 -570z" />
    <glyph glyph-name="f_i" unicode="fi" horiz-adv-x="1083" 
d="M346 0h-149l4 352v570h-158v112h158v131q0 125 70.5 197t193.5 72q48 0 117 -15v-108q-48 10 -93 10q-71 0 -109 -40.5t-38 -115.5v-131h582l-4 -362v-320l4 -352h-150l4 352v320l-2 250h-434l-2 -570zM934 1225h-170v159h170v-159z" />
    <glyph glyph-name="f_l" unicode="fl" horiz-adv-x="1077" 
d="M346 0h-149l4 352v570h-158v112h158v131q0 125 70.5 197t193.5 72q48 0 117 -15v-108q-48 10 -93 10q-71 0 -109 -40.5t-38 -115.5v-131h432v27l-4 350h150l-5 -350v-834q0 -65 30 -100t85 -35q51 0 111 29v-113q-58 -28 -119 -28q-117 0 -182.5 69t-65.5 191v682h-432
l-2 -570z" />
    <glyph glyph-name=".notdef" horiz-adv-x="1024" 
d="M102 -512v2048h820v-2048h-820zM205 -410h614v1844h-614v-1844z" />
    <glyph glyph-name=".null" horiz-adv-x="0" 
 />
    <glyph glyph-name="nonmarkingreturn" horiz-adv-x="682" 
 />
    <glyph glyph-name="space" unicode=" " horiz-adv-x="464" 
 />
    <glyph glyph-name="exclam" unicode="!" horiz-adv-x="524" 
d="M334 408h-144l-8 1005h160zM176 0v211h172v-211h-172z" />
    <glyph glyph-name="quotedbl" unicode="&#x22;" horiz-adv-x="630" 
d="M387 979l-16 434h143l-16 -434h-111zM133 979l-16 434h143l-16 -434h-111z" />
    <glyph glyph-name="numbersign" unicode="#" horiz-adv-x="1658" 
d="M408 0l84 477h-433l19 103h434l53 309h-432l19 102h432l78 424h124l-75 -424h309l78 424h125l-76 -424h455l-19 -102h-455l-55 -309h455l-19 -103h-454l-86 -477h-125l86 477h-314l-86 -477h-122zM635 578h313l56 313h-314z" />
    <glyph glyph-name="dollar" unicode="$" horiz-adv-x="1247" 
d="M221 481q0 -195 109 -287t305 -92q179 0 284 67.5t105 186.5q0 109 -83.5 169.5t-274.5 105.5q-52 12 -88 21t-85.5 24t-84 28.5t-75.5 33.5t-69 41.5t-56.5 50.5t-45 61.5t-27 73.5t-10.5 88q0 90 35 160.5t96 114.5t139 68t170 27l-4 162h158l-4 -168
q190 -23 298 -140.5t111 -287.5h-153q0 144 -94 230t-250 86q-173 0 -258.5 -64t-85.5 -184q0 -140 183 -218q76 -32 265 -79q84 -21 146.5 -41.5t122.5 -52t97.5 -70t60 -92.5t22.5 -121q0 -172 -128 -276t-337 -119l4 -189h-158l6 185q-227 14 -363 138.5t-136 358.5h153z
" />
    <glyph glyph-name="percent" unicode="%" horiz-adv-x="1779" 
d="M410 580q-152 0 -241 116.5t-89 315.5q0 201 89 317.5t243 116.5q153 0 242 -116.5t89 -317.5q0 -199 -89.5 -315.5t-243.5 -116.5zM299 0l1055 1415h119l-1053 -1415h-121zM410 1356q-103 0 -161.5 -91t-58.5 -253q0 -163 58.5 -253.5t161.5 -90.5q104 0 163.5 90.5
t59.5 253.5q0 162 -60 253t-163 91zM1364 -14q-152 0 -241 116.5t-89 315.5q0 201 89 317.5t243 116.5q153 0 242.5 -116.5t89.5 -317.5q0 -199 -90 -315.5t-244 -116.5zM1364 762q-103 0 -161 -91t-58 -253q0 -164 58 -254t161 -90q104 0 163.5 90.5t59.5 253.5
q0 162 -60 253t-163 91z" />
    <glyph glyph-name="ampersand" unicode="&#x26;" horiz-adv-x="1333" 
d="M94 352q0 125 84 235t238 193q-185 211 -185 353q0 140 95.5 219.5t261.5 79.5q162 0 255 -78t93 -213q0 -103 -86.5 -205t-241.5 -184l373 -400q40 70 62 170.5t22 208.5h145q0 -129 -37 -253.5t-102 -217.5l240 -260h-187l-151 178q-68 -93 -181 -145.5t-237 -52.5
q-213 0 -337 101.5t-124 270.5zM528 844q265 134 265 293q0 88 -53.5 136t-151.5 48q-103 0 -158 -48.5t-55 -137.5q0 -135 153 -291zM238 352q0 -121 83.5 -190.5t237.5 -69.5q107 0 193 44t135 126l-391 436q-258 -159 -258 -346z" />
    <glyph glyph-name="quotesingle" unicode="'" horiz-adv-x="376" 
d="M131 979l-14 434h143l-16 -434h-113z" />
    <glyph glyph-name="parenleft" unicode="(" horiz-adv-x="563" 
d="M516 1434v-109q-129 0 -195.5 -144t-66.5 -431v-340q0 -570 262 -570v-108q-185 0 -288 175t-103 503v348q0 326 103 501t288 175z" />
    <glyph glyph-name="parenright" unicode=")" horiz-adv-x="563" 
d="M49 1434q185 0 288 -175t103 -501v-348q0 -328 -103 -503t-288 -175v108q262 0 262 570v340q0 287 -66.5 431t-195.5 144v109z" />
    <glyph glyph-name="asterisk" unicode="*" horiz-adv-x="802" 
d="M336 805l31 254l-205 -156l-66 113l240 98l-236 103l64 112l203 -153l-31 254h127l-29 -254l205 153l63 -112l-239 -101l239 -98l-63 -115l-205 156l29 -254h-127z" />
    <glyph glyph-name="plus" unicode="+" horiz-adv-x="1036" 
d="M463 197l-2 362h-361v115h361v360h114v-360h361v-115h-361v-362h-112z" />
    <glyph glyph-name="comma" unicode="," horiz-adv-x="446" 
d="M12 -248l148 459h180l-188 -459h-140z" />
    <glyph glyph-name="hyphen" unicode="-" horiz-adv-x="704" 
d="M129 489v101h444v-101h-444z" />
    <glyph glyph-name="period" unicode="." horiz-adv-x="415" 
d="M117 0v182h182v-182h-182z" />
    <glyph glyph-name="slash" unicode="/" horiz-adv-x="851" 
d="M805 1434l-627 -1454h-129l627 1454h129z" />
    <glyph glyph-name="zero" unicode="0" horiz-adv-x="1153" 
d="M592 -23q-227 0 -355 196t-128 536q0 339 128.5 534t354.5 195q228 0 355.5 -194.5t127.5 -534.5t-128 -536t-355 -196zM592 1325q-165 0 -252.5 -160.5t-87.5 -455.5q0 -296 87.5 -457.5t252.5 -161.5t252.5 161.5t87.5 457.5q0 295 -87.5 455.5t-252.5 160.5z" />
    <glyph glyph-name="one" unicode="1" horiz-adv-x="921" 
d="M84 0v143h358l2 209v897q-33 -27 -166 -108t-184 -107v133q56 30 190.5 119t174.5 127h131l-2 -364v-697l2 -209h284v-143h-790z" />
    <glyph glyph-name="two" unicode="2" horiz-adv-x="1095" 
d="M666 549l-394 -428h768v-121h-956v106l516 562q116 125 153 176q85 117 85 231q0 117 -71.5 181.5t-203.5 64.5q-152 0 -232.5 -103t-80.5 -294h-144q0 237 123 373.5t340 136.5q191 0 300.5 -97t109.5 -262q0 -60 -13 -112t-32.5 -94.5t-64 -98t-85.5 -99.5t-118 -122z
" />
    <glyph glyph-name="three" unicode="3" horiz-adv-x="1150" 
d="M586 1434q208 0 327 -95.5t119 -257.5q0 -115 -71 -197.5t-193 -113.5v-2q142 -29 226.5 -130t84.5 -239q0 -193 -131 -306t-360 -113q-233 0 -367.5 121.5t-134.5 326.5h137q0 -158 94.5 -246t268.5 -88q168 0 259 80t91 225q0 140 -104.5 218.5t-296.5 78.5h-80v117h61
q180 0 277.5 67.5t97.5 188.5q0 119 -79 185.5t-226 66.5q-151 0 -233.5 -84.5t-84.5 -237.5h-137q0 200 121.5 317.5t333.5 117.5z" />
    <glyph glyph-name="four" unicode="4" horiz-adv-x="1130" 
d="M49 379v104l623 930h196l-6 -362v-557h215v-115h-215v-70l6 -309h-147l4 309v70h-676zM195 494h530v557l-2 231z" />
    <glyph glyph-name="five" unicode="5" horiz-adv-x="1087" 
d="M94 373h139q-3 -132 80.5 -205.5t241.5 -73.5q160 0 247 99.5t87 277.5q0 180 -86.5 280.5t-245.5 100.5q-119 0 -194 -54.5t-97 -152.5h-129l49 768h758l-2 -113h-641l-35 -481h4q42 67 127 106.5t191 39.5q208 0 326 -132.5t118 -359.5q0 -226 -126 -359.5t-347 -133.5
q-217 0 -341 106t-124 287z" />
    <glyph glyph-name="six" unicode="6" horiz-adv-x="1167" 
d="M209 162q-61 95 -78.5 217.5t-17.5 308.5q0 347 135 546.5t385 199.5q182 0 289.5 -91t113.5 -247h-143q-8 104 -77.5 164.5t-186.5 60.5q-181 0 -278 -168.5t-97 -470.5h4q43 114 140.5 173.5t242.5 59.5q206 0 324 -127t118 -344q0 -214 -124.5 -339t-340.5 -125
q-290 0 -409 182zM610 803q-162 0 -250 -93.5t-88 -260.5q0 -168 88 -263.5t248 -95.5t247 95t87 264q0 167 -86.5 260.5t-245.5 93.5z" />
    <glyph glyph-name="seven" unicode="7" horiz-adv-x="1013" 
d="M41 1290v123h913v-113q-195 -386 -324.5 -688t-209.5 -612h-137q147 551 520 1286v4h-762z" />
    <glyph glyph-name="eight" unicode="8" horiz-adv-x="1153" 
d="M399 762q-113 29 -179 115t-66 204q0 164 115.5 258.5t322.5 94.5q206 0 321 -94.5t115 -258.5q0 -116 -65 -203t-175 -116v-2q141 -39 218 -136.5t77 -244.5q0 -187 -130 -293t-361 -106q-230 0 -359 106t-129 293q0 147 81 249t214 130v4zM592 1321q-144 0 -219.5 -65
t-75.5 -185q0 -124 76 -192t219 -68t219 68t76 192q0 120 -75.5 185t-219.5 65zM594 700q-168 0 -257 -79.5t-89 -225.5q0 -144 89 -222.5t257 -78.5q166 0 255 79t89 222q0 146 -89 225.5t-255 79.5z" />
    <glyph glyph-name="nine" unicode="9" horiz-adv-x="1134" 
d="M532 518q-205 0 -320.5 123t-115.5 336q0 210 121 333.5t332 123.5q92 0 163.5 -16t120 -46t78.5 -60.5t56 -70.5q90 -132 90 -455q0 -247 -58 -427t-174 -279.5t-280 -99.5q-193 0 -302 101.5t-114 278.5h143q3 -126 75 -198t202 -72q112 0 194.5 81t126 226.5
t43.5 337.5h-4q-95 -217 -377 -217zM563 1323q-155 0 -240 -91.5t-85 -254.5t85.5 -253.5t243.5 -90.5q156 0 241 89.5t87 248.5q2 167 -85 259.5t-247 92.5z" />
    <glyph glyph-name="colon" unicode=":" horiz-adv-x="444" 
d="M131 852v182h182v-182h-182zM131 0v182h182v-182h-182z" />
    <glyph glyph-name="semicolon" unicode=";" horiz-adv-x="524" 
d="M193 856v184h182v-184h-182zM45 -248l148 459h180l-189 -459h-139z" />
    <glyph glyph-name="less" unicode="&#x3c;" horiz-adv-x="1036" 
d="M856 29l-723 446v88l723 445v-136l-584 -352l584 -356v-135z" />
    <glyph glyph-name="equal" unicode="=" horiz-adv-x="1036" 
d="M98 721v117h838v-117h-838zM98 393v117h838v-117h-838z" />
    <glyph glyph-name="greater" unicode="&#x3e;" horiz-adv-x="1036" 
d="M180 29v135l584 356l-584 352v136l723 -445v-88z" />
    <glyph glyph-name="question" unicode="?" horiz-adv-x="980" 
d="M428 403v101q0 55 36 115.5t87 114.5t102 108.5t87 117t36 121.5q0 113 -73 175.5t-207 62.5q-141 0 -217 -88t-76 -248h-146q0 209 118.5 329t324.5 120q194 0 304.5 -94t110.5 -257q0 -57 -25.5 -116t-63.5 -106t-82 -97t-82 -91t-63.5 -86.5t-25.5 -84.5v-97h-145z
M416 0v211h172v-211h-172z" />
    <glyph glyph-name="at" unicode="@" horiz-adv-x="1746" 
d="M1282 -197q-82 -40 -190.5 -63t-214.5 -23q-362 0 -573.5 208.5t-211.5 566.5q0 376 211 594.5t574 218.5t566.5 -194t203.5 -556q0 -220 -88.5 -349.5t-229.5 -129.5q-93 0 -154.5 49.5t-76.5 136.5h-4q-44 -95 -127.5 -144.5t-184.5 -49.5q-78 0 -143 25t-107.5 80
t-42.5 132q0 161 141 240.5t439 85.5v28q0 79 -49.5 121.5t-142.5 42.5q-109 0 -168.5 -45t-59.5 -129h-127q0 133 98.5 210t268.5 77q151 0 236 -71t85 -197v-265q0 -103 34.5 -160t96.5 -57q72 0 114.5 96.5t45.5 266.5q7 321 -152.5 482t-471.5 161q-303 0 -473.5 -184
t-170.5 -516q0 -317 169.5 -490.5t474.5 -171.5q111 0 217 28t188 79v-134zM633 315q0 -67 44.5 -101t123.5 -34q121 0 193.5 76t72.5 213l2 55q-218 0 -327 -55.5t-109 -153.5z" />
    <glyph glyph-name="A" unicode="A" horiz-adv-x="1290" 
d="M213 0h-172l135 352l379 1061h182l375 -1061l135 -352h-170l-121 352l-16 47h-592l-14 -47zM641 1249l-244 -721h494l-242 721h-8z" />
    <glyph glyph-name="B" unicode="B" horiz-adv-x="1300" 
d="M764 0h-578l4 352v709l-4 352h557q191 0 300.5 -91.5t109.5 -258.5q0 -125 -64.5 -209t-173.5 -104v-5q135 -27 211 -115.5t76 -228.5q0 -184 -118.5 -292.5t-319.5 -108.5zM336 1286l-2 -483h401q124 0 196.5 64.5t72.5 174.5q0 115 -70 179.5t-193 64.5h-405zM336 676
v-549h420q138 0 217.5 72.5t79.5 201.5q0 128 -79.5 201.5t-217.5 73.5h-420z" />
    <glyph glyph-name="C" unicode="C" horiz-adv-x="1388" 
d="M1307 516q-23 -247 -179 -391.5t-403 -144.5q-286 0 -455.5 197.5t-169.5 533.5q0 329 170 526t455 197q252 0 406.5 -137t171.5 -371h-152q-20 179 -133 280t-295 101q-220 0 -344.5 -158t-124.5 -438q0 -283 125 -444t346 -161q187 0 300 108.5t130 301.5h152z" />
    <glyph glyph-name="D" unicode="D" horiz-adv-x="1421" 
d="M612 0h-426l4 350v713l-4 350h426q327 0 519 -189.5t192 -512.5q0 -326 -192 -518.5t-519 -192.5zM340 1286v-1159h270q262 0 411.5 155t149.5 427q0 270 -149 423.5t-410 153.5h-272z" />
    <glyph glyph-name="E" unicode="E" horiz-adv-x="1150" 
d="M1057 0h-871l4 352v711l-4 350h850v-127h-700v-485h672v-127h-672v-547h721v-127z" />
    <glyph glyph-name="F" unicode="F" horiz-adv-x="1064" 
d="M344 0h-158l4 352v709l-4 352h815v-127h-661v-528h616v-127h-616v-279z" />
    <glyph glyph-name="G" unicode="G" horiz-adv-x="1458" 
d="M1208 231q-62 -113 -187.5 -182t-270.5 -69q-294 0 -473 200.5t-179 532.5q0 327 177 524t473 197q233 0 388 -140t179 -360h-154q-14 168 -127 270.5t-289 102.5q-230 0 -361.5 -160t-131.5 -436q0 -280 137 -442.5t367 -162.5q183 0 307.5 125t134.5 334h-438v127h577
v-342l4 -350h-135l4 225z" />
    <glyph glyph-name="H" unicode="H" horiz-adv-x="1427" 
d="M344 0h-158l4 352v709l-4 352h158l-4 -352v-256h747v256l-4 352h158l-6 -352v-709l6 -352h-158l4 352v326h-747v-326z" />
    <glyph glyph-name="I" unicode="I" horiz-adv-x="530" 
d="M344 0h-158l4 352v709l-4 352h158l-4 -352v-709z" />
    <glyph glyph-name="J" unicode="J" horiz-adv-x="542" 
d="M354 -100q0 -127 -69.5 -198t-194.5 -71q-41 0 -110 15v131q49 -19 77 -19q69 0 108.5 45.5t39.5 124.5v1133l-4 352h157l-4 -352v-1161z" />
    <glyph glyph-name="K" unicode="K" horiz-adv-x="1212" 
d="M344 0h-158l4 352v709l-4 352h158l-4 -352v-363h4l320 363l307 352h196l-319 -352l-211 -240v-2l326 -465l254 -354h-207l-236 354l-242 348h-4l-188 -210v-140z" />
    <glyph glyph-name="L" unicode="L" horiz-adv-x="1019" 
d="M983 0h-797l4 352v709l-4 352h158l-4 -352v-932h643v-129z" />
    <glyph glyph-name="M" unicode="M" horiz-adv-x="1728" 
d="M340 0h-154l4 352v709l-4 352h240l438 -1175h4l437 1175h237l-4 -352v-709l4 -352h-153l6 352v879h-6l-471 -1231h-107l-471 1231h-6v-879z" />
    <glyph glyph-name="N" unicode="N" horiz-adv-x="1480" 
d="M344 0h-158l4 352v707l-4 354h162l617 -921l172 -254h6v821l-6 354h159l-6 -354v-707l6 -352h-159l-633 928l-162 241h-2v-817z" />
    <glyph glyph-name="O" unicode="O" horiz-adv-x="1480" 
d="M1382 715q0 -157 -42.5 -291t-122 -233t-202 -155t-274.5 -56t-274.5 56.5t-202.5 155.5t-123 233.5t-43 291.5q0 119 27 226.5t80.5 197t130 155t180 102t225.5 36.5q151 0 274 -56.5t202.5 -154.5t122 -228t42.5 -280zM252 711q0 -171 57 -306.5t169 -215.5t263 -80
t263 79.5t168.5 214.5t56.5 306q0 163 -56.5 297.5t-169 217.5t-262.5 83q-113 0 -206.5 -48t-154.5 -129.5t-94.5 -189.5t-33.5 -229z" />
    <glyph glyph-name="P" unicode="P" horiz-adv-x="1196" 
d="M344 0h-158l4 350v715l-6 348h475q217 0 345.5 -118.5t128.5 -319.5q0 -199 -136 -318.5t-356 -119.5h-301v-187zM340 1286v-622h301q154 0 246 83t92 228q0 146 -84 228.5t-233 82.5h-322z" />
    <glyph glyph-name="Q" unicode="Q" horiz-adv-x="1480" 
d="M815 -307h-156l7 164l2 127q-179 18 -309.5 119t-195.5 259t-65 355q0 119 27 226.5t80.5 197t130 155t180 102t225.5 36.5q151 0 274 -56.5t202.5 -154.5t122 -228t42.5 -280q0 -303 -149.5 -504t-419.5 -227l-2 -127zM252 711q0 -171 57 -306.5t169 -215.5t263 -80
t263 79.5t168.5 214.5t56.5 306q0 163 -56.5 297.5t-169 217.5t-262.5 83q-113 0 -206.5 -48t-154.5 -129.5t-94.5 -189.5t-33.5 -229z" />
    <glyph glyph-name="R" unicode="R" horiz-adv-x="1275" 
d="M344 0h-158l4 352v709l-4 352h516q201 0 321 -112t120 -302q0 -130 -80.5 -234t-208.5 -147v-6l360 -612h-178l-331 588l-365 -2v-234zM340 1286v-573h334q141 0 228 77t87 209t-83.5 209.5t-213.5 77.5h-352z" />
    <glyph glyph-name="S" unicode="S" horiz-adv-x="1265" 
d="M1182 383q0 -185 -148 -294t-395 -109q-266 0 -414.5 133.5t-148.5 367.5h153q0 -181 107 -279t311 -98q183 0 284 77t101 198q0 47 -19.5 84.5t-50 63.5t-84 47.5t-105 35.5t-128.5 31q-67 14 -118 28.5t-114.5 37.5t-109.5 53t-87 70t-62 94.5t-21 119.5q0 186 132 288
t362 102q232 0 367 -117.5t141 -327.5h-154q-2 150 -94 235t-262 85q-161 0 -250.5 -66.5t-89.5 -189.5q0 -48 17 -87.5t50 -67.5t70 -49t88.5 -37t93.5 -26.5t96 -22.5l15 -3q115 -26 194.5 -54t144.5 -71.5t96.5 -105.5t31.5 -146z" />
    <glyph glyph-name="T" unicode="T" horiz-adv-x="1083" 
d="M625 0h-164l8 352v936h-434v127h1016v-127h-435v-936z" />
    <glyph glyph-name="U" unicode="U" horiz-adv-x="1376" 
d="M1202 508q0 -243 -138 -385.5t-372 -142.5q-238 0 -378 142.5t-140 385.5v551l-6 354h158l-4 -354v-541q0 -192 98 -302t270 -110q170 0 266.5 110t96.5 302v541l-4 354h157l-4 -354v-551z" />
    <glyph glyph-name="V" unicode="V" horiz-adv-x="1290" 
d="M729 0h-166l-387 1063l-135 350h172l123 -352l307 -885h6l309 885l121 352h170l-135 -352z" />
    <glyph glyph-name="W" unicode="W" horiz-adv-x="1785" 
d="M604 0h-151l-295 1061l-107 352h180l84 -352l224 -840h2l315 815l-117 377h156l135 -485l217 -707h4l224 840l84 352h176l-107 -352l-293 -1061h-155l-262 860h-5z" />
    <glyph glyph-name="X" unicode="X" horiz-adv-x="1208" 
d="M217 0h-186l237 352l242 363v2l-238 344l-239 352h184l234 -352l151 -215h4l150 215l237 352h187l-248 -352l-234 -342v-4l242 -363l238 -352h-187l-227 352l-158 238h-4l-156 -238z" />
    <glyph glyph-name="Y" unicode="Y" horiz-adv-x="1208" 
d="M684 0h-160l6 352v123l-299 588l-184 350h180l172 -350l203 -410h4l203 408l174 352h178l-184 -354l-299 -584v-123z" />
    <glyph glyph-name="Z" unicode="Z" horiz-adv-x="1136" 
d="M1069 0h-1024v117l821 1165v4h-751v127h946v-117l-815 -1165v-4h823v-127z" />
    <glyph glyph-name="bracketleft" unicode="[" horiz-adv-x="565" 
d="M510 -248h-334l4 363v936l-4 362h334v-108h-199v-1444h199v-109z" />
    <glyph glyph-name="backslash" unicode="\" horiz-adv-x="851" 
d="M803 -20h-129l-627 1454h129z" />
    <glyph glyph-name="bracketright" unicode="]" horiz-adv-x="565" 
d="M55 -248v109h199v1444h-199v108h336l-6 -364v-934l6 -363h-336z" />
    <glyph glyph-name="asciicircum" unicode="^" horiz-adv-x="1036" 
d="M522 1434l348 -359v-92l-350 301l-356 -303l-2 90z" />
    <glyph glyph-name="underscore" unicode="_" horiz-adv-x="1110" 
d="M90 29h930v-101h-930v101z" />
    <glyph glyph-name="grave" unicode="`" horiz-adv-x="1228" 
d="M322 1413h196l195 -225h-111z" />
    <glyph glyph-name="a" unicode="a" horiz-adv-x="1073" 
d="M770 176q-96 -196 -362 -196q-141 0 -233.5 72t-92.5 206q0 176 179 267.5t511 97.5v98q0 111 -62.5 166t-193.5 55q-122 0 -190 -67t-68 -166h-141q0 84 33.5 151t91.5 109t131 64t155 22q191 0 287 -83.5t96 -244.5v-559q0 -34 19.5 -55t52.5 -21q34 0 70 19v-113
q-45 -18 -117 -18q-73 0 -117.5 38t-44.5 105v53h-4zM225 268q0 -80 57.5 -128t161.5 -48q153 0 239.5 94t86.5 240v92q-260 0 -402.5 -63.5t-142.5 -186.5z" />
    <glyph glyph-name="b" unicode="b" horiz-adv-x="1126" 
d="M1036 516q0 -248 -114.5 -392t-309.5 -144q-230 0 -315 186h-4l6 -166h-145l4 352v709l-4 352h145l-6 -352v-184h4q100 178 328 178q194 0 302.5 -144t108.5 -395zM285 518q0 -202 77.5 -314t217.5 -112q149 0 231 113t82 317q0 199 -80 309.5t-225 110.5
q-144 0 -223.5 -111.5t-79.5 -312.5z" />
    <glyph glyph-name="c" unicode="c" horiz-adv-x="1060" 
d="M987 377q-19 -183 -136.5 -290t-297.5 -107q-213 0 -338 144t-125 388q0 249 127 396t342 147q173 0 288 -101.5t138 -273.5h-143q-19 124 -93 193t-190 69q-154 0 -241 -114.5t-87 -315.5q0 -197 85.5 -308.5t236.5 -111.5q119 0 196 75.5t97 209.5h141z" />
    <glyph glyph-name="d" unicode="d" horiz-adv-x="1126" 
d="M829 152q-43 -80 -121.5 -126t-172.5 -46q-206 0 -325.5 143.5t-119.5 392.5t116 394t316 145q105 0 187.5 -49t119.5 -134h5v189l-7 352h146l-4 -352v-709l4 -352h-146l7 152h-5zM233 522q0 -203 82.5 -316.5t231.5 -113.5q140 0 217.5 112t77.5 314q0 203 -79 313.5
t-224 110.5t-225.5 -110t-80.5 -310z" />
    <glyph glyph-name="e" unicode="e" horiz-adv-x="1077" 
d="M983 348q-22 -173 -137 -270.5t-299 -97.5q-216 0 -336.5 141t-120.5 389q0 262 121.5 404.5t339.5 142.5q198 0 313 -128.5t123 -357.5v-65h-751q-6 -194 77.5 -304t237.5 -110q115 0 191 67t98 189h143zM553 950q-133 0 -216 -88.5t-97 -243.5h604q-5 155 -82 243.5
t-209 88.5z" />
    <glyph glyph-name="f" unicode="f" horiz-adv-x="614" 
d="M346 0h-149l4 352v570h-158v112h158v131q0 125 70.5 197t193.5 72q48 0 117 -15v-108q-48 10 -93 10q-71 0 -109 -40.5t-38 -115.5v-131h242v-112h-242l-2 -570z" />
    <glyph glyph-name="g" unicode="g" horiz-adv-x="1067" 
d="M1018 -43q0 -153 -129 -240.5t-361 -87.5q-220 0 -345.5 75t-125.5 210q0 93 52.5 160.5t164.5 95.5v4q-40 18 -62 55t-22 78q0 49 25 88.5t64 57.5v2q-69 29 -118.5 103.5t-49.5 172.5q0 150 108 237t283 87q119 0 205 -39q6 51 46.5 81.5t96.5 30.5q74 0 141 -26v-111
q-45 25 -94 25q-80 0 -80 -74q45 -51 63.5 -100.5t18.5 -110.5q0 -151 -106.5 -238t-286.5 -87q-38 0 -105 10q-41 -10 -61.5 -35.5t-20.5 -56.5q0 -50 37 -73.5t133 -23.5h136q184 0 288.5 -70.5t104.5 -199.5zM238 733q0 -111 70.5 -169t197.5 -58t197.5 59t70.5 168
q0 104 -71 162.5t-197 58.5t-197 -58.5t-71 -162.5zM199 -68q0 -95 88.5 -146.5t247.5 -51.5q168 0 253.5 55t85.5 158q0 80 -73 125t-203 45h-117q-125 0 -203.5 -50t-78.5 -135z" />
    <glyph glyph-name="h" unicode="h" horiz-adv-x="1083" 
d="M299 0h-145l4 322v739l-6 352h143l-4 -352v-180h6q97 174 299 174q159 0 250.5 -101t91.5 -274v-361l4 -319h-147l6 322v329q0 136 -61 213.5t-173 77.5q-131 0 -201.5 -94.5t-70.5 -261.5v-267z" />
    <glyph glyph-name="i" unicode="i" horiz-adv-x="468" 
d="M319 1225h-169v159h169v-159zM309 0h-149l4 352v320l-4 362h149l-4 -362v-320z" />
    <glyph glyph-name="j" unicode="j" horiz-adv-x="477" 
d="M330 1225h-172v159h172v-159zM313 -100q0 -125 -68 -197t-186 -72q-23 0 -39 4v111q8 -2 29 -2q60 0 91.5 41t31.5 117v770l-4 362h149l-4 -362v-772z" />
    <glyph glyph-name="k" unicode="k" horiz-adv-x="1003" 
d="M303 0h-149l4 352v709l-4 352h149l-6 -352v-477h8l160 166l272 284h189l-293 -284l-94 -99l215 -297l260 -354h-187l-247 354l-138 195h-6l-139 -143v-52z" />
    <glyph glyph-name="l" unicode="l" horiz-adv-x="536" 
d="M520 8q-58 -28 -119 -28q-117 0 -182 69t-65 191v821l-4 350h149l-4 -350v-834q0 -65 30 -100t85 -35q50 0 110 29v-113z" />
    <glyph glyph-name="m" unicode="m" horiz-adv-x="1693" 
d="M301 0h-145l4 352v320l-6 362h145l-6 -153h6q46 85 124.5 129.5t172.5 44.5q116 0 187 -54t114 -149h4q41 94 124.5 148.5t195.5 54.5q150 0 238.5 -101t88.5 -272v-330l4 -352h-147l6 352v299q0 136 -62 213.5t-171 77.5q-123 0 -189.5 -85t-66.5 -239v-266l6 -352h-148
l6 352v293q0 141 -63 219t-172 78q-122 0 -188 -84t-66 -240v-266z" />
    <glyph glyph-name="n" unicode="n" horiz-adv-x="1085" 
d="M301 0h-145l4 352v320l-6 362h145l-6 -153h6q97 174 301 174q160 0 250 -103.5t90 -277.5v-322l6 -352h-147l4 352v293q0 139 -64 218t-184 79q-126 0 -192 -82.5t-66 -238.5v-269z" />
    <glyph glyph-name="o" unicode="o" horiz-adv-x="1101" 
d="M1014 516q0 -249 -124.5 -392.5t-338.5 -143.5t-338.5 143.5t-124.5 392.5t124.5 394t338.5 145t338.5 -145t124.5 -394zM231 518q0 -202 84.5 -314t235.5 -112t235 112t84 314q0 200 -84 312t-235 112t-235.5 -112t-84.5 -312z" />
    <glyph glyph-name="p" unicode="p" horiz-adv-x="1128" 
d="M299 -369h-145l4 353v688l-4 362h145l-4 -157h4q103 178 332 178q190 0 297.5 -144.5t107.5 -394.5q0 -249 -113.5 -392.5t-310.5 -143.5q-103 0 -185 46.5t-128 139.5h-4v-182zM287 518q0 -203 77 -314.5t218 -111.5q149 0 231 113t82 317q0 200 -80.5 310t-226.5 110
q-143 0 -222 -111.5t-79 -312.5z" />
    <glyph glyph-name="q" unicode="q" horiz-adv-x="1128" 
d="M975 -369h-148l7 353v168h-5q-43 -80 -121.5 -126t-172.5 -46q-206 0 -325.5 143.5t-119.5 392.5t116 394t316 145q105 0 187.5 -49t119.5 -134h5l-7 162h148l-6 -362v-688zM233 522q0 -203 82.5 -316.5t231.5 -113.5q140 0 217.5 112t77.5 314q0 203 -79 313.5
t-224 110.5t-225.5 -110t-80.5 -310z" />
    <glyph glyph-name="r" unicode="r" horiz-adv-x="747" 
d="M301 0h-145l4 352v320l-6 362h145l-6 -213h6q42 113 119 173.5t176 60.5q60 0 115 -19v-143q-48 18 -125 18q-94 0 -161 -59.5t-96.5 -151t-29.5 -204.5v-144z" />
    <glyph glyph-name="s" unicode="s" horiz-adv-x="997" 
d="M920 291q0 -142 -112 -226.5t-302 -84.5q-203 0 -318.5 99t-115.5 275h143q0 -126 74.5 -194t206.5 -68q136 0 209 52.5t73 146.5q0 54 -37 89.5t-96.5 53.5t-131.5 32t-143 33t-130 47.5t-95 84t-34 135.5q1 126 111.5 207.5t277.5 81.5q188 0 286.5 -87.5t98.5 -246.5
h-142q0 107 -64 164t-187 57q-105 0 -171.5 -47.5t-66.5 -130.5q0 -41 23 -71.5t61.5 -48.5t88.5 -31t105 -24.5t110 -24.5t105 -34.5t88.5 -51t61.5 -77t23 -110.5z" />
    <glyph glyph-name="t" unicode="t" horiz-adv-x="714" 
d="M686 6q-117 -26 -219 -26q-132 0 -202 79t-70 230v633h-152v112h152l-5 250h152l-6 -250h350v-112h-350v-623q0 -104 39 -154.5t121 -50.5q95 0 190 29v-117z" />
    <glyph glyph-name="u" unicode="u" horiz-adv-x="1093" 
d="M793 139q-37 -77 -114.5 -118t-184.5 -41q-163 0 -256 106.5t-93 296.5v289l-6 362h154l-6 -362v-279q0 -145 58 -224t163 -79q140 0 213.5 93.5t73.5 262.5l-2 226l-5 362h150l-4 -362v-320l4 -352h-143l6 139h-8z" />
    <glyph glyph-name="v" unicode="v" horiz-adv-x="987" 
d="M563 0h-141l-242 672l-135 362h154l131 -362l162 -467h4l163 467l129 362h154l-135 -362z" />
    <glyph glyph-name="w" unicode="w" horiz-adv-x="1447" 
d="M516 0h-141l-211 672l-113 362h156l104 -362l142 -475h6l217 530l-98 307l149 -2l94 -307l166 -522h4l146 469l108 362h160l-123 -362l-211 -672h-141l-182 555h-5z" />
    <glyph glyph-name="x" unicode="x" horiz-adv-x="964" 
d="M199 0h-174l254 352l124 170v2l-110 148l-266 362h170l254 -358l34 -47h2l31 45l244 360h172l-262 -362l-109 -150v-2l127 -168l254 -352h-178l-238 352l-43 66h-4l-43 -66z" />
    <glyph glyph-name="y" unicode="y" horiz-adv-x="1001" 
d="M444 -369h-153l141 367l-250 674l-139 362h160l129 -362l170 -475h4l166 475l129 362h162l-142 -360z" />
    <glyph glyph-name="z" unicode="z" horiz-adv-x="864" 
d="M807 0h-754v100l555 826v4l-516 -4v108h688v-102l-549 -821v-5l576 3v-109z" />
    <glyph glyph-name="braceleft" unicode="{" horiz-adv-x="724" 
d="M414 109q0 -135 68.5 -208t197.5 -73v-94q-185 0 -290 83t-105 230v205q0 124 -72.5 200.5t-200.5 86.5v90q128 10 200.5 91t72.5 212v188q0 147 105 230.5t290 83.5v-95q-129 0 -197.5 -68t-68.5 -196v-160q0 -139 -58 -224t-166 -105v-4q108 -20 166 -102.5t58 -217.5
v-153z" />
    <glyph glyph-name="bar" unicode="|" horiz-adv-x="477" 
d="M178 -248v1698h121v-1698h-121z" />
    <glyph glyph-name="braceright" unicode="}" horiz-adv-x="724" 
d="M45 -266v94q129 0 197.5 73t68.5 208v153q0 135 58 217.5t166 102.5v4q-108 20 -166 105t-58 224v160q0 128 -68.5 196t-197.5 68v95q185 0 289 -83t104 -231v-188q0 -131 73 -212t202 -91v-90q-129 -10 -202 -87t-73 -200v-205q0 -148 -104 -230.5t-289 -82.5z" />
    <glyph glyph-name="asciitilde" unicode="~" horiz-adv-x="1036" 
d="M254 428h-143q0 117 59.5 186.5t151.5 69.5q55 0 113.5 -22.5t98.5 -49t83.5 -49t72.5 -22.5q46 0 71 37.5t25 105.5h144q0 -116 -60.5 -186t-154.5 -70q-53 0 -109.5 22.5t-96.5 49t-84 49t-75 22.5q-46 0 -71 -37t-25 -106z" />
    <glyph glyph-name="exclamdown" unicode="&#xa1;" horiz-adv-x="497" 
d="M162 1044h172v-210h-172v210zM319 637l9 -1006h-160l8 1006h143z" />
    <glyph glyph-name="cent" unicode="&#xa2;" horiz-adv-x="1081" 
d="M238 715q0 -209 84 -320.5t241 -111.5q123 3 199 77t96 209h143q-19 -168 -119 -271t-261 -118l4 -180h-152l4 180q-179 23 -280 164t-101 367q0 224 101 365t280 167l-6 170h156l-4 -166q158 -13 256.5 -110t117.5 -256h-145q-19 125 -94 192.5t-195 67.5
q-157 0 -241 -110.5t-84 -315.5z" />
    <glyph glyph-name="sterling" unicode="&#xa3;" horiz-adv-x="1157" 
d="M61 0v98q113 12 161 78.5t48 208.5v274h-159v115h159v322q0 158 97.5 248t267.5 90q169 0 265.5 -88.5t96.5 -243.5h-139q0 106 -58 162.5t-165 56.5t-164 -56.5t-57 -162.5v-328h297v-115h-297v-276q0 -199 -99 -268h516q54 0 88.5 34.5t43.5 98.5h135
q-12 -117 -77.5 -182.5t-168.5 -65.5h-791z" />
    <glyph glyph-name="currency" unicode="&#xa4;" horiz-adv-x="1179" 
d="M971 162l-137 149q-103 -61 -242 -61q-143 0 -244 63l-139 -151l-111 110l152 131q-72 101 -72 250q0 140 68 244l-150 131l109 109l139 -148q101 66 248 66q143 0 246 -64l137 146l108 -107l-149 -131q70 -103 70 -246q0 -146 -74 -250l151 -131zM313 653
q0 -136 73.5 -211t205.5 -75q104 0 172 47l39 35q65 71 65 204q0 116 -53 187l-55 53q-65 45 -168 45q-109 0 -180 -53l-41 -39q-58 -74 -58 -193z" />
    <glyph glyph-name="yen" unicode="&#xa5;" horiz-adv-x="1212" 
d="M1055 506h-885v110h305l-422 797h158l395 -778h6l379 778h162l-410 -797h312v-110zM170 395h885v-108h-369l4 -287h-155l2 287h-367v108z" />
    <glyph glyph-name="brokenbar" unicode="&#xa6;" horiz-adv-x="477" 
d="M178 672v778h121v-778h-121zM178 -248v778h121v-778h-121z" />
    <glyph glyph-name="section" unicode="&#xa7;" horiz-adv-x="1058" 
d="M946 291q0 -142 -111.5 -226.5t-302.5 -84.5q-203 0 -317.5 98.5t-114.5 275.5h142q0 -127 71.5 -194.5t204.5 -67.5q136 0 211.5 52.5t75.5 146.5q0 42 -23 72t-62 48.5t-89.5 31.5t-106 24.5t-111 24.5t-106 34.5t-88.5 51t-60.5 77.5t-21.5 111q3 116 80 190
q-83 73 -80 189q3 135 103.5 212t275.5 77q186 0 291.5 -88.5t105.5 -245.5h-143q0 106 -66.5 163.5t-193.5 57.5q-110 0 -169.5 -46t-59.5 -132q0 -54 36.5 -90t95.5 -54.5t129.5 -32.5t141.5 -33t130 -47t95.5 -82.5t36.5 -133.5q0 -121 -78 -199q78 -68 78 -180zM281 764
q0 -49 28 -82.5t80.5 -53t106 -31.5t127.5 -27.5t122 -32.5q60 51 60 133q0 47 -28 79.5t-81 51.5t-107 31t-128 28t-123 33q-57 -45 -57 -129z" />
    <glyph glyph-name="dieresis" unicode="&#xa8;" horiz-adv-x="1228" 
d="M631 1243v158h160v-158h-160zM281 1243v158h159v-158h-159z" />
    <glyph glyph-name="copyright" unicode="&#xa9;" horiz-adv-x="1673" 
d="M94 715q0 152 58.5 289.5t158 237t237 158t288.5 58.5q152 0 289.5 -58.5t237 -158t158 -237t58.5 -289.5q0 -151 -58.5 -288.5t-158 -237t-237 -158t-289.5 -58.5q-202 0 -372.5 99.5t-270 270t-99.5 372.5zM168 715q0 -179 91.5 -334.5t245.5 -246.5t331 -91
q134 0 258 54t214 144.5t143.5 215t53.5 258.5q0 180 -90.5 335.5t-245 247t-333.5 91.5q-133 0 -256 -54t-213.5 -145t-144.5 -215.5t-54 -259.5zM440 713q0 205 107 322.5t295 117.5q157 0 252 -80t104 -219h-106q-10 101 -76 156t-176 55q-137 0 -212 -92t-75 -262
q0 -167 75.5 -258t213.5 -91q115 0 180 60t70 170h108q-12 -148 -107.5 -233t-250.5 -85q-187 0 -294.5 117.5t-107.5 321.5z" />
    <glyph glyph-name="ordfeminine" unicode="&#xaa;" horiz-adv-x="765" 
d="M514 909q-67 -123 -231 -123q-100 0 -158.5 44t-58.5 126q0 107 112 163.5t320 56.5v43q0 57 -36.5 86.5t-105.5 29.5q-73 0 -114 -31t-41 -85h-111q0 98 72.5 154.5t193.5 56.5q120 0 187 -61.5t67 -170.5v-254q0 -57 37 -57q46 0 70 12v-80q-64 -33 -119 -33
q-38 0 -60 21.5t-22 58.5v43h-2zM178 963q0 -39 31.5 -61.5t83.5 -22.5q98 0 151.5 51t53.5 133v37q-161 0 -240.5 -33t-79.5 -104z" />
    <glyph glyph-name="guillemotletf" unicode="&#xab;" horiz-adv-x="890" 
d="M221 522l225 -426h-143l-229 426l229 424h143zM575 522l230 -426h-143l-232 426l232 424h143z" />
    <glyph glyph-name="logicalnot" unicode="&#xac;" horiz-adv-x="1036" 
d="M786 721h-706v117h838v-459h-132v342z" />
    <glyph glyph-name="registered" unicode="&#xae;" horiz-adv-x="1316" 
d="M102 879q0 114 44 217t118 177.5t177 118.5t216 44q152 0 280 -74.5t202.5 -202.5t74.5 -280q0 -113 -44 -216t-118.5 -177t-177.5 -118t-217 -44q-113 0 -216 44t-177 118t-118 177t-44 216zM174 879q0 -104 39 -194.5t104.5 -153t154 -98.5t185.5 -36q132 0 243 60.5
t177 172t66 249.5q0 139 -66.5 250.5t-177 172t-242.5 60.5q-131 0 -241 -60.5t-176 -172t-66 -250.5zM446 565l5 168v273l-5 188h207q246 0 246 -184q0 -142 -135 -187v-2l158 -256h-91l-147 242h-156v-74l2 -168h-84zM528 874h119q80 0 124 34.5t44 97.5q0 59 -44 90.5
t-124 31.5h-117z" />
    <glyph glyph-name="macron" unicode="&#xaf;" horiz-adv-x="1228" 
d="M244 1251v97h526v-97h-526z" />
    <glyph glyph-name="degree" unicode="&#xb0;" horiz-adv-x="780" 
d="M389 817q-126 0 -216.5 89.5t-90.5 217.5q0 126 91 217t216 91q129 0 218 -90.5t89 -217.5q0 -129 -88.5 -218t-218.5 -89zM389 907q93 0 156 64t63 153q0 88 -64 153.5t-155 65.5q-90 0 -153.5 -66t-63.5 -153q0 -88 63.5 -152.5t153.5 -64.5z" />
    <glyph glyph-name="plusminus" unicode="&#xb1;" horiz-adv-x="1036" 
d="M461 258l-2 358h-359v113h359v358h116v-358h361v-113h-361l3 -358h-117zM100 6v115h836v-115h-836z" />
    <glyph glyph-name="twosuperior" unicode="&#xb2;" 
d="M231 1356h-108q0 137 81.5 216t225.5 79q116 0 190 -60t74 -166q0 -60 -35 -113t-135 -153q-213 -213 -264 -262h475v-92h-626v61q35 35 101.5 101t110 109.5t78.5 80.5q116 118 151.5 167t35.5 99q0 68 -46 104t-118 36q-91 0 -141 -54.5t-50 -152.5z" />
    <glyph glyph-name="threesuperior" unicode="&#xb3;" 
d="M418 1651q137 0 215 -57t78 -154q0 -65 -51 -115t-130 -63v-2q98 -13 155.5 -71t57.5 -142q0 -119 -86 -186.5t-241 -67.5q-154 0 -242 71t-88 193h107q0 -83 58 -129.5t163 -46.5q102 0 158.5 43t56.5 120q0 75 -64.5 116.5t-183.5 41.5h-51v86h43q107 0 167 37.5
t60 104.5q0 63 -48 98t-134 35q-90 0 -140.5 -44t-52.5 -122h-110q0 118 80.5 186t222.5 68z" />
    <glyph glyph-name="acute" unicode="&#xb4;" horiz-adv-x="1228" 
d="M854 1413l-281 -225h-110l194 225h197z" />
    <glyph glyph-name="paragraph" unicode="&#xb6;" horiz-adv-x="1288" 
d="M965 -369l6 394v1019l-6 369h133l-4 -369v-1019l4 -394h-133zM649 -369l4 394v284q-287 12 -441.5 155t-154.5 398q0 253 153 395t439 154v2h133l-4 -369v-1019l4 -394h-133zM201 862q0 -210 110 -316.5t342 -109.5v608l-2 244q-234 -6 -342 -112.5t-108 -313.5z" />
    <glyph glyph-name="periodcentered" unicode="&#xb7;" horiz-adv-x="442" 
d="M131 539v178h180v-178h-180z" />
    <glyph glyph-name="cedilla" unicode="&#xb8;" horiz-adv-x="1228" 
d="M418 -362q-67 0 -112.5 30.5t-45.5 77.5h90q0 -19 19 -31t49 -12t47.5 18.5t17.5 49.5q0 35 -23 55t-63 20h-71l32 189h91l-23 -125q72 0 109.5 -38t37.5 -101q0 -60 -40 -96.5t-115 -36.5z" />
    <glyph glyph-name="onesuperior" unicode="&#xb9;" 
d="M219 805v113h227v600q-21 -17 -113 -67.5t-126 -64.5v99q40 21 132.5 75.5t121.5 77.5h96l-2 -219v-501h205v-113h-541z" />
    <glyph glyph-name="ordmasculine" unicode="&#xba;" horiz-adv-x="765" 
d="M690 1106q0 -148 -83 -234t-226 -86q-141 0 -223 86t-82 234q0 151 82 237.5t223 86.5q143 0 226 -87t83 -237zM203 1108q0 -107 46.5 -167t131.5 -60q86 0 133 59.5t47 167.5t-47 167.5t-133 59.5q-85 0 -131.5 -60t-46.5 -167z" />
    <glyph glyph-name="guillemotright" unicode="&#xbb;" horiz-adv-x="890" 
d="M670 522l-226 424h144l229 -424l-229 -426h-144zM315 522l-229 424h143l232 -424l-232 -426h-143z" />
    <glyph glyph-name="onequarter" unicode="&#xbc;" horiz-adv-x="1863" 
d="M219 594v113h227v600q-21 -17 -113 -67t-126 -64v98q40 21 132.5 75.5t121.5 77.5h96l-2 -219v-501h205v-113h-541zM406 0l1054 1415h119l-1053 -1415h-120zM1094 213v90l419 531h146l-2 -220v-315h139v-86h-139v-43l2 -170h-107l4 170v43h-462zM1198 299h358v436z" />
    <glyph glyph-name="onehalf" unicode="&#xbd;" horiz-adv-x="1863" 
d="M219 594v113h227v600q-21 -17 -113 -67t-126 -64v98q40 21 132.5 75.5t121.5 77.5h96l-2 -219v-501h205v-113h-541zM406 0l1054 1415h119l-1053 -1415h-120zM1257 551h-108q0 137 81.5 216t225.5 79q116 0 190 -59.5t74 -165.5q0 -60 -35 -113.5t-135 -153.5
q-213 -213 -264 -262h475v-92h-626v61q35 35 101.5 101t110 109.5t78.5 80.5q116 118 151.5 167t35.5 99q0 68 -46 104t-118 36q-91 0 -141 -54.5t-50 -152.5z" />
    <glyph glyph-name="threequarters" unicode="&#xbe;" horiz-adv-x="1863" 
d="M418 1440q137 0 215 -57t78 -154q0 -65 -51 -115t-130 -63v-2q98 -13 155.5 -71t57.5 -142q0 -119 -86 -186.5t-241 -67.5q-154 0 -242 71t-88 193h107q0 -83 58 -129.5t163 -46.5q102 0 158.5 43.5t56.5 120.5q0 75 -64 116t-184 41h-51v86h43q107 0 167 37.5t60 104.5
q0 63 -48 98t-134 35q-90 0 -140.5 -44t-52.5 -122h-110q0 118 80.5 186t222.5 68zM406 0l1054 1415h119l-1053 -1415h-120zM1094 213v90l419 531h146l-2 -220v-315h139v-86h-139v-43l2 -170h-107l4 170v43h-462zM1198 299h358v436z" />
    <glyph glyph-name="questiondown" unicode="&#xbf;" horiz-adv-x="968" 
d="M559 1044v-210h-172v210h172zM547 641v-100q0 -55 -36 -115.5t-87 -114.5t-102 -109t-87 -117.5t-36 -121.5q0 -113 73 -175t207 -62q141 0 217 87.5t76 247.5h146q0 -209 -118.5 -328.5t-324.5 -119.5q-195 0 -305.5 93.5t-110.5 256.5q0 67 35 136.5t85.5 126.5
t101 110.5t85.5 108t35 100.5v96h146z" />
    <glyph glyph-name="Agrave" unicode="&#xc0;" horiz-adv-x="1290" 
d="M297 1681h215l203 -170h-129zM213 0h-172l135 352l379 1061h182l375 -1061l135 -352h-170l-121 352l-16 47h-592l-14 -47zM641 1249l-244 -721h494l-242 721h-8z" />
    <glyph glyph-name="Aacute" unicode="&#xc1;" horiz-adv-x="1290" 
d="M989 1681l-289 -170h-129l203 170h215zM213 0h-172l135 352l379 1061h182l375 -1061l135 -352h-170l-121 352l-16 47h-592l-14 -47zM641 1249l-244 -721h494l-242 721h-8z" />
    <glyph glyph-name="Acircumflex" unicode="&#xc2;" horiz-adv-x="1290" 
d="M532 1511h-151l190 177h146l190 -177h-151l-113 97zM213 0h-172l135 352l379 1061h182l375 -1061l135 -352h-170l-121 352l-16 47h-592l-14 -47zM641 1249l-244 -721h494l-242 721h-8z" />
    <glyph glyph-name="Atilde" unicode="&#xc3;" horiz-adv-x="1290" 
d="M512 1511h-86q0 70 39.5 111t103.5 41q44 0 94 -29.5t68 -29.5q57 0 57 63h86q0 -68 -39.5 -109.5t-103.5 -41.5q-34 0 -84.5 29.5t-77.5 29.5q-57 0 -57 -64zM213 0h-172l135 352l379 1061h182l375 -1061l135 -352h-170l-121 352l-16 47h-592l-14 -47zM641 1249
l-244 -721h494l-242 721h-8z" />
    <glyph glyph-name="Adieresis" unicode="&#xc4;" horiz-adv-x="1290" 
d="M739 1538v145h160v-145h-160zM389 1538v145h160v-145h-160zM213 0h-172l135 352l379 1061h182l375 -1061l135 -352h-170l-121 352l-16 47h-592l-14 -47zM641 1249l-244 -721h494l-242 721h-8z" />
    <glyph glyph-name="Aring" unicode="&#xc5;" horiz-adv-x="1290" 
d="M643 1450q-60 0 -103.5 43.5t-43.5 103.5t43.5 103t103.5 43t102.5 -43t42.5 -103t-42.5 -103.5t-102.5 -43.5zM643 1516q31 0 53.5 23.5t22.5 57.5t-22.5 58t-53.5 24q-32 0 -54 -24t-22 -58t22 -57.5t54 -23.5zM213 0h-172l135 352l379 1061h182l375 -1061l135 -352
h-170l-121 352l-16 47h-592l-14 -47zM641 1249l-244 -721h494l-242 721h-8z" />
    <glyph glyph-name="AE" unicode="&#xc6;" horiz-adv-x="1828" 
d="M160 0h-185l187 322l596 1091h956v-127h-700v-485h672v-127h-672v-547h721v-127h-873l6 352v47h-499l-25 -49zM850 1284l-406 -756h424v756h-18z" />
    <glyph glyph-name="Ccedilla" unicode="&#xc7;" horiz-adv-x="1388" 
d="M735 -362q-67 0 -112 30.5t-45 77.5h90q0 -19 18.5 -31t48.5 -12q31 0 48.5 18.5t17.5 49.5q0 35 -23 55t-63 20h-72l23 136q-261 22 -413.5 216.5t-152.5 512.5q0 329 170 526t455 197q252 0 406.5 -137t171.5 -371h-152q-20 179 -133 280t-295 101q-220 0 -344.5 -158
t-124.5 -438q0 -283 125 -444t346 -161q187 0 300 108.5t130 301.5h152q-23 -238 -170 -382t-381 -154l-13 -70q72 0 110 -38t38 -101q0 -60 -40.5 -96.5t-115.5 -36.5z" />
    <glyph glyph-name="Egrave" unicode="&#xc8;" horiz-adv-x="1150" 
d="M264 1681h215l203 -170h-129zM1057 0h-871l4 352v711l-4 350h850v-127h-700v-485h672v-127h-672v-547h721v-127z" />
    <glyph glyph-name="Eacute" unicode="&#xc9;" horiz-adv-x="1150" 
d="M956 1681l-288 -170h-129l202 170h215zM1057 0h-871l4 352v711l-4 350h850v-127h-700v-485h672v-127h-672v-547h721v-127z" />
    <glyph glyph-name="Ecircumflex" unicode="&#xca;" horiz-adv-x="1150" 
d="M500 1511h-152l191 177h145l190 -177h-151l-113 97zM1057 0h-871l4 352v711l-4 350h850v-127h-700v-485h672v-127h-672v-547h721v-127z" />
    <glyph glyph-name="Edieresis" unicode="&#xcb;" horiz-adv-x="1150" 
d="M707 1538v145h159v-145h-159zM356 1538v145h160v-145h-160zM1057 0h-871l4 352v711l-4 350h850v-127h-700v-485h672v-127h-672v-547h721v-127z" />
    <glyph glyph-name="Igrave" unicode="&#xcc;" horiz-adv-x="530" 
d="M-82 1681h215l203 -170h-129zM344 0h-158l4 352v709l-4 352h158l-4 -352v-709z" />
    <glyph glyph-name="Iacute" unicode="&#xcd;" horiz-adv-x="530" 
d="M610 1681l-288 -170h-129l202 170h215zM344 0h-158l4 352v709l-4 352h158l-4 -352v-709z" />
    <glyph glyph-name="Icircumflex" unicode="&#xce;" horiz-adv-x="530" 
d="M156 1511h-152l191 177h145l190 -177h-151l-113 97zM344 0h-158l4 352v709l-4 352h158l-4 -352v-709z" />
    <glyph glyph-name="Idieresis" unicode="&#xcf;" horiz-adv-x="530" 
d="M360 1538v145h160v-145h-160zM10 1538v145h160v-145h-160zM344 0h-158l4 352v709l-4 352h158l-4 -352v-709z" />
    <glyph glyph-name="Eth" unicode="&#xd0;" horiz-adv-x="1427" 
d="M618 0h-425l4 350v301h-136v115h136v297l-4 350h425q327 0 519 -189.5t192 -512.5q0 -326 -192 -518.5t-519 -192.5zM735 651h-389v-524h270q262 0 412 155t150 427q0 270 -149.5 423.5t-410.5 153.5h-272v-520h389v-115z" />
    <glyph glyph-name="Ntilde" unicode="&#xd1;" horiz-adv-x="1484" 
d="M610 1511h-86q0 70 40 111t104 41q44 0 93.5 -29.5t67.5 -29.5q58 0 58 63h86q0 -68 -40 -109.5t-104 -41.5q-34 0 -84 29.5t-77 29.5q-58 0 -58 -64zM344 0h-158l4 352v707l-4 354h162l617 -921l172 -254h6v821l-6 354h159l-6 -354v-707l6 -352h-159l-633 928l-162 241
h-2v-817z" />
    <glyph glyph-name="Ograve" unicode="&#xd2;" horiz-adv-x="1480" 
d="M393 1681h215l203 -170h-129zM1382 715q0 -157 -42.5 -291t-122 -233t-202 -155t-274.5 -56t-274.5 56.5t-202.5 155.5t-123 233.5t-43 291.5q0 119 27 226.5t80.5 197t130 155t180 102t225.5 36.5q151 0 274 -56.5t202.5 -154.5t122 -228t42.5 -280zM252 711
q0 -171 57 -306.5t169 -215.5t263 -80t263 79.5t168.5 214.5t56.5 306q0 163 -56.5 297.5t-169 217.5t-262.5 83q-113 0 -206.5 -48t-154.5 -129.5t-94.5 -189.5t-33.5 -229z" />
    <glyph glyph-name="Oacute" unicode="&#xd3;" horiz-adv-x="1480" 
d="M1085 1681l-288 -170h-129l202 170h215zM1382 715q0 -157 -42.5 -291t-122 -233t-202 -155t-274.5 -56t-274.5 56.5t-202.5 155.5t-123 233.5t-43 291.5q0 119 27 226.5t80.5 197t130 155t180 102t225.5 36.5q151 0 274 -56.5t202.5 -154.5t122 -228t42.5 -280zM252 711
q0 -171 57 -306.5t169 -215.5t263 -80t263 79.5t168.5 214.5t56.5 306q0 163 -56.5 297.5t-169 217.5t-262.5 83q-113 0 -206.5 -48t-154.5 -129.5t-94.5 -189.5t-33.5 -229z" />
    <glyph glyph-name="Ocircumflex" unicode="&#xd4;" horiz-adv-x="1480" 
d="M631 1511h-152l191 177h145l191 -177h-152l-113 97zM1382 715q0 -157 -42.5 -291t-122 -233t-202 -155t-274.5 -56t-274.5 56.5t-202.5 155.5t-123 233.5t-43 291.5q0 119 27 226.5t80.5 197t130 155t180 102t225.5 36.5q151 0 274 -56.5t202.5 -154.5t122 -228
t42.5 -280zM252 711q0 -171 57 -306.5t169 -215.5t263 -80t263 79.5t168.5 214.5t56.5 306q0 163 -56.5 297.5t-169 217.5t-262.5 83q-113 0 -206.5 -48t-154.5 -129.5t-94.5 -189.5t-33.5 -229z" />
    <glyph glyph-name="Otilde" unicode="&#xd5;" horiz-adv-x="1480" 
d="M610 1511h-86q0 70 40 111t104 41q44 0 93.5 -29.5t67.5 -29.5q58 0 58 63h86q0 -68 -40 -109.5t-104 -41.5q-34 0 -84 29.5t-77 29.5q-58 0 -58 -64zM1382 715q0 -157 -42.5 -291t-122 -233t-202 -155t-274.5 -56t-274.5 56.5t-202.5 155.5t-123 233.5t-43 291.5
q0 119 27 226.5t80.5 197t130 155t180 102t225.5 36.5q151 0 274 -56.5t202.5 -154.5t122 -228t42.5 -280zM252 711q0 -171 57 -306.5t169 -215.5t263 -80t263 79.5t168.5 214.5t56.5 306q0 163 -56.5 297.5t-169 217.5t-262.5 83q-113 0 -206.5 -48t-154.5 -129.5
t-94.5 -189.5t-33.5 -229z" />
    <glyph glyph-name="Odieresis" unicode="&#xd6;" horiz-adv-x="1480" 
d="M836 1538v145h159v-145h-159zM485 1538v145h160v-145h-160zM1382 715q0 -157 -42.5 -291t-122 -233t-202 -155t-274.5 -56t-274.5 56.5t-202.5 155.5t-123 233.5t-43 291.5q0 119 27 226.5t80.5 197t130 155t180 102t225.5 36.5q151 0 274 -56.5t202.5 -154.5t122 -228
t42.5 -280zM252 711q0 -171 57 -306.5t169 -215.5t263 -80t263 79.5t168.5 214.5t56.5 306q0 163 -56.5 297.5t-169 217.5t-262.5 83q-113 0 -206.5 -48t-154.5 -129.5t-94.5 -189.5t-33.5 -229z" />
    <glyph glyph-name="multiply" unicode="&#xd7;" horiz-adv-x="1036" 
d="M262 281l-80 79l254 252l-254 258l80 80l256 -254l256 256l80 -80l-256 -260l258 -252l-82 -79l-256 254z" />
    <glyph glyph-name="Oslash" unicode="&#xd8;" horiz-adv-x="1556" 
d="M1423 715q0 -157 -42.5 -291t-122 -233t-202 -155t-274.5 -56q-263 0 -438 167l-158 -172h-166l246 269q-127 192 -127 473q0 119 27 226.5t80.5 197t130 155t180 102t225.5 36.5q258 0 428 -160l144 156h166l-230 -250q133 -189 133 -465zM293 711q0 -205 80 -353
l739 807q-132 142 -330 142q-113 0 -206.5 -48t-154.5 -129.5t-94.5 -189.5t-33.5 -229zM1270 709q0 203 -86 354l-740 -807q131 -147 338 -147q151 0 263 79.5t168.5 214.5t56.5 306z" />
    <glyph glyph-name="Ugrave" unicode="&#xd9;" horiz-adv-x="1376" 
d="M342 1681h215l203 -170h-129zM1202 508q0 -243 -138 -385.5t-372 -142.5q-238 0 -378 142.5t-140 385.5v551l-6 354h158l-4 -354v-541q0 -192 98 -302t270 -110q170 0 266.5 110t96.5 302v541l-4 354h157l-4 -354v-551z" />
    <glyph glyph-name="Uacute" unicode="&#xda;" horiz-adv-x="1376" 
d="M1034 1681l-289 -170h-129l203 170h215zM1202 508q0 -243 -138 -385.5t-372 -142.5q-238 0 -378 142.5t-140 385.5v551l-6 354h158l-4 -354v-541q0 -192 98 -302t270 -110q170 0 266.5 110t96.5 302v541l-4 354h157l-4 -354v-551z" />
    <glyph glyph-name="Ucircumflex" unicode="&#xdb;" horiz-adv-x="1376" 
d="M578 1511h-152l190 177h146l190 -177h-151l-113 97zM1202 508q0 -243 -138 -385.5t-372 -142.5q-238 0 -378 142.5t-140 385.5v551l-6 354h158l-4 -354v-541q0 -192 98 -302t270 -110q170 0 266.5 110t96.5 302v541l-4 354h157l-4 -354v-551z" />
    <glyph glyph-name="Udieresis" unicode="&#xdc;" horiz-adv-x="1376" 
d="M784 1538v145h160v-145h-160zM434 1538v145h160v-145h-160zM1202 508q0 -243 -138 -385.5t-372 -142.5q-238 0 -378 142.5t-140 385.5v551l-6 354h158l-4 -354v-541q0 -192 98 -302t270 -110q170 0 266.5 110t96.5 302v541l-4 354h157l-4 -354v-551z" />
    <glyph glyph-name="Yacute" unicode="&#xdd;" horiz-adv-x="1208" 
d="M942 1681l-289 -170h-129l203 170h215zM684 0h-160l6 352v123l-299 588l-184 350h180l172 -350l203 -410h4l203 408l174 352h178l-184 -354l-299 -584v-123z" />
    <glyph glyph-name="Thorn" unicode="&#xde;" horiz-adv-x="1218" 
d="M344 0h-158l4 309v797l-4 307h158l-4 -307h365q195 0 311.5 -107.5t116.5 -287.5q0 -184 -121.5 -293t-325.5 -109h-346zM340 979v-543h354q133 0 209 73.5t76 199.5t-71.5 198t-196.5 72h-371z" />
    <glyph glyph-name="germandbls" unicode="&#xdf;" horiz-adv-x="1202" 
d="M346 0h-149l4 352v570h-158v112h158v66q0 158 117.5 246t316.5 88q193 0 312.5 -91.5t119.5 -257.5q0 -272 -301 -327v-6q88 -7 156.5 -39.5t110.5 -82.5t63.5 -110t21.5 -127q0 -179 -133 -286t-336 -107h-145v113q228 -22 349.5 53t121.5 237q0 137 -90.5 211
t-257.5 74h-99v113q192 0 294 69.5t102 204.5q0 119 -76.5 182.5t-218.5 63.5q-138 0 -213.5 -65.5t-75.5 -184.5v-719z" />
    <glyph glyph-name="agrave" unicode="&#xe0;" horiz-adv-x="1073" 
d="M256 1413h197l194 -225h-110zM770 176q-96 -196 -362 -196q-141 0 -233.5 72t-92.5 206q0 176 179 267.5t511 97.5v98q0 111 -62.5 166t-193.5 55q-122 0 -190 -67t-68 -166h-141q0 84 33.5 151t91.5 109t131 64t155 22q191 0 287 -83.5t96 -244.5v-559q0 -34 19.5 -55
t52.5 -21q34 0 70 19v-113q-45 -18 -117 -18q-73 0 -117.5 38t-44.5 105v53h-4zM225 268q0 -80 57.5 -128t161.5 -48q153 0 239.5 94t86.5 240v92q-260 0 -402.5 -63.5t-142.5 -186.5z" />
    <glyph glyph-name="aacute" unicode="&#xe1;" horiz-adv-x="1073" 
d="M850 1413l-281 -225h-110l194 225h197zM770 176q-96 -196 -362 -196q-141 0 -233.5 72t-92.5 206q0 176 179 267.5t511 97.5v98q0 111 -62.5 166t-193.5 55q-122 0 -190 -67t-68 -166h-141q0 84 33.5 151t91.5 109t131 64t155 22q191 0 287 -83.5t96 -244.5v-559
q0 -34 19.5 -55t52.5 -21q34 0 70 19v-113q-45 -18 -117 -18q-73 0 -117.5 38t-44.5 105v53h-4zM225 268q0 -80 57.5 -128t161.5 -48q153 0 239.5 94t86.5 240v92q-260 0 -402.5 -63.5t-142.5 -186.5z" />
    <glyph glyph-name="acircumflex" unicode="&#xe2;" horiz-adv-x="1073" 
d="M397 1188h-125l193 225h131l190 -225h-122l-134 147zM770 176q-96 -196 -362 -196q-141 0 -233.5 72t-92.5 206q0 176 179 267.5t511 97.5v98q0 111 -62.5 166t-193.5 55q-122 0 -190 -67t-68 -166h-141q0 84 33.5 151t91.5 109t131 64t155 22q191 0 287 -83.5t96 -244.5
v-559q0 -34 19.5 -55t52.5 -21q34 0 70 19v-113q-45 -18 -117 -18q-73 0 -117.5 38t-44.5 105v53h-4zM225 268q0 -80 57.5 -128t161.5 -48q153 0 239.5 94t86.5 240v92q-260 0 -402.5 -63.5t-142.5 -186.5z" />
    <glyph glyph-name="atilde" unicode="&#xe3;" horiz-adv-x="1073" 
d="M358 1196h-86q0 190 156 190q32 0 65 -15.5t55.5 -33.5t48.5 -33.5t46 -15.5q70 0 70 103h86q0 -191 -150 -191q-29 0 -61 15.5t-55 33.5t-51.5 33.5t-53.5 15.5q-70 0 -70 -102zM770 176q-96 -196 -362 -196q-141 0 -233.5 72t-92.5 206q0 176 179 267.5t511 97.5v98
q0 111 -62.5 166t-193.5 55q-122 0 -190 -67t-68 -166h-141q0 84 33.5 151t91.5 109t131 64t155 22q191 0 287 -83.5t96 -244.5v-559q0 -34 19.5 -55t52.5 -21q34 0 70 19v-113q-45 -18 -117 -18q-73 0 -117.5 38t-44.5 105v53h-4zM225 268q0 -80 57.5 -128t161.5 -48
q153 0 239.5 94t86.5 240v92q-260 0 -402.5 -63.5t-142.5 -186.5z" />
    <glyph glyph-name="adieresis" unicode="&#xe4;" horiz-adv-x="1073" 
d="M625 1243v158h159v-158h-159zM274 1243v158h160v-158h-160zM770 176q-96 -196 -362 -196q-141 0 -233.5 72t-92.5 206q0 176 179 267.5t511 97.5v98q0 111 -62.5 166t-193.5 55q-122 0 -190 -67t-68 -166h-141q0 84 33.5 151t91.5 109t131 64t155 22q191 0 287 -83.5
t96 -244.5v-559q0 -34 19.5 -55t52.5 -21q34 0 70 19v-113q-45 -18 -117 -18q-73 0 -117.5 38t-44.5 105v53h-4zM225 268q0 -80 57.5 -128t161.5 -48q153 0 239.5 94t86.5 240v92q-260 0 -402.5 -63.5t-142.5 -186.5z" />
    <glyph glyph-name="aring" unicode="&#xe5;" horiz-adv-x="1073" 
d="M528 1133q-60 0 -103.5 43t-43.5 102q0 60 43.5 102.5t103.5 42.5t103 -42.5t43 -102.5q0 -59 -43 -102t-103 -43zM528 1198q31 0 53.5 24t22.5 56q0 34 -22.5 58t-53.5 24q-32 0 -53.5 -24t-21.5 -58q0 -33 21.5 -56.5t53.5 -23.5zM770 176q-96 -196 -362 -196
q-141 0 -233.5 72t-92.5 206q0 176 179 267.5t511 97.5v98q0 111 -62.5 166t-193.5 55q-122 0 -190 -67t-68 -166h-141q0 84 33.5 151t91.5 109t131 64t155 22q191 0 287 -83.5t96 -244.5v-559q0 -34 19.5 -55t52.5 -21q34 0 70 19v-113q-45 -18 -117 -18q-73 0 -117.5 38
t-44.5 105v53h-4zM225 268q0 -80 57.5 -128t161.5 -48q153 0 239.5 94t86.5 240v92q-260 0 -402.5 -63.5t-142.5 -186.5z" />
    <glyph glyph-name="ae" unicode="&#xe6;" horiz-adv-x="1757" 
d="M813 244q-55 -135 -164 -199.5t-250 -64.5q-138 0 -227.5 72t-89.5 206q0 181 181.5 282t508.5 107v74q0 107 -66 164t-190 57q-120 0 -189 -62t-69 -171h-141q0 84 33.5 151t91.5 109t131 64t155 22q267 0 344 -170h2q108 172 355 172q205 0 320.5 -127t115.5 -359v-65
h-752q-4 -203 79 -308.5t237 -105.5q120 0 194.5 65.5t96.5 190.5h141q-22 -177 -134.5 -272.5t-299.5 -95.5q-152 0 -257 68t-149 198zM1231 950q-137 0 -218.5 -86t-94.5 -246h606q-5 160 -81 246t-212 86zM225 268q0 -80 55 -128t154 -48q149 0 241 104t95 267v78
q-255 0 -400 -73t-145 -200z" />
    <glyph glyph-name="ccedilla" unicode="&#xe7;" horiz-adv-x="1060" 
d="M545 -362q-67 0 -112.5 30.5t-45.5 77.5h90q0 -19 19 -31t49 -12t47.5 18.5t17.5 49.5q0 35 -23 55t-63 20h-71l24 140q-180 25 -283.5 165.5t-103.5 360.5q0 249 127 396t342 147q173 0 288 -101.5t138 -273.5h-143q-19 124 -93 193t-190 69q-154 0 -241 -114.5
t-87 -315.5q0 -197 85.5 -308.5t236.5 -111.5q119 0 196 75.5t97 209.5h141q-19 -179 -133 -285.5t-289 -111.5l-12 -70q71 0 109 -38t38 -101q0 -60 -40 -96.5t-115 -36.5z" />
    <glyph glyph-name="egrave" unicode="&#xe8;" horiz-adv-x="1077" 
d="M279 1413h196l195 -225h-111zM983 348q-22 -173 -137 -270.5t-299 -97.5q-216 0 -336.5 141t-120.5 389q0 262 121.5 404.5t339.5 142.5q198 0 313 -128.5t123 -357.5v-65h-751q-6 -194 77.5 -304t237.5 -110q115 0 191 67t98 189h143zM553 950q-133 0 -216 -88.5
t-97 -243.5h604q-5 155 -82 243.5t-209 88.5z" />
    <glyph glyph-name="eacute" unicode="&#xe9;" horiz-adv-x="1077" 
d="M872 1413l-280 -225h-111l195 225h196zM983 348q-22 -173 -137 -270.5t-299 -97.5q-216 0 -336.5 141t-120.5 389q0 262 121.5 404.5t339.5 142.5q198 0 313 -128.5t123 -357.5v-65h-751q-6 -194 77.5 -304t237.5 -110q115 0 191 67t98 189h143zM553 950
q-133 0 -216 -88.5t-97 -243.5h604q-5 155 -82 243.5t-209 88.5z" />
    <glyph glyph-name="ecircumflex" unicode="&#xea;" horiz-adv-x="1077" 
d="M418 1188h-125l192 225h131l191 -225h-123l-133 147zM983 348q-22 -173 -137 -270.5t-299 -97.5q-216 0 -336.5 141t-120.5 389q0 262 121.5 404.5t339.5 142.5q198 0 313 -128.5t123 -357.5v-65h-751q-6 -194 77.5 -304t237.5 -110q115 0 191 67t98 189h143zM553 950
q-133 0 -216 -88.5t-97 -243.5h604q-5 155 -82 243.5t-209 88.5z" />
    <glyph glyph-name="edieresis" unicode="&#xeb;" horiz-adv-x="1077" 
d="M645 1243v158h160v-158h-160zM295 1243v158h160v-158h-160zM983 348q-22 -173 -137 -270.5t-299 -97.5q-216 0 -336.5 141t-120.5 389q0 262 121.5 404.5t339.5 142.5q198 0 313 -128.5t123 -357.5v-65h-751q-6 -194 77.5 -304t237.5 -110q115 0 191 67t98 189h143z
M553 950q-133 0 -216 -88.5t-97 -243.5h604q-5 155 -82 243.5t-209 88.5z" />
    <glyph glyph-name="igrave" unicode="&#xec;" horiz-adv-x="468" 
d="M-86 1413h197l194 -225h-110zM309 0h-149l4 352v320l-4 362h149l-4 -362v-320z" />
    <glyph glyph-name="iacute" unicode="&#xed;" horiz-adv-x="468" 
d="M571 1413l-280 -225h-111l195 225h196zM309 0h-149l4 352v320l-4 362h149l-4 -362v-320z" />
    <glyph glyph-name="icircumflex" unicode="&#xee;" horiz-adv-x="468" 
d="M104 1188h-124l192 225h131l191 -225h-123l-133 147zM309 0h-149l4 352v320l-4 362h149l-4 -362v-320z" />
    <glyph glyph-name="idieresis" unicode="&#xef;" horiz-adv-x="468" 
d="M332 1243v158h160v-158h-160zM-18 1243v158h159v-158h-159zM309 0h-149l4 352v320l-4 362h149l-4 -362v-320z" />
    <glyph glyph-name="eth" unicode="&#xf0;" horiz-adv-x="1114" 
d="M1012 545q0 -262 -123.5 -413.5t-337.5 -151.5t-338.5 143.5t-124.5 392.5q0 250 124.5 394.5t338.5 144.5q69 0 135 -27.5t111 -73.5h4q-29 110 -78 224h-324v110h273q-41 77 -72 127h152q31 -55 61 -127h229v-110h-180q150 -377 150 -633zM231 518q0 -203 84 -314.5
t236 -111.5q151 0 234 111.5t83 314.5q0 202 -83 313t-234 111q-152 0 -236 -111t-84 -313z" />
    <glyph glyph-name="ntilde" unicode="&#xf1;" horiz-adv-x="1085" 
d="M383 1196h-86q0 190 156 190q32 0 65 -15.5t55.5 -33.5t48.5 -33.5t46 -15.5q69 0 69 103h86q0 -191 -149 -191q-29 0 -61 15.5t-55 33.5t-51.5 33.5t-53.5 15.5q-70 0 -70 -102zM301 0h-145l4 352v320l-6 362h145l-6 -153h6q97 174 301 174q160 0 250 -103.5t90 -277.5
v-322l6 -352h-147l4 352v293q0 139 -64 218t-184 79q-126 0 -192 -82.5t-66 -238.5v-269z" />
    <glyph glyph-name="ograve" unicode="&#xf2;" horiz-adv-x="1101" 
d="M281 1413h196l195 -225h-111zM1014 516q0 -249 -124.5 -392.5t-338.5 -143.5t-338.5 143.5t-124.5 392.5t124.5 394t338.5 145t338.5 -145t124.5 -394zM231 518q0 -202 84.5 -314t235.5 -112t235 112t84 314q0 200 -84 312t-235 112t-235.5 -112t-84.5 -312z" />
    <glyph glyph-name="oacute" unicode="&#xf3;" horiz-adv-x="1101" 
d="M872 1413l-280 -225h-111l195 225h196zM1014 516q0 -249 -124.5 -392.5t-338.5 -143.5t-338.5 143.5t-124.5 392.5t124.5 394t338.5 145t338.5 -145t124.5 -394zM231 518q0 -202 84.5 -314t235.5 -112t235 112t84 314q0 200 -84 312t-235 112t-235.5 -112t-84.5 -312z
" />
    <glyph glyph-name="ocircumflex" unicode="&#xf4;" horiz-adv-x="1101" 
d="M420 1188h-125l192 225h131l191 -225h-123l-133 147zM1014 516q0 -249 -124.5 -392.5t-338.5 -143.5t-338.5 143.5t-124.5 392.5t124.5 394t338.5 145t338.5 -145t124.5 -394zM231 518q0 -202 84.5 -314t235.5 -112t235 112t84 314q0 200 -84 312t-235 112t-235.5 -112
t-84.5 -312z" />
    <glyph glyph-name="otilde" unicode="&#xf5;" horiz-adv-x="1101" 
d="M383 1196h-86q0 190 156 190q32 0 65 -15.5t55.5 -33.5t48.5 -33.5t46 -15.5q69 0 69 103h86q0 -191 -149 -191q-29 0 -61 15.5t-55 33.5t-51.5 33.5t-53.5 15.5q-70 0 -70 -102zM1014 516q0 -249 -124.5 -392.5t-338.5 -143.5t-338.5 143.5t-124.5 392.5t124.5 394
t338.5 145t338.5 -145t124.5 -394zM231 518q0 -202 84.5 -314t235.5 -112t235 112t84 314q0 200 -84 312t-235 112t-235.5 -112t-84.5 -312z" />
    <glyph glyph-name="odieresis" unicode="&#xf6;" horiz-adv-x="1101" 
d="M647 1243v158h160v-158h-160zM297 1243v158h160v-158h-160zM1014 516q0 -249 -124.5 -392.5t-338.5 -143.5t-338.5 143.5t-124.5 392.5t124.5 394t338.5 145t338.5 -145t124.5 -394zM231 518q0 -202 84.5 -314t235.5 -112t235 112t84 314q0 200 -84 312t-235 112
t-235.5 -112t-84.5 -312z" />
    <glyph glyph-name="divide" unicode="&#xf7;" horiz-adv-x="1036" 
d="M438 866v168h158v-168h-158zM59 539v114h918v-114h-918zM438 156v168h158v-168h-158z" />
    <glyph glyph-name="oslash" unicode="&#xf8;" horiz-adv-x="1155" 
d="M1044 516q0 -249 -124 -392.5t-338 -143.5q-177 0 -295 100l-66 -80h-153l141 170q-90 134 -90 346q0 249 124.5 394t338.5 145q165 0 284 -92l60 71h155l-133 -160q96 -145 96 -358zM262 518q0 -139 41 -235l483 581q-81 78 -204 78q-151 0 -235.5 -112t-84.5 -312z
M901 518q0 144 -45 246l-487 -586q80 -86 213 -86q151 0 235 112t84 314z" />
    <glyph glyph-name="ugrave" unicode="&#xf9;" horiz-adv-x="1093" 
d="M272 1413h197l195 -225h-111zM793 139q-37 -77 -114.5 -118t-184.5 -41q-163 0 -256 106.5t-93 296.5v289l-6 362h154l-6 -362v-279q0 -145 58 -224t163 -79q140 0 213.5 93.5t73.5 262.5l-2 226l-5 362h150l-4 -362v-320l4 -352h-143l6 139h-8z" />
    <glyph glyph-name="uacute" unicode="&#xfa;" horiz-adv-x="1093" 
d="M866 1413l-280 -225h-111l195 225h196zM793 139q-37 -77 -114.5 -118t-184.5 -41q-163 0 -256 106.5t-93 296.5v289l-6 362h154l-6 -362v-279q0 -145 58 -224t163 -79q140 0 213.5 93.5t73.5 262.5l-2 226l-5 362h150l-4 -362v-320l4 -352h-143l6 139h-8z" />
    <glyph glyph-name="ucircumflex" unicode="&#xfb;" horiz-adv-x="1093" 
d="M414 1188h-125l192 225h131l191 -225h-123l-133 147zM793 139q-37 -77 -114.5 -118t-184.5 -41q-163 0 -256 106.5t-93 296.5v289l-6 362h154l-6 -362v-279q0 -145 58 -224t163 -79q140 0 213.5 93.5t73.5 262.5l-2 226l-5 362h150l-4 -362v-320l4 -352h-143l6 139h-8z
" />
    <glyph glyph-name="udieresis" unicode="&#xfc;" horiz-adv-x="1093" 
d="M641 1243v158h160v-158h-160zM291 1243v158h160v-158h-160zM793 139q-37 -77 -114.5 -118t-184.5 -41q-163 0 -256 106.5t-93 296.5v289l-6 362h154l-6 -362v-279q0 -145 58 -224t163 -79q140 0 213.5 93.5t73.5 262.5l-2 226l-5 362h150l-4 -362v-320l4 -352h-143l6 139
h-8z" />
    <glyph glyph-name="yacute" unicode="&#xfd;" horiz-adv-x="1001" 
d="M817 1413l-280 -225h-111l195 225h196zM444 -369h-153l141 367l-250 674l-139 362h160l129 -362l170 -475h4l166 475l129 362h162l-142 -360z" />
    <glyph glyph-name="thorn" unicode="&#xfe;" horiz-adv-x="1128" 
d="M299 -369h-145l4 353v1077l-4 352h145l-4 -352v-187h4q52 94 134.5 137.5t207.5 43.5q183 0 289 -145t106 -394t-113.5 -392.5t-310.5 -143.5q-103 0 -185.5 46t-127.5 140h-4v-180zM287 518q0 -203 77 -314.5t218 -111.5q149 0 231 113t82 317q0 200 -80.5 310
t-226.5 110q-143 0 -222 -111.5t-79 -312.5z" />
    <glyph glyph-name="ydieresis" unicode="&#xff;" horiz-adv-x="1001" 
d="M592 1243v158h160v-158h-160zM242 1243v158h159v-158h-159zM444 -369h-153l141 367l-250 674l-139 362h160l129 -362l170 -475h4l166 475l129 362h162l-142 -360z" />
    <glyph glyph-name="Amacron" unicode="&#x100;" horiz-adv-x="1290" 
d="M379 1546v96h526v-96h-526zM213 0h-172l135 352l379 1061h182l375 -1061l135 -352h-170l-121 352l-16 47h-592l-14 -47zM641 1249l-244 -721h494l-242 721h-8z" />
    <glyph glyph-name="amacron" unicode="&#x101;" horiz-adv-x="1073" 
d="M264 1239v96h527v-96h-527zM770 176q-96 -196 -362 -196q-141 0 -233.5 72t-92.5 206q0 176 179 267.5t511 97.5v98q0 111 -62.5 166t-193.5 55q-122 0 -190 -67t-68 -166h-141q0 84 33.5 151t91.5 109t131 64t155 22q191 0 287 -83.5t96 -244.5v-559q0 -34 19.5 -55
t52.5 -21q34 0 70 19v-113q-45 -18 -117 -18q-73 0 -117.5 38t-44.5 105v53h-4zM225 268q0 -80 57.5 -128t161.5 -48q153 0 239.5 94t86.5 240v92q-260 0 -402.5 -63.5t-142.5 -186.5z" />
    <glyph glyph-name="Abreve" unicode="&#x102;" horiz-adv-x="1290" 
d="M426 1673h92q6 -69 127 -69q117 0 127 69h88q-3 -78 -56.5 -121t-158.5 -43q-209 0 -219 164zM213 0h-172l135 352l379 1061h182l375 -1061l135 -352h-170l-121 352l-16 47h-592l-14 -47zM641 1249l-244 -721h494l-242 721h-8z" />
    <glyph glyph-name="abreve" unicode="&#x103;" horiz-adv-x="1073" 
d="M276 1403h107q6 -61 44.5 -93t102.5 -32q63 0 102.5 32.5t45.5 92.5h102q-3 -107 -68.5 -163t-181.5 -56q-118 0 -184 55.5t-70 163.5zM770 176q-96 -196 -362 -196q-141 0 -233.5 72t-92.5 206q0 176 179 267.5t511 97.5v98q0 111 -62.5 166t-193.5 55q-122 0 -190 -67
t-68 -166h-141q0 84 33.5 151t91.5 109t131 64t155 22q191 0 287 -83.5t96 -244.5v-559q0 -34 19.5 -55t52.5 -21q34 0 70 19v-113q-45 -18 -117 -18q-73 0 -117.5 38t-44.5 105v53h-4zM225 268q0 -80 57.5 -128t161.5 -48q153 0 239.5 94t86.5 240v92q-260 0 -402.5 -63.5
t-142.5 -186.5z" />
    <glyph glyph-name="Aogonek" unicode="&#x104;" horiz-adv-x="1290" 
d="M213 0h-172l135 352l379 1061h182l375 -1061l135 -352h-88q-147 -61 -196.5 -102.5t-49.5 -90.5q0 -63 101 -63q35 0 82.5 13.5t81.5 29.5v-98q-42 -22 -103.5 -40t-118.5 -18q-85 0 -134.5 37t-49.5 96q0 76 66 141.5t223 139.5l-105 307l-16 47h-592l-14 -47zM641 1249
l-244 -721h494l-242 721h-8z" />
    <glyph glyph-name="aogonek" unicode="&#x105;" horiz-adv-x="1073" 
d="M770 176q-96 -196 -362 -196q-141 0 -233.5 72t-92.5 206q0 176 179 267.5t511 97.5v98q0 111 -62.5 166t-193.5 55q-122 0 -190 -67t-68 -166h-141q0 84 33.5 151t91.5 109t131 64t155 22q191 0 287 -83.5t96 -244.5v-559q0 -34 19.5 -55t52.5 -21q34 0 70 19v-113
q-3 -1 -33 -10q-128 -55 -172.5 -95t-44.5 -86q0 -63 100 -63q35 0 82.5 13.5t81.5 29.5v-98q-109 -58 -221 -58q-85 0 -134.5 37t-49.5 96q0 65 44.5 120t147.5 112q-80 38 -80 127v53h-4zM225 268q0 -80 57.5 -128t161.5 -48q153 0 239.5 94t86.5 240v92
q-260 0 -402.5 -63.5t-142.5 -186.5z" />
    <glyph glyph-name="Cacute" unicode="&#x106;" horiz-adv-x="1388" 
d="M1069 1681l-289 -170h-129l203 170h215zM1307 516q-23 -247 -179 -391.5t-403 -144.5q-286 0 -455.5 197.5t-169.5 533.5q0 329 170 526t455 197q252 0 406.5 -137t171.5 -371h-152q-20 179 -133 280t-295 101q-220 0 -344.5 -158t-124.5 -438q0 -283 125 -444t346 -161
q187 0 300 108.5t130 301.5h152z" />
    <glyph glyph-name="cacute" unicode="&#x107;" horiz-adv-x="1060" 
d="M856 1413l-281 -225h-110l194 225h197zM987 377q-19 -183 -136.5 -290t-297.5 -107q-213 0 -338 144t-125 388q0 249 127 396t342 147q173 0 288 -101.5t138 -273.5h-143q-19 124 -93 193t-190 69q-154 0 -241 -114.5t-87 -315.5q0 -197 85.5 -308.5t236.5 -111.5
q119 0 196 75.5t97 209.5h141z" />
    <glyph glyph-name="Ccircumflex" unicode="&#x108;" horiz-adv-x="1388" 
d="M614 1511h-151l190 177h146l190 -177h-151l-113 97zM1307 516q-23 -247 -179 -391.5t-403 -144.5q-286 0 -455.5 197.5t-169.5 533.5q0 329 170 526t455 197q252 0 406.5 -137t171.5 -371h-152q-20 179 -133 280t-295 101q-220 0 -344.5 -158t-124.5 -438
q0 -283 125 -444t346 -161q187 0 300 108.5t130 301.5h152z" />
    <glyph glyph-name="ccircumflex" unicode="&#x109;" horiz-adv-x="1060" 
d="M401 1188h-125l193 225h131l191 -225h-123l-133 147zM987 377q-19 -183 -136.5 -290t-297.5 -107q-213 0 -338 144t-125 388q0 249 127 396t342 147q173 0 288 -101.5t138 -273.5h-143q-19 124 -93 193t-190 69q-154 0 -241 -114.5t-87 -315.5q0 -197 85.5 -308.5
t236.5 -111.5q119 0 196 75.5t97 209.5h141z" />
    <glyph glyph-name="Cdotaccent" unicode="&#x10a;" horiz-adv-x="1388" 
d="M645 1522v149h158v-149h-158zM1307 516q-23 -247 -179 -391.5t-403 -144.5q-286 0 -455.5 197.5t-169.5 533.5q0 329 170 526t455 197q252 0 406.5 -137t171.5 -371h-152q-20 179 -133 280t-295 101q-220 0 -344.5 -158t-124.5 -438q0 -283 125 -444t346 -161
q187 0 300 108.5t130 301.5h152z" />
    <glyph glyph-name="cdotaccent" unicode="&#x10b;" horiz-adv-x="1060" 
d="M455 1225v159h157v-159h-157zM987 377q-19 -183 -136.5 -290t-297.5 -107q-213 0 -338 144t-125 388q0 249 127 396t342 147q173 0 288 -101.5t138 -273.5h-143q-19 124 -93 193t-190 69q-154 0 -241 -114.5t-87 -315.5q0 -197 85.5 -308.5t236.5 -111.5q119 0 196 75.5
t97 209.5h141z" />
    <glyph glyph-name="Ccaron" unicode="&#x10c;" horiz-adv-x="1388" 
d="M612 1688l111 -97l113 97h151l-190 -177h-146l-190 177h151zM1307 516q-23 -247 -179 -391.5t-403 -144.5q-286 0 -455.5 197.5t-169.5 533.5q0 329 170 526t455 197q252 0 406.5 -137t171.5 -371h-152q-20 179 -133 280t-295 101q-220 0 -344.5 -158t-124.5 -438
q0 -283 125 -444t346 -161q187 0 300 108.5t130 301.5h152z" />
    <glyph glyph-name="ccaron" unicode="&#x10d;" horiz-adv-x="1060" 
d="M393 1411l133 -147l133 147h123l-190 -225h-131l-193 225h125zM987 377q-19 -183 -136.5 -290t-297.5 -107q-213 0 -338 144t-125 388q0 249 127 396t342 147q173 0 288 -101.5t138 -273.5h-143q-19 124 -93 193t-190 69q-154 0 -241 -114.5t-87 -315.5
q0 -197 85.5 -308.5t236.5 -111.5q119 0 196 75.5t97 209.5h141z" />
    <glyph glyph-name="Dcaron" unicode="&#x10e;" horiz-adv-x="1421" 
d="M541 1688l110 -97l113 97h151l-190 -177h-145l-191 177h152zM612 0h-426l4 350v713l-4 350h426q327 0 519 -189.5t192 -512.5q0 -326 -192 -518.5t-519 -192.5zM340 1286v-1159h270q262 0 411.5 155t149.5 427q0 270 -149 423.5t-410 153.5h-272z" />
    <glyph glyph-name="dcaron" unicode="&#x10f;" horiz-adv-x="1239" 
d="M829 152q-43 -80 -121.5 -126t-172.5 -46q-206 0 -325.5 143.5t-119.5 392.5t116 394t316 145q105 0 187.5 -49t119.5 -134h5v189l-7 352h146l-4 -352v-709l4 -352h-146l7 152h-5zM1081 1094l45 319h162l-102 -319h-105zM233 522q0 -203 82.5 -316.5t231.5 -113.5
q140 0 217.5 112t77.5 314q0 203 -79 313.5t-224 110.5t-225.5 -110t-80.5 -310z" />
    <glyph glyph-name="Dcroat" unicode="&#x110;" horiz-adv-x="1427" 
d="M618 0h-425l4 350v301h-136v115h136v297l-4 350h425q327 0 519 -189.5t192 -512.5q0 -326 -192 -518.5t-519 -192.5zM735 651h-389v-524h270q262 0 412 155t150 427q0 270 -149.5 423.5t-410.5 153.5h-272v-520h389v-115z" />
    <glyph glyph-name="dcroat" unicode="&#x111;" horiz-adv-x="1126" 
d="M829 152q-43 -80 -121.5 -126t-172.5 -46q-206 0 -325.5 143.5t-119.5 392.5t116 394t316 145q105 0 187.5 -49t119.5 -134h5v189l-3 119h-393v110h391l-2 123h146l-2 -123h112v-110h-112l-2 -119v-709l4 -352h-146l7 152h-5zM233 522q0 -203 82.5 -316.5t231.5 -113.5
q140 0 217.5 112t77.5 314q0 203 -79 313.5t-224 110.5t-225.5 -110t-80.5 -310z" />
    <glyph glyph-name="Emacron" unicode="&#x112;" horiz-adv-x="1150" 
d="M346 1546v96h526v-96h-526zM1057 0h-871l4 352v711l-4 350h850v-127h-700v-485h672v-127h-672v-547h721v-127z" />
    <glyph glyph-name="emacron" unicode="&#x113;" horiz-adv-x="1077" 
d="M285 1239v96h526v-96h-526zM983 348q-22 -173 -137 -270.5t-299 -97.5q-216 0 -336.5 141t-120.5 389q0 262 121.5 404.5t339.5 142.5q198 0 313 -128.5t123 -357.5v-65h-751q-6 -194 77.5 -304t237.5 -110q115 0 191 67t98 189h143zM553 950q-133 0 -216 -88.5
t-97 -243.5h604q-5 155 -82 243.5t-209 88.5z" />
    <glyph glyph-name="Ebreve" unicode="&#x114;" horiz-adv-x="1150" 
d="M393 1673h92q6 -69 127 -69q117 0 127 69h88q-3 -78 -56.5 -121t-158.5 -43q-209 0 -219 164zM1057 0h-871l4 352v711l-4 350h850v-127h-700v-485h672v-127h-672v-547h721v-127z" />
    <glyph glyph-name="ebreve" unicode="&#x115;" horiz-adv-x="1077" 
d="M297 1403h106q6 -61 45 -93t103 -32q63 0 102 32.5t45 92.5h103q-3 -107 -68.5 -163t-181.5 -56q-118 0 -184 55.5t-70 163.5zM983 348q-22 -173 -137 -270.5t-299 -97.5q-216 0 -336.5 141t-120.5 389q0 262 121.5 404.5t339.5 142.5q198 0 313 -128.5t123 -357.5v-65
h-751q-6 -194 77.5 -304t237.5 -110q115 0 191 67t98 189h143zM553 950q-133 0 -216 -88.5t-97 -243.5h604q-5 155 -82 243.5t-209 88.5z" />
    <glyph glyph-name="Edotaccent" unicode="&#x116;" horiz-adv-x="1150" 
d="M532 1522v149h158v-149h-158zM1057 0h-871l4 352v711l-4 350h850v-127h-700v-485h672v-127h-672v-547h721v-127z" />
    <glyph glyph-name="edotaccent" unicode="&#x117;" horiz-adv-x="1077" 
d="M471 1225v159h158v-159h-158zM983 348q-22 -173 -137 -270.5t-299 -97.5q-216 0 -336.5 141t-120.5 389q0 262 121.5 404.5t339.5 142.5q198 0 313 -128.5t123 -357.5v-65h-751q-6 -194 77.5 -304t237.5 -110q115 0 191 67t98 189h143zM553 950q-133 0 -216 -88.5
t-97 -243.5h604q-5 155 -82 243.5t-209 88.5z" />
    <glyph glyph-name="Eogonek" unicode="&#x118;" horiz-adv-x="1150" 
d="M1057 0h-4q-147 -61 -196.5 -102.5t-49.5 -90.5q0 -63 100 -63q35 0 82.5 13.5t81.5 29.5v-98q-109 -58 -221 -58q-85 0 -134.5 37t-49.5 96q0 66 46 121.5t154 114.5h-680l4 352v711l-4 350h850v-127h-700v-485h672v-127h-672v-547h721v-127z" />
    <glyph glyph-name="eogonek" unicode="&#x119;" horiz-adv-x="1077" 
d="M725 -311q-109 -58 -221 -58q-85 0 -135 37t-50 96q0 61 39.5 113t130.5 105q-190 20 -294.5 158.5t-104.5 369.5q0 262 121.5 404.5t339.5 142.5q198 0 313 -128.5t123 -357.5v-65h-751q-6 -194 77.5 -304t237.5 -110q115 0 191 67t98 189h143q-17 -132 -87 -220.5
t-185 -123.5v-2q-149 -63 -199.5 -104.5t-50.5 -90.5q0 -63 100 -63q35 0 82.5 13.5t81.5 29.5v-98zM553 950q-133 0 -216 -88.5t-97 -243.5h604q-5 155 -82 243.5t-209 88.5z" />
    <glyph glyph-name="Ecaron" unicode="&#x11a;" horiz-adv-x="1150" 
d="M498 1688l110 -97l113 97h151l-190 -177h-145l-191 177h152zM1057 0h-871l4 352v711l-4 350h850v-127h-700v-485h672v-127h-672v-547h721v-127z" />
    <glyph glyph-name="ecaron" unicode="&#x11b;" horiz-adv-x="1077" 
d="M412 1411l133 -147l133 147h123l-191 -225h-131l-192 225h125zM983 348q-22 -173 -137 -270.5t-299 -97.5q-216 0 -336.5 141t-120.5 389q0 262 121.5 404.5t339.5 142.5q198 0 313 -128.5t123 -357.5v-65h-751q-6 -194 77.5 -304t237.5 -110q115 0 191 67t98 189h143z
M553 950q-133 0 -216 -88.5t-97 -243.5h604q-5 155 -82 243.5t-209 88.5z" />
    <glyph glyph-name="Gcircumflex" unicode="&#x11c;" horiz-adv-x="1458" 
d="M639 1511h-152l191 177h145l191 -177h-152l-112 97zM1208 231q-62 -113 -187.5 -182t-270.5 -69q-294 0 -473 200.5t-179 532.5q0 327 177 524t473 197q233 0 388 -140t179 -360h-154q-14 168 -127 270.5t-289 102.5q-230 0 -361.5 -160t-131.5 -436q0 -280 137 -442.5
t367 -162.5q183 0 307.5 125t134.5 334h-438v127h577v-342l4 -350h-135l4 225z" />
    <glyph glyph-name="gcircumflex" unicode="&#x11d;" horiz-adv-x="1067" 
d="M365 1188h-125l192 225h131l191 -225h-123l-133 147zM1018 -43q0 -153 -129 -240.5t-361 -87.5q-220 0 -345.5 75t-125.5 210q0 93 52.5 160.5t164.5 95.5v4q-40 18 -62 55t-22 78q0 49 25 88.5t64 57.5v2q-69 29 -118.5 103.5t-49.5 172.5q0 150 108 237t283 87
q119 0 205 -39q6 51 46.5 81.5t96.5 30.5q74 0 141 -26v-111q-45 25 -94 25q-80 0 -80 -74q45 -51 63.5 -100.5t18.5 -110.5q0 -151 -106.5 -238t-286.5 -87q-38 0 -105 10q-41 -10 -61.5 -35.5t-20.5 -56.5q0 -50 37 -73.5t133 -23.5h136q184 0 288.5 -70.5t104.5 -199.5z
M238 733q0 -111 70.5 -169t197.5 -58t197.5 59t70.5 168q0 104 -71 162.5t-197 58.5t-197 -58.5t-71 -162.5zM199 -68q0 -95 88.5 -146.5t247.5 -51.5q168 0 253.5 55t85.5 158q0 80 -73 125t-203 45h-117q-125 0 -203.5 -50t-78.5 -135z" />
    <glyph glyph-name="Gbreve" unicode="&#x11e;" horiz-adv-x="1458" 
d="M530 1673h93q6 -69 127 -69q117 0 127 69h88q-3 -78 -56.5 -121t-158.5 -43q-210 0 -220 164zM1208 231q-62 -113 -187.5 -182t-270.5 -69q-294 0 -473 200.5t-179 532.5q0 327 177 524t473 197q233 0 388 -140t179 -360h-154q-14 168 -127 270.5t-289 102.5
q-230 0 -361.5 -160t-131.5 -436q0 -280 137 -442.5t367 -162.5q183 0 307.5 125t134.5 334h-438v127h577v-342l4 -350h-135l4 225z" />
    <glyph glyph-name="gbreve" unicode="&#x11f;" horiz-adv-x="1067" 
d="M244 1403h106q6 -61 45 -93t103 -32q63 0 102 32.5t45 92.5h103q-3 -107 -68.5 -163t-181.5 -56q-118 0 -184 55.5t-70 163.5zM1018 -43q0 -153 -129 -240.5t-361 -87.5q-220 0 -345.5 75t-125.5 210q0 93 52.5 160.5t164.5 95.5v4q-40 18 -62 55t-22 78q0 49 25 88.5
t64 57.5v2q-69 29 -118.5 103.5t-49.5 172.5q0 150 108 237t283 87q119 0 205 -39q6 51 46.5 81.5t96.5 30.5q74 0 141 -26v-111q-45 25 -94 25q-80 0 -80 -74q45 -51 63.5 -100.5t18.5 -110.5q0 -151 -106.5 -238t-286.5 -87q-38 0 -105 10q-41 -10 -61.5 -35.5
t-20.5 -56.5q0 -50 37 -73.5t133 -23.5h136q184 0 288.5 -70.5t104.5 -199.5zM238 733q0 -111 70.5 -169t197.5 -58t197.5 59t70.5 168q0 104 -71 162.5t-197 58.5t-197 -58.5t-71 -162.5zM199 -68q0 -95 88.5 -146.5t247.5 -51.5q168 0 253.5 55t85.5 158q0 80 -73 125
t-203 45h-117q-125 0 -203.5 -50t-78.5 -135z" />
    <glyph glyph-name="Gdotaccent" unicode="&#x120;" horiz-adv-x="1458" 
d="M672 1522v149h157v-149h-157zM1208 231q-62 -113 -187.5 -182t-270.5 -69q-294 0 -473 200.5t-179 532.5q0 327 177 524t473 197q233 0 388 -140t179 -360h-154q-14 168 -127 270.5t-289 102.5q-230 0 -361.5 -160t-131.5 -436q0 -280 137 -442.5t367 -162.5
q183 0 307.5 125t134.5 334h-438v127h577v-342l4 -350h-135l4 225z" />
    <glyph glyph-name="gdotaccent" unicode="&#x121;" horiz-adv-x="1067" 
d="M420 1225v159h158v-159h-158zM1018 -43q0 -153 -129 -240.5t-361 -87.5q-220 0 -345.5 75t-125.5 210q0 93 52.5 160.5t164.5 95.5v4q-40 18 -62 55t-22 78q0 49 25 88.5t64 57.5v2q-69 29 -118.5 103.5t-49.5 172.5q0 150 108 237t283 87q119 0 205 -39q6 51 46.5 81.5
t96.5 30.5q74 0 141 -26v-111q-45 25 -94 25q-80 0 -80 -74q45 -51 63.5 -100.5t18.5 -110.5q0 -151 -106.5 -238t-286.5 -87q-38 0 -105 10q-41 -10 -61.5 -35.5t-20.5 -56.5q0 -50 37 -73.5t133 -23.5h136q184 0 288.5 -70.5t104.5 -199.5zM238 733q0 -111 70.5 -169
t197.5 -58t197.5 59t70.5 168q0 104 -71 162.5t-197 58.5t-197 -58.5t-71 -162.5zM199 -68q0 -95 88.5 -146.5t247.5 -51.5q168 0 253.5 55t85.5 158q0 80 -73 125t-203 45h-117q-125 0 -203.5 -50t-78.5 -135z" />
    <glyph glyph-name="Gcommaaccent" unicode="&#x122;" horiz-adv-x="1458" 
d="M1208 231q-62 -113 -187.5 -182t-270.5 -69q-294 0 -473 200.5t-179 532.5q0 327 177 524t473 197q233 0 388 -140t179 -360h-154q-14 168 -127 270.5t-289 102.5q-230 0 -361.5 -160t-131.5 -436q0 -280 137 -442.5t367 -162.5q183 0 307.5 125t134.5 334h-438v127h577
v-342l4 -350h-135l4 225zM567 -371l105 330h141l-135 -330h-111z" />
    <glyph glyph-name="gcommaaccent" unicode="&#x123;" horiz-adv-x="1067" 
d="M670 1427l-107 -329h-139l135 329h111zM1018 -43q0 -153 -129 -240.5t-361 -87.5q-220 0 -345.5 75t-125.5 210q0 93 52.5 160.5t164.5 95.5v4q-40 18 -62 55t-22 78q0 49 25 88.5t64 57.5v2q-69 29 -118.5 103.5t-49.5 172.5q0 150 108 237t283 87q119 0 205 -39
q6 51 46.5 81.5t96.5 30.5q74 0 141 -26v-111q-45 25 -94 25q-80 0 -80 -74q45 -51 63.5 -100.5t18.5 -110.5q0 -151 -106.5 -238t-286.5 -87q-38 0 -105 10q-41 -10 -61.5 -35.5t-20.5 -56.5q0 -50 37 -73.5t133 -23.5h136q184 0 288.5 -70.5t104.5 -199.5zM238 733
q0 -111 70.5 -169t197.5 -58t197.5 59t70.5 168q0 104 -71 162.5t-197 58.5t-197 -58.5t-71 -162.5zM199 -68q0 -95 88.5 -146.5t247.5 -51.5q168 0 253.5 55t85.5 158q0 80 -73 125t-203 45h-117q-125 0 -203.5 -50t-78.5 -135z" />
    <glyph glyph-name="Hcircumflex" unicode="&#x124;" horiz-adv-x="1427" 
d="M602 1511h-151l190 177h145l191 -177h-152l-112 97zM344 0h-158l4 352v709l-4 352h158l-4 -352v-256h747v256l-4 352h158l-6 -352v-709l6 -352h-158l4 352v326h-747v-326z" />
    <glyph glyph-name="hcircumflex" unicode="&#x125;" horiz-adv-x="1083" 
d="M98 1432h-125l193 225h131l190 -225h-122l-134 147zM299 0h-145l4 322v739l-6 352h143l-4 -352v-180h6q97 174 299 174q159 0 250.5 -101t91.5 -274v-361l4 -319h-147l6 322v329q0 136 -61 213.5t-173 77.5q-131 0 -201.5 -94.5t-70.5 -261.5v-267z" />
    <glyph glyph-name="Hbar" unicode="&#x126;" horiz-adv-x="1427" 
d="M344 0h-158l4 352v674h-61v111h61l-4 276h158l-4 -276h747l-4 276h158l-4 -276h61v-111h-63v-674l6 -352h-158l4 352v326h-747v-326zM340 805h747v221h-747v-221z" />
    <glyph glyph-name="hbar" unicode="&#x127;" horiz-adv-x="1083" 
d="M299 0h-145l4 322v739l-2 121h-152v110h150l-2 121h143l-2 -121h356v-110h-356l-2 -121v-180h6q97 174 299 174q159 0 250.5 -101t91.5 -274v-361l4 -319h-147l6 322v329q0 136 -61 213.5t-173 77.5q-131 0 -201.5 -94.5t-70.5 -261.5v-267z" />
    <glyph glyph-name="Itilde" unicode="&#x128;" horiz-adv-x="530" 
d="M135 1511h-86q0 70 40 111t104 41q44 0 93.5 -29.5t67.5 -29.5q58 0 58 63h86q0 -68 -40 -109.5t-104 -41.5q-34 0 -84 29.5t-77 29.5q-58 0 -58 -64zM344 0h-158l4 352v709l-4 352h158l-4 -352v-709z" />
    <glyph glyph-name="itilde" unicode="&#x129;" horiz-adv-x="468" 
d="M66 1196h-86q0 190 155 190q32 0 65 -15.5t55.5 -33.5t48.5 -33.5t46 -15.5q70 0 70 103h86q0 -191 -150 -191q-29 0 -61 15.5t-55 33.5t-51.5 33.5t-53.5 15.5q-69 0 -69 -102zM309 0h-149l4 352v320l-4 362h149l-4 -362v-320z" />
    <glyph glyph-name="Imacron" unicode="&#x12a;" horiz-adv-x="530" 
d="M0 1546v96h526v-96h-526zM344 0h-158l4 352v709l-4 352h158l-4 -352v-709z" />
    <glyph glyph-name="imacron" unicode="&#x12b;" horiz-adv-x="468" 
d="M-31 1239v96h527v-96h-527zM309 0h-149l4 352v320l-4 362h149l-4 -362v-320z" />
    <glyph glyph-name="Ibreve" unicode="&#x12c;" horiz-adv-x="530" 
d="M47 1673h92q6 -69 127 -69q117 0 127 69h88q-3 -78 -56.5 -121t-158.5 -43q-209 0 -219 164zM344 0h-158l4 352v709l-4 352h158l-4 -352v-709z" />
    <glyph glyph-name="ibreve" unicode="&#x12d;" horiz-adv-x="468" 
d="M-18 1403h106q6 -61 45 -93t103 -32q63 0 102 32.5t45 92.5h102q-3 -107 -68 -163t-181 -56q-118 0 -184 55.5t-70 163.5zM309 0h-149l4 352v320l-4 362h149l-4 -362v-320z" />
    <glyph glyph-name="Iogonek" unicode="&#x12e;" horiz-adv-x="532" 
d="M346 0h-2q-147 -61 -196.5 -102.5t-49.5 -90.5q0 -63 101 -63q34 0 81.5 13t81.5 30v-98q-109 -58 -221 -58q-85 0 -134.5 37t-49.5 96q0 69 53 128t178 124l5 336v709l-5 352h158l-4 -352v-709l4 -342l2 -8h-2v-2z" />
    <glyph glyph-name="iogonek" unicode="&#x12f;" horiz-adv-x="473" 
d="M160 1225v159h157v-159h-157zM313 0h-4q-147 -61 -196.5 -102.5t-49.5 -90.5q0 -63 101 -63q35 0 82.5 13.5t81.5 29.5v-98q-42 -22 -103.5 -40t-118.5 -18q-85 0 -134.5 37t-49.5 96q0 71 55.5 132t186.5 127l4 329v320l-4 362h149l-4 -362v-320l4 -350v-2z" />
    <glyph glyph-name="Idotaccent" unicode="&#x130;" horiz-adv-x="530" 
d="M188 1522v149h158v-149h-158zM344 0h-158l4 352v709l-4 352h158l-4 -352v-709z" />
    <glyph glyph-name="idotless" unicode="&#x131;" horiz-adv-x="468" 
d="M309 0h-149l4 352v320l-4 362h149l-4 -362v-320z" />
    <glyph glyph-name="IJ" unicode="&#x132;" horiz-adv-x="1009" 
d="M344 0h-158l4 352v709l-4 352h158l-4 -352v-709zM821 -100q0 -127 -69.5 -198t-194.5 -71q-42 0 -111 15v131q49 -19 78 -19q69 0 108.5 45.5t39.5 124.5v1133l-4 352h157l-4 -352v-1161z" />
    <glyph glyph-name="ij" unicode="&#x133;" horiz-adv-x="919" 
d="M319 1225h-169v159h169v-159zM772 1225h-172v159h172v-159zM309 0h-149l4 352v320l-4 362h149l-4 -362v-320zM756 -100q0 -125 -68 -197t-186 -72q-23 0 -39 4v111q8 -2 29 -2q59 0 90.5 41t31.5 117v770l-4 362h150l-4 -362v-772z" />
    <glyph glyph-name="Jcircumflex" unicode="&#x134;" horiz-adv-x="542" 
d="M168 1511h-152l191 177h145l191 -177h-152l-112 97zM354 -100q0 -127 -69.5 -198t-194.5 -71q-41 0 -110 15v131q49 -19 77 -19q69 0 108.5 45.5t39.5 124.5v1133l-4 352h157l-4 -352v-1161z" />
    <glyph glyph-name="jcircumflex" unicode="&#x135;" horiz-adv-x="468" 
d="M104 1188h-124l192 225h131l191 -225h-123l-133 147zM311 -113q0 -120 -67 -188t-187 -68q-23 0 -39 4v111q8 -2 29 -2q60 0 91.5 37t31.5 108v783l-4 362h149l-4 -362v-785z" />
    <glyph glyph-name="Kcommaaccent" unicode="&#x136;" horiz-adv-x="1212" 
d="M344 0h-158l4 352v709l-4 352h158l-4 -352v-363h4l320 363l307 352h196l-319 -352l-211 -240v-2l326 -465l254 -354h-207l-236 354l-242 348h-4l-188 -210v-140zM449 -371l104 330h141l-135 -330h-110z" />
    <glyph glyph-name="kcommaaccent" unicode="&#x137;" horiz-adv-x="1003" 
d="M303 0h-149l4 352v709l-4 352h149l-6 -352v-477h8l160 166l272 284h189l-293 -284l-94 -99l215 -297l260 -354h-187l-247 354l-138 195h-6l-139 -143v-52zM356 -371l105 330h141l-135 -330h-111z" />
    <glyph glyph-name="kgreenlandic" unicode="&#x138;" horiz-adv-x="1048" 
d="M299 0h-143l4 352l-2 320l-4 362h145l-2 -362v-94h149l82 94l316 362h194l-327 -362l-136 -150v-2l146 -168l315 -352h-194l-303 352l-97 113h-145v-113z" />
    <glyph glyph-name="Lacute" unicode="&#x139;" horiz-adv-x="1019" 
d="M616 1681l-288 -170h-129l202 170h215zM983 0h-797l4 352v709l-4 352h158l-4 -352v-932h643v-129z" />
    <glyph glyph-name="lacute" unicode="&#x13a;" horiz-adv-x="536" 
d="M543 1763l-281 -225h-110l194 225h197zM520 8q-58 -28 -119 -28q-117 0 -182 69t-65 191v821l-4 350h149l-4 -350v-834q0 -65 30 -100t85 -35q50 0 110 29v-113z" />
    <glyph glyph-name="Lcommaaccent" unicode="&#x13b;" horiz-adv-x="1019" 
d="M983 0h-797l4 352v709l-4 352h158l-4 -352v-932h643v-129zM360 -371l105 330h141l-135 -330h-111z" />
    <glyph glyph-name="lcommaaccent" unicode="&#x13c;" horiz-adv-x="536" 
d="M520 8q-58 -28 -119 -28q-117 0 -182 69t-65 191v821l-4 350h149l-4 -350v-834q0 -65 30 -100t85 -35q50 0 110 29v-113zM213 -371l104 330h142l-135 -330h-111z" />
    <glyph glyph-name="Lcaron" unicode="&#x13d;" horiz-adv-x="1028" 
d="M983 0h-797l4 352v709l-4 352h158l-4 -352v-932h643v-129zM700 1094l45 319h162l-102 -319h-105z" />
    <glyph glyph-name="lcaron" unicode="&#x13e;" horiz-adv-x="548" 
d="M410 1094l45 319h161l-102 -319h-104zM520 8q-58 -28 -119 -28q-117 0 -182 69t-65 191v821l-4 350h149l-4 -350v-834q0 -65 30 -100t85 -35q50 0 110 29v-113z" />
    <glyph glyph-name="Ldot" unicode="&#x13f;" horiz-adv-x="1019" 
d="M983 0h-797l4 352v709l-4 352h158l-4 -352v-932h643v-129zM586 539v178h180v-178h-180z" />
    <glyph glyph-name="ldot" unicode="&#x140;" horiz-adv-x="602" 
d="M520 8q-58 -28 -119 -28q-117 0 -182 69t-65 191v821l-4 350h149l-4 -350v-834q0 -65 30 -100t85 -35q50 0 110 29v-113zM371 539v178h180v-178h-180z" />
    <glyph glyph-name="Lslash" unicode="&#x141;" horiz-adv-x="1036" 
d="M999 0h-796l4 352v185l-137 -80v135l137 80v389l-4 352h157l-4 -352v-303l373 217v-137l-373 -215v-494h643v-129z" />
    <glyph glyph-name="lslash" unicode="&#x142;" horiz-adv-x="630" 
d="M561 8q-58 -28 -119 -28q-117 0 -182 69t-65 191v352l-136 -78v145l136 78v324l-5 350h150l-4 -350v-244l225 129v-143l-225 -129v-447q0 -65 30 -100t85 -35q50 0 110 29v-113z" />
    <glyph glyph-name="Nacute" unicode="&#x143;" horiz-adv-x="1484" 
d="M1087 1681l-288 -170h-129l202 170h215zM344 0h-158l4 352v707l-4 354h162l617 -921l172 -254h6v821l-6 354h159l-6 -354v-707l6 -352h-159l-633 928l-162 241h-2v-817z" />
    <glyph glyph-name="nacute" unicode="&#x144;" horiz-adv-x="1085" 
d="M874 1413l-280 -225h-111l195 225h196zM301 0h-145l4 352v320l-6 362h145l-6 -153h6q97 174 301 174q160 0 250 -103.5t90 -277.5v-322l6 -352h-147l4 352v293q0 139 -64 218t-184 79q-126 0 -192 -82.5t-66 -238.5v-269z" />
    <glyph glyph-name="Ncommaaccent" unicode="&#x145;" horiz-adv-x="1484" 
d="M344 0h-158l4 352v707l-4 354h162l617 -921l172 -254h6v821l-6 354h159l-6 -354v-707l6 -352h-159l-633 928l-162 241h-2v-817zM563 -371l105 330h141l-135 -330h-111z" />
    <glyph glyph-name="ncommaaccent" unicode="&#x146;" horiz-adv-x="1085" 
d="M301 0h-145l4 352v320l-6 362h145l-6 -153h6q97 174 301 174q160 0 250 -103.5t90 -277.5v-322l6 -352h-147l4 352v293q0 139 -64 218t-184 79q-126 0 -192 -82.5t-66 -238.5v-269zM373 -371l104 330h141l-135 -330h-110z" />
    <glyph glyph-name="Ncaron" unicode="&#x147;" horiz-adv-x="1484" 
d="M629 1688l110 -97l113 97h152l-191 -177h-145l-191 177h152zM344 0h-158l4 352v707l-4 354h162l617 -921l172 -254h6v821l-6 354h159l-6 -354v-707l6 -352h-159l-633 928l-162 241h-2v-817z" />
    <glyph glyph-name="ncaron" unicode="&#x148;" horiz-adv-x="1085" 
d="M414 1411l133 -147l133 147h123l-191 -225h-131l-192 225h125zM301 0h-145l4 352v320l-6 362h145l-6 -153h6q97 174 301 174q160 0 250 -103.5t90 -277.5v-322l6 -352h-147l4 352v293q0 139 -64 218t-184 79q-126 0 -192 -82.5t-66 -238.5v-269z" />
    <glyph glyph-name="napostrophe" unicode="&#x149;" horiz-adv-x="1210" 
d="M12 979l97 434h149l-135 -434h-111zM424 0h-145l4 352v320l-7 362h146l-6 -153h6q97 174 301 174q160 0 250 -103.5t90 -277.5v-322l6 -352h-147l4 352v293q0 139 -64 218t-184 79q-126 0 -192 -82.5t-66 -238.5v-269z" />
    <glyph glyph-name="Eng" unicode="&#x14a;" horiz-adv-x="1484" 
d="M344 0h-158l4 352v707l-4 354h162l617 -921l172 -254h6v821l-6 354h159l-6 -354v-707l6 -352v-113q0 -119 -71.5 -187.5t-192.5 -68.5q-21 0 -37 4v127q12 -4 29 -4q58 0 90.5 35t32.5 96v97l-10 14l-633 928l-162 241h-2v-817z" />
    <glyph glyph-name="eng" unicode="&#x14b;" horiz-adv-x="1085" 
d="M160 672l-6 362h145l-6 -153h6q97 174 301 174q160 0 250 -103.5t90 -277.5v-774q0 -127 -66 -198t-186 -71q-21 0 -37 4v111q6 -2 29 -2q60 0 91.5 40.5t31.5 117.5v743q0 139 -64 218t-184 79q-126 0 -192 -82.5t-66 -238.5v-302l4 -319h-145l4 322v350z" />
    <glyph glyph-name="Omacron" unicode="&#x14c;" horiz-adv-x="1480" 
d="M475 1546v96h526v-96h-526zM1382 715q0 -157 -42.5 -291t-122 -233t-202 -155t-274.5 -56t-274.5 56.5t-202.5 155.5t-123 233.5t-43 291.5q0 119 27 226.5t80.5 197t130 155t180 102t225.5 36.5q151 0 274 -56.5t202.5 -154.5t122 -228t42.5 -280zM252 711
q0 -171 57 -306.5t169 -215.5t263 -80t263 79.5t168.5 214.5t56.5 306q0 163 -56.5 297.5t-169 217.5t-262.5 83q-113 0 -206.5 -48t-154.5 -129.5t-94.5 -189.5t-33.5 -229z" />
    <glyph glyph-name="omacron" unicode="&#x14d;" horiz-adv-x="1101" 
d="M287 1239v96h526v-96h-526zM1014 516q0 -249 -124.5 -392.5t-338.5 -143.5t-338.5 143.5t-124.5 392.5t124.5 394t338.5 145t338.5 -145t124.5 -394zM231 518q0 -202 84.5 -314t235.5 -112t235 112t84 314q0 200 -84 312t-235 112t-235.5 -112t-84.5 -312z" />
    <glyph glyph-name="Obreve" unicode="&#x14e;" horiz-adv-x="1480" 
d="M522 1673h92q6 -69 127 -69q117 0 127 69h88q-3 -78 -56.5 -121t-158.5 -43q-209 0 -219 164zM1382 715q0 -157 -42.5 -291t-122 -233t-202 -155t-274.5 -56t-274.5 56.5t-202.5 155.5t-123 233.5t-43 291.5q0 119 27 226.5t80.5 197t130 155t180 102t225.5 36.5
q151 0 274 -56.5t202.5 -154.5t122 -228t42.5 -280zM252 711q0 -171 57 -306.5t169 -215.5t263 -80t263 79.5t168.5 214.5t56.5 306q0 163 -56.5 297.5t-169 217.5t-262.5 83q-113 0 -206.5 -48t-154.5 -129.5t-94.5 -189.5t-33.5 -229z" />
    <glyph glyph-name="obreve" unicode="&#x14f;" horiz-adv-x="1101" 
d="M299 1403h107q6 -61 44.5 -93t102.5 -32q63 0 102 32.5t45 92.5h103q-3 -107 -68.5 -163t-181.5 -56q-118 0 -184 55.5t-70 163.5zM1014 516q0 -249 -124.5 -392.5t-338.5 -143.5t-338.5 143.5t-124.5 392.5t124.5 394t338.5 145t338.5 -145t124.5 -394zM231 518
q0 -202 84.5 -314t235.5 -112t235 112t84 314q0 200 -84 312t-235 112t-235.5 -112t-84.5 -312z" />
    <glyph glyph-name="Ohungarumlaut" unicode="&#x150;" horiz-adv-x="1480" 
d="M854 1681l-289 -170h-129l203 170h215zM1243 1681l-289 -170h-129l203 170h215zM1382 715q0 -157 -42.5 -291t-122 -233t-202 -155t-274.5 -56t-274.5 56.5t-202.5 155.5t-123 233.5t-43 291.5q0 119 27 226.5t80.5 197t130 155t180 102t225.5 36.5q151 0 274 -56.5
t202.5 -154.5t122 -228t42.5 -280zM252 711q0 -171 57 -306.5t169 -215.5t263 -80t263 79.5t168.5 214.5t56.5 306q0 163 -56.5 297.5t-169 217.5t-262.5 83q-113 0 -206.5 -48t-154.5 -129.5t-94.5 -189.5t-33.5 -229z" />
    <glyph glyph-name="ohungarumlaut" unicode="&#x151;" horiz-adv-x="1101" 
d="M688 1407l-280 -225h-111l195 225h196zM1034 1407l-280 -225h-111l195 225h196zM1014 516q0 -249 -124.5 -392.5t-338.5 -143.5t-338.5 143.5t-124.5 392.5t124.5 394t338.5 145t338.5 -145t124.5 -394zM231 518q0 -202 84.5 -314t235.5 -112t235 112t84 314
q0 200 -84 312t-235 112t-235.5 -112t-84.5 -312z" />
    <glyph glyph-name="OE" unicode="&#x152;" horiz-adv-x="2187" 
d="M1227 227q-76 -116 -203 -181.5t-283 -65.5q-152 0 -274.5 56.5t-202.5 155.5t-123 233.5t-43 291.5q0 119 27 226.5t80.5 197t130 155t180 102t225.5 36.5q158 0 285 -66.5t201 -181.5h4l-8 227h850v-127h-701l-2 -485h674v-127h-672v-547h721v-127h-870l6 227h-2z
M252 711q0 -171 57 -306.5t169 -215.5t263 -80t263 79.5t168.5 214.5t56.5 306q0 163 -56.5 297.5t-169 217.5t-262.5 83q-113 0 -206.5 -48t-154.5 -129.5t-94.5 -189.5t-33.5 -229z" />
    <glyph glyph-name="oe" unicode="&#x153;" horiz-adv-x="1804" 
d="M909 236q-47 -120 -148 -188t-229 -68q-207 0 -324.5 142t-117.5 394t117 395.5t323 143.5q126 0 227 -68t152 -188h4q47 120 147.5 189t229.5 69q196 0 308 -129.5t112 -356.5v-65h-729q-4 -193 74 -303.5t219 -110.5q122 0 201.5 67.5t99.5 188.5h131
q-20 -172 -131.5 -270t-284.5 -98q-135 0 -234.5 68t-140.5 188h-6zM1276 950q-132 0 -205.5 -85.5t-85.5 -246.5h584q-5 160 -81 246t-212 86zM231 518q0 -205 83 -315.5t237 -110.5q299 0 299 426q0 206 -74.5 315t-224.5 109q-154 0 -237 -110.5t-83 -313.5z" />
    <glyph glyph-name="Racute" unicode="&#x154;" horiz-adv-x="1275" 
d="M909 1681l-288 -170h-129l202 170h215zM344 0h-158l4 352v709l-4 352h516q201 0 321 -112t120 -302q0 -130 -80.5 -234t-208.5 -147v-6l360 -612h-178l-331 588l-365 -2v-234zM340 1286v-573h334q141 0 228 77t87 209t-83.5 209.5t-213.5 77.5h-352z" />
    <glyph glyph-name="racute" unicode="&#x155;" horiz-adv-x="747" 
d="M662 1413l-281 -225h-111l195 225h197zM301 0h-145l4 352v320l-6 362h145l-6 -213h6q42 113 119 173.5t176 60.5q60 0 115 -19v-143q-48 18 -125 18q-94 0 -161 -59.5t-96.5 -151t-29.5 -204.5v-144z" />
    <glyph glyph-name="Rcommaaccent" unicode="&#x156;" horiz-adv-x="1275" 
d="M344 0h-158l4 352v709l-4 352h516q201 0 321 -112t120 -302q0 -130 -80.5 -234t-208.5 -147v-6l360 -612h-178l-331 588l-365 -2v-234zM340 1286v-573h334q141 0 228 77t87 209t-83.5 209.5t-213.5 77.5h-352zM475 -371l105 330h141l-135 -330h-111z" />
    <glyph glyph-name="rcommaaccent" unicode="&#x157;" horiz-adv-x="747" 
d="M301 0h-145l4 352v320l-6 362h145l-6 -213h6q42 113 119 173.5t176 60.5q60 0 115 -19v-143q-48 18 -125 18q-94 0 -161 -59.5t-96.5 -151t-29.5 -204.5v-144zM57 -371l105 330h141l-135 -330h-111z" />
    <glyph glyph-name="Rcaron" unicode="&#x158;" horiz-adv-x="1275" 
d="M451 1688l110 -97l113 97h151l-190 -177h-146l-190 177h152zM344 0h-158l4 352v709l-4 352h516q201 0 321 -112t120 -302q0 -130 -80.5 -234t-208.5 -147v-6l360 -612h-178l-331 588l-365 -2v-234zM340 1286v-573h334q141 0 228 77t87 209t-83.5 209.5t-213.5 77.5h-352z
" />
    <glyph glyph-name="rcaron" unicode="&#x159;" horiz-adv-x="747" 
d="M270 1411l133 -147l134 147h122l-190 -225h-131l-193 225h125zM301 0h-145l4 352v320l-6 362h145l-6 -213h6q42 113 119 173.5t176 60.5q60 0 115 -19v-143q-48 18 -125 18q-94 0 -161 -59.5t-96.5 -151t-29.5 -204.5v-144z" />
    <glyph glyph-name="Sacute" unicode="&#x15a;" horiz-adv-x="1265" 
d="M993 1681l-288 -170h-130l203 170h215zM1182 383q0 -185 -148 -294t-395 -109q-266 0 -414.5 133.5t-148.5 367.5h153q0 -181 107 -279t311 -98q183 0 284 77t101 198q0 47 -19.5 84.5t-50 63.5t-84 47.5t-105 35.5t-128.5 31q-67 14 -118 28.5t-114.5 37.5t-109.5 53
t-87 70t-62 94.5t-21 119.5q0 186 132 288t362 102q232 0 367 -117.5t141 -327.5h-154q-2 150 -94 235t-262 85q-161 0 -250.5 -66.5t-89.5 -189.5q0 -48 17 -87.5t50 -67.5t70 -49t88.5 -37t93.5 -26.5t96 -22.5l15 -3q115 -26 194.5 -54t144.5 -71.5t96.5 -105.5
t31.5 -146z" />
    <glyph glyph-name="sacute" unicode="&#x15b;" horiz-adv-x="997" 
d="M821 1413l-280 -225h-111l195 225h196zM920 291q0 -142 -112 -226.5t-302 -84.5q-203 0 -318.5 99t-115.5 275h143q0 -126 74.5 -194t206.5 -68q136 0 209 52.5t73 146.5q0 54 -37 89.5t-96.5 53.5t-131.5 32t-143 33t-130 47.5t-95 84t-34 135.5q1 126 111.5 207.5
t277.5 81.5q188 0 286.5 -87.5t98.5 -246.5h-142q0 107 -64 164t-187 57q-105 0 -171.5 -47.5t-66.5 -130.5q0 -41 23 -71.5t61.5 -48.5t88.5 -31t105 -24.5t110 -24.5t105 -34.5t88.5 -51t61.5 -77t23 -110.5z" />
    <glyph glyph-name="Scircumflex" unicode="&#x15c;" horiz-adv-x="1265" 
d="M537 1511h-152l190 177h146l190 -177h-151l-113 97zM1182 383q0 -185 -148 -294t-395 -109q-266 0 -414.5 133.5t-148.5 367.5h153q0 -181 107 -279t311 -98q183 0 284 77t101 198q0 47 -19.5 84.5t-50 63.5t-84 47.5t-105 35.5t-128.5 31q-67 14 -118 28.5t-114.5 37.5
t-109.5 53t-87 70t-62 94.5t-21 119.5q0 186 132 288t362 102q232 0 367 -117.5t141 -327.5h-154q-2 150 -94 235t-262 85q-161 0 -250.5 -66.5t-89.5 -189.5q0 -48 17 -87.5t50 -67.5t70 -49t88.5 -37t93.5 -26.5t96 -22.5l15 -3q115 -26 194.5 -54t144.5 -71.5
t96.5 -105.5t31.5 -146z" />
    <glyph glyph-name="scircumflex" unicode="&#x15d;" horiz-adv-x="997" 
d="M367 1188h-125l192 225h131l191 -225h-123l-133 147zM920 291q0 -142 -112 -226.5t-302 -84.5q-203 0 -318.5 99t-115.5 275h143q0 -126 74.5 -194t206.5 -68q136 0 209 52.5t73 146.5q0 54 -37 89.5t-96.5 53.5t-131.5 32t-143 33t-130 47.5t-95 84t-34 135.5
q1 126 111.5 207.5t277.5 81.5q188 0 286.5 -87.5t98.5 -246.5h-142q0 107 -64 164t-187 57q-105 0 -171.5 -47.5t-66.5 -130.5q0 -41 23 -71.5t61.5 -48.5t88.5 -31t105 -24.5t110 -24.5t105 -34.5t88.5 -51t61.5 -77t23 -110.5z" />
    <glyph glyph-name="Scedilla" unicode="&#x15e;" horiz-adv-x="1265" 
d="M659 -362q-67 0 -112 30.5t-45 77.5h90q0 -19 18.5 -31t48.5 -12q31 0 48.5 18.5t17.5 49.5q0 35 -23 55t-63 20h-72l23 136q-244 12 -379 144t-135 355h153q0 -181 107 -279t311 -98q183 0 284 77t101 198q0 47 -19.5 84.5t-50 63.5t-84 47.5t-105 35.5t-128.5 31
q-67 14 -118 28.5t-114.5 37.5t-109.5 53t-87 70t-62 94.5t-21 119.5q0 186 132 288t362 102q232 0 367 -117.5t141 -327.5h-154q-2 150 -94 235t-262 85q-161 0 -250.5 -66.5t-89.5 -189.5q0 -48 17 -87.5t50 -67.5t70 -49t88.5 -37t93.5 -26.5t96 -22.5l15 -3
q115 -26 194.5 -54t144.5 -71.5t96.5 -105.5t31.5 -146q0 -177 -136 -284.5t-366 -118.5l-12 -70q72 0 109.5 -38t37.5 -101q0 -60 -40.5 -96.5t-115.5 -36.5z" />
    <glyph glyph-name="scedilla" unicode="&#x15f;" horiz-adv-x="997" 
d="M510 -365q-67 0 -112.5 31t-45.5 78h90q0 -19 19 -31t49 -12t47.5 18.5t17.5 49.5q0 35 -23 55t-63 20h-71l24 138q-175 15 -272.5 112.5t-97.5 259.5h143q0 -126 74.5 -194t206.5 -68q136 0 209 52.5t73 146.5q0 54 -37 89.5t-96.5 53.5t-131.5 32t-143 33t-130 47.5
t-95 84t-34 135.5q1 126 111.5 207.5t277.5 81.5q188 0 286.5 -87.5t98.5 -246.5h-142q0 107 -64 164t-187 57q-105 0 -171.5 -47.5t-66.5 -130.5q0 -41 23 -71.5t61.5 -48.5t88.5 -31t105 -24.5t110 -24.5t105 -34.5t88.5 -51t61.5 -77t23 -110.5q0 -137 -105 -221
t-285 -90l-12 -72q72 0 110 -38t38 -101q0 -60 -40.5 -97t-115.5 -37z" />
    <glyph glyph-name="Scaron" unicode="&#x160;" horiz-adv-x="1265" 
d="M535 1688l110 -97l113 97h151l-190 -177h-146l-190 177h152zM1182 383q0 -185 -148 -294t-395 -109q-266 0 -414.5 133.5t-148.5 367.5h153q0 -181 107 -279t311 -98q183 0 284 77t101 198q0 47 -19.5 84.5t-50 63.5t-84 47.5t-105 35.5t-128.5 31q-67 14 -118 28.5
t-114.5 37.5t-109.5 53t-87 70t-62 94.5t-21 119.5q0 186 132 288t362 102q232 0 367 -117.5t141 -327.5h-154q-2 150 -94 235t-262 85q-161 0 -250.5 -66.5t-89.5 -189.5q0 -48 17 -87.5t50 -67.5t70 -49t88.5 -37t93.5 -26.5t96 -22.5l15 -3q115 -26 194.5 -54
t144.5 -71.5t96.5 -105.5t31.5 -146z" />
    <glyph glyph-name="scaron" unicode="&#x161;" horiz-adv-x="997" 
d="M360 1411l134 -147l133 147h123l-191 -225h-131l-192 225h124zM920 291q0 -142 -112 -226.5t-302 -84.5q-203 0 -318.5 99t-115.5 275h143q0 -126 74.5 -194t206.5 -68q136 0 209 52.5t73 146.5q0 54 -37 89.5t-96.5 53.5t-131.5 32t-143 33t-130 47.5t-95 84t-34 135.5
q1 126 111.5 207.5t277.5 81.5q188 0 286.5 -87.5t98.5 -246.5h-142q0 107 -64 164t-187 57q-105 0 -171.5 -47.5t-66.5 -130.5q0 -41 23 -71.5t61.5 -48.5t88.5 -31t105 -24.5t110 -24.5t105 -34.5t88.5 -51t61.5 -77t23 -110.5z" />
    <glyph glyph-name="Tcedilla" unicode="&#x162;" horiz-adv-x="1083" 
d="M625 0h-45l-17 -90q72 0 110 -38t38 -101q0 -60 -40.5 -96.5t-115.5 -36.5q-67 0 -112.5 30.5t-45.5 77.5h90q0 -19 19 -31t49 -12q31 0 48.5 18.5t17.5 49.5q0 35 -23 55t-63 20h-72l26 154h-28l8 352v936h-434v127h1016v-127h-435v-936z" />
    <glyph glyph-name="tcedilla" unicode="&#x163;" horiz-adv-x="714" 
d="M471 -362q-67 0 -112.5 30.5t-45.5 77.5h90q0 -19 19 -31t49 -12q31 0 48.5 18.5t17.5 49.5q0 35 -23 55t-63 20h-72l24 140q-101 17 -154.5 95t-53.5 208v633h-152v112h152l-5 250h152l-6 -250h350v-112h-350v-623q0 -104 39 -154.5t121 -50.5q95 0 190 29v-117
q-106 -23 -194 -26l-13 -70q72 0 110 -38t38 -101q0 -60 -40.5 -96.5t-115.5 -36.5z" />
    <glyph glyph-name="Tcaron" unicode="&#x164;" horiz-adv-x="1083" 
d="M430 1688l111 -97l112 97h152l-191 -177h-145l-190 177h151zM625 0h-164l8 352v936h-434v127h1016v-127h-435v-936z" />
    <glyph glyph-name="tcaron" unicode="&#x165;" horiz-adv-x="714" 
d="M573 1094l45 319h162l-102 -319h-105zM686 6q-117 -26 -219 -26q-132 0 -202 79t-70 230v633h-152v112h152l-5 250h152l-6 -250h350v-112h-350v-623q0 -104 39 -154.5t121 -50.5q95 0 190 29v-117z" />
    <glyph glyph-name="Tbar" unicode="&#x166;" horiz-adv-x="1101" 
d="M633 0h-164l8 352v447h-241v110h241v379h-434v127h1016v-127h-434v-379h256v-110h-256v-447z" />
    <glyph glyph-name="tbar" unicode="&#x167;" horiz-adv-x="733" 
d="M694 6q-117 -26 -219 -26q-132 0 -202 79t-70 230v403h-150v111h150v119h-152v112h152l-4 250h151l-6 -250h350v-112h-350v-119h354v-111h-354v-393q0 -104 39 -154.5t121 -50.5q95 0 190 29v-117z" />
    <glyph glyph-name="Utilde" unicode="&#x168;" horiz-adv-x="1376" 
d="M557 1511h-86q0 70 39.5 111t103.5 41q44 0 94 -29.5t68 -29.5q58 0 58 63h86q0 -68 -40 -109.5t-104 -41.5q-34 0 -84.5 29.5t-77.5 29.5q-57 0 -57 -64zM1202 508q0 -243 -138 -385.5t-372 -142.5q-238 0 -378 142.5t-140 385.5v551l-6 354h158l-4 -354v-541
q0 -192 98 -302t270 -110q170 0 266.5 110t96.5 302v541l-4 354h157l-4 -354v-551z" />
    <glyph glyph-name="utilde" unicode="&#x169;" horiz-adv-x="1093" 
d="M375 1196h-86q0 190 155 190q32 0 65 -15.5t55.5 -33.5t48.5 -33.5t46 -15.5q70 0 70 103h86q0 -191 -149 -191q-37 0 -77 24.5t-77.5 49t-67.5 24.5q-69 0 -69 -102zM793 139q-37 -77 -114.5 -118t-184.5 -41q-163 0 -256 106.5t-93 296.5v289l-6 362h154l-6 -362v-279
q0 -145 58 -224t163 -79q140 0 213.5 93.5t73.5 262.5l-2 226l-5 362h150l-4 -362v-320l4 -352h-143l6 139h-8z" />
    <glyph glyph-name="Umacron" unicode="&#x16a;" horiz-adv-x="1376" 
d="M424 1546v96h526v-96h-526zM1202 508q0 -243 -138 -385.5t-372 -142.5q-238 0 -378 142.5t-140 385.5v551l-6 354h158l-4 -354v-541q0 -192 98 -302t270 -110q170 0 266.5 110t96.5 302v541l-4 354h157l-4 -354v-551z" />
    <glyph glyph-name="umacron" unicode="&#x16b;" horiz-adv-x="1093" 
d="M281 1239v96h526v-96h-526zM793 139q-37 -77 -114.5 -118t-184.5 -41q-163 0 -256 106.5t-93 296.5v289l-6 362h154l-6 -362v-279q0 -145 58 -224t163 -79q140 0 213.5 93.5t73.5 262.5l-2 226l-5 362h150l-4 -362v-320l4 -352h-143l6 139h-8z" />
    <glyph glyph-name="Ubreve" unicode="&#x16c;" horiz-adv-x="1376" 
d="M471 1673h92q6 -69 127 -69q117 0 127 69h88q-3 -78 -56.5 -121t-158.5 -43q-209 0 -219 164zM1202 508q0 -243 -138 -385.5t-372 -142.5q-238 0 -378 142.5t-140 385.5v551l-6 354h158l-4 -354v-541q0 -192 98 -302t270 -110q170 0 266.5 110t96.5 302v541l-4 354h157
l-4 -354v-551z" />
    <glyph glyph-name="ubreve" unicode="&#x16d;" horiz-adv-x="1093" 
d="M293 1403h106q6 -61 45 -93t103 -32q63 0 102 32.5t45 92.5h103q-3 -107 -68.5 -163t-181.5 -56q-118 0 -184 55.5t-70 163.5zM793 139q-37 -77 -114.5 -118t-184.5 -41q-163 0 -256 106.5t-93 296.5v289l-6 362h154l-6 -362v-279q0 -145 58 -224t163 -79
q140 0 213.5 93.5t73.5 262.5l-2 226l-5 362h150l-4 -362v-320l4 -352h-143l6 139h-8z" />
    <glyph glyph-name="Uring" unicode="&#x16e;" horiz-adv-x="1376" 
d="M688 1450q-60 0 -103.5 43.5t-43.5 103.5t43.5 103t103.5 43t103 -43t43 -103t-43 -103.5t-103 -43.5zM688 1516q31 0 53.5 23.5t22.5 57.5t-22.5 58t-53.5 24q-32 0 -54 -24t-22 -58t22 -57.5t54 -23.5zM1202 508q0 -243 -138 -385.5t-372 -142.5q-238 0 -378 142.5
t-140 385.5v551l-6 354h158l-4 -354v-541q0 -192 98 -302t270 -110q170 0 266.5 110t96.5 302v541l-4 354h157l-4 -354v-551z" />
    <glyph glyph-name="uring" unicode="&#x16f;" horiz-adv-x="1093" 
d="M545 1133q-60 0 -104 43t-44 102q0 60 44 102.5t104 42.5t102.5 -42.5t42.5 -102.5q0 -59 -42.5 -102t-102.5 -43zM545 1198q31 0 53.5 24t22.5 56q0 34 -22.5 58t-53.5 24q-32 0 -54 -24t-22 -58q0 -33 22 -56.5t54 -23.5zM793 139q-37 -77 -114.5 -118t-184.5 -41
q-163 0 -256 106.5t-93 296.5v289l-6 362h154l-6 -362v-279q0 -145 58 -224t163 -79q140 0 213.5 93.5t73.5 262.5l-2 226l-5 362h150l-4 -362v-320l4 -352h-143l6 139h-8z" />
    <glyph glyph-name="Uhungarumlaut" unicode="&#x170;" horiz-adv-x="1376" 
d="M803 1681l-289 -170h-129l203 170h215zM1192 1681l-289 -170h-129l203 170h215zM1202 508q0 -243 -138 -385.5t-372 -142.5q-238 0 -378 142.5t-140 385.5v551l-6 354h158l-4 -354v-541q0 -192 98 -302t270 -110q170 0 266.5 110t96.5 302v541l-4 354h157l-4 -354v-551z
" />
    <glyph glyph-name="uhungarumlaut" unicode="&#x171;" horiz-adv-x="1093" 
d="M680 1407l-281 -225h-110l194 225h197zM1026 1407l-281 -225h-110l194 225h197zM793 139q-37 -77 -114.5 -118t-184.5 -41q-163 0 -256 106.5t-93 296.5v289l-6 362h154l-6 -362v-279q0 -145 58 -224t163 -79q140 0 213.5 93.5t73.5 262.5l-2 226l-5 362h150l-4 -362
v-320l4 -352h-143l6 139h-8z" />
    <glyph glyph-name="Uogonek" unicode="&#x172;" horiz-adv-x="1376" 
d="M766 -311q-109 -58 -221 -58q-85 0 -135 37t-50 96q0 64 44 118t147 112q-178 40 -277.5 175.5t-99.5 338.5v551l-6 354h158l-4 -354v-541q0 -192 98 -302t270 -110q170 0 266.5 110t96.5 302v541l-4 354h157l-4 -354v-551q0 -242 -137 -385t-365 -143
q-117 -53 -157.5 -91t-40.5 -82q0 -63 100 -63q35 0 82.5 13.5t81.5 29.5v-98z" />
    <glyph glyph-name="uogonek" unicode="&#x173;" horiz-adv-x="1093" 
d="M793 139q-37 -77 -114.5 -118t-184.5 -41q-163 0 -256 106.5t-93 296.5v289l-6 362h154l-6 -362v-279q0 -145 58 -224t163 -79q140 0 213.5 93.5t73.5 262.5l-2 226l-5 362h150l-4 -362v-320l4 -301l8 -35l-8 -4v-12h-31q-125 -56 -168 -94.5t-43 -83.5q0 -31 27 -47.5
t74 -16.5q35 0 82.5 13.5t81.5 29.5v-98q-41 -22 -102.5 -39.5t-119.5 -17.5q-85 0 -134.5 37t-49.5 96q0 71 55.5 131.5t186.5 126.5l4 102h-8z" />
    <glyph glyph-name="Wcircumflex" unicode="&#x174;" horiz-adv-x="1785" 
d="M780 1511h-151l190 177h146l190 -177h-151l-113 97zM604 0h-151l-295 1061l-107 352h180l84 -352l224 -840h2l315 815l-117 377h156l135 -485l217 -707h4l224 840l84 352h176l-107 -352l-293 -1061h-155l-262 860h-5z" />
    <glyph glyph-name="wcircumflex" unicode="&#x175;" horiz-adv-x="1447" 
d="M590 1188h-125l192 225h131l191 -225h-123l-133 147zM516 0h-141l-211 672l-113 362h156l104 -362l142 -475h6l217 530l-98 307l149 -2l94 -307l166 -522h4l146 469l108 362h160l-123 -362l-211 -672h-141l-182 555h-5z" />
    <glyph glyph-name="Ycircumflex" unicode="&#x176;" horiz-adv-x="1208" 
d="M485 1511h-151l190 177h146l190 -177h-151l-113 97zM684 0h-160l6 352v123l-299 588l-184 350h180l172 -350l203 -410h4l203 408l174 352h178l-184 -354l-299 -584v-123z" />
    <glyph glyph-name="ycircumflex" unicode="&#x177;" horiz-adv-x="1001" 
d="M365 1188h-125l192 225h131l191 -225h-123l-133 147zM444 -369h-153l141 367l-250 674l-139 362h160l129 -362l170 -475h4l166 475l129 362h162l-142 -360z" />
    <glyph glyph-name="Ydieresis" unicode="&#x178;" horiz-adv-x="1208" 
d="M692 1538v145h160v-145h-160zM342 1538v145h160v-145h-160zM684 0h-160l6 352v123l-299 588l-184 350h180l172 -350l203 -410h4l203 408l174 352h178l-184 -354l-299 -584v-123z" />
    <glyph glyph-name="Zacute" unicode="&#x179;" horiz-adv-x="1136" 
d="M924 1681l-289 -170h-129l203 170h215zM1069 0h-1024v117l821 1165v4h-751v127h946v-117l-815 -1165v-4h823v-127z" />
    <glyph glyph-name="zacute" unicode="&#x17a;" horiz-adv-x="864" 
d="M745 1413l-280 -225h-111l195 225h196zM807 0h-754v100l555 826v4l-516 -4v108h688v-102l-549 -821v-5l576 3v-109z" />
    <glyph glyph-name="Zdotaccent" unicode="&#x17b;" horiz-adv-x="1136" 
d="M500 1522v149h157v-149h-157zM1069 0h-1024v117l821 1165v4h-751v127h946v-117l-815 -1165v-4h823v-127z" />
    <glyph glyph-name="zdotaccent" unicode="&#x17c;" horiz-adv-x="864" 
d="M346 1225v159h158v-159h-158zM807 0h-754v100l555 826v4l-516 -4v108h688v-102l-549 -821v-5l576 3v-109z" />
    <glyph glyph-name="Zcaron" unicode="&#x17d;" horiz-adv-x="1136" 
d="M465 1688l110 -97l113 97h152l-191 -177h-145l-191 177h152zM1069 0h-1024v117l821 1165v4h-751v127h946v-117l-815 -1165v-4h823v-127z" />
    <glyph glyph-name="zcaron" unicode="&#x17e;" horiz-adv-x="864" 
d="M285 1411l133 -147l133 147h123l-191 -225h-131l-192 225h125zM807 0h-754v100l555 826v4l-516 -4v108h688v-102l-549 -821v-5l576 3v-109z" />
    <glyph glyph-name="Schwa" unicode="&#x18f;" horiz-adv-x="1409" 
d="M106 897q32 246 189 391.5t391 145.5q285 0 453 -198.5t168 -533.5q0 -331 -168 -526.5t-455 -195.5q-268 0 -426 203.5t-158 549.5h1055q-8 263 -134 418.5t-335 155.5q-168 0 -284 -112t-142 -298h-154zM686 106q199 0 321 131.5t144 368.5h-887q23 -237 133.5 -368.5
t288.5 -131.5z" />
    <glyph glyph-name="florin" unicode="&#x192;" horiz-adv-x="874" 
d="M10 -135q71 0 116.5 40t57.5 115l158 902h-158l21 112h157l25 131q22 125 103.5 197t205.5 72q49 0 115 -15l-18 -108q-48 10 -93 10q-71 0 -116.5 -40.5t-57.5 -115.5l-24 -131h243l-20 -112h-242l-159 -904q-22 -126 -104.5 -196t-207.5 -70q-46 0 -112 15l18 108
q45 -10 92 -10z" />
    <glyph glyph-name="Acaron" unicode="&#x1cd;" horiz-adv-x="1290" 
d="M530 1688l111 -97l113 97h151l-190 -177h-146l-190 177h151zM213 0h-172l135 352l379 1061h182l375 -1061l135 -352h-170l-121 352l-16 47h-592l-14 -47zM641 1249l-244 -721h494l-242 721h-8z" />
    <glyph glyph-name="acaron" unicode="&#x1ce;" horiz-adv-x="1073" 
d="M389 1411l133 -147l133 147h123l-190 -225h-131l-193 225h125zM770 176q-96 -196 -362 -196q-141 0 -233.5 72t-92.5 206q0 176 179 267.5t511 97.5v98q0 111 -62.5 166t-193.5 55q-122 0 -190 -67t-68 -166h-141q0 84 33.5 151t91.5 109t131 64t155 22q191 0 287 -83.5
t96 -244.5v-559q0 -34 19.5 -55t52.5 -21q34 0 70 19v-113q-45 -18 -117 -18q-73 0 -117.5 38t-44.5 105v53h-4zM225 268q0 -80 57.5 -128t161.5 -48q153 0 239.5 94t86.5 240v92q-260 0 -402.5 -63.5t-142.5 -186.5z" />
    <glyph glyph-name="Icaron" unicode="&#x1cf;" horiz-adv-x="530" 
d="M154 1688l110 -97l113 97h151l-190 -177h-145l-191 177h152zM344 0h-158l4 352v709l-4 352h158l-4 -352v-709z" />
    <glyph glyph-name="icaron" unicode="&#x1d0;" horiz-adv-x="468" 
d="M96 1411l133 -147l133 147h123l-190 -225h-131l-193 225h125zM309 0h-149l4 352v320l-4 362h149l-4 -362v-320z" />
    <glyph glyph-name="Ucaron" unicode="&#x1d3;" horiz-adv-x="1376" 
d="M575 1688l111 -97l113 97h151l-190 -177h-146l-190 177h151zM1202 508q0 -243 -138 -385.5t-372 -142.5q-238 0 -378 142.5t-140 385.5v551l-6 354h158l-4 -354v-541q0 -192 98 -302t270 -110q170 0 266.5 110t96.5 302v541l-4 354h157l-4 -354v-551z" />
    <glyph glyph-name="ucaron" unicode="&#x1d4;" horiz-adv-x="1093" 
d="M406 1411l133 -147l133 147h123l-191 -225h-131l-192 225h125zM793 139q-37 -77 -114.5 -118t-184.5 -41q-163 0 -256 106.5t-93 296.5v289l-6 362h154l-6 -362v-279q0 -145 58 -224t163 -79q140 0 213.5 93.5t73.5 262.5l-2 226l-5 362h150l-4 -362v-320l4 -352h-143
l6 139h-8z" />
    <glyph glyph-name="Aringacute" unicode="&#x1fa;" horiz-adv-x="1290" 
d="M213 0h-172l135 352l371 1037q-47 44 -47 106q0 59 42 102t97 43l127 107h215l-240 -141q52 -45 52 -111q0 -61 -48 -106l367 -1037l135 -352h-170l-121 352l-16 47h-592l-14 -47zM647 1413q31 0 53.5 24t22.5 58t-22.5 58t-53.5 24q-32 0 -54 -24t-22 -58t22 -58t54 -24
zM641 1249l-244 -721h494l-242 721h-8z" />
    <glyph glyph-name="aringacute" unicode="&#x1fb;" horiz-adv-x="1073" 
d="M537 1133q-60 0 -104 43t-44 102q0 53 35.5 93.5t87.5 49.5l147 170h197l-240 -192q66 -46 66 -121q0 -59 -42.5 -102t-102.5 -43zM537 1198q31 0 53 24t22 56q0 34 -22 58t-53 24q-32 0 -54 -24t-22 -58q0 -33 22 -56.5t54 -23.5zM770 176q-96 -196 -362 -196
q-141 0 -233.5 72t-92.5 206q0 176 179 267.5t511 97.5v98q0 111 -62.5 166t-193.5 55q-122 0 -190 -67t-68 -166h-141q0 84 33.5 151t91.5 109t131 64t155 22q191 0 287 -83.5t96 -244.5v-559q0 -34 19.5 -55t52.5 -21q34 0 70 19v-113q-45 -18 -117 -18q-73 0 -117.5 38
t-44.5 105v53h-4zM225 268q0 -80 57.5 -128t161.5 -48q153 0 239.5 94t86.5 240v92q-260 0 -402.5 -63.5t-142.5 -186.5z" />
    <glyph glyph-name="AEacute" unicode="&#x1fc;" horiz-adv-x="1828" 
d="M1366 1681l-289 -170h-129l203 170h215zM160 0h-185l187 322l596 1091h956v-127h-700v-485h672v-127h-672v-547h721v-127h-873l6 352v47h-499l-25 -49zM850 1284l-406 -756h424v756h-18z" />
    <glyph glyph-name="aeacute" unicode="&#x1fd;" horiz-adv-x="1757" 
d="M1194 1413l-281 -225h-110l194 225h197zM813 244q-55 -135 -164 -199.5t-250 -64.5q-138 0 -227.5 72t-89.5 206q0 181 181.5 282t508.5 107v74q0 107 -66 164t-190 57q-120 0 -189 -62t-69 -171h-141q0 84 33.5 151t91.5 109t131 64t155 22q267 0 344 -170h2
q108 172 355 172q205 0 320.5 -127t115.5 -359v-65h-752q-4 -203 79 -308.5t237 -105.5q120 0 194.5 65.5t96.5 190.5h141q-22 -177 -134.5 -272.5t-299.5 -95.5q-152 0 -257 68t-149 198zM1231 950q-137 0 -218.5 -86t-94.5 -246h606q-5 160 -81 246t-212 86zM225 268
q0 -80 55 -128t154 -48q149 0 241 104t95 267v78q-255 0 -400 -73t-145 -200z" />
    <glyph glyph-name="Oslashacute" unicode="&#x1fe;" horiz-adv-x="1574" 
d="M1143 1681l-289 -170h-129l203 170h215zM1440 715q0 -157 -42.5 -291t-122 -233t-202 -155t-274.5 -56q-264 0 -439 167l-157 -172h-166l246 269q-127 192 -127 473q0 119 27 226.5t80.5 197t130 155t180 102t225.5 36.5q258 0 428 -160l143 156h166l-229 -250
q133 -189 133 -465zM309 711q0 -205 80 -353l739 807q-132 142 -329 142q-150 0 -263 -82.5t-170 -216.5t-57 -297zM1286 709q0 203 -86 354l-739 -807q131 -147 338 -147q151 0 262.5 79.5t168 214.5t56.5 306z" />
    <glyph glyph-name="oslashacute" unicode="&#x1ff;" horiz-adv-x="1155" 
d="M903 1413l-280 -225h-111l195 225h196zM1044 516q0 -249 -124 -392.5t-338 -143.5q-178 0 -293 100l-68 -82h-153l141 170q-90 142 -90 348q0 249 124.5 394t338.5 145q170 0 284 -94l60 71h155l-133 -160q96 -142 96 -356zM262 518q0 -137 41 -237l483 583
q-81 78 -204 78q-151 0 -235.5 -112t-84.5 -312zM901 518q0 142 -45 244l-485 -586q81 -84 211 -84q151 0 235 112t84 314z" />
    <glyph glyph-name="Scommaaccent" unicode="&#x218;" horiz-adv-x="1265" 
d="M1182 383q0 -185 -148 -294t-395 -109q-266 0 -414.5 133.5t-148.5 367.5h153q0 -181 107 -279t311 -98q183 0 284 77t101 198q0 47 -19.5 84.5t-50 63.5t-84 47.5t-105 35.5t-128.5 31q-67 14 -118 28.5t-114.5 37.5t-109.5 53t-87 70t-62 94.5t-21 119.5q0 186 132 288
t362 102q232 0 367 -117.5t141 -327.5h-154q-2 150 -94 235t-262 85q-161 0 -250.5 -66.5t-89.5 -189.5q0 -48 17 -87.5t50 -67.5t70 -49t88.5 -37t93.5 -26.5t96 -22.5l15 -3q115 -26 194.5 -54t144.5 -71.5t96.5 -105.5t31.5 -146zM467 -371l104 330h142l-135 -330h-111z
" />
    <glyph glyph-name="scommaaccent" unicode="&#x219;" horiz-adv-x="997" 
d="M920 291q0 -142 -112 -226.5t-302 -84.5q-203 0 -318.5 99t-115.5 275h143q0 -126 74.5 -194t206.5 -68q136 0 209 52.5t73 146.5q0 54 -37 89.5t-96.5 53.5t-131.5 32t-143 33t-130 47.5t-95 84t-34 135.5q1 126 111.5 207.5t277.5 81.5q188 0 286.5 -87.5t98.5 -246.5
h-142q0 107 -64 164t-187 57q-105 0 -171.5 -47.5t-66.5 -130.5q0 -41 23 -71.5t61.5 -48.5t88.5 -31t105 -24.5t110 -24.5t105 -34.5t88.5 -51t61.5 -77t23 -110.5zM326 -373l104 330h141l-135 -330h-110z" />
    <glyph glyph-name="Tcommaaccent" unicode="&#x21a;" horiz-adv-x="1083" 
d="M625 0h-164l8 352v936h-434v127h1016v-127h-435v-936zM362 -371l105 330h141l-135 -330h-111z" />
    <glyph glyph-name="tcommaaccent" unicode="&#x21b;" horiz-adv-x="714" 
d="M686 6q-117 -26 -219 -26q-132 0 -202 79t-70 230v633h-152v112h152l-5 250h152l-6 -250h350v-112h-350v-623q0 -104 39 -154.5t121 -50.5q95 0 190 29v-117zM285 -371l104 330h141l-135 -330h-110z" />
    <glyph glyph-name="Ymacron" unicode="&#x232;" horiz-adv-x="1208" 
d="M330 1546v96h526v-96h-526zM684 0h-160l6 352v123l-299 588l-184 350h180l172 -350l203 -410h4l203 408l174 352h178l-184 -354l-299 -584v-123z" />
    <glyph glyph-name="ymacron" unicode="&#x233;" horiz-adv-x="1001" 
d="M231 1239v96h527v-96h-527zM444 -369h-153l141 367l-250 674l-139 362h160l129 -362l170 -475h4l166 475l129 362h162l-142 -360z" />
    <glyph glyph-name="jdotless" unicode="&#x237;" horiz-adv-x="477" 
d="M313 -113q0 -120 -67 -188t-187 -68q-23 0 -39 4v111q8 -2 29 -2q60 0 91.5 37t31.5 108v783l-4 362h149l-4 -362v-785z" />
    <glyph glyph-name="schwa" unicode="&#x259;" horiz-adv-x="1077" 
d="M94 690q22 172 137.5 269.5t300.5 97.5q214 0 334.5 -140.5t120.5 -390.5q0 -261 -120.5 -403.5t-338.5 -142.5q-199 0 -314.5 129t-123.5 358v63h752q6 195 -77 304.5t-237 109.5q-115 0 -191.5 -67t-98.5 -187h-144zM528 88q132 0 214.5 87.5t95.5 242.5h-605
q4 -155 82.5 -242.5t212.5 -87.5z" />
    <glyph glyph-name="circumflex" unicode="&#x2c6;" horiz-adv-x="1228" 
d="M481 1188h-125l193 225h131l190 -225h-122l-134 147z" />
    <glyph glyph-name="caron" unicode="&#x2c7;" horiz-adv-x="1228" 
d="M475 1411l133 -147l133 147h123l-190 -225h-131l-193 225h125z" />
    <glyph glyph-name="breve" unicode="&#x2d8;" horiz-adv-x="1228" 
d="M246 1403h106q6 -61 45 -93t103 -32q63 0 102 32.5t45 92.5h103q-3 -107 -68.5 -163t-181.5 -56q-118 0 -184 55.5t-70 163.5z" />
    <glyph glyph-name="dotaccent" unicode="&#x2d9;" horiz-adv-x="1228" 
d="M457 1225v159h157v-159h-157z" />
    <glyph glyph-name="ring" unicode="&#x2da;" horiz-adv-x="1228" 
d="M530 1133q-60 0 -103.5 43t-43.5 102q0 60 43.5 102.5t103.5 42.5t103 -42.5t43 -102.5q0 -59 -43 -102t-103 -43zM530 1198q31 0 53.5 24t22.5 56q0 34 -22.5 58t-53.5 24q-32 0 -53.5 -24t-21.5 -58q0 -33 21.5 -56.5t53.5 -23.5z" />
    <glyph glyph-name="ogonek" unicode="&#x2db;" horiz-adv-x="1228" 
d="M588 -311q-109 -58 -221 -58q-85 0 -135 37t-50 96q0 86 83 158t288 160l20 -80q-149 -63 -199 -104.5t-50 -90.5q0 -63 100 -63q35 0 82.5 13.5t81.5 29.5v-98z" />
    <glyph glyph-name="tilde" unicode="&#x2dc;" horiz-adv-x="1228" 
d="M332 1202h-86q0 191 155 191q32 0 65 -15.5t55.5 -34t48.5 -34t46 -15.5q70 0 70 103h86q0 -191 -149 -191q-37 0 -77 25t-77.5 49.5t-67.5 24.5q-69 0 -69 -103z" />
    <glyph glyph-name="hungarumlaut" unicode="&#x2dd;" horiz-adv-x="1228" 
d="M631 1413l-281 -225h-110l194 225h197zM977 1413l-281 -225h-110l194 225h197z" />
    <glyph glyph-name="gravecomb" unicode="&#x300;" horiz-adv-x="1095" 
d="M289 1413h196l195 -225h-111z" />
    <glyph glyph-name="acutecomb" unicode="&#x301;" horiz-adv-x="1095" 
d="M821 1413l-280 -225h-111l195 225h196z" />
    <glyph glyph-name="circumflexcomb" unicode="&#x302;" horiz-adv-x="888" 
d="M313 1188h-125l193 225h131l190 -225h-122l-134 147z" />
    <glyph glyph-name="tildecomb" unicode="&#x303;" horiz-adv-x="894" 
d="M270 1202h-86q0 191 156 191q32 0 65 -15.5t55.5 -34t48.5 -34t46 -15.5q70 0 70 103h86q0 -191 -150 -191q-37 0 -77 25t-77 49.5t-67 24.5q-70 0 -70 -103z" />
    <glyph glyph-name="macroncomb" unicode="&#x304;" horiz-adv-x="913" 
d="M193 1251v97h526v-97h-526z" />
    <glyph glyph-name="brevecomb" unicode="&#x306;" horiz-adv-x="886" 
d="M190 1403h107q6 -61 44.5 -93t102.5 -32q63 0 102.5 32.5t45.5 92.5h102q-3 -107 -68.5 -163t-181.5 -56q-118 0 -184 55.5t-70 163.5z" />
    <glyph glyph-name="dotaccentcomb" unicode="&#x307;" horiz-adv-x="968" 
d="M406 1225v159h157v-159h-157z" />
    <glyph glyph-name="dieresiscomb" unicode="&#x308;" horiz-adv-x="968" 
d="M580 1243v158h159v-158h-159zM229 1243v158h160v-158h-160z" />
    <glyph glyph-name="ringcomb" unicode="&#x30a;" horiz-adv-x="978" 
d="M489 1133q-60 0 -103.5 43t-43.5 102q0 60 43.5 102.5t103.5 42.5t103 -42.5t43 -102.5q0 -59 -43 -102t-103 -43zM489 1198q31 0 53.5 24t22.5 56q0 34 -22.5 58t-53.5 24q-32 0 -53.5 -24t-21.5 -58q0 -33 21.5 -56.5t53.5 -23.5z" />
    <glyph glyph-name="hungarumlautcomb" unicode="&#x30b;" horiz-adv-x="1157" 
d="M600 1413l-281 -225h-110l194 225h197zM946 1413l-280 -225h-111l195 225h196z" />
    <glyph glyph-name="caroncomb" unicode="&#x30c;" horiz-adv-x="907" 
d="M313 1411l133 -147l134 147h122l-190 -225h-131l-193 225h125z" />
    <glyph glyph-name="commaturnedabovecomb" unicode="&#x312;" horiz-adv-x="534" 
d="M412 1413l-107 -330h-139l135 330h111z" />
    <glyph glyph-name="commaaboverightcomb" unicode="&#x315;" horiz-adv-x="534" 
d="M178 1083l105 330h141l-135 -330h-111z" />
    <glyph glyph-name="commaaccentcomb" unicode="&#x326;" horiz-adv-x="499" 
d="M92 -371l105 330h141l-135 -330h-111z" />
    <glyph glyph-name="cedillacomb" unicode="&#x327;" horiz-adv-x="745" 
d="M342 -362q-67 0 -112.5 30.5t-45.5 77.5h90q0 -19 19 -31t49 -12q31 0 48.5 18.5t17.5 49.5q0 35 -23 55t-63 20h-72l33 189h90l-23 -125q72 0 110 -38t38 -101q0 -60 -40.5 -96.5t-115.5 -36.5z" />
    <glyph glyph-name="ogonekcomb" unicode="&#x328;" horiz-adv-x="622" 
d="M494 -311q-42 -22 -103.5 -40t-118.5 -18q-85 0 -134.5 37t-49.5 96q0 86 83 158t288 160l20 -80q-149 -63 -199.5 -104.5t-50.5 -90.5q0 -63 101 -63q35 0 82.5 13.5t81.5 29.5v-98z" />
    <glyph glyph-name="strokeshortcomb" unicode="&#x335;" horiz-adv-x="663" 
d="M647 1290v-110h-645v110h645z" />
    <glyph glyph-name="strokelongcomb" unicode="&#x336;" horiz-adv-x="1239" 
d="M1204 1290v-110h-1169v110h1169z" />
    <glyph glyph-name="slashshortcomb" unicode="&#x337;" horiz-adv-x="1153" 
d="M1071 1034l-860 -1034h-154l858 1034h156z" />
    <glyph glyph-name="slashlongcomb" unicode="&#x338;" horiz-adv-x="1499" 
d="M1499 1434l-1333 -1454h-166l1333 1454h166z" />
    <glyph glyph-name="Delta" unicode="&#x394;" horiz-adv-x="1333" 
d="M57 143l535 1270h149l535 -1270v-118h-1219v118zM1133 137l-465 1163l-467 -1163h932z" />
    <glyph glyph-name="Omega" unicode="&#x3a9;" horiz-adv-x="1556" 
d="M449 127q-149 65 -230.5 216.5t-81.5 373.5q0 147 41 275.5t119 227.5t202 156.5t279 57.5t279 -57.5t202 -156.5t119 -227.5t41 -275.5q0 -222 -81 -373.5t-230 -216.5h164l166 6v-137l-166 4h-412v127q117 0 210 76.5t144.5 209.5t51.5 298q0 117 -32 222.5t-91.5 189
t-154 133t-210.5 49.5t-210 -49.5t-153.5 -133t-91.5 -189t-32 -222.5q0 -165 51 -298t144 -209.5t210 -76.5v-127h-409l-168 -4v137l168 -6h162z" />
    <glyph glyph-name="mu" unicode="&#x3bc;" horiz-adv-x="1167" 
d="M158 672l-4 362h151l-6 -362l-2 -226q0 -169 73.5 -262.5t213.5 -93.5q138 0 212 93.5t72 262.5l-2 226l-4 362h152l-6 -362v-365l4 -307h-142l4 139h-8q-33 -72 -107.5 -115.5t-174.5 -43.5t-175 43.5t-110 115.5h-6l4 -508h-143l4 310v731z" />
    <glyph glyph-name="pi" unicode="&#x3c0;" horiz-adv-x="1351" 
d="M43 1034h1231v-139h-223l-4 -223v-445q0 -65 30.5 -100t85.5 -35q51 0 111 29v-113q-58 -28 -119 -28q-117 0 -182.5 69t-65.5 191v432l-4 223h-491l-4 -223v-310l6 -362h-150l4 362v310l-4 223h-221v139z" />
    <glyph glyph-name="Wgrave" unicode="&#x1e80;" horiz-adv-x="1785" 
d="M545 1681h215l203 -170h-129zM604 0h-151l-295 1061l-107 352h180l84 -352l224 -840h2l315 815l-117 377h156l135 -485l217 -707h4l224 840l84 352h176l-107 -352l-293 -1061h-155l-262 860h-5z" />
    <glyph glyph-name="wgrave" unicode="&#x1e81;" horiz-adv-x="1447" 
d="M451 1413h196l195 -225h-111zM516 0h-141l-211 672l-113 362h156l104 -362l142 -475h6l217 530l-98 307l149 -2l94 -307l166 -522h4l146 469l108 362h160l-123 -362l-211 -672h-141l-182 555h-5z" />
    <glyph glyph-name="Wacute" unicode="&#x1e82;" horiz-adv-x="1785" 
d="M1237 1681l-289 -170h-129l203 170h215zM604 0h-151l-295 1061l-107 352h180l84 -352l224 -840h2l315 815l-117 377h156l135 -485l217 -707h4l224 840l84 352h176l-107 -352l-293 -1061h-155l-262 860h-5z" />
    <glyph glyph-name="wacute" unicode="&#x1e83;" horiz-adv-x="1447" 
d="M1030 1413l-280 -225h-111l195 225h196zM516 0h-141l-211 672l-113 362h156l104 -362l142 -475h6l217 530l-98 307l149 -2l94 -307l166 -522h4l146 469l108 362h160l-123 -362l-211 -672h-141l-182 555h-5z" />
    <glyph glyph-name="Wdieresis" unicode="&#x1e84;" horiz-adv-x="1785" 
d="M987 1538v145h160v-145h-160zM637 1538v145h160v-145h-160zM604 0h-151l-295 1061l-107 352h180l84 -352l224 -840h2l315 815l-117 377h156l135 -485l217 -707h4l224 840l84 352h176l-107 -352l-293 -1061h-155l-262 860h-5z" />
    <glyph glyph-name="wdieresis" unicode="&#x1e85;" horiz-adv-x="1447" 
d="M817 1243v158h160v-158h-160zM467 1243v158h160v-158h-160zM516 0h-141l-211 672l-113 362h156l104 -362l142 -475h6l217 530l-98 307l149 -2l94 -307l166 -522h4l146 469l108 362h160l-123 -362l-211 -672h-141l-182 555h-5z" />
    <glyph glyph-name="Germandbls" unicode="&#x1e9e;" horiz-adv-x="1384" 
d="M328 0h-158l6 352v647q0 200 136 316.5t378 116.5q138 0 273 -51.5t223 -137.5l-209 -461q146 -26 234.5 -136t88.5 -259q0 -186 -121 -296.5t-325 -110.5q-124 0 -205 24l10 125q73 -25 193 -25q138 0 217.5 76.5t79.5 208.5q0 135 -95 217t-259 82l227 522
q-158 95 -336 95q-175 0 -269.5 -80.5t-94.5 -223.5v-649z" />
    <glyph glyph-name="Ygrave" unicode="&#x1ef2;" horiz-adv-x="1208" 
d="M250 1681h215l203 -170h-129zM684 0h-160l6 352v123l-299 588l-184 350h180l172 -350l203 -410h4l203 408l174 352h178l-184 -354l-299 -584v-123z" />
    <glyph glyph-name="ygrave" unicode="&#x1ef3;" horiz-adv-x="1001" 
d="M225 1413h197l194 -225h-110zM444 -369h-153l141 367l-250 674l-139 362h160l129 -362l170 -475h4l166 475l129 362h162l-142 -360z" />
    <glyph glyph-name="endash" unicode="&#x2013;" horiz-adv-x="1140" 
d="M127 578v98h887v-98h-887z" />
    <glyph glyph-name="emdash" unicode="&#x2014;" horiz-adv-x="1626" 
d="M127 573v101h1372v-101h-1372z" />
    <glyph glyph-name="quoteleft" unicode="&#x2018;" horiz-adv-x="403" 
d="M307 979h-110l-136 434h150z" />
    <glyph glyph-name="quoteright" unicode="&#x2019;" horiz-adv-x="403" 
d="M96 979l97 434h149l-135 -434h-111z" />
    <glyph glyph-name="quotesinglbase" unicode="&#x201a;" horiz-adv-x="405" 
d="M47 -252l96 434h150l-135 -434h-111z" />
    <glyph glyph-name="quotedblleft" unicode="&#x201c;" horiz-adv-x="673" 
d="M305 979h-110l-136 434h150zM578 979h-111l-135 434h149z" />
    <glyph glyph-name="quotedblright" unicode="&#x201d;" horiz-adv-x="673" 
d="M369 979l96 434h149l-135 -434h-110zM96 979l97 434h149l-135 -434h-111z" />
    <glyph glyph-name="quotedblbase" unicode="&#x201e;" horiz-adv-x="677" 
d="M319 -252l97 434h149l-135 -434h-111zM47 -252l96 434h150l-135 -434h-111z" />
    <glyph glyph-name="dagger" unicode="&#x2020;" horiz-adv-x="960" 
d="M551 -248h-141l6 363v807l-363 -4v139l363 -6l-6 362h141l-6 -362l362 6v-139l-362 4v-807z" />
    <glyph glyph-name="daggerdbl" unicode="&#x2021;" horiz-adv-x="1073" 
d="M606 -248h-139l4 363l-362 -4v139l362 -6v678l-362 -4v139l362 -6l-4 362h139l-6 -362h2l363 6v-139l-363 4h-2v-678h2l363 6v-139l-363 4h-2z" />
    <glyph glyph-name="bullet" unicode="&#x2022;" horiz-adv-x="532" 
d="M266 543q-37 0 -63.5 25.5t-26.5 62.5t26.5 63.5t63.5 26.5t62.5 -26.5t25.5 -63.5t-25.5 -62.5t-62.5 -25.5z" />
    <glyph glyph-name="ellipsis" unicode="&#x2026;" horiz-adv-x="983" 
d="M682 0v182h184v-182h-184zM401 0v182h183v-182h-183zM117 0v182h182v-182h-182z" />
    <glyph glyph-name="perthousand" unicode="&#x2030;" horiz-adv-x="2498" 
d="M395 580q-152 0 -240.5 116t-88.5 316q0 201 88.5 317.5t242.5 116.5q153 0 242.5 -116.5t89.5 -317.5q0 -199 -90 -315.5t-244 -116.5zM281 0l1054 1415h119l-1053 -1415h-120zM395 1356q-103 0 -161 -91t-58 -253q0 -164 58 -254t161 -90q104 0 163.5 90.5t59.5 253.5
q0 162 -60 253t-163 91zM1348 -14q-152 0 -241 116.5t-89 315.5q0 201 89 317.5t243 116.5q153 0 242 -116.5t89 -317.5q0 -199 -89.5 -315.5t-243.5 -116.5zM2099 -14q-152 0 -241 116.5t-89 315.5q0 201 89 317.5t243 116.5q153 0 242.5 -116.5t89.5 -317.5
q0 -199 -90 -315.5t-244 -116.5zM1348 762q-103 0 -161.5 -91t-58.5 -253q0 -163 58.5 -253.5t161.5 -90.5q104 0 163.5 90.5t59.5 253.5q0 162 -60 253t-163 91zM2099 762q-103 0 -161 -91t-58 -253q0 -164 58 -254t161 -90q104 0 163.5 90.5t59.5 253.5q0 162 -60 253
t-163 91z" />
    <glyph glyph-name="guilsinglleft" unicode="&#x2039;" horiz-adv-x="692" 
d="M444 98l-391 424l391 422h160l-397 -422l397 -424h-160z" />
    <glyph glyph-name="guilsinglright" unicode="&#x203a;" horiz-adv-x="692" 
d="M248 98h-160l397 424l-397 422h160l391 -422z" />
    <glyph glyph-name="fraction" unicode="&#x2044;" horiz-adv-x="573" 
d="M-297 0l1055 1415h119l-1053 -1415h-121z" />
    <glyph glyph-name="zerosuperior" unicode="&#x2070;" 
d="M418 791q-152 0 -241 116.5t-89 315.5q0 201 89 317.5t243 116.5q153 0 242.5 -116.5t89.5 -317.5q0 -199 -90 -315.5t-244 -116.5zM418 1567q-103 0 -161 -91t-58 -253q0 -164 58 -254t161 -90q104 0 163.5 90.5t59.5 253.5q0 162 -60 253t-163 91z" />
    <glyph glyph-name="foursuperior" unicode="&#x2074;" 
d="M68 1018v90l419 530h146l-2 -219v-315h139v-86h-139v-43l2 -170h-107l4 170v43h-462zM172 1104h358v436z" />
    <glyph glyph-name="fivesuperior" unicode="&#x2075;" 
d="M106 1032h111q-3 -70 52 -110.5t147 -40.5q99 0 155 54t56 150t-55 150.5t-154 54.5q-68 0 -118.5 -30t-63.5 -80h-99l31 458h512v-88h-422l-25 -266h5q25 47 84 70.5t129 23.5q132 0 207 -77t75 -211q0 -139 -83 -217t-234 -78q-140 0 -225 64t-85 173z" />
    <glyph glyph-name="sixsuperior" unicode="&#x2076;" 
d="M170 909q-74 109 -74 295q0 205 87 327t255 122q125 0 202 -56t81 -151h-109q-6 54 -56 85.5t-120 31.5q-235 0 -239 -361h4q23 70 92 108t168 38q142 0 217.5 -74t75.5 -203q0 -125 -81.5 -200.5t-232.5 -75.5q-190 0 -270 114zM436 1264q-104 0 -158.5 -50t-54.5 -143
q0 -94 54.5 -143t158.5 -49q100 0 153.5 49.5t53.5 142.5q0 92 -53.5 142.5t-153.5 50.5z" />
    <glyph glyph-name="sevensuperior" unicode="&#x2077;" 
d="M98 1540v98h645v-86q-109 -181 -157.5 -263.5t-119.5 -222.5t-116 -261h-121q121 305 385 731v4h-516z" />
    <glyph glyph-name="eightsuperior" unicode="&#x2078;" 
d="M299 1255q-83 15 -130.5 65.5t-47.5 121.5q0 98 81 155.5t220 57.5q138 0 217.5 -57.5t79.5 -155.5q0 -71 -47.5 -121.5t-128.5 -65.5v-4q97 -14 154 -72.5t57 -146.5q0 -110 -88.5 -173.5t-243.5 -63.5t-244.5 63.5t-89.5 173.5q0 86 57 145t154 74v4zM422 1569
q-91 0 -142 -35.5t-51 -101.5q0 -64 51 -100t142 -36q88 0 138 36t50 100q0 66 -50 101.5t-138 35.5zM422 1206q-106 0 -164.5 -43t-58.5 -121q0 -76 58.5 -118.5t164.5 -42.5q104 0 162.5 42.5t58.5 118.5q0 78 -58.5 121t-162.5 43z" />
    <glyph glyph-name="ninesuperior" unicode="&#x2079;" 
d="M387 1100q-142 0 -221.5 72t-79.5 200t86.5 204.5t233.5 76.5q208 0 288 -156q20 -36 31.5 -91t14.5 -91t3 -64q0 -224 -91 -340t-265 -116q-127 0 -201.5 59.5t-74.5 161.5h106q4 -63 51.5 -99t124.5 -36q250 0 250 364h-4q-18 -64 -83 -104.5t-169 -40.5zM418 1567
q-108 0 -164.5 -49t-56.5 -142t56.5 -142.5t162.5 -49.5q94 0 147 47t53 135q0 98 -51 149.5t-147 51.5z" />
    <glyph glyph-name="zeroinferior" unicode="&#x2080;" 
d="M418 -260q-152 0 -241 116.5t-89 315.5q0 201 89 317.5t243 116.5q153 0 242.5 -116.5t89.5 -317.5q0 -199 -90 -315.5t-244 -116.5zM418 516q-103 0 -161 -91t-58 -253q0 -164 58 -254t161 -90q104 0 163.5 90.5t59.5 253.5q0 162 -60 253t-163 91z" />
    <glyph glyph-name="oneinferior" unicode="&#x2081;" 
d="M217 -246v113h227v600q-21 -17 -113 -67t-126 -64v98q39 20 132 75.5t122 78.5h96l-2 -219v-502h205v-113h-541z" />
    <glyph glyph-name="twoinferior" unicode="&#x2082;" 
d="M231 305h-108q0 137 81.5 216t225.5 79q116 0 190 -59.5t74 -165.5q0 -60 -35 -113t-135 -153q-238 -239 -264 -263h475v-92h-626v62q39 39 102.5 101.5t108 107.5t79.5 81q116 117 151.5 167t35.5 100q0 68 -45.5 103.5t-118.5 35.5q-91 0 -141 -54.5t-50 -152.5z" />
    <glyph glyph-name="threeinferior" unicode="&#x2083;" 
d="M418 600q137 0 215 -57t78 -154q0 -65 -51 -115t-130 -63v-2q98 -13 155.5 -71t57.5 -142q0 -119 -86 -186.5t-241 -67.5q-154 0 -242 71t-88 193h107q0 -83 58 -129.5t163 -46.5q102 0 158.5 43.5t56.5 120.5q0 75 -64.5 116.5t-183.5 41.5h-51v86h43q108 0 167.5 37
t59.5 104q0 63 -48 98t-134 35q-90 0 -140.5 -44t-52.5 -122h-110q0 118 80.5 186t222.5 68z" />
    <glyph glyph-name="fourinferior" unicode="&#x2084;" 
d="M68 -33v90l419 531h146l-2 -219v-316h139v-86h-139v-43l2 -170h-107l4 170v43h-462zM172 53h358v436z" />
    <glyph glyph-name="fiveinferior" unicode="&#x2085;" 
d="M106 -18h111q-3 -70 52 -111t147 -41q99 0 155 54.5t56 150.5t-55 150.5t-154 54.5q-68 0 -118.5 -30t-63.5 -81h-99l31 459h512v-88h-422l-25 -267h5q25 47 84 71t129 24q132 0 207 -77.5t75 -211.5q0 -139 -83 -217t-234 -78q-139 0 -224.5 64.5t-85.5 173.5z" />
    <glyph glyph-name="sixinferior" unicode="&#x2086;" 
d="M170 -141q-74 109 -74 295q0 205 87 326.5t255 121.5q125 0 202 -56t81 -151h-109q-6 54 -56 85.5t-120 31.5q-235 0 -239 -360h4q23 70 92 107.5t168 37.5q142 0 217.5 -74t75.5 -203q0 -125 -81.5 -200.5t-232.5 -75.5q-189 0 -270 115zM436 213q-104 0 -158.5 -50
t-54.5 -143q0 -94 54.5 -143t158.5 -49q100 0 153.5 49.5t53.5 142.5q0 92 -53.5 142.5t-153.5 50.5z" />
    <glyph glyph-name="seveninferior" unicode="&#x2087;" 
d="M96 489v99h645v-86q-107 -178 -157 -263t-120.5 -224.5t-115.5 -260.5h-121q121 305 385 731v4h-516z" />
    <glyph glyph-name="eightinferior" unicode="&#x2088;" 
d="M299 205q-83 15 -130.5 65t-47.5 121q0 98 81 155.5t220 57.5q138 0 217.5 -57.5t79.5 -155.5q0 -71 -47 -121t-129 -65v-4q97 -14 154 -72.5t57 -146.5q0 -111 -88.5 -174.5t-243.5 -63.5t-244.5 64t-89.5 174q0 86 57 145t154 74v4zM422 518q-91 0 -142 -35.5
t-51 -101.5q0 -64 51 -99.5t142 -35.5q88 0 138 35.5t50 99.5q0 66 -50 101.5t-138 35.5zM422 156q-106 0 -164.5 -43t-58.5 -121q0 -77 58.5 -119.5t164.5 -42.5q104 0 162.5 43t58.5 119q0 78 -58.5 121t-162.5 43z" />
    <glyph glyph-name="nineinferior" unicode="&#x2089;" 
d="M387 49q-142 0 -221.5 72.5t-79.5 200.5t86.5 204t233.5 76q208 0 288 -156q49 -91 49 -245q0 -224 -91 -340.5t-265 -116.5q-127 0 -201.5 59.5t-74.5 161.5h106q4 -63 51.5 -99t124.5 -36q250 0 250 365h-4q-18 -64 -83 -105t-169 -41zM418 516q-108 0 -164.5 -48.5
t-56.5 -141.5q0 -94 56.5 -143.5t162.5 -49.5q94 0 147 47t53 135q0 98 -51 149.5t-147 51.5z" />
    <glyph glyph-name="euro" unicode="&#x20ac;" horiz-adv-x="1531" 
d="M940 784h-862v113h182q35 238 195 387.5t403 149.5q257 0 405 -140t164 -368l-157 -2q-21 179 -123.5 280t-290.5 101q-179 0 -293.5 -112t-146.5 -296h524v-113zM78 635h862v-111h-524q33 -192 149.5 -303.5t300.5 -111.5t286.5 107t121.5 300h160
q-27 -247 -174.5 -391.5t-387.5 -144.5q-256 0 -412 148.5t-198 395.5h-184v111z" />
    <glyph glyph-name="numero" unicode="&#x2116;" horiz-adv-x="2113" 
d="M2019 1106q0 -148 -83 -234t-226 -86q-141 0 -223 86t-82 234q0 151 82 237.5t223 86.5q143 0 226 -87t83 -237zM344 0h-158l4 352v707l-4 354h162l617 -921l172 -254h6v821l-6 354h159l-6 -354v-707l6 -352h-159l-633 928l-162 241h-2v-817zM1532 1108q0 -107 46.5 -167
t131.5 -60q86 0 133 59.5t47 167.5t-47 167.5t-133 59.5q-85 0 -131.5 -60t-46.5 -167zM1405 578v102h620v-102h-620z" />
    <glyph glyph-name="servicemark" unicode="&#x2120;" horiz-adv-x="1669" 
d="M664 899q0 -92 -74.5 -147.5t-198.5 -55.5q-133 0 -207.5 68t-74.5 188h98q0 -89 45.5 -136.5t130.5 -47.5q88 0 138 34t50 97q0 44 -33.5 72t-83.5 39.5t-108 27t-108 33.5t-83.5 60.5t-33.5 105.5q0 92 70.5 144.5t195.5 52.5q118 0 185 -61.5t67 -168.5h-82
q0 77 -45.5 118.5t-130.5 41.5q-79 0 -123.5 -33t-44.5 -90q0 -39 33.5 -65.5t83.5 -38.5t108.5 -29.5t108.5 -37.5t83.5 -64t33.5 -107zM905 707h-104l6 161v392l-6 155h123l241 -577l236 577h125l-6 -160v-387l6 -161h-103l4 159v312l3 116l-224 -557h-90l-223 553l6 -114
v-308z" />
    <glyph glyph-name="trademark" unicode="&#x2122;" horiz-adv-x="1687" 
d="M809 707l6 161v392l-6 155h123l242 -577l235 577h125l-6 -160v-387l6 -161h-102l4 159v312l2 116l-224 -557h-90l-223 553l6 -114v-308l6 -161h-104zM336 707l6 254l-4 372h-283v82h670v-82h-283l-4 -372l6 -254h-108z" />
    <glyph glyph-name="estimated" unicode="&#x212e;" horiz-adv-x="1159" 
d="M586 -20q-227 0 -356.5 139t-129.5 391q0 260 130.5 406.5t359.5 146.5q223 0 349.5 -119t135.5 -352v-74h-774v-397q111 -90 289 -90q126 0 229.5 58t159.5 175l45 -24q-64 -126 -177 -193t-261 -67zM301 913v-344h573v363q-101 80 -282 80q-184 0 -291 -99z" />
    <glyph glyph-name="oneseventh" unicode="&#x2150;" horiz-adv-x="1925" 
d="M219 594v113h227v600q-21 -17 -113 -67t-126 -64v98q40 21 132.5 75.5t121.5 77.5h96l-2 -219v-501h205v-113h-541zM406 0l1054 1415h119l-1053 -1415h-120zM1184 735v99h645v-86q-107 -178 -157 -263t-120.5 -224.5t-115.5 -260.5h-121q121 305 385 731v4h-516z" />
    <glyph glyph-name="oneninth" unicode="&#x2151;" horiz-adv-x="1863" 
d="M219 594v113h227v600q-21 -17 -113 -67t-126 -64v98q40 21 132.5 75.5t121.5 77.5h96l-2 -219v-501h205v-113h-541zM406 0l1054 1415h119l-1053 -1415h-120zM1413 295q-142 0 -221.5 72t-79.5 200t86.5 204.5t233.5 76.5q208 0 288 -156q20 -36 31.5 -91t14.5 -91t3 -64
q0 -224 -91 -340t-265 -116q-127 0 -201.5 59.5t-74.5 161.5h106q4 -63 51.5 -99t124.5 -36q250 0 250 364h-4q-18 -64 -83 -104.5t-169 -40.5zM1444 762q-108 0 -164.5 -49t-56.5 -142t56.5 -142.5t162.5 -49.5q94 0 147 47t53 135q0 98 -51 149.5t-147 51.5z" />
    <glyph glyph-name="onetenth" unicode="&#x2152;" horiz-adv-x="2508" 
d="M219 594v113h227v600q-21 -17 -113 -67t-126 -64v98q40 21 132.5 75.5t121.5 77.5h96l-2 -219v-501h205v-113h-541zM406 0l1054 1415h119l-1053 -1415h-120zM2087 -14q-152 0 -241 116.5t-89 315.5q0 201 89 317.5t243 116.5q153 0 242.5 -116.5t89.5 -317.5
q0 -199 -90 -315.5t-244 -116.5zM1223 0v113h227v600q-21 -16 -113.5 -66.5t-126.5 -64.5v98q39 20 132 75.5t122 78.5h97l-2 -220v-501h204v-113h-540zM2087 762q-103 0 -161 -91t-58 -253q0 -164 58 -254t161 -90q104 0 163.5 90.5t59.5 253.5q0 162 -60 253t-163 91z" />
    <glyph glyph-name="onethird" unicode="&#x2153;" horiz-adv-x="1863" 
d="M219 594v113h227v600q-21 -17 -113 -67t-126 -64v98q40 21 132.5 75.5t121.5 77.5h96l-2 -219v-501h205v-113h-541zM406 0l1054 1415h119l-1053 -1415h-120zM1444 846q137 0 215 -57t78 -154q0 -65 -51 -115t-130 -63v-2q98 -13 155.5 -71t57.5 -142q0 -119 -86 -186.5
t-241 -67.5q-154 0 -242 71t-88 193h107q0 -83 58 -129.5t163 -46.5q102 0 158.5 43.5t56.5 120.5q0 75 -64 116t-184 41h-51v86h43q107 0 167 37.5t60 104.5q0 63 -48 98t-134 35q-90 0 -140.5 -44t-52.5 -122h-110q0 118 80.5 186t222.5 68z" />
    <glyph glyph-name="twothirds" unicode="&#x2154;" horiz-adv-x="1863" 
d="M231 1145h-108q0 137 81.5 216t225.5 79q116 0 190 -60t74 -166q0 -60 -35 -113t-135 -153q-213 -213 -264 -262h475v-92h-626v61q35 35 101.5 101t110 109.5t78.5 80.5q116 118 151.5 167t35.5 99q0 68 -46 104t-118 36q-91 0 -141 -54.5t-50 -152.5zM406 0l1054 1415
h119l-1053 -1415h-120zM1444 846q137 0 215 -57t78 -154q0 -65 -51 -115t-130 -63v-2q98 -13 155.5 -71t57.5 -142q0 -119 -86 -186.5t-241 -67.5q-154 0 -242 71t-88 193h107q0 -83 58 -129.5t163 -46.5q102 0 158.5 43.5t56.5 120.5q0 75 -64 116t-184 41h-51v86h43
q107 0 167 37.5t60 104.5q0 63 -48 98t-134 35q-90 0 -140.5 -44t-52.5 -122h-110q0 118 80.5 186t222.5 68z" />
    <glyph glyph-name="onefifth" unicode="&#x2155;" horiz-adv-x="1884" 
d="M217 594v113h227v600q-21 -17 -113 -67t-126 -64v98q40 21 132.5 75.5t121.5 77.5h96l-2 -219v-501h205v-113h-541zM406 0l1054 1415h119l-1053 -1415h-120zM1153 227h111q-3 -70 51.5 -110.5t146.5 -40.5q99 0 155 54.5t56 150.5t-55 150t-154 54q-68 0 -118.5 -30
t-63.5 -80h-98l30 459h512v-89h-421l-25 -266h4q25 47 84 70.5t129 23.5q132 0 207.5 -77t75.5 -211q0 -139 -83.5 -217t-234.5 -78q-139 0 -224 64t-85 173z" />
    <glyph glyph-name="twofifths" unicode="&#x2156;" horiz-adv-x="1884" 
d="M231 1145h-108q0 137 81.5 216t225.5 79q116 0 190 -60t74 -166q0 -60 -35 -113t-135 -153q-213 -213 -264 -262h475v-92h-626v61q35 35 101.5 101t110 109.5t78.5 80.5q116 118 151.5 167t35.5 99q0 68 -46 104t-118 36q-91 0 -141 -54.5t-50 -152.5zM406 0l1054 1415
h119l-1053 -1415h-120zM1153 227h111q-3 -70 51.5 -110.5t146.5 -40.5q99 0 155 54.5t56 150.5t-55 150t-154 54q-68 0 -118.5 -30t-63.5 -80h-98l30 459h512v-89h-421l-25 -266h4q25 47 84 70.5t129 23.5q132 0 207.5 -77t75.5 -211q0 -139 -83.5 -217t-234.5 -78
q-139 0 -224 64t-85 173z" />
    <glyph glyph-name="threefifths" unicode="&#x2157;" horiz-adv-x="1884" 
d="M418 1440q137 0 215 -57t78 -154q0 -65 -51 -115t-130 -63v-2q98 -13 155.5 -71t57.5 -142q0 -119 -86 -186.5t-241 -67.5q-154 0 -242 71t-88 193h107q0 -83 58 -129.5t163 -46.5q102 0 158.5 43.5t56.5 120.5q0 75 -64 116t-184 41h-51v86h43q107 0 167 37.5t60 104.5
q0 63 -48 98t-134 35q-90 0 -140.5 -44t-52.5 -122h-110q0 118 80.5 186t222.5 68zM406 0l1054 1415h119l-1053 -1415h-120zM1153 227h111q-3 -70 51.5 -110.5t146.5 -40.5q99 0 155 54.5t56 150.5t-55 150t-154 54q-68 0 -118.5 -30t-63.5 -80h-98l30 459h512v-89h-421
l-25 -266h4q25 47 84 70.5t129 23.5q132 0 207.5 -77t75.5 -211q0 -139 -83.5 -217t-234.5 -78q-139 0 -224 64t-85 173z" />
    <glyph glyph-name="fourfifths" unicode="&#x2158;" horiz-adv-x="1884" 
d="M68 807v90l419 530h146l-2 -219v-315h139v-86h-139v-43l2 -170h-107l4 170v43h-462zM406 0l1054 1415h119l-1053 -1415h-120zM172 893h358v436zM1153 227h111q-3 -70 51.5 -110.5t146.5 -40.5q99 0 155 54.5t56 150.5t-55 150t-154 54q-68 0 -118.5 -30t-63.5 -80h-98
l30 459h512v-89h-421l-25 -266h4q25 47 84 70.5t129 23.5q132 0 207.5 -77t75.5 -211q0 -139 -83.5 -217t-234.5 -78q-139 0 -224 64t-85 173z" />
    <glyph glyph-name="onesixth" unicode="&#x2159;" horiz-adv-x="1863" 
d="M217 594v113h227v600q-21 -17 -113 -67t-126 -64v98q40 21 132.5 75.5t121.5 77.5h96l-2 -219v-501h205v-113h-541zM406 0l1054 1415h119l-1053 -1415h-120zM1196 104q-74 109 -74 295q0 205 87 327t255 122q125 0 202 -56t81 -151h-109q-6 54 -56 85.5t-120 31.5
q-235 0 -239 -361h4q23 70 92 108t168 38q142 0 217.5 -74t75.5 -203q0 -125 -81.5 -200.5t-232.5 -75.5q-190 0 -270 114zM1462 459q-104 0 -158.5 -50t-54.5 -143q0 -94 54.5 -143t158.5 -49q100 0 153.5 49.5t53.5 142.5q0 92 -53.5 142.5t-153.5 50.5z" />
    <glyph glyph-name="fivesixths" unicode="&#x215a;" horiz-adv-x="1863" 
d="M106 821h111q-3 -70 52 -110.5t147 -40.5q99 0 155 54t56 150t-55 150.5t-154 54.5q-68 0 -118.5 -30t-63.5 -80h-99l31 458h512v-88h-422l-25 -266h5q25 47 84 70.5t129 23.5q132 0 207 -77t75 -211q0 -139 -83 -217t-234 -78q-140 0 -225 64t-85 173zM406 0l1054 1415
h119l-1053 -1415h-120zM1196 104q-74 109 -74 295q0 205 87 327t255 122q125 0 202 -56t81 -151h-109q-6 54 -56 85.5t-120 31.5q-235 0 -239 -361h4q23 70 92 108t168 38q142 0 217.5 -74t75.5 -203q0 -125 -81.5 -200.5t-232.5 -75.5q-190 0 -270 114zM1462 459
q-104 0 -158.5 -50t-54.5 -143q0 -94 54.5 -143t158.5 -49q100 0 153.5 49.5t53.5 142.5q0 92 -53.5 142.5t-153.5 50.5z" />
    <glyph glyph-name="oneeighth" unicode="&#x215b;" horiz-adv-x="1863" 
d="M219 594v113h227v600q-21 -17 -113 -67t-126 -64v98q40 21 132.5 75.5t121.5 77.5h96l-2 -219v-501h205v-113h-541zM406 0l1054 1415h119l-1053 -1415h-120zM1325 451q-83 15 -130.5 65t-47.5 121q0 98 81 155.5t220 57.5q138 0 217.5 -57.5t79.5 -155.5q0 -71 -47 -121
t-129 -65v-5q97 -14 154 -72.5t57 -146.5q0 -110 -88.5 -173.5t-243.5 -63.5t-244.5 63.5t-89.5 173.5q0 86 57 145t154 74v5zM1448 764q-91 0 -142 -35.5t-51 -101.5q0 -64 51 -99.5t142 -35.5q88 0 138 35.5t50 99.5q0 66 -50 101.5t-138 35.5zM1448 401
q-106 0 -164.5 -42.5t-58.5 -120.5q0 -77 58.5 -119.5t164.5 -42.5q104 0 162.5 43t58.5 119q0 78 -58 120.5t-163 42.5z" />
    <glyph glyph-name="threeeighths" unicode="&#x215c;" horiz-adv-x="1863" 
d="M418 1440q137 0 215 -57t78 -154q0 -65 -51 -115t-130 -63v-2q98 -13 155.5 -71t57.5 -142q0 -119 -86 -186.5t-241 -67.5q-154 0 -242 71t-88 193h107q0 -83 58 -129.5t163 -46.5q102 0 158.5 43.5t56.5 120.5q0 75 -64 116t-184 41h-51v86h43q107 0 167 37.5t60 104.5
q0 63 -48 98t-134 35q-90 0 -140.5 -44t-52.5 -122h-110q0 118 80.5 186t222.5 68zM360 0l1055 1415h119l-1053 -1415h-121zM1325 451q-83 15 -130.5 65t-47.5 121q0 98 81 155.5t220 57.5q138 0 217.5 -57.5t79.5 -155.5q0 -71 -47 -121t-129 -65v-5q97 -14 154 -72.5
t57 -146.5q0 -110 -88.5 -173.5t-243.5 -63.5t-244.5 63.5t-89.5 173.5q0 86 57 145t154 74v5zM1448 764q-91 0 -142 -35.5t-51 -101.5q0 -64 51 -99.5t142 -35.5q88 0 138 35.5t50 99.5q0 66 -50 101.5t-138 35.5zM1448 401q-106 0 -164.5 -42.5t-58.5 -120.5
q0 -77 58.5 -119.5t164.5 -42.5q104 0 162.5 43t58.5 119q0 78 -58 120.5t-163 42.5z" />
    <glyph glyph-name="fiveeighths" unicode="&#x215d;" horiz-adv-x="1863" 
d="M106 821h111q-3 -70 52 -110.5t147 -40.5q99 0 155 54t56 150t-55 150.5t-154 54.5q-68 0 -118.5 -30t-63.5 -80h-99l31 458h512v-88h-422l-25 -266h5q25 47 84 70.5t129 23.5q132 0 207 -77t75 -211q0 -139 -83 -217t-234 -78q-140 0 -225 64t-85 173zM360 0l1055 1415
h119l-1053 -1415h-121zM1325 451q-83 15 -130.5 65t-47.5 121q0 98 81 155.5t220 57.5q138 0 217.5 -57.5t79.5 -155.5q0 -71 -47 -121t-129 -65v-5q97 -14 154 -72.5t57 -146.5q0 -110 -88.5 -173.5t-243.5 -63.5t-244.5 63.5t-89.5 173.5q0 86 57 145t154 74v5zM1448 764
q-91 0 -142 -35.5t-51 -101.5q0 -64 51 -99.5t142 -35.5q88 0 138 35.5t50 99.5q0 66 -50 101.5t-138 35.5zM1448 401q-106 0 -164.5 -42.5t-58.5 -120.5q0 -77 58.5 -119.5t164.5 -42.5q104 0 162.5 43t58.5 119q0 78 -58 120.5t-163 42.5z" />
    <glyph glyph-name="seveneighths" unicode="&#x215e;" horiz-adv-x="1863" 
d="M96 1329v98h645v-86q-109 -181 -157.5 -263.5t-119.5 -222.5t-116 -261h-121q121 305 385 731v4h-516zM332 0l1054 1415h119l-1052 -1415h-121zM1325 451q-83 15 -130.5 65t-47.5 121q0 98 81 155.5t220 57.5q138 0 217.5 -57.5t79.5 -155.5q0 -71 -47 -121t-129 -65v-5
q97 -14 154 -72.5t57 -146.5q0 -110 -88.5 -173.5t-243.5 -63.5t-244.5 63.5t-89.5 173.5q0 86 57 145t154 74v5zM1448 764q-91 0 -142 -35.5t-51 -101.5q0 -64 51 -99.5t142 -35.5q88 0 138 35.5t50 99.5q0 66 -50 101.5t-138 35.5zM1448 401q-106 0 -164.5 -42.5
t-58.5 -120.5q0 -77 58.5 -119.5t164.5 -42.5q104 0 162.5 43t58.5 119q0 78 -58 120.5t-163 42.5z" />
    <glyph glyph-name="leftArrow" unicode="&#x2190;" horiz-adv-x="1505" 
d="M528 4l-481 518l483 518h162l-444 -462h1190v-111h-1190l440 -463h-160z" />
    <glyph glyph-name="upArrow" unicode="&#x2191;" horiz-adv-x="1144" 
d="M1092 737v-159l-463 440v-1190h-111v1190l-463 -445v162l518 484z" />
    <glyph glyph-name="rightArrow" unicode="&#x2192;" horiz-adv-x="1505" 
d="M977 4h-160l440 463h-1189v111h1189l-444 462h162l483 -518z" />
    <glyph glyph-name="downArrow" unicode="&#x2193;" horiz-adv-x="1146" 
d="M1092 307l-519 -481l-518 483v162l463 -444v1190h111v-1190l463 440v-160z" />
    <glyph glyph-name="leftRightArrow" unicode="&#x2194;" horiz-adv-x="2111" 
d="M528 4l-481 518l483 518h162l-444 -462h1614l-445 462h162l483 -518l-481 -518h-160l441 463h-1614l440 -463h-160z" />
    <glyph glyph-name="upDownArrow" unicode="&#x2195;" horiz-adv-x="1286" 
d="M125 -2v160l463 -441v1614l-463 -440v160l518 481l518 -483v-162l-463 444v-1614l463 445v-162l-518 -483z" />
    <glyph glyph-name="northWestArrow" unicode="&#x2196;" horiz-adv-x="1144" 
d="M786 1038l113 -112l-637 -17l840 -839l-78 -80l-842 841l-12 -641l-115 115l25 709z" />
    <glyph glyph-name="northEastArrow" unicode="&#x2197;" horiz-adv-x="1144" 
d="M1090 309l-113 -112l-16 637l-840 -840l-80 78l842 841l-641 13l114 114l709 -24z" />
    <glyph glyph-name="southEastArrow" unicode="&#x2198;" horiz-adv-x="1144" 
d="M362 -2l-112 113l637 16l-840 840l78 80l842 -842l12 641l115 -115l-25 -708z" />
    <glyph glyph-name="southWestArrow" unicode="&#x2199;" horiz-adv-x="1144" 
d="M51 727l113 113l16 -637l840 839l80 -77l-842 -842l641 -12l-115 -115l-708 24z" />
    <glyph glyph-name="partialdiff" unicode="&#x2202;" horiz-adv-x="1193" 
d="M1085 625q0 -297 -134.5 -470t-364.5 -173q-229 0 -363.5 128t-134.5 347q0 224 140 353.5t380 129.5q200 0 324 -143q-28 246 -133.5 385t-263.5 139q-159 0 -277 -102l-80 79q76 65 172.5 100.5t184.5 35.5q254 0 402 -217.5t148 -591.5zM231 457q0 -173 92.5 -268
t262.5 -95q162 0 257.5 136t98.5 374q-52 107 -139.5 165t-194.5 58q-182 0 -279.5 -96t-97.5 -274z" />
    <glyph glyph-name="emptyset" unicode="&#x2205;" horiz-adv-x="1228" 
d="M1192 565q0 -157 -77.5 -290t-210 -210t-288.5 -77q-118 0 -224.5 45.5t-184 123t-123 184t-45.5 224.5q0 156 77 288.5t210 210t290 77.5q156 0 288.5 -77.5t210 -210t77.5 -288.5zM184 565q0 -125 57.5 -230.5t157 -167t217.5 -61.5q179 0 305 134.5t126 324.5
q0 189 -126.5 323t-304.5 134q-117 0 -216.5 -61t-157.5 -166.5t-58 -229.5zM860 756l-426 -424l-63 63l426 424z" />
    <glyph glyph-name="product" unicode="&#x220f;" horiz-adv-x="1413" 
d="M336 -248h-150l4 363v979l-4 319h1039l-4 -319v-979l6 -363h-150l4 363l-4 1159h-743l-4 -1159z" />
    <glyph glyph-name="summation" unicode="&#x2211;" horiz-adv-x="1073" 
d="M63 1286v127h947v-127h-789l510 -704l-510 -703h789v-127h-944v127l507 703z" />
    <glyph glyph-name="minus" unicode="&#x2212;" horiz-adv-x="1036" 
d="M100 557v115h836v-115h-836z" />
    <glyph glyph-name="radical" unicode="&#x221a;" horiz-adv-x="1169" 
d="M41 592l-39 121l123 41l139 47l332 -877h4l475 1489h96l-532 -1661h-113l-358 881z" />
    <glyph glyph-name="infinity" unicode="&#x221e;" horiz-adv-x="1511" 
d="M379 307q-122 0 -196 80t-74 219t74 219t196 80q173 0 377 -207q204 207 379 207q122 0 196 -80t74 -219t-74 -219t-196 -80q-175 0 -379 207q-204 -207 -377 -207zM412 793q-77 0 -119.5 -49t-42.5 -138t42.5 -137.5t119.5 -48.5q113 0 290 186q-178 187 -290 187z
M1100 793q-54 0 -130 -49t-159 -138q83 -89 159 -137.5t130 -48.5q77 0 119.5 48.5t42.5 137.5t-42.5 138t-119.5 49z" />
    <glyph glyph-name="integral" unicode="&#x222b;" horiz-adv-x="630" 
d="M610 1415v-110q-54 28 -110 28q-55 0 -85 -55t-30 -156v-1032q0 -156 -66.5 -246t-181.5 -90q-59 0 -119 29v113q56 -29 111 -29t85 55t30 156v1032q0 155 66.5 244.5t181.5 89.5q62 0 118 -29z" />
    <glyph glyph-name="approxequal" unicode="&#x2248;" horiz-adv-x="1036" 
d="M254 664h-141q0 115 59.5 184.5t151.5 69.5q55 0 113.5 -22.5t98.5 -49.5t83.5 -49.5t72.5 -22.5q44 0 70 38.5t26 105.5h142q0 -115 -59.5 -184.5t-153.5 -69.5q-53 0 -109.5 22t-96.5 48.5t-85 48.5t-76 22q-45 0 -70.5 -37t-25.5 -104zM254 322h-141q0 115 59.5 184
t151.5 69q55 0 113.5 -22.5t98.5 -49t83.5 -49t72.5 -22.5q45 0 70.5 38t25.5 105h142q0 -115 -59.5 -184t-153.5 -69q-53 0 -109.5 22t-96.5 48.5t-85 48.5t-76 22q-45 0 -70.5 -37t-25.5 -104z" />
    <glyph glyph-name="notequal" unicode="&#x2260;" horiz-adv-x="1036" 
d="M190 205l119 188h-209v117h283l133 211h-416v117h488l106 168h144l-107 -168h207v-117h-279l-133 -211h412v-117h-485l-119 -188h-144z" />
    <glyph glyph-name="lessequal" unicode="&#x2264;" horiz-adv-x="1036" 
d="M872 190l-725 404v88l725 403v-129l-577 -317l577 -322v-127zM872 4h-725v113h725v-113z" />
    <glyph glyph-name="greaterequal" unicode="&#x2265;" horiz-adv-x="1036" 
d="M164 190v127l577 322l-577 317v129l725 -403v-88zM164 4v113h725v-113h-725z" />
    <glyph glyph-name="lozenge" unicode="&#x25ca;" horiz-adv-x="1134" 
d="M639 -20h-141l-441 722l441 728h141l440 -728zM213 702l354 -610l357 610l-357 617z" />
    <glyph glyph-name="Jacute" horiz-adv-x="544" 
d="M625 1681l-289 -170h-129l203 170h215zM354 -100q0 -127 -69.5 -198t-194.5 -71q-41 0 -110 15v131q49 -19 77 -19q69 0 108.5 45.5t39.5 124.5v1133l-4 352h157l-4 -352v-1161z" />
    <glyph glyph-name="Q.alt" horiz-adv-x="1447" 
d="M1034 -354q-69 -15 -110 -15q-126 0 -195.5 70.5t-69.5 198.5v84q-177 19 -305 120.5t-192 259t-64 353.5q0 119 27 226.5t80.5 197t130 155t180 102t225.5 36.5q151 0 274 -56.5t202.5 -154.5t122 -228t42.5 -280q0 -199 -65 -357.5t-196.5 -259t-313.5 -116.5v-54
q0 -80 39.5 -125t109.5 -45q26 0 78 19v-131zM252 711q0 -171 57 -306.5t169 -215.5t263 -80t263 79.5t168.5 214.5t56.5 306q0 163 -56.5 297.5t-169 217.5t-262.5 83q-113 0 -206.5 -48t-154.5 -129.5t-94.5 -189.5t-33.5 -229z" />
    <glyph glyph-name="W.alt" horiz-adv-x="1816" 
d="M631 0h-178l-293 1053l-109 360h176l86 -360l224 -840h6l280 1200h166l285 -1200h4l225 842l86 358h174l-106 -360l-297 -1053h-180l-271 1161h-6z" />
    <glyph glyph-name="Wacute.alt" horiz-adv-x="1816" 
d="M1251 1681l-288 -170h-129l202 170h215zM631 0h-178l-293 1053l-109 360h176l86 -360l224 -840h6l280 1200h166l285 -1200h4l225 842l86 358h174l-106 -360l-297 -1053h-180l-271 1161h-6z" />
    <glyph glyph-name="Wcircumflex.alt" horiz-adv-x="1816" 
d="M795 1511h-152l191 177h145l190 -177h-151l-113 97zM631 0h-178l-293 1053l-109 360h176l86 -360l224 -840h6l280 1200h166l285 -1200h4l225 842l86 358h174l-106 -360l-297 -1053h-180l-271 1161h-6z" />
    <glyph glyph-name="Wdieresis.alt" horiz-adv-x="1816" 
d="M1001 1538v145h160v-145h-160zM651 1538v145h160v-145h-160zM631 0h-178l-293 1053l-109 360h176l86 -360l224 -840h6l280 1200h166l285 -1200h4l225 842l86 358h174l-106 -360l-297 -1053h-180l-271 1161h-6z" />
    <glyph glyph-name="Wgrave.alt" horiz-adv-x="1816" 
d="M559 1681h215l203 -170h-129zM631 0h-178l-293 1053l-109 360h176l86 -360l224 -840h6l280 1200h166l285 -1200h4l225 842l86 358h174l-106 -360l-297 -1053h-180l-271 1161h-6z" />
    <glyph glyph-name="Aacute.loclPLK" horiz-adv-x="1290" 
d="M594 1499l45 170h147l-81 -170h-111zM213 0h-172l135 352l379 1061h182l375 -1061l135 -352h-170l-121 352l-16 47h-592l-14 -47zM641 1249l-244 -721h494l-242 721h-8z" />
    <glyph glyph-name="Cacute.loclPLK" horiz-adv-x="1388" 
d="M674 1499l45 170h147l-82 -170h-110zM1307 516q-23 -247 -179 -391.5t-403 -144.5q-286 0 -455.5 197.5t-169.5 533.5q0 329 170 526t455 197q252 0 406.5 -137t171.5 -371h-152q-20 179 -133 280t-295 101q-220 0 -344.5 -158t-124.5 -438q0 -283 125 -444t346 -161
q187 0 300 108.5t130 301.5h152z" />
    <glyph glyph-name="Eacute.loclPLK" horiz-adv-x="1150" 
d="M561 1499l45 170h148l-82 -170h-111zM1057 0h-871l4 352v711l-4 350h850v-127h-700v-485h672v-127h-672v-547h721v-127z" />
    <glyph glyph-name="Iacute.loclPLK" horiz-adv-x="530" 
d="M217 1499l45 170h148l-82 -170h-111zM344 0h-158l4 352v709l-4 352h158l-4 -352v-709z" />
    <glyph glyph-name="Nacute.loclPLK" horiz-adv-x="1484" 
d="M692 1499l45 170h148l-82 -170h-111zM344 0h-158l4 352v707l-4 354h162l617 -921l172 -254h6v821l-6 354h159l-6 -354v-707l6 -352h-159l-633 928l-162 241h-2v-817z" />
    <glyph glyph-name="Oacute.loclPLK" horiz-adv-x="1480" 
d="M690 1499l45 170h148l-82 -170h-111zM1382 715q0 -157 -42.5 -291t-122 -233t-202 -155t-274.5 -56t-274.5 56.5t-202.5 155.5t-123 233.5t-43 291.5q0 119 27 226.5t80.5 197t130 155t180 102t225.5 36.5q151 0 274 -56.5t202.5 -154.5t122 -228t42.5 -280zM252 711
q0 -171 57 -306.5t169 -215.5t263 -80t263 79.5t168.5 214.5t56.5 306q0 163 -56.5 297.5t-169 217.5t-262.5 83q-113 0 -206.5 -48t-154.5 -129.5t-94.5 -189.5t-33.5 -229z" />
    <glyph glyph-name="Sacute.loclPLK" horiz-adv-x="1265" 
d="M598 1499l45 170h148l-82 -170h-111zM1182 383q0 -185 -148 -294t-395 -109q-266 0 -414.5 133.5t-148.5 367.5h153q0 -181 107 -279t311 -98q183 0 284 77t101 198q0 47 -19.5 84.5t-50 63.5t-84 47.5t-105 35.5t-128.5 31q-67 14 -118 28.5t-114.5 37.5t-109.5 53
t-87 70t-62 94.5t-21 119.5q0 186 132 288t362 102q232 0 367 -117.5t141 -327.5h-154q-2 150 -94 235t-262 85q-161 0 -250.5 -66.5t-89.5 -189.5q0 -48 17 -87.5t50 -67.5t70 -49t88.5 -37t93.5 -26.5t96 -22.5l15 -3q115 -26 194.5 -54t144.5 -71.5t96.5 -105.5
t31.5 -146z" />
    <glyph glyph-name="Uacute.loclPLK" horiz-adv-x="1376" 
d="M639 1499l45 170h147l-81 -170h-111zM1202 508q0 -243 -138 -385.5t-372 -142.5q-238 0 -378 142.5t-140 385.5v551l-6 354h158l-4 -354v-541q0 -192 98 -302t270 -110q170 0 266.5 110t96.5 302v541l-4 354h157l-4 -354v-551z" />
    <glyph glyph-name="Zacute.loclPLK" horiz-adv-x="1136" 
d="M528 1499l45 170h148l-82 -170h-111zM1069 0h-1024v117l821 1165v4h-751v127h946v-117l-815 -1165v-4h823v-127z" />
    <glyph glyph-name="idotaccent" horiz-adv-x="468" 
d="M158 1225v159h157v-159h-157zM309 0h-149l4 352v320l-4 362h149l-4 -362v-320z" />
    <glyph glyph-name="jacute" horiz-adv-x="479" 
d="M573 1413l-280 -225h-111l195 225h196zM313 -113q0 -120 -67 -188t-187 -68q-23 0 -39 4v111q8 -2 29 -2q60 0 91.5 37t31.5 108v783l-4 362h149l-4 -362v-785z" />
    <glyph glyph-name="w.alt" horiz-adv-x="1435" 
d="M524 0h-157l-203 672l-113 362h154l106 -362l129 -465h2l201 827h156l200 -827h5l129 465l104 362h156l-115 -362l-201 -672h-157l-195 831h-6z" />
    <glyph glyph-name="wacute.alt" horiz-adv-x="1435" 
d="M1057 1413l-281 -225h-110l194 225h197zM524 0h-157l-203 672l-113 362h154l106 -362l129 -465h2l201 827h156l200 -827h5l129 465l104 362h156l-115 -362l-201 -672h-157l-195 831h-6z" />
    <glyph glyph-name="wcircumflex.alt" horiz-adv-x="1435" 
d="M604 1188h-125l193 225h131l190 -225h-123l-133 147zM524 0h-157l-203 672l-113 362h154l106 -362l129 -465h2l201 827h156l200 -827h5l129 465l104 362h156l-115 -362l-201 -672h-157l-195 831h-6z" />
    <glyph glyph-name="wdieresis.alt" horiz-adv-x="1435" 
d="M831 1243v158h160v-158h-160zM481 1243v158h160v-158h-160zM524 0h-157l-203 672l-113 362h154l106 -362l129 -465h2l201 827h156l200 -827h5l129 465l104 362h156l-115 -362l-201 -672h-157l-195 831h-6z" />
    <glyph glyph-name="wgrave.alt" horiz-adv-x="1435" 
d="M463 1413h196l195 -225h-111zM524 0h-157l-203 672l-113 362h154l106 -362l129 -465h2l201 827h156l200 -827h5l129 465l104 362h156l-115 -362l-201 -672h-157l-195 831h-6z" />
    <glyph glyph-name="aacute.loclPLK" horiz-adv-x="1073" 
d="M483 1188l66 225h147l-104 -225h-109zM770 176q-96 -196 -362 -196q-141 0 -233.5 72t-92.5 206q0 176 179 267.5t511 97.5v98q0 111 -62.5 166t-193.5 55q-122 0 -190 -67t-68 -166h-141q0 84 33.5 151t91.5 109t131 64t155 22q191 0 287 -83.5t96 -244.5v-559
q0 -34 19.5 -55t52.5 -21q34 0 70 19v-113q-45 -18 -117 -18q-73 0 -117.5 38t-44.5 105v53h-4zM225 268q0 -80 57.5 -128t161.5 -48q153 0 239.5 94t86.5 240v92q-260 0 -402.5 -63.5t-142.5 -186.5z" />
    <glyph glyph-name="cacute.loclPLK" horiz-adv-x="1060" 
d="M489 1188l66 225h147l-104 -225h-109zM987 377q-19 -183 -136.5 -290t-297.5 -107q-213 0 -338 144t-125 388q0 249 127 396t342 147q173 0 288 -101.5t138 -273.5h-143q-19 124 -93 193t-190 69q-154 0 -241 -114.5t-87 -315.5q0 -197 85.5 -308.5t236.5 -111.5
q119 0 196 75.5t97 209.5h141z" />
    <glyph glyph-name="eacute.loclPLK" horiz-adv-x="1077" 
d="M506 1188l65 225h148l-105 -225h-108zM983 348q-22 -173 -137 -270.5t-299 -97.5q-216 0 -336.5 141t-120.5 389q0 262 121.5 404.5t339.5 142.5q198 0 313 -128.5t123 -357.5v-65h-751q-6 -194 77.5 -304t237.5 -110q115 0 191 67t98 189h143zM553 950
q-133 0 -216 -88.5t-97 -243.5h604q-5 155 -82 243.5t-209 88.5z" />
    <glyph glyph-name="iacute.loclPLK" horiz-adv-x="468" 
d="M190 1188l66 225h147l-104 -225h-109zM309 0h-149l4 352v320l-4 362h149l-4 -362v-320z" />
    <glyph glyph-name="nacute.loclPLK" horiz-adv-x="1085" 
d="M508 1188l65 225h148l-105 -225h-108zM301 0h-145l4 352v320l-6 362h145l-6 -153h6q97 174 301 174q160 0 250 -103.5t90 -277.5v-322l6 -352h-147l4 352v293q0 139 -64 218t-184 79q-126 0 -192 -82.5t-66 -238.5v-269z" />
    <glyph glyph-name="oacute.loclPLK" horiz-adv-x="1101" 
d="M508 1188l65 225h148l-105 -225h-108zM1014 516q0 -249 -124.5 -392.5t-338.5 -143.5t-338.5 143.5t-124.5 392.5t124.5 394t338.5 145t338.5 -145t124.5 -394zM231 518q0 -202 84.5 -314t235.5 -112t235 112t84 314q0 200 -84 312t-235 112t-235.5 -112t-84.5 -312z" />
    <glyph glyph-name="sacute.loclPLK" horiz-adv-x="997" 
d="M455 1188l65 225h148l-105 -225h-108zM920 291q0 -142 -112 -226.5t-302 -84.5q-203 0 -318.5 99t-115.5 275h143q0 -126 74.5 -194t206.5 -68q136 0 209 52.5t73 146.5q0 54 -37 89.5t-96.5 53.5t-131.5 32t-143 33t-130 47.5t-95 84t-34 135.5q1 126 111.5 207.5
t277.5 81.5q188 0 286.5 -87.5t98.5 -246.5h-142q0 107 -64 164t-187 57q-105 0 -171.5 -47.5t-66.5 -130.5q0 -41 23 -71.5t61.5 -48.5t88.5 -31t105 -24.5t110 -24.5t105 -34.5t88.5 -51t61.5 -77t23 -110.5z" />
    <glyph glyph-name="uacute.loclPLK" horiz-adv-x="1093" 
d="M500 1188l65 225h148l-105 -225h-108zM793 139q-37 -77 -114.5 -118t-184.5 -41q-163 0 -256 106.5t-93 296.5v289l-6 362h154l-6 -362v-279q0 -145 58 -224t163 -79q140 0 213.5 93.5t73.5 262.5l-2 226l-5 362h150l-4 -362v-320l4 -352h-143l6 139h-8z" />
    <glyph glyph-name="zacute.loclPLK" horiz-adv-x="864" 
d="M381 1188l65 225h148l-105 -225h-108zM807 0h-754v100l555 826v4l-516 -4v108h688v-102l-549 -821v-5l576 3v-109z" />
    <glyph glyph-name="s_t" horiz-adv-x="1671" 
d="M920 291q0 -142 -112 -226.5t-302 -84.5q-203 0 -318.5 99t-115.5 275h143q0 -126 74.5 -194t206.5 -68q136 0 209 52.5t73 146.5q0 54 -37 89.5t-96.5 53.5t-131.5 32t-143 33t-130 47.5t-95 84t-34 135.5q1 107 83.5 184t213.5 97q3 124 58.5 207.5t149.5 122t224 38.5
l463 -2l-3 -129l-6 -211v-39h351v-112h-351v-623q0 -104 39 -154.5t121 -50.5q96 0 191 29v-117q-117 -26 -220 -26q-132 0 -202 79t-70 230v633h-152v112h152l-4 250h2v19h-311q-280 0 -291 -250q164 -10 250 -97t86 -235h-142q0 107 -64 164t-187 57q-105 0 -171.5 -47.5
t-66.5 -130.5q0 -41 23 -71.5t61.5 -48.5t88.5 -31t105 -24.5t110 -24.5t105 -34.5t88.5 -51t61.5 -77t23 -110.5z" />
    <glyph glyph-name="Q.sc.alt" horiz-adv-x="1304" 
d="M934 -354q-69 -15 -111 -15q-125 0 -194.5 71t-69.5 198v86q-222 29 -346.5 188.5t-124.5 398.5q0 166 65 296t194 206t304 76q133 0 240.5 -44t177.5 -122t107.5 -184t37.5 -230q0 -249 -133 -410t-372 -179v-54q0 -80 39 -125t108 -45q29 0 78 19v-131zM233 569
q0 -207 112 -338t306 -131t306 130t112 337q0 130 -48.5 234t-145 166.5t-224.5 62.5q-129 0 -225 -62t-144.5 -165.5t-48.5 -233.5z" />
    <glyph glyph-name="W.sc.alt" horiz-adv-x="1669" 
d="M586 0h-160l-242 780l-110 350h168l96 -350l166 -561h4l252 911h145l258 -911h4l162 561l101 350h167l-114 -350l-240 -780h-156l-249 905h-7z" />
    <glyph glyph-name="Wacute.sc.alt" horiz-adv-x="1669" 
d="M1161 1413l-280 -180h-111l195 180h196zM586 0h-160l-242 780l-110 350h168l96 -350l166 -561h4l252 911h145l258 -911h4l162 561l101 350h167l-114 -350l-240 -780h-156l-249 905h-7z" />
    <glyph glyph-name="Wcircumflex.sc.alt" horiz-adv-x="1669" 
d="M717 1237h-152l191 176h145l191 -176h-152l-113 96zM586 0h-160l-242 780l-110 350h168l96 -350l166 -561h4l252 911h145l258 -911h4l162 561l101 350h167l-114 -350l-240 -780h-156l-249 905h-7z" />
    <glyph glyph-name="Wdieresis.sc.alt" horiz-adv-x="1669" 
d="M924 1257v146h159v-146h-159zM573 1257v146h160v-146h-160zM586 0h-160l-242 780l-110 350h168l96 -350l166 -561h4l252 911h145l258 -911h4l162 561l101 350h167l-114 -350l-240 -780h-156l-249 905h-7z" />
    <glyph glyph-name="Wgrave.sc.alt" horiz-adv-x="1669" 
d="M487 1413h197l195 -180h-111zM586 0h-160l-242 780l-110 350h168l96 -350l166 -561h4l252 911h145l258 -911h4l162 561l101 350h167l-114 -350l-240 -780h-156l-249 905h-7z" />
    <glyph glyph-name="A.sc" horiz-adv-x="1163" 
d="M205 0h-162l139 352l297 778h207l295 -778l141 -352h-164l-120 328h-512zM578 993l-205 -542h418l-205 542h-8z" />
    <glyph glyph-name="Aacute.sc" horiz-adv-x="1163" 
d="M915 1413l-280 -180h-111l195 180h196zM205 0h-162l139 352l297 778h207l295 -778l141 -352h-164l-120 328h-512zM578 993l-205 -542h418l-205 542h-8z" />
    <glyph glyph-name="Abreve.sc" horiz-adv-x="1163" 
d="M360 1413h99q6 -51 34.5 -74.5t88.5 -23.5q59 0 87 24t33 74h97q-3 -90 -57.5 -138t-159.5 -48q-108 0 -163.5 48t-58.5 138zM205 0h-162l139 352l297 778h207l295 -778l141 -352h-164l-120 328h-512zM578 993l-205 -542h418l-205 542h-8z" />
    <glyph glyph-name="Acaron.sc" horiz-adv-x="1163" 
d="M471 1415l111 -96l112 96h152l-191 -176h-145l-191 176h152zM205 0h-162l139 352l297 778h207l295 -778l141 -352h-164l-120 328h-512zM578 993l-205 -542h418l-205 542h-8z" />
    <glyph glyph-name="Acircumflex.sc" horiz-adv-x="1163" 
d="M471 1237h-152l191 176h145l191 -176h-152l-112 96zM205 0h-162l139 352l297 778h207l295 -778l141 -352h-164l-120 328h-512zM578 993l-205 -542h418l-205 542h-8z" />
    <glyph glyph-name="Adieresis.sc" horiz-adv-x="1163" 
d="M678 1257v146h160v-146h-160zM328 1257v146h159v-146h-159zM205 0h-162l139 352l297 778h207l295 -778l141 -352h-164l-120 328h-512zM578 993l-205 -542h418l-205 542h-8z" />
    <glyph glyph-name="Agrave.sc" horiz-adv-x="1163" 
d="M242 1413h196l195 -180h-111zM205 0h-162l139 352l297 778h207l295 -778l141 -352h-164l-120 328h-512zM578 993l-205 -542h418l-205 542h-8z" />
    <glyph glyph-name="Amacron.sc" horiz-adv-x="1163" 
d="M373 1251v97h409v-97h-409zM205 0h-162l139 352l297 778h207l295 -778l141 -352h-164l-120 328h-512zM578 993l-205 -542h418l-205 542h-8z" />
    <glyph glyph-name="Aogonek.sc" horiz-adv-x="1163" 
d="M205 0h-162l139 352l297 778h207l295 -778l141 -352h-86q-146 -61 -195.5 -102.5t-49.5 -90.5q0 -63 100 -63q35 0 82.5 13.5t81.5 29.5v-98q-109 -58 -221 -58q-85 0 -135 37t-50 96q0 77 66.5 142.5t226.5 140.5l-104 281h-512zM578 993l-205 -542h418l-205 542h-8z
" />
    <glyph glyph-name="Aring.sc" horiz-adv-x="1163" 
d="M584 1149q-63 0 -105.5 40t-42.5 99t42.5 99t105.5 40q61 0 103 -40t42 -99t-42 -99t-103 -40zM584 1214q31 0 53 21.5t22 52.5q0 32 -22 54t-53 22q-32 0 -54 -22t-22 -54q0 -31 22 -52.5t54 -21.5zM205 0h-162l139 352l297 778h207l295 -778l141 -352h-164l-120 328
h-512zM578 993l-205 -542h418l-205 542h-8z" />
    <glyph glyph-name="Aringacute.sc" horiz-adv-x="1163" 
d="M205 0h-162l139 352l291 760q-39 39 -39 94q0 56 37.5 95t95.5 45l133 122h197l-231 -147q61 -45 61 -115q0 -54 -35 -92l289 -762l141 -352h-164l-120 328h-512zM582 1133q31 0 53 21t22 52q0 32 -22 54t-53 22q-32 0 -54 -22t-22 -54q0 -31 22 -52t54 -21zM578 993
l-205 -542h418l-205 542h-8z" />
    <glyph glyph-name="Atilde.sc" horiz-adv-x="1163" 
d="M459 1237h-86q0 67 37.5 107t97.5 40q44 0 94 -27.5t68 -27.5q49 0 49 60h86q0 -67 -38 -107.5t-97 -40.5q-34 0 -84.5 28.5t-77.5 28.5q-49 0 -49 -61zM205 0h-162l139 352l297 778h207l295 -778l141 -352h-164l-120 328h-512zM578 993l-205 -542h418l-205 542h-8z" />
    <glyph glyph-name="AE.sc" horiz-adv-x="1566" 
d="M170 0h-176l203 352l411 778h852v-120h-604v-363h580v-119h-580v-407h623v-121h-764l4 305v27h-379zM696 991l-290 -538h313v538h-23z" />
    <glyph glyph-name="AEacute.sc" horiz-adv-x="1566" 
d="M1190 1415l-281 -180h-110l194 180h197zM170 0h-176l203 352l411 778h852v-120h-604v-363h580v-119h-580v-407h623v-121h-764l4 305v27h-379zM696 991l-290 -538h313v538h-23z" />
    <glyph glyph-name="B.sc" horiz-adv-x="1148" 
d="M674 0h-508l4 276v504l-4 350h512q161 0 249.5 -71.5t88.5 -202.5q0 -107 -53.5 -173t-149.5 -81v-4q117 -22 181.5 -92.5t64.5 -183.5q0 -151 -101.5 -236.5t-283.5 -85.5zM309 1014l-2 -369h340q103 0 165 50.5t62 135.5q0 84 -52 133.5t-142 49.5h-371zM309 532v-415
h387q100 0 159.5 57t59.5 152q0 94 -59.5 150t-159.5 56h-387z" />
    <glyph glyph-name="C.sc" horiz-adv-x="1218" 
d="M1147 412q-23 -199 -161 -315.5t-351 -116.5q-251 0 -398 160t-147 433q0 266 147.5 422t397.5 156q218 0 354.5 -110.5t151.5 -299.5h-146q-17 136 -113 212.5t-247 76.5q-187 0 -293 -122.5t-106 -338.5q0 -220 106.5 -344.5t294.5 -124.5q155 0 252 83t112 229h146z
" />
    <glyph glyph-name="Cacute.sc" horiz-adv-x="1218" 
d="M971 1413l-281 -180h-110l194 180h197zM1147 412q-23 -199 -161 -315.5t-351 -116.5q-251 0 -398 160t-147 433q0 266 147.5 422t397.5 156q218 0 354.5 -110.5t151.5 -299.5h-146q-17 136 -113 212.5t-247 76.5q-187 0 -293 -122.5t-106 -338.5q0 -220 106.5 -344.5
t294.5 -124.5q155 0 252 83t112 229h146z" />
    <glyph glyph-name="Ccaron.sc" horiz-adv-x="1218" 
d="M524 1415l111 -96l113 96h151l-190 -176h-146l-190 176h151zM1147 412q-23 -199 -161 -315.5t-351 -116.5q-251 0 -398 160t-147 433q0 266 147.5 422t397.5 156q218 0 354.5 -110.5t151.5 -299.5h-146q-17 136 -113 212.5t-247 76.5q-187 0 -293 -122.5t-106 -338.5
q0 -220 106.5 -344.5t294.5 -124.5q155 0 252 83t112 229h146z" />
    <glyph glyph-name="Ccedilla.sc" horiz-adv-x="1218" 
d="M647 -362q-67 0 -112.5 30.5t-45.5 77.5h91q0 -19 18.5 -31t48.5 -12q31 0 48.5 18.5t17.5 49.5q0 35 -23 55t-63 20h-72l23 136q-226 19 -357 176.5t-131 414.5q0 266 147.5 422t397.5 156q218 0 354.5 -110.5t151.5 -299.5h-146q-17 136 -113 212.5t-247 76.5
q-187 0 -293 -122.5t-106 -338.5q0 -220 106.5 -344.5t294.5 -124.5q155 0 252 83t112 229h146q-22 -190 -150.5 -305.5t-328.5 -126.5l-13 -70q72 0 110 -38t38 -101q0 -60 -40.5 -96.5t-115.5 -36.5z" />
    <glyph glyph-name="Ccircumflex.sc" horiz-adv-x="1218" 
d="M524 1237h-151l190 176h146l190 -176h-151l-113 96zM1147 412q-23 -199 -161 -315.5t-351 -116.5q-251 0 -398 160t-147 433q0 266 147.5 422t397.5 156q218 0 354.5 -110.5t151.5 -299.5h-146q-17 136 -113 212.5t-247 76.5q-187 0 -293 -122.5t-106 -338.5
q0 -220 106.5 -344.5t294.5 -124.5q155 0 252 83t112 229h146z" />
    <glyph glyph-name="Cdotaccent.sc" horiz-adv-x="1218" 
d="M557 1225v159h158v-159h-158zM1147 412q-23 -199 -161 -315.5t-351 -116.5q-251 0 -398 160t-147 433q0 266 147.5 422t397.5 156q218 0 354.5 -110.5t151.5 -299.5h-146q-17 136 -113 212.5t-247 76.5q-187 0 -293 -122.5t-106 -338.5q0 -220 106.5 -344.5t294.5 -124.5
q155 0 252 83t112 229h146z" />
    <glyph glyph-name="D.sc" horiz-adv-x="1253" 
d="M555 0h-389l4 352v428l-4 350h389q281 0 445.5 -152t164.5 -409q0 -261 -164.5 -415t-445.5 -154zM311 1012v-891h246q217 0 340 118.5t123 327.5t-123 327t-340 118h-246z" />
    <glyph glyph-name="Eth.sc" horiz-adv-x="1263" 
d="M563 0h-389l4 352v158h-129v113h129v157l-4 350h389q281 0 446 -152t165 -409q0 -261 -165 -415t-446 -154zM631 510h-312v-389h246q217 0 340 118.5t123 327.5t-123 327t-340 118h-246v-389h312v-113z" />
    <glyph glyph-name="Dcaron.sc" horiz-adv-x="1253" 
d="M498 1415l110 -96l113 96h151l-190 -176h-145l-191 176h152zM555 0h-389l4 352v428l-4 350h389q281 0 445.5 -152t164.5 -409q0 -261 -164.5 -415t-445.5 -154zM311 1012v-891h246q217 0 340 118.5t123 327.5t-123 327t-340 118h-246z" />
    <glyph glyph-name="Dcroat.sc" horiz-adv-x="1263" 
d="M563 0h-389l4 352v158h-129v113h129v157l-4 350h389q281 0 446 -152t165 -409q0 -261 -165 -415t-446 -154zM631 510h-312v-389h246q217 0 340 118.5t123 327.5t-123 327t-340 118h-246v-389h312v-113z" />
    <glyph glyph-name="E.sc" horiz-adv-x="1019" 
d="M932 0h-766l4 352v428l-4 350h747v-120h-606v-363h582v-119h-582v-407h625v-121z" />
    <glyph glyph-name="Eacute.sc" horiz-adv-x="1019" 
d="M879 1413l-281 -180h-111l195 180h197zM932 0h-766l4 352v428l-4 350h747v-120h-606v-363h582v-119h-582v-407h625v-121z" />
    <glyph glyph-name="Ebreve.sc" horiz-adv-x="1019" 
d="M324 1413h98q6 -51 34.5 -74.5t88.5 -23.5q59 0 87.5 24t33.5 74h96q-3 -90 -57.5 -138t-159.5 -48q-108 0 -163 48t-58 138zM932 0h-766l4 352v428l-4 350h747v-120h-606v-363h582v-119h-582v-407h625v-121z" />
    <glyph glyph-name="Ecaron.sc" horiz-adv-x="1019" 
d="M434 1415l111 -96l112 96h152l-191 -176h-145l-190 176h151zM932 0h-766l4 352v428l-4 350h747v-120h-606v-363h582v-119h-582v-407h625v-121z" />
    <glyph glyph-name="Ecircumflex.sc" horiz-adv-x="1019" 
d="M434 1237h-151l190 176h145l191 -176h-152l-112 96zM932 0h-766l4 352v428l-4 350h747v-120h-606v-363h582v-119h-582v-407h625v-121z" />
    <glyph glyph-name="Edieresis.sc" horiz-adv-x="1019" 
d="M641 1257v146h160v-146h-160zM291 1257v146h160v-146h-160zM932 0h-766l4 352v428l-4 350h747v-120h-606v-363h582v-119h-582v-407h625v-121z" />
    <glyph glyph-name="Edotaccent.sc" horiz-adv-x="1019" 
d="M467 1225v159h158v-159h-158zM932 0h-766l4 352v428l-4 350h747v-120h-606v-363h582v-119h-582v-407h625v-121z" />
    <glyph glyph-name="Egrave.sc" horiz-adv-x="1019" 
d="M205 1413h196l195 -180h-111zM932 0h-766l4 352v428l-4 350h747v-120h-606v-363h582v-119h-582v-407h625v-121z" />
    <glyph glyph-name="Emacron.sc" horiz-adv-x="1019" 
d="M336 1251v97h409v-97h-409zM932 0h-766l4 352v428l-4 350h747v-120h-606v-363h582v-119h-582v-407h625v-121z" />
    <glyph glyph-name="Eogonek.sc" horiz-adv-x="1019" 
d="M932 0h-4q-147 -61 -196.5 -102.5t-49.5 -90.5q0 -63 100 -63q35 0 82.5 13.5t81.5 29.5v-98q-109 -58 -221 -58q-85 0 -134.5 37t-49.5 96q0 66 46 121.5t154 114.5h-575l4 352v428l-4 350h747v-120h-606v-363h582v-119h-582v-407h625v-121z" />
    <glyph glyph-name="F.sc" horiz-adv-x="946" 
d="M315 0h-149l4 352v428l-4 350h719v-120h-574v-396h535v-118h-535v-144z" />
    <glyph glyph-name="G.sc" horiz-adv-x="1308" 
d="M1065 197q-53 -103 -160 -160t-248 -57q-265 0 -416 161t-151 430q0 263 155 421.5t423 158.5q217 0 353.5 -103.5t156.5 -283.5h-146q-12 127 -108.5 196.5t-257.5 69.5q-206 0 -318 -124t-112 -337q0 -217 112 -343t318 -126q175 0 277.5 94.5t109.5 270.5h-391v115
h524v-228l6 -352h-129l4 197h-2z" />
    <glyph glyph-name="Gbreve.sc" horiz-adv-x="1308" 
d="M449 1413h98q6 -51 34.5 -74.5t88.5 -23.5q59 0 87.5 24t33.5 74h96q-3 -90 -57.5 -138t-159.5 -48q-108 0 -163 48t-58 138zM1065 197q-53 -103 -160 -160t-248 -57q-265 0 -416 161t-151 430q0 263 155 421.5t423 158.5q217 0 353.5 -103.5t156.5 -283.5h-146
q-12 127 -108.5 196.5t-257.5 69.5q-206 0 -318 -124t-112 -337q0 -217 112 -343t318 -126q175 0 277.5 94.5t109.5 270.5h-391v115h524v-228l6 -352h-129l4 197h-2z" />
    <glyph glyph-name="Gcircumflex.sc" horiz-adv-x="1308" 
d="M559 1237h-151l190 176h145l191 -176h-152l-112 96zM1065 197q-53 -103 -160 -160t-248 -57q-265 0 -416 161t-151 430q0 263 155 421.5t423 158.5q217 0 353.5 -103.5t156.5 -283.5h-146q-12 127 -108.5 196.5t-257.5 69.5q-206 0 -318 -124t-112 -337q0 -217 112 -343
t318 -126q175 0 277.5 94.5t109.5 270.5h-391v115h524v-228l6 -352h-129l4 197h-2z" />
    <glyph glyph-name="Gcommaaccent.sc" horiz-adv-x="1308" 
d="M1065 197q-53 -103 -160 -160t-248 -57q-265 0 -416 161t-151 430q0 263 155 421.5t423 158.5q217 0 353.5 -103.5t156.5 -283.5h-146q-12 127 -108.5 196.5t-257.5 69.5q-206 0 -318 -124t-112 -337q0 -217 112 -343t318 -126q175 0 277.5 94.5t109.5 270.5h-391v115
h524v-228l6 -352h-129l4 197h-2zM485 -371l105 330h141l-135 -330h-111z" />
    <glyph glyph-name="Gdotaccent.sc" horiz-adv-x="1308" 
d="M592 1225v159h158v-159h-158zM1065 197q-53 -103 -160 -160t-248 -57q-265 0 -416 161t-151 430q0 263 155 421.5t423 158.5q217 0 353.5 -103.5t156.5 -283.5h-146q-12 127 -108.5 196.5t-257.5 69.5q-206 0 -318 -124t-112 -337q0 -217 112 -343t318 -126
q175 0 277.5 94.5t109.5 270.5h-391v115h524v-228l6 -352h-129l4 197h-2z" />
    <glyph glyph-name="H.sc" horiz-adv-x="1257" 
d="M315 0h-149l4 352v428l-4 350h149l-4 -350v-129h635v129l-4 350h152l-7 -350v-428l7 -352h-152l4 352v178h-635v-178z" />
    <glyph glyph-name="Hbar.sc" horiz-adv-x="1282" 
d="M328 0h-150l4 352v447h-127v110h125l-2 221h150l-2 -221h630l-2 221h152l-4 -221h123v-110h-125v-447l6 -352h-152l4 352v178h-634v-178zM324 651h634v148h-634v-148z" />
    <glyph glyph-name="Hcircumflex.sc" horiz-adv-x="1257" 
d="M518 1237h-151l190 176h145l191 -176h-152l-112 96zM315 0h-149l4 352v428l-4 350h149l-4 -350v-129h635v129l-4 350h152l-7 -350v-428l7 -352h-152l4 352v178h-635v-178z" />
    <glyph glyph-name="I.sc" horiz-adv-x="481" 
d="M315 0h-149l4 352v428l-4 350h149l-4 -350v-428z" />
    <glyph glyph-name="IJ.sc" horiz-adv-x="958" 
d="M315 0h-149l4 352v428l-4 350h149l-4 -350v-428zM791 -109q0 -120 -64.5 -190t-173.5 -70q-22 0 -102 13v118q43 -12 69 -12q59 0 94 46t35 122v862l-6 350h150l-2 -350v-889z" />
    <glyph glyph-name="Iacute.sc" horiz-adv-x="483" 
d="M575 1413l-280 -180h-111l195 180h196zM315 0h-149l4 352v428l-4 350h149l-4 -350v-428z" />
    <glyph glyph-name="Ibreve.sc" horiz-adv-x="483" 
d="M18 1413h99q6 -51 34.5 -74.5t88.5 -23.5q59 0 87 24t33 74h97q-3 -90 -57.5 -138t-159.5 -48q-108 0 -163.5 48t-58.5 138zM315 0h-149l4 352v428l-4 350h149l-4 -350v-428z" />
    <glyph glyph-name="Icaron.sc" horiz-adv-x="483" 
d="M129 1415l111 -96l112 96h152l-191 -176h-145l-191 176h152zM315 0h-149l4 352v428l-4 350h149l-4 -350v-428z" />
    <glyph glyph-name="Icircumflex.sc" horiz-adv-x="483" 
d="M131 1237h-151l190 176h145l191 -176h-152l-112 96zM315 0h-149l4 352v428l-4 350h149l-4 -350v-428z" />
    <glyph glyph-name="Idieresis.sc" horiz-adv-x="483" 
d="M336 1257v146h160v-146h-160zM-14 1257v146h159v-146h-159zM315 0h-149l4 352v428l-4 350h149l-4 -350v-428z" />
    <glyph glyph-name="Idotaccent.sc" horiz-adv-x="483" 
d="M162 1225v159h157v-159h-157zM315 0h-149l4 352v428l-4 350h149l-4 -350v-428z" />
    <glyph glyph-name="Igrave.sc" horiz-adv-x="483" 
d="M-100 1413h196l195 -180h-111zM315 0h-149l4 352v428l-4 350h149l-4 -350v-428z" />
    <glyph glyph-name="Imacron.sc" horiz-adv-x="483" 
d="M31 1251v97h409v-97h-409zM315 0h-149l4 352v428l-4 350h149l-4 -350v-428z" />
    <glyph glyph-name="Iogonek.sc" horiz-adv-x="485" 
d="M317 0h-2q-146 -61 -195.5 -102.5t-49.5 -90.5q0 -63 100 -63q35 0 82.5 13.5t81.5 29.5v-98q-109 -58 -221 -58q-85 0 -135 37t-50 96q0 71 55.5 131t184.5 125l4 332v428l-4 350h149l-4 -350v-428l4 -342l2 -8h-2v-2z" />
    <glyph glyph-name="Itilde.sc" horiz-adv-x="483" 
d="M119 1237h-86q0 67 37.5 107t97.5 40q44 0 94 -27.5t68 -27.5q49 0 49 60h86q0 -67 -38 -107.5t-97 -40.5q-34 0 -84.5 28.5t-77.5 28.5q-49 0 -49 -61zM315 0h-149l4 352v428l-4 350h149l-4 -350v-428z" />
    <glyph glyph-name="J.sc" horiz-adv-x="491" 
d="M324 -109q0 -120 -64.5 -190t-173.5 -70q-22 0 -102 13v118q43 -12 69 -12q59 0 94 46t35 122v862l-6 350h150l-2 -350v-889z" />
    <glyph glyph-name="Jacute.sc" horiz-adv-x="491" 
d="M592 1413l-281 -180h-110l194 180h197zM324 -109q0 -120 -64.5 -190t-173.5 -70q-22 0 -102 13v118q43 -12 69 -12q59 0 94 46t35 122v862l-6 350h150l-2 -350v-889z" />
    <glyph glyph-name="Jcircumflex.sc" horiz-adv-x="491" 
d="M141 1237h-151l190 176h146l190 -176h-151l-113 96zM324 -109q0 -120 -64.5 -190t-173.5 -70q-22 0 -102 13v118q43 -12 69 -12q59 0 94 46t35 122v862l-6 350h150l-2 -350v-889z" />
    <glyph glyph-name="K.sc" horiz-adv-x="1103" 
d="M315 0h-149l4 352v430l-4 348h149l-6 -348v-174h6l504 522h209l-352 -350l-125 -125v-4l233 -299l291 -352h-207l-264 352l-149 199h-4l-142 -143v-56z" />
    <glyph glyph-name="Kcommaaccent.sc" horiz-adv-x="1103" 
d="M315 0h-149l4 352v430l-4 348h149l-6 -348v-174h6l504 522h209l-352 -350l-125 -125v-4l233 -299l291 -352h-207l-264 352l-149 199h-4l-142 -143v-56zM383 -371l104 330h142l-135 -330h-111z" />
    <glyph glyph-name="L.sc" horiz-adv-x="905" 
d="M868 0h-702l4 352v428l-4 350h149l-4 -350v-659h557v-121z" />
    <glyph glyph-name="Lacute.sc" horiz-adv-x="905" 
d="M575 1413l-280 -180h-111l195 180h196zM868 0h-702l4 352v428l-4 350h149l-4 -350v-659h557v-121z" />
    <glyph glyph-name="Lcaron.sc" horiz-adv-x="913" 
d="M868 0h-702l4 352v428l-4 350h149l-4 -350v-659h557v-121zM606 807l45 319h162l-102 -319h-105z" />
    <glyph glyph-name="Lcommaaccent.sc" horiz-adv-x="905" 
d="M868 0h-702l4 352v428l-4 350h149l-4 -350v-659h557v-121zM348 -371l105 330h141l-135 -330h-111z" />
    <glyph glyph-name="Ldot.sc" horiz-adv-x="911" 
d="M868 0h-702l4 352v428l-4 350h149l-4 -350v-659h557v-121zM569 539v178h181v-178h-181z" />
    <glyph glyph-name="Lslash.sc" horiz-adv-x="929" 
d="M891 0h-703l5 352v82l-134 -78v138l134 77v209l-5 350h150l-4 -350v-127l317 187v-140l-317 -184v-395h557v-121z" />
    <glyph glyph-name="M.sc" horiz-adv-x="1523" 
d="M311 0h-145l4 352v428l-4 350h225l371 -911h2l371 911h225l-6 -350v-428l6 -352h-146l5 350v608h-7l-397 -958h-104l-398 954h-6v-602z" />
    <glyph glyph-name="N.sc" horiz-adv-x="1304" 
d="M315 0h-149l4 352v428l-4 350h135l537 -698l153 -201h6l-2 549l-4 350h150l-6 -350v-428l6 -352h-154l-549 719l-125 170h-4v-537z" />
    <glyph glyph-name="Nacute.sc" horiz-adv-x="1308" 
d="M989 1413l-280 -180h-111l195 180h196zM315 0h-149l4 352v428l-4 350h135l537 -698l153 -201h6l-2 549l-4 350h150l-6 -350v-428l6 -352h-154l-549 719l-125 170h-4v-537z" />
    <glyph glyph-name="Ncaron.sc" horiz-adv-x="1308" 
d="M543 1415l110 -96l113 96h152l-191 -176h-145l-191 176h152zM315 0h-149l4 352v428l-4 350h135l537 -698l153 -201h6l-2 549l-4 350h150l-6 -350v-428l6 -352h-154l-549 719l-125 170h-4v-537z" />
    <glyph glyph-name="Ncommaaccent.sc" horiz-adv-x="1308" 
d="M315 0h-149l4 352v428l-4 350h135l537 -698l153 -201h6l-2 549l-4 350h150l-6 -350v-428l6 -352h-154l-549 719l-125 170h-4v-537zM481 -371l105 330h141l-135 -330h-111z" />
    <glyph glyph-name="Eng.sc" horiz-adv-x="1308" 
d="M315 0h-149l4 352v428l-4 350h135l537 -698l153 -201h6l-2 549l-4 350h150l-6 -350v-428l6 -352v-113q0 -120 -67 -188t-187 -68q-21 0 -37 4v111q6 -2 29 -2q120 0 120 145v95l-12 16l-549 719l-125 170h-4v-537z" />
    <glyph glyph-name="Ntilde.sc" horiz-adv-x="1308" 
d="M530 1237h-86q0 67 37.5 107t98.5 40q44 0 93.5 -27.5t67.5 -27.5q50 0 50 60h86q0 -67 -38.5 -107.5t-97.5 -40.5q-34 0 -84 28.5t-77 28.5q-50 0 -50 -61zM315 0h-149l4 352v428l-4 350h135l537 -698l153 -201h6l-2 549l-4 350h150l-6 -350v-428l6 -352h-154l-549 719
l-125 170h-4v-537z" />
    <glyph glyph-name="O.sc" horiz-adv-x="1304" 
d="M1214 571q0 -172 -64.5 -304.5t-193 -209.5t-305.5 -77q-175 0 -304 77t-194 210t-65 306q0 166 65 296t194 206t304 76q133 0 240.5 -44t177.5 -122t107.5 -184t37.5 -230zM233 569q0 -207 112 -338t306 -131t306 130t112 337q0 130 -48.5 234t-145 166.5t-224.5 62.5
q-129 0 -225 -62t-144.5 -165.5t-48.5 -233.5z" />
    <glyph glyph-name="Oacute.sc" horiz-adv-x="1304" 
d="M987 1405l-280 -180h-111l195 180h196zM1214 571q0 -172 -64.5 -304.5t-193 -209.5t-305.5 -77q-175 0 -304 77t-194 210t-65 306q0 166 65 296t194 206t304 76q133 0 240.5 -44t177.5 -122t107.5 -184t37.5 -230zM233 569q0 -207 112 -338t306 -131t306 130t112 337
q0 130 -48.5 234t-145 166.5t-224.5 62.5q-129 0 -225 -62t-144.5 -165.5t-48.5 -233.5z" />
    <glyph glyph-name="Obreve.sc" horiz-adv-x="1304" 
d="M430 1405h98q6 -51 34.5 -74.5t88.5 -23.5q59 0 87.5 24t33.5 74h96q-3 -90 -57.5 -138t-159.5 -48q-108 0 -163 48t-58 138zM1214 571q0 -172 -64.5 -304.5t-193 -209.5t-305.5 -77q-175 0 -304 77t-194 210t-65 306q0 166 65 296t194 206t304 76q133 0 240.5 -44
t177.5 -122t107.5 -184t37.5 -230zM233 569q0 -207 112 -338t306 -131t306 130t112 337q0 130 -48.5 234t-145 166.5t-224.5 62.5q-129 0 -225 -62t-144.5 -165.5t-48.5 -233.5z" />
    <glyph glyph-name="Ocircumflex.sc" horiz-adv-x="1304" 
d="M543 1229h-152l191 176h145l191 -176h-152l-113 96zM1214 571q0 -172 -64.5 -304.5t-193 -209.5t-305.5 -77q-175 0 -304 77t-194 210t-65 306q0 166 65 296t194 206t304 76q133 0 240.5 -44t177.5 -122t107.5 -184t37.5 -230zM233 569q0 -207 112 -338t306 -131t306 130
t112 337q0 130 -48.5 234t-145 166.5t-224.5 62.5q-129 0 -225 -62t-144.5 -165.5t-48.5 -233.5z" />
    <glyph glyph-name="Odieresis.sc" horiz-adv-x="1304" 
d="M748 1249v146h159v-146h-159zM397 1249v146h160v-146h-160zM1214 571q0 -172 -64.5 -304.5t-193 -209.5t-305.5 -77q-175 0 -304 77t-194 210t-65 306q0 166 65 296t194 206t304 76q133 0 240.5 -44t177.5 -122t107.5 -184t37.5 -230zM233 569q0 -207 112 -338t306 -131
t306 130t112 337q0 130 -48.5 234t-145 166.5t-224.5 62.5q-129 0 -225 -62t-144.5 -165.5t-48.5 -233.5z" />
    <glyph glyph-name="Ograve.sc" horiz-adv-x="1304" 
d="M311 1405h197l194 -180h-110zM1214 571q0 -172 -64.5 -304.5t-193 -209.5t-305.5 -77q-175 0 -304 77t-194 210t-65 306q0 166 65 296t194 206t304 76q133 0 240.5 -44t177.5 -122t107.5 -184t37.5 -230zM233 569q0 -207 112 -338t306 -131t306 130t112 337
q0 130 -48.5 234t-145 166.5t-224.5 62.5q-129 0 -225 -62t-144.5 -165.5t-48.5 -233.5z" />
    <glyph glyph-name="Ohungarumlaut.sc" horiz-adv-x="1304" 
d="M780 1405l-280 -180h-111l195 180h196zM1102 1405l-281 -180h-110l194 180h197zM1214 571q0 -172 -64.5 -304.5t-193 -209.5t-305.5 -77q-175 0 -304 77t-194 210t-65 306q0 166 65 296t194 206t304 76q133 0 240.5 -44t177.5 -122t107.5 -184t37.5 -230zM233 569
q0 -207 112 -338t306 -131t306 130t112 337q0 130 -48.5 234t-145 166.5t-224.5 62.5q-129 0 -225 -62t-144.5 -165.5t-48.5 -233.5z" />
    <glyph glyph-name="Omacron.sc" horiz-adv-x="1304" 
d="M442 1243v96h410v-96h-410zM1214 571q0 -172 -64.5 -304.5t-193 -209.5t-305.5 -77q-175 0 -304 77t-194 210t-65 306q0 166 65 296t194 206t304 76q133 0 240.5 -44t177.5 -122t107.5 -184t37.5 -230zM233 569q0 -207 112 -338t306 -131t306 130t112 337
q0 130 -48.5 234t-145 166.5t-224.5 62.5q-129 0 -225 -62t-144.5 -165.5t-48.5 -233.5z" />
    <glyph glyph-name="Oslash.sc" horiz-adv-x="1333" 
d="M1231 571q0 -172 -64.5 -304.5t-193 -209.5t-305.5 -77q-188 0 -324 90l-57 -68h-168l127 154q-142 161 -142 417q0 166 65.5 296t194.5 206t304 76q190 0 329 -90l66 80h170l-137 -168q135 -156 135 -402zM250 569q0 -180 86 -305l573 692q-99 74 -241 74
q-129 0 -225 -62t-144.5 -165.5t-48.5 -233.5zM1085 567q0 174 -84 293l-573 -688q97 -72 240 -72q194 0 305.5 130t111.5 337z" />
    <glyph glyph-name="Oslashacute.sc" horiz-adv-x="1320" 
d="M997 1405l-280 -180h-111l195 180h196zM1225 571q0 -172 -64.5 -304.5t-193 -209.5t-305.5 -77q-181 0 -314 81l-51 -59h-168l119 143q-150 162 -150 428q0 166 65.5 296t194.5 206t304 76q199 0 339 -98l72 88h170l-145 -176q127 -154 127 -394zM244 569q0 -189 94 -315
l575 694q-106 82 -251 82q-129 0 -225 -62t-144.5 -165.5t-48.5 -233.5zM1079 567q0 164 -75 283l-572 -686q98 -64 230 -64q194 0 305.5 130t111.5 337z" />
    <glyph glyph-name="Otilde.sc" horiz-adv-x="1304" 
d="M530 1229h-86q0 67 37.5 107t98.5 40q44 0 93.5 -27.5t67.5 -27.5q50 0 50 59h86q0 -67 -38.5 -107t-97.5 -40q-34 0 -84 28.5t-77 28.5q-50 0 -50 -61zM1214 571q0 -172 -64.5 -304.5t-193 -209.5t-305.5 -77q-175 0 -304 77t-194 210t-65 306q0 166 65 296t194 206
t304 76q133 0 240.5 -44t177.5 -122t107.5 -184t37.5 -230zM233 569q0 -207 112 -338t306 -131t306 130t112 337q0 130 -48.5 234t-145 166.5t-224.5 62.5q-129 0 -225 -62t-144.5 -165.5t-48.5 -233.5z" />
    <glyph glyph-name="OE.sc" horiz-adv-x="1916" 
d="M1071 180q-65 -94 -175 -147t-245 -53q-132 0 -239 45t-177.5 124t-108.5 187.5t-38 236.5q0 164 65 294t194.5 207t303.5 77q137 0 246.5 -53.5t173.5 -147.5h4l-8 180h743v-120h-606v-363h582v-119h-582v-407h625v-121h-762l6 180h-2zM233 569q0 -206 112 -337.5
t306 -131.5q193 0 305.5 131t112.5 336q0 128 -48.5 232.5t-145 167.5t-224.5 63q-192 0 -305 -132t-113 -329z" />
    <glyph glyph-name="P.sc" horiz-adv-x="1060" 
d="M315 0h-149l4 352v428l-6 350h446q179 0 284 -94t105 -254q0 -173 -111.5 -267.5t-297.5 -94.5h-279v-68zM311 1012v-473h279q122 0 193 59t71 176q0 110 -65 174t-179 64h-299z" />
    <glyph glyph-name="Thorn.sc" horiz-adv-x="1079" 
d="M315 0h-149l4 352v428l-4 350h149l-4 -235h318q170 0 270 -84t100 -229q0 -158 -100 -251t-270 -93h-318zM311 778v-424h320q104 0 163.5 56.5t59.5 154.5q0 99 -59.5 156t-163.5 57h-320z" />
    <glyph glyph-name="Q.sc" horiz-adv-x="1304" 
d="M723 -254h-148l5 131v107q-231 23 -361.5 183.5t-130.5 405.5q0 166 65 296t194 206t304 76q133 0 240.5 -44t177.5 -122t107.5 -184t37.5 -230q0 -160 -56.5 -287t-169 -206.5t-267.5 -93.5l-2 -107zM233 569q0 -207 112 -338t306 -131t306 130t112 337q0 130 -48.5 234
t-145 166.5t-224.5 62.5q-129 0 -225 -62t-144.5 -165.5t-48.5 -233.5z" />
    <glyph glyph-name="R.sc" horiz-adv-x="1128" 
d="M315 0h-149l4 352v428l-4 350h461q177 0 280 -90.5t103 -244.5q0 -109 -66 -193.5t-176 -116.5v-4l301 -481h-168l-272 457l-318 -2v-103zM311 1012v-439h299q112 0 183 59.5t71 160.5q0 103 -62.5 161t-176.5 58h-314z" />
    <glyph glyph-name="Racute.sc" horiz-adv-x="1128" 
d="M844 1413l-281 -180h-110l194 180h197zM315 0h-149l4 352v428l-4 350h461q177 0 280 -90.5t103 -244.5q0 -109 -66 -193.5t-176 -116.5v-4l301 -481h-168l-272 457l-318 -2v-103zM311 1012v-439h299q112 0 183 59.5t71 160.5q0 103 -62.5 161t-176.5 58h-314z" />
    <glyph glyph-name="Rcaron.sc" horiz-adv-x="1128" 
d="M399 1415l111 -96l113 96h151l-190 -176h-146l-190 176h151zM315 0h-149l4 352v428l-4 350h461q177 0 280 -90.5t103 -244.5q0 -109 -66 -193.5t-176 -116.5v-4l301 -481h-168l-272 457l-318 -2v-103zM311 1012v-439h299q112 0 183 59.5t71 160.5q0 103 -62.5 161
t-176.5 58h-314z" />
    <glyph glyph-name="Rcommaaccent.sc" horiz-adv-x="1128" 
d="M315 0h-149l4 352v428l-4 350h461q177 0 280 -90.5t103 -244.5q0 -109 -66 -193.5t-176 -116.5v-4l301 -481h-168l-272 457l-318 -2v-103zM311 1012v-439h299q112 0 183 59.5t71 160.5q0 103 -62.5 161t-176.5 58h-314zM338 -371l104 330h142l-135 -330h-111z" />
    <glyph glyph-name="S.sc" horiz-adv-x="1103" 
d="M1030 322q0 -159 -128 -248.5t-349 -89.5t-351 108.5t-130 292.5h145q0 -134 90 -210.5t248 -76.5q156 0 243 53.5t87 153.5q0 27 -6.5 49.5t-21 41t-31 33t-42.5 27.5t-48 22t-56.5 18.5t-59 15.5t-63.5 14q-168 38 -217 55q-158 55 -202 163q-19 48 -19 110
q0 135 113 216t303 81q199 0 320.5 -96t127.5 -258h-145q-3 112 -83 175.5t-218 63.5q-126 0 -198.5 -46t-72.5 -128q0 -107 116 -160q59 -27 212 -60l1 -1h1h1h1l1 -1h1h1h1h1l1 -1h2q47 -10 78 -17.5t74.5 -20t73 -25.5t63.5 -31t56 -39.5t41.5 -48.5t28.5 -61t9 -74z" />
    <glyph glyph-name="Sacute.sc" horiz-adv-x="1103" 
d="M868 1413l-280 -180h-111l195 180h196zM1030 322q0 -159 -128 -248.5t-349 -89.5t-351 108.5t-130 292.5h145q0 -134 90 -210.5t248 -76.5q156 0 243 53.5t87 153.5q0 27 -6.5 49.5t-21 41t-31 33t-42.5 27.5t-48 22t-56.5 18.5t-59 15.5t-63.5 14q-168 38 -217 55
q-158 55 -202 163q-19 48 -19 110q0 135 113 216t303 81q199 0 320.5 -96t127.5 -258h-145q-3 112 -83 175.5t-218 63.5q-126 0 -198.5 -46t-72.5 -128q0 -107 116 -160q59 -27 212 -60l1 -1h1h1h1l1 -1h1h1h1h1l1 -1h2q47 -10 78 -17.5t74.5 -20t73 -25.5t63.5 -31
t56 -39.5t41.5 -48.5t28.5 -61t9 -74z" />
    <glyph glyph-name="Scaron.sc" horiz-adv-x="1103" 
d="M422 1415l110 -96l113 96h152l-191 -176h-145l-191 176h152zM1030 322q0 -159 -128 -248.5t-349 -89.5t-351 108.5t-130 292.5h145q0 -134 90 -210.5t248 -76.5q156 0 243 53.5t87 153.5q0 27 -6.5 49.5t-21 41t-31 33t-42.5 27.5t-48 22t-56.5 18.5t-59 15.5t-63.5 14
q-168 38 -217 55q-158 55 -202 163q-19 48 -19 110q0 135 113 216t303 81q199 0 320.5 -96t127.5 -258h-145q-3 112 -83 175.5t-218 63.5q-126 0 -198.5 -46t-72.5 -128q0 -107 116 -160q59 -27 212 -60l1 -1h1h1h1l1 -1h1h1h1h1l1 -1h2q47 -10 78 -17.5t74.5 -20t73 -25.5
t63.5 -31t56 -39.5t41.5 -48.5t28.5 -61t9 -74z" />
    <glyph glyph-name="Scedilla.sc" horiz-adv-x="1103" 
d="M563 -362q-67 0 -112 30.5t-45 77.5h90q0 -19 18.5 -31t48.5 -12q31 0 48.5 18.5t17.5 49.5q0 35 -23 55t-63 20h-72l25 140q-197 14 -310.5 120.5t-113.5 278.5h145q0 -134 90 -210.5t248 -76.5q156 0 243 53.5t87 153.5q0 27 -6.5 49.5t-21 41t-31 33t-42.5 27.5
t-48 22t-56.5 18.5t-59 15.5t-63.5 14q-168 38 -217 55q-158 55 -202 163q-19 48 -19 110q0 135 113 216t303 81q199 0 320.5 -96t127.5 -258h-145q-3 112 -83 175.5t-218 63.5q-126 0 -198.5 -46t-72.5 -128q0 -107 116 -160q59 -27 212 -60l1 -1h1h1h1l1 -1h1h1h1h1l1 -1
h2q47 -10 78 -17.5t74.5 -20t73 -25.5t63.5 -31t56 -39.5t41.5 -48.5t28.5 -61t9 -74q0 -152 -119 -241t-325 -97l-15 -74q72 0 110 -38t38 -101q0 -60 -40.5 -96.5t-115.5 -36.5z" />
    <glyph glyph-name="Scircumflex.sc" horiz-adv-x="1103" 
d="M424 1237h-152l191 176h145l191 -176h-152l-112 96zM1030 322q0 -159 -128 -248.5t-349 -89.5t-351 108.5t-130 292.5h145q0 -134 90 -210.5t248 -76.5q156 0 243 53.5t87 153.5q0 27 -6.5 49.5t-21 41t-31 33t-42.5 27.5t-48 22t-56.5 18.5t-59 15.5t-63.5 14
q-168 38 -217 55q-158 55 -202 163q-19 48 -19 110q0 135 113 216t303 81q199 0 320.5 -96t127.5 -258h-145q-3 112 -83 175.5t-218 63.5q-126 0 -198.5 -46t-72.5 -128q0 -107 116 -160q59 -27 212 -60l1 -1h1h1h1l1 -1h1h1h1h1l1 -1h2q47 -10 78 -17.5t74.5 -20t73 -25.5
t63.5 -31t56 -39.5t41.5 -48.5t28.5 -61t9 -74z" />
    <glyph glyph-name="Scommaaccent.sc" horiz-adv-x="1103" 
d="M1030 322q0 -159 -128 -248.5t-349 -89.5t-351 108.5t-130 292.5h145q0 -134 90 -210.5t248 -76.5q156 0 243 53.5t87 153.5q0 27 -6.5 49.5t-21 41t-31 33t-42.5 27.5t-48 22t-56.5 18.5t-59 15.5t-63.5 14q-168 38 -217 55q-158 55 -202 163q-19 48 -19 110
q0 135 113 216t303 81q199 0 320.5 -96t127.5 -258h-145q-3 112 -83 175.5t-218 63.5q-126 0 -198.5 -46t-72.5 -128q0 -107 116 -160q59 -27 212 -60l1 -1h1h1h1l1 -1h1h1h1h1l1 -1h2q47 -10 78 -17.5t74.5 -20t73 -25.5t63.5 -31t56 -39.5t41.5 -48.5t28.5 -61t9 -74z
M381 -371l104 330h142l-135 -330h-111z" />
    <glyph glyph-name="Germandbls.sc" horiz-adv-x="1234" 
d="M299 0h-149l6 352v443q0 164 123.5 259t336.5 95q120 0 241.5 -38.5t205.5 -104.5l-180 -375q126 -25 202 -112.5t76 -205.5q0 -151 -106 -240t-287 -89q-101 0 -176 20l8 115q55 -19 158 -19q121 0 189.5 58t68.5 161t-80.5 166.5t-218.5 63.5l190 409q-141 72 -293 72
q-150 0 -234.5 -62.5t-84.5 -172.5v-443z" />
    <glyph glyph-name="Schwa.sc" horiz-adv-x="1243" 
d="M100 719q23 199 158 315.5t344 116.5q253 0 401 -161t148 -433q0 -265 -148 -421t-401 -156q-236 0 -375 168t-139 452h918q-11 203 -117.5 316.5t-286.5 113.5q-152 0 -246.5 -82.5t-109.5 -228.5h-146zM604 100q168 0 271.5 98.5t125.5 274.5h-753q23 -178 116 -275.5
t240 -97.5z" />
    <glyph glyph-name="T.sc" horiz-adv-x="968" 
d="M563 0h-153l6 352v660h-379v121h895v-121h-375v-660z" />
    <glyph glyph-name="Tbar.sc" horiz-adv-x="985" 
d="M571 0h-153l6 352v340h-252v111h252v209h-379v121h895v-121h-375v-209h252v-111h-252v-340z" />
    <glyph glyph-name="Tcaron.sc" horiz-adv-x="968" 
d="M375 1415l110 -96l113 96h152l-191 -176h-145l-191 176h152zM563 0h-153l6 352v660h-379v121h895v-121h-375v-660z" />
    <glyph glyph-name="Tcedilla.sc" horiz-adv-x="968" 
d="M563 0h-43l-16 -90q72 0 109.5 -38t37.5 -101q0 -60 -40 -96.5t-115 -36.5q-67 0 -112.5 30.5t-45.5 77.5h90q0 -19 19 -31t49 -12t47.5 18.5t17.5 49.5q0 35 -23 55t-63 20h-72l27 154h-20l6 352v660h-379v121h895v-121h-375v-660z" />
    <glyph glyph-name="Tcommaaccent.sc" horiz-adv-x="968" 
d="M563 0h-153l6 352v660h-379v121h895v-121h-375v-660zM313 -371l105 330h141l-135 -330h-111z" />
    <glyph glyph-name="U.sc" horiz-adv-x="1214" 
d="M1061 412q0 -199 -122 -315.5t-329 -116.5q-211 0 -333.5 116t-122.5 316v368l-4 350h149l-4 -350v-362q0 -151 82.5 -234.5t230.5 -83.5q147 0 229.5 84t82.5 234v362l-5 350h150l-4 -350v-368z" />
    <glyph glyph-name="Uacute.sc" horiz-adv-x="1214" 
d="M944 1413l-280 -180h-111l195 180h196zM1061 412q0 -199 -122 -315.5t-329 -116.5q-211 0 -333.5 116t-122.5 316v368l-4 350h149l-4 -350v-362q0 -151 82.5 -234.5t230.5 -83.5q147 0 229.5 84t82.5 234v362l-5 350h150l-4 -350v-368z" />
    <glyph glyph-name="Ubreve.sc" horiz-adv-x="1214" 
d="M387 1413h98q6 -51 34.5 -74.5t88.5 -23.5q59 0 87.5 24t33.5 74h96q-3 -90 -57.5 -138t-159.5 -48q-108 0 -163 48t-58 138zM1061 412q0 -199 -122 -315.5t-329 -116.5q-211 0 -333.5 116t-122.5 316v368l-4 350h149l-4 -350v-362q0 -151 82.5 -234.5t230.5 -83.5
q147 0 229.5 84t82.5 234v362l-5 350h150l-4 -350v-368z" />
    <glyph glyph-name="Ucaron.sc" horiz-adv-x="1214" 
d="M498 1415l110 -96l113 96h151l-190 -176h-145l-191 176h152zM1061 412q0 -199 -122 -315.5t-329 -116.5q-211 0 -333.5 116t-122.5 316v368l-4 350h149l-4 -350v-362q0 -151 82.5 -234.5t230.5 -83.5q147 0 229.5 84t82.5 234v362l-5 350h150l-4 -350v-368z" />
    <glyph glyph-name="Ucircumflex.sc" horiz-adv-x="1214" 
d="M498 1237h-152l191 176h145l190 -176h-151l-113 96zM1061 412q0 -199 -122 -315.5t-329 -116.5q-211 0 -333.5 116t-122.5 316v368l-4 350h149l-4 -350v-362q0 -151 82.5 -234.5t230.5 -83.5q147 0 229.5 84t82.5 234v362l-5 350h150l-4 -350v-368z" />
    <glyph glyph-name="Udieresis.sc" horiz-adv-x="1214" 
d="M705 1257v146h159v-146h-159zM354 1257v146h160v-146h-160zM1061 412q0 -199 -122 -315.5t-329 -116.5q-211 0 -333.5 116t-122.5 316v368l-4 350h149l-4 -350v-362q0 -151 82.5 -234.5t230.5 -83.5q147 0 229.5 84t82.5 234v362l-5 350h150l-4 -350v-368z" />
    <glyph glyph-name="Ugrave.sc" horiz-adv-x="1214" 
d="M268 1413h197l194 -180h-110zM1061 412q0 -199 -122 -315.5t-329 -116.5q-211 0 -333.5 116t-122.5 316v368l-4 350h149l-4 -350v-362q0 -151 82.5 -234.5t230.5 -83.5q147 0 229.5 84t82.5 234v362l-5 350h150l-4 -350v-368z" />
    <glyph glyph-name="Uhungarumlaut.sc" horiz-adv-x="1214" 
d="M737 1413l-280 -180h-111l195 180h196zM1059 1413l-281 -180h-110l194 180h197zM1061 412q0 -199 -122 -315.5t-329 -116.5q-211 0 -333.5 116t-122.5 316v368l-4 350h149l-4 -350v-362q0 -151 82.5 -234.5t230.5 -83.5q147 0 229.5 84t82.5 234v362l-5 350h150l-4 -350
v-368z" />
    <glyph glyph-name="Umacron.sc" horiz-adv-x="1214" 
d="M399 1251v97h410v-97h-410zM1061 412q0 -199 -122 -315.5t-329 -116.5q-211 0 -333.5 116t-122.5 316v368l-4 350h149l-4 -350v-362q0 -151 82.5 -234.5t230.5 -83.5q147 0 229.5 84t82.5 234v362l-5 350h150l-4 -350v-368z" />
    <glyph glyph-name="Uogonek.sc" horiz-adv-x="1214" 
d="M782 -311q-109 -58 -221 -58q-85 0 -134.5 37t-49.5 96q0 61 39.5 113t130.5 105q-184 19 -288.5 132.5t-104.5 297.5v368l-4 350h149l-4 -350v-362q0 -151 82.5 -234.5t230.5 -83.5q147 0 229.5 84t82.5 234v362l-5 350h150l-4 -350v-368q0 -160 -80.5 -268.5
t-224.5 -145.5q-142 -61 -190 -102.5t-48 -88.5q0 -63 100 -63q35 0 82.5 13.5t81.5 29.5v-98z" />
    <glyph glyph-name="Uring.sc" horiz-adv-x="1214" 
d="M610 1149q-63 0 -105 40t-42 99t42 99t105 40q61 0 103.5 -40t42.5 -99t-42.5 -99t-103.5 -40zM610 1214q31 0 53.5 21.5t22.5 52.5q0 32 -22.5 54t-53.5 22q-32 0 -53.5 -22t-21.5 -54q0 -31 21.5 -52.5t53.5 -21.5zM1061 412q0 -199 -122 -315.5t-329 -116.5
q-211 0 -333.5 116t-122.5 316v368l-4 350h149l-4 -350v-362q0 -151 82.5 -234.5t230.5 -83.5q147 0 229.5 84t82.5 234v362l-5 350h150l-4 -350v-368z" />
    <glyph glyph-name="Utilde.sc" horiz-adv-x="1214" 
d="M485 1237h-86q0 67 37.5 107t98.5 40q44 0 93.5 -27.5t67.5 -27.5q49 0 49 60h86q0 -67 -38 -107.5t-97 -40.5q-34 0 -84 28.5t-77 28.5q-50 0 -50 -61zM1061 412q0 -199 -122 -315.5t-329 -116.5q-211 0 -333.5 116t-122.5 316v368l-4 350h149l-4 -350v-362
q0 -151 82.5 -234.5t230.5 -83.5q147 0 229.5 84t82.5 234v362l-5 350h150l-4 -350v-368z" />
    <glyph glyph-name="V.sc" horiz-adv-x="1165" 
d="M655 0h-145l-320 780l-151 350h176l135 -350l234 -594h4l229 594l133 350h176l-151 -350z" />
    <glyph glyph-name="W.sc" horiz-adv-x="1585" 
d="M557 0h-154l-243 780l-111 350h166l98 -350l172 -585h4l242 575l-115 360h160l109 -360l211 -575h2l172 585l100 350h166l-111 -350l-243 -780h-156l-223 586h-2z" />
    <glyph glyph-name="Wacute.sc" horiz-adv-x="1585" 
d="M1102 1413l-281 -180h-110l194 180h197zM557 0h-154l-243 780l-111 350h166l98 -350l172 -585h4l242 575l-115 360h160l109 -360l211 -575h2l172 585l100 350h166l-111 -350l-243 -780h-156l-223 586h-2z" />
    <glyph glyph-name="Wcircumflex.sc" horiz-adv-x="1585" 
d="M680 1237h-152l191 176h145l191 -176h-152l-112 96zM557 0h-154l-243 780l-111 350h166l98 -350l172 -585h4l242 575l-115 360h160l109 -360l211 -575h2l172 585l100 350h166l-111 -350l-243 -780h-156l-223 586h-2z" />
    <glyph glyph-name="Wdieresis.sc" horiz-adv-x="1585" 
d="M885 1257v146h159v-146h-159zM535 1257v146h159v-146h-159zM557 0h-154l-243 780l-111 350h166l98 -350l172 -585h4l242 575l-115 360h160l109 -360l211 -575h2l172 585l100 350h166l-111 -350l-243 -780h-156l-223 586h-2z" />
    <glyph glyph-name="Wgrave.sc" horiz-adv-x="1585" 
d="M473 1413h197l194 -180h-110zM557 0h-154l-243 780l-111 350h166l98 -350l172 -585h4l242 575l-115 360h160l109 -360l211 -575h2l172 585l100 350h166l-111 -350l-243 -780h-156l-223 586h-2z" />
    <glyph glyph-name="X.sc" horiz-adv-x="1062" 
d="M217 0h-194l245 352l158 236v4l-127 188l-252 350h195l219 -350l61 -88h4l64 88l213 350h198l-253 -350l-117 -178v-2l172 -248l248 -352h-199l-227 352l-90 137h-7l-92 -137z" />
    <glyph glyph-name="Y.sc" horiz-adv-x="1087" 
d="M618 0h-149l4 352v41l-217 387l-207 350h191l178 -350l125 -235h2l123 235l180 350h190l-207 -350l-217 -387v-41z" />
    <glyph glyph-name="Yacute.sc" horiz-adv-x="1087" 
d="M877 1413l-281 -180h-111l195 180h197zM618 0h-149l4 352v41l-217 387l-207 350h191l178 -350l125 -235h2l123 235l180 350h190l-207 -350l-217 -387v-41z" />
    <glyph glyph-name="Ycircumflex.sc" horiz-adv-x="1087" 
d="M432 1237h-151l190 176h145l191 -176h-152l-112 96zM618 0h-149l4 352v41l-217 387l-207 350h191l178 -350l125 -235h2l123 235l180 350h190l-207 -350l-217 -387v-41z" />
    <glyph glyph-name="Ydieresis.sc" horiz-adv-x="1087" 
d="M637 1257v146h160v-146h-160zM287 1257v146h159v-146h-159zM618 0h-149l4 352v41l-217 387l-207 350h191l178 -350l125 -235h2l123 235l180 350h190l-207 -350l-217 -387v-41z" />
    <glyph glyph-name="Ygrave.sc" horiz-adv-x="1087" 
d="M201 1413h196l195 -180h-111zM618 0h-149l4 352v41l-217 387l-207 350h191l178 -350l125 -235h2l123 235l180 350h190l-207 -350l-217 -387v-41z" />
    <glyph glyph-name="Ymacron.sc" horiz-adv-x="1087" 
d="M332 1251v97h409v-97h-409zM618 0h-149l4 352v41l-217 387l-207 350h191l178 -350l125 -235h2l123 235l180 350h190l-207 -350l-217 -387v-41z" />
    <glyph glyph-name="Z.sc" horiz-adv-x="993" 
d="M930 0h-873v111l664 895v4h-629v120h817v-106l-669 -899v-4h690v-121z" />
    <glyph glyph-name="Zacute.sc" horiz-adv-x="993" 
d="M836 1413l-281 -180h-111l195 180h197zM930 0h-873v111l664 895v4h-629v120h817v-106l-669 -899v-4h690v-121z" />
    <glyph glyph-name="Zcaron.sc" horiz-adv-x="993" 
d="M389 1415l111 -96l112 96h152l-191 -176h-145l-190 176h151zM930 0h-873v111l664 895v4h-629v120h817v-106l-669 -899v-4h690v-121z" />
    <glyph glyph-name="Zdotaccent.sc" horiz-adv-x="993" 
d="M422 1225v159h158v-159h-158zM930 0h-873v111l664 895v4h-629v120h817v-106l-669 -899v-4h690v-121z" />
    <glyph glyph-name="Aacute.loclPLK.sc" horiz-adv-x="1163" 
d="M520 1214l60 199h147l-84 -199h-123zM205 0h-162l139 352l297 778h207l295 -778l141 -352h-164l-120 328h-512zM578 993l-205 -542h418l-205 542h-8z" />
    <glyph glyph-name="Cacute.loclPLK.sc" horiz-adv-x="1218" 
d="M573 1214l60 199h147l-84 -199h-123zM1147 412q-23 -199 -161 -315.5t-351 -116.5q-251 0 -398 160t-147 433q0 266 147.5 422t397.5 156q218 0 354.5 -110.5t151.5 -299.5h-146q-17 136 -113 212.5t-247 76.5q-187 0 -293 -122.5t-106 -338.5q0 -220 106.5 -344.5
t294.5 -124.5q155 0 252 83t112 229h146z" />
    <glyph glyph-name="Eacute.loclPLK.sc" horiz-adv-x="1019" 
d="M483 1214l60 199h147l-84 -199h-123zM932 0h-766l4 352v428l-4 350h747v-120h-606v-363h582v-119h-582v-407h625v-121z" />
    <glyph glyph-name="Iacute.loclPLK.sc" horiz-adv-x="483" 
d="M178 1214l60 199h147l-84 -199h-123zM315 0h-149l4 352v428l-4 350h149l-4 -350v-428z" />
    <glyph glyph-name="Nacute.loclPLK.sc" horiz-adv-x="1308" 
d="M592 1214l59 199h148l-84 -199h-123zM315 0h-149l4 352v428l-4 350h135l537 -698l153 -201h6l-2 549l-4 350h150l-6 -350v-428l6 -352h-154l-549 719l-125 170h-4v-537z" />
    <glyph glyph-name="Oacute.loclPLK.sc" horiz-adv-x="1304" 
d="M590 1206l59 199h148l-84 -199h-123zM1214 571q0 -172 -64.5 -304.5t-193 -209.5t-305.5 -77q-175 0 -304 77t-194 210t-65 306q0 166 65 296t194 206t304 76q133 0 240.5 -44t177.5 -122t107.5 -184t37.5 -230zM233 569q0 -207 112 -338t306 -131t306 130t112 337
q0 130 -48.5 234t-145 166.5t-224.5 62.5q-129 0 -225 -62t-144.5 -165.5t-48.5 -233.5z" />
    <glyph glyph-name="Sacute.loclPLK.sc" horiz-adv-x="1103" 
d="M473 1214l59 199h148l-84 -199h-123zM1030 322q0 -159 -128 -248.5t-349 -89.5t-351 108.5t-130 292.5h145q0 -134 90 -210.5t248 -76.5q156 0 243 53.5t87 153.5q0 27 -6.5 49.5t-21 41t-31 33t-42.5 27.5t-48 22t-56.5 18.5t-59 15.5t-63.5 14q-168 38 -217 55
q-158 55 -202 163q-19 48 -19 110q0 135 113 216t303 81q199 0 320.5 -96t127.5 -258h-145q-3 112 -83 175.5t-218 63.5q-126 0 -198.5 -46t-72.5 -128q0 -107 116 -160q59 -27 212 -60l1 -1h1h1h1l1 -1h1h1h1h1l1 -1h2q47 -10 78 -17.5t74.5 -20t73 -25.5t63.5 -31
t56 -39.5t41.5 -48.5t28.5 -61t9 -74z" />
    <glyph glyph-name="Uacute.loclPLK.sc" horiz-adv-x="1214" 
d="M547 1214l59 199h148l-84 -199h-123zM1061 412q0 -199 -122 -315.5t-329 -116.5q-211 0 -333.5 116t-122.5 316v368l-4 350h149l-4 -350v-362q0 -151 82.5 -234.5t230.5 -83.5q147 0 229.5 84t82.5 234v362l-5 350h150l-4 -350v-368z" />
    <glyph glyph-name="Zacute.loclPLK.sc" horiz-adv-x="993" 
d="M438 1214l60 199h147l-84 -199h-123zM930 0h-873v111l664 895v4h-629v120h817v-106l-669 -899v-4h690v-121z" />
    <glyph glyph-name="a.sups" horiz-adv-x="749" 
d="M520 909q-70 -123 -231 -123q-100 0 -158.5 44t-58.5 126q0 107 112 163.5t320 56.5v43q0 116 -144 116q-73 0 -114 -31t-41 -85h-109q0 98 72.5 154.5t193.5 56.5q120 0 187 -61.5t67 -170.5v-254q0 -57 37 -57q46 0 70 12v-80q-68 -33 -119 -33q-38 0 -60 21.5
t-22 58.5v43h-2zM184 963q0 -39 31.5 -61.5t83.5 -22.5q98 0 151.5 51t53.5 133v37q-161 0 -240.5 -33t-79.5 -104z" />
    <glyph glyph-name="d.sups" horiz-adv-x="768" 
d="M530 899q-22 -53 -72.5 -83t-117.5 -30q-115 0 -189.5 86t-74.5 230q0 152 69.5 240t190.5 88q64 0 116 -30t78 -83h7v98l-2 221h114l-2 -221v-407l2 -209h-114l2 100h-7zM203 1106q0 -105 43.5 -161t126.5 -56q78 0 120 55.5t42 159.5q0 110 -43 167.5t-125 57.5
q-80 0 -122 -57t-42 -166z" />
    <glyph glyph-name="egrave.sups" horiz-adv-x="743" 
d="M164 1647h137l119 -166h-94zM662 1020q-11 -108 -88 -170t-201 -62q-138 0 -217.5 86.5t-79.5 235.5t79.5 234.5t217.5 85.5q137 0 216 -83.5t79 -228.5v-26h-465q3 -95 52.5 -152t125.5 -57q66 0 110.5 36.5t51.5 100.5h119zM375 1335q-75 0 -119.5 -41t-44.5 -114h328
q0 73 -44.5 114t-119.5 41z" />
    <glyph glyph-name="n.sups" horiz-adv-x="751" 
d="M242 799h-123l2 207l-2 192l-2 221h116l-2 -116h2q71 127 209 127q90 0 144.5 -64.5t54.5 -171.5v-188l2 -207h-125l4 207v159q0 75 -33.5 119.5t-91.5 44.5q-73 0 -115 -48.5t-42 -135.5v-139z" />
    <glyph glyph-name="o.sups" horiz-adv-x="765" 
d="M690 1106q0 -148 -83 -234t-226 -86q-141 0 -223 86t-82 234q0 151 82 237.5t223 86.5q143 0 226 -87t83 -237zM203 1108q0 -107 46.5 -167t131.5 -60q86 0 133 59.5t47 167.5t-47 167.5t-133 59.5q-85 0 -131.5 -60t-46.5 -167z" />
    <glyph glyph-name="r.sups" horiz-adv-x="567" 
d="M242 799h-123l2 207l-2 192l-2 221h116l-2 -125h2q60 136 187 136q64 0 100 -23l-2 -107q-66 29 -112 29q-79 0 -122.5 -55t-43.5 -154v-114z" />
    <glyph glyph-name="s.sups" horiz-adv-x="659" 
d="M592 975q0 -89 -70 -139t-192 -50q-127 0 -195.5 55.5t-68.5 166.5h110q0 -63 39.5 -96t112.5 -33q151 0 151 98q0 28 -21.5 46t-56 27.5t-76 17.5t-83.5 20.5t-76.5 31t-56 53.5t-21.5 84q0 80 65 126.5t171 46.5q116 0 182.5 -55t66.5 -150h-112q0 54 -34.5 83
t-100.5 29q-58 0 -91.5 -23t-33.5 -67q0 -29 21.5 -48t56 -28.5t76 -17.5t83.5 -19.5t76.5 -28.5t56 -50t21.5 -80z" />
    <glyph glyph-name="t.sups" horiz-adv-x="569" 
d="M516 821q-100 -35 -158 -35q-94 0 -146 55.5t-52 155.5v320h-111v100h123l-2 144h113l-2 -144h237v-100h-237v-309q0 -64 21.5 -92.5t66.5 -28.5q62 0 147 28v-94z" />
    <glyph glyph-name="zero.lf" horiz-adv-x="1185" 
d="M592 -23q-227 0 -355 196t-128 536q0 339 128.5 534t354.5 195q228 0 355.5 -194.5t127.5 -534.5t-128 -536t-355 -196zM592 1325q-165 0 -252.5 -160.5t-87.5 -455.5q0 -296 87.5 -457.5t252.5 -161.5t252.5 161.5t87.5 457.5q0 295 -87.5 455.5t-252.5 160.5z" />
    <glyph glyph-name="one.lf" horiz-adv-x="921" 
d="M84 0v143h358l2 209v897q-33 -27 -166 -108t-184 -107v133q56 30 190.5 119t174.5 127h131l-2 -364v-697l2 -209h284v-143h-790z" />
    <glyph glyph-name="two.lf" horiz-adv-x="1116" 
d="M666 549l-394 -428h768v-121h-956v106l516 562q116 125 153 176q85 117 85 231q0 117 -71.5 181.5t-203.5 64.5q-152 0 -232.5 -103t-80.5 -294h-144q0 237 123 373.5t340 136.5q191 0 300.5 -97t109.5 -262q0 -60 -13 -112t-32.5 -94.5t-64 -98t-85.5 -99.5t-118 -122z
" />
    <glyph glyph-name="three.lf" horiz-adv-x="1181" 
d="M586 1434q208 0 327 -95.5t119 -257.5q0 -115 -71 -197.5t-193 -113.5v-2q142 -29 226.5 -130t84.5 -239q0 -193 -131 -306t-360 -113q-233 0 -367.5 121.5t-134.5 326.5h137q0 -158 94.5 -246t268.5 -88q168 0 259 80t91 225q0 140 -104.5 218.5t-296.5 78.5h-80v117h61
q180 0 277.5 67.5t97.5 188.5q0 119 -79 185.5t-226 66.5q-151 0 -233.5 -84.5t-84.5 -237.5h-137q0 200 121.5 317.5t333.5 117.5z" />
    <glyph glyph-name="four.lf" horiz-adv-x="1136" 
d="M49 379v104l623 930h196l-6 -362v-557h215v-115h-215v-70l6 -309h-147l4 309v70h-676zM195 494h530v557l-2 231z" />
    <glyph glyph-name="five.lf" horiz-adv-x="1118" 
d="M94 373h139q-3 -132 80.5 -205.5t241.5 -73.5q160 0 247 99.5t87 277.5q0 180 -86.5 280.5t-245.5 100.5q-119 0 -194 -54.5t-97 -152.5h-129l49 768h758l-2 -113h-641l-35 -481h4q42 67 127 106.5t191 39.5q208 0 326 -132.5t118 -359.5q0 -226 -126 -359.5t-347 -133.5
q-217 0 -341 106t-124 287z" />
    <glyph glyph-name="six.lf" horiz-adv-x="1179" 
d="M209 162q-61 95 -78.5 217.5t-17.5 308.5q0 347 135 546.5t385 199.5q182 0 289.5 -91t113.5 -247h-143q-8 104 -77.5 164.5t-186.5 60.5q-181 0 -278 -168.5t-97 -470.5h4q43 114 140.5 173.5t242.5 59.5q206 0 324 -127t118 -344q0 -214 -124.5 -339t-340.5 -125
q-290 0 -409 182zM610 803q-162 0 -250 -93.5t-88 -260.5q0 -168 88 -263.5t248 -95.5t247 95t87 264q0 167 -86.5 260.5t-245.5 93.5z" />
    <glyph glyph-name="seven.lf" horiz-adv-x="1013" 
d="M41 1290v123h913v-113q-195 -386 -324.5 -688t-209.5 -612h-137q147 551 520 1286v4h-762z" />
    <glyph glyph-name="eight.lf" horiz-adv-x="1185" 
d="M399 762q-113 29 -179 115t-66 204q0 164 115.5 258.5t322.5 94.5q206 0 321 -94.5t115 -258.5q0 -116 -65 -203t-175 -116v-2q141 -39 218 -136.5t77 -244.5q0 -187 -130 -293t-361 -106q-230 0 -359 106t-129 293q0 147 81 249t214 130v4zM592 1321q-144 0 -219.5 -65
t-75.5 -185q0 -124 76 -192t219 -68t219 68t76 192q0 120 -75.5 185t-219.5 65zM594 700q-168 0 -257 -79.5t-89 -225.5q0 -144 89 -222.5t257 -78.5q166 0 255 79t89 222q0 146 -89 225.5t-255 79.5z" />
    <glyph glyph-name="nine.lf" horiz-adv-x="1167" 
d="M532 518q-205 0 -320.5 123t-115.5 336q0 210 121 333.5t332 123.5q92 0 163.5 -16t120 -46t78.5 -60.5t56 -70.5q90 -132 90 -455q0 -247 -58 -427t-174 -279.5t-280 -99.5q-193 0 -302 101.5t-114 278.5h143q3 -126 75 -198t202 -72q112 0 194.5 81t126 226.5
t43.5 337.5h-4q-95 -217 -377 -217zM563 1323q-155 0 -240 -91.5t-85 -254.5t85.5 -253.5t243.5 -90.5q156 0 241 89.5t87 248.5q2 167 -85 259.5t-247 92.5z" />
    <glyph glyph-name="zero.osf" horiz-adv-x="1093" 
d="M600 -20q-210 0 -332.5 158t-122.5 427t122.5 427.5t334.5 158.5q210 0 331.5 -158.5t121.5 -427.5t-122.5 -427t-332.5 -158zM600 1038q-147 0 -229 -125t-82 -348t82 -348t231 -125q147 1 229 126t82 347q0 223 -82.5 348t-230.5 125z" />
    <glyph glyph-name="one.osf" horiz-adv-x="980" 
d="M492 989q-38 -30 -153.5 -82t-168.5 -67v129q3 1 39 16t57.5 24t61 28t66.5 34t55.5 34.5t44.5 37.5h145l-6 -418v-369l4 -243h360v-113h-880v113h370l5 243v633z" />
    <glyph glyph-name="two.osf" horiz-adv-x="1036" 
d="M743 514l-409 -393h690v-121h-901v90l520 502q41 38 64 62t49 58.5t37.5 70t11.5 75.5q0 78 -66 129t-176 51q-126 0 -197 -78.5t-71 -220.5h-141q0 195 110 303.5t309 108.5q172 0 272.5 -83.5t100.5 -215.5q0 -49 -14 -92t-46.5 -87.5t-60.5 -75t-82 -83.5z" />
    <glyph glyph-name="three.osf" horiz-adv-x="1095" 
d="M1075 186q0 -185 -129 -293t-350 -108q-225 0 -357.5 114t-132.5 308h138q0 -145 92 -226t258 -81q159 0 248.5 76t89.5 210q0 125 -92.5 196t-257.5 71l-136 -2v61l406 498v8h-680v112h825v-147l-346 -416q192 0 308 -104t116 -277z" />
    <glyph glyph-name="four.osf" horiz-adv-x="1132" 
d="M754 537h133v-301h239v-115h-239v-96l4 -232h-141l4 232v96h-648v108l580 901h145l-585 -897h508v304z" />
    <glyph glyph-name="five.osf" horiz-adv-x="1060" 
d="M127 172h145q1 -132 77.5 -204t213.5 -72q158 0 244 92t86 260q0 173 -78 267.5t-225 94.5q-118 0 -194.5 -54.5t-98.5 -154.5h-135l47 729h745v-112h-637l-28 -445h6q42 70 130 110t204 40q190 0 297.5 -126t107.5 -345t-125 -344t-346 -125q-203 0 -319.5 104
t-116.5 285z" />
    <glyph glyph-name="six.osf" horiz-adv-x="1124" 
d="M289 111q-66 74 -106 200.5t-40 288.5q0 351 128 545t368 194q186 0 291 -88.5t110 -244.5h-135q-8 106 -77.5 163.5t-198.5 57.5q-168 0 -261 -149.5t-104 -415.5h4q53 98 154 153t237 55q196 0 311 -118.5t115 -319.5q0 -208 -122.5 -330t-333.5 -122q-223 0 -340 131z
M627 758q-154 0 -241 -88t-87 -244t88.5 -246t239.5 -90q150 0 233.5 91.5t83.5 254.5q0 151 -83.5 236.5t-233.5 85.5z" />
    <glyph glyph-name="seven.osf" horiz-adv-x="1003" 
d="M123 1008v122h909v-112q-218 -334 -337 -595.5t-197 -610.5h-148q84 337 201 600.5t330 588.5v7h-758z" />
    </font>
</defs>
</svg>
