<?xml version="1.0" standalone="no"?>
<!DOCTYPE svg PUBLIC "-//W3C//DTD SVG 1.1//EN" "http://www.w3.org/Graphics/SVG/1.1/DTD/svg11.dtd" >
<svg xmlns="http://www.w3.org/2000/svg" xmlns:xlink="http://www.w3.org/1999/xlink" version="1.1">
<metadata>
Created by FontForge 20201107 at Mon Mar 11 16:46:51 2024
 By 
Copyright (c) 2017 by Andrea Amato - Tipiblu. All rights reserved.
</metadata>
<defs>
<font id="SempioneGrotesk-Medium" horiz-adv-x="1228" >
  <font-face 
    font-family="SempioneGrotesk Medium"
    font-weight="500"
    font-stretch="normal"
    units-per-em="2048"
    panose-1="0 0 0 0 0 0 0 0 0 0"
    ascent="1536"
    descent="-512"
    x-height="1049"
    cap-height="1413"
    bbox="-315 -549 2623 1788"
    underline-thickness="102"
    underline-position="-255"
    unicode-range="U+0020-25CA"
  />
<missing-glyph horiz-adv-x="1024" 
d="M102 -512v2048h820v-2048h-820zM205 -410h614v1844h-614v-1844z" />
    <glyph glyph-name="f_f" unicode="ff" horiz-adv-x="1464" 
d="M473 0h-285l7 352v492h-158v205h158v88q0 137 91 217t249 80q83 0 172 -21v-188q-70 12 -117 12q-60 0 -92.5 -28.5t-32.5 -80.5v-79h467v88q0 137 91 217t249 80q83 0 172 -21v-188q-70 12 -117 12q-60 0 -92.5 -28.5t-32.5 -80.5v-79h242v-205h-242v-492l8 -352h-284
l6 352v492h-467v-492z" />
    <glyph glyph-name="f_f_i" unicode="ffi" horiz-adv-x="1988" 
d="M473 0h-285l7 352v492h-158v205h158v88q0 137 91 217t249 80q83 0 172 -21v-188q-70 12 -117 12q-60 0 -92.5 -28.5t-32.5 -80.5v-79h194v2h273v86q0 137 91 217t249 80q83 0 172 -21v-188q-70 12 -117 12q-60 0 -92.5 -28.5t-32.5 -80.5v-77h504v-2h166l-8 -361v-336
l8 -352h-287l8 352v336l-4 156h-387v-492l8 -352h-284l6 352v492h-467v-492zM1872 1192h-287v221h287v-221z" />
    <glyph glyph-name="f_f_l" unicode="ffl" horiz-adv-x="1984" 
d="M473 0h-285l7 352v492h-158v205h158v88q0 137 91 217t249 80q83 0 172 -21v-188q-70 12 -117 12q-60 0 -92.5 -28.5t-32.5 -80.5v-79h467v88q0 137 91 217t249 80q83 0 172 -21v-188q-70 12 -117 12q-60 0 -92.5 -28.5t-32.5 -80.5v-79h383v14l-6 348h285l-9 -348v-776
q0 -52 25.5 -80.5t71.5 -28.5q48 0 104 21v-193q-83 -26 -155 -26q-146 0 -231 83t-85 226v555h-383v-492l8 -352h-284l6 352v492h-467v-492z" />
    <glyph glyph-name="f_i" unicode="fi" horiz-adv-x="1249" 
d="M473 0h-285l7 352v492h-158v205h158v88q0 137 91 217t249 80q83 0 172 -21v-188q-70 12 -117 12q-60 0 -92.5 -28.5t-32.5 -80.5v-79h668l-9 -361v-336l9 -352h-287l8 352v336l-4 156h-385v-492zM1133 1192h-287v221h287v-221z" />
    <glyph glyph-name="f_l" unicode="fl" horiz-adv-x="1245" 
d="M473 0h-285l7 352v492h-158v205h158v88q0 137 91 217t249 80q83 0 172 -21v-188q-70 12 -117 12q-60 0 -92.5 -28.5t-32.5 -80.5v-79h383v14l-6 348h284l-8 -348v-776q0 -52 25 -80.5t71 -28.5q50 0 105 21v-193q-83 -26 -156 -26q-146 0 -230.5 83t-84.5 226v555h-383
v-492z" />
    <glyph glyph-name=".notdef" horiz-adv-x="1024" 
d="M102 -512v2048h820v-2048h-820zM205 -410h614v1844h-614v-1844z" />
    <glyph glyph-name=".null" horiz-adv-x="0" 
 />
    <glyph glyph-name="nonmarkingreturn" horiz-adv-x="682" 
 />
    <glyph glyph-name="space" unicode=" " horiz-adv-x="403" 
 />
    <glyph glyph-name="exclam" unicode="!" horiz-adv-x="561" 
d="M403 444h-245l-21 969h287zM137 0v285h285v-285h-285z" />
    <glyph glyph-name="quotedbl" unicode="&#x22;" horiz-adv-x="815" 
d="M481 918l-16 495h256l-16 -495h-224zM111 918l-19 495h258l-18 -495h-221z" />
    <glyph glyph-name="numbersign" unicode="#" horiz-adv-x="1771" 
d="M375 0l74 418h-398l33 182h399l45 258h-397l33 184h397l68 373h233l-67 -373h266l67 373h234l-68 -373h428l-32 -184h-428l-48 -258h426l-30 -182h-426l-76 -418h-234l76 418h-270l-74 -418h-231zM711 596h274l47 268h-274z" />
    <glyph glyph-name="dollar" unicode="$" horiz-adv-x="1300" 
d="M346 481q0 -272 320 -278q134 0 209 46t75 126t-63 121.5t-209 76.5q-56 13 -91.5 22t-89 24.5t-89.5 29.5t-81 36t-74.5 44.5t-60.5 54t-49 66.5t-29.5 79.5t-11.5 94.5q0 79 26.5 144.5t69.5 108.5t100.5 74.5t114.5 47t117 20.5l-6 166h289l-8 -170
q186 -32 287.5 -148t103.5 -286h-293q0 104 -69 164.5t-189 60.5q-248 -3 -248 -172q0 -22 7 -41.5t23 -35.5t32 -29.5t44 -25.5t48 -20.5t55.5 -18.5t55.5 -15.5t58 -15l54 -13.5q65 -16 104 -27t95 -30.5t90 -39t72.5 -50t59.5 -65.5t35.5 -83t14.5 -106
q0 -173 -124 -285.5t-316 -138.5l8 -195h-289l8 189q-106 12 -190 44.5t-150.5 90t-102.5 148t-36 210.5h293z" />
    <glyph glyph-name="percent" unicode="%" horiz-adv-x="1927" 
d="M434 580q-165 0 -262.5 116t-97.5 314q0 201 98 317.5t266 116.5q166 0 263.5 -116.5t97.5 -317.5q0 -198 -99 -314t-266 -116zM344 0l1055 1415h172l-1053 -1415h-174zM434 1292q-79 0 -121.5 -72.5t-42.5 -209.5q0 -136 43 -208.5t121 -72.5q80 0 124 72.5t44 208.5
q0 137 -44 209.5t-124 72.5zM1489 -14q-165 0 -263 116.5t-98 313.5q0 200 98.5 317t266.5 117q166 0 263 -116.5t97 -317.5q0 -198 -98.5 -314t-265.5 -116zM1489 698q-79 0 -121.5 -72.5t-42.5 -209.5q0 -136 43 -208.5t121 -72.5q80 0 124 72.5t44 208.5q0 137 -44 209.5
t-124 72.5z" />
    <glyph glyph-name="ampersand" unicode="&#x26;" horiz-adv-x="1458" 
d="M74 346q0 124 77 232t216 184q-177 200 -177 346q0 151 112 238.5t300 87.5q186 0 297 -89t111 -243q0 -95 -78.5 -196t-208.5 -179l285 -295q59 105 59 313h279q0 -135 -40 -266t-120 -223l260 -256h-346l-113 125q-74 -68 -185 -106.5t-237 -38.5q-226 0 -358.5 99.5
t-132.5 266.5zM567 889q166 94 166 217q0 64 -35 98.5t-98 34.5q-64 0 -98.5 -33.5t-34.5 -95.5q0 -107 100 -221zM340 352q0 -87 59 -135.5t170 -48.5q155 0 256 113l-305 325q-180 -114 -180 -254z" />
    <glyph glyph-name="quotesingle" unicode="'" horiz-adv-x="440" 
d="M109 922l-17 491h256l-16 -491h-223z" />
    <glyph glyph-name="parenleft" unicode="(" horiz-adv-x="600" 
d="M545 1434v-193q-102 0 -154.5 -134t-52.5 -394v-267q0 -257 52.5 -388.5t154.5 -131.5v-194q-207 0 -329 184.5t-122 503.5v330q0 318 122 501t329 183z" />
    <glyph glyph-name="parenright" unicode=")" horiz-adv-x="600" 
d="M57 1434q207 0 329 -183t122 -501v-330q0 -319 -122 -503.5t-329 -184.5v194q102 0 154.5 131.5t52.5 388.5v267q0 260 -52.5 394t-154.5 134v193z" />
    <glyph glyph-name="asterisk" unicode="*" horiz-adv-x="845" 
d="M315 762l60 260l-199 -176l-100 170l258 84l-256 84l100 178l197 -174l-60 256h209l-55 -256l199 174l100 -178l-258 -82l256 -84l-96 -172l-201 176l55 -260h-209z" />
    <glyph glyph-name="plus" unicode="+" horiz-adv-x="1073" 
d="M436 174l-2 338h-338v207h338v338h207v-338h336v-207h-334v-338h-207z" />
    <glyph glyph-name="comma" unicode="," horiz-adv-x="499" 
d="M6 -248l129 518h291l-193 -518h-227z" />
    <glyph glyph-name="hyphen" unicode="-" horiz-adv-x="661" 
d="M109 444v189h444v-189h-444z" />
    <glyph glyph-name="period" unicode="." horiz-adv-x="483" 
d="M98 0v285h285v-285h-285z" />
    <glyph glyph-name="slash" unicode="/" horiz-adv-x="892" 
d="M856 1434l-625 -1454h-192l623 1454h194z" />
    <glyph glyph-name="zero" unicode="0" horiz-adv-x="1210" 
d="M614 -20q-246 0 -387 194t-141 531q0 338 142 533.5t388 195.5t386.5 -195t140.5 -534q0 -337 -141.5 -531t-387.5 -194zM614 1229q-124 0 -189 -134.5t-65 -389.5q0 -254 65 -387.5t189 -133.5t189 133.5t65 387.5q0 255 -65 389.5t-189 134.5z" />
    <glyph glyph-name="one" unicode="1" horiz-adv-x="985" 
d="M70 0v231h340l2 121v772q-34 -28 -163 -101t-181 -97v237q54 29 188 117t182 133h250l-4 -379v-682l2 -121h262v-231h-878z" />
    <glyph glyph-name="two" unicode="2" horiz-adv-x="1159" 
d="M817 616l-373 -407h658v-209h-1030v158l528 563q90 98 135 168t45 147q0 95 -51 144t-149 49q-111 0 -169 -82.5t-57 -239.5h-268q-1 243 135.5 385t370.5 142q208 0 332.5 -106t124.5 -284q0 -117 -51 -206t-181 -222z" />
    <glyph glyph-name="three" unicode="3" horiz-adv-x="1198" 
d="M604 1434q223 0 350 -97t127 -266q0 -109 -68 -186.5t-188 -108.5v-6q143 -24 226.5 -121.5t83.5 -232.5q0 -203 -140.5 -319.5t-386.5 -116.5q-254 0 -398 120t-144 328h268q0 -119 67 -180.5t199 -61.5q125 0 189.5 58.5t64.5 169.5q0 110 -82 167.5t-240 57.5h-79v205
h49q149 0 226 51t77 149q0 185 -201 185q-220 0 -223 -236h-275q0 205 132.5 323t365.5 118z" />
    <glyph glyph-name="four" unicode="4" horiz-adv-x="1210" 
d="M41 328l2 202l565 883h357l-9 -377v-501h174v-207h-174v-41l9 -287h-271l8 287v41h-661zM297 535h405v636z" />
    <glyph glyph-name="five" unicode="5" horiz-adv-x="1144" 
d="M72 395h272q-2 -102 55.5 -154.5t171.5 -52.5q116 0 178 76.5t62 216.5t-62 216.5t-178 76.5q-163 0 -209 -143h-245l49 782h835l-2 -207h-616l-29 -360h6q102 133 302 133q194 0 306.5 -132.5t112.5 -359.5q0 -235 -135 -371t-373 -136q-231 0 -366 111.5t-135 303.5z
" />
    <glyph glyph-name="six" unicode="6" horiz-adv-x="1206" 
d="M205 160q-69 92 -93 219.5t-24 318.5q0 216 61.5 380t188.5 260t305 96q200 0 319 -98.5t123 -268.5h-274q-6 75 -52.5 118.5t-121.5 43.5q-92 0 -156.5 -68.5t-92.5 -172t-28 -230.5h7q46 79 129 124.5t196 45.5q204 0 321 -126t117 -349q0 -214 -136.5 -343.5
t-360.5 -129.5q-291 0 -428 180zM621 741q-118 0 -181 -71.5t-63 -206.5q0 -137 63 -210t181 -73q115 0 175 73t60 210q0 135 -60 206.5t-175 71.5z" />
    <glyph glyph-name="seven" unicode="7" horiz-adv-x="1075" 
d="M47 1182v231h977v-196q-195 -325 -329.5 -619.5t-221.5 -597.5h-262q173 593 518 1174v8h-682z" />
    <glyph glyph-name="eight" unicode="8" horiz-adv-x="1204" 
d="M354 764q-102 37 -164.5 122t-62.5 191q0 169 127.5 267t345.5 98q219 0 346 -98t127 -267q0 -106 -60 -192t-161 -121v-6q129 -42 200.5 -139t71.5 -236q0 -188 -139.5 -295.5t-382.5 -107.5q-242 0 -381 108t-139 295q0 137 75.5 238t196.5 137v6zM600 1241
q-97 0 -148 -48t-51 -140q0 -94 51.5 -144.5t147.5 -50.5q98 0 149.5 50.5t51.5 144.5q0 92 -51.5 140t-149.5 48zM604 653q-121 0 -184.5 -60.5t-63.5 -176.5q0 -114 63.5 -174t184.5 -60q120 0 183 60t63 174q0 116 -63 176.5t-183 60.5z" />
    <glyph glyph-name="nine" unicode="9" horiz-adv-x="1191" 
d="M504 506q-196 0 -311 118t-115 332q0 223 131.5 350.5t349.5 127.5q169 0 270 -51t168 -136q109 -142 109 -491q0 -355 -145.5 -567t-407.5 -212q-200 0 -316.5 107t-121.5 287h272q8 -88 55 -138.5t129 -50.5q79 0 138.5 65.5t89.5 174.5t30 244h-6q-52 -84 -122.5 -122
t-196.5 -38zM588 1233q-116 0 -177 -68t-61 -196q0 -136 60.5 -206.5t175.5 -70.5q112 0 170.5 68.5t60.5 200.5q0 132 -58.5 202t-170.5 70z" />
    <glyph glyph-name="colon" unicode=":" horiz-adv-x="503" 
d="M109 764v285h286v-285h-286zM109 0v285h286v-285h-286z" />
    <glyph glyph-name="semicolon" unicode=";" horiz-adv-x="555" 
d="M158 768v285h284v-285h-284zM23 -248l129 518h290l-192 -518h-227z" />
    <glyph glyph-name="less" unicode="&#x3c;" horiz-adv-x="1073" 
d="M907 -14l-786 444v176l788 434v-223l-575 -303l575 -305z" />
    <glyph glyph-name="equal" unicode="=" horiz-adv-x="1073" 
d="M96 698v207h881v-207h-881zM96 315v209h881v-209h-881z" />
    <glyph glyph-name="greater" unicode="&#x3e;" horiz-adv-x="1073" 
d="M166 -14l-2 223l575 305l-575 303v223l788 -434v-176z" />
    <glyph glyph-name="question" unicode="?" horiz-adv-x="1079" 
d="M414 432v88q0 44 19 88.5t49 81.5t66.5 73.5t73 72t66.5 70t49 73t19 76.5q0 85 -54 128.5t-157 43.5q-108 0 -164.5 -66.5t-56.5 -193.5h-275q0 217 134 342t366 125q221 0 349 -96.5t128 -262.5q0 -69 -36 -137t-87 -122t-102 -104.5t-87 -102t-36 -95.5v-82h-264z
M403 0v285h285v-285h-285z" />
    <glyph glyph-name="at" unicode="@" horiz-adv-x="1898" 
d="M1382 -246q-166 -78 -405 -78q-422 0 -666.5 219t-244.5 597q0 396 244.5 625t666.5 229q392 0 618 -204t226 -571q0 -143 -43.5 -254.5t-135.5 -180t-221 -68.5q-224 0 -284 180h-9q-42 -87 -129 -134.5t-198 -47.5q-124 0 -213.5 63.5t-89.5 177.5q0 301 585 326v24
q0 48 -37.5 75.5t-107.5 27.5q-170 0 -170 -113h-231q0 146 116 231t310 85q181 0 286 -79t105 -216l-2 -195q0 -227 114 -227q56 0 92 91t39 228q6 301 -151.5 449.5t-468.5 148.5q-338 0 -514 -171t-176 -500q0 -306 176 -467t514 -164q229 0 405 102v-209zM762 338
q0 -41 31.5 -63.5t89.5 -22.5q97 0 147.5 49t50.5 141v33q-155 0 -237 -35.5t-82 -101.5z" />
    <glyph glyph-name="A" unicode="A" horiz-adv-x="1396" 
d="M328 0h-318l135 352l379 1061h350l373 -1061l139 -352h-319l-100 301l-6 14h-529l-4 -14zM690 1149l-186 -602h379l-183 602h-10z" />
    <glyph glyph-name="B" unicode="B" horiz-adv-x="1312" 
d="M774 0h-633l6 352v709l-6 352h641q187 0 300.5 -92.5t113.5 -257.5q0 -125 -62 -207t-169 -102v-6q131 -25 204.5 -111t73.5 -225q0 -192 -124 -302t-345 -110zM424 1188l-2 -352h293q94 0 144 45t50 131t-49.5 131t-142.5 45h-293zM424 621v-396h307q108 0 164.5 52
t56.5 151q0 91 -57.5 142t-163.5 51h-307z" />
    <glyph glyph-name="C" unicode="C" horiz-adv-x="1406" 
d="M1358 522q-31 -252 -198 -397t-425 -145q-306 0 -482.5 196t-176.5 537q0 333 176.5 527t482.5 194q266 0 430 -137.5t181 -376.5h-293q-25 134 -106 205t-208 71q-181 0 -275.5 -124t-94.5 -361q0 -241 95 -367.5t277 -126.5q133 0 217 78.5t107 226.5h293z" />
    <glyph glyph-name="D" unicode="D" horiz-adv-x="1443" 
d="M647 0h-506l6 352v711l-6 350h506q330 0 527.5 -190.5t197.5 -511.5q0 -324 -197.5 -517.5t-527.5 -193.5zM432 1176v-938h213q204 0 318 127t114 344q0 216 -114 341.5t-316 125.5h-215z" />
    <glyph glyph-name="E" unicode="E" horiz-adv-x="1167" 
d="M1085 0h-944l6 352v711l-6 350h924v-237h-637v-324h608v-240h-608v-374h657v-238z" />
    <glyph glyph-name="F" unicode="F" horiz-adv-x="1107" 
d="M438 0h-297l6 352v711l-6 350h906v-237h-615v-365h569v-240h-569v-219z" />
    <glyph glyph-name="G" unicode="G" horiz-adv-x="1490" 
d="M1143 143q-56 -76 -165.5 -119.5t-236.5 -43.5q-299 0 -483 198.5t-184 532.5q0 331 184.5 527t501.5 196q252 0 420.5 -140.5t197.5 -371.5h-293q-20 128 -105.5 201t-219.5 73q-190 0 -291.5 -126t-101.5 -359q0 -238 105 -368t294 -130q153 0 253.5 79t113.5 222h-371
v217h631v-381l6 -350h-258l6 143h-4z" />
    <glyph glyph-name="H" unicode="H" horiz-adv-x="1423" 
d="M438 0h-297l6 352v709l-6 352h297l-6 -352v-215h561v215l-8 352h299l-8 -352v-709l8 -352h-299l8 352v254h-561v-254z" />
    <glyph glyph-name="I" unicode="I" horiz-adv-x="579" 
d="M438 0h-297l6 352v709l-6 352h297l-6 -352v-709z" />
    <glyph glyph-name="J" unicode="J" horiz-adv-x="589" 
d="M444 -72q0 -140 -89 -218.5t-249 -78.5q-78 0 -167 21v229q53 -20 90 -20q65 0 99 33t34 96v1069l-8 354h299l-9 -354v-1131z" />
    <glyph glyph-name="K" unicode="K" horiz-adv-x="1337" 
d="M434 0h-291l7 352l-3 709l-8 352h295l-8 -352v-275h8l230 275l278 352h369l-314 -350l-219 -258v-6l322 -447l270 -352h-383l-237 352l-172 248h-7l-145 -172v-76z" />
    <glyph glyph-name="L" unicode="L" horiz-adv-x="1048" 
d="M1018 0h-877l6 352v711l-6 350h297l-6 -350v-823h586v-240z" />
    <glyph glyph-name="M" unicode="M" horiz-adv-x="1794" 
d="M424 0h-283l6 352v711l-6 350h426l328 -985h8l326 985h424l-6 -350v-711l6 -352h-283l6 352l4 699h-6l-370 -1051h-213l-367 1051h-6v-699z" />
    <glyph glyph-name="N" unicode="N" horiz-adv-x="1490" 
d="M432 0h-291l6 352v709l-6 352h269l530 -762l119 -176h8v586l-8 352h293l-9 -352v-725l9 -336h-265l-544 764l-111 170h-8v-582z" />
    <glyph glyph-name="O" unicode="O" horiz-adv-x="1503" 
d="M1430 715q0 -161 -45 -295.5t-129.5 -232.5t-213.5 -152.5t-290 -54.5q-213 0 -368 95.5t-232.5 260.5t-77.5 381q0 207 77.5 367.5t232.5 255t368 94.5q214 0 369 -94.5t232 -255.5t77 -369zM367 711q0 -224 100 -359t285 -135q186 0 285.5 134.5t99.5 357.5
q0 139 -42.5 247.5t-131 174t-211.5 65.5t-211.5 -65t-131 -173.5t-42.5 -246.5z" />
    <glyph glyph-name="P" unicode="P" horiz-adv-x="1245" 
d="M438 0h-297l6 350v713l-6 350h539q239 0 377.5 -124t138.5 -339q0 -219 -147 -344t-390 -125h-227v-131zM432 1184v-473h215q119 0 187.5 59.5t68.5 177.5q0 116 -60 176t-175 60h-236z" />
    <glyph glyph-name="Q" unicode="Q" horiz-adv-x="1503" 
d="M897 -307h-297l8 164v135q-170 29 -291.5 129.5t-182 252.5t-60.5 343q0 207 77.5 367.5t232.5 255t368 94.5q214 0 369 -94.5t232 -255.5t77 -369q0 -192 -61 -344t-183.5 -252t-294.5 -129l-2 -133zM367 711q0 -224 100 -359t285 -135q186 0 285.5 134.5t99.5 357.5
q0 139 -42.5 247.5t-131 174t-211.5 65.5t-211.5 -65t-131 -173.5t-42.5 -246.5z" />
    <glyph glyph-name="R" unicode="R" horiz-adv-x="1316" 
d="M438 0h-297l6 352v711l-6 350h553q227 0 362.5 -121t135.5 -327q0 -127 -72 -233t-194 -159v-8l364 -565h-332l-296 508h-230v-156zM432 1184v-455h230q106 0 171.5 61.5t65.5 167.5q0 104 -64 165t-163 61h-240z" />
    <glyph glyph-name="S" unicode="S" horiz-adv-x="1306" 
d="M1243 420q0 -194 -158 -318.5t-415 -124.5q-294 0 -453.5 126.5t-159.5 377.5h293q0 -133 82.5 -203.5t243.5 -70.5q136 0 207 51.5t71 138.5q0 33 -15.5 58.5t-40.5 43t-70.5 33.5t-89.5 26.5t-113 23.5q-92 16 -164 37.5t-140 56.5t-113 81t-72 113.5t-27 151.5
q0 194 144.5 304t399.5 110q260 0 399.5 -119.5t147.5 -335.5h-293q-3 106 -72 166.5t-190 60.5q-119 0 -182.5 -44t-63.5 -128q0 -96 99 -144q65 -32 253 -68h1h1h1l1 -1h1h1h1h1l1 -1h1h1h1h1l1 -1h1h1h1h1h1l1 -1h1h1h1q23 -5 35 -7q215 -42 324.5 -133t109.5 -260z" />
    <glyph glyph-name="T" unicode="T" horiz-adv-x="1183" 
d="M745 0h-305l11 352v828h-422v235h1124v-235h-418v-828z" />
    <glyph glyph-name="U" unicode="U" horiz-adv-x="1411" 
d="M1278 559q0 -270 -151 -424.5t-414 -154.5q-269 0 -425.5 155t-156.5 424v502l-6 352h297l-6 -352v-494q0 -170 76 -260t219 -90q138 0 211 90t73 260v494l-8 352h299l-8 -352v-502z" />
    <glyph glyph-name="V" unicode="V" horiz-adv-x="1382" 
d="M862 0h-338l-377 1063l-139 350h340l103 -348l237 -782h8l240 778l98 352h336l-135 -352z" />
    <glyph glyph-name="W" unicode="W" horiz-adv-x="1953" 
d="M760 0h-318l-309 1061l-119 352h336l76 -352l182 -713h6l265 699l-115 366h291l110 -442l172 -623h9l182 713l76 352h333l-118 -352l-306 -1061h-327l-195 696h-6z" />
    <glyph glyph-name="X" unicode="X" horiz-adv-x="1341" 
d="M371 0h-357l224 352l219 357v6l-221 346l-230 352h356l197 -352l107 -166h8l106 166l199 352h358l-233 -352l-219 -346v-6l217 -357l227 -352h-358l-193 352l-104 174h-8l-103 -174z" />
    <glyph glyph-name="Y" unicode="Y" horiz-adv-x="1329" 
d="M817 0h-303l6 352v92l-313 619l-199 350h342l152 -350l160 -342h6l157 342l154 350h340l-199 -352l-311 -617v-92z" />
    <glyph glyph-name="Z" unicode="Z" horiz-adv-x="1191" 
d="M1128 0h-1085v205l702 962v9h-641v237h1014v-205l-696 -962v-8h706v-238z" />
    <glyph glyph-name="bracketleft" unicode="[" horiz-adv-x="641" 
d="M586 -248h-451l8 377v907l-8 377h451v-194h-197v-1272h197v-195z" />
    <glyph glyph-name="backslash" unicode="\" horiz-adv-x="909" 
d="M872 -20h-210l-623 1454h209z" />
    <glyph glyph-name="bracketright" unicode="]" horiz-adv-x="641" 
d="M55 -248v195h195v1272h-195v194h451l-8 -377v-907l8 -377h-451z" />
    <glyph glyph-name="asciicircum" unicode="^" horiz-adv-x="1073" 
d="M543 1434l346 -359v-141l-348 280l-357 -282l-2 141z" />
    <glyph glyph-name="underscore" unicode="_" horiz-adv-x="1153" 
d="M82 68h989v-189h-989v189z" />
    <glyph glyph-name="grave" unicode="`" 
d="M213 1413h326l180 -223h-213z" />
    <glyph glyph-name="a" unicode="a" horiz-adv-x="1142" 
d="M752 129q-47 -69 -139 -109t-218 -40q-148 0 -243 75t-95 211q0 78 37.5 140.5t100.5 103t152.5 68.5t184 41.5t205.5 17.5v74q0 80 -45 118.5t-141 38.5q-90 0 -137 -47.5t-47 -118.5h-273q0 118 63.5 203t167.5 125.5t236 40.5q217 0 331 -88t114 -252v-487
q0 -33 15.5 -49.5t41.5 -16.5q35 0 59 12v-186q-68 -24 -168 -24q-78 0 -132 38t-62 97v14h-8zM322 301q0 -56 38.5 -89.5t110.5 -33.5q120 0 192 66t72 180v57q-199 0 -306 -46.5t-107 -133.5z" />
    <glyph glyph-name="b" unicode="b" horiz-adv-x="1163" 
d="M1098 520q0 -251 -110.5 -395.5t-301.5 -144.5q-98 0 -173 36t-118 103h-6l6 -119h-282l8 352v709l-8 352h282l-6 -352v-129h6q105 139 295 139q191 0 299.5 -147.5t108.5 -403.5zM383 522q0 -166 54.5 -252t160.5 -86q109 0 167 89.5t58 258.5q0 161 -56.5 246.5
t-162.5 85.5q-108 0 -164.5 -88t-56.5 -254z" />
    <glyph glyph-name="c" unicode="c" horiz-adv-x="1101" 
d="M1057 387q-20 -189 -151 -298t-335 -109q-235 0 -371.5 143.5t-136.5 392.5q0 256 138 405.5t374 149.5q195 0 323 -108t153 -295h-273q-13 95 -65.5 145.5t-137.5 50.5q-117 0 -178 -88.5t-61 -257.5q0 -163 60.5 -248.5t174.5 -85.5q87 0 141.5 52t71.5 151h273z" />
    <glyph glyph-name="d" unicode="d" horiz-adv-x="1163" 
d="M768 106q-45 -59 -115.5 -92.5t-146.5 -33.5q-204 0 -322 144t-118 396q0 255 115.5 403t316.5 148q84 0 156.5 -36t113.5 -99h6v125l-8 352h285l-9 -352v-709l9 -352h-285l8 106h-6zM340 532q0 -169 57.5 -258.5t167.5 -89.5q105 0 160 86.5t55 251.5q0 167 -57 254.5
t-164 87.5t-163 -84.5t-56 -247.5z" />
    <glyph glyph-name="e" unicode="e" horiz-adv-x="1114" 
d="M1042 362q-22 -181 -148.5 -281.5t-332.5 -100.5q-235 0 -365 140.5t-130 393.5q0 264 131.5 411.5t367.5 147.5q222 0 350 -137.5t134 -380.5v-76h-709q-3 -145 54 -221t167 -76q168 0 209 180h272zM569 879q-97 0 -156 -62t-71 -176h438q-5 114 -59.5 176t-151.5 62z
" />
    <glyph glyph-name="f" unicode="f" horiz-adv-x="727" 
d="M473 0h-285l7 352v492h-158v205h158v88q0 137 91 217t249 80q83 0 172 -21v-188q-70 12 -117 12q-60 0 -92.5 -28.5t-32.5 -80.5v-79h242v-205h-242v-492z" />
    <glyph glyph-name="g" unicode="g" horiz-adv-x="1101" 
d="M1073 -35q0 -150 -139.5 -243t-386.5 -93q-237 0 -372.5 78.5t-135.5 212.5q0 86 51.5 150.5t165.5 91.5v8q-43 19 -65.5 55.5t-22.5 77.5t25 79.5t63 57.5v6q-76 28 -130 106.5t-54 180.5q0 143 122.5 240.5t317.5 97.5q103 0 201 -37q3 69 49.5 108.5t116.5 39.5
q94 0 172 -35v-182q-41 18 -86 18q-70 0 -70 -74q66 -88 66 -180q0 -150 -121 -248t-318 -98q-52 0 -92 6q-29 -9 -44 -28t-15 -42q0 -39 28.5 -55t108.5 -16h156q188 0 298.5 -77.5t110.5 -205.5zM305 727q0 -78 56 -121t155 -43q100 0 155.5 43t55.5 121t-55.5 121
t-155.5 43t-155.5 -43t-55.5 -121zM295 -57q0 -66 67.5 -102t194.5 -36q120 0 186 38.5t66 107.5q0 53 -56.5 84t-156.5 31h-78q-105 0 -164 -33t-59 -90z" />
    <glyph glyph-name="h" unicode="h" horiz-adv-x="1112" 
d="M395 0h-282l8 328v733l-8 352h274l-8 -352v-135h8q47 69 121 107t160 38q155 0 244 -101t89 -276v-370l9 -324h-285l8 326v321q0 105 -42 161t-116 56q-87 0 -136.5 -70.5t-49.5 -197.5v-270z" />
    <glyph glyph-name="i" unicode="i" horiz-adv-x="520" 
d="M403 1192h-286v221h286v-221zM403 0h-286l8 352v336l-8 361h286l-8 -361v-336z" />
    <glyph glyph-name="j" unicode="j" horiz-adv-x="526" 
d="M410 1184h-287v229h287v-229zM403 -45q0 -151 -84.5 -237.5t-230.5 -86.5q-39 0 -84 9v194q24 -4 33 -4q46 0 71 28.5t25 80.5v749l-8 361h285l-7 -361v-733z" />
    <glyph glyph-name="k" unicode="k" horiz-adv-x="1114" 
d="M399 0h-286l8 352v709l-8 352h286l-8 -352v-406h8l113 125l217 269h342l-252 -269l-125 -139l199 -289l252 -352h-348l-217 332l-82 123h-11l-96 -109v-24z" />
    <glyph glyph-name="l" unicode="l" horiz-adv-x="600" 
d="M584 6q-83 -26 -156 -26q-146 0 -230.5 83t-84.5 226v774l-7 348h285l-8 -348v-776q0 -52 25 -80.5t71 -28.5q49 0 105 21v-193z" />
    <glyph glyph-name="m" unicode="m" horiz-adv-x="1697" 
d="M397 0h-282l8 352v336l-8 361h272l-6 -125h8q47 71 118 109t155 38q187 0 288 -160h8q46 74 126.5 117t179.5 43q147 0 235 -101.5t88 -275.5v-342l6 -352h-282l8 352v295q0 104 -42.5 160.5t-115.5 56.5q-82 0 -128 -56t-46 -159v-297l8 -352h-282l8 352v295
q0 104 -43.5 160.5t-116.5 56.5q-82 0 -126 -55.5t-44 -159.5v-297z" />
    <glyph glyph-name="n" unicode="n" horiz-adv-x="1114" 
d="M397 0h-282l8 352v336l-8 361h272l-6 -125h8q99 147 281 147q155 0 244.5 -101t89.5 -276v-342l8 -352h-285l8 352v295q0 104 -45.5 160.5t-124.5 56.5q-84 0 -129 -56t-45 -161v-295z" />
    <glyph glyph-name="o" unicode="o" horiz-adv-x="1136" 
d="M1073 522q0 -253 -135.5 -397.5t-370.5 -144.5q-234 0 -369 144.5t-135 397.5t135.5 401t368.5 148q234 0 370 -148t136 -401zM336 524q0 -166 59 -253t172 -87q114 0 174 87t60 253q0 165 -60 252.5t-174 87.5q-112 0 -171.5 -87.5t-59.5 -252.5z" />
    <glyph glyph-name="p" unicode="p" horiz-adv-x="1163" 
d="M395 -369h-282l8 353v704l-8 361h282l-6 -117h6q105 139 301 139q187 0 294.5 -148t107.5 -403q0 -251 -110.5 -395.5t-301.5 -144.5q-197 0 -291 139h-6v-135zM383 522q0 -166 54.5 -252t160.5 -86q109 0 167 89.5t58 258.5q0 161 -56.5 246.5t-162.5 85.5
q-108 0 -164.5 -88t-56.5 -254z" />
    <glyph glyph-name="q" unicode="q" horiz-adv-x="1163" 
d="M1051 -369h-285l8 353v122h-6q-45 -59 -115.5 -92.5t-146.5 -33.5q-204 0 -322 144t-118 396q0 255 115.5 403t316.5 148q84 0 156.5 -36t113.5 -99h6l-8 113h285l-9 -361v-704zM340 532q0 -169 57.5 -258.5t167.5 -89.5q105 0 160 86.5t55 251.5q0 167 -57 254.5
t-164 87.5t-163 -84.5t-56 -247.5z" />
    <glyph glyph-name="r" unicode="r" horiz-adv-x="788" 
d="M397 0h-282l8 352v336l-8 361h272l-6 -187h8q98 209 281 209q54 0 92 -12l-2 -260q-54 12 -123 12q-119 0 -182.5 -95t-63.5 -231v-133z" />
    <glyph glyph-name="s" unicode="s" horiz-adv-x="1026" 
d="M971 309q0 -152 -121 -240.5t-332 -88.5q-217 0 -341 99t-124 269h254q0 -84 55 -130t154 -46q98 0 148.5 36t50.5 103q0 36 -27.5 60.5t-72.5 35.5t-102 22.5t-116.5 21t-116.5 32t-101.5 54t-71 88t-25.5 133.5q2 139 121.5 226t310.5 87q201 0 312.5 -94.5
t111.5 -261.5h-254q0 78 -46 120t-130 42q-80 0 -125 -32.5t-45 -92.5q0 -36 27 -60.5t71.5 -36t101.5 -23.5t116.5 -21.5t116.5 -32t101.5 -53t71.5 -86t27 -130.5z" />
    <glyph glyph-name="t" unicode="t" horiz-adv-x="763" 
d="M733 4q-111 -24 -241 -24q-159 0 -238.5 85.5t-79.5 251.5v525h-137v207h145l-8 235h281l-9 -235h287v-207h-287v-494q0 -79 30 -116t95 -37q81 0 162 24v-215z" />
    <glyph glyph-name="u" unicode="u" horiz-adv-x="1126" 
d="M733 115q-40 -67 -113 -102.5t-163 -35.5q-161 0 -253.5 105.5t-92.5 288.5v317l-9 361h289l-8 -361l-2 -270q1 -115 40 -174.5t111 -59.5q100 0 152 71.5t51 207.5l-2 225l-8 361h287l-8 -361v-336l8 -352h-277l8 115h-10z" />
    <glyph glyph-name="v" unicode="v" horiz-adv-x="1052" 
d="M662 0h-271l-239 688l-138 361h297l107 -361l104 -344h8l105 344l104 361h299l-137 -361z" />
    <glyph glyph-name="w" unicode="w" horiz-adv-x="1566" 
d="M621 0h-263l-221 688l-121 361h299l86 -361l103 -397h8l160 426l-97 332h275l82 -332l121 -420h6l104 391l90 361h301l-124 -361l-224 -688h-262l-139 444h-10z" />
    <glyph glyph-name="x" unicode="x" horiz-adv-x="1073" 
d="M319 0h-323l254 352l121 174v6l-111 156l-256 361h320l194 -316l23 -39h6l18 37l191 318h321l-268 -363l-113 -154v-4l125 -176l248 -352h-326l-184 326l-20 43h-7l-24 -43z" />
    <glyph glyph-name="y" unicode="y" horiz-adv-x="1077" 
d="M549 -369h-275l138 351l-256 706l-144 361h316l104 -361l107 -352h6l102 352l105 361h317l-145 -359z" />
    <glyph glyph-name="z" unicode="z" horiz-adv-x="915" 
d="M868 0h-823v172l471 684v6l-436 -8v195h758v-175l-465 -679v-7l495 7v-195z" />
    <glyph glyph-name="braceleft" unicode="{" horiz-adv-x="790" 
d="M508 180q0 -117 58.5 -178t170.5 -61v-207q-226 0 -349.5 80.5t-123.5 222.5v201q0 113 -68 183.5t-188 80.5v164q119 9 187.5 84t68.5 196v184q0 142 124 223t349 81v-205q-112 0 -170.5 -59t-58.5 -169v-118q0 -123 -57 -199t-166 -96v-6q109 -22 166 -94.5t57 -192.5
v-115z" />
    <glyph glyph-name="bar" unicode="|" horiz-adv-x="491" 
d="M141 -248v1698h209v-1698h-209z" />
    <glyph glyph-name="braceright" unicode="}" horiz-adv-x="790" 
d="M53 -266v207q113 0 171.5 61t58.5 178v115q0 120 57 192.5t166 94.5v6q-109 20 -166 96t-57 199v118q0 109 -59 168.5t-171 59.5v205q224 0 347.5 -81t123.5 -223v-184q0 -120 69 -195.5t189 -84.5v-164q-120 -11 -189 -81.5t-69 -182.5v-201q0 -142 -123.5 -222.5
t-347.5 -80.5z" />
    <glyph glyph-name="asciitilde" unicode="~" horiz-adv-x="1073" 
d="M276 416h-190q0 155 70.5 241t185.5 86q62 0 121.5 -20t97.5 -44.5t79.5 -44.5t70.5 -20q43 0 66.5 33t23.5 96h188q0 -156 -70.5 -241.5t-187.5 -85.5q-61 0 -120 20t-96 44.5t-78 44.5t-70 20q-91 0 -91 -129z" />
    <glyph glyph-name="exclamdown" unicode="&#xa1;" horiz-adv-x="538" 
d="M125 1044h285v-284h-285v284zM391 600l21 -969h-287l20 969h246z" />
    <glyph glyph-name="cent" unicode="&#xa2;" horiz-adv-x="1148" 
d="M350 707q0 -164 62.5 -251t179.5 -87q93 2 150.5 54t72.5 148h275q-17 -151 -116 -255.5t-253 -135.5l8 -180h-287l7 180q-172 34 -272.5 175t-100.5 350t100.5 351.5t272.5 180.5l-9 176h291l-10 -172q151 -25 248 -128.5t112 -258.5h-274q-15 95 -70.5 146t-144.5 51
q-117 0 -179.5 -88.5t-62.5 -255.5z" />
    <glyph glyph-name="sterling" unicode="&#xa3;" horiz-adv-x="1273" 
d="M66 0v190q118 10 163 68t45 197v155h-174v207h174v256q0 167 114.5 264t311.5 97q195 0 308.5 -98t113.5 -267h-250q0 78 -44.5 119t-127.5 41t-126.5 -42t-43.5 -120v-250h275v-207h-275v-155q0 -90 -18 -151t-66 -97h404q109 0 125 119h248q-6 -152 -92.5 -239
t-229.5 -87h-835z" />
    <glyph glyph-name="currency" unicode="&#xa4;" horiz-adv-x="1286" 
d="M1008 88l-146 160q-96 -41 -219 -41q-126 0 -219 41l-148 -160l-202 203l153 129q-55 98 -55 233q0 131 51 228l-151 131l198 200l148 -157q93 43 225 43q127 0 223 -41l146 153l202 -194l-153 -133q53 -95 53 -230t-55 -233l149 -129zM422 653q0 -115 57 -176t164 -61
q82 0 135 35l33 30q53 59 53 172q0 97 -41 156l-51 49q-54 31 -129 31q-107 0 -164 -60.5t-57 -175.5z" />
    <glyph glyph-name="yen" unicode="&#xa5;" horiz-adv-x="1329" 
d="M1159 471h-973v188h250l-389 754h299l318 -717h8l305 717h301l-377 -754h258v-188zM186 385h973v-186h-344l4 -199h-293l4 199h-344v186z" />
    <glyph glyph-name="brokenbar" unicode="&#xa6;" horiz-adv-x="491" 
d="M141 672v778h209v-778h-209zM141 -248v778h209v-778h-209z" />
    <glyph glyph-name="section" unicode="&#xa7;" horiz-adv-x="1097" 
d="M1006 309q0 -152 -122.5 -240.5t-334.5 -88.5q-217 0 -343 99t-126 269h254q0 -85 54 -130.5t155 -45.5t154 35.5t53 103.5q0 41 -35.5 66t-92 37t-124.5 22t-136 29t-124 50t-91 93t-34 150q3 103 61 176q-61 67 -61 186q1 146 116 230t308 84q203 0 320.5 -95
t117.5 -260h-256q0 78 -50 120t-145 42q-79 0 -121.5 -32.5t-42.5 -94.5q0 -34 22 -57t59.5 -36t86 -22t102 -18t107 -20.5t102 -33.5t86 -53t59.5 -82t22 -118q0 -107 -62 -185q62 -72 62 -180zM360 752q0 -30 15.5 -52t38.5 -35t62.5 -24t73.5 -16.5t85.5 -14.5t85.5 -16
q29 32 29 80q0 25 -10.5 44.5t-32 32.5t-46 22t-60 16t-67.5 12t-74.5 12t-74.5 14q-25 -31 -25 -75z" />
    <glyph glyph-name="dieresis" unicode="&#xa8;" 
d="M590 1210v203h254v-203h-254zM166 1210v203h254v-203h-254z" />
    <glyph glyph-name="copyright" unicode="&#xa9;" horiz-adv-x="1632" 
d="M74 715q0 152 58.5 289.5t157.5 237t236.5 158t288.5 58.5q152 0 289.5 -58.5t237 -158t158.5 -237t59 -289.5q0 -202 -99.5 -372.5t-270.5 -270t-374 -99.5q-202 0 -372.5 99.5t-269.5 270t-99 372.5zM182 715q0 -171 85.5 -318t231.5 -233t316 -86q128 0 245.5 51
t203 136.5t136 203.5t50.5 246q0 129 -50.5 247t-136 204t-203 137t-245.5 51q-127 0 -244.5 -51t-202.5 -137t-135.5 -204t-50.5 -247zM393 713q0 204 113.5 322t310.5 118q172 0 277 -82t114 -223h-182q-13 78 -68 119t-143 41q-113 0 -172 -76.5t-59 -222.5
q0 -140 59.5 -213.5t173.5 -73.5q97 0 151 45t58 131h191q-12 -149 -120 -236.5t-280 -87.5q-196 0 -310 118t-114 321z" />
    <glyph glyph-name="ordfeminine" unicode="&#xaa;" horiz-adv-x="788" 
d="M492 885q-35 -53 -95 -80t-131 -27q-97 0 -157 44t-60 130q0 59 31.5 103.5t89.5 72t132.5 42t168.5 16.5v26q0 35 -27.5 54.5t-78.5 19.5q-60 0 -88.5 -21.5t-28.5 -56.5h-170q0 109 82 167.5t215 58.5t208.5 -60t75.5 -166v-229q0 -45 29 -45q35 0 55 10v-133
q-81 -33 -145 -33q-45 0 -74.5 20.5t-29.5 53.5v33h-2zM236 975q0 -24 20 -37.5t53 -13.5q78 0 120 33t42 94v20q-120 0 -177.5 -23t-57.5 -73z" />
    <glyph glyph-name="guillemotletf" unicode="&#xab;" horiz-adv-x="1077" 
d="M324 522l215 -430h-271l-211 430l211 428h271zM793 522l221 -430h-273l-215 430l215 428h273z" />
    <glyph glyph-name="logicalnot" unicode="&#xac;" horiz-adv-x="1073" 
d="M727 698h-651v207h880v-538h-229v331z" />
    <glyph glyph-name="registered" unicode="&#xae;" horiz-adv-x="1273" 
d="M80 879q0 114 44 217t118 177.5t177 118.5t216 44q152 0 280 -74.5t202.5 -202.5t74.5 -280q0 -113 -44 -216t-118.5 -177t-177.5 -118t-217 -44q-113 0 -216 44t-177 118t-118 177t-44 216zM172 879q0 -136 67 -244t172.5 -163.5t225.5 -55.5q90 0 174 33t148.5 92
t103.5 147t39 191q0 137 -67 245t-173 163.5t-227 55.5q-120 0 -225 -55.5t-171.5 -163.5t-66.5 -245zM403 563l5 170v273l-5 188h234q126 0 191 -50t65 -145q0 -72 -30 -118t-95 -74v-2l154 -242h-146l-135 215h-104v-45l2 -170h-136zM537 887h88q59 0 91 26.5t32 75.5
q0 98 -123 98h-86z" />
    <glyph glyph-name="macron" unicode="&#xaf;" 
d="M170 1227v151h629v-151h-629z" />
    <glyph glyph-name="degree" unicode="&#xb0;" horiz-adv-x="747" 
d="M373 805q-129 0 -221.5 91t-92.5 222q0 129 93 222.5t221 93.5q132 0 223.5 -93t91.5 -223q0 -132 -91 -222.5t-224 -90.5zM373 942q74 0 126 53t52 123t-53 124t-125 54t-124 -54t-52 -124t52 -123t124 -53z" />
    <glyph glyph-name="plusminus" unicode="&#xb1;" horiz-adv-x="1073" 
d="M434 297l-2 334h-336v205h336v333h209v-333h336v-205h-336l2 -334h-209zM96 0v199h881v-199h-881z" />
    <glyph glyph-name="twosuperior" unicode="&#xb2;" horiz-adv-x="880" 
d="M299 1356h-197q0 137 95.5 216t261.5 79q127 0 208 -65t81 -173q0 -65 -29.5 -110t-118.5 -127q-157 -148 -229 -215h413v-156h-686v98q57 55 158 149.5t141 133.5q101 99 129.5 138t28.5 81q0 48 -32 72t-87 24q-66 0 -101.5 -37.5t-35.5 -107.5z" />
    <glyph glyph-name="threesuperior" unicode="&#xb3;" horiz-adv-x="880" 
d="M438 1651q148 0 233 -57t85 -154q0 -59 -49.5 -107t-133.5 -63v-6q97 -10 157.5 -69t60.5 -138q0 -123 -94.5 -193.5t-258.5 -70.5q-167 0 -263.5 71t-96.5 193h194q0 -115 160 -115q75 0 115.5 28.5t40.5 82.5q0 112 -201 112h-53v144h37q89 0 136.5 26.5t47.5 77.5
q0 88 -123 88q-124 0 -127 -110h-201q0 121 89.5 190.5t244.5 69.5z" />
    <glyph glyph-name="acute" unicode="&#xb4;" 
d="M864 1413l-293 -223h-213l181 223h325z" />
    <glyph glyph-name="paragraph" unicode="&#xb6;" horiz-adv-x="1388" 
d="M1008 -369l6 396v1003l-6 383h227l-6 -383v-1003l6 -396h-227zM629 -369l8 396v282q-284 9 -436 153t-152 400q0 253 150 396t430 155h229l-8 -383v-1003l8 -396h-229zM319 862q0 -185 71.5 -264t246.5 -82v514l-4 178q-175 -4 -244.5 -83t-69.5 -263z" />
    <glyph glyph-name="periodcentered" unicode="&#xb7;" horiz-adv-x="501" 
d="M109 504v282h284v-282h-284z" />
    <glyph glyph-name="cedilla" unicode="&#xb8;" 
d="M377 -369q-86 0 -141.5 36.5t-55.5 94.5h139q0 -20 15 -31.5t41 -11.5t41.5 16t15.5 42q0 25 -21.5 42t-56.5 17h-100l41 205h137l-24 -127q82 0 121.5 -39.5t39.5 -99.5q0 -65 -51 -104.5t-141 -39.5z" />
    <glyph glyph-name="onesuperior" unicode="&#xb9;" horiz-adv-x="880" 
d="M203 805v172h227l2 35v424q-22 -17 -109.5 -60.5t-123.5 -58.5v168q45 23 133.5 74.5t120.5 78.5h176l-4 -227v-434h196v-172h-618z" />
    <glyph glyph-name="ordmasculine" unicode="&#xba;" horiz-adv-x="772" 
d="M717 1104q0 -151 -89 -238.5t-243 -87.5q-152 0 -240 87.5t-88 238.5q0 154 88 242t240 88q154 0 243 -88t89 -242zM260 1108q0 -88 32 -134t93 -46q62 0 95.5 46.5t33.5 133.5q0 86 -33.5 132t-95.5 46q-61 0 -93 -45.5t-32 -132.5z" />
    <glyph glyph-name="guillemotright" unicode="&#xbb;" horiz-adv-x="1077" 
d="M754 522l-215 428h270l211 -428l-211 -430h-270zM285 522l-222 428h273l215 -428l-215 -430h-273z" />
    <glyph glyph-name="onequarter" unicode="&#xbc;" horiz-adv-x="2043" 
d="M203 594v172h227l2 35v424q-22 -17 -109.5 -60.5t-123.5 -58.5v168q45 23 133.5 74.5t120.5 78.5h176l-4 -227v-434h196v-172h-618zM479 0l1055 1415h172l-1053 -1415h-174zM1223 178l2 154l385 502h250l-5 -228v-278h123v-150h-123v-20l5 -158h-187l4 158v20h-454z
M1401 328h276v336z" />
    <glyph glyph-name="onehalf" unicode="&#xbd;" horiz-adv-x="2043" 
d="M203 594v172h227l2 35v424q-22 -17 -109.5 -60.5t-123.5 -58.5v168q45 23 133.5 74.5t120.5 78.5h176l-4 -227v-434h196v-172h-618zM477 0l1055 1415h172l-1053 -1415h-174zM1462 551h-196q0 137 95 216t261 79q127 0 208 -65t81 -173q0 -65 -29.5 -110t-118.5 -127
q-157 -148 -229 -215h414v-156h-686v98q57 55 158 149.5t141 133.5q100 99 128.5 138t28.5 81q0 48 -32 72t-87 24q-66 0 -101.5 -37.5t-35.5 -107.5z" />
    <glyph glyph-name="threequarters" unicode="&#xbe;" horiz-adv-x="2011" 
d="M438 1440q148 0 233 -57t85 -154q0 -59 -49.5 -107t-133.5 -63v-6q97 -10 157.5 -69t60.5 -138q0 -123 -94.5 -193.5t-258.5 -70.5q-167 0 -263.5 71t-96.5 193h194q0 -115 160 -115q75 0 115.5 28.5t40.5 82.5q0 112 -201 112h-53v144h37q89 0 136.5 26.5t47.5 77.5
q0 88 -123 88q-124 0 -127 -110h-201q0 121 89.5 190.5t244.5 69.5zM446 0l1055 1415h172l-1052 -1415h-175zM1190 178l2 154l385 502h250l-4 -228v-278h123v-150h-123v-20l4 -158h-187l5 158v20h-455zM1368 328h277v336z" />
    <glyph glyph-name="questiondown" unicode="&#xbf;" horiz-adv-x="1069" 
d="M672 1044v-284h-285v284h285zM662 612v-88q0 -60 -35.5 -120.5t-86 -110t-100.5 -97t-85.5 -101.5t-35.5 -105q0 -85 54 -128.5t157 -43.5q108 0 165 66.5t57 193.5h274q0 -217 -134 -342t-366 -125q-221 0 -349 96t-128 262q0 69 36 137t87 122t102 104.5t87 102
t36 95.5v82h265z" />
    <glyph glyph-name="Agrave" unicode="&#xc0;" horiz-adv-x="1396" 
d="M285 1698h340l200 -187h-217zM328 0h-318l135 352l379 1061h350l373 -1061l139 -352h-319l-100 301l-6 14h-529l-4 -14zM690 1149l-186 -602h379l-183 602h-10z" />
    <glyph glyph-name="Aacute" unicode="&#xc1;" horiz-adv-x="1396" 
d="M1104 1698l-324 -187h-217l201 187h340zM328 0h-318l135 352l379 1061h350l373 -1061l139 -352h-319l-100 301l-6 14h-529l-4 -14zM690 1149l-186 -602h379l-183 602h-10z" />
    <glyph glyph-name="Acircumflex" unicode="&#xc2;" horiz-adv-x="1396" 
d="M623 1511h-220l199 185h227l199 -185h-219l-94 78zM328 0h-318l135 352l379 1061h350l373 -1061l139 -352h-319l-100 301l-6 14h-529l-4 -14zM690 1149l-186 -602h379l-183 602h-10z" />
    <glyph glyph-name="Atilde" unicode="&#xc3;" horiz-adv-x="1396" 
d="M547 1513h-127q0 95 47 148t125 53q44 0 82.5 -16t69.5 -31.5t55 -15.5q30 0 47.5 18.5t17.5 48.5h127q0 -85 -49.5 -142.5t-122.5 -57.5q-47 0 -110 31.5t-97 31.5q-30 0 -47.5 -19t-17.5 -49zM328 0h-318l135 352l379 1061h350l373 -1061l139 -352h-319l-100 301l-6 14
h-529l-4 -14zM690 1149l-186 -602h379l-183 602h-10z" />
    <glyph glyph-name="Adieresis" unicode="&#xc4;" horiz-adv-x="1396" 
d="M782 1509v177h254v-177h-254zM358 1509v177h254v-177h-254zM328 0h-318l135 352l379 1061h350l373 -1061l139 -352h-319l-100 301l-6 14h-529l-4 -14zM690 1149l-186 -602h379l-183 602h-10z" />
    <glyph glyph-name="Aring" unicode="&#xc5;" horiz-adv-x="1396" 
d="M696 1460q-75 0 -123.5 46.5t-48.5 117.5t48.5 117.5t123.5 46.5t123.5 -46.5t48.5 -117.5t-48.5 -117.5t-123.5 -46.5zM696 1563q29 0 48.5 17.5t19.5 43.5q0 28 -19.5 46t-48.5 18t-47 -18t-18 -46q0 -27 18 -44t47 -17zM328 0h-318l135 352l379 1061h350l373 -1061
l139 -352h-319l-100 301l-6 14h-529l-4 -14zM690 1149l-186 -602h379l-183 602h-10z" />
    <glyph glyph-name="AE" unicode="&#xc6;" horiz-adv-x="1882" 
d="M291 0h-332l178 330l551 1083h1092v-237h-635v-324h606v-240h-606v-374h655v-238h-930l9 301v14h-435l-8 -14zM866 1184l-301 -635h314v635h-13z" />
    <glyph glyph-name="Ccedilla" unicode="&#xc7;" horiz-adv-x="1406" 
d="M748 -369q-86 0 -141.5 36.5t-55.5 94.5h139q0 -43 55 -43q26 0 42 16t16 42q0 25 -21.5 42t-56.5 17h-100l28 148q-270 26 -423.5 219t-153.5 510q0 333 176.5 527t482.5 194q266 0 430 -137.5t181 -376.5h-293q-25 134 -106 205t-208 71q-181 0 -275.5 -124t-94.5 -361
q0 -241 95 -367.5t277 -126.5q133 0 217 78.5t107 226.5h293q-29 -238 -180 -381.5t-387 -158.5l-13 -68q82 0 122 -39.5t40 -99.5q0 -65 -51 -104.5t-141 -39.5z" />
    <glyph glyph-name="Egrave" unicode="&#xc8;" horiz-adv-x="1167" 
d="M186 1698h340l201 -187h-217zM1085 0h-944l6 352v711l-6 350h924v-237h-637v-324h608v-240h-608v-374h657v-238z" />
    <glyph glyph-name="Eacute" unicode="&#xc9;" horiz-adv-x="1167" 
d="M1006 1698l-324 -187h-217l201 187h340zM1085 0h-944l6 352v711l-6 350h924v-237h-637v-324h608v-240h-608v-374h657v-238z" />
    <glyph glyph-name="Ecircumflex" unicode="&#xca;" horiz-adv-x="1167" 
d="M524 1511h-219l199 185h227l199 -185h-219l-95 78zM1085 0h-944l6 352v711l-6 350h924v-237h-637v-324h608v-240h-608v-374h657v-238z" />
    <glyph glyph-name="Edieresis" unicode="&#xcb;" horiz-adv-x="1167" 
d="M684 1509v177h254v-177h-254zM260 1509v177h254v-177h-254zM1085 0h-944l6 352v711l-6 350h924v-237h-637v-324h608v-240h-608v-374h657v-238z" />
    <glyph glyph-name="Igrave" unicode="&#xcc;" horiz-adv-x="579" 
d="M-123 1698h340l201 -187h-217zM438 0h-297l6 352v709l-6 352h297l-6 -352v-709z" />
    <glyph glyph-name="Iacute" unicode="&#xcd;" horiz-adv-x="579" 
d="M696 1698l-323 -187h-217l200 187h340zM438 0h-297l6 352v709l-6 352h297l-6 -352v-709z" />
    <glyph glyph-name="Icircumflex" unicode="&#xce;" horiz-adv-x="579" 
d="M215 1511h-219l199 185h227l199 -185h-220l-94 78zM438 0h-297l6 352v709l-6 352h297l-6 -352v-709z" />
    <glyph glyph-name="Idieresis" unicode="&#xcf;" horiz-adv-x="579" 
d="M375 1509v177h254v-177h-254zM-49 1509v177h254v-177h-254zM438 0h-297l6 352v709l-6 352h297l-6 -352v-709z" />
    <glyph glyph-name="Eth" unicode="&#xd0;" horiz-adv-x="1452" 
d="M655 0h-505l6 352v240h-107v227h107v244l-6 350h505q330 0 527.5 -190.5t197.5 -511.5q0 -324 -197.5 -517.5t-527.5 -193.5zM752 592h-312v-354h213q204 0 318 127t114 344q0 216 -114 341.5t-316 125.5h-215v-357h312v-227z" />
    <glyph glyph-name="Ntilde" unicode="&#xd1;" horiz-adv-x="1490" 
d="M596 1513h-127q0 95 47 148t125 53q44 0 82.5 -16t69.5 -31.5t55 -15.5q30 0 47.5 18.5t17.5 48.5h127q0 -85 -49.5 -142.5t-122.5 -57.5q-47 0 -109.5 31.5t-96.5 31.5q-30 0 -48 -19t-18 -49zM432 0h-291l6 352v709l-6 352h269l530 -762l119 -176h8v586l-8 352h293
l-9 -352v-725l9 -336h-265l-544 764l-111 170h-8v-582z" />
    <glyph glyph-name="Ograve" unicode="&#xd2;" horiz-adv-x="1503" 
d="M338 1698h340l201 -187h-217zM1430 715q0 -161 -45 -295.5t-129.5 -232.5t-213.5 -152.5t-290 -54.5q-213 0 -368 95.5t-232.5 260.5t-77.5 381q0 207 77.5 367.5t232.5 255t368 94.5q214 0 369 -94.5t232 -255.5t77 -369zM367 711q0 -224 100 -359t285 -135
q186 0 285.5 134.5t99.5 357.5q0 139 -42.5 247.5t-131 174t-211.5 65.5t-211.5 -65t-131 -173.5t-42.5 -246.5z" />
    <glyph glyph-name="Oacute" unicode="&#xd3;" horiz-adv-x="1503" 
d="M1159 1698l-323 -187h-218l201 187h340zM1430 715q0 -161 -45 -295.5t-129.5 -232.5t-213.5 -152.5t-290 -54.5q-213 0 -368 95.5t-232.5 260.5t-77.5 381q0 207 77.5 367.5t232.5 255t368 94.5q214 0 369 -94.5t232 -255.5t77 -369zM367 711q0 -224 100 -359t285 -135
q186 0 285.5 134.5t99.5 357.5q0 139 -42.5 247.5t-131 174t-211.5 65.5t-211.5 -65t-131 -173.5t-42.5 -246.5z" />
    <glyph glyph-name="Ocircumflex" unicode="&#xd4;" horiz-adv-x="1503" 
d="M676 1511h-219l198 185h228l198 -185h-219l-94 78zM1430 715q0 -161 -45 -295.5t-129.5 -232.5t-213.5 -152.5t-290 -54.5q-213 0 -368 95.5t-232.5 260.5t-77.5 381q0 207 77.5 367.5t232.5 255t368 94.5q214 0 369 -94.5t232 -255.5t77 -369zM367 711q0 -224 100 -359
t285 -135q186 0 285.5 134.5t99.5 357.5q0 139 -42.5 247.5t-131 174t-211.5 65.5t-211.5 -65t-131 -173.5t-42.5 -246.5z" />
    <glyph glyph-name="Otilde" unicode="&#xd5;" horiz-adv-x="1503" 
d="M602 1513h-127q0 95 47 148t125 53q44 0 82.5 -16t69.5 -31.5t55 -15.5q30 0 48 18.5t18 48.5h127q0 -85 -50 -142.5t-123 -57.5q-47 0 -109.5 31.5t-96.5 31.5q-30 0 -48 -19t-18 -49zM1430 715q0 -161 -45 -295.5t-129.5 -232.5t-213.5 -152.5t-290 -54.5
q-213 0 -368 95.5t-232.5 260.5t-77.5 381q0 207 77.5 367.5t232.5 255t368 94.5q214 0 369 -94.5t232 -255.5t77 -369zM367 711q0 -224 100 -359t285 -135q186 0 285.5 134.5t99.5 357.5q0 139 -42.5 247.5t-131 174t-211.5 65.5t-211.5 -65t-131 -173.5t-42.5 -246.5z" />
    <glyph glyph-name="Odieresis" unicode="&#xd6;" horiz-adv-x="1503" 
d="M838 1509v177h254v-177h-254zM414 1509v177h254v-177h-254zM1430 715q0 -161 -45 -295.5t-129.5 -232.5t-213.5 -152.5t-290 -54.5q-213 0 -368 95.5t-232.5 260.5t-77.5 381q0 207 77.5 367.5t232.5 255t368 94.5q214 0 369 -94.5t232 -255.5t77 -369zM367 711
q0 -224 100 -359t285 -135q186 0 285.5 134.5t99.5 357.5q0 139 -42.5 247.5t-131 174t-211.5 65.5t-211.5 -65t-131 -173.5t-42.5 -246.5z" />
    <glyph glyph-name="multiply" unicode="&#xd7;" horiz-adv-x="1073" 
d="M299 231l-145 146l235 235l-237 240l145 145l240 -235l237 239l146 -147l-238 -242l240 -235l-148 -146l-237 236z" />
    <glyph glyph-name="Oslash" unicode="&#xd8;" horiz-adv-x="1583" 
d="M1475 715q0 -161 -45 -295.5t-129.5 -232.5t-213.5 -152.5t-290 -54.5q-267 0 -441 147l-143 -154h-231l264 279q-127 189 -127 465q0 207 77.5 367.5t232.5 255t368 94.5q257 0 434 -140l129 138h225l-242 -258q132 -186 132 -459zM412 711q0 -141 39 -242l596 631
q-99 96 -250 96q-123 0 -211.5 -65t-131 -173.5t-42.5 -246.5zM1182 709q0 140 -43 247l-600 -637q97 -102 258 -102q186 0 285.5 134.5t99.5 357.5z" />
    <glyph glyph-name="Ugrave" unicode="&#xd9;" horiz-adv-x="1411" 
d="M293 1698h340l201 -187h-218zM1278 559q0 -270 -151 -424.5t-414 -154.5q-269 0 -425.5 155t-156.5 424v502l-6 352h297l-6 -352v-494q0 -170 76 -260t219 -90q138 0 211 90t73 260v494l-8 352h299l-8 -352v-502z" />
    <glyph glyph-name="Uacute" unicode="&#xda;" horiz-adv-x="1411" 
d="M1114 1698l-323 -187h-218l201 187h340zM1278 559q0 -270 -151 -424.5t-414 -154.5q-269 0 -425.5 155t-156.5 424v502l-6 352h297l-6 -352v-494q0 -170 76 -260t219 -90q138 0 211 90t73 260v494l-8 352h299l-8 -352v-502z" />
    <glyph glyph-name="Ucircumflex" unicode="&#xdb;" horiz-adv-x="1411" 
d="M631 1511h-219l198 185h228l198 -185h-219l-94 78zM1278 559q0 -270 -151 -424.5t-414 -154.5q-269 0 -425.5 155t-156.5 424v502l-6 352h297l-6 -352v-494q0 -170 76 -260t219 -90q138 0 211 90t73 260v494l-8 352h299l-8 -352v-502z" />
    <glyph glyph-name="Udieresis" unicode="&#xdc;" horiz-adv-x="1411" 
d="M793 1509v177h254v-177h-254zM369 1509v177h254v-177h-254zM1278 559q0 -270 -151 -424.5t-414 -154.5q-269 0 -425.5 155t-156.5 424v502l-6 352h297l-6 -352v-494q0 -170 76 -260t219 -90q138 0 211 90t73 260v494l-8 352h299l-8 -352v-502z" />
    <glyph glyph-name="Yacute" unicode="&#xdd;" horiz-adv-x="1329" 
d="M1063 1698l-324 -187h-217l201 187h340zM817 0h-303l6 352v92l-313 619l-199 350h342l152 -350l160 -342h6l157 342l154 350h340l-199 -352l-311 -617v-92z" />
    <glyph glyph-name="Thorn" unicode="&#xde;" horiz-adv-x="1259" 
d="M438 0h-297l6 309v795l-6 309h297l-6 -272h287q221 0 349 -115.5t128 -316.5t-133 -318t-363 -117h-268zM432 911v-407h264q101 0 154 52.5t53 152.5q0 98 -49.5 150t-144.5 52h-277z" />
    <glyph glyph-name="germandbls" unicode="&#xdf;" horiz-adv-x="1312" 
d="M471 0h-283l7 352v492h-158v205h158v49q0 158 138.5 247t371.5 89q224 0 361.5 -96t137.5 -269q0 -125 -71.5 -205t-210.5 -106v-6q161 -21 247 -122t86 -237q0 -178 -140.5 -285.5t-358.5 -107.5h-160v207q188 -12 286.5 44t98.5 177q0 99 -68 154t-194 55h-98v205
q151 0 230 52t79 153q0 89 -61 135.5t-177 46.5q-110 0 -168.5 -52.5t-58.5 -152.5v-672z" />
    <glyph glyph-name="agrave" unicode="&#xe0;" horiz-adv-x="1142" 
d="M221 1413h326l180 -223h-213zM752 129q-47 -69 -139 -109t-218 -40q-148 0 -243 75t-95 211q0 78 37.5 140.5t100.5 103t152.5 68.5t184 41.5t205.5 17.5v74q0 80 -45 118.5t-141 38.5q-90 0 -137 -47.5t-47 -118.5h-273q0 118 63.5 203t167.5 125.5t236 40.5
q217 0 331 -88t114 -252v-487q0 -33 15.5 -49.5t41.5 -16.5q35 0 59 12v-186q-68 -24 -168 -24q-78 0 -132 38t-62 97v14h-8zM322 301q0 -56 38.5 -89.5t110.5 -33.5q120 0 192 66t72 180v57q-199 0 -306 -46.5t-107 -133.5z" />
    <glyph glyph-name="aacute" unicode="&#xe1;" horiz-adv-x="1142" 
d="M940 1413l-293 -223h-213l180 223h326zM752 129q-47 -69 -139 -109t-218 -40q-148 0 -243 75t-95 211q0 78 37.5 140.5t100.5 103t152.5 68.5t184 41.5t205.5 17.5v74q0 80 -45 118.5t-141 38.5q-90 0 -137 -47.5t-47 -118.5h-273q0 118 63.5 203t167.5 125.5t236 40.5
q217 0 331 -88t114 -252v-487q0 -33 15.5 -49.5t41.5 -16.5q35 0 59 12v-186q-68 -24 -168 -24q-78 0 -132 38t-62 97v14h-8zM322 301q0 -56 38.5 -89.5t110.5 -33.5q120 0 192 66t72 180v57q-199 0 -306 -46.5t-107 -133.5z" />
    <glyph glyph-name="acircumflex" unicode="&#xe2;" horiz-adv-x="1142" 
d="M453 1190h-197l199 223h217l198 -223h-196l-111 121zM752 129q-47 -69 -139 -109t-218 -40q-148 0 -243 75t-95 211q0 78 37.5 140.5t100.5 103t152.5 68.5t184 41.5t205.5 17.5v74q0 80 -45 118.5t-141 38.5q-90 0 -137 -47.5t-47 -118.5h-273q0 118 63.5 203
t167.5 125.5t236 40.5q217 0 331 -88t114 -252v-487q0 -33 15.5 -49.5t41.5 -16.5q35 0 59 12v-186q-68 -24 -168 -24q-78 0 -132 38t-62 97v14h-8zM322 301q0 -56 38.5 -89.5t110.5 -33.5q120 0 192 66t72 180v57q-199 0 -306 -46.5t-107 -133.5z" />
    <glyph glyph-name="atilde" unicode="&#xe3;" horiz-adv-x="1142" 
d="M375 1182h-119q0 260 193 260q41 0 77 -16.5t57 -36t47.5 -36t51.5 -16.5q84 0 84 109h119q0 -260 -185 -260q-35 0 -64 10.5t-49 26t-39 31t-41.5 26t-47.5 10.5q-84 0 -84 -108zM752 129q-47 -69 -139 -109t-218 -40q-148 0 -243 75t-95 211q0 78 37.5 140.5t100.5 103
t152.5 68.5t184 41.5t205.5 17.5v74q0 80 -45 118.5t-141 38.5q-90 0 -137 -47.5t-47 -118.5h-273q0 118 63.5 203t167.5 125.5t236 40.5q217 0 331 -88t114 -252v-487q0 -33 15.5 -49.5t41.5 -16.5q35 0 59 12v-186q-68 -24 -168 -24q-78 0 -132 38t-62 97v14h-8zM322 301
q0 -56 38.5 -89.5t110.5 -33.5q120 0 192 66t72 180v57q-199 0 -306 -46.5t-107 -133.5z" />
    <glyph glyph-name="adieresis" unicode="&#xe4;" horiz-adv-x="1142" 
d="M647 1210v203h254v-203h-254zM223 1210v203h254v-203h-254zM752 129q-47 -69 -139 -109t-218 -40q-148 0 -243 75t-95 211q0 78 37.5 140.5t100.5 103t152.5 68.5t184 41.5t205.5 17.5v74q0 80 -45 118.5t-141 38.5q-90 0 -137 -47.5t-47 -118.5h-273q0 118 63.5 203
t167.5 125.5t236 40.5q217 0 331 -88t114 -252v-487q0 -33 15.5 -49.5t41.5 -16.5q35 0 59 12v-186q-68 -24 -168 -24q-78 0 -132 38t-62 97v14h-8zM322 301q0 -56 38.5 -89.5t110.5 -33.5q120 0 192 66t72 180v57q-199 0 -306 -46.5t-107 -133.5z" />
    <glyph glyph-name="aring" unicode="&#xe5;" horiz-adv-x="1142" 
d="M561 1126q-70 0 -122 51.5t-52 120.5q0 70 51.5 121t122.5 51q69 0 120.5 -51t51.5 -121q0 -69 -51.5 -120.5t-120.5 -51.5zM561 1229q26 0 46 20.5t20 48.5q0 29 -20 50.5t-46 21.5q-28 0 -47.5 -21.5t-19.5 -50.5q0 -28 19.5 -48.5t47.5 -20.5zM752 129
q-47 -69 -139 -109t-218 -40q-148 0 -243 75t-95 211q0 78 37.5 140.5t100.5 103t152.5 68.5t184 41.5t205.5 17.5v74q0 80 -45 118.5t-141 38.5q-90 0 -137 -47.5t-47 -118.5h-273q0 118 63.5 203t167.5 125.5t236 40.5q217 0 331 -88t114 -252v-487q0 -33 15.5 -49.5
t41.5 -16.5q35 0 59 12v-186q-68 -24 -168 -24q-78 0 -132 38t-62 97v14h-8zM322 301q0 -56 38.5 -89.5t110.5 -33.5q120 0 192 66t72 180v57q-199 0 -306 -46.5t-107 -133.5z" />
    <glyph glyph-name="ae" unicode="&#xe6;" horiz-adv-x="1785" 
d="M815 190q-52 -102 -165.5 -156t-254.5 -54q-148 0 -243 75t-95 211q0 83 37.5 149.5t100.5 110t152 73.5t184.5 44.5t205.5 18.5v49q0 76 -48 116.5t-138 40.5q-89 0 -136.5 -43t-47.5 -123h-273q0 118 63.5 203t167.5 125.5t236 40.5q230 0 330 -139h6
q58 70 147.5 105.5t192.5 35.5q222 0 351.5 -138t129.5 -380v-76h-706q-4 -145 53 -221t170 -76q81 0 134.5 46t72.5 134h270q-22 -182 -148 -282t-333 -100q-294 0 -404 213zM1241 879q-97 0 -156 -62t-73 -176h440q-6 114 -61 176t-150 62zM322 305q0 -58 38.5 -92.5
t110.5 -34.5q117 0 190.5 77t73.5 194v57q-197 0 -305 -53.5t-108 -147.5z" />
    <glyph glyph-name="ccedilla" unicode="&#xe7;" horiz-adv-x="1101" 
d="M571 -369q-85 0 -140.5 36.5t-55.5 94.5h139q0 -43 55 -43q26 0 42 16t16 42q0 25 -21.5 42t-56.5 17h-100l30 150q-195 28 -305.5 168t-110.5 362q0 256 138 405.5t374 149.5q195 0 323 -108t153 -295h-273q-13 95 -65.5 145.5t-137.5 50.5q-117 0 -178 -88.5
t-61 -257.5q0 -163 60.5 -248.5t174.5 -85.5q87 0 141.5 52t71.5 151h273q-19 -178 -137 -286t-306 -119l-12 -68q82 0 122 -39.5t40 -99.5q0 -64 -51.5 -104t-141.5 -40z" />
    <glyph glyph-name="egrave" unicode="&#xe8;" horiz-adv-x="1114" 
d="M223 1413h326l180 -223h-213zM1042 362q-22 -181 -148.5 -281.5t-332.5 -100.5q-235 0 -365 140.5t-130 393.5q0 264 131.5 411.5t367.5 147.5q222 0 350 -137.5t134 -380.5v-76h-709q-3 -145 54 -221t167 -76q168 0 209 180h272zM569 879q-97 0 -156 -62t-71 -176h438
q-5 114 -59.5 176t-151.5 62z" />
    <glyph glyph-name="eacute" unicode="&#xe9;" horiz-adv-x="1114" 
d="M940 1413l-293 -223h-213l180 223h326zM1042 362q-22 -181 -148.5 -281.5t-332.5 -100.5q-235 0 -365 140.5t-130 393.5q0 264 131.5 411.5t367.5 147.5q222 0 350 -137.5t134 -380.5v-76h-709q-3 -145 54 -221t167 -76q168 0 209 180h272zM569 879q-97 0 -156 -62
t-71 -176h438q-5 114 -59.5 176t-151.5 62z" />
    <glyph glyph-name="ecircumflex" unicode="&#xea;" horiz-adv-x="1114" 
d="M453 1190h-197l199 223h217l198 -223h-196l-111 121zM1042 362q-22 -181 -148.5 -281.5t-332.5 -100.5q-235 0 -365 140.5t-130 393.5q0 264 131.5 411.5t367.5 147.5q222 0 350 -137.5t134 -380.5v-76h-709q-3 -145 54 -221t167 -76q168 0 209 180h272zM569 879
q-97 0 -156 -62t-71 -176h438q-5 114 -59.5 176t-151.5 62z" />
    <glyph glyph-name="edieresis" unicode="&#xeb;" horiz-adv-x="1114" 
d="M649 1210v203h254v-203h-254zM225 1210v203h254v-203h-254zM1042 362q-22 -181 -148.5 -281.5t-332.5 -100.5q-235 0 -365 140.5t-130 393.5q0 264 131.5 411.5t367.5 147.5q222 0 350 -137.5t134 -380.5v-76h-709q-3 -145 54 -221t167 -76q168 0 209 180h272zM569 879
q-97 0 -156 -62t-71 -176h438q-5 114 -59.5 176t-151.5 62z" />
    <glyph glyph-name="igrave" unicode="&#xec;" horiz-adv-x="520" 
d="M-98 1413h325l181 -223h-213zM403 0h-286l8 352v320l-8 377h286l-8 -377v-320z" />
    <glyph glyph-name="iacute" unicode="&#xed;" horiz-adv-x="520" 
d="M639 1413l-293 -223h-213l180 223h326zM403 0h-286l8 352v320l-8 377h286l-8 -377v-320z" />
    <glyph glyph-name="icircumflex" unicode="&#xee;" horiz-adv-x="520" 
d="M152 1190h-197l199 223h217l198 -223h-196l-111 121zM403 0h-286l8 352v320l-8 377h286l-8 -377v-320z" />
    <glyph glyph-name="idieresis" unicode="&#xef;" horiz-adv-x="520" 
d="M346 1210v203h254v-203h-254zM-78 1210v203h254v-203h-254zM403 0h-286l8 352v320l-8 377h286l-8 -377v-320z" />
    <glyph glyph-name="eth" unicode="&#xf0;" horiz-adv-x="1148" 
d="M1071 588q0 -284 -135 -446t-369 -162t-369 145.5t-135 398.5t134 400t364 147q102 0 176 -53h8q-16 56 -43 133h-313v174h236q-15 31 -50 90h283q29 -65 39 -90h188v-174h-122q108 -313 108 -563zM336 528q0 -167 59.5 -255.5t171.5 -88.5q113 0 172.5 88.5t59.5 255.5
q0 164 -59.5 250t-172.5 86t-172 -86t-59 -250z" />
    <glyph glyph-name="ntilde" unicode="&#xf1;" horiz-adv-x="1114" 
d="M373 1182h-119q0 260 192 260q41 0 77.5 -16.5t57.5 -36t47.5 -36t51.5 -16.5q84 0 84 109h119q0 -260 -185 -260q-35 0 -64 10.5t-49 26t-39 31t-41.5 26t-47.5 10.5q-84 0 -84 -108zM397 0h-282l8 352v336l-8 361h272l-6 -125h8q99 147 281 147q155 0 244.5 -101
t89.5 -276v-342l8 -352h-285l8 352v295q0 104 -45.5 160.5t-124.5 56.5q-84 0 -129 -56t-45 -161v-295z" />
    <glyph glyph-name="ograve" unicode="&#xf2;" horiz-adv-x="1136" 
d="M229 1413h326l180 -223h-213zM1073 522q0 -253 -135.5 -397.5t-370.5 -144.5q-234 0 -369 144.5t-135 397.5t135.5 401t368.5 148q234 0 370 -148t136 -401zM336 524q0 -166 59 -253t172 -87q114 0 174 87t60 253q0 165 -60 252.5t-174 87.5q-112 0 -171.5 -87.5
t-59.5 -252.5z" />
    <glyph glyph-name="oacute" unicode="&#xf3;" horiz-adv-x="1136" 
d="M948 1413l-293 -223h-213l181 223h325zM1073 522q0 -253 -135.5 -397.5t-370.5 -144.5q-234 0 -369 144.5t-135 397.5t135.5 401t368.5 148q234 0 370 -148t136 -401zM336 524q0 -166 59 -253t172 -87q114 0 174 87t60 253q0 165 -60 252.5t-174 87.5
q-112 0 -171.5 -87.5t-59.5 -252.5z" />
    <glyph glyph-name="ocircumflex" unicode="&#xf4;" horiz-adv-x="1136" 
d="M461 1190h-197l199 223h217l199 -223h-197l-111 121zM1073 522q0 -253 -135.5 -397.5t-370.5 -144.5q-234 0 -369 144.5t-135 397.5t135.5 401t368.5 148q234 0 370 -148t136 -401zM336 524q0 -166 59 -253t172 -87q114 0 174 87t60 253q0 165 -60 252.5t-174 87.5
q-112 0 -171.5 -87.5t-59.5 -252.5z" />
    <glyph glyph-name="otilde" unicode="&#xf5;" horiz-adv-x="1136" 
d="M383 1182h-119q0 260 193 260q41 0 77 -16.5t57 -36t47.5 -36t51.5 -16.5q84 0 84 109h119q0 -260 -184 -260q-42 0 -77.5 16t-56 36t-49.5 36t-59 16q-84 0 -84 -108zM1073 522q0 -253 -135.5 -397.5t-370.5 -144.5q-234 0 -369 144.5t-135 397.5t135.5 401t368.5 148
q234 0 370 -148t136 -401zM336 524q0 -166 59 -253t172 -87q114 0 174 87t60 253q0 165 -60 252.5t-174 87.5q-112 0 -171.5 -87.5t-59.5 -252.5z" />
    <glyph glyph-name="odieresis" unicode="&#xf6;" horiz-adv-x="1136" 
d="M655 1210v203h254v-203h-254zM231 1210v203h254v-203h-254zM1073 522q0 -253 -135.5 -397.5t-370.5 -144.5q-234 0 -369 144.5t-135 397.5t135.5 401t368.5 148q234 0 370 -148t136 -401zM336 524q0 -166 59 -253t172 -87q114 0 174 87t60 253q0 165 -60 252.5t-174 87.5
q-112 0 -171.5 -87.5t-59.5 -252.5z" />
    <glyph glyph-name="divide" unicode="&#xf7;" horiz-adv-x="1073" 
d="M416 799v250h241v-250h-241zM55 463v207h963v-207h-963zM416 80v250h241v-250h-241z" />
    <glyph glyph-name="oslash" unicode="&#xf8;" horiz-adv-x="1179" 
d="M1098 522q0 -253 -135.5 -397.5t-370.5 -144.5q-173 0 -295 81l-51 -61h-211l147 174q-94 139 -94 348q0 253 135.5 401t368.5 148q164 0 285 -76l45 54h211l-140 -164q105 -142 105 -363zM360 524q0 -56 11 -127l356 422q-54 45 -135 45q-112 0 -172 -88t-60 -252z
M825 524q0 87 -14 144l-362 -428q56 -56 143 -56q114 0 173.5 87t59.5 253z" />
    <glyph glyph-name="ugrave" unicode="&#xf9;" horiz-adv-x="1126" 
d="M221 1413h326l180 -223h-213zM733 115q-40 -67 -113 -102.5t-163 -35.5q-161 0 -253.5 105.5t-92.5 288.5v317l-9 361h289l-8 -361l-2 -270q1 -115 40 -174.5t111 -59.5q100 0 152 71.5t51 207.5l-2 225l-8 361h287l-8 -361v-336l8 -352h-277l8 115h-10z" />
    <glyph glyph-name="uacute" unicode="&#xfa;" horiz-adv-x="1126" 
d="M940 1413l-293 -223h-213l180 223h326zM733 115q-40 -67 -113 -102.5t-163 -35.5q-161 0 -253.5 105.5t-92.5 288.5v317l-9 361h289l-8 -361l-2 -270q1 -115 40 -174.5t111 -59.5q100 0 152 71.5t51 207.5l-2 225l-8 361h287l-8 -361v-336l8 -352h-277l8 115h-10z" />
    <glyph glyph-name="ucircumflex" unicode="&#xfb;" horiz-adv-x="1126" 
d="M451 1190h-197l199 223h217l198 -223h-196l-111 121zM733 115q-40 -67 -113 -102.5t-163 -35.5q-161 0 -253.5 105.5t-92.5 288.5v317l-9 361h289l-8 -361l-2 -270q1 -115 40 -174.5t111 -59.5q100 0 152 71.5t51 207.5l-2 225l-8 361h287l-8 -361v-336l8 -352h-277
l8 115h-10z" />
    <glyph glyph-name="udieresis" unicode="&#xfc;" horiz-adv-x="1126" 
d="M647 1210v203h254v-203h-254zM223 1210v203h254v-203h-254zM733 115q-40 -67 -113 -102.5t-163 -35.5q-161 0 -253.5 105.5t-92.5 288.5v317l-9 361h289l-8 -361l-2 -270q1 -115 40 -174.5t111 -59.5q100 0 152 71.5t51 207.5l-2 225l-8 361h287l-8 -361v-336l8 -352
h-277l8 115h-10z" />
    <glyph glyph-name="yacute" unicode="&#xfd;" horiz-adv-x="1077" 
d="M920 1413l-293 -223h-213l180 223h326zM549 -369h-275l138 351l-256 706l-144 361h316l104 -361l107 -352h6l102 352l105 361h317l-145 -359z" />
    <glyph glyph-name="thorn" unicode="&#xfe;" horiz-adv-x="1163" 
d="M395 -369h-282l8 353v1077l-8 352h282l-6 -352v-131h6q106 141 310 141q182 0 287.5 -148t105.5 -403q0 -251 -110.5 -395.5t-301.5 -144.5q-199 0 -291 139h-6v-133zM383 522q0 -166 54.5 -252t160.5 -86q109 0 167 89.5t58 258.5q0 161 -56.5 246.5t-162.5 85.5
q-108 0 -164.5 -88t-56.5 -254z" />
    <glyph glyph-name="ydieresis" unicode="&#xff;" horiz-adv-x="1077" 
d="M627 1210v203h254v-203h-254zM203 1210v203h254v-203h-254zM549 -369h-275l138 351l-256 706l-144 361h316l104 -361l107 -352h6l102 352l105 361h317l-145 -359z" />
    <glyph glyph-name="Amacron" unicode="&#x100;" horiz-adv-x="1396" 
d="M381 1530v139h629v-139h-629zM328 0h-318l135 352l379 1061h350l373 -1061l139 -352h-319l-100 301l-6 14h-529l-4 -14zM690 1149l-186 -602h379l-183 602h-10z" />
    <glyph glyph-name="amacron" unicode="&#x101;" horiz-adv-x="1142" 
d="M246 1221v151h628v-151h-628zM752 129q-47 -69 -139 -109t-218 -40q-148 0 -243 75t-95 211q0 78 37.5 140.5t100.5 103t152.5 68.5t184 41.5t205.5 17.5v74q0 80 -45 118.5t-141 38.5q-90 0 -137 -47.5t-47 -118.5h-273q0 118 63.5 203t167.5 125.5t236 40.5
q217 0 331 -88t114 -252v-487q0 -33 15.5 -49.5t41.5 -16.5q35 0 59 12v-186q-68 -24 -168 -24q-78 0 -132 38t-62 97v14h-8zM322 301q0 -56 38.5 -89.5t110.5 -33.5q120 0 192 66t72 180v57q-199 0 -306 -46.5t-107 -133.5z" />
    <glyph glyph-name="Abreve" unicode="&#x102;" horiz-adv-x="1396" 
d="M440 1696h158q6 -68 100 -68q96 0 99 68h155q0 -83 -66.5 -131.5t-187.5 -48.5q-122 0 -189 48.5t-69 131.5zM328 0h-318l135 352l379 1061h350l373 -1061l139 -352h-319l-100 301l-6 14h-529l-4 -14zM690 1149l-186 -602h379l-183 602h-10z" />
    <glyph glyph-name="abreve" unicode="&#x103;" horiz-adv-x="1142" 
d="M266 1413h170q3 -46 36 -71t85 -25t85 25t36 71h168q0 -108 -81 -171.5t-208 -63.5q-128 0 -209 63t-82 172zM752 129q-47 -69 -139 -109t-218 -40q-148 0 -243 75t-95 211q0 78 37.5 140.5t100.5 103t152.5 68.5t184 41.5t205.5 17.5v74q0 80 -45 118.5t-141 38.5
q-90 0 -137 -47.5t-47 -118.5h-273q0 118 63.5 203t167.5 125.5t236 40.5q217 0 331 -88t114 -252v-487q0 -33 15.5 -49.5t41.5 -16.5q35 0 59 12v-186q-68 -24 -168 -24q-78 0 -132 38t-62 97v14h-8zM322 301q0 -56 38.5 -89.5t110.5 -33.5q120 0 192 66t72 180v57
q-199 0 -306 -46.5t-107 -133.5z" />
    <glyph glyph-name="Aogonek" unicode="&#x104;" horiz-adv-x="1396" 
d="M328 0h-318l135 352l379 1061h350l373 -1061l139 -352h-165q-119 -44 -166 -77t-47 -66q0 -50 73 -50q56 0 158 37v-149q-146 -64 -264 -64q-90 0 -138.5 39t-48.5 99q0 74 65.5 139t201.5 131l-88 262l-6 14h-529l-4 -14zM690 1149l-186 -602h379l-183 602h-10z" />
    <glyph glyph-name="aogonek" unicode="&#x105;" horiz-adv-x="1142" 
d="M752 129q-47 -69 -139 -109t-218 -40q-148 0 -243 75t-95 211q0 78 37.5 140.5t100.5 103t152.5 68.5t184 41.5t205.5 17.5v74q0 80 -45 118.5t-141 38.5q-90 0 -137 -47.5t-47 -118.5h-273q0 118 63.5 203t167.5 125.5t236 40.5q217 0 331 -88t114 -252v-487
q0 -33 15.5 -49.5t41.5 -16.5q35 0 59 12v-186q-38 -11 -61 -16q-158 -64 -158 -121q0 -49 74 -49q56 0 158 37v-150q-143 -63 -265 -63q-90 0 -138 38.5t-48 98.5q0 117 172 219q-87 41 -96 117v14h-8zM322 301q0 -56 38.5 -89.5t110.5 -33.5q120 0 192 66t72 180v57
q-199 0 -306 -46.5t-107 -133.5z" />
    <glyph glyph-name="Cacute" unicode="&#x106;" horiz-adv-x="1406" 
d="M1143 1698l-324 -187h-217l201 187h340zM1358 522q-31 -252 -198 -397t-425 -145q-306 0 -482.5 196t-176.5 537q0 333 176.5 527t482.5 194q266 0 430 -137.5t181 -376.5h-293q-25 134 -106 205t-208 71q-181 0 -275.5 -124t-94.5 -361q0 -241 95 -367.5t277 -126.5
q133 0 217 78.5t107 226.5h293z" />
    <glyph glyph-name="cacute" unicode="&#x107;" horiz-adv-x="1101" 
d="M936 1413l-293 -223h-213l180 223h326zM1057 387q-20 -189 -151 -298t-335 -109q-235 0 -371.5 143.5t-136.5 392.5q0 256 138 405.5t374 149.5q195 0 323 -108t153 -295h-273q-13 95 -65.5 145.5t-137.5 50.5q-117 0 -178 -88.5t-61 -257.5q0 -163 60.5 -248.5
t174.5 -85.5q87 0 141.5 52t71.5 151h273z" />
    <glyph glyph-name="Ccircumflex" unicode="&#x108;" horiz-adv-x="1406" 
d="M659 1511h-219l199 185h227l199 -185h-219l-94 78zM1358 522q-31 -252 -198 -397t-425 -145q-306 0 -482.5 196t-176.5 537q0 333 176.5 527t482.5 194q266 0 430 -137.5t181 -376.5h-293q-25 134 -106 205t-208 71q-181 0 -275.5 -124t-94.5 -361q0 -241 95 -367.5
t277 -126.5q133 0 217 78.5t107 226.5h293z" />
    <glyph glyph-name="ccircumflex" unicode="&#x109;" horiz-adv-x="1101" 
d="M449 1190h-197l199 223h217l198 -223h-196l-111 121zM1057 387q-20 -189 -151 -298t-335 -109q-235 0 -371.5 143.5t-136.5 392.5q0 256 138 405.5t374 149.5q195 0 323 -108t153 -295h-273q-13 95 -65.5 145.5t-137.5 50.5q-117 0 -178 -88.5t-61 -257.5
q0 -163 60.5 -248.5t174.5 -85.5q87 0 141.5 52t71.5 151h273z" />
    <glyph glyph-name="Cdotaccent" unicode="&#x10a;" horiz-adv-x="1406" 
d="M602 1513v177h268v-177h-268zM1358 522q-31 -252 -198 -397t-425 -145q-306 0 -482.5 196t-176.5 537q0 333 176.5 527t482.5 194q266 0 430 -137.5t181 -376.5h-293q-25 134 -106 205t-208 71q-181 0 -275.5 -124t-94.5 -361q0 -241 95 -367.5t277 -126.5
q133 0 217 78.5t107 226.5h293z" />
    <glyph glyph-name="cdotaccent" unicode="&#x10b;" horiz-adv-x="1101" 
d="M424 1210v203h268v-203h-268zM1057 387q-20 -189 -151 -298t-335 -109q-235 0 -371.5 143.5t-136.5 392.5q0 256 138 405.5t374 149.5q195 0 323 -108t153 -295h-273q-13 95 -65.5 145.5t-137.5 50.5q-117 0 -178 -88.5t-61 -257.5q0 -163 60.5 -248.5t174.5 -85.5
q87 0 141.5 52t71.5 151h273z" />
    <glyph glyph-name="Ccaron" unicode="&#x10c;" horiz-adv-x="1406" 
d="M659 1696l93 -78l94 78h219l-199 -185h-227l-199 185h219zM1358 522q-31 -252 -198 -397t-425 -145q-306 0 -482.5 196t-176.5 537q0 333 176.5 527t482.5 194q266 0 430 -137.5t181 -376.5h-293q-25 134 -106 205t-208 71q-181 0 -275.5 -124t-94.5 -361
q0 -241 95 -367.5t277 -126.5q133 0 217 78.5t107 226.5h293z" />
    <glyph glyph-name="ccaron" unicode="&#x10d;" horiz-adv-x="1101" 
d="M440 1413l111 -121l111 121h196l-199 -223h-217l-198 223h196zM1057 387q-20 -189 -151 -298t-335 -109q-235 0 -371.5 143.5t-136.5 392.5q0 256 138 405.5t374 149.5q195 0 323 -108t153 -295h-273q-13 95 -65.5 145.5t-137.5 50.5q-117 0 -178 -88.5t-61 -257.5
q0 -163 60.5 -248.5t174.5 -85.5q87 0 141.5 52t71.5 151h273z" />
    <glyph glyph-name="Dcaron" unicode="&#x10e;" horiz-adv-x="1443" 
d="M575 1696l93 -78l94 78h219l-199 -185h-227l-199 185h219zM647 0h-506l6 352v711l-6 350h506q330 0 527.5 -190.5t197.5 -511.5q0 -324 -197.5 -517.5t-527.5 -193.5zM432 1176v-938h213q204 0 318 127t114 344q0 216 -114 341.5t-316 125.5h-215z" />
    <glyph glyph-name="dcaron" unicode="&#x10f;" horiz-adv-x="1294" 
d="M768 106q-45 -59 -115.5 -92.5t-146.5 -33.5q-204 0 -322 144t-118 396q0 255 115.5 403t316.5 148q84 0 156.5 -36t113.5 -99h6v125l-8 352h285l-9 -352v-709l9 -352h-285l8 106h-6zM1124 1092l45 319h246l-119 -319h-172zM340 532q0 -169 57.5 -258.5t167.5 -89.5
q105 0 160 86.5t55 251.5q0 167 -57 254.5t-164 87.5t-163 -84.5t-56 -247.5z" />
    <glyph glyph-name="Dcroat" unicode="&#x110;" horiz-adv-x="1452" 
d="M655 0h-505l6 352v240h-107v227h107v244l-6 350h505q330 0 527.5 -190.5t197.5 -511.5q0 -324 -197.5 -517.5t-527.5 -193.5zM752 592h-312v-354h213q204 0 318 127t114 344q0 216 -114 341.5t-316 125.5h-215v-357h312v-227z" />
    <glyph glyph-name="dcroat" unicode="&#x111;" horiz-adv-x="1155" 
d="M768 106q-45 -59 -115.5 -92.5t-146.5 -33.5q-204 0 -322 144t-118 396q0 255 115.5 403t316.5 148q84 0 156.5 -36t113.5 -99h6v125l-2 94h-330v174h326l-2 84h285l-2 -84h90v-174h-95l-2 -94v-709l9 -352h-285l8 106h-6zM340 532q0 -169 57.5 -258.5t167.5 -89.5
q105 0 160 86.5t55 251.5q0 167 -57 254.5t-164 87.5t-163 -84.5t-56 -247.5z" />
    <glyph glyph-name="Emacron" unicode="&#x112;" horiz-adv-x="1167" 
d="M283 1530v139h628v-139h-628zM1085 0h-944l6 352v711l-6 350h924v-237h-637v-324h608v-240h-608v-374h657v-238z" />
    <glyph glyph-name="emacron" unicode="&#x113;" horiz-adv-x="1114" 
d="M246 1221v151h628v-151h-628zM1042 362q-22 -181 -148.5 -281.5t-332.5 -100.5q-235 0 -365 140.5t-130 393.5q0 264 131.5 411.5t367.5 147.5q222 0 350 -137.5t134 -380.5v-76h-709q-3 -145 54 -221t167 -76q168 0 209 180h272zM569 879q-97 0 -156 -62t-71 -176h438
q-5 114 -59.5 176t-151.5 62z" />
    <glyph glyph-name="Ebreve" unicode="&#x114;" horiz-adv-x="1167" 
d="M342 1696h158q6 -68 100 -68q95 0 98 68h156q0 -83 -66.5 -131.5t-187.5 -48.5q-122 0 -189 48.5t-69 131.5zM1085 0h-944l6 352v711l-6 350h924v-237h-637v-324h608v-240h-608v-374h657v-238z" />
    <glyph glyph-name="ebreve" unicode="&#x115;" horiz-adv-x="1114" 
d="M268 1413h170q3 -46 36 -71t85 -25t85 25t36 71h168q0 -108 -81 -171.5t-208 -63.5q-128 0 -209 63t-82 172zM1042 362q-22 -181 -148.5 -281.5t-332.5 -100.5q-235 0 -365 140.5t-130 393.5q0 264 131.5 411.5t367.5 147.5q222 0 350 -137.5t134 -380.5v-76h-709
q-3 -145 54 -221t167 -76q168 0 209 180h272zM569 879q-97 0 -156 -62t-71 -176h438q-5 114 -59.5 176t-151.5 62z" />
    <glyph glyph-name="Edotaccent" unicode="&#x116;" horiz-adv-x="1167" 
d="M465 1513v177h268v-177h-268zM1085 0h-944l6 352v711l-6 350h924v-237h-637v-324h608v-240h-608v-374h657v-238z" />
    <glyph glyph-name="edotaccent" unicode="&#x117;" horiz-adv-x="1114" 
d="M430 1210v203h268v-203h-268zM1042 362q-22 -181 -148.5 -281.5t-332.5 -100.5q-235 0 -365 140.5t-130 393.5q0 264 131.5 411.5t367.5 147.5q222 0 350 -137.5t134 -380.5v-76h-709q-3 -145 54 -221t167 -76q168 0 209 180h272zM569 879q-97 0 -156 -62t-71 -176h438
q-5 114 -59.5 176t-151.5 62z" />
    <glyph glyph-name="Eogonek" unicode="&#x118;" horiz-adv-x="1167" 
d="M1085 0h-6q-119 -44 -166 -77t-47 -66q0 -50 74 -50q56 0 158 37v-149q-146 -64 -264 -64q-90 0 -138.5 39t-48.5 99q0 123 191 231h-697l6 352v711l-6 350h924v-237h-637v-324h608v-240h-608v-374h657v-238z" />
    <glyph glyph-name="eogonek" unicode="&#x119;" horiz-adv-x="1114" 
d="M752 -305q-146 -64 -265 -64q-90 0 -138 39t-48 99q0 116 168 217q-193 28 -298 165t-105 363q0 264 131.5 411.5t367.5 147.5q222 0 350 -137.5t134 -380.5v-76h-709q-3 -145 54 -221t167 -76q168 0 209 180h272q-17 -138 -95.5 -230.5t-207.5 -129.5
q-122 -45 -170.5 -79t-48.5 -66q0 -50 74 -50q56 0 158 37v-149zM569 879q-97 0 -156 -62t-71 -176h438q-5 114 -59.5 176t-151.5 62z" />
    <glyph glyph-name="Ecaron" unicode="&#x11a;" horiz-adv-x="1167" 
d="M522 1696l92 -78l95 78h219l-199 -185h-227l-199 185h219zM1085 0h-944l6 352v711l-6 350h924v-237h-637v-324h608v-240h-608v-374h657v-238z" />
    <glyph glyph-name="ecaron" unicode="&#x11b;" horiz-adv-x="1114" 
d="M444 1413l111 -121l111 121h196l-198 -223h-218l-198 223h196zM1042 362q-22 -181 -148.5 -281.5t-332.5 -100.5q-235 0 -365 140.5t-130 393.5q0 264 131.5 411.5t367.5 147.5q222 0 350 -137.5t134 -380.5v-76h-709q-3 -145 54 -221t167 -76q168 0 209 180h272z
M569 879q-97 0 -156 -62t-71 -176h438q-5 114 -59.5 176t-151.5 62z" />
    <glyph glyph-name="Gcircumflex" unicode="&#x11c;" horiz-adv-x="1490" 
d="M686 1511h-219l199 185h227l199 -185h-220l-94 78zM1143 143q-56 -76 -165.5 -119.5t-236.5 -43.5q-299 0 -483 198.5t-184 532.5q0 331 184.5 527t501.5 196q252 0 420.5 -140.5t197.5 -371.5h-293q-20 128 -105.5 201t-219.5 73q-190 0 -291.5 -126t-101.5 -359
q0 -238 105 -368t294 -130q153 0 253.5 79t113.5 222h-371v217h631v-381l6 -350h-258l6 143h-4z" />
    <glyph glyph-name="gcircumflex" unicode="&#x11d;" horiz-adv-x="1101" 
d="M397 1190h-196l198 223h217l199 -223h-197l-110 121zM1073 -35q0 -150 -139.5 -243t-386.5 -93q-237 0 -372.5 78.5t-135.5 212.5q0 86 51.5 150.5t165.5 91.5v8q-43 19 -65.5 55.5t-22.5 77.5t25 79.5t63 57.5v6q-76 28 -130 106.5t-54 180.5q0 143 122.5 240.5
t317.5 97.5q103 0 201 -37q3 69 49.5 108.5t116.5 39.5q94 0 172 -35v-182q-41 18 -86 18q-70 0 -70 -74q66 -88 66 -180q0 -150 -121 -248t-318 -98q-52 0 -92 6q-29 -9 -44 -28t-15 -42q0 -39 28.5 -55t108.5 -16h156q188 0 298.5 -77.5t110.5 -205.5zM305 727
q0 -78 56 -121t155 -43q100 0 155.5 43t55.5 121t-55.5 121t-155.5 43t-155.5 -43t-55.5 -121zM295 -57q0 -66 67.5 -102t194.5 -36q120 0 186 38.5t66 107.5q0 53 -56.5 84t-156.5 31h-78q-105 0 -164 -33t-59 -90z" />
    <glyph glyph-name="Gbreve" unicode="&#x11e;" horiz-adv-x="1490" 
d="M504 1696h158q6 -68 100 -68q95 0 98 68h156q0 -83 -66.5 -131.5t-187.5 -48.5q-122 0 -189 48.5t-69 131.5zM1143 143q-56 -76 -165.5 -119.5t-236.5 -43.5q-299 0 -483 198.5t-184 532.5q0 331 184.5 527t501.5 196q252 0 420.5 -140.5t197.5 -371.5h-293
q-20 128 -105.5 201t-219.5 73q-190 0 -291.5 -126t-101.5 -359q0 -238 105 -368t294 -130q153 0 253.5 79t113.5 222h-371v217h631v-381l6 -350h-258l6 143h-4z" />
    <glyph glyph-name="gbreve" unicode="&#x11f;" horiz-adv-x="1101" 
d="M213 1413h170q3 -46 36 -71t85 -25t85 25t36 71h168q0 -108 -81 -171.5t-208 -63.5q-128 0 -209 63t-82 172zM1073 -35q0 -150 -139.5 -243t-386.5 -93q-237 0 -372.5 78.5t-135.5 212.5q0 86 51.5 150.5t165.5 91.5v8q-43 19 -65.5 55.5t-22.5 77.5t25 79.5t63 57.5v6
q-76 28 -130 106.5t-54 180.5q0 143 122.5 240.5t317.5 97.5q103 0 201 -37q3 69 49.5 108.5t116.5 39.5q94 0 172 -35v-182q-41 18 -86 18q-70 0 -70 -74q66 -88 66 -180q0 -150 -121 -248t-318 -98q-52 0 -92 6q-29 -9 -44 -28t-15 -42q0 -39 28.5 -55t108.5 -16h156
q188 0 298.5 -77.5t110.5 -205.5zM305 727q0 -78 56 -121t155 -43q100 0 155.5 43t55.5 121t-55.5 121t-155.5 43t-155.5 -43t-55.5 -121zM295 -57q0 -66 67.5 -102t194.5 -36q120 0 186 38.5t66 107.5q0 53 -56.5 84t-156.5 31h-78q-105 0 -164 -33t-59 -90z" />
    <glyph glyph-name="Gdotaccent" unicode="&#x120;" horiz-adv-x="1490" 
d="M629 1513v177h268v-177h-268zM1143 143q-56 -76 -165.5 -119.5t-236.5 -43.5q-299 0 -483 198.5t-184 532.5q0 331 184.5 527t501.5 196q252 0 420.5 -140.5t197.5 -371.5h-293q-20 128 -105.5 201t-219.5 73q-190 0 -291.5 -126t-101.5 -359q0 -238 105 -368t294 -130
q153 0 253.5 79t113.5 222h-371v217h631v-381l6 -350h-258l6 143h-4z" />
    <glyph glyph-name="gdotaccent" unicode="&#x121;" horiz-adv-x="1101" 
d="M375 1210v203h268v-203h-268zM1073 -35q0 -150 -139.5 -243t-386.5 -93q-237 0 -372.5 78.5t-135.5 212.5q0 86 51.5 150.5t165.5 91.5v8q-43 19 -65.5 55.5t-22.5 77.5t25 79.5t63 57.5v6q-76 28 -130 106.5t-54 180.5q0 143 122.5 240.5t317.5 97.5q103 0 201 -37
q3 69 49.5 108.5t116.5 39.5q94 0 172 -35v-182q-41 18 -86 18q-70 0 -70 -74q66 -88 66 -180q0 -150 -121 -248t-318 -98q-52 0 -92 6q-29 -9 -44 -28t-15 -42q0 -39 28.5 -55t108.5 -16h156q188 0 298.5 -77.5t110.5 -205.5zM305 727q0 -78 56 -121t155 -43
q100 0 155.5 43t55.5 121t-55.5 121t-155.5 43t-155.5 -43t-55.5 -121zM295 -57q0 -66 67.5 -102t194.5 -36q120 0 186 38.5t66 107.5q0 53 -56.5 84t-156.5 31h-78q-105 0 -164 -33t-59 -90z" />
    <glyph glyph-name="Gcommaaccent" unicode="&#x122;" horiz-adv-x="1490" 
d="M1143 143q-56 -76 -165.5 -119.5t-236.5 -43.5q-299 0 -483 198.5t-184 532.5q0 331 184.5 527t501.5 196q252 0 420.5 -140.5t197.5 -371.5h-293q-20 128 -105.5 201t-219.5 73q-190 0 -291.5 -126t-101.5 -359q0 -238 105 -368t294 -130q153 0 253.5 79t113.5 222h-371
v217h631v-381l6 -350h-258l6 143h-4zM526 -371l84 330h246l-123 -330h-207z" />
    <glyph glyph-name="gcommaaccent" unicode="&#x123;" horiz-adv-x="1101" 
d="M711 1442l-86 -328h-244l123 328h207zM1073 -35q0 -150 -139.5 -243t-386.5 -93q-237 0 -372.5 78.5t-135.5 212.5q0 86 51.5 150.5t165.5 91.5v8q-43 19 -65.5 55.5t-22.5 77.5t25 79.5t63 57.5v6q-76 28 -130 106.5t-54 180.5q0 143 122.5 240.5t317.5 97.5
q103 0 201 -37q3 69 49.5 108.5t116.5 39.5q94 0 172 -35v-182q-41 18 -86 18q-70 0 -70 -74q66 -88 66 -180q0 -150 -121 -248t-318 -98q-52 0 -92 6q-29 -9 -44 -28t-15 -42q0 -39 28.5 -55t108.5 -16h156q188 0 298.5 -77.5t110.5 -205.5zM305 727q0 -78 56 -121t155 -43
q100 0 155.5 43t55.5 121t-55.5 121t-155.5 43t-155.5 -43t-55.5 -121zM295 -57q0 -66 67.5 -102t194.5 -36q120 0 186 38.5t66 107.5q0 53 -56.5 84t-156.5 31h-78q-105 0 -164 -33t-59 -90z" />
    <glyph glyph-name="Hcircumflex" unicode="&#x124;" horiz-adv-x="1423" 
d="M637 1511h-219l198 185h228l198 -185h-219l-94 78zM438 0h-297l6 352v709l-6 352h297l-6 -352v-215h561v215l-8 352h299l-8 -352v-709l8 -352h-299l8 352v254h-561v-254z" />
    <glyph glyph-name="hcircumflex" unicode="&#x125;" horiz-adv-x="1112" 
d="M145 1466h-196l198 224h218l198 -224h-196l-111 121zM395 0h-282l8 328v733l-8 352h274l-8 -352v-135h8q47 69 121 107t160 38q155 0 244 -101t89 -276v-370l9 -324h-285l8 326v321q0 105 -42 161t-116 56q-87 0 -136.5 -70.5t-49.5 -197.5v-270z" />
    <glyph glyph-name="Hbar" unicode="&#x126;" horiz-adv-x="1427" 
d="M440 0h-297l7 352v684h-62v174h59l-4 203h297l-4 -203h555l-4 203h299l-4 -203h59v-174h-63v-684l8 -352h-299l8 352v254h-561v-254zM434 846h561v190h-561v-190z" />
    <glyph glyph-name="hbar" unicode="&#x127;" horiz-adv-x="1112" 
d="M395 0h-282l8 328v733l-2 96h-137v174h133l-2 82h274l-2 -82h293v-174h-297l-2 -96v-135h8q47 69 121 107t160 38q155 0 244 -101t89 -276v-370l9 -324h-285l8 326v321q0 105 -42 161t-116 56q-87 0 -136.5 -70.5t-49.5 -197.5v-270z" />
    <glyph glyph-name="Itilde" unicode="&#x128;" horiz-adv-x="579" 
d="M139 1513h-127q0 95 47 148t125 53q44 0 82.5 -16t69.5 -31.5t55 -15.5q30 0 48 18.5t18 48.5h127q0 -85 -49.5 -142.5t-122.5 -57.5q-47 0 -110 31.5t-97 31.5q-30 0 -48 -19t-18 -49zM438 0h-297l6 352v709l-6 352h297l-6 -352v-709z" />
    <glyph glyph-name="itilde" unicode="&#x129;" horiz-adv-x="520" 
d="M74 1182h-119q0 260 192 260q41 0 77.5 -16.5t57.5 -36t47.5 -36t51.5 -16.5q84 0 84 109h119q0 -260 -185 -260q-35 0 -64 10.5t-49 26t-39 31t-41.5 26t-47.5 10.5q-84 0 -84 -108zM403 0h-286l8 352v320l-8 377h286l-8 -377v-320z" />
    <glyph glyph-name="Imacron" unicode="&#x12a;" horiz-adv-x="579" 
d="M-27 1530v139h629v-139h-629zM438 0h-297l6 352v709l-6 352h297l-6 -352v-709z" />
    <glyph glyph-name="imacron" unicode="&#x12b;" horiz-adv-x="520" 
d="M-55 1221v151h628v-151h-628zM403 0h-286l8 352v320l-8 377h286l-8 -377v-320z" />
    <glyph glyph-name="Ibreve" unicode="&#x12c;" horiz-adv-x="579" 
d="M33 1696h157q6 -68 101 -68t98 68h156q0 -83 -66.5 -131.5t-187.5 -48.5q-122 0 -189 48.5t-69 131.5zM438 0h-297l6 352v709l-6 352h297l-6 -352v-709z" />
    <glyph glyph-name="ibreve" unicode="&#x12d;" horiz-adv-x="520" 
d="M-57 1413h170q3 -46 35.5 -71t84.5 -25t85 25t36 71h168q0 -108 -81 -171.5t-208 -63.5q-128 0 -208.5 63t-81.5 172zM403 0h-286l8 352v320l-8 377h286l-8 -377v-320z" />
    <glyph glyph-name="Iogonek" unicode="&#x12e;" horiz-adv-x="581" 
d="M440 0h-6q-119 -44 -166 -77t-47 -66q0 -50 74 -50q56 0 158 37v-149q-146 -64 -265 -64q-90 0 -138 39t-48 99q0 123 191 231h-50l7 352v709l-7 352h297l-6 -352v-709l6 -350v-2z" />
    <glyph glyph-name="iogonek" unicode="&#x12f;" horiz-adv-x="522" 
d="M129 1210v203h268v-203h-268zM406 0h-7q-119 -44 -166 -77t-47 -66q0 -50 74 -50q56 0 158 37v-149q-146 -64 -264 -64q-90 0 -138.5 39t-48.5 99q0 123 191 231h-39l8 352v320l-8 377h287l-9 -377v-320l9 -350v-2z" />
    <glyph glyph-name="Idotaccent" unicode="&#x130;" horiz-adv-x="579" 
d="M156 1513v177h268v-177h-268zM438 0h-297l6 352v709l-6 352h297l-6 -352v-709z" />
    <glyph glyph-name="idotless" unicode="&#x131;" horiz-adv-x="520" 
d="M403 0h-286l8 352v320l-8 377h286l-8 -377v-320z" />
    <glyph glyph-name="IJ" unicode="&#x132;" horiz-adv-x="1097" 
d="M438 0h-297l6 352v709l-6 352h297l-6 -352v-709zM952 -72q0 -140 -89 -218.5t-249 -78.5q-79 0 -168 21v229q53 -20 91 -20q65 0 99 33t34 96v1069l-8 354h299l-9 -354v-1131z" />
    <glyph glyph-name="ij" unicode="&#x133;" horiz-adv-x="1028" 
d="M403 1192h-286v221h286v-221zM911 1184h-286v229h286v-229zM403 0h-286l8 352v336l-8 361h286l-8 -361v-336zM905 -45q0 -151 -84.5 -237.5t-230.5 -86.5q-39 0 -84 9v194q24 -4 33 -4q46 0 71 28.5t25 80.5v749l-8 361h284l-6 -361v-733z" />
    <glyph glyph-name="Jcircumflex" unicode="&#x134;" horiz-adv-x="589" 
d="M227 1511h-219l199 185h227l199 -185h-219l-95 78zM444 -72q0 -140 -89 -218.5t-249 -78.5q-78 0 -167 21v229q53 -20 90 -20q65 0 99 33t34 96v1069l-8 354h299l-9 -354v-1131z" />
    <glyph glyph-name="jcircumflex" unicode="&#x135;" horiz-adv-x="518" 
d="M150 1190h-197l199 223h217l198 -223h-196l-111 121zM403 -45q0 -151 -84.5 -237.5t-230.5 -86.5q-39 0 -84 9v194q24 -4 33 -4q46 0 71 28.5t25 80.5v749l-8 361h285l-7 -361v-733z" />
    <glyph glyph-name="Kcommaaccent" unicode="&#x136;" horiz-adv-x="1337" 
d="M434 0h-291l7 352l-3 709l-8 352h295l-8 -352v-275h8l230 275l278 352h369l-314 -350l-219 -258v-6l322 -447l270 -352h-383l-237 352l-172 248h-7l-145 -172v-76zM467 -371l84 330h246l-123 -330h-207z" />
    <glyph glyph-name="kcommaaccent" unicode="&#x137;" horiz-adv-x="1114" 
d="M399 0h-286l8 352v709l-8 352h286l-8 -352v-406h8l113 125l217 269h342l-252 -269l-125 -139l199 -289l252 -352h-348l-217 332l-82 123h-11l-96 -109v-24zM367 -371l84 330h245l-123 -330h-206z" />
    <glyph glyph-name="kgreenlandic" unicode="&#x138;" horiz-adv-x="1187" 
d="M395 0h-278l6 352l-2 336l-6 361h280l-6 -361v-70h119l57 70l271 361h346l-291 -361l-125 -160v-6l137 -170l305 -352h-372l-263 352l-53 62h-131v-62z" />
    <glyph glyph-name="Lacute" unicode="&#x139;" horiz-adv-x="1048" 
d="M700 1698l-323 -187h-217l200 187h340zM1018 0h-877l6 352v711l-6 350h297l-6 -350v-823h586v-240z" />
    <glyph glyph-name="lacute" unicode="&#x13a;" horiz-adv-x="600" 
d="M623 1778l-293 -224h-213l180 224h326zM584 6q-83 -26 -156 -26q-146 0 -230.5 83t-84.5 226v774l-7 348h285l-8 -348v-776q0 -52 25 -80.5t71 -28.5q49 0 105 21v-193z" />
    <glyph glyph-name="Lcommaaccent" unicode="&#x13b;" horiz-adv-x="1048" 
d="M1018 0h-877l6 352v711l-6 350h297l-6 -350v-823h586v-240zM326 -371l84 330h245l-123 -330h-206z" />
    <glyph glyph-name="lcommaaccent" unicode="&#x13c;" horiz-adv-x="600" 
d="M584 6q-83 -26 -156 -26q-146 0 -230.5 83t-84.5 226v774l-7 348h285l-8 -348v-776q0 -52 25 -80.5t71 -28.5q49 0 105 21v-193zM209 -371l84 330h246l-123 -330h-207z" />
    <glyph glyph-name="Lcaron" unicode="&#x13d;" horiz-adv-x="1060" 
d="M1018 0h-877l6 352v711l-6 350h297l-6 -350v-823h586v-240zM692 1094l45 319h246l-119 -319h-172z" />
    <glyph glyph-name="lcaron" unicode="&#x13e;" horiz-adv-x="626" 
d="M479 1094l45 319h246l-119 -319h-172zM584 6q-83 -26 -156 -26q-146 0 -230.5 83t-84.5 226v774l-7 348h285l-8 -348v-776q0 -52 25 -80.5t71 -28.5q49 0 105 21v-193z" />
    <glyph glyph-name="Ldot" unicode="&#x13f;" horiz-adv-x="1050" 
d="M1018 0h-877l6 352v711l-6 350h297l-6 -350v-823h586v-240zM594 504v282h285v-282h-285z" />
    <glyph glyph-name="ldot" unicode="&#x140;" horiz-adv-x="755" 
d="M584 6q-83 -26 -156 -26q-146 0 -230.5 83t-84.5 226v774l-7 348h285l-8 -348v-776q0 -52 25 -80.5t71 -28.5q49 0 105 21v-193zM455 504v282h284v-282h-284z" />
    <glyph glyph-name="Lslash" unicode="&#x141;" horiz-adv-x="1073" 
d="M1042 0h-876l6 352v144l-129 -74v194l129 74v373l-6 350h297l-6 -350v-211l362 207v-197l-362 -205v-417h585v-240z" />
    <glyph glyph-name="lslash" unicode="&#x142;" horiz-adv-x="694" 
d="M633 6q-83 -26 -156 -26q-146 0 -230.5 83t-84.5 226v256l-127 -74v203l127 71v318l-6 348h284l-8 -348v-162l201 115v-199l-201 -117v-413q0 -52 25 -80.5t71 -28.5q50 0 105 21v-193z" />
    <glyph glyph-name="Nacute" unicode="&#x143;" horiz-adv-x="1490" 
d="M1153 1698l-324 -187h-217l201 187h340zM432 0h-291l6 352v709l-6 352h269l530 -762l119 -176h8v586l-8 352h293l-9 -352v-725l9 -336h-265l-544 764l-111 170h-8v-582z" />
    <glyph glyph-name="nacute" unicode="&#x144;" horiz-adv-x="1114" 
d="M938 1413l-293 -223h-213l180 223h326zM397 0h-282l8 352v336l-8 361h272l-6 -125h8q99 147 281 147q155 0 244.5 -101t89.5 -276v-342l8 -352h-285l8 352v295q0 104 -45.5 160.5t-124.5 56.5q-84 0 -129 -56t-45 -161v-295z" />
    <glyph glyph-name="Ncommaaccent" unicode="&#x145;" horiz-adv-x="1490" 
d="M432 0h-291l6 352v709l-6 352h269l530 -762l119 -176h8v586l-8 352h293l-9 -352v-725l9 -336h-265l-544 764l-111 170h-8v-582zM532 -371l84 330h246l-123 -330h-207z" />
    <glyph glyph-name="ncommaaccent" unicode="&#x146;" horiz-adv-x="1114" 
d="M397 0h-282l8 352v336l-8 361h272l-6 -125h8q99 147 281 147q155 0 244.5 -101t89.5 -276v-342l8 -352h-285l8 352v295q0 104 -45.5 160.5t-124.5 56.5q-84 0 -129 -56t-45 -161v-295zM352 -371l84 330h246l-123 -330h-207z" />
    <glyph glyph-name="Ncaron" unicode="&#x147;" horiz-adv-x="1490" 
d="M670 1696l92 -78l94 78h219l-198 -185h-228l-198 185h219zM432 0h-291l6 352v709l-6 352h269l530 -762l119 -176h8v586l-8 352h293l-9 -352v-725l9 -336h-265l-544 764l-111 170h-8v-582z" />
    <glyph glyph-name="ncaron" unicode="&#x148;" horiz-adv-x="1114" 
d="M442 1413l111 -121l111 121h196l-198 -223h-218l-198 223h196zM397 0h-282l8 352v336l-8 361h272l-6 -125h8q99 147 281 147q155 0 244.5 -101t89.5 -276v-342l8 -352h-285l8 352v295q0 104 -45.5 160.5t-124.5 56.5q-84 0 -129 -56t-45 -161v-295z" />
    <glyph glyph-name="napostrophe" unicode="&#x149;" horiz-adv-x="1325" 
d="M-10 942l73 471h252l-145 -471h-180zM608 0h-282l8 352v336l-8 361h272l-6 -125h8q99 147 281 147q155 0 244 -101t89 -276v-342l9 -352h-285l8 352v295q0 104 -45.5 160.5t-124.5 56.5q-84 0 -129 -56t-45 -161v-295z" />
    <glyph glyph-name="Eng" unicode="&#x14a;" horiz-adv-x="1490" 
d="M432 0h-291l6 352v709l-6 352h269l530 -762l119 -176h8v586l-8 352h293l-9 -352v-725l9 -336v-57q-2 -142 -87 -227t-231 -85q-42 0 -82 9v206q24 -4 31 -4q46 0 69 26t23 71v75l-39 58l-493 692l-111 170h-8v-582z" />
    <glyph glyph-name="eng" unicode="&#x14b;" horiz-adv-x="1112" 
d="M123 672l-8 377h272l-6 -125h8q99 147 281 147q155 0 244.5 -101t89.5 -276v-739q0 -152 -81 -238t-227 -86q-48 0 -88 9v194q24 -4 31 -4q96 0 96 109v708q0 104 -45.5 160.5t-124.5 56.5q-84 0 -129 -56t-45 -161v-321l6 -326h-282l8 328v344z" />
    <glyph glyph-name="Omacron" unicode="&#x14c;" horiz-adv-x="1503" 
d="M434 1530v139h629v-139h-629zM1430 715q0 -161 -45 -295.5t-129.5 -232.5t-213.5 -152.5t-290 -54.5q-213 0 -368 95.5t-232.5 260.5t-77.5 381q0 207 77.5 367.5t232.5 255t368 94.5q214 0 369 -94.5t232 -255.5t77 -369zM367 711q0 -224 100 -359t285 -135
q186 0 285.5 134.5t99.5 357.5q0 139 -42.5 247.5t-131 174t-211.5 65.5t-211.5 -65t-131 -173.5t-42.5 -246.5z" />
    <glyph glyph-name="omacron" unicode="&#x14d;" horiz-adv-x="1136" 
d="M254 1221v151h629v-151h-629zM1073 522q0 -253 -135.5 -397.5t-370.5 -144.5q-234 0 -369 144.5t-135 397.5t135.5 401t368.5 148q234 0 370 -148t136 -401zM336 524q0 -166 59 -253t172 -87q114 0 174 87t60 253q0 165 -60 252.5t-174 87.5q-112 0 -171.5 -87.5
t-59.5 -252.5z" />
    <glyph glyph-name="Obreve" unicode="&#x14e;" horiz-adv-x="1503" 
d="M494 1696h157q6 -68 101 -68t98 68h156q0 -83 -66.5 -131.5t-187.5 -48.5q-122 0 -189 48.5t-69 131.5zM1430 715q0 -161 -45 -295.5t-129.5 -232.5t-213.5 -152.5t-290 -54.5q-213 0 -368 95.5t-232.5 260.5t-77.5 381q0 207 77.5 367.5t232.5 255t368 94.5
q214 0 369 -94.5t232 -255.5t77 -369zM367 711q0 -224 100 -359t285 -135q186 0 285.5 134.5t99.5 357.5q0 139 -42.5 247.5t-131 174t-211.5 65.5t-211.5 -65t-131 -173.5t-42.5 -246.5z" />
    <glyph glyph-name="obreve" unicode="&#x14f;" horiz-adv-x="1136" 
d="M274 1413h170q3 -46 36 -71t85 -25t85 25t36 71h168q0 -108 -81 -171.5t-208 -63.5q-128 0 -209 63t-82 172zM1073 522q0 -253 -135.5 -397.5t-370.5 -144.5q-234 0 -369 144.5t-135 397.5t135.5 401t368.5 148q234 0 370 -148t136 -401zM336 524q0 -166 59 -253t172 -87
q114 0 174 87t60 253q0 165 -60 252.5t-174 87.5q-112 0 -171.5 -87.5t-59.5 -252.5z" />
    <glyph glyph-name="Ohungarumlaut" unicode="&#x150;" horiz-adv-x="1503" 
d="M883 1698l-297 -187h-201l186 187h312zM1325 1698l-297 -187h-201l187 187h311zM1430 715q0 -161 -45 -295.5t-129.5 -232.5t-213.5 -152.5t-290 -54.5q-213 0 -368 95.5t-232.5 260.5t-77.5 381q0 207 77.5 367.5t232.5 255t368 94.5q214 0 369 -94.5t232 -255.5
t77 -369zM367 711q0 -224 100 -359t285 -135q186 0 285.5 134.5t99.5 357.5q0 139 -42.5 247.5t-131 174t-211.5 65.5t-211.5 -65t-131 -173.5t-42.5 -246.5z" />
    <glyph glyph-name="ohungarumlaut" unicode="&#x151;" horiz-adv-x="1136" 
d="M711 1409l-281 -223h-205l172 223h314zM1128 1409l-280 -223h-205l172 223h313zM1073 522q0 -253 -135.5 -397.5t-370.5 -144.5q-234 0 -369 144.5t-135 397.5t135.5 401t368.5 148q234 0 370 -148t136 -401zM336 524q0 -166 59 -253t172 -87q114 0 174 87t60 253
q0 165 -60 252.5t-174 87.5q-112 0 -171.5 -87.5t-59.5 -252.5z" />
    <glyph glyph-name="OE" unicode="&#x152;" horiz-adv-x="2154" 
d="M1157 125q-160 -145 -405 -145q-213 0 -368 95.5t-232.5 260.5t-77.5 381q0 207 77.5 367.5t232.5 255t368 94.5q242 0 405 -144h4l-6 123h897v-237h-635l-2 -324h608v-240h-606v-374h656v-238h-918l6 125h-4zM367 711q0 -224 100 -359t285 -135q186 0 285.5 134.5
t99.5 357.5q0 139 -42.5 247.5t-131 174t-211.5 65.5t-211.5 -65t-131 -173.5t-42.5 -246.5z" />
    <glyph glyph-name="oe" unicode="&#x153;" horiz-adv-x="1781" 
d="M899 168q-52 -88 -149.5 -138t-214.5 -50q-219 0 -345.5 144.5t-126.5 397.5t128 401t348 148q112 0 208 -53t152 -144h6q56 92 151.5 145.5t205.5 53.5q209 0 330.5 -139.5t121.5 -378.5v-76h-694q-3 -137 56 -217t163 -80q85 0 145 47.5t80 132.5h246
q-22 -178 -139 -280t-299 -102q-128 0 -226 50t-141 138h-6zM1237 879q-190 0 -215 -238h426q-4 114 -59.5 176t-151.5 62zM338 524q0 -166 58.5 -253t172.5 -87q219 0 219 340t-219 340q-113 0 -172 -87.5t-59 -252.5z" />
    <glyph glyph-name="Racute" unicode="&#x154;" horiz-adv-x="1316" 
d="M997 1698l-323 -187h-217l200 187h340zM438 0h-297l6 352v711l-6 350h553q227 0 362.5 -121t135.5 -327q0 -127 -72 -233t-194 -159v-8l364 -565h-332l-296 508h-230v-156zM432 1184v-455h230q106 0 171.5 61.5t65.5 167.5q0 104 -64 165t-163 61h-240z" />
    <glyph glyph-name="racute" unicode="&#x155;" horiz-adv-x="788" 
d="M743 1413l-292 -223h-213l180 223h325zM397 0h-282l8 352v336l-8 361h272l-6 -187h8q98 209 281 209q54 0 92 -12l-2 -260q-54 12 -123 12q-119 0 -182.5 -95t-63.5 -231v-133z" />
    <glyph glyph-name="Rcommaaccent" unicode="&#x156;" horiz-adv-x="1316" 
d="M438 0h-297l6 352v711l-6 350h553q227 0 362.5 -121t135.5 -327q0 -127 -72 -233t-194 -159v-8l364 -565h-332l-296 508h-230v-156zM432 1184v-455h230q106 0 171.5 61.5t65.5 167.5q0 104 -64 165t-163 61h-240zM469 -371l84 330h246l-123 -330h-207z" />
    <glyph glyph-name="rcommaaccent" unicode="&#x157;" horiz-adv-x="788" 
d="M397 0h-282l8 352v336l-8 361h272l-6 -187h8q98 209 281 209q54 0 92 -12l-2 -260q-54 12 -123 12q-119 0 -182.5 -95t-63.5 -231v-133zM51 -371l84 330h246l-123 -330h-207z" />
    <glyph glyph-name="Rcaron" unicode="&#x158;" horiz-adv-x="1316" 
d="M514 1696l92 -78l94 78h220l-199 -185h-227l-199 185h219zM438 0h-297l6 352v711l-6 350h553q227 0 362.5 -121t135.5 -327q0 -127 -72 -233t-194 -159v-8l364 -565h-332l-296 508h-230v-156zM432 1184v-455h230q106 0 171.5 61.5t65.5 167.5q0 104 -64 165t-163 61h-240
z" />
    <glyph glyph-name="rcaron" unicode="&#x159;" horiz-adv-x="788" 
d="M313 1413l111 -121l111 121h196l-199 -223h-217l-198 223h196zM397 0h-282l8 352v336l-8 361h272l-6 -187h8q98 209 281 209q54 0 92 -12l-2 -260q-54 12 -123 12q-119 0 -182.5 -95t-63.5 -231v-133z" />
    <glyph glyph-name="Sacute" unicode="&#x15a;" horiz-adv-x="1306" 
d="M1073 1698l-323 -187h-218l201 187h340zM1243 420q0 -194 -158 -318.5t-415 -124.5q-294 0 -453.5 126.5t-159.5 377.5h293q0 -133 82.5 -203.5t243.5 -70.5q136 0 207 51.5t71 138.5q0 33 -15.5 58.5t-40.5 43t-70.5 33.5t-89.5 26.5t-113 23.5q-92 16 -164 37.5
t-140 56.5t-113 81t-72 113.5t-27 151.5q0 194 144.5 304t399.5 110q260 0 399.5 -119.5t147.5 -335.5h-293q-3 106 -72 166.5t-190 60.5q-119 0 -182.5 -44t-63.5 -128q0 -96 99 -144q65 -32 253 -68h1h1h1l1 -1h1h1h1h1l1 -1h1h1h1h1l1 -1h1h1h1h1h1l1 -1h1h1h1
q23 -5 35 -7q215 -42 324.5 -133t109.5 -260z" />
    <glyph glyph-name="sacute" unicode="&#x15b;" horiz-adv-x="1026" 
d="M893 1413l-293 -223h-213l180 223h326zM971 309q0 -152 -121 -240.5t-332 -88.5q-217 0 -341 99t-124 269h254q0 -84 55 -130t154 -46q98 0 148.5 36t50.5 103q0 36 -27.5 60.5t-72.5 35.5t-102 22.5t-116.5 21t-116.5 32t-101.5 54t-71 88t-25.5 133.5q2 139 121.5 226
t310.5 87q201 0 312.5 -94.5t111.5 -261.5h-254q0 78 -46 120t-130 42q-80 0 -125 -32.5t-45 -92.5q0 -36 27 -60.5t71.5 -36t101.5 -23.5t116.5 -21.5t116.5 -32t101.5 -53t71.5 -86t27 -130.5z" />
    <glyph glyph-name="Scircumflex" unicode="&#x15c;" horiz-adv-x="1306" 
d="M592 1511h-219l198 185h228l198 -185h-219l-94 78zM1243 420q0 -194 -158 -318.5t-415 -124.5q-294 0 -453.5 126.5t-159.5 377.5h293q0 -133 82.5 -203.5t243.5 -70.5q136 0 207 51.5t71 138.5q0 33 -15.5 58.5t-40.5 43t-70.5 33.5t-89.5 26.5t-113 23.5
q-92 16 -164 37.5t-140 56.5t-113 81t-72 113.5t-27 151.5q0 194 144.5 304t399.5 110q260 0 399.5 -119.5t147.5 -335.5h-293q-3 106 -72 166.5t-190 60.5q-119 0 -182.5 -44t-63.5 -128q0 -96 99 -144q65 -32 253 -68h1h1h1l1 -1h1h1h1h1l1 -1h1h1h1h1l1 -1h1h1h1h1h1
l1 -1h1h1h1q23 -5 35 -7q215 -42 324.5 -133t109.5 -260z" />
    <glyph glyph-name="scircumflex" unicode="&#x15d;" horiz-adv-x="1026" 
d="M406 1190h-197l199 223h217l198 -223h-196l-111 121zM971 309q0 -152 -121 -240.5t-332 -88.5q-217 0 -341 99t-124 269h254q0 -84 55 -130t154 -46q98 0 148.5 36t50.5 103q0 36 -27.5 60.5t-72.5 35.5t-102 22.5t-116.5 21t-116.5 32t-101.5 54t-71 88t-25.5 133.5
q2 139 121.5 226t310.5 87q201 0 312.5 -94.5t111.5 -261.5h-254q0 78 -46 120t-130 42q-80 0 -125 -32.5t-45 -92.5q0 -36 27 -60.5t71.5 -36t101.5 -23.5t116.5 -21.5t116.5 -32t101.5 -53t71.5 -86t27 -130.5z" />
    <glyph glyph-name="Scedilla" unicode="&#x15e;" horiz-adv-x="1306" 
d="M686 -369q-86 0 -141.5 36.5t-55.5 94.5h140q0 -43 55 -43q26 0 41.5 16t15.5 42q0 25 -21 42t-56 17h-101l29 144q-258 18 -396.5 143.5t-138.5 357.5h293q0 -133 82.5 -203.5t243.5 -70.5q136 0 207 51.5t71 138.5q0 33 -15.5 58.5t-40.5 43t-70.5 33.5t-89.5 26.5
t-113 23.5q-92 16 -164 37.5t-140 56.5t-113 81t-72 113.5t-27 151.5q0 194 144.5 304t399.5 110q260 0 399.5 -119.5t147.5 -335.5h-293q-3 106 -72 166.5t-190 60.5q-119 0 -182.5 -44t-63.5 -128q0 -96 99 -144q65 -32 253 -68h1h1h1l1 -1h1h1h1h1l1 -1h1h1h1h1l1 -1h1h1
h1h1h1l1 -1h1h1h1q23 -5 35 -7q215 -42 324.5 -133t109.5 -260q0 -183 -140.5 -304t-373.5 -136l-12 -66q82 0 122 -39.5t40 -99.5q0 -64 -51.5 -104t-141.5 -40z" />
    <glyph glyph-name="scedilla" unicode="&#x15f;" horiz-adv-x="1026" 
d="M528 -369q-85 0 -140.5 36.5t-55.5 94.5h139q0 -43 55 -43q26 0 42 16t16 42q0 25 -21.5 42t-56.5 17h-100l28 148q-180 19 -280.5 115.5t-100.5 248.5h254q0 -84 55 -130t154 -46q98 0 148.5 36t50.5 103q0 36 -27.5 60.5t-72.5 35.5t-102 22.5t-116.5 21t-116.5 32
t-101.5 54t-71 88t-25.5 133.5q2 139 121.5 226t310.5 87q201 0 312.5 -94.5t111.5 -261.5h-254q0 78 -46 120t-130 42q-80 0 -125 -32.5t-45 -92.5q0 -36 27 -60.5t71.5 -36t101.5 -23.5t116.5 -21.5t116.5 -32t101.5 -53t71.5 -86t27 -130.5q0 -141 -106.5 -229
t-293.5 -98l-12 -68q82 0 122 -39.5t40 -99.5q0 -64 -51.5 -104t-141.5 -40z" />
    <glyph glyph-name="Scaron" unicode="&#x160;" horiz-adv-x="1306" 
d="M590 1696l92 -78l94 78h219l-198 -185h-228l-198 185h219zM1243 420q0 -194 -158 -318.5t-415 -124.5q-294 0 -453.5 126.5t-159.5 377.5h293q0 -133 82.5 -203.5t243.5 -70.5q136 0 207 51.5t71 138.5q0 33 -15.5 58.5t-40.5 43t-70.5 33.5t-89.5 26.5t-113 23.5
q-92 16 -164 37.5t-140 56.5t-113 81t-72 113.5t-27 151.5q0 194 144.5 304t399.5 110q260 0 399.5 -119.5t147.5 -335.5h-293q-3 106 -72 166.5t-190 60.5q-119 0 -182.5 -44t-63.5 -128q0 -96 99 -144q65 -32 253 -68h1h1h1l1 -1h1h1h1h1l1 -1h1h1h1h1l1 -1h1h1h1h1h1
l1 -1h1h1h1q23 -5 35 -7q215 -42 324.5 -133t109.5 -260z" />
    <glyph glyph-name="scaron" unicode="&#x161;" horiz-adv-x="1026" 
d="M397 1413l111 -121l110 121h197l-199 -223h-217l-198 223h196zM971 309q0 -152 -121 -240.5t-332 -88.5q-217 0 -341 99t-124 269h254q0 -84 55 -130t154 -46q98 0 148.5 36t50.5 103q0 36 -27.5 60.5t-72.5 35.5t-102 22.5t-116.5 21t-116.5 32t-101.5 54t-71 88
t-25.5 133.5q2 139 121.5 226t310.5 87q201 0 312.5 -94.5t111.5 -261.5h-254q0 78 -46 120t-130 42q-80 0 -125 -32.5t-45 -92.5q0 -36 27 -60.5t71.5 -36t101.5 -23.5t116.5 -21.5t116.5 -32t101.5 -53t71.5 -86t27 -130.5z" />
    <glyph glyph-name="Tcedilla" unicode="&#x162;" horiz-adv-x="1183" 
d="M606 -369q-85 0 -140.5 36.5t-55.5 94.5h139q0 -43 55 -43q26 0 42 16t16 42q0 25 -21.5 42t-56.5 17h-101l33 164h-76l11 352v828h-422v235h1124v-235h-418v-828l10 -352h-92l-16 -86q82 0 122 -39.5t40 -99.5q0 -64 -51.5 -104t-141.5 -40z" />
    <glyph glyph-name="tcedilla" unicode="&#x163;" horiz-adv-x="763" 
d="M481 -369q-85 0 -140.5 36.5t-55.5 94.5h139q0 -43 55 -43q26 0 42 16t16 42q0 25 -21.5 42t-56.5 17h-101l31 154q-215 53 -215 327v525h-137v207h145l-8 235h281l-9 -235h287v-207h-287v-494q0 -79 30 -116t95 -37q81 0 162 24v-215q-94 -21 -209 -24l-12 -66
q82 0 122 -39.5t40 -99.5q0 -64 -51.5 -104t-141.5 -40z" />
    <glyph glyph-name="Tcaron" unicode="&#x164;" horiz-adv-x="1183" 
d="M516 1696l92 -78l94 78h220l-199 -185h-227l-199 185h219zM745 0h-305l11 352v828h-422v235h1124v-235h-418v-828z" />
    <glyph glyph-name="tcaron" unicode="&#x165;" horiz-adv-x="763" 
d="M578 1094l45 319h235l-115 -319h-165zM733 4q-111 -24 -241 -24q-159 0 -238.5 85.5t-79.5 251.5v525h-137v207h145l-8 235h281l-9 -235h287v-207h-287v-494q0 -79 30 -116t95 -37q81 0 162 24v-215z" />
    <glyph glyph-name="Tbar" unicode="&#x166;" horiz-adv-x="1189" 
d="M750 0h-306l11 352v402h-201v174h201v252h-422v235h1124v-235h-418v-252h211v-174h-211v-402z" />
    <glyph glyph-name="tbar" unicode="&#x167;" horiz-adv-x="776" 
d="M739 4q-111 -24 -241 -24q-159 0 -238.5 85.5t-79.5 251.5v267h-133v174h133v84h-137v207h145l-8 235h281l-8 -235h286v-207h-286v-84h290v-174h-290v-236q0 -79 30 -116t95 -37q80 0 161 24v-215z" />
    <glyph glyph-name="Utilde" unicode="&#x168;" horiz-adv-x="1411" 
d="M557 1513h-127q0 95 47 148t125 53q44 0 82.5 -16t69.5 -31.5t55 -15.5q30 0 47.5 18.5t17.5 48.5h127q0 -85 -49.5 -142.5t-122.5 -57.5q-47 0 -109.5 31.5t-96.5 31.5q-30 0 -48 -19t-18 -49zM1278 559q0 -270 -151 -424.5t-414 -154.5q-269 0 -425.5 155t-156.5 424
v502l-6 352h297l-6 -352v-494q0 -170 76 -260t219 -90q138 0 211 90t73 260v494l-8 352h299l-8 -352v-502z" />
    <glyph glyph-name="utilde" unicode="&#x169;" horiz-adv-x="1126" 
d="M375 1182h-119q0 260 193 260q41 0 77 -16.5t57 -36t47.5 -36t51.5 -16.5q84 0 84 109h119q0 -260 -185 -260q-35 0 -64 10.5t-49 26t-39 31t-41.5 26t-47.5 10.5q-84 0 -84 -108zM733 115q-40 -67 -113 -102.5t-163 -35.5q-161 0 -253.5 105.5t-92.5 288.5v317l-9 361
h289l-8 -361l-2 -270q1 -115 40 -174.5t111 -59.5q100 0 152 71.5t51 207.5l-2 225l-8 361h287l-8 -361v-336l8 -352h-277l8 115h-10z" />
    <glyph glyph-name="Umacron" unicode="&#x16a;" horiz-adv-x="1411" 
d="M389 1530v139h629v-139h-629zM1278 559q0 -270 -151 -424.5t-414 -154.5q-269 0 -425.5 155t-156.5 424v502l-6 352h297l-6 -352v-494q0 -170 76 -260t219 -90q138 0 211 90t73 260v494l-8 352h299l-8 -352v-502z" />
    <glyph glyph-name="umacron" unicode="&#x16b;" horiz-adv-x="1126" 
d="M244 1221v151h628v-151h-628zM733 115q-40 -67 -113 -102.5t-163 -35.5q-161 0 -253.5 105.5t-92.5 288.5v317l-9 361h289l-8 -361l-2 -270q1 -115 40 -174.5t111 -59.5q100 0 152 71.5t51 207.5l-2 225l-8 361h287l-8 -361v-336l8 -352h-277l8 115h-10z" />
    <glyph glyph-name="Ubreve" unicode="&#x16c;" horiz-adv-x="1411" 
d="M449 1696h157q6 -68 101 -68t98 68h156q0 -83 -66.5 -131.5t-187.5 -48.5q-122 0 -189 48.5t-69 131.5zM1278 559q0 -270 -151 -424.5t-414 -154.5q-269 0 -425.5 155t-156.5 424v502l-6 352h297l-6 -352v-494q0 -170 76 -260t219 -90q138 0 211 90t73 260v494l-8 352
h299l-8 -352v-502z" />
    <glyph glyph-name="ubreve" unicode="&#x16d;" horiz-adv-x="1126" 
d="M266 1413h170q3 -46 36 -71t85 -25t85 25t36 71h168q0 -108 -81 -171.5t-208 -63.5q-128 0 -209 63t-82 172zM733 115q-40 -67 -113 -102.5t-163 -35.5q-161 0 -253.5 105.5t-92.5 288.5v317l-9 361h289l-8 -361l-2 -270q1 -115 40 -174.5t111 -59.5q100 0 152 71.5
t51 207.5l-2 225l-8 361h287l-8 -361v-336l8 -352h-277l8 115h-10z" />
    <glyph glyph-name="Uring" unicode="&#x16e;" horiz-adv-x="1411" 
d="M705 1460q-75 0 -124 46.5t-49 117.5t49 117.5t124 46.5t123.5 -46.5t48.5 -117.5t-48.5 -117.5t-123.5 -46.5zM705 1563q29 0 48 17.5t19 43.5q0 28 -19 46t-48 18t-47.5 -18t-18.5 -46q0 -26 18.5 -43.5t47.5 -17.5zM1278 559q0 -270 -151 -424.5t-414 -154.5
q-269 0 -425.5 155t-156.5 424v502l-6 352h297l-6 -352v-494q0 -170 76 -260t219 -90q138 0 211 90t73 260v494l-8 352h299l-8 -352v-502z" />
    <glyph glyph-name="uring" unicode="&#x16f;" horiz-adv-x="1126" 
d="M561 1126q-70 0 -122 51.5t-52 120.5q0 70 51.5 121t122.5 51q69 0 120.5 -51t51.5 -121q0 -69 -51.5 -120.5t-120.5 -51.5zM561 1229q26 0 46 20.5t20 48.5q0 29 -20 50.5t-46 21.5q-28 0 -47.5 -21.5t-19.5 -50.5q0 -28 19.5 -48.5t47.5 -20.5zM733 115
q-40 -67 -113 -102.5t-163 -35.5q-161 0 -253.5 105.5t-92.5 288.5v317l-9 361h289l-8 -361l-2 -270q1 -115 40 -174.5t111 -59.5q100 0 152 71.5t51 207.5l-2 225l-8 361h287l-8 -361v-336l8 -352h-277l8 115h-10z" />
    <glyph glyph-name="Uhungarumlaut" unicode="&#x170;" horiz-adv-x="1411" 
d="M836 1698l-297 -187h-201l186 187h312zM1278 1698l-297 -187h-201l187 187h311zM1278 559q0 -270 -151 -424.5t-414 -154.5q-269 0 -425.5 155t-156.5 424v502l-6 352h297l-6 -352v-494q0 -170 76 -260t219 -90q138 0 211 90t73 260v494l-8 352h299l-8 -352v-502z" />
    <glyph glyph-name="uhungarumlaut" unicode="&#x171;" horiz-adv-x="1126" 
d="M700 1409l-280 -223h-205l172 223h313zM1118 1409l-280 -223h-205l172 223h313zM733 115q-40 -67 -113 -102.5t-163 -35.5q-161 0 -253.5 105.5t-92.5 288.5v317l-9 361h289l-8 -361l-2 -270q1 -115 40 -174.5t111 -59.5q100 0 152 71.5t51 207.5l-2 225l-8 361h287
l-8 -361v-336l8 -352h-277l8 115h-10z" />
    <glyph glyph-name="Uogonek" unicode="&#x172;" horiz-adv-x="1411" 
d="M840 -305q-146 -64 -265 -64q-90 0 -138 39t-48 99q0 118 178 223q-205 40 -320.5 188.5t-115.5 378.5v502l-6 352h297l-6 -352v-494q0 -170 76 -260t219 -90q138 0 211 90t73 260v494l-8 352h299l-8 -352v-502q0 -253 -133.5 -405.5t-368.5 -171.5q-93 -37 -130.5 -66.5
t-37.5 -58.5q0 -50 74 -50q56 0 158 37v-149z" />
    <glyph glyph-name="uogonek" unicode="&#x173;" horiz-adv-x="1126" 
d="M733 115q-40 -67 -113 -102.5t-163 -35.5q-161 0 -253.5 105.5t-92.5 288.5v317l-9 361h289l-8 -361l-2 -270q1 -115 40 -174.5t111 -59.5q100 0 152 71.5t51 207.5l-2 225l-8 361h287l-8 -361v-336l6 -303l8 -35q-1 0 -3 -1t-3 -1v-12h-31q-101 -39 -141.5 -70
t-40.5 -61q0 -49 73 -49q56 0 158 37v-150q-143 -63 -264 -63q-90 0 -138 38.5t-48 98.5q0 118 170 219h-15l8 115h-10z" />
    <glyph glyph-name="Wcircumflex" unicode="&#x174;" horiz-adv-x="1953" 
d="M905 1511h-219l199 185h227l199 -185h-219l-95 78zM760 0h-318l-309 1061l-119 352h336l76 -352l182 -713h6l265 699l-115 366h291l110 -442l172 -623h9l182 713l76 352h333l-118 -352l-306 -1061h-327l-195 696h-6z" />
    <glyph glyph-name="wcircumflex" unicode="&#x175;" horiz-adv-x="1566" 
d="M670 1190h-197l199 223h217l198 -223h-196l-111 121zM621 0h-263l-221 688l-121 361h299l86 -361l103 -397h8l160 426l-97 332h275l82 -332l121 -420h6l104 391l90 361h301l-124 -361l-224 -688h-262l-139 444h-10z" />
    <glyph glyph-name="Ycircumflex" unicode="&#x176;" horiz-adv-x="1329" 
d="M582 1511h-220l199 185h227l199 -185h-219l-94 78zM817 0h-303l6 352v92l-313 619l-199 350h342l152 -350l160 -342h6l157 342l154 350h340l-199 -352l-311 -617v-92z" />
    <glyph glyph-name="ycircumflex" unicode="&#x177;" horiz-adv-x="1077" 
d="M432 1190h-196l198 223h217l199 -223h-197l-110 121zM549 -369h-275l138 351l-256 706l-144 361h316l104 -361l107 -352h6l102 352l105 361h317l-145 -359z" />
    <glyph glyph-name="Ydieresis" unicode="&#x178;" horiz-adv-x="1329" 
d="M741 1509v177h254v-177h-254zM317 1509v177h254v-177h-254zM817 0h-303l6 352v92l-313 619l-199 350h342l152 -350l160 -342h6l157 342l154 350h340l-199 -352l-311 -617v-92z" />
    <glyph glyph-name="Zacute" unicode="&#x179;" horiz-adv-x="1191" 
d="M1008 1698l-324 -187h-217l201 187h340zM1128 0h-1085v205l702 962v9h-641v237h1014v-205l-696 -962v-8h706v-238z" />
    <glyph glyph-name="zacute" unicode="&#x17a;" horiz-adv-x="915" 
d="M831 1413l-292 -223h-213l180 223h325zM868 0h-823v172l471 684v6l-436 -8v195h758v-175l-465 -679v-7l495 7v-195z" />
    <glyph glyph-name="Zdotaccent" unicode="&#x17b;" horiz-adv-x="1191" 
d="M467 1513v177h268v-177h-268zM1128 0h-1085v205l702 962v9h-641v237h1014v-205l-696 -962v-8h706v-238z" />
    <glyph glyph-name="zdotaccent" unicode="&#x17c;" horiz-adv-x="915" 
d="M319 1210v203h269v-203h-269zM868 0h-823v172l471 684v6l-436 -8v195h758v-175l-465 -679v-7l495 7v-195z" />
    <glyph glyph-name="Zcaron" unicode="&#x17d;" horiz-adv-x="1191" 
d="M524 1696l92 -78l95 78h219l-199 -185h-227l-199 185h219zM1128 0h-1085v205l702 962v9h-641v237h1014v-205l-696 -962v-8h706v-238z" />
    <glyph glyph-name="zcaron" unicode="&#x17e;" horiz-adv-x="915" 
d="M334 1413l110 -121l111 121h197l-199 -223h-217l-199 223h197zM868 0h-823v172l471 684v6l-436 -8v195h758v-175l-465 -679v-7l495 7v-195z" />
    <glyph glyph-name="Schwa" unicode="&#x18f;" horiz-adv-x="1435" 
d="M84 891q25 247 191.5 395t424.5 148q306 0 483 -196.5t177 -537.5q0 -334 -177 -527t-483 -193q-293 0 -459.5 202.5t-166.5 562.5h4h989q-9 216 -104.5 333.5t-262.5 117.5q-134 0 -221 -81t-102 -224h-293zM700 217q150 0 240.5 86.5t116.5 253.5h-672
q26 -167 106.5 -253.5t208.5 -86.5z" />
    <glyph glyph-name="florin" unicode="&#x192;" horiz-adv-x="1034" 
d="M96 -49q126 0 144 106l137 787h-158l37 205h158l16 88q23 137 128 217t263 80q86 0 168 -21l-33 -188q-70 12 -114 12q-125 0 -144 -109l-14 -79h242l-37 -205h-242l-139 -797q-25 -137 -129 -216t-262 -79q-86 0 -168 21l33 188q55 -10 114 -10z" />
    <glyph glyph-name="Acaron" unicode="&#x1cd;" horiz-adv-x="1396" 
d="M621 1696l92 -78l94 78h219l-199 -185h-227l-199 185h220zM328 0h-318l135 352l379 1061h350l373 -1061l139 -352h-319l-100 301l-6 14h-529l-4 -14zM690 1149l-186 -602h379l-183 602h-10z" />
    <glyph glyph-name="acaron" unicode="&#x1ce;" horiz-adv-x="1142" 
d="M444 1413l111 -121l111 121h196l-198 -223h-218l-198 223h196zM752 129q-47 -69 -139 -109t-218 -40q-148 0 -243 75t-95 211q0 78 37.5 140.5t100.5 103t152.5 68.5t184 41.5t205.5 17.5v74q0 80 -45 118.5t-141 38.5q-90 0 -137 -47.5t-47 -118.5h-273q0 118 63.5 203
t167.5 125.5t236 40.5q217 0 331 -88t114 -252v-487q0 -33 15.5 -49.5t41.5 -16.5q35 0 59 12v-186q-68 -24 -168 -24q-78 0 -132 38t-62 97v14h-8zM322 301q0 -56 38.5 -89.5t110.5 -33.5q120 0 192 66t72 180v57q-199 0 -306 -46.5t-107 -133.5z" />
    <glyph glyph-name="Icaron" unicode="&#x1cf;" horiz-adv-x="579" 
d="M213 1696l92 -78l94 78h219l-198 -185h-227l-199 185h219zM438 0h-297l6 352v709l-6 352h297l-6 -352v-709z" />
    <glyph glyph-name="icaron" unicode="&#x1d0;" horiz-adv-x="520" 
d="M143 1413l111 -121l111 121h196l-199 -223h-217l-198 223h196zM403 0h-286l8 352v320l-8 377h286l-8 -377v-320z" />
    <glyph glyph-name="Ucaron" unicode="&#x1d3;" horiz-adv-x="1411" 
d="M629 1696l92 -78l94 78h219l-198 -185h-228l-198 185h219zM1278 559q0 -270 -151 -424.5t-414 -154.5q-269 0 -425.5 155t-156.5 424v502l-6 352h297l-6 -352v-494q0 -170 76 -260t219 -90q138 0 211 90t73 260v494l-8 352h299l-8 -352v-502z" />
    <glyph glyph-name="ucaron" unicode="&#x1d4;" horiz-adv-x="1126" 
d="M444 1413l111 -121l111 121h196l-198 -223h-218l-198 223h196zM733 115q-40 -67 -113 -102.5t-163 -35.5q-161 0 -253.5 105.5t-92.5 288.5v317l-9 361h289l-8 -361l-2 -270q1 -115 40 -174.5t111 -59.5q100 0 152 71.5t51 207.5l-2 225l-8 361h287l-8 -361v-336l8 -352
h-277l8 115h-10z" />
    <glyph glyph-name="Aringacute" unicode="&#x1fa;" horiz-adv-x="1396" 
d="M328 0h-318l135 352l379 1061h13q-9 24 -9 53q0 49 23.5 87t64.5 59l160 147h340l-297 -172q53 -47 53 -121q0 -32 -8 -53h10l373 -1061l139 -352h-319l-100 301l-6 14h-529l-4 -14zM635 1466q0 -36 31 -53h69q33 17 33 53q0 28 -19.5 46t-48.5 18t-47 -18t-18 -46z
M690 1149l-186 -602h379l-183 602h-10z" />
    <glyph glyph-name="aringacute" unicode="&#x1fb;" horiz-adv-x="1142" 
d="M567 1126q-70 0 -122 51.5t-52 120.5q0 55 32.5 99t84.5 63l108 135h326l-246 -186q41 -51 41 -111q0 -69 -51.5 -120.5t-120.5 -51.5zM567 1229q26 0 46 20.5t20 48.5q0 29 -20 50.5t-46 21.5q-28 0 -47.5 -21.5t-19.5 -50.5q0 -28 19.5 -48.5t47.5 -20.5zM752 129
q-47 -69 -139 -109t-218 -40q-148 0 -243 75t-95 211q0 78 37.5 140.5t100.5 103t152.5 68.5t184 41.5t205.5 17.5v74q0 80 -45 118.5t-141 38.5q-90 0 -137 -47.5t-47 -118.5h-273q0 118 63.5 203t167.5 125.5t236 40.5q217 0 331 -88t114 -252v-487q0 -33 15.5 -49.5
t41.5 -16.5q35 0 59 12v-186q-68 -24 -168 -24q-78 0 -132 38t-62 97v14h-8zM322 301q0 -56 38.5 -89.5t110.5 -33.5q120 0 192 66t72 180v57q-199 0 -306 -46.5t-107 -133.5z" />
    <glyph glyph-name="AEacute" unicode="&#x1fc;" horiz-adv-x="1882" 
d="M1462 1698l-323 -187h-217l200 187h340zM291 0h-332l178 330l551 1083h1092v-237h-635v-324h606v-240h-606v-374h655v-238h-930l9 301v14h-435l-8 -14zM866 1184l-301 -635h314v635h-13z" />
    <glyph glyph-name="aeacute" unicode="&#x1fd;" horiz-adv-x="1785" 
d="M1286 1413l-293 -223h-213l181 223h325zM815 190q-52 -102 -165.5 -156t-254.5 -54q-148 0 -243 75t-95 211q0 83 37.5 149.5t100.5 110t152 73.5t184.5 44.5t205.5 18.5v49q0 76 -48 116.5t-138 40.5q-89 0 -136.5 -43t-47.5 -123h-273q0 118 63.5 203t167.5 125.5
t236 40.5q230 0 330 -139h6q58 70 147.5 105.5t192.5 35.5q222 0 351.5 -138t129.5 -380v-76h-706q-4 -145 53 -221t170 -76q81 0 134.5 46t72.5 134h270q-22 -182 -148 -282t-333 -100q-294 0 -404 213zM1241 879q-97 0 -156 -62t-73 -176h440q-6 114 -61 176t-150 62z
M322 305q0 -58 38.5 -92.5t110.5 -34.5q117 0 190.5 77t73.5 194v57q-197 0 -305 -53.5t-108 -147.5z" />
    <glyph glyph-name="Oslashacute" unicode="&#x1fe;" horiz-adv-x="1615" 
d="M1229 1698l-324 -187h-217l201 187h340zM1499 715q0 -161 -45 -295.5t-129.5 -232.5t-213.5 -152.5t-290 -54.5q-266 0 -440 147l-143 -154h-232l264 279q-127 189 -127 465q0 207 77.5 367.5t232.5 255t368 94.5q257 0 434 -140l129 138h226l-242 -258
q131 -184 131 -459zM436 711q0 -141 39 -242l596 631q-99 96 -250 96q-123 0 -211.5 -65t-131 -173.5t-42.5 -246.5zM1206 709q0 140 -43 247l-600 -637q97 -102 258 -102q186 0 285.5 134.5t99.5 357.5z" />
    <glyph glyph-name="oslashacute" unicode="&#x1ff;" horiz-adv-x="1179" 
d="M973 1413l-293 -223h-213l180 223h326zM1098 522q0 -253 -135.5 -397.5t-370.5 -144.5q-173 0 -295 81l-51 -61h-211l147 174q-94 139 -94 348q0 253 135.5 401t368.5 148q164 0 285 -76l45 54h211l-140 -164q105 -142 105 -363zM360 524q0 -56 11 -127l356 422
q-54 45 -135 45q-112 0 -172 -88t-60 -252zM825 524q0 87 -14 144l-362 -428q56 -56 143 -56q114 0 173.5 87t59.5 253z" />
    <glyph glyph-name="Scommaaccent" unicode="&#x218;" horiz-adv-x="1306" 
d="M1243 420q0 -194 -158 -318.5t-415 -124.5q-294 0 -453.5 126.5t-159.5 377.5h293q0 -133 82.5 -203.5t243.5 -70.5q136 0 207 51.5t71 138.5q0 33 -15.5 58.5t-40.5 43t-70.5 33.5t-89.5 26.5t-113 23.5q-92 16 -164 37.5t-140 56.5t-113 81t-72 113.5t-27 151.5
q0 194 144.5 304t399.5 110q260 0 399.5 -119.5t147.5 -335.5h-293q-3 106 -72 166.5t-190 60.5q-119 0 -182.5 -44t-63.5 -128q0 -96 99 -144q65 -32 253 -68h1h1h1l1 -1h1h1h1h1l1 -1h1h1h1h1l1 -1h1h1h1h1h1l1 -1h1h1h1q23 -5 35 -7q215 -42 324.5 -133t109.5 -260z
M461 -371l84 330h246l-123 -330h-207z" />
    <glyph glyph-name="scommaaccent" unicode="&#x219;" horiz-adv-x="1026" 
d="M971 309q0 -152 -121 -240.5t-332 -88.5q-217 0 -341 99t-124 269h254q0 -84 55 -130t154 -46q98 0 148.5 36t50.5 103q0 36 -27.5 60.5t-72.5 35.5t-102 22.5t-116.5 21t-116.5 32t-101.5 54t-71 88t-25.5 133.5q2 139 121.5 226t310.5 87q201 0 312.5 -94.5
t111.5 -261.5h-254q0 78 -46 120t-130 42q-80 0 -125 -32.5t-45 -92.5q0 -36 27 -60.5t71.5 -36t101.5 -23.5t116.5 -21.5t116.5 -32t101.5 -53t71.5 -86t27 -130.5zM307 -371l84 330h246l-123 -330h-207z" />
    <glyph glyph-name="Tcommaaccent" unicode="&#x21a;" horiz-adv-x="1183" 
d="M745 0h-305l11 352v828h-422v235h1124v-235h-418v-828zM379 -371l84 330h246l-123 -330h-207z" />
    <glyph glyph-name="tcommaaccent" unicode="&#x21b;" horiz-adv-x="763" 
d="M733 4q-111 -24 -241 -24q-159 0 -238.5 85.5t-79.5 251.5v525h-137v207h145l-8 235h281l-9 -235h287v-207h-287v-494q0 -79 30 -116t95 -37q81 0 162 24v-215zM279 -371l83 330h246l-123 -330h-206z" />
    <glyph glyph-name="Ymacron" unicode="&#x232;" horiz-adv-x="1329" 
d="M340 1530v139h629v-139h-629zM817 0h-303l6 352v92l-313 619l-199 350h342l152 -350l160 -342h6l157 342l154 350h340l-199 -352l-311 -617v-92z" />
    <glyph glyph-name="ymacron" unicode="&#x233;" horiz-adv-x="1077" 
d="M225 1221v151h629v-151h-629zM549 -369h-275l138 351l-256 706l-144 361h316l104 -361l107 -352h6l102 352l105 361h317l-145 -359z" />
    <glyph glyph-name="jdotless" unicode="&#x237;" horiz-adv-x="526" 
d="M403 -45q0 -151 -84.5 -237.5t-230.5 -86.5q-39 0 -84 9v194q24 -4 33 -4q46 0 71 28.5t25 80.5v749l-8 361h285l-7 -361v-733z" />
    <glyph glyph-name="schwa" unicode="&#x259;" horiz-adv-x="1114" 
d="M72 690q28 182 152 282.5t329 100.5q235 0 365.5 -140.5t130.5 -395.5q0 -264 -132 -410.5t-370 -146.5q-221 0 -348 136.5t-133 381.5v75h706q4 142 -52 218.5t-165 76.5q-170 0 -211 -178h-272zM543 172q97 0 156 62t73 176h-440q6 -114 61 -176t150 -62z" />
    <glyph glyph-name="circumflex" unicode="&#x2c6;" 
d="M504 1190h-197l199 223h217l199 -223h-197l-111 121z" />
    <glyph glyph-name="caron" unicode="&#x2c7;" 
d="M498 1413l110 -121l111 121h196l-198 -223h-217l-199 223h197z" />
    <glyph glyph-name="breve" unicode="&#x2d8;" 
d="M143 1413h170q3 -46 36 -71t85 -25t85 25t36 71h168q0 -108 -81 -171.5t-208 -63.5q-128 0 -209 63t-82 172z" />
    <glyph glyph-name="dotaccent" unicode="&#x2d9;" 
d="M371 1210v203h268v-203h-268z" />
    <glyph glyph-name="ring" unicode="&#x2da;" 
d="M496 1126q-70 0 -122 51.5t-52 120.5q0 70 51.5 121t122.5 51q69 0 120.5 -51t51.5 -121q0 -69 -51.5 -120.5t-120.5 -51.5zM496 1229q26 0 45.5 20.5t19.5 48.5q0 29 -19.5 50.5t-45.5 21.5q-28 0 -48 -21.5t-20 -50.5q0 -28 20 -48.5t48 -20.5z" />
    <glyph glyph-name="ogonek" unicode="&#x2db;" 
d="M516 -305q-146 -64 -264 -64q-90 0 -138 39t-48 99q0 93 101.5 172.5t315.5 160.5l21 -100q-122 -45 -170.5 -79t-48.5 -66q0 -50 73 -50q56 0 158 37v-149z" />
    <glyph glyph-name="tilde" unicode="&#x2dc;" 
d="M268 1186h-118q0 260 192 260q41 0 77 -16.5t57 -36t47.5 -36t51.5 -16.5q84 0 84 109h119q0 -260 -184 -260q-42 0 -77.5 16t-56 36t-49.5 36t-59 16q-84 0 -84 -108z" />
    <glyph glyph-name="hungarumlaut" unicode="&#x2dd;" 
d="M618 1413l-280 -223h-205l172 223h313zM1036 1413l-280 -223h-205l172 223h313z" />
    <glyph glyph-name="gravecomb" unicode="&#x300;" horiz-adv-x="1067" 
d="M213 1413h326l180 -223h-213z" />
    <glyph glyph-name="acutecomb" unicode="&#x301;" horiz-adv-x="1067" 
d="M864 1413l-293 -223h-213l181 223h325z" />
    <glyph glyph-name="circumflexcomb" unicode="&#x302;" horiz-adv-x="841" 
d="M311 1190h-196l198 223h217l199 -223h-197l-110 121z" />
    <glyph glyph-name="tildecomb" unicode="&#x303;" horiz-adv-x="929" 
d="M268 1186h-118q0 260 192 260q41 0 77 -16.5t57 -36t47.5 -36t51.5 -16.5q84 0 84 109h119q0 -260 -184 -260q-42 0 -77.5 16t-56 36t-49.5 36t-59 16q-84 0 -84 -108z" />
    <glyph glyph-name="macroncomb" unicode="&#x304;" horiz-adv-x="968" 
d="M170 1227v151h629v-151h-629z" />
    <glyph glyph-name="brevecomb" unicode="&#x306;" horiz-adv-x="866" 
d="M143 1413h170q3 -46 36 -71t85 -25t85 25t36 71h168q0 -108 -81 -171.5t-208 -63.5q-128 0 -209 63t-82 172z" />
    <glyph glyph-name="dotaccentcomb" unicode="&#x307;" horiz-adv-x="1009" 
d="M371 1210v203h268v-203h-268z" />
    <glyph glyph-name="dieresiscomb" unicode="&#x308;" horiz-adv-x="1009" 
d="M590 1210v203h254v-203h-254zM166 1210v203h254v-203h-254z" />
    <glyph glyph-name="ringcomb" unicode="&#x30a;" horiz-adv-x="991" 
d="M496 1126q-70 0 -122 51.5t-52 120.5q0 70 51.5 121t122.5 51q69 0 120.5 -51t51.5 -121q0 -69 -51.5 -120.5t-120.5 -51.5zM496 1229q26 0 45.5 20.5t19.5 48.5q0 29 -19.5 50.5t-45.5 21.5q-28 0 -48 -21.5t-20 -50.5q0 -28 20 -48.5t48 -20.5z" />
    <glyph glyph-name="hungarumlautcomb" unicode="&#x30b;" horiz-adv-x="1112" 
d="M618 1413l-280 -223h-205l172 223h313zM1036 1413l-280 -223h-205l172 223h313z" />
    <glyph glyph-name="caroncomb" unicode="&#x30c;" horiz-adv-x="858" 
d="M311 1413l111 -121l110 121h197l-199 -223h-217l-198 223h196z" />
    <glyph glyph-name="commaturnedabovecomb" unicode="&#x312;" horiz-adv-x="591" 
d="M496 1413l-86 -328h-244l123 328h207z" />
    <glyph glyph-name="commaaboverightcomb" unicode="&#x315;" horiz-adv-x="591" 
d="M188 1085l84 328h246l-123 -328h-207z" />
    <glyph glyph-name="commaaccentcomb" unicode="&#x326;" horiz-adv-x="565" 
d="M68 -371l84 330h245l-123 -330h-206z" />
    <glyph glyph-name="cedillacomb" unicode="&#x327;" horiz-adv-x="815" 
d="M377 -369q-86 0 -141.5 36.5t-55.5 94.5h139q0 -20 15 -31.5t41 -11.5t41.5 16t15.5 42q0 25 -21.5 42t-56.5 17h-100l41 205h137l-24 -127q82 0 121.5 -39.5t39.5 -99.5q0 -65 -51 -104.5t-141 -39.5z" />
    <glyph glyph-name="ogonekcomb" unicode="&#x328;" horiz-adv-x="614" 
d="M516 -305q-146 -64 -264 -64q-90 0 -138 39t-48 99q0 93 101.5 172.5t315.5 160.5l21 -100q-122 -45 -170.5 -79t-48.5 -66q0 -50 73 -50q56 0 158 37v-149z" />
    <glyph glyph-name="strokeshortcomb" unicode="&#x335;" horiz-adv-x="716" 
d="M696 1325v-174h-696v174h696z" />
    <glyph glyph-name="strokelongcomb" unicode="&#x336;" horiz-adv-x="1335" 
d="M1294 1325v-174h-1253v174h1253z" />
    <glyph glyph-name="slashshortcomb" unicode="&#x337;" horiz-adv-x="1234" 
d="M1161 1049l-887 -1049h-211l887 1049h211z" />
    <glyph glyph-name="slashlongcomb" unicode="&#x338;" horiz-adv-x="1603" 
d="M1604 1436l-1373 -1459h-231l1378 1459h226z" />
    <glyph glyph-name="Delta" unicode="&#x394;" horiz-adv-x="1345" 
d="M43 233l494 1180h272l496 -1180v-208h-1262v208zM1040 231l-366 940l-369 -940h735z" />
    <glyph glyph-name="Omega" unicode="&#x3a9;" horiz-adv-x="1587" 
d="M420 227q-147 67 -226 201.5t-79 325.5q0 116 28.5 219t85 187.5t137 145.5t190 94.5t237.5 33.5q161 0 290.5 -51.5t214.5 -143t130 -215.5t45 -270q0 -190 -80.5 -325t-225.5 -202h152l184 11v-236l-184 6h-436v219q130 31 212.5 170t82.5 328q0 134 -42.5 239
t-131 168.5t-211.5 63.5q-122 0 -210.5 -63.5t-131.5 -168.5t-43 -239q0 -189 82 -328t212 -170v-219h-436l-182 -6v236l182 -11h154z" />
    <glyph glyph-name="mu" unicode="&#x3bc;" horiz-adv-x="1220" 
d="M121 672l-8 377h286l-8 -377l-2 -209q-2 -135 55 -207t166 -72q107 0 163.5 72t55.5 207l-2 209l-8 377h287l-8 -377v-365l6 -307h-275l13 115h-11q-29 -64 -88 -101t-133 -37q-75 0 -134.5 36.5t-88.5 101.5h-10l14 -484h-276l6 308v733z" />
    <glyph glyph-name="pi" unicode="&#x3c0;" horiz-adv-x="1417" 
d="M41 1049h1307v-271h-197l-4 -121v-370q0 -52 25 -80.5t71 -28.5q49 0 105 21v-193q-83 -26 -156 -26q-146 0 -230.5 83t-84.5 226v368l-3 121h-360l-2 -121v-297l8 -360h-287l9 360v297l-2 121h-199v271z" />
    <glyph glyph-name="Wgrave" unicode="&#x1e80;" horiz-adv-x="1953" 
d="M565 1698h340l201 -187h-217zM760 0h-318l-309 1061l-119 352h336l76 -352l182 -713h6l265 699l-115 366h291l110 -442l172 -623h9l182 713l76 352h333l-118 -352l-306 -1061h-327l-195 696h-6z" />
    <glyph glyph-name="wgrave" unicode="&#x1e81;" horiz-adv-x="1566" 
d="M440 1413h326l180 -223h-213zM621 0h-263l-221 688l-121 361h299l86 -361l103 -397h8l160 426l-97 332h275l82 -332l121 -420h6l104 391l90 361h301l-124 -361l-224 -688h-262l-139 444h-10z" />
    <glyph glyph-name="Wacute" unicode="&#x1e82;" horiz-adv-x="1953" 
d="M1386 1698l-323 -187h-217l201 187h339zM760 0h-318l-309 1061l-119 352h336l76 -352l182 -713h6l265 699l-115 366h291l110 -442l172 -623h9l182 713l76 352h333l-118 -352l-306 -1061h-327l-195 696h-6z" />
    <glyph glyph-name="wacute" unicode="&#x1e83;" horiz-adv-x="1566" 
d="M1153 1413l-293 -223h-213l180 223h326zM621 0h-263l-221 688l-121 361h299l86 -361l103 -397h8l160 426l-97 332h275l82 -332l121 -420h6l104 391l90 361h301l-124 -361l-224 -688h-262l-139 444h-10z" />
    <glyph glyph-name="Wdieresis" unicode="&#x1e84;" horiz-adv-x="1953" 
d="M1065 1509v177h254v-177h-254zM641 1509v177h254v-177h-254zM760 0h-318l-309 1061l-119 352h336l76 -352l182 -713h6l265 699l-115 366h291l110 -442l172 -623h9l182 713l76 352h333l-118 -352l-306 -1061h-327l-195 696h-6z" />
    <glyph glyph-name="wdieresis" unicode="&#x1e85;" horiz-adv-x="1566" 
d="M866 1210v203h254v-203h-254zM442 1210v203h254v-203h-254zM621 0h-263l-221 688l-121 361h299l86 -361l103 -397h8l160 426l-97 332h275l82 -332l121 -420h6l104 391l90 361h301l-124 -361l-224 -688h-262l-139 444h-10z" />
    <glyph glyph-name="Germandbls" unicode="&#x1e9e;" horiz-adv-x="1445" 
d="M420 0h-293l8 352v627q0 212 153 333.5t427 121.5q153 0 306.5 -43t266.5 -117l-188 -465q127 -33 202.5 -145t75.5 -256q0 -199 -124 -313.5t-339 -114.5q-110 0 -227 24l10 223q61 -24 170 -24q107 0 164.5 57t57.5 164q0 110 -77.5 176t-215.5 66l190 487
q-143 49 -276 49q-299 0 -299 -227v-623z" />
    <glyph glyph-name="Ygrave" unicode="&#x1ef2;" horiz-adv-x="1329" 
d="M242 1698h340l200 -187h-217zM817 0h-303l6 352v92l-313 619l-199 350h342l152 -350l160 -342h6l157 342l154 350h340l-199 -352l-311 -617v-92z" />
    <glyph glyph-name="ygrave" unicode="&#x1ef3;" horiz-adv-x="1077" 
d="M201 1413h325l181 -223h-213zM549 -369h-275l138 351l-256 706l-144 361h316l104 -361l107 -352h6l102 352l105 361h317l-145 -359z" />
    <glyph glyph-name="endash" unicode="&#x2013;" horiz-adv-x="1099" 
d="M106 526v197h887v-197h-887z" />
    <glyph glyph-name="emdash" unicode="&#x2014;" horiz-adv-x="1585" 
d="M106 520v197h1373v-197h-1373z" />
    <glyph glyph-name="quoteleft" unicode="&#x2018;" horiz-adv-x="438" 
d="M362 942h-180l-145 471h252z" />
    <glyph glyph-name="quoteright" unicode="&#x2019;" horiz-adv-x="438" 
d="M76 942l74 471h251l-145 -471h-180z" />
    <glyph glyph-name="quotesinglbase" unicode="&#x201a;" horiz-adv-x="444" 
d="M39 -252l74 471h252l-146 -471h-180z" />
    <glyph glyph-name="quotedblleft" unicode="&#x201c;" horiz-adv-x="796" 
d="M362 942h-180l-145 471h252zM721 942h-180l-146 471h252z" />
    <glyph glyph-name="quotedblright" unicode="&#x201d;" horiz-adv-x="796" 
d="M434 942l74 471h252l-146 -471h-180zM76 942l74 471h251l-145 -471h-180z" />
    <glyph glyph-name="quotedblbase" unicode="&#x201e;" horiz-adv-x="802" 
d="M397 -252l74 471h252l-145 -471h-181zM39 -252l74 471h252l-146 -471h-180z" />
    <glyph glyph-name="dagger" unicode="&#x2020;" horiz-adv-x="1095" 
d="M678 -248h-260l8 377v662l-379 -9v262l379 -8l-8 377h260l-8 -377l379 8v-262l-379 9v-662z" />
    <glyph glyph-name="daggerdbl" unicode="&#x2021;" horiz-adv-x="1191" 
d="M727 -248h-262l8 377l-377 -8v262l377 -8v416l-377 -9v262l377 -8l-8 377h262l-8 -377l377 8v-262l-377 9v-416l377 8v-262l-377 8z" />
    <glyph glyph-name="bullet" unicode="&#x2022;" horiz-adv-x="583" 
d="M291 494q-66 0 -108 41.5t-42 107.5t42 108t108 42t107.5 -42t41.5 -108t-41.5 -107.5t-107.5 -41.5z" />
    <glyph glyph-name="ellipsis" unicode="&#x2026;" horiz-adv-x="1234" 
d="M852 0v285h285v-285h-285zM475 0v285h285v-285h-285zM98 0v285h285v-285h-285z" />
    <glyph glyph-name="perthousand" unicode="&#x2030;" horiz-adv-x="2684" 
d="M422 580q-165 0 -263 116.5t-98 313.5q0 200 98.5 317t266.5 117q166 0 263 -116.5t97 -317.5q0 -198 -98.5 -314t-265.5 -116zM326 0l1054 1415h172l-1052 -1415h-174zM422 1292q-79 0 -121.5 -72.5t-42.5 -209.5q0 -136 43 -208.5t121 -72.5q80 0 124 72.5t44 208.5
q0 137 -44 209.5t-124 72.5zM1475 -14q-165 0 -263 116.5t-98 313.5q0 200 98.5 317t266.5 117q166 0 263 -116.5t97 -317.5q0 -198 -98.5 -314t-265.5 -116zM2259 -14q-165 0 -263 116.5t-98 313.5q0 200 98.5 317t266.5 117q166 0 263 -116.5t97 -317.5q0 -198 -98.5 -314
t-265.5 -116zM1475 698q-79 0 -121.5 -72.5t-42.5 -209.5q0 -136 43 -208.5t121 -72.5q80 0 123.5 72.5t43.5 208.5q0 137 -43.5 209.5t-123.5 72.5zM2259 698q-79 0 -121.5 -72.5t-42.5 -209.5q0 -136 43 -208.5t121 -72.5q80 0 124 72.5t44 208.5q0 137 -44 209.5
t-124 72.5z" />
    <glyph glyph-name="guilsinglleft" unicode="&#x2039;" horiz-adv-x="796" 
d="M430 98l-391 424l391 422h299l-412 -422l412 -424h-299z" />
    <glyph glyph-name="guilsinglright" unicode="&#x203a;" horiz-adv-x="796" 
d="M367 98h-299l413 424l-413 422h299l391 -422z" />
    <glyph glyph-name="fraction" unicode="&#x2044;" horiz-adv-x="593" 
d="M-315 0l1054 1415h172l-1052 -1415h-174z" />
    <glyph glyph-name="zerosuperior" unicode="&#x2070;" horiz-adv-x="880" 
d="M438 791q-165 0 -262.5 116t-97.5 314q0 201 98 317.5t266 116.5q166 0 263.5 -116.5t97.5 -317.5q0 -198 -99 -314t-266 -116zM438 1503q-79 0 -121.5 -72.5t-42.5 -209.5q0 -136 43 -208.5t121 -72.5q80 0 124 72.5t44 208.5q0 137 -44 209.5t-124 72.5z" />
    <glyph glyph-name="foursuperior" unicode="&#x2074;" horiz-adv-x="880" 
d="M59 983l2 154l385 501h250l-4 -227v-278h123v-150h-123v-20l4 -158h-186l4 158v20h-455zM238 1133h276v335z" />
    <glyph glyph-name="fivesuperior" unicode="&#x2075;" horiz-adv-x="880" 
d="M96 1047h197q-1 -50 37 -77.5t106 -27.5q72 0 113 40.5t41 109.5t-40.5 108t-113.5 39q-103 0 -133 -68h-176l31 467h571v-149h-414l-20 -184h4q63 81 207 81q126 0 200 -77.5t74 -210.5q0 -142 -91.5 -222.5t-254.5 -80.5q-153 0 -245.5 68t-92.5 184z" />
    <glyph glyph-name="sixsuperior" unicode="&#x2076;" horiz-adv-x="880" 
d="M174 909q-43 54 -65.5 134.5t-22.5 168.5q0 92 22 170.5t65.5 140.5t116 97t167.5 35q140 0 225 -60.5t88 -160.5h-195q-4 33 -37 52t-83 19q-55 0 -94.5 -23t-59 -61.5t-28 -77.5t-9.5 -83h6q23 47 86 74.5t148 27.5q141 0 220 -75.5t79 -203.5q0 -127 -93.5 -207.5
t-248.5 -80.5q-90 0 -166 28.5t-121 85.5zM451 1223q-78 0 -119 -37.5t-41 -108.5q0 -70 41 -106.5t119 -36.5q155 0 155 143q0 71 -39.5 108.5t-115.5 37.5z" />
    <glyph glyph-name="sevensuperior" unicode="&#x2077;" horiz-adv-x="880" 
d="M102 1470v168h680v-141q-143 -203 -235.5 -363.5t-159.5 -328.5h-213q137 327 373 659v6h-445z" />
    <glyph glyph-name="eightsuperior" unicode="&#x2078;" horiz-adv-x="880" 
d="M276 1255q-77 22 -121 71.5t-44 113.5q0 102 89 161.5t242 59.5q152 0 240 -59.5t88 -161.5q0 -64 -44.5 -113.5t-121.5 -71.5v-4q92 -19 145.5 -77t53.5 -140q0 -112 -96.5 -175.5t-264.5 -63.5t-264 63.5t-96 175.5q0 80 52.5 138.5t141.5 78.5v4zM442 1518
q-66 0 -101.5 -25t-35.5 -72q0 -96 137 -96q64 0 98.5 24.5t34.5 71.5t-35 72t-98 25zM442 1176q-80 0 -123 -30.5t-43 -88.5t43 -88.5t123 -30.5t122 30.5t42 88.5t-42 88.5t-122 30.5z" />
    <glyph glyph-name="ninesuperior" unicode="&#x2079;" horiz-adv-x="880" 
d="M381 1090q-142 0 -222.5 73.5t-80.5 200.5q0 128 93.5 209.5t242.5 81.5q216 0 307 -129q72 -94 72 -289q0 -204 -99.5 -323t-287.5 -119q-138 0 -219 60.5t-81 164.5h191q6 -39 38.5 -60.5t86.5 -21.5q69 0 114 39t62.5 93.5t17.5 121.5h-6q-22 -47 -82 -74.5
t-147 -27.5zM440 1516q-166 0 -166 -146q0 -69 41.5 -105t120.5 -36q73 0 112.5 34.5t39.5 100.5q0 74 -38 113t-110 39z" />
    <glyph glyph-name="zeroinferior" unicode="&#x2080;" horiz-adv-x="880" 
d="M438 -260q-165 0 -262.5 116t-97.5 314q0 201 98 317.5t266 116.5q166 0 263.5 -116.5t97.5 -317.5q0 -198 -99 -314t-266 -116zM438 453q-78 0 -121 -73t-43 -210q0 -136 43 -208.5t121 -72.5q80 0 124 72.5t44 208.5q0 137 -44 210t-124 73z" />
    <glyph glyph-name="oneinferior" unicode="&#x2081;" horiz-adv-x="880" 
d="M201 -246v172h227l2 35v424q-22 -17 -109.5 -60.5t-123.5 -58.5v168q43 22 132.5 74.5t121.5 79.5h176l-4 -228v-434h196v-172h-618z" />
    <glyph glyph-name="twoinferior" unicode="&#x2082;" horiz-adv-x="880" 
d="M299 305h-197q0 137 95.5 216t261.5 79q127 0 208 -65t81 -173q0 -65 -29.5 -110t-118.5 -127q-157 -148 -229 -215h413v-156h-686v99q58 56 159 150t140 132q101 99 129.5 138t28.5 81q0 48 -32 72.5t-87 24.5q-66 0 -101.5 -38t-35.5 -108z" />
    <glyph glyph-name="threeinferior" unicode="&#x2083;" horiz-adv-x="880" 
d="M438 600q148 0 233 -57t85 -154q0 -59 -49.5 -107t-133.5 -63v-6q97 -10 157.5 -69t60.5 -138q0 -123 -94.5 -193.5t-258.5 -70.5q-167 0 -263.5 71t-96.5 193h194q0 -115 160 -115q75 0 115.5 28.5t40.5 82.5q0 113 -201 113h-53v143h37q89 0 136.5 26.5t47.5 77.5
q0 43 -31.5 66t-91.5 23q-124 0 -127 -111h-201q0 121 89.5 190.5t244.5 69.5z" />
    <glyph glyph-name="fourinferior" unicode="&#x2084;" horiz-adv-x="880" 
d="M59 -68l2 154l385 502h250l-4 -228v-278h123v-150h-123v-20l4 -158h-186l4 158v20h-455zM238 82h276v336z" />
    <glyph glyph-name="fiveinferior" unicode="&#x2085;" horiz-adv-x="880" 
d="M96 -4h197q-1 -50 37 -77.5t106 -27.5q72 0 113 40.5t41 109.5t-40.5 108t-113.5 39q-104 0 -133 -67h-176l31 467h571v-150h-414l-20 -184h4q63 82 207 82q126 0 200 -78t74 -211q0 -142 -91.5 -222.5t-254.5 -80.5q-153 0 -245.5 68t-92.5 184z" />
    <glyph glyph-name="sixinferior" unicode="&#x2086;" horiz-adv-x="880" 
d="M174 -141q-43 54 -65.5 134.5t-22.5 168.5q0 92 22 170.5t65.5 140t116 96.5t167.5 35q140 0 225 -60.5t88 -160.5h-195q-4 33 -37 52.5t-83 19.5q-55 0 -94.5 -23t-59 -62t-28 -78t-9.5 -83h6q23 47 86 74.5t148 27.5q141 0 220 -75t79 -203t-93.5 -208.5t-248.5 -80.5
q-89 0 -165.5 28.5t-121.5 86.5zM451 172q-78 0 -119 -37t-41 -108q0 -70 41 -107t119 -37q155 0 155 144q0 71 -39.5 108t-115.5 37z" />
    <glyph glyph-name="seveninferior" unicode="&#x2087;" horiz-adv-x="880" 
d="M102 420v168h680v-142q-143 -203 -235.5 -363.5t-159.5 -328.5h-213q138 330 373 660v6h-445z" />
    <glyph glyph-name="eightinferior" unicode="&#x2088;" horiz-adv-x="880" 
d="M276 205q-77 22 -121 71t-44 113q0 102 89 161.5t242 59.5q152 0 240 -59.5t88 -161.5q0 -64 -44.5 -113t-121.5 -71v-4q92 -19 145.5 -77t53.5 -140q0 -112 -96.5 -176t-264.5 -64t-264 64t-96 176q0 80 52.5 138.5t141.5 78.5v4zM442 467q-137 0 -137 -96
q0 -47 35.5 -72t101.5 -25q63 0 98 25t35 72t-34.5 71.5t-98.5 24.5zM442 125q-80 0 -123 -30.5t-43 -88.5t43 -88.5t123 -30.5t122 30.5t42 88.5t-42 88.5t-122 30.5z" />
    <glyph glyph-name="nineinferior" unicode="&#x2089;" horiz-adv-x="880" 
d="M381 39q-142 0 -222.5 73.5t-80.5 200.5q0 128 93.5 209.5t242.5 81.5q216 0 307 -129q72 -94 72 -289q0 -204 -99.5 -323t-287.5 -119q-138 0 -219 60.5t-81 164.5h191q6 -39 38.5 -60.5t86.5 -21.5q69 0 114 39t62.5 93.5t17.5 121.5h-6q-22 -47 -82 -74.5t-147 -27.5z
M440 465q-166 0 -166 -146q0 -69 41.5 -105t120.5 -36q73 0 112.5 35t39.5 100q0 74 -38 113t-110 39z" />
    <glyph glyph-name="euro" unicode="&#x20ac;" horiz-adv-x="1570" 
d="M954 764h-884v188h174q18 78 51.5 147.5t87.5 131.5t124 106.5t165 70.5t205 26q182 0 317.5 -67.5t208 -182.5t82.5 -264l-301 -2q-50 278 -316 278q-121 0 -202 -66.5t-113 -177.5h401v-188zM70 657h884v-188h-401q32 -121 119.5 -186.5t212.5 -65.5q262 0 313 305h299
q-30 -248 -193.5 -395t-420.5 -147q-259 0 -422 133.5t-215 355.5h-176v188z" />
    <glyph glyph-name="numero" unicode="&#x2116;" horiz-adv-x="2181" 
d="M2097 1104q0 -151 -89 -238.5t-243 -87.5q-152 0 -239.5 87.5t-87.5 238.5q0 154 87.5 242t239.5 88q154 0 243 -88t89 -242zM436 0h-291l7 352v709l-7 352h269l530 -762l119 -176h8v586l-8 352h293l-8 -352v-725l8 -336h-264l-545 764l-111 170h-8v-582zM1640 1108
q0 -88 32 -134t93 -46q62 0 95.5 46.5t33.5 133.5q0 86 -33.5 132t-95.5 46q-61 0 -93 -45.5t-32 -132.5zM1448 524v156h661v-156h-661z" />
    <glyph glyph-name="servicemark" unicode="&#x2120;" horiz-adv-x="1703" 
d="M690 909q0 -94 -84 -154.5t-217 -60.5q-139 0 -223 68.5t-84 181.5h156q0 -63 37.5 -98t107.5 -35q73 0 114.5 25.5t41.5 72.5q0 33 -33.5 53t-83 27.5t-108 21.5t-108 33.5t-83 65.5t-33.5 115q0 95 81 152t216 57q127 0 204 -65.5t77 -172.5h-138q0 59 -38 91t-109 32
q-68 0 -104.5 -25t-36.5 -69q0 -27 24.5 -45t64 -28t87.5 -19t96 -23.5t87.5 -37t64 -64t24.5 -99.5zM948 700h-166l9 170v387l-9 158h205l195 -512h2l196 512h207l-8 -168v-377l8 -170h-164l7 168l2 256l2 107l-187 -502h-137l-176 500l6 -105v-256z" />
    <glyph glyph-name="trademark" unicode="&#x2122;" horiz-adv-x="1708" 
d="M778 700l6 170v387l-6 158h205l195 -512l198 512h205l-6 -168v-377l6 -170h-164l8 168l2 256l3 107l-187 -502h-137l-176 500l6 -105v-256l8 -168h-166zM289 700l8 261l-4 325h-244v129h653v-129h-241l-4 -325l8 -261h-176z" />
    <glyph glyph-name="estimated" unicode="&#x212e;" horiz-adv-x="1120" 
d="M565 -20q-226 0 -355.5 138.5t-129.5 391.5q0 260 130 406.5t359 146.5q224 0 350.5 -119t135.5 -352v-74h-774v-397q111 -90 288 -90q126 0 229.5 58t159.5 175l46 -24q-64 -126 -177.5 -193t-261.5 -67zM281 913v-344h573v363q-101 80 -283 80q-183 0 -290 -99z" />
    <glyph glyph-name="oneseventh" unicode="&#x2150;" horiz-adv-x="2080" 
d="M203 594v172h227l2 35v424q-22 -17 -109.5 -60.5t-123.5 -58.5v168q45 23 133.5 74.5t120.5 78.5h176l-4 -227v-434h196v-172h-618zM459 0l1054 1415h173l-1053 -1415h-174zM1303 666v168h679v-142q-143 -203 -235.5 -363.5t-159.5 -328.5h-213q137 327 373 659v7h-444z
" />
    <glyph glyph-name="oneninth" unicode="&#x2151;" horiz-adv-x="2002" 
d="M203 594v172h227l2 35v424q-22 -17 -109.5 -60.5t-123.5 -58.5v168q45 23 133.5 74.5t120.5 78.5h176l-4 -227v-434h196v-172h-618zM467 0l1055 1415h172l-1053 -1415h-174zM1503 285q-142 0 -222.5 73.5t-80.5 200.5q0 128 93.5 209.5t242.5 81.5q216 0 307 -129
q72 -94 72 -289q0 -204 -99.5 -323t-287.5 -119q-138 0 -218.5 60.5t-80.5 164.5h190q6 -39 38.5 -60.5t86.5 -21.5q100 0 147.5 74.5t47.5 179.5h-6q-22 -47 -82.5 -74.5t-147.5 -27.5zM1563 711q-166 0 -166 -146q0 -69 41.5 -105t120.5 -36q72 0 111.5 34.5t39.5 100.5
q0 74 -37.5 113t-109.5 39z" />
    <glyph glyph-name="onetenth" unicode="&#x2152;" horiz-adv-x="2678" 
d="M203 594v172h227l2 35v424q-22 -17 -109.5 -60.5t-123.5 -58.5v168q45 23 133.5 74.5t120.5 78.5h176l-4 -227v-434h196v-172h-618zM438 0l1055 1415h172l-1053 -1415h-174zM2236 -14q-165 0 -262.5 116t-97.5 314q0 200 98.5 317t266.5 117q166 0 263 -116.5t97 -317.5
q0 -198 -99 -314t-266 -116zM1264 0v172h227l2 35v424q-22 -17 -109.5 -60.5t-123.5 -58.5v168q42 22 131.5 74.5t121.5 79.5h177l-4 -228v-434h196v-172h-618zM2236 698q-78 0 -120.5 -72.5t-42.5 -209.5q0 -136 42.5 -208.5t120.5 -72.5q80 0 124 72.5t44 208.5
q0 137 -44 209.5t-124 72.5z" />
    <glyph glyph-name="onethird" unicode="&#x2153;" horiz-adv-x="2043" 
d="M203 594v172h227l2 35v424q-22 -17 -109.5 -60.5t-123.5 -58.5v168q45 23 133.5 74.5t120.5 78.5h176l-4 -227v-434h196v-172h-618zM479 0l1055 1415h172l-1053 -1415h-174zM1602 846q148 0 232.5 -57t84.5 -154q0 -59 -49 -107t-133 -63v-6q97 -10 157 -69t60 -138
q0 -123 -94 -193.5t-258 -70.5q-167 0 -264 71t-97 193h195q0 -115 159 -115q75 0 115.5 28.5t40.5 82.5q0 112 -201 112h-53v144h37q89 0 136.5 26.5t47.5 77.5q0 88 -123 88q-124 0 -127 -110h-200q0 121 89.5 190.5t244.5 69.5z" />
    <glyph glyph-name="twothirds" unicode="&#x2154;" horiz-adv-x="2041" 
d="M299 1145h-197q0 137 95.5 216t261.5 79q127 0 208 -65t81 -173q0 -65 -29.5 -110t-118.5 -127q-157 -148 -229 -215h413v-156h-686v98q57 55 158 149.5t141 133.5q101 99 129.5 138t28.5 81q0 48 -32 72t-87 24q-66 0 -101.5 -37.5t-35.5 -107.5zM477 0l1055 1415h172
l-1053 -1415h-174zM1602 846q148 0 232.5 -57t84.5 -154q0 -59 -49 -107t-133 -63v-6q97 -10 157 -69t60 -138q0 -123 -94 -193.5t-258 -70.5q-167 0 -264 71t-97 193h195q0 -115 159 -115q75 0 115.5 28.5t40.5 82.5q0 112 -201 112h-53v144h37q89 0 136.5 26.5t47.5 77.5
q0 88 -123 88q-124 0 -127 -110h-200q0 121 89.5 190.5t244.5 69.5z" />
    <glyph glyph-name="onefifth" unicode="&#x2155;" horiz-adv-x="2080" 
d="M201 594v172h227l2 35v424q-22 -17 -109.5 -60.5t-123.5 -58.5v168q45 23 133.5 74.5t120.5 78.5h176l-4 -227v-434h196v-172h-618zM479 0l1055 1415h172l-1053 -1415h-174zM1296 242h197q-1 -50 37 -77.5t106 -27.5q72 0 113 40.5t41 109.5t-40.5 108t-113.5 39
q-104 0 -133 -67h-176l31 467h571v-150h-413l-21 -184h4q63 82 207 82q126 0 200 -78t74 -211q0 -142 -91.5 -222.5t-254.5 -80.5q-153 0 -245.5 68t-92.5 184z" />
    <glyph glyph-name="twofifths" unicode="&#x2156;" horiz-adv-x="2080" 
d="M299 1145h-197q0 137 95.5 216t261.5 79q127 0 208 -65t81 -173q0 -65 -29.5 -110t-118.5 -127q-157 -148 -229 -215h413v-156h-686v98q57 55 158 149.5t141 133.5q101 99 129.5 138t28.5 81q0 48 -32 72t-87 24q-66 0 -101.5 -37.5t-35.5 -107.5zM481 0l1055 1415h172
l-1053 -1415h-174zM1296 242h197q-1 -50 37 -77.5t106 -27.5q72 0 113 40.5t41 109.5t-40.5 108t-113.5 39q-104 0 -133 -67h-176l31 467h571v-150h-413l-21 -184h4q63 82 207 82q126 0 200 -78t74 -211q0 -142 -91.5 -222.5t-254.5 -80.5q-153 0 -245.5 68t-92.5 184z" />
    <glyph glyph-name="threefifths" unicode="&#x2157;" horiz-adv-x="2039" 
d="M438 1440q148 0 233 -57t85 -154q0 -59 -49.5 -107t-133.5 -63v-6q97 -10 157.5 -69t60.5 -138q0 -123 -94.5 -193.5t-258.5 -70.5q-167 0 -263.5 71t-96.5 193h194q0 -115 160 -115q75 0 115.5 28.5t40.5 82.5q0 112 -201 112h-53v144h37q89 0 136.5 26.5t47.5 77.5
q0 88 -123 88q-124 0 -127 -110h-201q0 121 89.5 190.5t244.5 69.5zM428 0l1055 1415h172l-1053 -1415h-174zM1255 242h197q-1 -50 37 -77.5t106 -27.5q72 0 113 40.5t41 109.5t-40.5 108t-113.5 39q-104 0 -133 -67h-176l31 467h571v-150h-413l-21 -184h4q63 82 207 82
q126 0 200 -78t74 -211q0 -142 -91.5 -222.5t-254.5 -80.5q-153 0 -245.5 68t-92.5 184z" />
    <glyph glyph-name="fourfifths" unicode="&#x2158;" horiz-adv-x="2056" 
d="M59 772l2 154l385 501h250l-4 -227v-278h123v-150h-123v-20l4 -158h-186l4 158v20h-455zM449 0l1054 1415h172l-1052 -1415h-174zM238 922h276v335zM1272 242h196q-1 -50 37.5 -77.5t106.5 -27.5q72 0 112.5 40.5t40.5 109.5t-40 108t-113 39q-104 0 -133 -67h-176
l30 467h572v-150h-414l-21 -184h5q63 82 206 82q126 0 200.5 -78t74.5 -211q0 -142 -91.5 -222.5t-254.5 -80.5q-153 0 -245.5 68t-92.5 184z" />
    <glyph glyph-name="onesixth" unicode="&#x2159;" horiz-adv-x="2043" 
d="M201 594v172h227l2 35v424q-22 -17 -109.5 -60.5t-123.5 -58.5v168q45 23 133.5 74.5t120.5 78.5h176l-4 -227v-434h196v-172h-618zM483 0l1055 1415h172l-1053 -1415h-174zM1337 104q-43 54 -65.5 135t-22.5 169q0 92 22 170.5t65.5 140t116 96.5t167.5 35
q140 0 225 -60.5t88 -160.5h-194q-4 33 -37.5 52t-83.5 19q-55 0 -94.5 -23t-59 -61.5t-28 -77.5t-9.5 -83h7q23 47 85.5 74.5t147.5 27.5q141 0 220 -75t79 -203t-93.5 -208.5t-248.5 -80.5q-90 0 -166 28.5t-121 85.5zM1614 418q-78 0 -119 -37.5t-41 -108.5
q0 -70 41 -106.5t119 -36.5q155 0 155 143q0 71 -39.5 108.5t-115.5 37.5z" />
    <glyph glyph-name="fivesixths" unicode="&#x215a;" horiz-adv-x="2002" 
d="M96 836h197q-1 -50 37 -77.5t106 -27.5q72 0 113 40.5t41 109.5t-40.5 108t-113.5 39q-104 0 -133 -67h-176l31 466h571v-149h-414l-20 -184h4q63 82 207 82q126 0 200 -78t74 -211q0 -142 -91.5 -222.5t-254.5 -80.5q-153 0 -245.5 68t-92.5 184zM424 0l1055 1415h172
l-1053 -1415h-174zM1296 104q-43 54 -65.5 135t-22.5 169q0 92 22 170.5t65.5 140t116 96.5t167.5 35q140 0 225 -60.5t88 -160.5h-194q-4 33 -37.5 52t-83.5 19q-55 0 -94.5 -23t-59 -61.5t-28 -77.5t-9.5 -83h7q23 47 85.5 74.5t147.5 27.5q141 0 220 -75t79 -203
t-93.5 -208.5t-248.5 -80.5q-90 0 -166 28.5t-121 85.5zM1573 418q-78 0 -119 -37.5t-41 -108.5q0 -70 41 -106.5t119 -36.5q156 0 156 143q0 71 -40 108.5t-116 37.5z" />
    <glyph glyph-name="oneeighth" unicode="&#x215b;" horiz-adv-x="2043" 
d="M203 594v172h227l2 35v424q-22 -17 -109.5 -60.5t-123.5 -58.5v168q45 23 133.5 74.5t120.5 78.5h176l-4 -227v-434h196v-172h-618zM483 0l1055 1415h172l-1053 -1415h-174zM1440 451q-77 22 -121.5 71t-44.5 113q0 102 89.5 161.5t242.5 59.5q152 0 239.5 -59.5
t87.5 -161.5q0 -64 -44.5 -113t-121.5 -71v-5q92 -19 145.5 -77t53.5 -140q0 -112 -96 -175.5t-264 -63.5t-264.5 63.5t-96.5 175.5q0 79 53 138t142 79v5zM1606 713q-66 0 -102 -25t-36 -72t36 -71.5t102 -24.5q64 0 98.5 24.5t34.5 71.5t-35 72t-98 25zM1606 371
q-80 0 -123 -30.5t-43 -88.5t43 -88.5t123 -30.5q163 0 163 119t-163 119z" />
    <glyph glyph-name="threeeighths" unicode="&#x215c;" horiz-adv-x="1951" 
d="M438 1440q148 0 233 -57t85 -154q0 -59 -49.5 -107t-133.5 -63v-6q97 -10 157.5 -69t60.5 -138q0 -123 -94.5 -193.5t-258.5 -70.5q-167 0 -263.5 71t-96.5 193h194q0 -115 160 -115q75 0 115.5 28.5t40.5 82.5q0 112 -201 112h-53v144h37q89 0 136.5 26.5t47.5 77.5
q0 88 -123 88q-124 0 -127 -110h-201q0 121 89.5 190.5t244.5 69.5zM365 0l1054 1415h172l-1052 -1415h-174zM1348 451q-77 22 -121.5 71t-44.5 113q0 102 89 161.5t242 59.5q152 0 240 -59.5t88 -161.5q0 -64 -44.5 -113t-121.5 -71v-5q92 -19 145.5 -77t53.5 -140
q0 -112 -96.5 -175.5t-264.5 -63.5t-264 63.5t-96 175.5q0 79 53 138t142 79v5zM1513 713q-66 0 -101.5 -25t-35.5 -72q0 -96 137 -96q64 0 99 24.5t35 71.5t-35 72t-99 25zM1513 371q-80 0 -122.5 -30.5t-42.5 -88.5t42.5 -88.5t122.5 -30.5t122 30.5t42 88.5t-42 88.5
t-122 30.5z" />
    <glyph glyph-name="fiveeighths" unicode="&#x215d;" horiz-adv-x="1947" 
d="M96 836h197q-1 -50 37 -77.5t106 -27.5q72 0 113 40.5t41 109.5t-40.5 108t-113.5 39q-104 0 -133 -67h-176l31 466h571v-149h-414l-20 -184h4q63 82 207 82q126 0 200 -78t74 -211q0 -142 -91.5 -222.5t-254.5 -80.5q-153 0 -245.5 68t-92.5 184zM356 0l1055 1415h172
l-1053 -1415h-174zM1343 451q-77 22 -121 71t-44 113q0 102 89 161.5t242 59.5q152 0 240 -59.5t88 -161.5q0 -64 -44.5 -113t-121.5 -71v-5q92 -19 145.5 -77t53.5 -140q0 -112 -96.5 -175.5t-264.5 -63.5t-264 63.5t-96 175.5q0 80 52.5 138.5t141.5 78.5v5zM1509 713
q-66 0 -101.5 -25t-35.5 -72q0 -96 137 -96q64 0 98.5 24.5t34.5 71.5t-35 72t-98 25zM1509 371q-80 0 -123 -30.5t-43 -88.5t43 -88.5t123 -30.5t122 30.5t42 88.5t-42 88.5t-122 30.5z" />
    <glyph glyph-name="seveneighths" unicode="&#x215e;" horiz-adv-x="1910" 
d="M102 1260v167h680v-141q-143 -203 -235.5 -363.5t-159.5 -328.5h-213q137 327 373 659v7h-445zM289 0l1054 1415h173l-1053 -1415h-174zM1307 451q-77 22 -121.5 71t-44.5 113q0 102 89.5 161.5t242.5 59.5q152 0 239.5 -59.5t87.5 -161.5q0 -64 -44.5 -113t-121.5 -71
v-5q92 -19 145.5 -77t53.5 -140q0 -112 -96 -175.5t-264 -63.5t-264.5 63.5t-96.5 175.5q0 79 53 138t142 79v5zM1473 713q-66 0 -102 -25t-36 -72t36 -71.5t102 -24.5q64 0 98.5 24.5t34.5 71.5t-35 72t-98 25zM1473 371q-80 0 -123 -30.5t-43 -88.5t43 -88.5t123 -30.5
q163 0 163 119t-163 119z" />
    <glyph glyph-name="leftArrow" unicode="&#x2190;" horiz-adv-x="1527" 
d="M526 -2l-487 524l489 522h281l-418 -419h1071v-207h-1071l418 -420h-283z" />
    <glyph glyph-name="upArrow" unicode="&#x2191;" horiz-adv-x="1148" 
d="M1098 748v-283l-420 418v-1071h-207v1071l-420 -418v280l522 490z" />
    <glyph glyph-name="rightArrow" unicode="&#x2192;" horiz-adv-x="1527" 
d="M1001 -2h-282l418 420h-1071v207h1071l-418 419h280l490 -522z" />
    <glyph glyph-name="downArrow" unicode="&#x2193;" horiz-adv-x="1148" 
d="M1098 297l-525 -487l-522 489v281l420 -418v1071h207v-1071l420 418v-283z" />
    <glyph glyph-name="leftRightArrow" unicode="&#x2194;" horiz-adv-x="2220" 
d="M526 -2l-487 524l489 522h281l-418 -419h1438l-418 419h281l489 -522l-487 -524h-283l418 420h-1438l418 -420h-283z" />
    <glyph glyph-name="upDownArrow" unicode="&#x2195;" horiz-adv-x="1241" 
d="M96 -61v282l420 -418v1438l-420 -418v283l525 487l522 -489v-281l-420 418v-1438l420 418v-280l-522 -490z" />
    <glyph glyph-name="northWestArrow" unicode="&#x2196;" horiz-adv-x="1148" 
d="M786 1051l199 -201h-592l758 -758l-145 -145l-758 755l-2 -591l-199 198l25 715z" />
    <glyph glyph-name="northEastArrow" unicode="&#x2197;" horiz-adv-x="1148" 
d="M1104 311l-201 -198v592l-758 -758l-145 145l756 758l-592 2l198 199l715 -25z" />
    <glyph glyph-name="southEastArrow" unicode="&#x2198;" horiz-adv-x="1148" 
d="M375 -31l-199 201h592l-758 758l146 145l757 -756l2 592l199 -198l-24 -715z" />
    <glyph glyph-name="southWestArrow" unicode="&#x2199;" horiz-adv-x="1148" 
d="M31 698l200 199v-592l758 758l146 -145l-756 -758l592 -2l-199 -199l-715 25z" />
    <glyph glyph-name="partialdiff" unicode="&#x2202;" horiz-adv-x="1181" 
d="M1102 625q0 -298 -139.5 -470.5t-382.5 -172.5q-239 0 -379 127.5t-140 347.5q0 224 140.5 353.5t380.5 129.5q135 0 231 -74q-28 172 -105.5 266.5t-191.5 94.5q-138 0 -244 -88l-143 147q78 68 186 108t213 40q266 0 420 -217t154 -592zM334 457q0 -132 62.5 -200.5
t183.5 -68.5q116 0 180.5 103t68.5 295q-77 147 -227 147q-132 0 -200 -70.5t-68 -205.5z" />
    <glyph glyph-name="emptyset" unicode="&#x2205;" 
d="M1192 565q0 -157 -77.5 -290t-210 -210t-288.5 -77q-201 0 -356 123l-127 -127l-102 102l127 127q-119 158 -119 352q0 156 77 288.5t210 210t290 77.5q197 0 351 -119l131 131l102 -102l-131 -131q123 -155 123 -355zM313 565q0 -83 33 -164l449 449q-76 70 -179 70
q-125 0 -214 -102.5t-89 -252.5zM918 565q0 90 -35 168l-451 -450q80 -74 184 -74q124 0 213 103.5t89 252.5z" />
    <glyph glyph-name="product" unicode="&#x220f;" horiz-adv-x="1423" 
d="M430 -248h-287l9 361v995l-7 305h1133l-6 -305v-995l8 -361h-287l8 361l-2 1030h-575l-2 -1030z" />
    <glyph glyph-name="summation" unicode="&#x2211;" horiz-adv-x="1075" 
d="M63 1208v205h951v-219h-672l451 -610l-451 -613h672v-219h-951v207l459 625z" />
    <glyph glyph-name="minus" unicode="&#x2212;" horiz-adv-x="1073" 
d="M96 506v207h881v-207h-881z" />
    <glyph glyph-name="radical" unicode="&#x221a;" horiz-adv-x="1200" 
d="M53 504l-65 190l110 37l246 84l293 -766h10l430 1364h137l-530 -1661h-176l-332 793z" />
    <glyph glyph-name="infinity" unicode="&#x221e;" horiz-adv-x="1583" 
d="M381 236q-134 0 -215.5 99t-81.5 271q0 171 81.5 270t215.5 99q190 0 410 -223q223 223 411 223q134 0 214.5 -99t80.5 -270q0 -173 -80.5 -271.5t-214.5 -98.5q-189 0 -411 225q-219 -225 -410 -225zM432 768q-69 0 -105 -41.5t-36 -120.5q0 -164 141 -164q53 0 123 42
t143 122q-74 78 -144 120t-122 42zM1151 768q-112 0 -268 -162q75 -80 144.5 -122t123.5 -42q141 0 141 164q0 79 -36 120.5t-105 41.5z" />
    <glyph glyph-name="integral" unicode="&#x222b;" horiz-adv-x="727" 
d="M698 1421v-192q-58 22 -104 22t-71 -49.5t-25 -142.5v-914q0 -182 -84.5 -286.5t-231.5 -104.5q-67 0 -153 27v192q53 -20 104 -20q94 0 94 190v914q0 181 85 286t231 105q69 0 155 -27z" />
    <glyph glyph-name="approxequal" unicode="&#x2248;" horiz-adv-x="1073" 
d="M279 645h-191q0 155 70.5 241.5t185.5 86.5q62 0 121.5 -20t97.5 -44.5t79.5 -44.5t70.5 -20q43 0 66.5 33t23.5 96h188q0 -156 -70.5 -242t-187.5 -86q-61 0 -120 20t-96 44.5t-78 44.5t-70 20q-90 0 -90 -129zM279 246h-191q0 156 70 241.5t186 85.5q62 0 121.5 -20
t97.5 -44.5t79.5 -44.5t70.5 -20q43 0 66.5 33t23.5 96h188q0 -155 -70.5 -241t-187.5 -86q-61 0 -120 20t-96 44.5t-78 44.5t-70 20q-90 0 -90 -129z" />
    <glyph glyph-name="notequal" unicode="&#x2260;" horiz-adv-x="1073" 
d="M174 135l86 180h-164v209h264l82 174h-346v207h445l84 174h264l-82 -174h170v-207h-268l-84 -174h352v-209h-451l-86 -180h-266z" />
    <glyph glyph-name="lessequal" unicode="&#x2264;" horiz-adv-x="1073" 
d="M920 256l-787 352v176l787 344v-217l-568 -221l568 -217v-217zM920 6h-787v189h787v-189z" />
    <glyph glyph-name="greaterequal" unicode="&#x2265;" horiz-adv-x="1073" 
d="M154 256v217l567 217l-567 221v217l786 -344v-176zM154 6v189h786v-189h-786z" />
    <glyph glyph-name="lozenge" unicode="&#x25ca;" horiz-adv-x="1165" 
d="M698 -20h-231l-416 727l416 729h231l416 -729zM289 707l293 -531l292 531l-292 532z" />
    <glyph glyph-name="Jacute" horiz-adv-x="591" 
d="M723 1698l-324 -187h-217l201 187h340zM444 -72q0 -140 -89 -218.5t-249 -78.5q-78 0 -167 21v229q53 -20 90 -20q65 0 99 33t34 96v1069l-8 354h299l-9 -354v-1131z" />
    <glyph glyph-name="Q.alt" horiz-adv-x="1484" 
d="M1102 -348q-89 -21 -168 -21q-160 0 -249 78.5t-89 218.5v66q-249 49 -385.5 243t-136.5 480q0 207 77.5 367.5t232.5 255t368 94.5q214 0 369 -94.5t232 -255.5t77 -369q0 -294 -144.5 -490t-406.5 -235q0 -63 34 -96t99 -33q34 0 90 20v-229zM367 711q0 -224 100 -359
t285 -135q186 0 285.5 134.5t99.5 357.5q0 139 -42.5 247.5t-131 174t-211.5 65.5t-211.5 -65t-131 -173.5t-42.5 -246.5z" />
    <glyph glyph-name="W.alt" horiz-adv-x="1959" 
d="M772 0h-342l-299 1055l-115 358h342l68 -358l164 -733h8l238 1091h290l236 -1091h8l164 735l65 356h343l-113 -358l-303 -1055h-346l-197 965h-8z" />
    <glyph glyph-name="Wacute.alt" horiz-adv-x="1959" 
d="M1384 1698l-323 -187h-217l200 187h340zM772 0h-342l-299 1055l-115 358h342l68 -358l164 -733h8l238 1091h290l236 -1091h8l164 735l65 356h343l-113 -358l-303 -1055h-346l-197 965h-8z" />
    <glyph glyph-name="Wcircumflex.alt" horiz-adv-x="1959" 
d="M903 1511h-219l199 185h227l199 -185h-219l-95 78zM772 0h-342l-299 1055l-115 358h342l68 -358l164 -733h8l238 1091h290l236 -1091h8l164 735l65 356h343l-113 -358l-303 -1055h-346l-197 965h-8z" />
    <glyph glyph-name="Wdieresis.alt" horiz-adv-x="1959" 
d="M1063 1509v177h254v-177h-254zM639 1509v177h254v-177h-254zM772 0h-342l-299 1055l-115 358h342l68 -358l164 -733h8l238 1091h290l236 -1091h8l164 735l65 356h343l-113 -358l-303 -1055h-346l-197 965h-8z" />
    <glyph glyph-name="Wgrave.alt" horiz-adv-x="1959" 
d="M563 1698h340l201 -187h-217zM772 0h-342l-299 1055l-115 358h342l68 -358l164 -733h8l238 1091h290l236 -1091h8l164 735l65 356h343l-113 -358l-303 -1055h-346l-197 965h-8z" />
    <glyph glyph-name="Aacute.loclPLK" horiz-adv-x="1396" 
d="M598 1511l37 177h266l-90 -177h-213zM328 0h-318l135 352l379 1061h350l373 -1061l139 -352h-319l-100 301l-6 14h-529l-4 -14zM690 1149l-186 -602h379l-183 602h-10z" />
    <glyph glyph-name="Cacute.loclPLK" horiz-adv-x="1406" 
d="M637 1511l37 177h266l-90 -177h-213zM1358 522q-31 -252 -198 -397t-425 -145q-306 0 -482.5 196t-176.5 537q0 333 176.5 527t482.5 194q266 0 430 -137.5t181 -376.5h-293q-25 134 -106 205t-208 71q-181 0 -275.5 -124t-94.5 -361q0 -241 95 -367.5t277 -126.5
q133 0 217 78.5t107 226.5h293z" />
    <glyph glyph-name="Eacute.loclPLK" horiz-adv-x="1167" 
d="M500 1511l37 177h266l-90 -177h-213zM1085 0h-944l6 352v711l-6 350h924v-237h-637v-324h608v-240h-608v-374h657v-238z" />
    <glyph glyph-name="Iacute.loclPLK" horiz-adv-x="579" 
d="M190 1511l37 177h267l-91 -177h-213zM438 0h-297l6 352v709l-6 352h297l-6 -352v-709z" />
    <glyph glyph-name="Nacute.loclPLK" horiz-adv-x="1490" 
d="M647 1511l37 177h266l-90 -177h-213zM432 0h-291l6 352v709l-6 352h269l530 -762l119 -176h8v586l-8 352h293l-9 -352v-725l9 -336h-265l-544 764l-111 170h-8v-582z" />
    <glyph glyph-name="Oacute.loclPLK" horiz-adv-x="1503" 
d="M653 1511l37 177h266l-90 -177h-213zM1430 715q0 -161 -45 -295.5t-129.5 -232.5t-213.5 -152.5t-290 -54.5q-213 0 -368 95.5t-232.5 260.5t-77.5 381q0 207 77.5 367.5t232.5 255t368 94.5q214 0 369 -94.5t232 -255.5t77 -369zM367 711q0 -224 100 -359t285 -135
q186 0 285.5 134.5t99.5 357.5q0 139 -42.5 247.5t-131 174t-211.5 65.5t-211.5 -65t-131 -173.5t-42.5 -246.5z" />
    <glyph glyph-name="Sacute.loclPLK" horiz-adv-x="1306" 
d="M567 1511l37 177h266l-90 -177h-213zM1243 420q0 -194 -158 -318.5t-415 -124.5q-294 0 -453.5 126.5t-159.5 377.5h293q0 -133 82.5 -203.5t243.5 -70.5q136 0 207 51.5t71 138.5q0 33 -15.5 58.5t-40.5 43t-70.5 33.5t-89.5 26.5t-113 23.5q-92 16 -164 37.5t-140 56.5
t-113 81t-72 113.5t-27 151.5q0 194 144.5 304t399.5 110q260 0 399.5 -119.5t147.5 -335.5h-293q-3 106 -72 166.5t-190 60.5q-119 0 -182.5 -44t-63.5 -128q0 -96 99 -144q65 -32 253 -68h1h1h1l1 -1h1h1h1h1l1 -1h1h1h1h1l1 -1h1h1h1h1h1l1 -1h1h1h1q23 -5 35 -7
q215 -42 324.5 -133t109.5 -260z" />
    <glyph glyph-name="Uacute.loclPLK" horiz-adv-x="1411" 
d="M608 1511l37 177h266l-90 -177h-213zM1278 559q0 -270 -151 -424.5t-414 -154.5q-269 0 -425.5 155t-156.5 424v502l-6 352h297l-6 -352v-494q0 -170 76 -260t219 -90q138 0 211 90t73 260v494l-8 352h299l-8 -352v-502z" />
    <glyph glyph-name="Zacute.loclPLK" horiz-adv-x="1191" 
d="M502 1511l37 177h266l-90 -177h-213zM1128 0h-1085v205l702 962v9h-641v237h1014v-205l-696 -962v-8h706v-238z" />
    <glyph glyph-name="idotaccent" horiz-adv-x="520" 
d="M127 1210v203h268v-203h-268zM403 0h-286l8 352v320l-8 377h286l-8 -377v-320z" />
    <glyph glyph-name="jacute" horiz-adv-x="530" 
d="M662 1413l-293 -223h-213l180 223h326zM403 -45q0 -151 -84.5 -237.5t-230.5 -86.5q-39 0 -84 9v194q24 -4 33 -4q46 0 71 28.5t25 80.5v749l-8 361h285l-7 -361v-733z" />
    <glyph glyph-name="w.alt" horiz-adv-x="1550" 
d="M625 0h-275l-211 688l-123 361h297l93 -361l83 -340h9l149 701h264l150 -701h8l82 340l92 361h297l-123 -361l-209 -688h-274l-150 686h-8z" />
    <glyph glyph-name="wacute.alt" horiz-adv-x="1550" 
d="M1169 1413l-292 -223h-213l180 223h325zM625 0h-275l-211 688l-123 361h297l93 -361l83 -340h9l149 701h264l150 -701h8l82 340l92 361h297l-123 -361l-209 -688h-274l-150 686h-8z" />
    <glyph glyph-name="wcircumflex.alt" horiz-adv-x="1550" 
d="M682 1190h-197l199 223h217l199 -223h-197l-110 121zM625 0h-275l-211 688l-123 361h297l93 -361l83 -340h9l149 701h264l150 -701h8l82 340l92 361h297l-123 -361l-209 -688h-274l-150 686h-8z" />
    <glyph glyph-name="wdieresis.alt" horiz-adv-x="1550" 
d="M877 1210v203h253v-203h-253zM453 1210v203h254v-203h-254zM625 0h-275l-211 688l-123 361h297l93 -361l83 -340h9l149 701h264l150 -701h8l82 340l92 361h297l-123 -361l-209 -688h-274l-150 686h-8z" />
    <glyph glyph-name="wgrave.alt" horiz-adv-x="1550" 
d="M451 1413h325l180 -223h-213zM625 0h-275l-211 688l-123 361h297l93 -361l83 -340h9l149 701h264l150 -701h8l82 340l92 361h297l-123 -361l-209 -688h-274l-150 686h-8z" />
    <glyph glyph-name="aacute.loclPLK" horiz-adv-x="1142" 
d="M465 1190l55 223h250l-104 -223h-201zM752 129q-47 -69 -139 -109t-218 -40q-148 0 -243 75t-95 211q0 78 37.5 140.5t100.5 103t152.5 68.5t184 41.5t205.5 17.5v74q0 80 -45 118.5t-141 38.5q-90 0 -137 -47.5t-47 -118.5h-273q0 118 63.5 203t167.5 125.5t236 40.5
q217 0 331 -88t114 -252v-487q0 -33 15.5 -49.5t41.5 -16.5q35 0 59 12v-186q-68 -24 -168 -24q-78 0 -132 38t-62 97v14h-8zM322 301q0 -56 38.5 -89.5t110.5 -33.5q120 0 192 66t72 180v57q-199 0 -306 -46.5t-107 -133.5z" />
    <glyph glyph-name="cacute.loclPLK" horiz-adv-x="1101" 
d="M461 1190l55 223h250l-104 -223h-201zM1057 387q-20 -189 -151 -298t-335 -109q-235 0 -371.5 143.5t-136.5 392.5q0 256 138 405.5t374 149.5q195 0 323 -108t153 -295h-273q-13 95 -65.5 145.5t-137.5 50.5q-117 0 -178 -88.5t-61 -257.5q0 -163 60.5 -248.5
t174.5 -85.5q87 0 141.5 52t71.5 151h273z" />
    <glyph glyph-name="eacute.loclPLK" horiz-adv-x="1114" 
d="M467 1190l55 223h250l-104 -223h-201zM1042 362q-22 -181 -148.5 -281.5t-332.5 -100.5q-235 0 -365 140.5t-130 393.5q0 264 131.5 411.5t367.5 147.5q222 0 350 -137.5t134 -380.5v-76h-709q-3 -145 54 -221t167 -76q168 0 209 180h272zM569 879q-97 0 -156 -62
t-71 -176h438q-5 114 -59.5 176t-151.5 62z" />
    <glyph glyph-name="iacute.loclPLK" horiz-adv-x="520" 
d="M164 1190l55 223h250l-104 -223h-201zM403 0h-286l8 352v320l-8 377h286l-8 -377v-320z" />
    <glyph glyph-name="nacute.loclPLK" horiz-adv-x="1114" 
d="M463 1190l55 223h250l-104 -223h-201zM397 0h-282l8 352v336l-8 361h272l-6 -125h8q99 147 281 147q155 0 244.5 -101t89.5 -276v-342l8 -352h-285l8 352v295q0 104 -45.5 160.5t-124.5 56.5q-84 0 -129 -56t-45 -161v-295z" />
    <glyph glyph-name="oacute.loclPLK" horiz-adv-x="1136" 
d="M473 1190l55 223h250l-104 -223h-201zM1073 522q0 -253 -135.5 -397.5t-370.5 -144.5q-234 0 -369 144.5t-135 397.5t135.5 401t368.5 148q234 0 370 -148t136 -401zM336 524q0 -166 59 -253t172 -87q114 0 174 87t60 253q0 165 -60 252.5t-174 87.5q-112 0 -171.5 -87.5
t-59.5 -252.5z" />
    <glyph glyph-name="sacute.loclPLK" horiz-adv-x="1026" 
d="M418 1190l55 223h250l-105 -223h-200zM971 309q0 -152 -121 -240.5t-332 -88.5q-217 0 -341 99t-124 269h254q0 -84 55 -130t154 -46q98 0 148.5 36t50.5 103q0 36 -27.5 60.5t-72.5 35.5t-102 22.5t-116.5 21t-116.5 32t-101.5 54t-71 88t-25.5 133.5q2 139 121.5 226
t310.5 87q201 0 312.5 -94.5t111.5 -261.5h-254q0 78 -46 120t-130 42q-80 0 -125 -32.5t-45 -92.5q0 -36 27 -60.5t71.5 -36t101.5 -23.5t116.5 -21.5t116.5 -32t101.5 -53t71.5 -86t27 -130.5z" />
    <glyph glyph-name="uacute.loclPLK" horiz-adv-x="1126" 
d="M465 1190l55 223h250l-104 -223h-201zM733 115q-40 -67 -113 -102.5t-163 -35.5q-161 0 -253.5 105.5t-92.5 288.5v317l-9 361h289l-8 -361l-2 -270q1 -115 40 -174.5t111 -59.5q100 0 152 71.5t51 207.5l-2 225l-8 361h287l-8 -361v-336l8 -352h-277l8 115h-10z" />
    <glyph glyph-name="zacute.loclPLK" horiz-adv-x="915" 
d="M356 1190l56 223h250l-105 -223h-201zM868 0h-823v172l471 684v6l-436 -8v195h758v-175l-465 -679v-7l495 7v-195z" />
    <glyph glyph-name="s_t" horiz-adv-x="1775" 
d="M971 309q0 -152 -121 -240.5t-332 -88.5q-217 0 -341 99t-124 269h254q0 -84 55 -130t154 -46q98 0 148.5 36t50.5 103q0 36 -27.5 60.5t-72.5 35.5t-102 22.5t-116.5 21t-116.5 32t-101.5 54t-71 88t-25.5 133.5q1 112 80 191.5t213 107.5q3 123 69.5 207t177 121.5
t259.5 37.5l592 -2l-15 -372h287v-207h-287v-494q0 -79 30 -116t95 -37q81 0 162 24v-215q-111 -24 -242 -24q-158 0 -237.5 85.5t-79.5 251.5v525h-137v207h145l-6 194l-307 2q-112 0 -177 -41.5t-73 -142.5q147 -25 227 -115.5t80 -230.5h-246q0 78 -47.5 120t-136.5 42
q-80 0 -125 -32.5t-45 -92.5q0 -36 27 -60.5t71.5 -36t101.5 -23.5t116.5 -21.5t116.5 -32t101.5 -53t71.5 -86t27 -130.5z" />
    <glyph glyph-name="Q.sc.alt" horiz-adv-x="1314" 
d="M1008 -348q-89 -21 -168 -21q-160 0 -249 78.5t-89 218.5v66q-209 44 -324 198t-115 381q0 259 157.5 418.5t436.5 159.5q186 0 322 -75t204 -205t68 -300q0 -234 -122 -389.5t-345 -191.5q0 -63 34.5 -96t99.5 -33q34 0 90 20v-229zM338 569q0 -169 82 -267.5t237 -98.5
t237.5 98t82.5 266q0 163 -83.5 264t-236.5 101t-236 -100t-83 -263z" />
    <glyph glyph-name="W.sc.alt" horiz-adv-x="1779" 
d="M698 0h-301l-245 780l-113 350h315l78 -350l119 -473h6l205 823h252l209 -823h6l114 473l82 350h320l-117 -350l-248 -780h-297l-190 750h-8z" />
    <glyph glyph-name="Wacute.sc.alt" horiz-adv-x="1779" 
d="M1274 1411l-293 -186h-213l180 186h326zM698 0h-301l-245 780l-113 350h315l78 -350l119 -473h6l205 823h252l209 -823h6l114 473l82 350h320l-117 -350l-248 -780h-297l-190 750h-8z" />
    <glyph glyph-name="Wcircumflex.sc.alt" horiz-adv-x="1779" 
d="M807 1235h-219l198 184h228l198 -184h-219l-94 78zM698 0h-301l-245 780l-113 350h315l78 -350l119 -473h6l205 823h252l209 -823h6l114 473l82 350h320l-117 -350l-248 -780h-297l-190 750h-8z" />
    <glyph glyph-name="Wdieresis.sc.alt" horiz-adv-x="1779" 
d="M969 1231v182h254v-182h-254zM545 1231v182h254v-182h-254zM698 0h-301l-245 780l-113 350h315l78 -350l119 -473h6l205 823h252l209 -823h6l114 473l82 350h320l-117 -350l-248 -780h-297l-190 750h-8z" />
    <glyph glyph-name="Wgrave.sc.alt" horiz-adv-x="1779" 
d="M469 1438h326l180 -187h-213zM698 0h-301l-245 780l-113 350h315l78 -350l119 -473h6l205 823h252l209 -823h6l114 473l82 350h320l-117 -350l-248 -780h-297l-190 750h-8z" />
    <glyph glyph-name="A.sc" horiz-adv-x="1259" 
d="M309 0h-301l144 352l292 778h377l289 -778l137 -352h-303l-84 250h-461zM625 897l-152 -430h311l-151 430h-8z" />
    <glyph glyph-name="Aacute.sc" horiz-adv-x="1259" 
d="M1020 1413l-293 -186h-213l180 186h326zM309 0h-301l144 352l292 778h377l289 -778l137 -352h-303l-84 250h-461zM625 897l-152 -430h311l-151 430h-8z" />
    <glyph glyph-name="Abreve.sc" horiz-adv-x="1259" 
d="M367 1413h163q6 -88 99 -88q90 0 96 88h162q0 -96 -67.5 -151.5t-190.5 -55.5q-124 0 -192 55t-70 152zM309 0h-301l144 352l292 778h377l289 -778l137 -352h-303l-84 250h-461zM625 897l-152 -430h311l-151 430h-8z" />
    <glyph glyph-name="Acaron.sc" horiz-adv-x="1259" 
d="M553 1417l92 -78l94 78h219l-198 -184h-228l-198 184h219zM309 0h-301l144 352l292 778h377l289 -778l137 -352h-303l-84 250h-461zM625 897l-152 -430h311l-151 430h-8z" />
    <glyph glyph-name="Acircumflex.sc" horiz-adv-x="1259" 
d="M553 1237h-219l198 184h228l198 -184h-219l-94 78zM309 0h-301l144 352l292 778h377l289 -778l137 -352h-303l-84 250h-461zM625 897l-152 -430h311l-151 430h-8z" />
    <glyph glyph-name="Adieresis.sc" horiz-adv-x="1259" 
d="M717 1233v182h254v-182h-254zM293 1233v182h254v-182h-254zM309 0h-301l144 352l292 778h377l289 -778l137 -352h-303l-84 250h-461zM625 897l-152 -430h311l-151 430h-8z" />
    <glyph glyph-name="Agrave.sc" horiz-adv-x="1259" 
d="M215 1440h326l180 -187h-213zM309 0h-301l144 352l292 778h377l289 -778l137 -352h-303l-84 250h-461zM625 897l-152 -430h311l-151 430h-8z" />
    <glyph glyph-name="Amacron.sc" horiz-adv-x="1259" 
d="M377 1217v151h497v-151h-497zM309 0h-301l144 352l292 778h377l289 -778l137 -352h-303l-84 250h-461zM625 897l-152 -430h311l-151 430h-8z" />
    <glyph glyph-name="Aogonek.sc" horiz-adv-x="1259" 
d="M309 0h-301l144 352l292 778h377l289 -778l137 -352h-155q-119 -44 -166 -77t-47 -66q0 -50 73 -50q56 0 158 37v-149q-146 -64 -264 -64q-90 0 -138.5 39t-48.5 99q0 74 67 140.5t204 131.5l-70 209h-461zM625 897l-152 -430h311l-151 430h-8z" />
    <glyph glyph-name="Aring.sc" horiz-adv-x="1259" 
d="M631 1151q-75 0 -124.5 45t-49.5 113t49.5 112.5t124.5 44.5q74 0 123 -45t49 -112q0 -68 -49.5 -113t-122.5 -45zM631 1253q28 0 46.5 16.5t18.5 39.5q0 25 -18.5 41t-46.5 16q-29 0 -48.5 -16t-19.5 -41q0 -23 19.5 -39.5t48.5 -16.5zM309 0h-301l144 352l292 778h377
l289 -778l137 -352h-303l-84 250h-461zM625 897l-152 -430h311l-151 430h-8z" />
    <glyph glyph-name="Aringacute.sc" horiz-adv-x="1259" 
d="M309 0h-301l144 352l292 778h25q-12 27 -12 60q0 53 30 92t82 57l113 115h326l-248 -158q43 -43 43 -106q0 -33 -12 -60h30l289 -778l137 -352h-303l-84 250h-461zM631 1135q28 0 46.5 16t18.5 39q0 25 -18.5 41t-46.5 16q-29 0 -48.5 -16t-19.5 -41q0 -23 19.5 -39
t48.5 -16zM625 897l-152 -430h311l-151 430h-8z" />
    <glyph glyph-name="Atilde.sc" horiz-adv-x="1259" 
d="M485 1202h-118q0 103 46 160t124 57q37 0 68 -12.5t48 -27.5t38.5 -27.5t41.5 -12.5q62 0 62 84h118q0 -101 -46 -159t-122 -58q-44 0 -77.5 20t-61.5 40t-59 20q-62 0 -62 -84zM309 0h-301l144 352l292 778h377l289 -778l137 -352h-303l-84 250h-461zM625 897l-152 -430
h311l-151 430h-8z" />
    <glyph glyph-name="AE.sc" horiz-adv-x="1648" 
d="M287 0h-314l195 352l393 778h993v-225h-542v-209h518v-225h-518v-246h561v-225h-817l4 229v17h-352zM735 891l-217 -428h242v428h-25z" />
    <glyph glyph-name="AEacute.sc" horiz-adv-x="1648" 
d="M1323 1415l-293 -186h-213l180 186h326zM287 0h-314l195 352l393 778h993v-225h-542v-209h518v-225h-518v-246h561v-225h-817l4 229v17h-352zM735 891l-217 -428h242v428h-25z" />
    <glyph glyph-name="B.sc" horiz-adv-x="1150" 
d="M668 0h-545l8 289v491l-8 350h553q175 0 271.5 -72.5t96.5 -203.5q0 -104 -51 -169.5t-145 -78.5v-8q115 -17 179.5 -88t64.5 -180q0 -158 -107.5 -244t-316.5 -86zM391 926l-2 -252h229q76 0 119 33t43 92q0 60 -35.5 93.5t-99.5 33.5h-254zM391 483v-278h273
q74 0 113.5 36t39.5 103q0 66 -40 102.5t-113 36.5h-273z" />
    <glyph glyph-name="C.sc" 
d="M1188 414q-28 -201 -175 -317.5t-374 -116.5q-266 0 -419.5 158.5t-153.5 434.5q0 268 153.5 423t419.5 155q235 0 378.5 -109.5t158.5 -300.5h-275q-20 92 -86.5 141.5t-169.5 49.5q-149 0 -228 -94t-79 -269q0 -179 79.5 -273.5t229.5 -94.5q109 0 177.5 54.5
t88.5 158.5h275z" />
    <glyph glyph-name="Cacute.sc" 
d="M1030 1413l-293 -186h-213l181 186h325zM1188 414q-28 -201 -175 -317.5t-374 -116.5q-266 0 -419.5 158.5t-153.5 434.5q0 268 153.5 423t419.5 155q235 0 378.5 -109.5t158.5 -300.5h-275q-20 92 -86.5 141.5t-169.5 49.5q-149 0 -228 -94t-79 -269q0 -179 79.5 -273.5
t229.5 -94.5q109 0 177.5 54.5t88.5 158.5h275z" />
    <glyph glyph-name="Ccaron.sc" 
d="M563 1417l92 -78l95 78h219l-199 -184h-227l-199 184h219zM1188 414q-28 -201 -175 -317.5t-374 -116.5q-266 0 -419.5 158.5t-153.5 434.5q0 268 153.5 423t419.5 155q235 0 378.5 -109.5t158.5 -300.5h-275q-20 92 -86.5 141.5t-169.5 49.5q-149 0 -228 -94t-79 -269
q0 -179 79.5 -273.5t229.5 -94.5q109 0 177.5 54.5t88.5 158.5h275z" />
    <glyph glyph-name="Ccedilla.sc" 
d="M653 -369q-85 0 -140.5 36.5t-55.5 94.5h139q0 -43 55 -43q26 0 42 16t16 42q0 25 -21.5 42t-56.5 17h-101l29 148q-231 23 -362 179t-131 410q0 268 153.5 423t419.5 155q235 0 378.5 -109.5t158.5 -300.5h-275q-20 92 -86.5 141.5t-169.5 49.5q-149 0 -228 -94
t-79 -269q0 -179 79.5 -273.5t229.5 -94.5q109 0 177.5 54.5t88.5 158.5h275q-26 -187 -157 -302t-335 -130l-12 -68q82 0 122 -39.5t40 -99.5q0 -64 -51.5 -104t-141.5 -40z" />
    <glyph glyph-name="Ccircumflex.sc" 
d="M563 1237h-219l199 184h227l199 -184h-219l-95 78zM1188 414q-28 -201 -175 -317.5t-374 -116.5q-266 0 -419.5 158.5t-153.5 434.5q0 268 153.5 423t419.5 155q235 0 378.5 -109.5t158.5 -300.5h-275q-20 92 -86.5 141.5t-169.5 49.5q-149 0 -228 -94t-79 -269
q0 -179 79.5 -273.5t229.5 -94.5q109 0 177.5 54.5t88.5 158.5h275z" />
    <glyph glyph-name="Cdotaccent.sc" 
d="M506 1210v203h268v-203h-268zM1188 414q-28 -201 -175 -317.5t-374 -116.5q-266 0 -419.5 158.5t-153.5 434.5q0 268 153.5 423t419.5 155q235 0 378.5 -109.5t158.5 -300.5h-275q-20 92 -86.5 141.5t-169.5 49.5q-149 0 -228 -94t-79 -269q0 -179 79.5 -273.5
t229.5 -94.5q109 0 177.5 54.5t88.5 158.5h275z" />
    <glyph glyph-name="D.sc" horiz-adv-x="1273" 
d="M586 0h-463l8 354v424l-8 352h463q290 0 458 -150.5t168 -410.5q0 -264 -168 -416.5t-458 -152.5zM397 911v-690h193q167 0 257.5 90t90.5 256q0 165 -91 254.5t-257 89.5h-193z" />
    <glyph glyph-name="Eth.sc" horiz-adv-x="1282" 
d="M592 0h-463l8 354v109h-90v203h90v112l-8 352h463q290 0 458.5 -150.5t168.5 -410.5q0 -264 -168.5 -416.5t-458.5 -152.5zM653 463h-250v-242h193q167 0 257.5 90t90.5 256q0 165 -91 254.5t-257 89.5h-193v-245h250v-203z" />
    <glyph glyph-name="Dcaron.sc" horiz-adv-x="1273" 
d="M516 1417l92 -78l94 78h220l-199 -184h-227l-199 184h219zM586 0h-463l8 354v424l-8 352h463q290 0 458 -150.5t168 -410.5q0 -264 -168 -416.5t-458 -152.5zM397 911v-690h193q167 0 257.5 90t90.5 256q0 165 -91 254.5t-257 89.5h-193z" />
    <glyph glyph-name="Dcroat.sc" horiz-adv-x="1282" 
d="M594 0h-463l8 354v109h-94v203h94v112l-8 352h463q290 0 458.5 -150.5t168.5 -410.5q0 -264 -168.5 -416.5t-458.5 -152.5zM653 463h-247v-242h192q167 0 257.5 90t90.5 256q0 165 -91 254.5t-257 89.5h-192v-245h247v-203z" />
    <glyph glyph-name="E.sc" horiz-adv-x="1032" 
d="M958 0h-835l8 352v428l-8 350h817v-208h-545v-234h520v-209h-520v-270h563v-209z" />
    <glyph glyph-name="Eacute.sc" horiz-adv-x="1032" 
d="M918 1411l-293 -186h-213l180 186h326zM958 0h-835l8 352v428l-8 350h817v-208h-545v-234h520v-209h-520v-270h563v-209z" />
    <glyph glyph-name="Ebreve.sc" horiz-adv-x="1032" 
d="M264 1411h164q6 -88 98 -88q91 0 97 88h161q0 -96 -67.5 -151.5t-190.5 -55.5q-124 0 -192 55t-70 152zM958 0h-835l8 352v428l-8 350h817v-208h-545v-234h520v-209h-520v-270h563v-209z" />
    <glyph glyph-name="Ecaron.sc" horiz-adv-x="1032" 
d="M451 1415l92 -78l94 78h219l-199 -184h-227l-199 184h220zM958 0h-835l8 352v428l-8 350h817v-208h-545v-234h520v-209h-520v-270h563v-209z" />
    <glyph glyph-name="Ecircumflex.sc" horiz-adv-x="1032" 
d="M451 1235h-220l199 184h227l199 -184h-219l-94 78zM958 0h-835l8 352v428l-8 350h817v-208h-545v-234h520v-209h-520v-270h563v-209z" />
    <glyph glyph-name="Edieresis.sc" horiz-adv-x="1032" 
d="M612 1231v182h254v-182h-254zM188 1231v182h254v-182h-254zM958 0h-835l8 352v428l-8 350h817v-208h-545v-234h520v-209h-520v-270h563v-209z" />
    <glyph glyph-name="Edotaccent.sc" horiz-adv-x="1032" 
d="M393 1208v203h269v-203h-269zM958 0h-835l8 352v428l-8 350h817v-208h-545v-234h520v-209h-520v-270h563v-209z" />
    <glyph glyph-name="Egrave.sc" horiz-adv-x="1032" 
d="M113 1438h325l180 -187h-212zM958 0h-835l8 352v428l-8 350h817v-208h-545v-234h520v-209h-520v-270h563v-209z" />
    <glyph glyph-name="Emacron.sc" horiz-adv-x="1032" 
d="M274 1214v152h498v-152h-498zM958 0h-835l8 352v428l-8 350h817v-208h-545v-234h520v-209h-520v-270h563v-209z" />
    <glyph glyph-name="Eogonek.sc" horiz-adv-x="1032" 
d="M958 0h-4q-119 -44 -166 -77t-47 -66q0 -50 74 -50q56 0 158 37v-149q-146 -64 -264 -64q-90 0 -138.5 39t-48.5 99q0 123 191 231h-590l8 352v428l-8 350h817v-208h-545v-234h520v-209h-520v-270h563v-197l3 -10h-3v-2z" />
    <glyph glyph-name="F.sc" horiz-adv-x="985" 
d="M403 0h-278l6 352v428l-6 350h803v-208h-531v-267h492v-209h-492v-94z" />
    <glyph glyph-name="G.sc" horiz-adv-x="1320" 
d="M1004 137q-53 -75 -147 -116t-214 -41q-269 0 -424.5 158t-155.5 431q0 270 163.5 426t445.5 156q224 0 370 -108t172 -295h-274q-10 89 -80 136.5t-188 47.5q-162 0 -248 -94t-86 -269q0 -181 88 -276.5t252 -95.5q124 0 199 58t94 167h-307v190h557l-2 -260l8 -352
h-228l9 137h-4z" />
    <glyph glyph-name="Gbreve.sc" horiz-adv-x="1320" 
d="M410 1413h163q6 -88 99 -88q90 0 96 88h162q0 -96 -67.5 -151.5t-190.5 -55.5q-124 0 -192 55t-70 152zM1004 137q-53 -75 -147 -116t-214 -41q-269 0 -424.5 158t-155.5 431q0 270 163.5 426t445.5 156q224 0 370 -108t172 -295h-274q-10 89 -80 136.5t-188 47.5
q-162 0 -248 -94t-86 -269q0 -181 88 -276.5t252 -95.5q124 0 199 58t94 167h-307v190h557l-2 -260l8 -352h-228l9 137h-4z" />
    <glyph glyph-name="Gcircumflex.sc" horiz-adv-x="1320" 
d="M596 1237h-219l198 184h228l198 -184h-219l-94 78zM1004 137q-53 -75 -147 -116t-214 -41q-269 0 -424.5 158t-155.5 431q0 270 163.5 426t445.5 156q224 0 370 -108t172 -295h-274q-10 89 -80 136.5t-188 47.5q-162 0 -248 -94t-86 -269q0 -181 88 -276.5t252 -95.5
q124 0 199 58t94 167h-307v190h557l-2 -260l8 -352h-228l9 137h-4z" />
    <glyph glyph-name="Gcommaaccent.sc" horiz-adv-x="1320" 
d="M1004 137q-53 -75 -147 -116t-214 -41q-269 0 -424.5 158t-155.5 431q0 270 163.5 426t445.5 156q224 0 370 -108t172 -295h-274q-10 89 -80 136.5t-188 47.5q-162 0 -248 -94t-86 -269q0 -181 88 -276.5t252 -95.5q124 0 199 58t94 167h-307v190h557l-2 -260l8 -352
h-228l9 137h-4zM436 -371l84 330h246l-123 -330h-207z" />
    <glyph glyph-name="Gdotaccent.sc" horiz-adv-x="1320" 
d="M539 1210v203h268v-203h-268zM1004 137q-53 -75 -147 -116t-214 -41q-269 0 -424.5 158t-155.5 431q0 270 163.5 426t445.5 156q224 0 370 -108t172 -295h-274q-10 89 -80 136.5t-188 47.5q-162 0 -248 -94t-86 -269q0 -181 88 -276.5t252 -95.5q124 0 199 58t94 167
h-307v190h557l-2 -260l8 -352h-228l9 137h-4z" />
    <glyph glyph-name="H.sc" horiz-adv-x="1257" 
d="M403 0h-280l8 352v428l-8 350h280l-6 -350v-92h463v92l-8 350h283l-9 -350v-428l9 -352h-283l8 352v111h-463v-111z" />
    <glyph glyph-name="Hbar.sc" horiz-adv-x="1345" 
d="M449 0h-281l8 352v447h-129v174h125l-4 157h281l-3 -157h455l-4 157h283l-4 -157h124v-174h-129v-447l9 -352h-283l8 352v111h-463v-111zM442 688h463v111h-463v-111z" />
    <glyph glyph-name="Hcircumflex.sc" horiz-adv-x="1257" 
d="M551 1237h-219l198 184h228l198 -184h-219l-94 78zM403 0h-280l8 352v428l-8 350h280l-6 -350v-92h463v92l-8 350h283l-9 -350v-428l9 -352h-283l8 352v111h-463v-111z" />
    <glyph glyph-name="I.sc" horiz-adv-x="528" 
d="M403 0h-280l8 311v512l-8 307h280l-6 -307v-512z" />
    <glyph glyph-name="IJ.sc" horiz-adv-x="1024" 
d="M403 0h-280l8 311v512l-8 307h280l-6 -307v-512zM895 -78q0 -134 -82 -211.5t-223 -77.5q-66 0 -156 17v211q54 -13 80 -13q54 0 84.5 33.5t30.5 93.5v805l-8 350h280l-6 -350v-858z" />
    <glyph glyph-name="Iacute.sc" horiz-adv-x="528" 
d="M653 1413l-293 -186h-213l181 186h325zM403 0h-280l8 311v512l-8 307h280l-6 -307v-512z" />
    <glyph glyph-name="Ibreve.sc" horiz-adv-x="528" 
d="M0 1413h164q6 -88 98 -88q90 0 96 88h162q0 -96 -67.5 -151.5t-190.5 -55.5q-124 0 -192 55t-70 152zM403 0h-280l8 311v512l-8 307h280l-6 -307v-512z" />
    <glyph glyph-name="Icaron.sc" horiz-adv-x="528" 
d="M186 1417l93 -78l94 78h219l-199 -184h-227l-199 184h219zM403 0h-280l8 311v512l-8 307h280l-6 -307v-512z" />
    <glyph glyph-name="Icircumflex.sc" horiz-adv-x="528" 
d="M186 1237h-219l199 184h227l199 -184h-219l-94 78zM403 0h-280l8 311v512l-8 307h280l-6 -307v-512z" />
    <glyph glyph-name="Idieresis.sc" horiz-adv-x="528" 
d="M348 1233v182h254v-182h-254zM-76 1233v182h254v-182h-254zM403 0h-280l8 311v512l-8 307h280l-6 -307v-512z" />
    <glyph glyph-name="Idotaccent.sc" horiz-adv-x="528" 
d="M129 1210v203h268v-203h-268zM403 0h-280l8 311v512l-8 307h280l-6 -307v-512z" />
    <glyph glyph-name="Igrave.sc" horiz-adv-x="528" 
d="M-152 1440h326l180 -187h-213zM403 0h-280l8 311v512l-8 307h280l-6 -307v-512z" />
    <glyph glyph-name="Imacron.sc" horiz-adv-x="528" 
d="M10 1217v151h498v-151h-498zM403 0h-280l8 311v512l-8 307h280l-6 -307v-512z" />
    <glyph glyph-name="Iogonek.sc" horiz-adv-x="528" 
d="M406 0h-7q-119 -44 -166 -77t-47 -66q0 -50 74 -50q56 0 158 37v-149q-146 -64 -264 -64q-90 0 -138.5 39t-48.5 99q0 123 191 231h-33l8 311v512l-8 307h281l-7 -307v-512l7 -309v-2z" />
    <glyph glyph-name="Itilde.sc" horiz-adv-x="528" 
d="M117 1202h-119q0 103 46 160t124 57q37 0 68 -12.5t48.5 -27.5t39 -27.5t41.5 -12.5q61 0 61 84h119q0 -101 -46 -159t-122 -58q-35 0 -64 12.5t-46 27.5t-40.5 27.5t-48.5 12.5q-61 0 -61 -84zM403 0h-280l8 311v512l-8 307h280l-6 -307v-512z" />
    <glyph glyph-name="J.sc" horiz-adv-x="536" 
d="M408 -78q0 -133 -82.5 -211t-223.5 -78q-65 0 -155 17v211q54 -13 80 -13q54 0 84 33.5t30 93.5v805l-8 350h281l-6 -350v-858z" />
    <glyph glyph-name="Jacute.sc" horiz-adv-x="536" 
d="M672 1413l-293 -186h-213l180 186h326zM408 -78q0 -133 -82.5 -211t-223.5 -78q-65 0 -155 17v211q54 -13 80 -13q54 0 84 33.5t30 93.5v805l-8 350h281l-6 -350v-858z" />
    <glyph glyph-name="Jcircumflex.sc" horiz-adv-x="536" 
d="M197 1237h-220l199 184h227l199 -184h-219l-94 78zM408 -78q0 -133 -82.5 -211t-223.5 -78q-65 0 -155 17v211q54 -13 80 -13q54 0 84 33.5t30 93.5v805l-8 350h281l-6 -350v-858z" />
    <glyph glyph-name="K.sc" horiz-adv-x="1198" 
d="M399 0h-274l6 350v430l-8 350h276l-6 -350v-104h6l99 104l303 350h344l-332 -350l-119 -135v-6l221 -287l283 -352h-358l-224 311l-100 140h-14l-109 -117v-31z" />
    <glyph glyph-name="Kcommaaccent.sc" horiz-adv-x="1198" 
d="M399 0h-274l6 350v430l-8 350h276l-6 -350v-104h6l99 104l303 350h344l-332 -350l-119 -135v-6l221 -287l283 -352h-358l-224 311l-100 140h-14l-109 -117v-31zM393 -371l84 330h246l-123 -330h-207z" />
    <glyph glyph-name="L.sc" horiz-adv-x="933" 
d="M903 0h-780l8 352v428l-8 350h280l-6 -350v-553h506v-227z" />
    <glyph glyph-name="Lacute.sc" horiz-adv-x="933" 
d="M653 1413l-293 -186h-213l181 186h325zM903 0h-780l8 352v428l-8 350h280l-6 -350v-553h506v-227z" />
    <glyph glyph-name="Lcaron.sc" horiz-adv-x="950" 
d="M903 0h-780l8 352v428l-8 350h280l-6 -350v-553h506v-227zM602 809l45 319h246l-119 -319h-172z" />
    <glyph glyph-name="Lcommaaccent.sc" horiz-adv-x="933" 
d="M903 0h-780l8 352v428l-8 350h280l-6 -350v-553h506v-227zM299 -371l84 330h246l-123 -330h-207z" />
    <glyph glyph-name="Ldot.sc" horiz-adv-x="948" 
d="M903 0h-780l8 352v428l-8 350h280l-6 -350v-553h506v-227zM559 504v282h285v-282h-285z" />
    <glyph glyph-name="Lslash.sc" horiz-adv-x="958" 
d="M926 0h-781l9 352v47l-105 -59v195l105 59v186l-9 350h281l-6 -350v-35l309 177v-197l-309 -176v-322h506v-227z" />
    <glyph glyph-name="M.sc" horiz-adv-x="1593" 
d="M395 0h-272l8 352v428l-8 350h369l301 -729h6l307 729h364l-8 -350v-428l8 -352h-274l8 352l-2 400h-6l-295 -752h-209l-295 745h-6l-2 -393z" />
    <glyph glyph-name="N.sc" horiz-adv-x="1316" 
d="M399 0h-276l8 352v428l-8 350h239l461 -575l95 -117h6v342l-6 350h276l-8 -350v-428l8 -352h-256l-463 578l-78 102h-6v-328z" />
    <glyph glyph-name="Nacute.sc" horiz-adv-x="1316" 
d="M1049 1413l-293 -186h-213l180 186h326zM399 0h-276l8 352v428l-8 350h239l461 -575l95 -117h6v342l-6 350h276l-8 -350v-428l8 -352h-256l-463 578l-78 102h-6v-328z" />
    <glyph glyph-name="Ncaron.sc" horiz-adv-x="1316" 
d="M582 1417l92 -78l94 78h219l-199 -184h-227l-199 184h220zM399 0h-276l8 352v428l-8 350h239l461 -575l95 -117h6v342l-6 350h276l-8 -350v-428l8 -352h-256l-463 578l-78 102h-6v-328z" />
    <glyph glyph-name="Ncommaaccent.sc" horiz-adv-x="1316" 
d="M399 0h-276l8 352v428l-8 350h239l461 -575l95 -117h6v342l-6 350h276l-8 -350v-428l8 -352h-256l-463 578l-78 102h-6v-328zM451 -371l84 330h245l-123 -330h-206z" />
    <glyph glyph-name="Eng.sc" horiz-adv-x="1316" 
d="M399 0h-276l8 352v428l-8 350h239l461 -575l95 -117h6v342l-6 350h276l-8 -350v-428l8 -352h-2l2 -55q0 -150 -79.5 -232t-225.5 -82q-39 0 -84 9v194q24 -4 33 -4q94 0 94 109v69l-6 8l-19 21h2l-434 541l-78 102h-6v-328z" />
    <glyph glyph-name="Ntilde.sc" horiz-adv-x="1316" 
d="M512 1202h-119q0 103 46 160t124 57q37 0 68 -12.5t48.5 -27.5t39 -27.5t41.5 -12.5q61 0 61 84h119q0 -101 -46 -159t-122 -58q-35 0 -64 12.5t-46 27.5t-40.5 27.5t-48.5 12.5q-61 0 -61 -84zM399 0h-276l8 352v428l-8 350h239l461 -575l95 -117h6v342l-6 350h276
l-8 -350v-428l8 -352h-256l-463 578l-78 102h-6v-328z" />
    <glyph glyph-name="O.sc" horiz-adv-x="1314" 
d="M1251 571q0 -267 -157 -429t-437 -162q-279 0 -436.5 162.5t-157.5 430.5q0 259 157.5 418.5t436.5 159.5q186 0 322 -75t204 -205t68 -300zM338 569q0 -169 82 -267.5t237 -98.5t237.5 98.5t82.5 265.5q0 163 -83.5 264t-236.5 101t-236 -100t-83 -263z" />
    <glyph glyph-name="Oacute.sc" horiz-adv-x="1314" 
d="M1049 1407l-293 -186h-213l180 186h326zM1251 571q0 -267 -157 -429t-437 -162q-279 0 -436.5 162.5t-157.5 430.5q0 259 157.5 418.5t436.5 159.5q186 0 322 -75t204 -205t68 -300zM338 569q0 -169 82 -267.5t237 -98.5t237.5 98.5t82.5 265.5q0 163 -83.5 264
t-236.5 101t-236 -100t-83 -263z" />
    <glyph glyph-name="Obreve.sc" horiz-adv-x="1314" 
d="M395 1407h164q6 -88 98 -88q91 0 97 88h161q0 -96 -67.5 -151.5t-190.5 -55.5q-124 0 -192 55t-70 152zM1251 571q0 -267 -157 -429t-437 -162q-279 0 -436.5 162.5t-157.5 430.5q0 259 157.5 418.5t436.5 159.5q186 0 322 -75t204 -205t68 -300zM338 569
q0 -169 82 -267.5t237 -98.5t237.5 98.5t82.5 265.5q0 163 -83.5 264t-236.5 101t-236 -100t-83 -263z" />
    <glyph glyph-name="Ocircumflex.sc" horiz-adv-x="1314" 
d="M582 1231h-220l199 184h227l199 -184h-219l-94 78zM1251 571q0 -267 -157 -429t-437 -162q-279 0 -436.5 162.5t-157.5 430.5q0 259 157.5 418.5t436.5 159.5q186 0 322 -75t204 -205t68 -300zM338 569q0 -169 82 -267.5t237 -98.5t237.5 98.5t82.5 265.5
q0 163 -83.5 264t-236.5 101t-236 -100t-83 -263z" />
    <glyph glyph-name="Odieresis.sc" horiz-adv-x="1314" 
d="M743 1227v182h254v-182h-254zM319 1227v182h254v-182h-254zM1251 571q0 -267 -157 -429t-437 -162q-279 0 -436.5 162.5t-157.5 430.5q0 259 157.5 418.5t436.5 159.5q186 0 322 -75t204 -205t68 -300zM338 569q0 -169 82 -267.5t237 -98.5t237.5 98.5t82.5 265.5
q0 163 -83.5 264t-236.5 101t-236 -100t-83 -263z" />
    <glyph glyph-name="Ograve.sc" horiz-adv-x="1314" 
d="M242 1434h325l181 -187h-213zM1251 571q0 -267 -157 -429t-437 -162q-279 0 -436.5 162.5t-157.5 430.5q0 259 157.5 418.5t436.5 159.5q186 0 322 -75t204 -205t68 -300zM338 569q0 -169 82 -267.5t237 -98.5t237.5 98.5t82.5 265.5q0 163 -83.5 264t-236.5 101
t-236 -100t-83 -263z" />
    <glyph glyph-name="Ohungarumlaut.sc" horiz-adv-x="1314" 
d="M780 1407l-280 -186h-205l172 186h313zM1204 1407l-280 -186h-205l172 186h313zM1251 571q0 -267 -157 -429t-437 -162q-279 0 -436.5 162.5t-157.5 430.5q0 259 157.5 418.5t436.5 159.5q186 0 322 -75t204 -205t68 -300zM338 569q0 -169 82 -267.5t237 -98.5
t237.5 98.5t82.5 265.5q0 163 -83.5 264t-236.5 101t-236 -100t-83 -263z" />
    <glyph glyph-name="Omacron.sc" horiz-adv-x="1314" 
d="M406 1210v152h497v-152h-497zM1251 571q0 -267 -157 -429t-437 -162q-279 0 -436.5 162.5t-157.5 430.5q0 259 157.5 418.5t436.5 159.5q186 0 322 -75t204 -205t68 -300zM338 569q0 -169 82 -267.5t237 -98.5t237.5 98.5t82.5 265.5q0 163 -83.5 264t-236.5 101
t-236 -100t-83 -263z" />
    <glyph glyph-name="Oslash.sc" horiz-adv-x="1335" 
d="M1264 571q0 -267 -157 -429t-437 -162q-187 0 -322 75l-43 -51h-231l137 162q-135 160 -135 407q0 259 157.5 418.5t436.5 159.5q178 0 315 -70l64 76h233l-158 -184q140 -155 140 -402zM350 569q0 -113 37 -194l440 520q-64 37 -157 37q-154 0 -237 -100.5t-83 -262.5z
M989 567q0 113 -41 197l-442 -522q70 -39 164 -39q155 0 237 98.5t82 265.5z" />
    <glyph glyph-name="Oslashacute.sc" horiz-adv-x="1327" 
d="M1057 1407l-293 -186h-213l180 186h326zM1260 571q0 -267 -157 -429t-437 -162q-173 0 -299 63l-37 -41h-232l125 148q-151 160 -151 423q0 259 157.5 418.5t436.5 159.5q196 0 335 -82l72 86h234l-170 -201q123 -154 123 -383zM346 569q0 -129 49 -217l449 531
q-74 49 -178 49q-154 0 -237 -100.5t-83 -262.5zM985 567q0 95 -31 174l-430 -510q64 -28 142 -28q155 0 237 98.5t82 265.5z" />
    <glyph glyph-name="Otilde.sc" horiz-adv-x="1314" 
d="M512 1196h-119q0 103 46 160t124 57q37 0 68 -12.5t48.5 -27.5t39 -27.5t41.5 -12.5q61 0 61 84h119q0 -101 -46 -159t-122 -58q-35 0 -64 12.5t-46 27.5t-40.5 27.5t-48.5 12.5q-61 0 -61 -84zM1251 571q0 -267 -157 -429t-437 -162q-279 0 -436.5 162.5t-157.5 430.5
q0 259 157.5 418.5t436.5 159.5q186 0 322 -75t204 -205t68 -300zM338 569q0 -169 82 -267.5t237 -98.5t237.5 98.5t82.5 265.5q0 163 -83.5 264t-236.5 101t-236 -100t-83 -263z" />
    <glyph glyph-name="OE.sc" horiz-adv-x="1878" 
d="M1004 102q-134 -122 -355 -122q-273 0 -428 163.5t-155 429.5q0 169 67.5 299t200.5 204.5t315 74.5q216 0 355 -123h2l-7 102h789v-208h-545v-234h518v-209h-518v-270h561v-209h-805l7 102h-2zM338 569q0 -168 82.5 -268t236.5 -100t237 99.5t83 266.5
q0 162 -83.5 263.5t-236.5 101.5t-236 -101.5t-83 -261.5z" />
    <glyph glyph-name="P.sc" horiz-adv-x="1097" 
d="M399 0h-276l8 352v428l-8 350h487q207 0 326 -100.5t119 -273.5q0 -190 -125.5 -288.5t-339.5 -98.5h-197v-58zM393 924v-349h193q196 0 196 173q0 86 -46 131t-132 45h-211z" />
    <glyph glyph-name="Thorn.sc" horiz-adv-x="1112" 
d="M399 0h-276l8 352v428l-8 350h276l-6 -196h244q194 0 306 -95.5t112 -260.5q0 -175 -111.5 -276t-304.5 -101h-246zM393 725v-315h223q80 0 123 40t43 115q0 78 -43 119t-125 41h-221z" />
    <glyph glyph-name="Q.sc" horiz-adv-x="1314" 
d="M795 -254h-281l6 131l2 115q-218 38 -338.5 193.5t-120.5 387.5q0 259 157.5 418.5t436.5 159.5q186 0 322 -75t204 -205t68 -300q0 -232 -121 -387.5t-342 -193.5v-113zM338 569q0 -169 82 -267.5t237 -98.5t237.5 98t82.5 266q0 163 -83.5 264t-236.5 101t-236 -100
t-83 -263z" />
    <glyph glyph-name="R.sc" horiz-adv-x="1146" 
d="M399 0h-276l8 352v428l-8 350h483q206 0 326.5 -101t120.5 -263q0 -111 -56 -195.5t-153 -124.5v-8l272 -438h-289l-223 389h-211v-78zM393 932v-344h180q93 0 149 44.5t56 127.5q0 82 -47.5 127t-136.5 45h-201z" />
    <glyph glyph-name="Racute.sc" horiz-adv-x="1146" 
d="M887 1413l-293 -186h-213l180 186h326zM399 0h-276l8 352v428l-8 350h483q206 0 326.5 -101t120.5 -263q0 -111 -56 -195.5t-153 -124.5v-8l272 -438h-289l-223 389h-211v-78zM393 932v-344h180q93 0 149 44.5t56 127.5q0 82 -47.5 127t-136.5 45h-201z" />
    <glyph glyph-name="Rcaron.sc" horiz-adv-x="1146" 
d="M420 1417l92 -78l94 78h219l-198 -184h-228l-198 184h219zM399 0h-276l8 352v428l-8 350h483q206 0 326.5 -101t120.5 -263q0 -111 -56 -195.5t-153 -124.5v-8l272 -438h-289l-223 389h-211v-78zM393 932v-344h180q93 0 149 44.5t56 127.5q0 82 -47.5 127t-136.5 45h-201
z" />
    <glyph glyph-name="Rcommaaccent.sc" horiz-adv-x="1146" 
d="M399 0h-276l8 352v428l-8 350h483q206 0 326.5 -101t120.5 -263q0 -111 -56 -195.5t-153 -124.5v-8l272 -438h-289l-223 389h-211v-78zM393 932v-344h180q93 0 149 44.5t56 127.5q0 82 -47.5 127t-136.5 45h-201zM336 -371l84 330h246l-123 -330h-207z" />
    <glyph glyph-name="S.sc" horiz-adv-x="1159" 
d="M1106 326q0 -162 -139 -252t-383 -90q-247 0 -390 107.5t-143 293.5h273q0 -100 68.5 -153.5t197.5 -53.5q241 0 241 141q0 25 -10 45.5t-32.5 36.5t-45 27t-61.5 21.5t-68 16.5t-77 15l-70.5 15t-68.5 16.5t-69.5 21t-62 25.5t-59 32.5t-47 41t-38.5 51.5t-22.5 62.5
t-9.5 76.5q0 152 126.5 240t344.5 88q226 0 361 -98t141 -265h-272q-3 82 -61 125t-167 43q-198 0 -198 -116q0 -38 21 -65t64 -44t86.5 -27.5t108.5 -22.5q19 -3 29 -5q52 -11 88.5 -19.5t85 -24t82 -32.5t69.5 -44t57.5 -58.5t35.5 -75.5t14 -96z" />
    <glyph glyph-name="Sacute.sc" horiz-adv-x="1159" 
d="M952 1413l-293 -186h-213l181 186h325zM1106 326q0 -162 -139 -252t-383 -90q-247 0 -390 107.5t-143 293.5h273q0 -100 68.5 -153.5t197.5 -53.5q241 0 241 141q0 25 -10 45.5t-32.5 36.5t-45 27t-61.5 21.5t-68 16.5t-77 15l-70.5 15t-68.5 16.5t-69.5 21t-62 25.5
t-59 32.5t-47 41t-38.5 51.5t-22.5 62.5t-9.5 76.5q0 152 126.5 240t344.5 88q226 0 361 -98t141 -265h-272q-3 82 -61 125t-167 43q-198 0 -198 -116q0 -38 21 -65t64 -44t86.5 -27.5t108.5 -22.5q19 -3 29 -5q52 -11 88.5 -19.5t85 -24t82 -32.5t69.5 -44t57.5 -58.5
t35.5 -75.5t14 -96z" />
    <glyph glyph-name="Scaron.sc" horiz-adv-x="1159" 
d="M485 1417l93 -78l94 78h219l-199 -184h-227l-199 184h219zM1106 326q0 -162 -139 -252t-383 -90q-247 0 -390 107.5t-143 293.5h273q0 -100 68.5 -153.5t197.5 -53.5q241 0 241 141q0 25 -10 45.5t-32.5 36.5t-45 27t-61.5 21.5t-68 16.5t-77 15l-70.5 15t-68.5 16.5
t-69.5 21t-62 25.5t-59 32.5t-47 41t-38.5 51.5t-22.5 62.5t-9.5 76.5q0 152 126.5 240t344.5 88q226 0 361 -98t141 -265h-272q-3 82 -61 125t-167 43q-198 0 -198 -116q0 -38 21 -65t64 -44t86.5 -27.5t108.5 -22.5q19 -3 29 -5q52 -11 88.5 -19.5t85 -24t82 -32.5
t69.5 -44t57.5 -58.5t35.5 -75.5t14 -96z" />
    <glyph glyph-name="Scedilla.sc" horiz-adv-x="1159" 
d="M598 -369q-86 0 -141.5 36.5t-55.5 94.5h140q0 -43 55 -43q26 0 41.5 16t15.5 42q0 25 -21.5 42t-56.5 17h-100l31 152q-214 17 -334.5 122t-120.5 275h273q0 -100 68.5 -153.5t197.5 -53.5q241 0 241 141q0 25 -10 45.5t-32.5 36.5t-45 27t-61.5 21.5t-68 16.5t-77 15
l-70.5 15t-68.5 16.5t-69.5 21t-62 25.5t-59 32.5t-47 41t-38.5 51.5t-22.5 62.5t-9.5 76.5q0 152 126.5 240t344.5 88q226 0 361 -98t141 -265h-272q-3 82 -61 125t-167 43q-198 0 -198 -116q0 -38 21 -65t64 -44t86.5 -27.5t108.5 -22.5q19 -3 29 -5q52 -11 88.5 -19.5
t85 -24t82 -32.5t69.5 -44t57.5 -58.5t35.5 -75.5t14 -96q0 -151 -122.5 -240t-340.5 -100l-14 -72q82 0 122 -39.5t40 -99.5q0 -64 -51.5 -104t-141.5 -40z" />
    <glyph glyph-name="Scircumflex.sc" horiz-adv-x="1159" 
d="M485 1237h-219l199 184h227l199 -184h-219l-94 78zM1106 326q0 -162 -139 -252t-383 -90q-247 0 -390 107.5t-143 293.5h273q0 -100 68.5 -153.5t197.5 -53.5q241 0 241 141q0 25 -10 45.5t-32.5 36.5t-45 27t-61.5 21.5t-68 16.5t-77 15l-70.5 15t-68.5 16.5t-69.5 21
t-62 25.5t-59 32.5t-47 41t-38.5 51.5t-22.5 62.5t-9.5 76.5q0 152 126.5 240t344.5 88q226 0 361 -98t141 -265h-272q-3 82 -61 125t-167 43q-198 0 -198 -116q0 -38 21 -65t64 -44t86.5 -27.5t108.5 -22.5q19 -3 29 -5q52 -11 88.5 -19.5t85 -24t82 -32.5t69.5 -44
t57.5 -58.5t35.5 -75.5t14 -96z" />
    <glyph glyph-name="Scommaaccent.sc" horiz-adv-x="1159" 
d="M1106 326q0 -162 -139 -252t-383 -90q-247 0 -390 107.5t-143 293.5h273q0 -100 68.5 -153.5t197.5 -53.5q241 0 241 141q0 25 -10 45.5t-32.5 36.5t-45 27t-61.5 21.5t-68 16.5t-77 15l-70.5 15t-68.5 16.5t-69.5 21t-62 25.5t-59 32.5t-47 41t-38.5 51.5t-22.5 62.5
t-9.5 76.5q0 152 126.5 240t344.5 88q226 0 361 -98t141 -265h-272q-3 82 -61 125t-167 43q-198 0 -198 -116q0 -38 21 -65t64 -44t86.5 -27.5t108.5 -22.5q19 -3 29 -5q52 -11 88.5 -19.5t85 -24t82 -32.5t69.5 -44t57.5 -58.5t35.5 -75.5t14 -96zM377 -371l84 330h246
l-123 -330h-207z" />
    <glyph glyph-name="Germandbls.sc" horiz-adv-x="1275" 
d="M385 0h-274l8 352v422q0 177 138 277t380 100q120 0 257.5 -30.5t246.5 -82.5l-86 -211l-72 -172q108 -31 172 -119t64 -204q0 -162 -109.5 -255t-298.5 -93q-91 0 -201 20l8 207q59 -18 136 -18q94 0 143 40.5t49 118.5q0 83 -63.5 129.5t-180.5 46.5l154 385
q-128 39 -225 39q-123 0 -187.5 -46.5t-64.5 -135.5v-418z" />
    <glyph glyph-name="Schwa.sc" horiz-adv-x="1261" 
d="M78 719q33 199 174 315.5t360 116.5q270 0 427 -158.5t157 -433.5q0 -268 -157 -423.5t-427 -155.5q-261 0 -409 175.5t-142 477.5h2h855q-13 146 -88.5 222.5t-206.5 76.5q-112 0 -184 -55t-89 -158h-272zM625 201q117 0 191.5 67t96.5 191h-561q45 -258 273 -258z" />
    <glyph glyph-name="T.sc" horiz-adv-x="1060" 
d="M672 0h-279l8 352v557h-370v224h999v-224h-366v-557z" />
    <glyph glyph-name="Tbar.sc" horiz-adv-x="1071" 
d="M678 0h-279l9 352v228h-215v174h215v155h-371v224h999v-224h-366v-155h219v-174h-219v-228z" />
    <glyph glyph-name="Tcaron.sc" horiz-adv-x="1060" 
d="M455 1417l92 -78l94 78h219l-198 -184h-228l-198 184h219zM672 0h-279l8 352v557h-370v224h999v-224h-366v-557z" />
    <glyph glyph-name="Tcedilla.sc" horiz-adv-x="1060" 
d="M545 -369q-86 0 -141.5 36.5t-55.5 94.5h139q0 -20 15 -31.5t41 -11.5t41.5 16t15.5 42q0 25 -21.5 42t-56.5 17h-100l33 164h-62l8 352v557h-370v224h999v-224h-366v-557l8 -352h-80l-17 -86q82 0 122 -39.5t40 -99.5q0 -65 -51 -104.5t-141 -39.5z" />
    <glyph glyph-name="Tcommaaccent.sc" horiz-adv-x="1060" 
d="M672 0h-279l8 352v557h-370v224h999v-224h-366v-557zM326 -371l84 330h245l-123 -330h-206z" />
    <glyph glyph-name="U.sc" horiz-adv-x="1247" 
d="M1133 461q0 -224 -134.5 -352.5t-367.5 -128.5q-240 0 -378 128.5t-138 352.5v319l-9 350h281l-6 -350v-319q0 -127 63 -193.5t185 -66.5q117 0 177 65.5t60 190.5v323l-6 350h279l-6 -350v-319z" />
    <glyph glyph-name="Uacute.sc" horiz-adv-x="1247" 
d="M1020 1413l-293 -186h-213l180 186h326zM1133 461q0 -224 -134.5 -352.5t-367.5 -128.5q-240 0 -378 128.5t-138 352.5v319l-9 350h281l-6 -350v-319q0 -127 63 -193.5t185 -66.5q117 0 177 65.5t60 190.5v323l-6 350h279l-6 -350v-319z" />
    <glyph glyph-name="Ubreve.sc" horiz-adv-x="1247" 
d="M367 1413h163q6 -88 99 -88q90 0 96 88h162q0 -96 -67.5 -151.5t-190.5 -55.5q-124 0 -192 55t-70 152zM1133 461q0 -224 -134.5 -352.5t-367.5 -128.5q-240 0 -378 128.5t-138 352.5v319l-9 350h281l-6 -350v-319q0 -127 63 -193.5t185 -66.5q117 0 177 65.5t60 190.5
v323l-6 350h279l-6 -350v-319z" />
    <glyph glyph-name="Ucaron.sc" horiz-adv-x="1247" 
d="M553 1417l92 -78l94 78h219l-198 -184h-228l-198 184h219zM1133 461q0 -224 -134.5 -352.5t-367.5 -128.5q-240 0 -378 128.5t-138 352.5v319l-9 350h281l-6 -350v-319q0 -127 63 -193.5t185 -66.5q117 0 177 65.5t60 190.5v323l-6 350h279l-6 -350v-319z" />
    <glyph glyph-name="Ucircumflex.sc" horiz-adv-x="1247" 
d="M553 1237h-219l198 184h228l198 -184h-219l-94 78zM1133 461q0 -224 -134.5 -352.5t-367.5 -128.5q-240 0 -378 128.5t-138 352.5v319l-9 350h281l-6 -350v-319q0 -127 63 -193.5t185 -66.5q117 0 177 65.5t60 190.5v323l-6 350h279l-6 -350v-319z" />
    <glyph glyph-name="Udieresis.sc" horiz-adv-x="1247" 
d="M715 1233v182h254v-182h-254zM291 1233v182h254v-182h-254zM1133 461q0 -224 -134.5 -352.5t-367.5 -128.5q-240 0 -378 128.5t-138 352.5v319l-9 350h281l-6 -350v-319q0 -127 63 -193.5t185 -66.5q117 0 177 65.5t60 190.5v323l-6 350h279l-6 -350v-319z" />
    <glyph glyph-name="Ugrave.sc" horiz-adv-x="1247" 
d="M213 1440h326l180 -187h-213zM1133 461q0 -224 -134.5 -352.5t-367.5 -128.5q-240 0 -378 128.5t-138 352.5v319l-9 350h281l-6 -350v-319q0 -127 63 -193.5t185 -66.5q117 0 177 65.5t60 190.5v323l-6 350h279l-6 -350v-319z" />
    <glyph glyph-name="Uhungarumlaut.sc" horiz-adv-x="1247" 
d="M752 1413l-281 -186h-205l172 186h314zM1176 1413l-281 -186h-205l172 186h314zM1133 461q0 -224 -134.5 -352.5t-367.5 -128.5q-240 0 -378 128.5t-138 352.5v319l-9 350h281l-6 -350v-319q0 -127 63 -193.5t185 -66.5q117 0 177 65.5t60 190.5v323l-6 350h279l-6 -350
v-319z" />
    <glyph glyph-name="Umacron.sc" horiz-adv-x="1247" 
d="M377 1217v151h497v-151h-497zM1133 461q0 -224 -134.5 -352.5t-367.5 -128.5q-240 0 -378 128.5t-138 352.5v319l-9 350h281l-6 -350v-319q0 -127 63 -193.5t185 -66.5q117 0 177 65.5t60 190.5v323l-6 350h279l-6 -350v-319z" />
    <glyph glyph-name="Uogonek.sc" horiz-adv-x="1247" 
d="M811 -305q-146 -64 -264 -64q-90 0 -138.5 39t-48.5 99q0 116 168 217q-195 28 -304 152.5t-109 322.5v319l-9 350h281l-6 -350v-319q0 -127 63 -193.5t185 -66.5q117 0 177 65.5t60 190.5v323l-6 350h279l-6 -350v-319q0 -185 -92 -306t-259 -159q-112 -42 -157 -75
t-45 -64q0 -50 73 -50q56 0 158 37v-149z" />
    <glyph glyph-name="Uring.sc" horiz-adv-x="1247" 
d="M631 1151q-75 0 -124.5 45t-49.5 113t49.5 112.5t124.5 44.5q74 0 123 -45t49 -112q0 -68 -49.5 -113t-122.5 -45zM631 1253q28 0 46.5 16.5t18.5 39.5q0 25 -18.5 41t-46.5 16q-29 0 -48.5 -16t-19.5 -41q0 -23 19.5 -39.5t48.5 -16.5zM1133 461q0 -224 -134.5 -352.5
t-367.5 -128.5q-240 0 -378 128.5t-138 352.5v319l-9 350h281l-6 -350v-319q0 -127 63 -193.5t185 -66.5q117 0 177 65.5t60 190.5v323l-6 350h279l-6 -350v-319z" />
    <glyph glyph-name="Utilde.sc" horiz-adv-x="1247" 
d="M483 1202h-118q0 103 46 160t124 57q37 0 68 -12.5t48 -27.5t38.5 -27.5t41.5 -12.5q62 0 62 84h118q0 -101 -46 -159t-122 -58q-44 0 -77.5 20t-61.5 40t-59 20q-62 0 -62 -84zM1133 461q0 -224 -134.5 -352.5t-367.5 -128.5q-240 0 -378 128.5t-138 352.5v319l-9 350
h281l-6 -350v-319q0 -127 63 -193.5t185 -66.5q117 0 177 65.5t60 190.5v323l-6 350h279l-6 -350v-319z" />
    <glyph glyph-name="V.sc" horiz-adv-x="1247" 
d="M776 0h-307l-309 780l-152 350h320l121 -350l174 -450h6l170 450l121 350h319l-152 -350z" />
    <glyph glyph-name="W.sc" horiz-adv-x="1712" 
d="M653 0h-268l-254 780l-117 350h310l86 -350l125 -463h6l194 478l-114 335h307l94 -376l149 -437h7l127 463l84 350h309l-117 -350l-254 -780h-268l-195 510h-6z" />
    <glyph glyph-name="Wacute.sc" horiz-adv-x="1712" 
d="M1229 1411l-293 -186h-213l180 186h326zM653 0h-268l-254 780l-117 350h310l86 -350l125 -463h6l194 478l-114 335h307l94 -376l149 -437h7l127 463l84 350h309l-117 -350l-254 -780h-268l-195 510h-6z" />
    <glyph glyph-name="Wcircumflex.sc" horiz-adv-x="1712" 
d="M762 1235h-219l198 184h228l198 -184h-219l-94 78zM653 0h-268l-254 780l-117 350h310l86 -350l125 -463h6l194 478l-114 335h307l94 -376l149 -437h7l127 463l84 350h309l-117 -350l-254 -780h-268l-195 510h-6z" />
    <glyph glyph-name="Wdieresis.sc" horiz-adv-x="1712" 
d="M924 1231v182h254v-182h-254zM500 1231v182h254v-182h-254zM653 0h-268l-254 780l-117 350h310l86 -350l125 -463h6l194 478l-114 335h307l94 -376l149 -437h7l127 463l84 350h309l-117 -350l-254 -780h-268l-195 510h-6z" />
    <glyph glyph-name="Wgrave.sc" horiz-adv-x="1712" 
d="M424 1438h326l180 -187h-213zM653 0h-268l-254 780l-117 350h310l86 -350l125 -463h6l194 478l-114 335h307l94 -376l149 -437h7l127 463l84 350h309l-117 -350l-254 -780h-268l-195 510h-6z" />
    <glyph glyph-name="X.sc" horiz-adv-x="1171" 
d="M324 0h-330l262 352l156 221v7l-136 200l-253 350h342l172 -309l38 -67h9l43 67l174 309h340l-258 -350l-129 -192v-4l166 -232l266 -352h-342l-195 311l-59 97h-8l-66 -97z" />
    <glyph glyph-name="Y.sc" horiz-adv-x="1171" 
d="M723 0h-274l6 311v51l-230 418l-209 350h328l164 -350l74 -153h6l74 153l165 350h330l-211 -350l-229 -415v-54z" />
    <glyph glyph-name="Yacute.sc" horiz-adv-x="1171" 
d="M975 1413l-293 -186h-213l180 186h326zM723 0h-274l6 311v51l-230 418l-209 350h328l164 -350l74 -153h6l74 153l165 350h330l-211 -350l-229 -415v-54z" />
    <glyph glyph-name="Ycircumflex.sc" horiz-adv-x="1171" 
d="M508 1237h-219l198 184h228l198 -184h-219l-94 78zM723 0h-274l6 311v51l-230 418l-209 350h328l164 -350l74 -153h6l74 153l165 350h330l-211 -350l-229 -415v-54z" />
    <glyph glyph-name="Ydieresis.sc" horiz-adv-x="1171" 
d="M670 1233v182h254v-182h-254zM246 1233v182h254v-182h-254zM723 0h-274l6 311v51l-230 418l-209 350h328l164 -350l74 -153h6l74 153l165 350h330l-211 -350l-229 -415v-54z" />
    <glyph glyph-name="Ygrave.sc" horiz-adv-x="1171" 
d="M168 1440h326l180 -187h-213zM723 0h-274l6 311v51l-230 418l-209 350h328l164 -350l74 -153h6l74 153l165 350h330l-211 -350l-229 -415v-54z" />
    <glyph glyph-name="Ymacron.sc" horiz-adv-x="1171" 
d="M332 1217v151h497v-151h-497zM723 0h-274l6 311v51l-230 418l-209 350h328l164 -350l74 -153h6l74 153l165 350h330l-211 -350l-229 -415v-54z" />
    <glyph glyph-name="Z.sc" horiz-adv-x="1054" 
d="M997 0h-948v182l572 725v6h-537v217h895v-182l-569 -725v-6h587v-217z" />
    <glyph glyph-name="Zacute.sc" horiz-adv-x="1054" 
d="M922 1413l-293 -186h-213l180 186h326zM997 0h-948v182l572 725v6h-537v217h895v-182l-569 -725v-6h587v-217z" />
    <glyph glyph-name="Zcaron.sc" horiz-adv-x="1054" 
d="M455 1417l92 -78l94 78h219l-198 -184h-228l-198 184h219zM997 0h-948v182l572 725v6h-537v217h895v-182l-569 -725v-6h587v-217z" />
    <glyph glyph-name="Zdotaccent.sc" horiz-adv-x="1054" 
d="M399 1210v203h269v-203h-269zM997 0h-948v182l572 725v6h-537v217h895v-182l-569 -725v-6h587v-217z" />
    <glyph glyph-name="Aacute.loclPLK.sc" horiz-adv-x="1259" 
d="M541 1208l45 205h209l-78 -205h-176zM309 0h-301l144 352l292 778h377l289 -778l137 -352h-303l-84 250h-461zM625 897l-152 -430h311l-151 430h-8z" />
    <glyph glyph-name="Cacute.loclPLK.sc" 
d="M551 1208l45 205h209l-78 -205h-176zM1188 414q-28 -201 -175 -317.5t-374 -116.5q-266 0 -419.5 158.5t-153.5 434.5q0 268 153.5 423t419.5 155q235 0 378.5 -109.5t158.5 -300.5h-275q-20 92 -86.5 141.5t-169.5 49.5q-149 0 -228 -94t-79 -269q0 -179 79.5 -273.5
t229.5 -94.5q109 0 177.5 54.5t88.5 158.5h275z" />
    <glyph glyph-name="Eacute.loclPLK.sc" horiz-adv-x="1032" 
d="M438 1206l45 205h209l-78 -205h-176zM958 0h-835l8 352v428l-8 350h817v-208h-545v-234h520v-209h-520v-270h563v-209z" />
    <glyph glyph-name="Iacute.loclPLK.sc" horiz-adv-x="528" 
d="M174 1208l45 205h209l-78 -205h-176zM403 0h-280l8 311v512l-8 307h280l-6 -307v-512z" />
    <glyph glyph-name="Nacute.loclPLK.sc" horiz-adv-x="1316" 
d="M569 1208l45 205h209l-78 -205h-176zM399 0h-276l8 352v428l-8 350h239l461 -575l95 -117h6v342l-6 350h276l-8 -350v-428l8 -352h-256l-463 578l-78 102h-6v-328z" />
    <glyph glyph-name="Oacute.loclPLK.sc" horiz-adv-x="1314" 
d="M569 1202l45 205h209l-78 -205h-176zM1251 571q0 -267 -157 -429t-437 -162q-279 0 -436.5 162.5t-157.5 430.5q0 259 157.5 418.5t436.5 159.5q186 0 322 -75t204 -205t68 -300zM338 569q0 -169 82 -267.5t237 -98.5t237.5 98.5t82.5 265.5q0 163 -83.5 264t-236.5 101
t-236 -100t-83 -263z" />
    <glyph glyph-name="Sacute.loclPLK.sc" horiz-adv-x="1159" 
d="M473 1208l45 205h209l-78 -205h-176zM1106 326q0 -162 -139 -252t-383 -90q-247 0 -390 107.5t-143 293.5h273q0 -100 68.5 -153.5t197.5 -53.5q241 0 241 141q0 25 -10 45.5t-32.5 36.5t-45 27t-61.5 21.5t-68 16.5t-77 15l-70.5 15t-68.5 16.5t-69.5 21t-62 25.5
t-59 32.5t-47 41t-38.5 51.5t-22.5 62.5t-9.5 76.5q0 152 126.5 240t344.5 88q226 0 361 -98t141 -265h-272q-3 82 -61 125t-167 43q-198 0 -198 -116q0 -38 21 -65t64 -44t86.5 -27.5t108.5 -22.5q19 -3 29 -5q52 -11 88.5 -19.5t85 -24t82 -32.5t69.5 -44t57.5 -58.5
t35.5 -75.5t14 -96z" />
    <glyph glyph-name="Uacute.loclPLK.sc" horiz-adv-x="1247" 
d="M541 1208l45 205h209l-78 -205h-176zM1133 461q0 -224 -134.5 -352.5t-367.5 -128.5q-240 0 -378 128.5t-138 352.5v319l-9 350h281l-6 -350v-319q0 -127 63 -193.5t185 -66.5q117 0 177 65.5t60 190.5v323l-6 350h279l-6 -350v-319z" />
    <glyph glyph-name="Zacute.loclPLK.sc" horiz-adv-x="1054" 
d="M442 1208l45 205h209l-78 -205h-176zM997 0h-948v182l572 725v6h-537v217h895v-182l-569 -725v-6h587v-217z" />
    <glyph glyph-name="a.sups" horiz-adv-x="774" 
d="M494 885q-71 -107 -224 -107q-98 0 -157.5 44t-59.5 130q0 59 31.5 103.5t89.5 72t132.5 42t168.5 16.5v26q0 35 -27.5 54.5t-78.5 19.5q-60 0 -88.5 -21.5t-28.5 -56.5h-170q0 109 82 167.5t215 58.5t209 -60t76 -166v-229q0 -45 28 -45q33 0 56 10v-133
q-81 -33 -146 -33q-45 0 -74.5 20.5t-29.5 53.5v33h-4zM240 975q0 -24 20 -37.5t53 -13.5q78 0 120 33t42 96v20q-235 0 -235 -98z" />
    <glyph glyph-name="d.sups" horiz-adv-x="772" 
d="M496 883q-21 -45 -71 -75t-116 -30q-110 0 -181 88t-71 234q0 155 68 244.5t184 89.5q52 0 100.5 -25t77.5 -78h7v72l-7 231h195l-4 -231v-402l4 -208h-190l10 90h-6zM262 1106q0 -170 117 -170q115 0 115 168q0 176 -119 176q-113 0 -113 -174z" />
    <glyph glyph-name="egrave.sups" horiz-adv-x="749" 
d="M131 1649h199l116 -166h-139zM688 1020q-12 -111 -96 -175.5t-217 -64.5q-148 0 -233 87t-85 239t86 240t234 88q146 0 230.5 -87t84.5 -239v-39h-430q1 -73 36 -115.5t87 -42.5q50 0 82 28.5t35 80.5h186zM379 1303q-52 0 -82.5 -28.5t-30.5 -80.5h226q0 52 -30 80.5
t-83 28.5z" />
    <glyph glyph-name="n.sups" horiz-adv-x="751" 
d="M291 793h-201l4 202v197l-4 231h191l-5 -114h5q61 125 192 125q86 0 139.5 -60.5t53.5 -163.5v-215l4 -202h-201l6 202v176q0 51 -22 80t-58 29q-50 0 -79 -32t-29 -91v-162z" />
    <glyph glyph-name="o.sups" horiz-adv-x="772" 
d="M715 1104q0 -149 -89.5 -237.5t-240.5 -88.5t-240.5 88.5t-89.5 237.5q0 151 89.5 240.5t240.5 89.5t240.5 -89.5t89.5 -240.5zM260 1108q0 -88 32 -134t93 -46q62 0 94.5 46t32.5 134q0 86 -32.5 132t-94.5 46q-61 0 -93 -45.5t-32 -132.5z" />
    <glyph glyph-name="r.sups" horiz-adv-x="571" 
d="M291 793h-201l4 202v197l-4 231h191l-5 -102h5q65 113 176 113q54 0 78 -15l-3 -182q-53 20 -100 20q-71 0 -108 -39t-37 -106v-117z" />
    <glyph glyph-name="s.sups" horiz-adv-x="673" 
d="M623 983q0 -100 -73.5 -152.5t-211.5 -52.5q-137 0 -213 57t-76 164h184q0 -37 27 -57t78 -20q52 0 77 14.5t25 48.5q0 23 -27.5 36.5t-69 19t-90 18t-90 30t-68.5 58t-27 100.5q1 91 70.5 139t197.5 48q127 0 197.5 -56.5t70.5 -160.5h-180q0 36 -23 55.5t-65 19.5
q-84 0 -84 -57q0 -26 27.5 -41t68.5 -21t89.5 -17.5t89.5 -27t68.5 -53t27.5 -92.5z" />
    <glyph glyph-name="t.sups" horiz-adv-x="579" 
d="M528 807q-100 -29 -170 -29q-102 0 -160.5 58.5t-58.5 160.5v267h-96v155h111l-7 135h193l-4 -135h194v-155h-194v-240q0 -94 67 -94q42 0 125 22v-145z" />
    <glyph glyph-name="zero.lf" 
d="M614 -20q-246 0 -387 194t-141 531q0 338 142 533.5t388 195.5t386.5 -195t140.5 -534q0 -337 -141.5 -531t-387.5 -194zM614 1229q-124 0 -189 -134.5t-65 -389.5q0 -254 65 -387.5t189 -133.5t189 133.5t65 387.5q0 255 -65 389.5t-189 134.5z" />
    <glyph glyph-name="one.lf" horiz-adv-x="985" 
d="M70 0v231h340l2 121v772q-34 -28 -163 -101t-181 -97v237q54 29 188 117t182 133h250l-4 -379v-682l2 -121h262v-231h-878z" />
    <glyph glyph-name="two.lf" horiz-adv-x="1167" 
d="M817 616l-373 -407h658v-209h-1030v158l528 563q90 98 135 168t45 147q0 95 -51 144t-149 49q-111 0 -169 -82.5t-57 -239.5h-268q-1 243 135.5 385t370.5 142q208 0 332.5 -106t124.5 -284q0 -117 -51 -206t-181 -222z" />
    <glyph glyph-name="three.lf" horiz-adv-x="1214" 
d="M604 1434q223 0 350 -97t127 -266q0 -109 -68 -186.5t-188 -108.5v-6q143 -24 226.5 -121.5t83.5 -232.5q0 -203 -140.5 -319.5t-386.5 -116.5q-254 0 -398 120t-144 328h268q0 -119 67 -180.5t199 -61.5q125 0 189.5 58.5t64.5 169.5q0 110 -82 167.5t-240 57.5h-79v205
h49q149 0 226 51t77 149q0 185 -201 185q-220 0 -223 -236h-275q0 205 132.5 323t365.5 118z" />
    <glyph glyph-name="four.lf" horiz-adv-x="1187" 
d="M41 328l2 202l565 883h357l-9 -377v-501h174v-207h-174v-41l9 -287h-271l8 287v41h-661zM297 535h405v636z" />
    <glyph glyph-name="five.lf" horiz-adv-x="1155" 
d="M72 395h272q-2 -102 55.5 -154.5t171.5 -52.5q116 0 178 76.5t62 216.5t-62 216.5t-178 76.5q-163 0 -209 -143h-245l49 782h835l-2 -207h-616l-29 -360h6q102 133 302 133q194 0 306.5 -132.5t112.5 -359.5q0 -235 -135 -371t-373 -136q-231 0 -366 111.5t-135 303.5z
" />
    <glyph glyph-name="six.lf" horiz-adv-x="1208" 
d="M205 160q-69 92 -93 219.5t-24 318.5q0 216 61.5 380t188.5 260t305 96q200 0 319 -98.5t123 -268.5h-274q-6 75 -52.5 118.5t-121.5 43.5q-92 0 -156.5 -68.5t-92.5 -172t-28 -230.5h7q46 79 129 124.5t196 45.5q204 0 321 -126t117 -349q0 -214 -136.5 -343.5
t-360.5 -129.5q-291 0 -428 180zM621 741q-118 0 -181 -71.5t-63 -206.5q0 -137 63 -210t181 -73q115 0 175 73t60 210q0 135 -60 206.5t-175 71.5z" />
    <glyph glyph-name="seven.lf" horiz-adv-x="1075" 
d="M47 1182v231h977v-196q-195 -325 -329.5 -619.5t-221.5 -597.5h-262q173 593 518 1174v8h-682z" />
    <glyph glyph-name="eight.lf" horiz-adv-x="1204" 
d="M354 764q-102 37 -164.5 122t-62.5 191q0 169 127.5 267t345.5 98q219 0 346 -98t127 -267q0 -106 -60 -192t-161 -121v-6q129 -42 200.5 -139t71.5 -236q0 -188 -139.5 -295.5t-382.5 -107.5q-242 0 -381 108t-139 295q0 137 75.5 238t196.5 137v6zM600 1241
q-97 0 -148 -48t-51 -140q0 -94 51.5 -144.5t147.5 -50.5q98 0 149.5 50.5t51.5 144.5q0 92 -51.5 140t-149.5 48zM604 653q-121 0 -184.5 -60.5t-63.5 -176.5q0 -114 63.5 -174t184.5 -60q120 0 183 60t63 174q0 116 -63 176.5t-183 60.5z" />
    <glyph glyph-name="nine.lf" horiz-adv-x="1191" 
d="M504 506q-196 0 -311 118t-115 332q0 223 131.5 350.5t349.5 127.5q169 0 270 -51t168 -136q109 -142 109 -491q0 -355 -145.5 -567t-407.5 -212q-200 0 -316.5 107t-121.5 287h272q8 -88 55 -138.5t129 -50.5q79 0 138.5 65.5t89.5 174.5t30 244h-6q-52 -84 -122.5 -122
t-196.5 -38zM588 1233q-116 0 -177 -68t-61 -196q0 -136 60.5 -206.5t175.5 -70.5q112 0 170.5 68.5t60.5 200.5q0 132 -58.5 202t-170.5 70z" />
    <glyph glyph-name="zero.osf" horiz-adv-x="1177" 
d="M606 -18q-242 0 -377 154.5t-135 432.5q0 281 136 438.5t378 157.5q241 0 375.5 -157.5t134.5 -438.5q0 -278 -135 -432.5t-377 -154.5zM606 961q-115 0 -177 -100t-62 -288t62.5 -287.5t178.5 -99.5q115 1 176.5 101t61.5 286q0 187 -62 287.5t-178 100.5z" />
    <glyph glyph-name="one.osf" horiz-adv-x="1042" 
d="M451 893q-43 -28 -152 -70.5t-168 -58.5v237q66 22 172 70.5t150 87.5h276l-8 -397v-330l4 -227h303v-205h-938v205h356l5 227v461z" />
    <glyph glyph-name="two.osf" horiz-adv-x="1107" 
d="M805 510l-313 -301h575v-209h-985v141l514 490q66 63 94.5 108t28.5 99q0 56 -44 90.5t-114 34.5q-94 0 -144 -58.5t-50 -167.5h-273q0 203 126 316.5t347 113.5q192 0 309 -96.5t117 -236.5q0 -91 -45.5 -162t-142.5 -162z" />
    <glyph glyph-name="three.osf" horiz-adv-x="1159" 
d="M1120 195q0 -193 -139 -306.5t-379 -113.5q-242 0 -387 118t-145 318h268q0 -111 65 -169t191 -58q119 0 182.5 56.5t63.5 158.5q0 92 -69.5 142t-199.5 50l-176 -4v115l340 395v10h-598v223h889v-249l-276 -316q170 -6 270 -106.5t100 -263.5z" />
    <glyph glyph-name="four.osf" horiz-adv-x="1210" 
d="M729 557h250v-287h182v-207h-182v-59l8 -244h-264l6 244v59h-649v191l493 876h287l-495 -862h364v289z" />
    <glyph glyph-name="five.osf" horiz-adv-x="1118" 
d="M76 174h274q2 -100 57 -153.5t158 -53.5q114 0 177 73t63 202q0 133 -58 202.5t-169 69.5q-82 0 -136.5 -37.5t-74.5 -107.5h-250l47 761h831v-206h-618l-27 -340h8q98 135 316 135q186 0 292.5 -127.5t106.5 -349.5t-136.5 -351t-373.5 -129q-223 0 -355 111t-132 301z
" />
    <glyph glyph-name="six.osf" horiz-adv-x="1187" 
d="M258 113q-77 79 -119.5 219t-42.5 313q0 159 33 290t98 229t168.5 152t237.5 54q203 0 321 -95t121 -261h-266q-12 151 -188 151q-132 0 -198.5 -114t-76.5 -306h6q51 80 139.5 120t200.5 40q202 0 318 -119.5t116 -332.5q0 -211 -137.5 -342t-361.5 -131
q-239 0 -369 133zM616 711q-117 0 -179 -69t-62 -198q0 -128 62 -196t179 -68q113 0 173.5 70.5t60.5 202.5q0 124 -60.5 191t-173.5 67z" />
    <glyph glyph-name="seven.osf" horiz-adv-x="1064" 
d="M90 897v233h977v-196q-156 -229 -251 -393.5t-170 -346.5t-130 -397h-293q83 300 199.5 538t329.5 554v8h-662z" />
    <glyph glyph-name="eight.osf" horiz-adv-x="1191" 
d="M377 719q-106 37 -170 116.5t-64 178.5q0 164 126 260t341 96q214 0 339.5 -96t125.5 -260q0 -99 -61.5 -178.5t-169.5 -114.5v-8q135 -33 209.5 -123t74.5 -225q0 -178 -139 -281.5t-377 -103.5t-377 103.5t-139 281.5q0 133 76 225t205 123v6zM610 1169q-92 0 -142 -47
t-50 -135q0 -83 50 -127.5t142 -44.5q91 0 141 44.5t50 127.5q0 87 -50 134.5t-141 47.5zM612 610q-117 0 -179 -55t-62 -158q0 -106 62 -161.5t179 -55.5t179.5 55.5t62.5 161.5q0 103 -62.5 158t-179.5 55z" />
    <glyph glyph-name="nine.osf" horiz-adv-x="1167" 
d="M512 250q-193 0 -305.5 117t-112.5 323q0 209 140.5 335t365.5 126q241 0 369 -156q141 -169 141 -518q0 -319 -149.5 -511.5t-407.5 -192.5q-197 0 -313.5 101t-116.5 269h272q8 -79 53.5 -122.5t126.5 -43.5q119 0 190 118t85 306h-8q-98 -151 -330 -151zM604 950
q-114 0 -174.5 -66t-60.5 -190q0 -128 59.5 -195t171.5 -67q107 0 165 65.5t58 188.5q0 128 -57 196t-162 68z" />
    <glyph glyph-name="zero.slash" horiz-adv-x="1210" 
d="M623 -20q-246 0 -387.5 194t-141.5 531q0 338 142.5 533.5t388.5 195.5t386 -195t140 -534q0 -337 -141 -531t-387 -194zM623 1229q-124 0 -189 -134.5t-65 -389.5q0 -95 8 -160l430 561q-66 123 -184 123zM877 705q0 117 -15 206l-438 -573q66 -154 199 -154
q124 0 189 133.5t65 387.5z" />
    <glyph glyph-name="zero.slash.lf" 
d="M614 -20q-246 0 -387 194t-141 531q0 338 142 533.5t388 195.5t386.5 -195t140.5 -534q0 -337 -141.5 -531t-387.5 -194zM614 1229q-124 0 -189 -134.5t-65 -389.5q0 -87 9 -160l430 561q-66 123 -185 123zM868 705q0 123 -14 206l-438 -573q66 -154 198 -154
q124 0 189 133.5t65 387.5z" />
    <glyph glyph-name="zero.slash.osf" horiz-adv-x="1177" 
d="M606 -18q-242 0 -377 154.5t-135 432.5q0 281 136 438.5t378 157.5q241 0 375.5 -157.5t134.5 -438.5q0 -278 -135 -432.5t-377 -154.5zM606 961q-115 0 -177 -100t-62 -288q0 -101 18 -174l371 498q-61 64 -150 64zM846 573q0 107 -21 183l-370 -502q59 -68 153 -68
q115 1 176.5 101t61.5 286z" />
    <glyph glyph-name="zero.slash.tf" 
d="M614 -20q-246 0 -387 194t-141 531q0 338 142 533.5t388 195.5t386.5 -195t140.5 -534q0 -337 -141.5 -531t-387.5 -194zM614 1229q-124 0 -189 -134.5t-65 -389.5q0 -87 9 -160l430 561q-66 123 -185 123zM868 705q0 123 -14 206l-438 -573q66 -154 198 -154
q124 0 189 133.5t65 387.5z" />
    <glyph glyph-name="zero.slash.tosf" 
d="M614 -18q-242 0 -377 154.5t-135 432.5q0 281 136 438.5t378 157.5q241 0 375.5 -157.5t134.5 -438.5q0 -278 -135 -432.5t-377 -154.5zM614 961q-115 0 -177 -100t-62 -288q0 -101 18 -174l371 498q-61 64 -150 64zM854 573q0 110 -20 183l-371 -502q59 -68 153 -68
q115 1 176.5 101t61.5 286z" />
    <glyph glyph-name="zero.tf" 
d="M614 -20q-246 0 -387 194t-141 531q0 338 142 533.5t388 195.5t386.5 -195t140.5 -534q0 -337 -141.5 -531t-387.5 -194zM614 1229q-124 0 -189 -134.5t-65 -389.5q0 -254 65 -387.5t189 -133.5t189 133.5t65 387.5q0 255 -65 389.5t-189 134.5z" />
    </font>
</defs>
</svg>
