<?xml version="1.0" standalone="no"?>
<!DOCTYPE svg PUBLIC "-//W3C//DTD SVG 1.1//EN" "http://www.w3.org/Graphics/SVG/1.1/DTD/svg11.dtd" >
<svg xmlns="http://www.w3.org/2000/svg" xmlns:xlink="http://www.w3.org/1999/xlink" version="1.1">
<metadata>
Created by FontForge 20201107 at Mon Mar 11 16:46:50 2024
 By 
Copyright (c) 2017 by Andrea Amato - Tipiblu. All rights reserved.
</metadata>
<defs>
<font id="SempioneGrotesk-Regular" horiz-adv-x="1228" >
  <font-face 
    font-family="SempioneGrotesk"
    font-weight="400"
    font-stretch="normal"
    units-per-em="2048"
    panose-1="0 0 0 0 0 0 0 0 0 0"
    ascent="1536"
    descent="-512"
    x-height="1038"
    cap-height="1413"
    bbox="-307 -512 2480 1788"
    underline-thickness="102"
    underline-position="-255"
    unicode-range="U+0020-25CA"
  />
<missing-glyph horiz-adv-x="1024" 
d="M102 -512v2048h820v-2048h-820zM205 -410h614v1844h-614v-1844z" />
    <glyph glyph-name="f_f" unicode="ff" horiz-adv-x="1325" 
d="M383 0h-190l6 352v547h-158v139h158v119q0 128 76.5 202.5t209.5 74.5q57 0 127 -17v-133q-52 10 -94 10q-68 0 -104.5 -36t-36.5 -103v-117h504v119q0 128 76.5 202.5t209.5 74.5q57 0 127 -17v-133q-52 10 -94 10q-68 0 -104.5 -36t-36.5 -103v-117h237v-139h-237v-547
l6 -352h-191l7 352v547h-504v-547z" />
    <glyph glyph-name="f_f_i" unicode="ffi" horiz-adv-x="1812" 
d="M383 0h-190l6 352v547h-158v139h158v119q0 128 76.5 202.5t209.5 74.5q57 0 127 -17v-133q-52 10 -94 10q-68 0 -104.5 -36t-36.5 -103v-117h217v2h287v117q0 128 76.5 202.5t209.5 74.5q57 0 127 -17v-133q-52 10 -94 10q-68 0 -104.5 -36t-36.5 -103v-115h520v-2h86
l-6 -366v-320l6 -352h-190l6 352v320l-4 227h-418v-547l6 -352h-191l7 352v547h-504v-547zM1673 1223h-207v190h207v-190z" />
    <glyph glyph-name="f_f_l" unicode="ffl" horiz-adv-x="1806" 
d="M383 0h-190l6 352v547h-158v139h158v119q0 128 76.5 202.5t209.5 74.5q57 0 127 -17v-133q-52 10 -94 10q-68 0 -104.5 -36t-36.5 -103v-117h504v119q0 128 76.5 202.5t209.5 74.5q57 0 127 -17v-133q-52 10 -94 10q-68 0 -104.5 -36t-36.5 -103v-117h416v23l-7 348h191
l-6 -348v-799q0 -69 31.5 -106t89.5 -37q48 0 106 24v-139q-60 -24 -119 -24q-133 0 -209.5 79t-76.5 217v623h-416v-547l6 -352h-191l7 352v547h-504v-547z" />
    <glyph glyph-name="f_i" unicode="fi" horiz-adv-x="1130" 
d="M383 0h-190l6 352v547h-158v139h158v119q0 128 76.5 202.5t209.5 74.5q57 0 127 -17v-133q-52 10 -94 10q-68 0 -104.5 -36t-36.5 -103v-117h606l-6 -366v-320l6 -352h-190l6 352v320l-4 227h-418v-547zM991 1223h-207v190h207v-190z" />
    <glyph glyph-name="f_l" unicode="fl" horiz-adv-x="1124" 
d="M383 0h-190l6 352v547h-158v139h158v119q0 128 76.5 202.5t209.5 74.5q57 0 127 -17v-133q-52 10 -94 10q-68 0 -104.5 -36t-36.5 -103v-117h416v23l-7 348h191l-6 -348v-799q0 -69 31.5 -106t89.5 -37q48 0 106 24v-139q-60 -24 -119 -24q-133 0 -209.5 79t-76.5 217
v623h-416v-547z" />
    <glyph glyph-name=".notdef" horiz-adv-x="1024" 
d="M102 -512v2048h820v-2048h-820zM205 -410h614v1844h-614v-1844z" />
    <glyph glyph-name=".null" horiz-adv-x="0" 
 />
    <glyph glyph-name="nonmarkingreturn" horiz-adv-x="682" 
 />
    <glyph glyph-name="space" unicode=" " horiz-adv-x="446" 
 />
    <glyph glyph-name="exclam" unicode="!" horiz-adv-x="546" 
d="M367 418h-185l-10 995h203zM164 0v219h219v-219h-219z" />
    <glyph glyph-name="quotedbl" unicode="&#x22;" horiz-adv-x="681" 
d="M414 979l-17 434h176l-16 -434h-143zM125 979l-16 434h176l-17 -434h-143z" />
    <glyph glyph-name="numbersign" unicode="#" horiz-adv-x="1691" 
d="M397 0l82 459h-422l23 127h424l51 293h-422l23 127h422l73 409h158l-74 -409h297l76 409h156l-74 -409h446l-22 -127h-447l-53 -293h447l-23 -127h-446l-82 -459h-156l82 459h-301l-82 -459h-156zM657 584h301l54 297h-301z" />
    <glyph glyph-name="dollar" unicode="$" horiz-adv-x="1243" 
d="M250 481q0 -350 383 -350q163 0 258.5 60.5t95.5 160.5q0 106 -75 160.5t-257 99.5q-208 51 -299 92q-201 91 -234 261q-7 35 -7 75q0 93 36 166t98.5 117t137.5 68t160 28l-6 166h198l-6 -174q180 -26 286.5 -144t106.5 -278h-194q0 129 -85 207t-226 78
q-156 -1 -232 -61t-76 -166q0 -34 13.5 -64t32.5 -52t53 -42.5t62.5 -33.5t75 -28t75 -23t77.5 -20q26 -7 39 -10q82 -21 141 -41t119.5 -52.5t98 -70.5t61 -94.5t23.5 -126.5q0 -166 -124 -273t-327 -126l6 -191h-198l8 187q-107 8 -195 41.5t-155 93t-104.5 151.5
t-37.5 209h193z" />
    <glyph glyph-name="percent" unicode="%" horiz-adv-x="1810" 
d="M418 580q-155 0 -246.5 116.5t-91.5 315.5q0 201 91.5 317.5t248.5 116.5t248.5 -116.5t91.5 -317.5q0 -200 -92 -316t-250 -116zM299 0l1055 1415h143l-1053 -1415h-145zM418 1337q-96 0 -149.5 -85t-53.5 -240q0 -156 53.5 -241t149.5 -85q97 0 152 85t55 241
q0 154 -55 239.5t-152 85.5zM1386 -14q-155 0 -246 116.5t-91 315.5q0 201 91.5 317.5t248.5 116.5t248.5 -116.5t91.5 -317.5q0 -199 -92.5 -315.5t-250.5 -116.5zM1386 743q-96 0 -149 -85t-53 -240q0 -156 53 -241t149 -85q97 0 152 85t55 241q0 154 -55 239.5t-152 85.5
z" />
    <glyph glyph-name="ampersand" unicode="&#x26;" horiz-adv-x="1361" 
d="M88 352q0 123 82.5 234t228.5 190q-85 94 -133.5 186.5t-48.5 159.5q0 145 101 228.5t274 83.5q170 0 268 -82.5t98 -225.5q0 -100 -85 -204.5t-232 -182.5l338 -366q37 65 58.5 162t21.5 200h182q0 -130 -39.5 -258t-107.5 -219l245 -258h-233l-141 162
q-70 -85 -179.5 -133.5t-228.5 -48.5q-216 0 -342.5 102t-126.5 270zM541 856q114 57 175.5 125.5t61.5 138.5q0 84 -48 129t-138 45q-94 0 -144.5 -44t-50.5 -126q0 -121 144 -268zM268 352q0 -108 76.5 -170.5t216.5 -62.5q97 0 174 38t123 109l-360 404
q-230 -147 -230 -318z" />
    <glyph glyph-name="quotesingle" unicode="'" horiz-adv-x="393" 
d="M123 981l-14 432h176l-17 -432h-145z" />
    <glyph glyph-name="parenleft" unicode="(" horiz-adv-x="569" 
d="M518 1434v-134q-121 0 -184.5 -141.5t-63.5 -421.5v-317q0 -277 63.5 -416t184.5 -139v-133q-191 0 -299 179t-108 509v328q0 328 108 507t299 179z" />
    <glyph glyph-name="parenright" unicode=")" horiz-adv-x="569" 
d="M53 1434q191 0 299.5 -179t108.5 -507v-328q0 -330 -108.5 -509t-299.5 -179v133q121 0 184.5 139t63.5 416v317q0 280 -63.5 421.5t-184.5 141.5v134z" />
    <glyph glyph-name="asterisk" unicode="*" horiz-adv-x="813" 
d="M328 793l39 251l-199 -161l-80 135l242 92l-238 94l78 137l197 -157l-39 250h155l-37 -250l199 157l78 -137l-242 -92l242 -90l-78 -139l-199 161l37 -251h-155z" />
    <glyph glyph-name="plus" unicode="+" horiz-adv-x="1046" 
d="M455 190l-2 355h-355v141h355v354h141v-354h354v-141h-352v-355h-141z" />
    <glyph glyph-name="comma" unicode="," horiz-adv-x="473" 
d="M6 -248l146 467h227l-197 -467h-176z" />
    <glyph glyph-name="hyphen" unicode="-" horiz-adv-x="690" 
d="M123 479v123h444v-123h-444z" />
    <glyph glyph-name="period" unicode="." horiz-adv-x="444" 
d="M113 0v219h219v-219h-219z" />
    <glyph glyph-name="slash" unicode="/" horiz-adv-x="872" 
d="M829 1434l-626 -1454h-160l627 1454h159z" />
    <glyph glyph-name="zero" unicode="0" horiz-adv-x="1150" 
d="M590 -20q-229 0 -358.5 194.5t-129.5 532.5t130.5 532.5t359.5 194.5q228 0 356.5 -194.5t128.5 -532.5t-129 -532.5t-358 -194.5zM590 1294q-150 0 -227.5 -151t-77.5 -436t77.5 -436.5t227.5 -151.5t227.5 151.5t77.5 436.5t-77.5 436t-227.5 151z" />
    <glyph glyph-name="one" unicode="1" horiz-adv-x="923" 
d="M92 0v180h342l2 172v858q-34 -28 -163 -103.5t-181 -100.5v165q53 27 185.5 114t175.5 128h168l-5 -369v-692l2 -172h265v-180h-791z" />
    <glyph glyph-name="two" unicode="2" horiz-adv-x="1112" 
d="M731 604l-407 -452h725v-152h-967v131l543 596q92 102 125 150q63 95 63 184q0 113 -64 173t-188 60q-134 0 -206 -97t-72 -277h-181q0 238 125.5 376t343.5 138q198 0 310 -100t112 -273q0 -68 -13 -121t-50 -109t-78 -101.5t-121 -125.5z" />
    <glyph glyph-name="three" unicode="3" horiz-adv-x="1159" 
d="M590 1434q213 0 332.5 -95t119.5 -260q0 -112 -68.5 -192.5t-189.5 -114.5v-4q142 -31 225 -130t83 -235q0 -197 -132 -310t-366 -113q-242 0 -378 120t-136 328h174q0 -149 85.5 -228t250.5 -79q158 0 239.5 72.5t81.5 209.5q0 134 -97 205.5t-282 71.5h-75v143h49
q176 0 267 62t91 178q0 113 -69 172t-205 59q-142 0 -215.5 -76.5t-75.5 -222.5h-174q0 204 123.5 321.5t341.5 117.5z" />
    <glyph glyph-name="four" unicode="4" horiz-adv-x="1142" 
d="M47 365v127l600 921h246l-6 -366v-541h198v-141h-198v-56l6 -309h-186l6 309v56h-666zM227 506h486v541l-2 198z" />
    <glyph glyph-name="five" unicode="5" horiz-adv-x="1093" 
d="M86 377h178q-3 -124 70.5 -190t220.5 -66q149 0 226 91t77 261q0 173 -76.5 264.5t-224.5 91.5q-216 0 -264 -188h-162l49 772h770l-2 -139h-624l-31 -438h4q46 62 126.5 97.5t178.5 35.5q206 0 322 -131.5t116 -360.5q0 -230 -126.5 -363.5t-350.5 -133.5
q-225 0 -351 106t-126 291z" />
    <glyph glyph-name="six" unicode="6" horiz-adv-x="1142" 
d="M201 158q-34 51 -54.5 113.5t-29.5 140t-11 135.5t-2 151q0 343 139 539.5t386 196.5q186 0 293.5 -91.5t113.5 -252.5h-182q-8 96 -67.5 150t-161.5 54q-158 0 -250 -154.5t-92 -408.5h4q105 193 356 193q206 0 322 -127t116 -348q0 -219 -124.5 -344t-346.5 -125
q-291 0 -409 178zM604 784q-150 0 -227.5 -85t-77.5 -246q0 -162 77.5 -249t227.5 -87q146 0 221.5 86.5t75.5 249.5q0 161 -75 246t-222 85z" />
    <glyph glyph-name="seven" unicode="7" horiz-adv-x="1011" 
d="M43 1257v156h911v-137q-183 -353 -312 -661t-202 -615h-170q138 567 494 1253v4h-721z" />
    <glyph glyph-name="eight" unicode="8" horiz-adv-x="1150" 
d="M367 762q-99 36 -160.5 122.5t-61.5 196.5q0 164 117.5 258.5t325.5 94.5t325 -94.5t117 -258.5q0 -109 -59.5 -197t-155.5 -120v-4q268 -96 268 -381q0 -187 -130.5 -293t-362.5 -106q-231 0 -361.5 106.5t-130.5 292.5q0 140 76 243t193 136v4zM588 1294
q-128 0 -194 -59t-66 -170q0 -116 66 -178t194 -62q129 0 195.5 61.5t66.5 178.5q0 111 -66.5 170t-195.5 59zM592 686q-154 0 -233.5 -73.5t-79.5 -211.5q0 -136 79.5 -208t233.5 -72q151 0 230 72t79 208q0 137 -79 211t-230 74z" />
    <glyph glyph-name="nine" unicode="9" horiz-adv-x="1124" 
d="M518 518q-202 0 -315 122t-113 335t120 336t333 123q78 0 142.5 -12t105 -29t75.5 -44t52.5 -47.5t37.5 -48.5q95 -133 95 -467q0 -375 -136 -590.5t-378 -215.5q-196 0 -305 101t-115 281h182q5 -116 66.5 -180.5t177.5 -64.5q141 0 233 160t92 415h-6
q-54 -90 -134.5 -132t-209.5 -42zM559 1296q-142 0 -215.5 -82t-73.5 -237t74.5 -236.5t218.5 -81.5q140 0 213.5 80t75.5 230q2 159 -72.5 243t-220.5 84z" />
    <glyph glyph-name="colon" unicode=":" horiz-adv-x="468" 
d="M125 819v219h219v-219h-219zM125 0v219h219v-219h-219z" />
    <glyph glyph-name="semicolon" unicode=";" horiz-adv-x="538" 
d="M184 827v220h219v-220h-219zM31 -248l145 467h227l-196 -467h-176z" />
    <glyph glyph-name="less" unicode="&#x3c;" horiz-adv-x="1046" 
d="M868 14l-737 453v102l737 453v-168l-553 -336l553 -336v-168z" />
    <glyph glyph-name="equal" unicode="=" horiz-adv-x="1046" 
d="M98 715v143h850v-143h-850zM98 371v143h850v-143h-850z" />
    <glyph glyph-name="greater" unicode="&#x3e;" horiz-adv-x="1046" 
d="M178 14v168l553 336l-553 336v168l737 -453v-102z" />
    <glyph glyph-name="question" unicode="?" horiz-adv-x="1009" 
d="M422 414v94q0 57 36 117.5t87 113.5l102 106t87 114.5t36 119.5q0 103 -67 158t-193 55q-130 0 -200 -80t-70 -229h-185q0 209 123.5 330t335.5 121q201 0 317.5 -95.5t116.5 -259.5q0 -57 -25.5 -116t-63.5 -105.5t-82 -96t-82 -90t-63.5 -85.5t-25.5 -84v-88h-184z
M406 0v219h219v-219h-219z" />
    <glyph glyph-name="at" unicode="@" horiz-adv-x="1785" 
d="M1303 -207q-77 -41 -186.5 -64.5t-219.5 -23.5q-376 0 -594.5 211.5t-218.5 575.5q0 381 218.5 602t594.5 221q374 0 585.5 -199t211.5 -571q0 -211 -95 -338t-241 -127q-95 0 -163.5 43.5t-90.5 118.5h-6q-43 -82 -123.5 -127t-181.5 -45q-78 0 -145.5 25.5t-113 81
t-45.5 130.5q0 165 140 242t438 86v29q0 63 -44.5 97t-127.5 34q-101 0 -156 -39.5t-55 -112.5h-158q0 135 103 213t282 78q155 0 244.5 -69t89.5 -189v-256q0 -94 35 -147.5t96 -53.5q57 0 94 85.5t41 232.5q10 322 -146.5 480.5t-467.5 158.5q-306 0 -470.5 -177.5
t-164.5 -506.5q0 -312 164.5 -480t470.5 -168q235 0 406 113v-164zM670 322q0 -54 38.5 -83.5t108.5 -29.5q120 0 184 64t64 184v47q-190 0 -292.5 -47t-102.5 -135z" />
    <glyph glyph-name="A" unicode="A" horiz-adv-x="1320" 
d="M248 0h-215l137 352l379 1061h225l375 -1061l137 -352h-215l-121 352l-4 15h-573l-4 -15zM655 1206l-221 -678h451l-221 678h-9z" />
    <glyph glyph-name="B" unicode="B" horiz-adv-x="1306" 
d="M772 0h-598l6 352v709l-6 352h567q201 0 313.5 -90t112.5 -262q0 -127 -62.5 -209t-172.5 -102v-5q136 -29 210.5 -112.5t74.5 -224.5q0 -189 -119.5 -298.5t-325.5 -109.5zM365 1253l-3 -434h377q114 0 176 56t62 159q0 106 -62 162.5t-176 56.5h-374zM365 657v-497h395
q128 0 196 64t68 184t-68.5 184.5t-195.5 64.5h-395z" />
    <glyph glyph-name="C" unicode="C" horiz-adv-x="1386" 
d="M1313 518q-26 -250 -182.5 -394t-399.5 -144q-295 0 -466 195t-171 536q0 332 171.5 527.5t465.5 195.5q250 0 404.5 -137t171.5 -373h-195q-22 168 -122 259t-261 91q-212 0 -326 -145.5t-114 -417.5q0 -276 114.5 -424t327.5 -148q165 0 266.5 98.5t120.5 280.5h195z
" />
    <glyph glyph-name="D" unicode="D" horiz-adv-x="1431" 
d="M614 0h-440l6 352v709l-6 352h440q337 0 531 -188t194 -514q0 -329 -194.5 -520t-530.5 -191zM369 1253v-1093h243q256 0 394.5 142.5t138.5 406.5q0 262 -138 403t-393 141h-245z" />
    <glyph glyph-name="E" unicode="E" horiz-adv-x="1161" 
d="M1067 0h-893l6 352v709l-6 352h873v-160h-682v-438h653v-160h-653v-495h702v-160z" />
    <glyph glyph-name="F" unicode="F" horiz-adv-x="1079" 
d="M375 0h-201l6 352v709l-6 352h842v-160h-647v-479h602v-160h-602v-262z" />
    <glyph glyph-name="G" unicode="G" horiz-adv-x="1470" 
d="M1194 172q-69 -89 -187 -140.5t-249 -51.5q-302 0 -484 199t-182 532q0 331 178.5 527t483.5 196q238 0 396 -142.5t183 -363.5h-194q-15 158 -119.5 252t-267.5 94q-222 0 -343.5 -148t-121.5 -415q0 -270 128 -421t351 -151q167 0 284.5 107t129.5 293h-420v159h596
v-348l6 -350h-170l4 172h-2z" />
    <glyph glyph-name="H" unicode="H" horiz-adv-x="1429" 
d="M375 0h-201l6 352v709l-6 352h201l-6 -352v-244h692v244l-6 352h200l-6 -352v-709l6 -352h-200l6 352v305h-692v-305z" />
    <glyph glyph-name="I" unicode="I" horiz-adv-x="548" 
d="M375 0h-201l6 352v709l-6 352h201l-6 -352v-709z" />
    <glyph glyph-name="J" unicode="J" horiz-adv-x="561" 
d="M383 -92q0 -133 -74.5 -205t-212.5 -72q-54 0 -127 17v166q57 -23 82 -23q69 0 106.5 42t37.5 120v1108l-7 352h201l-6 -352v-1153z" />
    <glyph glyph-name="K" unicode="K" horiz-adv-x="1257" 
d="M375 0h-199l4 352v709l-6 352h201l-6 -352v-334h6l289 334l303 352h252l-320 -352l-209 -238v-4l326 -467l254 -352h-266l-228 352l-219 318h-4l-184 -207v-111z" />
    <glyph glyph-name="L" unicode="L" horiz-adv-x="1030" 
d="M995 0h-821l6 352v709l-6 352h201l-6 -352v-899h626v-162z" />
    <glyph glyph-name="M" unicode="M" horiz-adv-x="1746" 
d="M369 0h-195l6 352v709l-6 352h301l399 -1110h5l395 1110h299l-6 -352v-709l6 -352h-195l6 352v830h-6l-440 -1182h-129l-440 1182h-7v-830z" />
    <glyph glyph-name="N" unicode="N" horiz-adv-x="1495" 
d="M375 0h-201l6 352v707l-6 354h203l577 -862l164 -242h8v750l-6 354h201l-6 -354v-707l6 -352h-195l-602 872l-151 232h-4v-752z" />
    <glyph glyph-name="O" unicode="O" horiz-adv-x="1486" 
d="M1395 715q0 -156 -41.5 -288.5t-121 -232.5t-205 -157t-284.5 -57q-127 0 -233.5 37.5t-183 104t-129.5 159t-79 202.5t-26 234q0 147 41.5 275.5t121 227.5t205.5 156.5t283 57.5q158 0 284 -57.5t205.5 -157t121 -228.5t41.5 -276zM287 711q0 -119 29.5 -221.5
t85.5 -180.5t144 -123t197 -45q146 0 251 77.5t155.5 204t50.5 286.5q0 111 -29.5 211.5t-85.5 180t-144.5 126.5t-197.5 47t-197 -47t-143.5 -126t-85.5 -179t-30 -211z" />
    <glyph glyph-name="P" unicode="P" horiz-adv-x="1212" 
d="M375 0h-201l6 350v711l-6 352h494q224 0 354.5 -119.5t130.5 -324.5t-140 -327t-366 -122h-278v-170zM369 1253v-573h278q142 0 226.5 76t84.5 213t-75.5 210.5t-214.5 73.5h-299z" />
    <glyph glyph-name="Q" unicode="Q" horiz-adv-x="1486" 
d="M838 -307h-199l8 164l2 129q-180 21 -308 124.5t-188.5 258.5t-60.5 348q0 147 41.5 275.5t121 227.5t205.5 156.5t283 57.5q158 0 284 -57.5t205.5 -157t121 -228.5t41.5 -276q0 -144 -35.5 -268t-103.5 -222t-175.5 -160.5t-244.5 -78.5l-2 -129zM287 711
q0 -119 29.5 -221.5t85.5 -180.5t144 -123t197 -45q146 0 251 77.5t155.5 204t50.5 286.5q0 111 -29.5 211.5t-85.5 180t-144.5 126.5t-197.5 47t-197 -47t-143.5 -126t-85.5 -179t-30 -211z" />
    <glyph glyph-name="R" unicode="R" horiz-adv-x="1286" 
d="M375 0h-201l6 352v709l-6 352h524q211 0 333 -114t122 -310q0 -128 -76.5 -231t-199.5 -154v-6l358 -598h-227l-318 563h-321v-211zM369 1253v-530h295q133 0 213.5 70.5t80.5 195.5q0 124 -77 194t-197 70h-315z" />
    <glyph glyph-name="S" unicode="S" horiz-adv-x="1263" 
d="M1188 393q0 -192 -149.5 -304t-395.5 -112q-270 0 -421.5 134t-151.5 370h194q0 -166 98.5 -255t290.5 -89q169 0 256.5 70.5t87.5 181.5q0 40 -17.5 72t-46 54.5t-76.5 42t-96 32.5t-118 28q-63 13 -113 26.5t-105 33.5t-97 43t-81 55t-64.5 69t-40.5 86.5t-15 106.5
q0 187 132 291.5t362 104.5q234 0 373.5 -118.5t146.5 -326.5h-195q-3 133 -88.5 211t-236.5 78q-143 0 -223.5 -60t-80.5 -171q0 -54 25.5 -97t55 -68t95.5 -49.5t101 -33.5t117 -27q5 -1 8 -2q95 -21 162 -42.5t128.5 -52.5t98.5 -69t58.5 -91.5t21.5 -121.5z" />
    <glyph glyph-name="T" unicode="T" horiz-adv-x="1112" 
d="M662 0h-209l10 352v903h-430v160h1046v-160h-428v-903z" />
    <glyph glyph-name="U" unicode="U" horiz-adv-x="1390" 
d="M1227 522q0 -252 -141 -397t-386 -145q-249 0 -392.5 145t-143.5 397v537l-6 354h200l-6 -354v-520q0 -192 90 -296t256 -104q164 0 252 104t88 296v520l-6 354h201l-6 -354v-537z" />
    <glyph glyph-name="V" unicode="V" horiz-adv-x="1314" 
d="M762 0h-209l-385 1063l-135 350h217l121 -352l284 -842h7l286 842l119 352h215l-135 -352z" />
    <glyph glyph-name="W" unicode="W" horiz-adv-x="1822" 
d="M635 0h-195l-290 1061l-107 352h225l80 -352l203 -785h4l303 785l-115 352h193l135 -475l199 -662h6l203 785l80 352h221l-107 -352l-289 -1061h-198l-252 842h-4z" />
    <glyph glyph-name="X" unicode="X" horiz-adv-x="1253" 
d="M266 0h-235l239 352l238 353v4l-248 352l-246 352h236l235 -352l138 -189h6l135 189l242 352h235l-252 -352l-244 -350v-4l238 -355l240 -352h-236l-229 352l-129 197h-6l-127 -197z" />
    <glyph glyph-name="Y" unicode="Y" 
d="M715 0h-201l6 352v103l-301 608l-182 350h227l166 -350l182 -381h4l181 379l168 352h227l-184 -354l-299 -604v-103z" />
    <glyph glyph-name="Z" unicode="Z" horiz-adv-x="1165" 
d="M1094 0h-1049v145l793 1102v6h-717v160h969v-141l-785 -1106v-6h789v-160z" />
    <glyph glyph-name="bracketleft" unicode="[" horiz-adv-x="587" 
d="M532 -248h-368l6 367v928l-6 366h368v-133h-198v-1395h198v-133z" />
    <glyph glyph-name="backslash" unicode="\" horiz-adv-x="872" 
d="M829 -20h-159l-627 1454h160z" />
    <glyph glyph-name="bracketright" unicode="]" horiz-adv-x="587" 
d="M55 -248v133h199v1395h-199v133h369l-6 -366v-928l6 -367h-369z" />
    <glyph glyph-name="asciicircum" unicode="^" horiz-adv-x="1046" 
d="M528 1434l349 -359v-102l-351 282l-356 -284l-2 102z" />
    <glyph glyph-name="underscore" unicode="_" horiz-adv-x="1138" 
d="M96 39h946v-123h-946v123z" />
    <glyph glyph-name="grave" unicode="`" 
d="M270 1413h240l182 -223h-133z" />
    <glyph glyph-name="a" unicode="a" horiz-adv-x="1083" 
d="M752 131q-100 -151 -359 -151q-64 0 -120 16.5t-101.5 49.5t-71.5 87.5t-26 124.5q0 174 175.5 266t504.5 101v102q0 98 -56 145.5t-178 47.5q-112 0 -170.5 -62.5t-58.5 -150.5h-180q0 72 24 131t64.5 99.5t95.5 68.5t116 40.5t126 12.5q195 0 295 -82.5t100 -237.5
v-559q0 -29 15.5 -45t43.5 -16q33 0 68 18v-139q-47 -18 -133 -18q-75 0 -121.5 35t-46.5 98v18h-6zM254 272q0 -70 48.5 -111.5t139.5 -41.5q145 0 227.5 77t82.5 220v78q-238 0 -368 -57t-130 -165z" />
    <glyph glyph-name="b" unicode="b" horiz-adv-x="1130" 
d="M1047 518q0 -250 -113.5 -394t-308.5 -144q-210 0 -299 151h-4l6 -131h-187l6 352v709l-6 352h187l-6 -352v-141h4q105 139 311 139q195 0 302.5 -144t107.5 -397zM309 520q0 -193 70 -297t201 -104q138 0 212 105.5t74 301.5q0 189 -72.5 291.5t-207.5 102.5
q-133 0 -205 -104t-72 -296z" />
    <glyph glyph-name="c" unicode="c" horiz-adv-x="1073" 
d="M1010 379q-20 -186 -141 -292.5t-310 -106.5q-221 0 -349 143t-128 391q0 252 130.5 398.5t354.5 146.5q180 0 298 -102.5t141 -280.5h-181q-17 118 -83.5 181t-174.5 63q-147 0 -226 -105.5t-79 -300.5q0 -190 77 -292.5t220 -102.5q115 0 183 66.5t87 193.5h181z" />
    <glyph glyph-name="d" unicode="d" horiz-adv-x="1130" 
d="M805 111q-47 -61 -119.5 -96t-150.5 -35q-209 0 -330 144t-121 394q0 251 117 396t319 145q94 0 170.5 -39t114.5 -107h4v148l-6 352h186l-6 -352v-709l6 -352h-186l6 111h-4zM264 526q0 -195 74.5 -301t212.5 -106q130 0 200 103.5t70 297.5q0 193 -71 296.5t-205 103.5
q-135 0 -208 -101.5t-73 -292.5z" />
    <glyph glyph-name="e" unicode="e" horiz-adv-x="1081" 
d="M993 350q-22 -178 -137 -274t-307 -96q-224 0 -344.5 137.5t-120.5 392.5q0 266 121.5 409.5t347.5 143.5q204 0 319.5 -128t124.5 -364v-73h-731q-6 -183 68 -281t219 -98q103 0 170 59.5t90 171.5h180zM555 930q-118 0 -192 -76t-93 -217h547q-6 141 -74 217t-188 76z
" />
    <glyph glyph-name="f" unicode="f" horiz-adv-x="643" 
d="M383 0h-190l6 352v547h-158v139h158v119q0 128 76.5 202.5t209.5 74.5q57 0 127 -17v-133q-52 10 -94 10q-68 0 -104.5 -36t-36.5 -103v-117h237v-139h-237v-547z" />
    <glyph glyph-name="g" unicode="g" horiz-adv-x="1077" 
d="M1036 -39q0 -154 -134.5 -243t-366.5 -89q-228 0 -358 72.5t-130 206.5q0 194 211 252v4q-37 21 -57.5 59.5t-20.5 81.5q0 48 23.5 87.5t60.5 60.5v4q-66 27 -117 102.5t-51 171.5q0 147 112 237.5t294 90.5q115 0 203 -35q6 50 49 80.5t100 30.5q82 0 154 -29v-135
q-41 24 -88 24q-80 0 -80 -63q42 -54 57.5 -100t15.5 -101q0 -148 -112 -239t-293 -91q-39 0 -100 9q-35 -12 -51.5 -36.5t-16.5 -51.5q0 -51 37 -72t151 -21h107q188 0 294.5 -70t106.5 -198zM254 733q0 -98 66.5 -153.5t183.5 -55.5q118 0 185 55.5t67 153.5q0 95 -67 149
t-185 54q-117 0 -183.5 -54t-66.5 -149zM227 -66q0 -85 82 -130.5t234 -45.5q151 0 232 49t81 140q0 66 -69 104.5t-189 38.5h-92q-129 0 -204 -42t-75 -114z" />
    <glyph glyph-name="h" unicode="h" horiz-adv-x="1085" 
d="M328 0h-187l6 309v752l-6 352h183l-7 -352v-152h7q46 72 121.5 111t162.5 39q158 0 249 -98.5t91 -268.5v-385l6 -307h-186l6 309v346q0 128 -52 196.5t-153 68.5q-116 0 -181.5 -83.5t-65.5 -228.5v-301z" />
    <glyph glyph-name="i" unicode="i" horiz-adv-x="485" 
d="M346 1223h-207v190h207v-190zM338 0h-191l7 352v320l-7 366h191l-6 -366v-320z" />
    <glyph glyph-name="j" unicode="j" horiz-adv-x="493" 
d="M354 1223h-207v190h207v-190zM340 -92q0 -128 -77 -202.5t-210 -74.5q-19 0 -39 4v140q16 -4 27 -4q58 0 89.5 37t31.5 106v758l-6 366h190l-6 -366v-764z" />
    <glyph glyph-name="k" unicode="k" horiz-adv-x="1036" 
d="M332 0h-191l6 352v709l-6 352h191l-6 -352v-445h8l153 164l236 258h235l-258 -258l-118 -123l213 -303l262 -354h-236l-246 354l-116 172h-8l-125 -137v-35z" />
    <glyph glyph-name="l" unicode="l" horiz-adv-x="561" 
d="M547 4q-60 -24 -119 -24q-134 0 -210.5 79t-76.5 217v785l-6 348h191l-7 -348v-799q0 -69 31.5 -106t89.5 -37q48 0 107 24v-139z" />
    <glyph glyph-name="m" unicode="m" horiz-adv-x="1677" 
d="M330 0h-187l7 352v320l-7 366h183l-7 -131h7q47 72 122.5 112t161.5 40q109 0 176.5 -45.5t112.5 -126.5h6q45 81 126 126.5t188 45.5q146 0 233.5 -99t87.5 -268v-340l6 -352h-186l6 352v303q0 126 -55.5 195.5t-151.5 69.5q-109 0 -168 -69t-59 -196v-303l6 -352h-186
l6 352v303q0 126 -55.5 195.5t-151.5 69.5q-109 0 -168 -69t-59 -196v-303z" />
    <glyph glyph-name="n" unicode="n" horiz-adv-x="1087" 
d="M330 0h-187l7 352v320l-7 366h183l-7 -131h7q47 73 121 112.5t163 39.5q158 0 249 -98.5t91 -268.5v-340l6 -352h-186l6 352v303q0 128 -58 196.5t-167 68.5t-168 -69t-59 -196v-303z" />
    <glyph glyph-name="o" unicode="o" horiz-adv-x="1107" 
d="M1026 518q0 -250 -126.5 -394t-346.5 -144q-219 0 -345 144t-126 394q0 249 126.5 395t344.5 146q219 0 346 -145.5t127 -395.5zM262 520q0 -193 75.5 -297t215.5 -104q141 0 217 104t76 297q0 191 -76 295.5t-217 104.5q-139 0 -215 -104.5t-76 -295.5z" />
    <glyph glyph-name="p" unicode="p" horiz-adv-x="1130" 
d="M328 -369h-187l6 353v688l-6 366h187l-6 -118h4q59 76 137 107.5t182 31.5q189 0 295.5 -144.5t106.5 -396.5q0 -250 -113.5 -394t-308.5 -144q-204 0 -299 151h-4v-147zM309 520q0 -193 70 -297t201 -104q138 0 212 105.5t74 301.5q0 189 -72.5 291.5t-207.5 102.5
q-133 0 -205 -104t-72 -296z" />
    <glyph glyph-name="q" unicode="q" horiz-adv-x="1130" 
d="M989 -369h-186l6 353v127h-4q-47 -61 -119.5 -96t-150.5 -35q-209 0 -330 144t-121 394q0 251 117 396t319 145q94 0 170.5 -39t114.5 -107h4l-6 125h186l-6 -366v-688zM264 526q0 -195 74.5 -301t212.5 -106q130 0 200 103.5t70 297.5q0 193 -71 296.5t-205 103.5
q-135 0 -208 -101.5t-73 -292.5z" />
    <glyph glyph-name="r" unicode="r" horiz-adv-x="751" 
d="M330 0h-187l7 352v320l-7 366h183l-7 -192h7q47 104 120.5 158.5t163.5 54.5q58 0 107 -15v-182q-54 15 -117 15q-56 0 -103 -23t-78.5 -60t-53.5 -86.5t-31.5 -101t-9.5 -104.5v-150z" />
    <glyph glyph-name="s" unicode="s" horiz-adv-x="1005" 
d="M936 299q0 -148 -114 -233.5t-312 -85.5q-205 0 -324.5 100t-119.5 272h180q0 -111 68.5 -172t187.5 -61q125 0 189.5 46.5t64.5 133.5q0 40 -22.5 68.5t-61 44.5t-88 27.5t-104.5 21t-109.5 21.5t-103.5 33t-86.5 51t-59 80t-19.5 116q3 128 116.5 212.5t291.5 84.5
q188 0 288.5 -90t100.5 -250h-180q0 97 -57.5 149t-163.5 52q-99 0 -157 -42t-58 -118q0 -43 28 -73t74 -44.5t104.5 -28.5t120 -24t120 -31.5t104.5 -50.5t74 -82.5t28 -126.5z" />
    <glyph glyph-name="t" unicode="t" horiz-adv-x="712" 
d="M684 2q-113 -22 -219 -22q-135 0 -208 79.5t-73 227.5v612h-143v139h143l-6 246h193l-6 -246h319v-139h-319v-598q0 -94 33.5 -137t105.5 -43q96 0 180 24v-143z" />
    <glyph glyph-name="u" unicode="u" horiz-adv-x="1105" 
d="M776 129q-39 -76 -115.5 -114t-175.5 -38q-163 0 -256.5 108t-93.5 296v291l-6 366h195l-7 -366l-2 -277q2 -134 51 -206t140 -72q132 0 202.5 92t69.5 262l-2 201l-6 366h193l-7 -366v-320l5 -352h-181l6 129h-10z" />
    <glyph glyph-name="v" unicode="v" horiz-adv-x="1005" 
d="M594 0h-182l-240 672l-137 366h196l131 -366l138 -412h6l141 412l127 366h197l-137 -366z" />
    <glyph glyph-name="w" unicode="w" horiz-adv-x="1484" 
d="M547 0h-176l-213 672l-117 366h199l104 -366l125 -420h6l197 469l-105 317l191 -2l96 -317l152 -459h4l129 412l110 366h203l-127 -366l-213 -672h-178l-172 504h-4z" />
    <glyph glyph-name="x" unicode="x" horiz-adv-x="999" 
d="M236 0h-220l260 352l123 166v4l-112 150l-271 366h213l254 -360l21 -27h4l16 25l246 362h215l-268 -366l-115 -154v-2l127 -164l252 -352h-225l-234 352l-18 35h-6l-23 -35z" />
    <glyph glyph-name="y" unicode="y" horiz-adv-x="1017" 
d="M473 -369h-194l143 369l-248 672l-141 366h203l129 -366l145 -420h4l141 420l129 366h205l-143 -364z" />
    <glyph glyph-name="z" unicode="z" horiz-adv-x="882" 
d="M827 0h-774v125l531 780v4l-494 -4v133h709v-127l-523 -776v-4l551 2v-133z" />
    <glyph glyph-name="braceleft" unicode="{" horiz-adv-x="755" 
d="M440 141q0 -141 70.5 -218t200.5 -77v-112q-200 0 -315 86t-115 237v191q0 119 -72.5 194.5t-198.5 85.5v111q126 10 198.5 90.5t72.5 206.5v174q0 151 115 237.5t315 86.5v-113q-130 0 -200.5 -70.5t-70.5 -201.5v-134q0 -139 -56.5 -224t-162.5 -105v-4
q106 -20 162.5 -102.5t56.5 -217.5v-121z" />
    <glyph glyph-name="bar" unicode="|" horiz-adv-x="481" 
d="M168 -248v1698h145v-1698h-145z" />
    <glyph glyph-name="braceright" unicode="}" horiz-adv-x="755" 
d="M45 -266v112q130 0 200 77t70 218v121q0 135 57 217.5t163 102.5v4q-106 20 -163 105t-57 224v134q0 131 -70 201.5t-200 70.5v113q200 0 315 -86.5t115 -237.5v-174q0 -127 72 -207t198 -90v-111q-126 -10 -198 -85.5t-72 -194.5v-191q0 -151 -115 -237t-315 -86z" />
    <glyph glyph-name="asciitilde" unicode="~" horiz-adv-x="1046" 
d="M270 408h-180q0 125 66.5 200.5t165.5 75.5q60 0 119.5 -21.5t98 -47t80 -47t70.5 -21.5q43 0 66.5 35.5t23.5 101.5h181q0 -125 -67 -200.5t-169 -75.5q-59 0 -117.5 21.5t-96.5 47t-80 47t-71 21.5q-43 0 -66.5 -35.5t-23.5 -101.5z" />
    <glyph glyph-name="exclamdown" unicode="&#xa1;" horiz-adv-x="520" 
d="M150 1044h219v-219h-219v219zM352 627l8 -996h-202l10 996h184z" />
    <glyph glyph-name="cent" unicode="&#xa2;" horiz-adv-x="1095" 
d="M268 715q0 -195 78 -300.5t223 -105.5q114 3 185 71t90 191h182q-19 -161 -120 -265t-259 -124l6 -182h-190l4 182q-175 25 -277 167t-102 362q0 218 102 360.5t277 171.5l-6 170h194l-6 -166q155 -17 254.5 -116.5t116.5 -256.5h-182q-19 117 -88.5 179.5t-180.5 62.5
q-145 0 -223 -104t-78 -297z" />
    <glyph glyph-name="sterling" unicode="&#xa3;" horiz-adv-x="1189" 
d="M61 0v127q115 10 160 71.5t45 209.5v237h-160v141h160v304q0 160 103.5 252t283.5 92q175 0 277 -90.5t102 -245.5h-172q0 95 -53.5 145.5t-153.5 50.5t-153.5 -50.5t-53.5 -145.5v-312h291v-141h-291v-242q0 -192 -90 -262h486q51 0 82.5 33.5t40.5 95.5h168
q-10 -125 -81 -197.5t-182 -72.5h-809z" />
    <glyph glyph-name="currency" unicode="&#xa4;" horiz-adv-x="1206" 
d="M979 139l-139 152q-100 -53 -236 -53q-139 0 -237 55l-140 -154l-137 140l152 129q-68 100 -68 245q0 137 64 240l-150 131l133 135l141 -149q102 57 242 57q136 0 240 -55l139 147l137 -133l-151 -131q65 -100 65 -242t-67 -245l149 -129zM342 653q0 -116 53 -184
l47 -45q61 -43 162 -43q86 0 148 35l61 55q51 66 51 182q0 101 -41 166l-75 72q-56 33 -144 33q-91 0 -155 -39l-66 -66q-41 -65 -41 -166z" />
    <glyph glyph-name="yen" unicode="&#xa5;" horiz-adv-x="1245" 
d="M1083 496h-909v135h289l-412 782h199l373 -747h6l358 747h203l-402 -782h295v-135zM174 393h909v-135h-360l4 -258h-197l5 258h-361v135z" />
    <glyph glyph-name="brokenbar" unicode="&#xa6;" horiz-adv-x="481" 
d="M168 672v778h145v-778h-145zM168 -248v778h145v-778h-145z" />
    <glyph glyph-name="section" unicode="&#xa7;" horiz-adv-x="1073" 
d="M965 299q0 -148 -114 -233.5t-312 -85.5q-205 0 -325 100t-120 272h180q0 -112 65 -172.5t185 -60.5q126 0 193 47t67 133q0 51 -36.5 83t-94.5 47.5t-128.5 27.5t-140 30t-127 46.5t-93 86.5t-33.5 142q3 112 72 184q-75 71 -72 191q3 138 108 217.5t285 79.5
q191 0 301.5 -91t110.5 -249h-180q0 97 -62 148.5t-178 51.5q-98 0 -151.5 -41.5t-53.5 -117.5q0 -52 36 -84.5t93.5 -48.5t127.5 -27.5t140 -29.5t127.5 -46.5t93.5 -85.5t36 -139q0 -114 -70 -193q70 -70 70 -182zM311 760q0 -44 25 -74.5t73.5 -47.5t97 -27.5t119 -23.5
t115.5 -26q43 43 43 113q0 43 -25 72.5t-73 46t-96.5 26.5t-118.5 23t-115 26q-45 -42 -45 -108z" />
    <glyph glyph-name="dieresis" unicode="&#xa8;" 
d="M598 1223v190h193v-190h-193zM215 1223v190h191v-190h-191z" />
    <glyph glyph-name="copyright" unicode="&#xa9;" horiz-adv-x="1660" 
d="M88 715q0 152 58.5 289.5t157.5 237t236.5 158t288.5 58.5q152 0 289.5 -58.5t237 -158t158.5 -237t59 -289.5q0 -202 -99.5 -372.5t-270.5 -270t-374 -99.5q-202 0 -372.5 99.5t-269.5 270t-99 372.5zM172 715q0 -132 53 -254.5t141.5 -212t210 -142.5t252.5 -53
q132 0 254.5 53t211 142.5t141.5 211.5t53 255t-53 256t-141.5 212t-210.5 142t-255 53q-175 0 -326.5 -89.5t-241 -242.5t-89.5 -331zM426 713q0 204 109.5 322t298.5 118q160 0 258.5 -81t107.5 -220h-129q-12 95 -74.5 146t-165.5 51q-129 0 -198.5 -87.5t-69.5 -250.5
q0 -160 70.5 -246t200.5 -86q109 0 171 56t66 159h133q-12 -148 -111 -234t-259 -86q-189 0 -298.5 118t-109.5 321z" />
    <glyph glyph-name="ordfeminine" unicode="&#xaa;" horiz-adv-x="786" 
d="M516 901q-73 -115 -233 -115q-104 0 -164 44t-60 128q0 107 112 163.5t323 56.5v41q0 47 -34 73.5t-95 26.5q-69 0 -106.5 -26.5t-37.5 -75.5h-133q0 101 74.5 159t202.5 58q123 0 194.5 -65t71.5 -179v-219q0 -62 37 -62q44 0 73 13v-95q-77 -41 -137 -41
q-40 0 -63 21.5t-23 56.5v37h-2zM197 965q0 -31 26.5 -48.5t69.5 -17.5q97 0 149 43t52 123v22q-153 0 -225 -28.5t-72 -93.5z" />
    <glyph glyph-name="guillemotletf" unicode="&#xab;" horiz-adv-x="944" 
d="M250 522l221 -428h-180l-223 428l223 426h180zM637 522l229 -428h-180l-231 428l231 426h180z" />
    <glyph glyph-name="logicalnot" unicode="&#xac;" horiz-adv-x="1046" 
d="M762 715h-686v143h850v-489h-164v346z" />
    <glyph glyph-name="registered" unicode="&#xae;" horiz-adv-x="1304" 
d="M96 879q0 114 44 217t118 177.5t177 118.5t216 44q152 0 280 -74.5t202.5 -202.5t74.5 -280q0 -113 -44 -216t-118.5 -177t-177.5 -118t-217 -44q-113 0 -216 44t-177 118t-118 177t-44 216zM176 879q0 -137 66 -246t174 -167t235 -58q129 0 237.5 58t174 166.5
t65.5 246.5t-66 247.5t-174.5 167.5t-236.5 58t-236 -58t-173.5 -167t-65.5 -248zM434 565l4 168v273l-4 188h215q248 0 248 -186q0 -145 -131 -189v-2l156 -252h-107l-143 234h-142v-66l2 -168h-98zM530 879h111q74 0 114 31t40 91q0 55 -40 85t-114 30h-109z" />
    <glyph glyph-name="macron" unicode="&#xaf;" 
d="M178 1251v119h574v-119h-574z" />
    <glyph glyph-name="degree" unicode="&#xb0;" horiz-adv-x="770" 
d="M385 813q-127 0 -218 90.5t-91 218.5q0 127 91.5 219.5t217.5 92.5q130 0 219.5 -92t89.5 -220q0 -129 -89.5 -219t-219.5 -90zM385 918q86 0 145.5 60.5t59.5 143.5t-60 145t-145 62t-145 -62t-60 -145t60 -143.5t145 -60.5z" />
    <glyph glyph-name="plusminus" unicode="&#xb1;" horiz-adv-x="1046" 
d="M453 276l-2 351h-353v139h353v350h143v-350h354v-139h-354l2 -351h-143zM98 0v139h850v-139h-850z" />
    <glyph glyph-name="twosuperior" unicode="&#xb2;" horiz-adv-x="851" 
d="M252 1356h-135q0 137 85.5 216t235.5 79q121 0 198 -62t77 -168q0 -60 -33 -112t-137 -150q-32 -30 -114 -111.5t-136 -132.5h457v-110h-644v72q61 61 157.5 154t129.5 126q121 121 154 167.5t33 92.5q0 62 -42 94.5t-110 32.5q-85 0 -130.5 -48.5t-45.5 -139.5z" />
    <glyph glyph-name="threesuperior" unicode="&#xb3;" horiz-adv-x="851" 
d="M424 1651q140 0 220.5 -57t80.5 -156q0 -60 -50 -110.5t-128 -63.5v-4q97 -12 154 -69.5t57 -141.5q0 -119 -89 -187.5t-247 -68.5t-248 71t-90 193h133q0 -75 52.5 -116.5t150.5 -41.5q95 0 146.5 38.5t51.5 109.5q0 69 -61 107t-174 38h-51v102h41q103 0 159 34t56 97
q0 57 -43 88t-121 31q-83 0 -127.5 -38.5t-46.5 -110.5h-137q0 119 82.5 187.5t228.5 68.5z" />
    <glyph glyph-name="acute" unicode="&#xb4;" 
d="M881 1413l-289 -223h-133l182 223h240z" />
    <glyph glyph-name="paragraph" unicode="&#xb6;" horiz-adv-x="1314" 
d="M971 -369l6 394v1013l-6 375h164l-7 -375v-1013l7 -394h-164zM635 -369l6 394v284q-283 12 -434.5 155t-151.5 398q0 253 150 395t430 154v2h164l-6 -375v-1013l6 -394h-164zM236 862q0 -199 95.5 -296t309.5 -97v569l-4 217q-215 -3 -308 -99.5t-93 -293.5z" />
    <glyph glyph-name="periodcentered" unicode="&#xb7;" horiz-adv-x="468" 
d="M125 524v217h219v-217h-219z" />
    <glyph glyph-name="cedilla" unicode="&#xb8;" 
d="M340 -369q-67 0 -116.5 33t-49.5 82h109q0 -15 16.5 -26t40.5 -11q25 0 41 17t16 43q0 29 -22 48t-56 19h-83l36 205h107l-23 -129q72 0 110 -39.5t38 -103.5q0 -61 -42.5 -99.5t-121.5 -38.5z" />
    <glyph glyph-name="onesuperior" unicode="&#xb9;" horiz-adv-x="851" 
d="M219 805v139h221l2 68v481q-22 -16 -112 -64t-125 -63v119q198 107 254 153h119l-3 -221v-473h197v-139h-553z" />
    <glyph glyph-name="ordmasculine" unicode="&#xba;" horiz-adv-x="784" 
d="M715 1108q0 -149 -86.5 -235.5t-237.5 -86.5q-149 0 -235 86.5t-86 235.5q0 151 86 238.5t235 87.5q151 0 237.5 -87.5t86.5 -238.5zM229 1110q0 -100 42 -154.5t120 -54.5t121 54.5t43 154.5t-43 154.5t-121 54.5t-120 -54.5t-42 -154.5z" />
    <glyph glyph-name="guillemotright" unicode="&#xbb;" horiz-adv-x="944" 
d="M694 522l-221 426h180l224 -426l-224 -428h-180zM307 522l-229 426h180l231 -426l-231 -428h-180z" />
    <glyph glyph-name="onequarter" unicode="&#xbc;" horiz-adv-x="1923" 
d="M219 594v139h221l2 68v481q-22 -16 -112 -64t-125 -63v119q198 107 254 153h119l-3 -221v-473h197v-139h-553zM422 0l1055 1415h143l-1053 -1415h-145zM1137 203l2 108l409 523h176l-4 -222v-305h135v-104h-135v-37l4 -166h-131l4 166v37h-460zM1264 307h333v408z" />
    <glyph glyph-name="onehalf" unicode="&#xbd;" horiz-adv-x="1923" 
d="M219 594v139h221l2 68v481q-22 -16 -112 -64t-125 -63v119q198 107 254 153h119l-3 -221v-473h197v-139h-553zM422 0l1055 1415h143l-1053 -1415h-145zM1323 551h-135q0 137 85.5 216t235.5 79q121 0 198 -62t77 -168q0 -60 -33 -112t-137 -150q-32 -30 -114 -111
t-136 -132h457v-111h-643v72q61 61 157 154t129 126q121 121 154 167.5t33 92.5q0 62 -42 94.5t-110 32.5q-85 0 -130.5 -48.5t-45.5 -139.5z" />
    <glyph glyph-name="threequarters" unicode="&#xbe;" horiz-adv-x="1923" 
d="M424 1440q140 0 220.5 -57t80.5 -156q0 -60 -50 -110.5t-128 -63.5v-4q97 -12 154 -69.5t57 -141.5q0 -119 -89 -187.5t-247 -68.5t-248 71t-90 193h133q0 -75 52.5 -116.5t150.5 -41.5q95 0 146.5 38.5t51.5 109.5q0 69 -61 107t-174 38h-51v102h41q103 0 159 34t56 97
q0 57 -43 88t-121 31q-83 0 -127.5 -38.5t-46.5 -110.5h-137q0 119 82.5 187.5t228.5 68.5zM422 0l1055 1415h143l-1053 -1415h-145zM1137 203l2 108l409 523h176l-4 -222v-305h135v-104h-135v-37l4 -166h-131l4 166v37h-460zM1264 307h333v408z" />
    <glyph glyph-name="questiondown" unicode="&#xbf;" horiz-adv-x="997" 
d="M598 1044v-219h-219v219h219zM582 631v-94q0 -57 -36 -117.5t-87 -113.5t-102.5 -106.5t-87.5 -115t-36 -119.5q0 -103 67.5 -158t193.5 -55q130 0 200 80t70 229h184q0 -209 -123 -329.5t-336 -120.5q-201 0 -317.5 95t-116.5 259q0 57 25.5 116t63.5 105.5t82 96.5
t82 90.5t63.5 85.5t25.5 84v88h185z" />
    <glyph glyph-name="Agrave" unicode="&#xc0;" horiz-adv-x="1320" 
d="M295 1688h250l203 -177h-160zM248 0h-215l137 352l379 1061h225l375 -1061l137 -352h-215l-121 352l-4 15h-573l-4 -15zM655 1206l-221 -678h451l-221 678h-9z" />
    <glyph glyph-name="Aacute" unicode="&#xc1;" horiz-adv-x="1320" 
d="M1018 1688l-293 -177h-160l203 177h250zM248 0h-215l137 352l379 1061h225l375 -1061l137 -352h-215l-121 352l-4 15h-573l-4 -15zM655 1206l-221 -678h451l-221 678h-9z" />
    <glyph glyph-name="Acircumflex" unicode="&#xc2;" horiz-adv-x="1320" 
d="M553 1511h-191l207 177h179l206 -177h-190l-107 78zM248 0h-215l137 352l379 1061h225l375 -1061l137 -352h-215l-121 352l-4 15h-573l-4 -15zM655 1206l-221 -678h451l-221 678h-9z" />
    <glyph glyph-name="Atilde" unicode="&#xc3;" horiz-adv-x="1320" 
d="M528 1505h-102q0 78 44.5 127t111.5 49q40 0 71.5 -15.5t55 -31.5t41.5 -16q53 0 53 70h102q0 -79 -44 -128t-111 -49q-37 0 -86.5 32t-81.5 32q-54 0 -54 -70zM248 0h-215l137 352l379 1061h225l375 -1061l137 -352h-215l-121 352l-4 15h-573l-4 -15zM655 1206
l-221 -678h451l-221 678h-9z" />
    <glyph glyph-name="Adieresis" unicode="&#xc4;" horiz-adv-x="1320" 
d="M754 1513v173h192v-173h-192zM371 1513v173h190v-173h-190zM248 0h-215l137 352l379 1061h225l375 -1061l137 -352h-215l-121 352l-4 15h-573l-4 -15zM655 1206l-221 -678h451l-221 678h-9z" />
    <glyph glyph-name="Aring" unicode="&#xc5;" horiz-adv-x="1320" 
d="M657 1450q-63 0 -108 46t-45 108q0 63 45 108t108 45t108.5 -45t45.5 -108q0 -62 -45.5 -108t-108.5 -46zM657 1528q29 0 50.5 22.5t21.5 53.5q0 32 -21.5 54.5t-50.5 22.5t-50 -22.5t-21 -54.5q0 -31 21 -53.5t50 -22.5zM248 0h-215l137 352l379 1061h225l375 -1061
l137 -352h-215l-121 352l-4 15h-573l-4 -15zM655 1206l-221 -678h451l-221 678h-9z" />
    <glyph glyph-name="AE" unicode="&#xc6;" horiz-adv-x="1869" 
d="M203 0h-234l183 309l608 1104h995v-160h-682v-438h653v-160h-653v-495h703v-160h-893l6 352v15h-496l-8 -17zM879 1251l-390 -723h400v723h-10z" />
    <glyph glyph-name="Ccedilla" unicode="&#xc7;" horiz-adv-x="1386" 
d="M739 -369q-67 0 -116.5 33t-49.5 82h109q0 -15 16.5 -26t40.5 -11q25 0 41.5 17t16.5 43q0 29 -22 48t-56 19h-84l27 146q-265 25 -416.5 217.5t-151.5 511.5q0 332 171.5 527.5t465.5 195.5q250 0 404.5 -137t171.5 -373h-195q-22 168 -122 259t-261 91
q-212 0 -326 -145.5t-114 -417.5q0 -276 114.5 -424t327.5 -148q165 0 266.5 98.5t120.5 280.5h195q-25 -240 -171 -383t-374 -155l-12 -68q72 0 109.5 -39.5t37.5 -103.5q0 -61 -42.5 -99.5t-121.5 -38.5z" />
    <glyph glyph-name="Egrave" unicode="&#xc8;" horiz-adv-x="1161" 
d="M248 1688h250l202 -177h-159zM1067 0h-893l6 352v709l-6 352h873v-160h-682v-438h653v-160h-653v-495h702v-160z" />
    <glyph glyph-name="Eacute" unicode="&#xc9;" horiz-adv-x="1161" 
d="M971 1688l-293 -177h-160l203 177h250zM1067 0h-893l6 352v709l-6 352h873v-160h-682v-438h653v-160h-653v-495h702v-160z" />
    <glyph glyph-name="Ecircumflex" unicode="&#xca;" horiz-adv-x="1161" 
d="M506 1511h-191l207 177h178l207 -177h-190l-107 78zM1067 0h-893l6 352v709l-6 352h873v-160h-682v-438h653v-160h-653v-495h702v-160z" />
    <glyph glyph-name="Edieresis" unicode="&#xcb;" horiz-adv-x="1161" 
d="M707 1513v173h192v-173h-192zM324 1513v173h190v-173h-190zM1067 0h-893l6 352v709l-6 352h873v-160h-682v-438h653v-160h-653v-495h702v-160z" />
    <glyph glyph-name="Igrave" unicode="&#xcc;" horiz-adv-x="548" 
d="M-88 1688h250l203 -177h-160zM375 0h-201l6 352v709l-6 352h201l-6 -352v-709z" />
    <glyph glyph-name="Iacute" unicode="&#xcd;" horiz-adv-x="548" 
d="M635 1688l-293 -177h-160l203 177h250zM375 0h-201l6 352v709l-6 352h201l-6 -352v-709z" />
    <glyph glyph-name="Icircumflex" unicode="&#xce;" horiz-adv-x="548" 
d="M170 1511h-190l206 177h179l206 -177h-190l-107 78zM375 0h-201l6 352v709l-6 352h201l-6 -352v-709z" />
    <glyph glyph-name="Idieresis" unicode="&#xcf;" horiz-adv-x="548" 
d="M371 1513v173h192v-173h-192zM-12 1513v173h190v-173h-190zM375 0h-201l6 352v709l-6 352h201l-6 -352v-709z" />
    <glyph glyph-name="Eth" unicode="&#xd0;" horiz-adv-x="1437" 
d="M621 0h-441l6 352v283h-133v141h133v285l-6 352h441q337 0 531 -188t194 -514q0 -329 -194.5 -520t-530.5 -191zM756 635h-381v-475h243q256 0 394.5 142.5t138.5 406.5q0 262 -137.5 403t-392.5 141h-246v-477h381v-141z" />
    <glyph glyph-name="Ntilde" unicode="&#xd1;" horiz-adv-x="1495" 
d="M618 1505h-102q0 78 44.5 127t111.5 49q40 0 71.5 -15.5t55 -31.5t41.5 -16q53 0 53 70h102q0 -79 -44 -128t-111 -49q-37 0 -86.5 32t-81.5 32q-54 0 -54 -70zM375 0h-201l6 352v707l-6 354h203l577 -862l164 -242h8v750l-6 354h201l-6 -354v-707l6 -352h-195l-602 872
l-151 232h-4v-752z" />
    <glyph glyph-name="Ograve" unicode="&#xd2;" horiz-adv-x="1486" 
d="M381 1688h250l203 -177h-160zM1395 715q0 -156 -41.5 -288.5t-121 -232.5t-205 -157t-284.5 -57q-127 0 -233.5 37.5t-183 104t-129.5 159t-79 202.5t-26 234q0 147 41.5 275.5t121 227.5t205.5 156.5t283 57.5q158 0 284 -57.5t205.5 -157t121 -228.5t41.5 -276z
M287 711q0 -119 29.5 -221.5t85.5 -180.5t144 -123t197 -45q146 0 251 77.5t155.5 204t50.5 286.5q0 111 -29.5 211.5t-85.5 180t-144.5 126.5t-197.5 47t-197 -47t-143.5 -126t-85.5 -179t-30 -211z" />
    <glyph glyph-name="Oacute" unicode="&#xd3;" horiz-adv-x="1486" 
d="M1104 1688l-293 -177h-160l203 177h250zM1395 715q0 -156 -41.5 -288.5t-121 -232.5t-205 -157t-284.5 -57q-127 0 -233.5 37.5t-183 104t-129.5 159t-79 202.5t-26 234q0 147 41.5 275.5t121 227.5t205.5 156.5t283 57.5q158 0 284 -57.5t205.5 -157t121 -228.5
t41.5 -276zM287 711q0 -119 29.5 -221.5t85.5 -180.5t144 -123t197 -45q146 0 251 77.5t155.5 204t50.5 286.5q0 111 -29.5 211.5t-85.5 180t-144.5 126.5t-197.5 47t-197 -47t-143.5 -126t-85.5 -179t-30 -211z" />
    <glyph glyph-name="Ocircumflex" unicode="&#xd4;" horiz-adv-x="1486" 
d="M639 1511h-190l206 177h179l206 -177h-190l-107 78zM1395 715q0 -156 -41.5 -288.5t-121 -232.5t-205 -157t-284.5 -57q-127 0 -233.5 37.5t-183 104t-129.5 159t-79 202.5t-26 234q0 147 41.5 275.5t121 227.5t205.5 156.5t283 57.5q158 0 284 -57.5t205.5 -157
t121 -228.5t41.5 -276zM287 711q0 -119 29.5 -221.5t85.5 -180.5t144 -123t197 -45q146 0 251 77.5t155.5 204t50.5 286.5q0 111 -29.5 211.5t-85.5 180t-144.5 126.5t-197.5 47t-197 -47t-143.5 -126t-85.5 -179t-30 -211z" />
    <glyph glyph-name="Otilde" unicode="&#xd5;" horiz-adv-x="1486" 
d="M614 1505h-102q0 78 44.5 127t111.5 49q40 0 71.5 -15.5t55 -31.5t41.5 -16q53 0 53 70h102q0 -79 -44 -128t-111 -49q-37 0 -86.5 32t-81.5 32q-54 0 -54 -70zM1395 715q0 -156 -41.5 -288.5t-121 -232.5t-205 -157t-284.5 -57q-127 0 -233.5 37.5t-183 104t-129.5 159
t-79 202.5t-26 234q0 147 41.5 275.5t121 227.5t205.5 156.5t283 57.5q158 0 284 -57.5t205.5 -157t121 -228.5t41.5 -276zM287 711q0 -119 29.5 -221.5t85.5 -180.5t144 -123t197 -45q146 0 251 77.5t155.5 204t50.5 286.5q0 111 -29.5 211.5t-85.5 180t-144.5 126.5
t-197.5 47t-197 -47t-143.5 -126t-85.5 -179t-30 -211z" />
    <glyph glyph-name="Odieresis" unicode="&#xd6;" horiz-adv-x="1486" 
d="M840 1513v173h192v-173h-192zM457 1513v173h190v-173h-190zM1395 715q0 -156 -41.5 -288.5t-121 -232.5t-205 -157t-284.5 -57q-127 0 -233.5 37.5t-183 104t-129.5 159t-79 202.5t-26 234q0 147 41.5 275.5t121 227.5t205.5 156.5t283 57.5q158 0 284 -57.5t205.5 -157
t121 -228.5t41.5 -276zM287 711q0 -119 29.5 -221.5t85.5 -180.5t144 -123t197 -45q146 0 251 77.5t155.5 204t50.5 286.5q0 111 -29.5 211.5t-85.5 180t-144.5 126.5t-197.5 47t-197 -47t-143.5 -126t-85.5 -179t-30 -211z" />
    <glyph glyph-name="multiply" unicode="&#xd7;" horiz-adv-x="1046" 
d="M272 266l-98 99l248 247l-250 252l100 101l250 -250l252 252l98 -101l-249 -254l251 -247l-100 -99l-252 248z" />
    <glyph glyph-name="Oslash" unicode="&#xd8;" horiz-adv-x="1570" 
d="M1442 715q0 -156 -41.5 -288.5t-120.5 -232.5t-204.5 -157t-284.5 -57q-268 0 -437 159l-155 -168h-203l264 283q-121 192 -121 463q0 147 42 275.5t121.5 227.5t205.5 156.5t283 57.5q260 0 428 -152l139 148h201l-242 -261q125 -186 125 -454zM334 711q0 -178 61 -312
l699 748q-120 127 -303 127q-109 0 -197 -47t-144 -126t-86 -179t-30 -211zM1247 709q0 176 -67 313l-701 -750q121 -131 312 -131q110 0 198 44.5t143.5 122.5t85 180t29.5 221z" />
    <glyph glyph-name="Ugrave" unicode="&#xd9;" horiz-adv-x="1390" 
d="M334 1688h250l202 -177h-159zM1227 522q0 -252 -141 -397t-386 -145q-249 0 -392.5 145t-143.5 397v537l-6 354h200l-6 -354v-520q0 -192 90 -296t256 -104q164 0 252 104t88 296v520l-6 354h201l-6 -354v-537z" />
    <glyph glyph-name="Uacute" unicode="&#xda;" horiz-adv-x="1390" 
d="M1057 1688l-293 -177h-160l203 177h250zM1227 522q0 -252 -141 -397t-386 -145q-249 0 -392.5 145t-143.5 397v537l-6 354h200l-6 -354v-520q0 -192 90 -296t256 -104q164 0 252 104t88 296v520l-6 354h201l-6 -354v-537z" />
    <glyph glyph-name="Ucircumflex" unicode="&#xdb;" horiz-adv-x="1390" 
d="M592 1511h-191l207 177h178l207 -177h-190l-107 78zM1227 522q0 -252 -141 -397t-386 -145q-249 0 -392.5 145t-143.5 397v537l-6 354h200l-6 -354v-520q0 -192 90 -296t256 -104q164 0 252 104t88 296v520l-6 354h201l-6 -354v-537z" />
    <glyph glyph-name="Udieresis" unicode="&#xdc;" horiz-adv-x="1390" 
d="M793 1513v173h192v-173h-192zM410 1513v173h190v-173h-190zM1227 522q0 -252 -141 -397t-386 -145q-249 0 -392.5 145t-143.5 397v537l-6 354h200l-6 -354v-520q0 -192 90 -296t256 -104q164 0 252 104t88 296v520l-6 354h201l-6 -354v-537z" />
    <glyph glyph-name="Yacute" unicode="&#xdd;" 
d="M967 1688l-293 -177h-160l203 177h250zM715 0h-201l6 352v103l-301 608l-182 350h227l166 -350l182 -381h4l181 379l168 352h227l-184 -354l-299 -604v-103z" />
    <glyph glyph-name="Thorn" unicode="&#xde;" horiz-adv-x="1232" 
d="M375 0h-201l6 309v795l-6 309h201l-6 -309h362q195 0 308.5 -106t113.5 -289q0 -186 -121 -293t-330 -107h-333zM369 944v-475h344q118 0 181.5 62t63.5 178q0 114 -57.5 174.5t-163.5 60.5h-368z" />
    <glyph glyph-name="germandbls" unicode="&#xdf;" horiz-adv-x="1232" 
d="M383 0h-190l6 352v547h-158v139h158v62q0 157 125 245.5t331 88.5q196 0 323.5 -92.5t127.5 -260.5q0 -269 -307 -323v-6q91 -6 161.5 -39.5t112.5 -85t63 -111t21 -123.5q0 -116 -66 -207t-174 -138.5t-237 -47.5h-150v139q215 -19 331 51t116 218q0 127 -84.5 196.5
t-239.5 69.5h-98v139q180 0 275.5 65.5t95.5 190.5q0 108 -72.5 166.5t-206.5 58.5q-130 0 -200 -61t-70 -172v-709z" />
    <glyph glyph-name="agrave" unicode="&#xe0;" horiz-adv-x="1083" 
d="M227 1413h240l182 -223h-133zM752 131q-100 -151 -359 -151q-64 0 -120 16.5t-101.5 49.5t-71.5 87.5t-26 124.5q0 174 175.5 266t504.5 101v102q0 98 -56 145.5t-178 47.5q-112 0 -170.5 -62.5t-58.5 -150.5h-180q0 72 24 131t64.5 99.5t95.5 68.5t116 40.5t126 12.5
q195 0 295 -82.5t100 -237.5v-559q0 -29 15.5 -45t43.5 -16q33 0 68 18v-139q-47 -18 -133 -18q-75 0 -121.5 35t-46.5 98v18h-6zM254 272q0 -70 48.5 -111.5t139.5 -41.5q145 0 227.5 77t82.5 220v78q-238 0 -368 -57t-130 -165z" />
    <glyph glyph-name="aacute" unicode="&#xe1;" horiz-adv-x="1083" 
d="M872 1413l-288 -223h-133l182 223h239zM752 131q-100 -151 -359 -151q-64 0 -120 16.5t-101.5 49.5t-71.5 87.5t-26 124.5q0 174 175.5 266t504.5 101v102q0 98 -56 145.5t-178 47.5q-112 0 -170.5 -62.5t-58.5 -150.5h-180q0 72 24 131t64.5 99.5t95.5 68.5t116 40.5
t126 12.5q195 0 295 -82.5t100 -237.5v-559q0 -29 15.5 -45t43.5 -16q33 0 68 18v-139q-47 -18 -133 -18q-75 0 -121.5 35t-46.5 98v18h-6zM254 272q0 -70 48.5 -111.5t139.5 -41.5q145 0 227.5 77t82.5 220v78q-238 0 -368 -57t-130 -165z" />
    <glyph glyph-name="acircumflex" unicode="&#xe2;" horiz-adv-x="1083" 
d="M403 1190h-153l207 223h159l207 -223h-153l-133 131zM752 131q-100 -151 -359 -151q-64 0 -120 16.5t-101.5 49.5t-71.5 87.5t-26 124.5q0 174 175.5 266t504.5 101v102q0 98 -56 145.5t-178 47.5q-112 0 -170.5 -62.5t-58.5 -150.5h-180q0 72 24 131t64.5 99.5
t95.5 68.5t116 40.5t126 12.5q195 0 295 -82.5t100 -237.5v-559q0 -29 15.5 -45t43.5 -16q33 0 68 18v-139q-47 -18 -133 -18q-75 0 -121.5 35t-46.5 98v18h-6zM254 272q0 -70 48.5 -111.5t139.5 -41.5q145 0 227.5 77t82.5 220v78q-238 0 -368 -57t-130 -165z" />
    <glyph glyph-name="atilde" unicode="&#xe3;" horiz-adv-x="1083" 
d="M360 1182h-102q0 217 174 217q39 0 74 -16.5t56 -36t47 -36t50 -16.5q70 0 70 111h102q0 -217 -163 -217q-35 0 -68.5 16t-55.5 36t-52.5 36t-59.5 16q-72 0 -72 -110zM752 131q-100 -151 -359 -151q-64 0 -120 16.5t-101.5 49.5t-71.5 87.5t-26 124.5q0 174 175.5 266
t504.5 101v102q0 98 -56 145.5t-178 47.5q-112 0 -170.5 -62.5t-58.5 -150.5h-180q0 72 24 131t64.5 99.5t95.5 68.5t116 40.5t126 12.5q195 0 295 -82.5t100 -237.5v-559q0 -29 15.5 -45t43.5 -16q33 0 68 18v-139q-47 -18 -133 -18q-75 0 -121.5 35t-46.5 98v18h-6z
M254 272q0 -70 48.5 -111.5t139.5 -41.5q145 0 227.5 77t82.5 220v78q-238 0 -368 -57t-130 -165z" />
    <glyph glyph-name="adieresis" unicode="&#xe4;" horiz-adv-x="1083" 
d="M633 1223v190h192v-190h-192zM250 1223v190h190v-190h-190zM752 131q-100 -151 -359 -151q-64 0 -120 16.5t-101.5 49.5t-71.5 87.5t-26 124.5q0 174 175.5 266t504.5 101v102q0 98 -56 145.5t-178 47.5q-112 0 -170.5 -62.5t-58.5 -150.5h-180q0 72 24 131t64.5 99.5
t95.5 68.5t116 40.5t126 12.5q195 0 295 -82.5t100 -237.5v-559q0 -29 15.5 -45t43.5 -16q33 0 68 18v-139q-47 -18 -133 -18q-75 0 -121.5 35t-46.5 98v18h-6zM254 272q0 -70 48.5 -111.5t139.5 -41.5q145 0 227.5 77t82.5 220v78q-238 0 -368 -57t-130 -165z" />
    <glyph glyph-name="aring" unicode="&#xe5;" horiz-adv-x="1083" 
d="M537 1126q-63 0 -108.5 46t-45.5 108q0 63 45.5 108.5t108.5 45.5t108 -45.5t45 -108.5q0 -62 -45 -108t-108 -46zM537 1204q29 0 50 22.5t21 53.5q0 32 -21 55t-50 23t-50.5 -23t-21.5 -55q0 -31 21.5 -53.5t50.5 -22.5zM752 131q-100 -151 -359 -151q-64 0 -120 16.5
t-101.5 49.5t-71.5 87.5t-26 124.5q0 174 175.5 266t504.5 101v102q0 98 -56 145.5t-178 47.5q-112 0 -170.5 -62.5t-58.5 -150.5h-180q0 72 24 131t64.5 99.5t95.5 68.5t116 40.5t126 12.5q195 0 295 -82.5t100 -237.5v-559q0 -29 15.5 -45t43.5 -16q33 0 68 18v-139
q-47 -18 -133 -18q-75 0 -121.5 35t-46.5 98v18h-6zM254 272q0 -70 48.5 -111.5t139.5 -41.5q145 0 227.5 77t82.5 220v78q-238 0 -368 -57t-130 -165z" />
    <glyph glyph-name="ae" unicode="&#xe6;" horiz-adv-x="1753" 
d="M807 213q-109 -233 -414 -233q-64 0 -120 16.5t-101.5 49.5t-71.5 87.5t-26 124.5q0 185 177 287.5t503 111.5v70q0 92 -61 142.5t-173 50.5q-110 0 -169.5 -55t-59.5 -158h-180q0 72 24 131t64.5 99.5t95.5 68.5t116 40.5t126 12.5q255 0 342 -137h2q114 141 342 141
q206 0 325 -129t119 -363v-73h-731q-6 -183 68 -281t219 -98q103 0 170 59.5t90 171.5h180q-22 -178 -137 -274t-307 -96q-148 0 -253 61.5t-149 173.5zM1225 930q-118 0 -192 -76t-93 -217h547q-6 141 -74 217t-188 76zM254 272q0 -70 48.5 -111.5t139.5 -41.5
q140 0 225 95.5t85 242.5v69q-235 0 -366.5 -67.5t-131.5 -186.5z" />
    <glyph glyph-name="ccedilla" unicode="&#xe7;" horiz-adv-x="1073" 
d="M553 -369q-67 0 -116.5 33t-49.5 82h109q0 -15 16.5 -26t40.5 -11q25 0 41 17t16 43q0 29 -22 48t-56 19h-83l26 150q-185 26 -289 166t-104 362q0 252 130.5 398.5t354.5 146.5q180 0 298 -102.5t141 -280.5h-181q-17 118 -83.5 181t-174.5 63q-147 0 -226 -105.5
t-79 -300.5q0 -190 77 -292.5t220 -102.5q115 0 183 66.5t87 193.5h181q-20 -180 -134 -286.5t-294 -112.5l-13 -68q72 0 110 -39.5t38 -103.5q0 -61 -42.5 -99.5t-121.5 -38.5z" />
    <glyph glyph-name="egrave" unicode="&#xe8;" horiz-adv-x="1081" 
d="M244 1413h239l183 -223h-134zM993 350q-22 -178 -137 -274t-307 -96q-224 0 -344.5 137.5t-120.5 392.5q0 266 121.5 409.5t347.5 143.5q204 0 319.5 -128t124.5 -364v-73h-731q-6 -183 68 -281t219 -98q103 0 170 59.5t90 171.5h180zM555 930q-118 0 -192 -76t-93 -217
h547q-6 141 -74 217t-188 76z" />
    <glyph glyph-name="eacute" unicode="&#xe9;" horiz-adv-x="1081" 
d="M889 1413l-289 -223h-133l182 223h240zM993 350q-22 -178 -137 -274t-307 -96q-224 0 -344.5 137.5t-120.5 392.5q0 266 121.5 409.5t347.5 143.5q204 0 319.5 -128t124.5 -364v-73h-731q-6 -183 68 -281t219 -98q103 0 170 59.5t90 171.5h180zM555 930q-118 0 -192 -76
t-93 -217h547q-6 141 -74 217t-188 76z" />
    <glyph glyph-name="ecircumflex" unicode="&#xea;" horiz-adv-x="1081" 
d="M420 1190h-154l207 223h160l207 -223h-154l-133 131zM993 350q-22 -178 -137 -274t-307 -96q-224 0 -344.5 137.5t-120.5 392.5q0 266 121.5 409.5t347.5 143.5q204 0 319.5 -128t124.5 -364v-73h-731q-6 -183 68 -281t219 -98q103 0 170 59.5t90 171.5h180zM555 930
q-118 0 -192 -76t-93 -217h547q-6 141 -74 217t-188 76z" />
    <glyph glyph-name="edieresis" unicode="&#xeb;" horiz-adv-x="1081" 
d="M649 1223v190h193v-190h-193zM266 1223v190h191v-190h-191zM993 350q-22 -178 -137 -274t-307 -96q-224 0 -344.5 137.5t-120.5 392.5q0 266 121.5 409.5t347.5 143.5q204 0 319.5 -128t124.5 -364v-73h-731q-6 -183 68 -281t219 -98q103 0 170 59.5t90 171.5h180z
M555 930q-118 0 -192 -76t-93 -217h547q-6 141 -74 217t-188 76z" />
    <glyph glyph-name="igrave" unicode="&#xec;" horiz-adv-x="485" 
d="M-98 1413h239l183 -223h-134zM338 0h-191l7 352v320l-7 366h191l-6 -366v-320z" />
    <glyph glyph-name="iacute" unicode="&#xed;" horiz-adv-x="485" 
d="M600 1413l-289 -223h-133l182 223h240zM338 0h-191l7 352v320l-7 366h191l-6 -366v-320z" />
    <glyph glyph-name="icircumflex" unicode="&#xee;" horiz-adv-x="485" 
d="M111 1190h-154l207 223h160l206 -223h-153l-133 131zM338 0h-191l7 352v320l-7 366h191l-6 -366v-320z" />
    <glyph glyph-name="idieresis" unicode="&#xef;" horiz-adv-x="485" 
d="M340 1223v190h192v-190h-192zM-43 1223v190h190v-190h-190zM338 0h-191l7 352v320l-7 366h191l-6 -366v-320z" />
    <glyph glyph-name="eth" unicode="&#xf0;" horiz-adv-x="1122" 
d="M1024 559q0 -270 -126 -424.5t-345 -154.5t-345 144t-126 394q0 252 126 396.5t345 144.5q58 0 115.5 -20t97.5 -54h6q-19 76 -53 174h-301v139h244q-11 26 -31.5 69.5t-22.5 47.5h187q8 -19 24.5 -58t24.5 -59h217v-139h-166q129 -367 129 -600zM262 520
q0 -193 75.5 -297t215.5 -104t215.5 104t75.5 297t-75.5 296.5t-215.5 103.5t-215.5 -103.5t-75.5 -296.5z" />
    <glyph glyph-name="ntilde" unicode="&#xf1;" horiz-adv-x="1087" 
d="M371 1182h-103q0 217 174 217q39 0 74 -16.5t56.5 -36t47.5 -36t50 -16.5q69 0 69 111h103q0 -217 -164 -217q-35 0 -68.5 16t-55.5 36t-52.5 36t-59.5 16q-71 0 -71 -110zM330 0h-187l7 352v320l-7 366h183l-7 -131h7q47 73 121 112.5t163 39.5q158 0 249 -98.5
t91 -268.5v-340l6 -352h-186l6 352v303q0 128 -58 196.5t-167 68.5t-168 -69t-59 -196v-303z" />
    <glyph glyph-name="ograve" unicode="&#xf2;" horiz-adv-x="1107" 
d="M246 1413h239l183 -223h-133zM1026 518q0 -250 -126.5 -394t-346.5 -144q-219 0 -345 144t-126 394q0 249 126.5 395t344.5 146q219 0 346 -145.5t127 -395.5zM262 520q0 -193 75.5 -297t215.5 -104q141 0 217 104t76 297q0 191 -76 295.5t-217 104.5q-139 0 -215 -104.5
t-76 -295.5z" />
    <glyph glyph-name="oacute" unicode="&#xf3;" horiz-adv-x="1107" 
d="M891 1413l-289 -223h-133l182 223h240zM1026 518q0 -250 -126.5 -394t-346.5 -144q-219 0 -345 144t-126 394q0 249 126.5 395t344.5 146q219 0 346 -145.5t127 -395.5zM262 520q0 -193 75.5 -297t215.5 -104q141 0 217 104t76 297q0 191 -76 295.5t-217 104.5
q-139 0 -215 -104.5t-76 -295.5z" />
    <glyph glyph-name="ocircumflex" unicode="&#xf4;" horiz-adv-x="1107" 
d="M422 1190h-154l207 223h160l207 -223h-154l-133 131zM1026 518q0 -250 -126.5 -394t-346.5 -144q-219 0 -345 144t-126 394q0 249 126.5 395t344.5 146q219 0 346 -145.5t127 -395.5zM262 520q0 -193 75.5 -297t215.5 -104q141 0 217 104t76 297q0 191 -76 295.5
t-217 104.5q-139 0 -215 -104.5t-76 -295.5z" />
    <glyph glyph-name="otilde" unicode="&#xf5;" horiz-adv-x="1107" 
d="M379 1182h-103q0 217 175 217q39 0 74 -16.5t56 -36t47 -36t50 -16.5q70 0 70 111h102q0 -217 -164 -217q-35 0 -68 16t-55.5 36t-52.5 36t-59 16q-72 0 -72 -110zM1026 518q0 -250 -126.5 -394t-346.5 -144q-219 0 -345 144t-126 394q0 249 126.5 395t344.5 146
q219 0 346 -145.5t127 -395.5zM262 520q0 -193 75.5 -297t215.5 -104q141 0 217 104t76 297q0 191 -76 295.5t-217 104.5q-139 0 -215 -104.5t-76 -295.5z" />
    <glyph glyph-name="odieresis" unicode="&#xf6;" horiz-adv-x="1107" 
d="M651 1223v190h193v-190h-193zM268 1223v190h191v-190h-191zM1026 518q0 -250 -126.5 -394t-346.5 -144q-219 0 -345 144t-126 394q0 249 126.5 395t344.5 146q219 0 346 -145.5t127 -395.5zM262 520q0 -193 75.5 -297t215.5 -104q141 0 217 104t76 297q0 191 -76 295.5
t-217 104.5q-139 0 -215 -104.5t-76 -295.5z" />
    <glyph glyph-name="divide" unicode="&#xf7;" horiz-adv-x="1046" 
d="M430 840v198h184v-198h-184zM57 516v141h932v-141h-932zM430 133v199h184v-199h-184z" />
    <glyph glyph-name="oslash" unicode="&#xf8;" horiz-adv-x="1169" 
d="M1063 518q0 -250 -126.5 -394t-346.5 -144q-169 0 -291 92l-59 -72h-191l154 182q-84 134 -84 336q0 249 126.5 395t344.5 146q162 0 276 -82l52 61h192l-141 -168q94 -139 94 -352zM299 520q0 -106 25 -192l444 530q-71 62 -178 62q-139 0 -215 -104.5t-76 -295.5z
M883 520q0 121 -31 209l-451 -536q71 -74 189 -74q141 0 217 104t76 297z" />
    <glyph glyph-name="ugrave" unicode="&#xf9;" horiz-adv-x="1105" 
d="M240 1413h239l183 -223h-134zM776 129q-39 -76 -115.5 -114t-175.5 -38q-163 0 -256.5 108t-93.5 296v291l-6 366h195l-7 -366l-2 -277q2 -134 51 -206t140 -72q132 0 202.5 92t69.5 262l-2 201l-6 366h193l-7 -366v-320l5 -352h-181l6 129h-10z" />
    <glyph glyph-name="uacute" unicode="&#xfa;" horiz-adv-x="1105" 
d="M885 1413l-289 -223h-133l182 223h240zM776 129q-39 -76 -115.5 -114t-175.5 -38q-163 0 -256.5 108t-93.5 296v291l-6 366h195l-7 -366l-2 -277q2 -134 51 -206t140 -72q132 0 202.5 92t69.5 262l-2 201l-6 366h193l-7 -366v-320l5 -352h-181l6 129h-10z" />
    <glyph glyph-name="ucircumflex" unicode="&#xfb;" horiz-adv-x="1105" 
d="M416 1190h-154l207 223h160l207 -223h-154l-133 131zM776 129q-39 -76 -115.5 -114t-175.5 -38q-163 0 -256.5 108t-93.5 296v291l-6 366h195l-7 -366l-2 -277q2 -134 51 -206t140 -72q132 0 202.5 92t69.5 262l-2 201l-6 366h193l-7 -366v-320l5 -352h-181l6 129h-10z
" />
    <glyph glyph-name="udieresis" unicode="&#xfc;" horiz-adv-x="1105" 
d="M645 1223v190h193v-190h-193zM262 1223v190h191v-190h-191zM776 129q-39 -76 -115.5 -114t-175.5 -38q-163 0 -256.5 108t-93.5 296v291l-6 366h195l-7 -366l-2 -277q2 -134 51 -206t140 -72q132 0 202.5 92t69.5 262l-2 201l-6 366h193l-7 -366v-320l5 -352h-181l6 129
h-10z" />
    <glyph glyph-name="yacute" unicode="&#xfd;" horiz-adv-x="1017" 
d="M844 1413l-289 -223h-133l182 223h240zM473 -369h-194l143 369l-248 672l-141 366h203l129 -366l145 -420h4l141 420l129 366h205l-143 -364z" />
    <glyph glyph-name="thorn" unicode="&#xfe;" horiz-adv-x="1130" 
d="M328 -369h-187l6 353v1077l-6 352h187l-6 -352v-143h4q59 78 135 109.5t198 31.5q180 0 284 -145t104 -396q0 -250 -113.5 -394t-308.5 -144q-206 0 -299 151h-4v-145zM309 520q0 -193 70 -297t201 -104q138 0 212 105.5t74 301.5q0 189 -72.5 291.5t-207.5 102.5
q-133 0 -205 -104t-72 -296z" />
    <glyph glyph-name="ydieresis" unicode="&#xff;" horiz-adv-x="1017" 
d="M604 1223v190h193v-190h-193zM221 1223v190h191v-190h-191zM473 -369h-194l143 369l-248 672l-141 366h203l129 -366l145 -420h4l141 420l129 366h205l-143 -364z" />
    <glyph glyph-name="Amacron" unicode="&#x100;" horiz-adv-x="1320" 
d="M365 1536v119h573v-119h-573zM248 0h-215l137 352l379 1061h225l375 -1061l137 -352h-215l-121 352l-4 15h-573l-4 -15zM655 1206l-221 -678h451l-221 678h-9z" />
    <glyph glyph-name="amacron" unicode="&#x101;" horiz-adv-x="1083" 
d="M244 1241v119h573v-119h-573zM752 131q-100 -151 -359 -151q-64 0 -120 16.5t-101.5 49.5t-71.5 87.5t-26 124.5q0 174 175.5 266t504.5 101v102q0 98 -56 145.5t-178 47.5q-112 0 -170.5 -62.5t-58.5 -150.5h-180q0 72 24 131t64.5 99.5t95.5 68.5t116 40.5t126 12.5
q195 0 295 -82.5t100 -237.5v-559q0 -29 15.5 -45t43.5 -16q33 0 68 18v-139q-47 -18 -133 -18q-75 0 -121.5 35t-46.5 98v18h-6zM254 272q0 -70 48.5 -111.5t139.5 -41.5q145 0 227.5 77t82.5 220v78q-238 0 -368 -57t-130 -165z" />
    <glyph glyph-name="Abreve" unicode="&#x102;" horiz-adv-x="1320" 
d="M426 1688h109q7 -60 122 -60q116 0 123 60h107q0 -81 -57.5 -126.5t-172.5 -45.5q-116 0 -173.5 45.5t-57.5 126.5zM248 0h-215l137 352l379 1061h225l375 -1061l137 -352h-215l-121 352l-4 15h-573l-4 -15zM655 1206l-221 -678h451l-221 678h-9z" />
    <glyph glyph-name="abreve" unicode="&#x103;" horiz-adv-x="1083" 
d="M256 1413h129q4 -53 45.5 -81.5t106.5 -28.5t106 28.5t45 81.5h127q0 -107 -73.5 -165t-204.5 -58q-132 0 -206.5 58t-74.5 165zM752 131q-100 -151 -359 -151q-64 0 -120 16.5t-101.5 49.5t-71.5 87.5t-26 124.5q0 174 175.5 266t504.5 101v102q0 98 -56 145.5
t-178 47.5q-112 0 -170.5 -62.5t-58.5 -150.5h-180q0 72 24 131t64.5 99.5t95.5 68.5t116 40.5t126 12.5q195 0 295 -82.5t100 -237.5v-559q0 -29 15.5 -45t43.5 -16q33 0 68 18v-139q-47 -18 -133 -18q-75 0 -121.5 35t-46.5 98v18h-6zM254 272q0 -70 48.5 -111.5
t139.5 -41.5q145 0 227.5 77t82.5 220v78q-238 0 -368 -57t-130 -165z" />
    <glyph glyph-name="Aogonek" unicode="&#x104;" horiz-adv-x="1320" 
d="M248 0h-215l137 352l379 1061h225l375 -1061l137 -352h-115q-138 -53 -184.5 -91t-46.5 -79q0 -59 96 -59q29 0 79 13t83 28v-121q-43 -23 -113 -41.5t-131 -18.5q-92 0 -143 37.5t-51 100.5q0 78 68 146t225 142l-103 295l-4 15h-573l-4 -15zM655 1206l-221 -678h451
l-221 678h-9z" />
    <glyph glyph-name="aogonek" unicode="&#x105;" horiz-adv-x="1083" 
d="M752 131q-100 -151 -359 -151q-64 0 -120 16.5t-101.5 49.5t-71.5 87.5t-26 124.5q0 174 175.5 266t504.5 101v102q0 98 -56 145.5t-178 47.5q-112 0 -170.5 -62.5t-58.5 -150.5h-180q0 72 24 131t64.5 99.5t95.5 68.5t116 40.5t126 12.5q195 0 295 -82.5t100 -237.5
v-559q0 -29 15.5 -45t43.5 -16q33 0 68 18v-139q-18 -7 -35 -10q-121 -49 -162 -84t-41 -74q0 -59 97 -59q29 0 78.5 13t82.5 28v-121q-43 -24 -112.5 -42t-130.5 -18q-92 0 -143.5 37.5t-51.5 100.5t44 119t140 112q-67 38 -67 113v18h-6zM254 272q0 -70 48.5 -111.5
t139.5 -41.5q145 0 227.5 77t82.5 220v78q-238 0 -368 -57t-130 -165z" />
    <glyph glyph-name="Cacute" unicode="&#x106;" horiz-adv-x="1386" 
d="M1092 1688l-293 -177h-160l203 177h250zM1313 518q-26 -250 -182.5 -394t-399.5 -144q-295 0 -466 195t-171 536q0 332 171.5 527.5t465.5 195.5q250 0 404.5 -137t171.5 -373h-195q-22 168 -122 259t-261 91q-212 0 -326 -145.5t-114 -417.5q0 -276 114.5 -424
t327.5 -148q165 0 266.5 98.5t120.5 280.5h195z" />
    <glyph glyph-name="cacute" unicode="&#x107;" horiz-adv-x="1073" 
d="M879 1413l-289 -223h-133l182 223h240zM1010 379q-20 -186 -141 -292.5t-310 -106.5q-221 0 -349 143t-128 391q0 252 130.5 398.5t354.5 146.5q180 0 298 -102.5t141 -280.5h-181q-17 118 -83.5 181t-174.5 63q-147 0 -226 -105.5t-79 -300.5q0 -190 77 -292.5
t220 -102.5q115 0 183 66.5t87 193.5h181z" />
    <glyph glyph-name="Ccircumflex" unicode="&#x108;" horiz-adv-x="1386" 
d="M627 1511h-191l207 177h178l207 -177h-190l-107 78zM1313 518q-26 -250 -182.5 -394t-399.5 -144q-295 0 -466 195t-171 536q0 332 171.5 527.5t465.5 195.5q250 0 404.5 -137t171.5 -373h-195q-22 168 -122 259t-261 91q-212 0 -326 -145.5t-114 -417.5
q0 -276 114.5 -424t327.5 -148q165 0 266.5 98.5t120.5 280.5h195z" />
    <glyph glyph-name="ccircumflex" unicode="&#x109;" horiz-adv-x="1073" 
d="M410 1190h-154l207 223h160l206 -223h-153l-133 131zM1010 379q-20 -186 -141 -292.5t-310 -106.5q-221 0 -349 143t-128 391q0 252 130.5 398.5t354.5 146.5q180 0 298 -102.5t141 -280.5h-181q-17 118 -83.5 181t-174.5 63q-147 0 -226 -105.5t-79 -300.5
q0 -190 77 -292.5t220 -102.5q115 0 183 66.5t87 193.5h181z" />
    <glyph glyph-name="Cdotaccent" unicode="&#x10a;" horiz-adv-x="1386" 
d="M637 1516v172h190v-172h-190zM1313 518q-26 -250 -182.5 -394t-399.5 -144q-295 0 -466 195t-171 536q0 332 171.5 527.5t465.5 195.5q250 0 404.5 -137t171.5 -373h-195q-22 168 -122 259t-261 91q-212 0 -326 -145.5t-114 -417.5q0 -276 114.5 -424t327.5 -148
q165 0 266.5 98.5t120.5 280.5h195z" />
    <glyph glyph-name="cdotaccent" unicode="&#x10b;" horiz-adv-x="1073" 
d="M449 1223v190h190v-190h-190zM1010 379q-20 -186 -141 -292.5t-310 -106.5q-221 0 -349 143t-128 391q0 252 130.5 398.5t354.5 146.5q180 0 298 -102.5t141 -280.5h-181q-17 118 -83.5 181t-174.5 63q-147 0 -226 -105.5t-79 -300.5q0 -190 77 -292.5t220 -102.5
q115 0 183 66.5t87 193.5h181z" />
    <glyph glyph-name="Ccaron" unicode="&#x10c;" horiz-adv-x="1386" 
d="M627 1688l104 -78l107 78h190l-207 -177h-178l-207 177h191zM1313 518q-26 -250 -182.5 -394t-399.5 -144q-295 0 -466 195t-171 536q0 332 171.5 527.5t465.5 195.5q250 0 404.5 -137t171.5 -373h-195q-22 168 -122 259t-261 91q-212 0 -326 -145.5t-114 -417.5
q0 -276 114.5 -424t327.5 -148q165 0 266.5 98.5t120.5 280.5h195z" />
    <glyph glyph-name="ccaron" unicode="&#x10d;" horiz-adv-x="1073" 
d="M399 1411l133 -131l134 131h153l-207 -223h-159l-207 223h153zM1010 379q-20 -186 -141 -292.5t-310 -106.5q-221 0 -349 143t-128 391q0 252 130.5 398.5t354.5 146.5q180 0 298 -102.5t141 -280.5h-181q-17 118 -83.5 181t-174.5 63q-147 0 -226 -105.5t-79 -300.5
q0 -190 77 -292.5t220 -102.5q115 0 183 66.5t87 193.5h181z" />
    <glyph glyph-name="Dcaron" unicode="&#x10e;" horiz-adv-x="1431" 
d="M551 1688l104 -78l107 78h190l-207 -177h-178l-207 177h191zM614 0h-440l6 352v709l-6 352h440q337 0 531 -188t194 -514q0 -329 -194.5 -520t-530.5 -191zM369 1253v-1093h243q256 0 394.5 142.5t138.5 406.5q0 262 -138 403t-393 141h-245z" />
    <glyph glyph-name="dcaron" unicode="&#x10f;" horiz-adv-x="1288" 
d="M805 111q-47 -61 -119.5 -96t-150.5 -35q-209 0 -330 144t-121 394q0 251 117 396t319 145q94 0 170.5 -39t114.5 -107h4v148l-6 352h186l-6 -352v-709l6 -352h-186l6 111h-4zM1087 1094l41 319h201l-108 -319h-134zM264 526q0 -195 74.5 -301t212.5 -106
q130 0 200 103.5t70 297.5q0 193 -71 296.5t-205 103.5q-135 0 -208 -101.5t-73 -292.5z" />
    <glyph glyph-name="Dcroat" unicode="&#x110;" horiz-adv-x="1437" 
d="M621 0h-441l6 352v283h-133v141h133v285l-6 352h441q337 0 531 -188t194 -514q0 -329 -194.5 -520t-530.5 -191zM756 635h-381v-475h243q256 0 394.5 142.5t138.5 406.5q0 262 -137.5 403t-392.5 141h-246v-477h381v-141z" />
    <glyph glyph-name="dcroat" unicode="&#x111;" horiz-adv-x="1130" 
d="M805 111q-47 -61 -119.5 -96t-150.5 -35q-209 0 -330 144t-121 394q0 251 117 396t319 145q94 0 170.5 -39t114.5 -107h4v148l-2 98h-348v139h346l-2 115h186l-2 -115h115v-139h-117l-2 -98v-709l6 -352h-186l6 111h-4zM264 526q0 -195 74.5 -301t212.5 -106
q130 0 200 103.5t70 297.5q0 193 -71 296.5t-205 103.5q-135 0 -208 -101.5t-73 -292.5z" />
    <glyph glyph-name="Emacron" unicode="&#x112;" horiz-adv-x="1161" 
d="M317 1536v119h574v-119h-574zM1067 0h-893l6 352v709l-6 352h873v-160h-682v-438h653v-160h-653v-495h702v-160z" />
    <glyph glyph-name="emacron" unicode="&#x113;" horiz-adv-x="1081" 
d="M260 1241v119h574v-119h-574zM993 350q-22 -178 -137 -274t-307 -96q-224 0 -344.5 137.5t-120.5 392.5q0 266 121.5 409.5t347.5 143.5q204 0 319.5 -128t124.5 -364v-73h-731q-6 -183 68 -281t219 -98q103 0 170 59.5t90 171.5h180zM555 930q-118 0 -192 -76t-93 -217
h547q-6 141 -74 217t-188 76z" />
    <glyph glyph-name="Ebreve" unicode="&#x114;" horiz-adv-x="1161" 
d="M379 1688h108q7 -60 123 -60t123 60h107q0 -81 -57.5 -126.5t-172.5 -45.5q-116 0 -173.5 45.5t-57.5 126.5zM1067 0h-893l6 352v709l-6 352h873v-160h-682v-438h653v-160h-653v-495h702v-160z" />
    <glyph glyph-name="ebreve" unicode="&#x115;" horiz-adv-x="1081" 
d="M272 1413h129q4 -53 45.5 -81.5t106.5 -28.5t106.5 28.5t45.5 81.5h126q0 -107 -73.5 -165t-204.5 -58q-132 0 -206.5 58t-74.5 165zM993 350q-22 -178 -137 -274t-307 -96q-224 0 -344.5 137.5t-120.5 392.5q0 266 121.5 409.5t347.5 143.5q204 0 319.5 -128t124.5 -364
v-73h-731q-6 -183 68 -281t219 -98q103 0 170 59.5t90 171.5h180zM555 930q-118 0 -192 -76t-93 -217h547q-6 141 -74 217t-188 76z" />
    <glyph glyph-name="Edotaccent" unicode="&#x116;" horiz-adv-x="1161" 
d="M516 1516v172h191v-172h-191zM1067 0h-893l6 352v709l-6 352h873v-160h-682v-438h653v-160h-653v-495h702v-160z" />
    <glyph glyph-name="edotaccent" unicode="&#x117;" horiz-adv-x="1081" 
d="M459 1223v190h190v-190h-190zM993 350q-22 -178 -137 -274t-307 -96q-224 0 -344.5 137.5t-120.5 392.5q0 266 121.5 409.5t347.5 143.5q204 0 319.5 -128t124.5 -364v-73h-731q-6 -183 68 -281t219 -98q103 0 170 59.5t90 171.5h180zM555 930q-118 0 -192 -76t-93 -217
h547q-6 141 -74 217t-188 76z" />
    <glyph glyph-name="Eogonek" unicode="&#x118;" horiz-adv-x="1161" 
d="M1067 0h-6q-138 -53 -185 -91t-47 -79q0 -59 97 -59q29 0 78.5 13t82.5 28v-121q-43 -24 -112.5 -42t-130.5 -18q-92 0 -143.5 37.5t-51.5 100.5t43.5 118.5t141.5 112.5h-660l6 352v709l-6 352h873v-160h-682v-438h653v-160h-653v-495h702v-160z" />
    <glyph glyph-name="eogonek" unicode="&#x119;" horiz-adv-x="1081" 
d="M739 -309q-43 -24 -112.5 -42t-130.5 -18q-92 0 -143.5 37.5t-51.5 100.5q0 117 160 217q-183 26 -280 160.5t-97 363.5q0 266 121.5 409.5t347.5 143.5q204 0 319.5 -128t124.5 -364v-73h-731q-6 -183 68 -281t219 -98q103 0 170 59.5t90 171.5h180q-35 -273 -274 -348
q-142 -54 -190 -92.5t-48 -79.5q0 -59 97 -59q29 0 78.5 13t82.5 28v-121zM555 930q-118 0 -192 -76t-93 -217h547q-6 141 -74 217t-188 76z" />
    <glyph glyph-name="Ecaron" unicode="&#x11a;" horiz-adv-x="1161" 
d="M506 1688l104 -78l107 78h190l-207 -177h-178l-207 177h191zM1067 0h-893l6 352v709l-6 352h873v-160h-682v-438h653v-160h-653v-495h702v-160z" />
    <glyph glyph-name="ecaron" unicode="&#x11b;" horiz-adv-x="1081" 
d="M410 1411l133 -131l133 131h153l-206 -223h-160l-207 223h154zM993 350q-22 -178 -137 -274t-307 -96q-224 0 -344.5 137.5t-120.5 392.5q0 266 121.5 409.5t347.5 143.5q204 0 319.5 -128t124.5 -364v-73h-731q-6 -183 68 -281t219 -98q103 0 170 59.5t90 171.5h180z
M555 930q-118 0 -192 -76t-93 -217h547q-6 141 -74 217t-188 76z" />
    <glyph glyph-name="Gcircumflex" unicode="&#x11c;" horiz-adv-x="1470" 
d="M651 1511h-190l207 177h178l207 -177h-191l-106 78zM1194 172q-69 -89 -187 -140.5t-249 -51.5q-302 0 -484 199t-182 532q0 331 178.5 527t483.5 196q238 0 396 -142.5t183 -363.5h-194q-15 158 -119.5 252t-267.5 94q-222 0 -343.5 -148t-121.5 -415q0 -270 128 -421
t351 -151q167 0 284.5 107t129.5 293h-420v159h596v-348l6 -350h-170l4 172h-2z" />
    <glyph glyph-name="gcircumflex" unicode="&#x11d;" horiz-adv-x="1077" 
d="M362 1190h-153l207 223h159l207 -223h-153l-133 131zM1036 -39q0 -154 -134.5 -243t-366.5 -89q-228 0 -358 72.5t-130 206.5q0 194 211 252v4q-37 21 -57.5 59.5t-20.5 81.5q0 48 23.5 87.5t60.5 60.5v4q-66 27 -117 102.5t-51 171.5q0 147 112 237.5t294 90.5
q115 0 203 -35q6 50 49 80.5t100 30.5q82 0 154 -29v-135q-41 24 -88 24q-80 0 -80 -63q42 -54 57.5 -100t15.5 -101q0 -148 -112 -239t-293 -91q-39 0 -100 9q-35 -12 -51.5 -36.5t-16.5 -51.5q0 -51 37 -72t151 -21h107q188 0 294.5 -70t106.5 -198zM254 733
q0 -98 66.5 -153.5t183.5 -55.5q118 0 185 55.5t67 153.5q0 95 -67 149t-185 54q-117 0 -183.5 -54t-66.5 -149zM227 -66q0 -85 82 -130.5t234 -45.5q151 0 232 49t81 140q0 66 -69 104.5t-189 38.5h-92q-129 0 -204 -42t-75 -114z" />
    <glyph glyph-name="Gbreve" unicode="&#x11e;" horiz-adv-x="1470" 
d="M524 1688h109q7 -60 123 -60t123 60h106q0 -81 -57 -126.5t-172 -45.5q-116 0 -174 45.5t-58 126.5zM1194 172q-69 -89 -187 -140.5t-249 -51.5q-302 0 -484 199t-182 532q0 331 178.5 527t483.5 196q238 0 396 -142.5t183 -363.5h-194q-15 158 -119.5 252t-267.5 94
q-222 0 -343.5 -148t-121.5 -415q0 -270 128 -421t351 -151q167 0 284.5 107t129.5 293h-420v159h596v-348l6 -350h-170l4 172h-2z" />
    <glyph glyph-name="gbreve" unicode="&#x11f;" horiz-adv-x="1077" 
d="M215 1413h129q4 -53 45.5 -81.5t106.5 -28.5t106 28.5t45 81.5h127q0 -107 -73.5 -165t-204.5 -58q-132 0 -206.5 58t-74.5 165zM1036 -39q0 -154 -134.5 -243t-366.5 -89q-228 0 -358 72.5t-130 206.5q0 194 211 252v4q-37 21 -57.5 59.5t-20.5 81.5q0 48 23.5 87.5
t60.5 60.5v4q-66 27 -117 102.5t-51 171.5q0 147 112 237.5t294 90.5q115 0 203 -35q6 50 49 80.5t100 30.5q82 0 154 -29v-135q-41 24 -88 24q-80 0 -80 -63q42 -54 57.5 -100t15.5 -101q0 -148 -112 -239t-293 -91q-39 0 -100 9q-35 -12 -51.5 -36.5t-16.5 -51.5
q0 -51 37 -72t151 -21h107q188 0 294.5 -70t106.5 -198zM254 733q0 -98 66.5 -153.5t183.5 -55.5q118 0 185 55.5t67 153.5q0 95 -67 149t-185 54q-117 0 -183.5 -54t-66.5 -149zM227 -66q0 -85 82 -130.5t234 -45.5q151 0 232 49t81 140q0 66 -69 104.5t-189 38.5h-92
q-129 0 -204 -42t-75 -114z" />
    <glyph glyph-name="Gdotaccent" unicode="&#x120;" horiz-adv-x="1470" 
d="M662 1516v172h190v-172h-190zM1194 172q-69 -89 -187 -140.5t-249 -51.5q-302 0 -484 199t-182 532q0 331 178.5 527t483.5 196q238 0 396 -142.5t183 -363.5h-194q-15 158 -119.5 252t-267.5 94q-222 0 -343.5 -148t-121.5 -415q0 -270 128 -421t351 -151
q167 0 284.5 107t129.5 293h-420v159h596v-348l6 -350h-170l4 172h-2z" />
    <glyph glyph-name="gdotaccent" unicode="&#x121;" horiz-adv-x="1077" 
d="M401 1223v190h191v-190h-191zM1036 -39q0 -154 -134.5 -243t-366.5 -89q-228 0 -358 72.5t-130 206.5q0 194 211 252v4q-37 21 -57.5 59.5t-20.5 81.5q0 48 23.5 87.5t60.5 60.5v4q-66 27 -117 102.5t-51 171.5q0 147 112 237.5t294 90.5q115 0 203 -35q6 50 49 80.5
t100 30.5q82 0 154 -29v-135q-41 24 -88 24q-80 0 -80 -63q42 -54 57.5 -100t15.5 -101q0 -148 -112 -239t-293 -91q-39 0 -100 9q-35 -12 -51.5 -36.5t-16.5 -51.5q0 -51 37 -72t151 -21h107q188 0 294.5 -70t106.5 -198zM254 733q0 -98 66.5 -153.5t183.5 -55.5
q118 0 185 55.5t67 153.5q0 95 -67 149t-185 54q-117 0 -183.5 -54t-66.5 -149zM227 -66q0 -85 82 -130.5t234 -45.5q151 0 232 49t81 140q0 66 -69 104.5t-189 38.5h-92q-129 0 -204 -42t-75 -114z" />
    <glyph glyph-name="Gcommaaccent" unicode="&#x122;" horiz-adv-x="1470" 
d="M1194 172q-69 -89 -187 -140.5t-249 -51.5q-302 0 -484 199t-182 532q0 331 178.5 527t483.5 196q238 0 396 -142.5t183 -363.5h-194q-15 158 -119.5 252t-267.5 94q-222 0 -343.5 -148t-121.5 -415q0 -270 128 -421t351 -151q167 0 284.5 107t129.5 293h-420v159h596
v-348l6 -350h-170l4 172h-2zM559 -371l103 330h174l-138 -330h-139z" />
    <glyph glyph-name="gcommaaccent" unicode="&#x123;" horiz-adv-x="1077" 
d="M680 1432l-102 -330h-175l138 330h139zM1036 -39q0 -154 -134.5 -243t-366.5 -89q-228 0 -358 72.5t-130 206.5q0 194 211 252v4q-37 21 -57.5 59.5t-20.5 81.5q0 48 23.5 87.5t60.5 60.5v4q-66 27 -117 102.5t-51 171.5q0 147 112 237.5t294 90.5q115 0 203 -35
q6 50 49 80.5t100 30.5q82 0 154 -29v-135q-41 24 -88 24q-80 0 -80 -63q42 -54 57.5 -100t15.5 -101q0 -148 -112 -239t-293 -91q-39 0 -100 9q-35 -12 -51.5 -36.5t-16.5 -51.5q0 -51 37 -72t151 -21h107q188 0 294.5 -70t106.5 -198zM254 733q0 -98 66.5 -153.5
t183.5 -55.5q118 0 185 55.5t67 153.5q0 95 -67 149t-185 54q-117 0 -183.5 -54t-66.5 -149zM227 -66q0 -85 82 -130.5t234 -45.5q151 0 232 49t81 140q0 66 -69 104.5t-189 38.5h-92q-129 0 -204 -42t-75 -114z" />
    <glyph glyph-name="Hcircumflex" unicode="&#x124;" horiz-adv-x="1429" 
d="M610 1511h-190l207 177h178l207 -177h-191l-106 78zM375 0h-201l6 352v709l-6 352h201l-6 -352v-244h692v244l-6 352h200l-6 -352v-709l6 -352h-200l6 352v305h-692v-305z" />
    <glyph glyph-name="hcircumflex" unicode="&#x125;" horiz-adv-x="1085" 
d="M106 1456h-153l207 223h159l207 -223h-153l-133 131zM328 0h-187l6 309v752l-6 352h183l-7 -352v-152h7q46 72 121.5 111t162.5 39q158 0 249 -98.5t91 -268.5v-385l6 -307h-186l6 309v346q0 128 -52 196.5t-153 68.5q-116 0 -181.5 -83.5t-65.5 -228.5v-301z" />
    <glyph glyph-name="Hbar" unicode="&#x126;" horiz-adv-x="1429" 
d="M375 0h-201l6 352v666h-59v139h57l-4 256h201l-4 -256h688l-4 256h200l-4 -256h60v-139h-62v-666l6 -352h-200l6 352v305h-692v-305zM369 817h692v201h-692v-201z" />
    <glyph glyph-name="hbar" unicode="&#x127;" horiz-adv-x="1085" 
d="M328 0h-187l6 309v752l-2 102h-141v140h139l-2 110h183l-2 -110h325v-140h-328l-2 -102v-152h7q46 72 121.5 111t162.5 39q158 0 249 -98.5t91 -268.5v-385l6 -307h-186l6 309v346q0 128 -52 196.5t-153 68.5q-116 0 -181.5 -83.5t-65.5 -228.5v-301z" />
    <glyph glyph-name="Itilde" unicode="&#x128;" horiz-adv-x="548" 
d="M145 1505h-102q0 78 44.5 127t111.5 49q40 0 71.5 -15.5t55 -31.5t41.5 -16q53 0 53 70h102q0 -79 -44 -128t-111 -49q-37 0 -86.5 32t-81.5 32q-54 0 -54 -70zM375 0h-201l6 352v709l-6 352h201l-6 -352v-709z" />
    <glyph glyph-name="itilde" unicode="&#x129;" horiz-adv-x="485" 
d="M68 1182h-103q0 217 174 217q39 0 74 -16.5t56.5 -36t47.5 -36t50 -16.5q69 0 69 111h103q0 -217 -164 -217q-35 0 -68.5 16t-55.5 36t-52.5 36t-59.5 16q-71 0 -71 -110zM338 0h-191l7 352v320l-7 366h191l-6 -366v-320z" />
    <glyph glyph-name="Imacron" unicode="&#x12a;" horiz-adv-x="548" 
d="M-18 1536v119h573v-119h-573zM375 0h-201l6 352v709l-6 352h201l-6 -352v-709z" />
    <glyph glyph-name="imacron" unicode="&#x12b;" horiz-adv-x="485" 
d="M-49 1241v119h573v-119h-573zM338 0h-191l7 352v320l-7 366h191l-6 -366v-320z" />
    <glyph glyph-name="Ibreve" unicode="&#x12c;" horiz-adv-x="548" 
d="M43 1688h109q7 -60 122 -60q116 0 123 60h107q0 -81 -57.5 -126.5t-172.5 -45.5q-116 0 -173.5 45.5t-57.5 126.5zM375 0h-201l6 352v709l-6 352h201l-6 -352v-709z" />
    <glyph glyph-name="ibreve" unicode="&#x12d;" horiz-adv-x="485" 
d="M-37 1413h129q4 -53 45.5 -81.5t106.5 -28.5t106 28.5t45 81.5h127q0 -107 -73.5 -165t-204.5 -58q-132 0 -206.5 58t-74.5 165zM338 0h-191l7 352v320l-7 366h191l-6 -366v-320z" />
    <glyph glyph-name="Iogonek" unicode="&#x12e;" horiz-adv-x="550" 
d="M377 0h-6q-138 -53 -185 -91t-47 -79q0 -59 97 -59q29 0 78.5 13t82.5 28v-121q-43 -24 -112.5 -42t-130.5 -18q-92 0 -143.5 37.5t-51.5 100.5q0 67 51 127t166 122l6 334v709l-6 352h201l-6 -352v-709l6 -350v-2z" />
    <glyph glyph-name="iogonek" unicode="&#x12f;" horiz-adv-x="489" 
d="M154 1223v190h190v-190h-190zM342 0h-6q-138 -53 -185 -91t-47 -79q0 -59 97 -59q29 0 78.5 13t82.5 28v-121q-43 -24 -112.5 -42t-130.5 -18q-92 0 -143.5 37.5t-51.5 100.5q0 69 54 131t174 125l6 327v320l-6 366h190l-6 -366v-320l6 -350v-2z" />
    <glyph glyph-name="Idotaccent" unicode="&#x130;" horiz-adv-x="548" 
d="M180 1516v172h191v-172h-191zM375 0h-201l6 352v709l-6 352h201l-6 -352v-709z" />
    <glyph glyph-name="idotless" unicode="&#x131;" horiz-adv-x="485" 
d="M338 0h-191l7 352v320l-7 366h191l-6 -366v-320z" />
    <glyph glyph-name="IJ" unicode="&#x132;" horiz-adv-x="968" 
d="M375 0h-201l6 352v709l-6 352h201l-6 -352v-709zM791 -92q0 -133 -74.5 -205t-212.5 -72q-54 0 -127 17v166q57 -23 82 -23q69 0 106 42t37 120v1108l-6 352h201l-6 -352v-1153z" />
    <glyph glyph-name="ij" unicode="&#x133;" horiz-adv-x="950" 
d="M346 1223h-207v190h207v-190zM811 1223h-207v190h207v-190zM338 0h-191l7 352v320l-7 366h191l-6 -366v-320zM797 -92q0 -128 -77 -202.5t-210 -74.5q-19 0 -39 4v140q16 -4 27 -4q58 0 89 37t31 106v758l-6 366h191l-6 -366v-764z" />
    <glyph glyph-name="Jcircumflex" unicode="&#x134;" horiz-adv-x="561" 
d="M184 1511h-190l207 177h178l207 -177h-191l-106 78zM383 -92q0 -133 -74.5 -205t-212.5 -72q-54 0 -127 17v166q57 -23 82 -23q69 0 106.5 42t37.5 120v1108l-7 352h201l-6 -352v-1153z" />
    <glyph glyph-name="jcircumflex" unicode="&#x135;" horiz-adv-x="485" 
d="M111 1190h-154l207 223h160l206 -223h-153l-133 131zM340 -92q0 -128 -77 -202.5t-210 -74.5q-19 0 -39 4v140q16 -4 27 -4q58 0 89.5 37t31.5 106v758l-6 366h190l-6 -366v-764z" />
    <glyph glyph-name="Kcommaaccent" unicode="&#x136;" horiz-adv-x="1257" 
d="M375 0h-199l4 352v709l-6 352h201l-6 -352v-334h6l289 334l303 352h252l-320 -352l-209 -238v-4l326 -467l254 -352h-266l-228 352l-219 318h-4l-184 -207v-111zM446 -371l103 330h174l-137 -330h-140z" />
    <glyph glyph-name="kcommaaccent" unicode="&#x137;" horiz-adv-x="1036" 
d="M332 0h-191l6 352v709l-6 352h191l-6 -352v-445h8l153 164l236 258h235l-258 -258l-118 -123l213 -303l262 -354h-236l-246 354l-116 172h-8l-125 -137v-35zM350 -371l103 330h174l-138 -330h-139z" />
    <glyph glyph-name="kgreenlandic" unicode="&#x138;" horiz-adv-x="1103" 
d="M328 0h-183l5 352l-3 320l-4 366h185l-4 -366v-82h137l71 82l322 366h246l-334 -366l-137 -148v-4l147 -168l324 -352h-248l-307 352l-86 99h-135v-99z" />
    <glyph glyph-name="Lacute" unicode="&#x139;" horiz-adv-x="1030" 
d="M641 1688l-293 -177h-160l203 177h250zM995 0h-821l6 352v709l-6 352h201l-6 -352v-899h626v-162z" />
    <glyph glyph-name="lacute" unicode="&#x13a;" horiz-adv-x="561" 
d="M563 1788l-289 -223h-133l183 223h239zM547 4q-60 -24 -119 -24q-134 0 -210.5 79t-76.5 217v785l-6 348h191l-7 -348v-799q0 -69 31.5 -106t89.5 -37q48 0 107 24v-139z" />
    <glyph glyph-name="Lcommaaccent" unicode="&#x13b;" horiz-adv-x="1030" 
d="M995 0h-821l6 352v709l-6 352h201l-6 -352v-899h626v-162zM344 -371l102 330h175l-138 -330h-139z" />
    <glyph glyph-name="lcommaaccent" unicode="&#x13c;" horiz-adv-x="561" 
d="M547 4q-60 -24 -119 -24q-134 0 -210.5 79t-76.5 217v785l-6 348h191l-7 -348v-799q0 -69 31.5 -106t89.5 -37q48 0 107 24v-139zM219 -371l103 330h174l-138 -330h-139z" />
    <glyph glyph-name="Lcaron" unicode="&#x13d;" horiz-adv-x="1042" 
d="M995 0h-821l6 352v709l-6 352h201l-6 -352v-899h626v-162zM713 1094l41 319h200l-108 -319h-133z" />
    <glyph glyph-name="lcaron" unicode="&#x13e;" horiz-adv-x="577" 
d="M422 1094l41 319h201l-109 -319h-133zM547 4q-60 -24 -119 -24q-134 0 -210.5 79t-76.5 217v785l-6 348h191l-7 -348v-799q0 -69 31.5 -106t89.5 -37q48 0 107 24v-139z" />
    <glyph glyph-name="Ldot" unicode="&#x13f;" horiz-adv-x="1030" 
d="M995 0h-821l6 352v709l-6 352h201l-6 -352v-899h626v-162zM590 524v217h219v-217h-219z" />
    <glyph glyph-name="ldot" unicode="&#x140;" horiz-adv-x="649" 
d="M547 4q-60 -24 -119 -24q-134 0 -210.5 79t-76.5 217v785l-6 348h191l-7 -348v-799q0 -69 31.5 -106t89.5 -37q48 0 107 24v-139zM397 524v217h219v-217h-219z" />
    <glyph glyph-name="Lslash" unicode="&#x141;" horiz-adv-x="1050" 
d="M1016 0h-821l6 352v164l-146 -84v170l146 84v375l-6 352h200l-6 -352v-266l371 213v-170l-371 -213v-463h627v-162z" />
    <glyph glyph-name="lslash" unicode="&#x142;" horiz-adv-x="665" 
d="M594 4q-60 -24 -119 -24q-134 0 -210.5 79t-76.5 217v299l-135 -77v184l135 78v301l-6 348h191l-6 -348v-199l227 129v-182l-227 -131v-416q0 -69 31 -106t89 -37q49 0 107 24v-139z" />
    <glyph glyph-name="Nacute" unicode="&#x143;" horiz-adv-x="1495" 
d="M1108 1688l-293 -177h-160l203 177h250zM375 0h-201l6 352v707l-6 354h203l577 -862l164 -242h8v750l-6 354h201l-6 -354v-707l6 -352h-195l-602 872l-151 232h-4v-752z" />
    <glyph glyph-name="nacute" unicode="&#x144;" horiz-adv-x="1087" 
d="M883 1413l-289 -223h-133l182 223h240zM330 0h-187l7 352v320l-7 366h183l-7 -131h7q47 73 121 112.5t163 39.5q158 0 249 -98.5t91 -268.5v-340l6 -352h-186l6 352v303q0 128 -58 196.5t-167 68.5t-168 -69t-59 -196v-303z" />
    <glyph glyph-name="Ncommaaccent" unicode="&#x145;" horiz-adv-x="1495" 
d="M375 0h-201l6 352v707l-6 354h203l577 -862l164 -242h8v750l-6 354h201l-6 -354v-707l6 -352h-195l-602 872l-151 232h-4v-752zM553 -371l102 330h174l-137 -330h-139z" />
    <glyph glyph-name="ncommaaccent" unicode="&#x146;" horiz-adv-x="1087" 
d="M330 0h-187l7 352v320l-7 366h183l-7 -131h7q47 73 121 112.5t163 39.5q158 0 249 -98.5t91 -268.5v-340l6 -352h-186l6 352v303q0 128 -58 196.5t-167 68.5t-168 -69t-59 -196v-303zM358 -371l103 330h174l-137 -330h-140z" />
    <glyph glyph-name="Ncaron" unicode="&#x147;" horiz-adv-x="1495" 
d="M643 1688l105 -78l106 78h190l-206 -177h-179l-206 177h190zM375 0h-201l6 352v707l-6 354h203l577 -862l164 -242h8v750l-6 354h201l-6 -354v-707l6 -352h-195l-602 872l-151 232h-4v-752z" />
    <glyph glyph-name="ncaron" unicode="&#x148;" horiz-adv-x="1087" 
d="M403 1411l134 -131l133 131h153l-207 -223h-159l-207 223h153zM330 0h-187l7 352v320l-7 366h183l-7 -131h7q47 73 121 112.5t163 39.5q158 0 249 -98.5t91 -268.5v-340l6 -352h-186l6 352v303q0 128 -58 196.5t-167 68.5t-168 -69t-59 -196v-303z" />
    <glyph glyph-name="napostrophe" unicode="&#x149;" horiz-adv-x="1251" 
d="M-2 979l92 434h186l-143 -434h-135zM494 0h-187l6 352v320l-6 366h182l-6 -131h6q47 73 121 112.5t164 39.5q158 0 249 -98.5t91 -268.5v-340l6 -352h-186l6 352v303q0 128 -58 196.5t-167 68.5t-168.5 -69t-59.5 -196v-303z" />
    <glyph glyph-name="Eng" unicode="&#x14a;" horiz-adv-x="1495" 
d="M375 0h-201l6 352v707l-6 354h203l577 -862l164 -242h8v750l-6 354h201l-6 -354v-707l6 -352v-92q0 -127 -81.5 -202t-215.5 -75q-19 0 -39 4v160q16 -4 27 -4q57 0 89 34t32 89v76l-43 63l-566 819l-151 232h-4v-752z" />
    <glyph glyph-name="eng" unicode="&#x14b;" horiz-adv-x="1085" 
d="M150 672l-7 366h183l-7 -131h7q47 73 121 112.5t163 39.5q158 0 249 -98.5t91 -268.5v-784q0 -128 -74.5 -202.5t-207.5 -74.5q-19 0 -39 4v140q16 -4 26 -4q58 0 89.5 37t31.5 106v741q0 128 -58 196.5t-167 68.5t-168 -69t-59 -196v-348l6 -307h-187l7 309v363z" />
    <glyph glyph-name="Omacron" unicode="&#x14c;" horiz-adv-x="1486" 
d="M451 1536v119h573v-119h-573zM1395 715q0 -156 -41.5 -288.5t-121 -232.5t-205 -157t-284.5 -57q-127 0 -233.5 37.5t-183 104t-129.5 159t-79 202.5t-26 234q0 147 41.5 275.5t121 227.5t205.5 156.5t283 57.5q158 0 284 -57.5t205.5 -157t121 -228.5t41.5 -276z
M287 711q0 -119 29.5 -221.5t85.5 -180.5t144 -123t197 -45q146 0 251 77.5t155.5 204t50.5 286.5q0 111 -29.5 211.5t-85.5 180t-144.5 126.5t-197.5 47t-197 -47t-143.5 -126t-85.5 -179t-30 -211z" />
    <glyph glyph-name="omacron" unicode="&#x14d;" horiz-adv-x="1107" 
d="M262 1241v119h574v-119h-574zM1026 518q0 -250 -126.5 -394t-346.5 -144q-219 0 -345 144t-126 394q0 249 126.5 395t344.5 146q219 0 346 -145.5t127 -395.5zM262 520q0 -193 75.5 -297t215.5 -104q141 0 217 104t76 297q0 191 -76 295.5t-217 104.5q-139 0 -215 -104.5
t-76 -295.5z" />
    <glyph glyph-name="Obreve" unicode="&#x14e;" horiz-adv-x="1486" 
d="M512 1688h109q7 -60 122 -60q116 0 123 60h107q0 -81 -57.5 -126.5t-172.5 -45.5q-116 0 -173.5 45.5t-57.5 126.5zM1395 715q0 -156 -41.5 -288.5t-121 -232.5t-205 -157t-284.5 -57q-127 0 -233.5 37.5t-183 104t-129.5 159t-79 202.5t-26 234q0 147 41.5 275.5
t121 227.5t205.5 156.5t283 57.5q158 0 284 -57.5t205.5 -157t121 -228.5t41.5 -276zM287 711q0 -119 29.5 -221.5t85.5 -180.5t144 -123t197 -45q146 0 251 77.5t155.5 204t50.5 286.5q0 111 -29.5 211.5t-85.5 180t-144.5 126.5t-197.5 47t-197 -47t-143.5 -126
t-85.5 -179t-30 -211z" />
    <glyph glyph-name="obreve" unicode="&#x14f;" horiz-adv-x="1107" 
d="M274 1413h129q4 -53 45.5 -81.5t106.5 -28.5t106.5 28.5t45.5 81.5h127q0 -107 -74 -165t-205 -58q-132 0 -206.5 58t-74.5 165zM1026 518q0 -250 -126.5 -394t-346.5 -144q-219 0 -345 144t-126 394q0 249 126.5 395t344.5 146q219 0 346 -145.5t127 -395.5zM262 520
q0 -193 75.5 -297t215.5 -104q141 0 217 104t76 297q0 191 -76 295.5t-217 104.5q-139 0 -215 -104.5t-76 -295.5z" />
    <glyph glyph-name="Ohungarumlaut" unicode="&#x150;" horiz-adv-x="1486" 
d="M866 1688l-293 -177h-159l202 177h250zM1288 1688l-293 -177h-159l202 177h250zM1395 715q0 -156 -41.5 -288.5t-121 -232.5t-205 -157t-284.5 -57q-127 0 -233.5 37.5t-183 104t-129.5 159t-79 202.5t-26 234q0 147 41.5 275.5t121 227.5t205.5 156.5t283 57.5
q158 0 284 -57.5t205.5 -157t121 -228.5t41.5 -276zM287 711q0 -119 29.5 -221.5t85.5 -180.5t144 -123t197 -45q146 0 251 77.5t155.5 204t50.5 286.5q0 111 -29.5 211.5t-85.5 180t-144.5 126.5t-197.5 47t-197 -47t-143.5 -126t-85.5 -179t-30 -211z" />
    <glyph glyph-name="ohungarumlaut" unicode="&#x151;" horiz-adv-x="1107" 
d="M705 1405l-289 -223h-133l182 223h240zM1079 1405l-288 -223h-134l183 223h239zM1026 518q0 -250 -126.5 -394t-346.5 -144q-219 0 -345 144t-126 394q0 249 126.5 395t344.5 146q219 0 346 -145.5t127 -395.5zM262 520q0 -193 75.5 -297t215.5 -104q141 0 217 104
t76 297q0 191 -76 295.5t-217 104.5q-139 0 -215 -104.5t-76 -295.5z" />
    <glyph glyph-name="OE" unicode="&#x152;" horiz-adv-x="2181" 
d="M1198 156q-173 -176 -455 -176q-127 0 -233.5 37.5t-183 104t-129.5 159t-79 202.5t-26 234q0 147 41.5 275.5t121 227.5t205.5 156.5t283 57.5q278 0 455 -177h4l-8 156h872v-160h-682l-2 -438h656v-160h-654v-495h703v-160h-893l6 156h-2zM287 711q0 -119 29.5 -221.5
t85.5 -180.5t144 -123t197 -45q146 0 251 77.5t155.5 204t50.5 286.5q0 111 -29.5 211.5t-85.5 180t-144.5 126.5t-197.5 47t-197 -47t-143.5 -126t-85.5 -179t-30 -211z" />
    <glyph glyph-name="oe" unicode="&#x153;" horiz-adv-x="1783" 
d="M899 205q-51 -104 -151 -164.5t-222 -60.5q-206 0 -325 144t-119 394t119 395.5t323 145.5q120 0 220.5 -62t154.5 -168h6q51 108 150.5 171t220.5 63q195 0 308.5 -132.5t113.5 -359.5v-73h-711q-6 -175 65.5 -277t200.5 -102q106 0 179.5 62t95.5 169h166
q-22 -172 -134 -271t-284 -99q-131 0 -230.5 60.5t-140.5 164.5h-6zM1255 930q-225 0 -264 -293h527q-6 141 -74.5 217t-188.5 76zM262 520q0 -193 75.5 -297t215.5 -104q272 0 272 401q0 400 -272 400q-139 0 -215 -104.5t-76 -295.5z" />
    <glyph glyph-name="Racute" unicode="&#x154;" horiz-adv-x="1286" 
d="M930 1688l-293 -177h-160l203 177h250zM375 0h-201l6 352v709l-6 352h524q211 0 333 -114t122 -310q0 -128 -76.5 -231t-199.5 -154v-6l358 -598h-227l-318 563h-321v-211zM369 1253v-530h295q133 0 213.5 70.5t80.5 195.5q0 124 -77 194t-197 70h-315z" />
    <glyph glyph-name="racute" unicode="&#x155;" horiz-adv-x="751" 
d="M672 1413l-289 -223h-133l182 223h240zM330 0h-187l7 352v320l-7 366h183l-7 -192h7q47 104 120.5 158.5t163.5 54.5q58 0 107 -15v-182q-54 15 -117 15q-56 0 -103 -23t-78.5 -60t-53.5 -86.5t-31.5 -101t-9.5 -104.5v-150z" />
    <glyph glyph-name="Rcommaaccent" unicode="&#x156;" horiz-adv-x="1286" 
d="M375 0h-201l6 352v709l-6 352h524q211 0 333 -114t122 -310q0 -128 -76.5 -231t-199.5 -154v-6l358 -598h-227l-318 563h-321v-211zM369 1253v-530h295q133 0 213.5 70.5t80.5 195.5q0 124 -77 194t-197 70h-315zM477 -371l103 330h174l-138 -330h-139z" />
    <glyph glyph-name="rcommaaccent" unicode="&#x157;" horiz-adv-x="751" 
d="M330 0h-187l7 352v320l-7 366h183l-7 -192h7q47 104 120.5 158.5t163.5 54.5q58 0 107 -15v-182q-54 15 -117 15q-56 0 -103 -23t-78.5 -60t-53.5 -86.5t-31.5 -101t-9.5 -104.5v-150zM51 -371l103 330h174l-138 -330h-139z" />
    <glyph glyph-name="Rcaron" unicode="&#x158;" horiz-adv-x="1286" 
d="M465 1688l104 -78l107 78h190l-207 -177h-178l-207 177h191zM375 0h-201l6 352v709l-6 352h524q211 0 333 -114t122 -310q0 -128 -76.5 -231t-199.5 -154v-6l358 -598h-227l-318 563h-321v-211zM369 1253v-530h295q133 0 213.5 70.5t80.5 195.5q0 124 -77 194t-197 70
h-315z" />
    <glyph glyph-name="rcaron" unicode="&#x159;" horiz-adv-x="751" 
d="M274 1411l134 -131l133 131h153l-207 -223h-159l-207 223h153zM330 0h-187l7 352v320l-7 366h183l-7 -192h7q47 104 120.5 158.5t163.5 54.5q58 0 107 -15v-182q-54 15 -117 15q-56 0 -103 -23t-78.5 -60t-53.5 -86.5t-31.5 -101t-9.5 -104.5v-150z" />
    <glyph glyph-name="Sacute" unicode="&#x15a;" horiz-adv-x="1263" 
d="M1010 1688l-293 -177h-160l203 177h250zM1188 393q0 -192 -149.5 -304t-395.5 -112q-270 0 -421.5 134t-151.5 370h194q0 -166 98.5 -255t290.5 -89q169 0 256.5 70.5t87.5 181.5q0 40 -17.5 72t-46 54.5t-76.5 42t-96 32.5t-118 28q-63 13 -113 26.5t-105 33.5t-97 43
t-81 55t-64.5 69t-40.5 86.5t-15 106.5q0 187 132 291.5t362 104.5q234 0 373.5 -118.5t146.5 -326.5h-195q-3 133 -88.5 211t-236.5 78q-143 0 -223.5 -60t-80.5 -171q0 -54 25.5 -97t55 -68t95.5 -49.5t101 -33.5t117 -27q5 -1 8 -2q95 -21 162 -42.5t128.5 -52.5
t98.5 -69t58.5 -91.5t21.5 -121.5z" />
    <glyph glyph-name="sacute" unicode="&#x15b;" horiz-adv-x="1005" 
d="M838 1413l-289 -223h-133l182 223h240zM936 299q0 -148 -114 -233.5t-312 -85.5q-205 0 -324.5 100t-119.5 272h180q0 -111 68.5 -172t187.5 -61q125 0 189.5 46.5t64.5 133.5q0 40 -22.5 68.5t-61 44.5t-88 27.5t-104.5 21t-109.5 21.5t-103.5 33t-86.5 51t-59 80
t-19.5 116q3 128 116.5 212.5t291.5 84.5q188 0 288.5 -90t100.5 -250h-180q0 97 -57.5 149t-163.5 52q-99 0 -157 -42t-58 -118q0 -43 28 -73t74 -44.5t104.5 -28.5t120 -24t120 -31.5t104.5 -50.5t74 -82.5t28 -126.5z" />
    <glyph glyph-name="Scircumflex" unicode="&#x15c;" horiz-adv-x="1263" 
d="M545 1511h-191l207 177h178l207 -177h-190l-107 78zM1188 393q0 -192 -149.5 -304t-395.5 -112q-270 0 -421.5 134t-151.5 370h194q0 -166 98.5 -255t290.5 -89q169 0 256.5 70.5t87.5 181.5q0 40 -17.5 72t-46 54.5t-76.5 42t-96 32.5t-118 28q-63 13 -113 26.5
t-105 33.5t-97 43t-81 55t-64.5 69t-40.5 86.5t-15 106.5q0 187 132 291.5t362 104.5q234 0 373.5 -118.5t146.5 -326.5h-195q-3 133 -88.5 211t-236.5 78q-143 0 -223.5 -60t-80.5 -171q0 -54 25.5 -97t55 -68t95.5 -49.5t101 -33.5t117 -27q5 -1 8 -2q95 -21 162 -42.5
t128.5 -52.5t98.5 -69t58.5 -91.5t21.5 -121.5z" />
    <glyph glyph-name="scircumflex" unicode="&#x15d;" horiz-adv-x="1005" 
d="M369 1190h-154l207 223h160l206 -223h-153l-133 131zM936 299q0 -148 -114 -233.5t-312 -85.5q-205 0 -324.5 100t-119.5 272h180q0 -111 68.5 -172t187.5 -61q125 0 189.5 46.5t64.5 133.5q0 40 -22.5 68.5t-61 44.5t-88 27.5t-104.5 21t-109.5 21.5t-103.5 33t-86.5 51
t-59 80t-19.5 116q3 128 116.5 212.5t291.5 84.5q188 0 288.5 -90t100.5 -250h-180q0 97 -57.5 149t-163.5 52q-99 0 -157 -42t-58 -118q0 -43 28 -73t74 -44.5t104.5 -28.5t120 -24t120 -31.5t104.5 -50.5t74 -82.5t28 -126.5z" />
    <glyph glyph-name="Scedilla" unicode="&#x15e;" horiz-adv-x="1263" 
d="M659 -369q-67 0 -116 33t-49 82h108q0 -15 16.5 -26t40.5 -11q25 0 41.5 17t16.5 43q0 29 -22 48t-56 19h-84l27 144q-244 15 -378 147t-134 354h194q0 -166 98.5 -255t290.5 -89q169 0 256.5 70.5t87.5 181.5q0 40 -17.5 72t-46 54.5t-76.5 42t-96 32.5t-118 28
q-63 13 -113 26.5t-105 33.5t-97 43t-81 55t-64.5 69t-40.5 86.5t-15 106.5q0 187 132 291.5t362 104.5q234 0 373.5 -118.5t146.5 -326.5h-195q-3 133 -88.5 211t-236.5 78q-143 0 -223.5 -60t-80.5 -171q0 -54 25.5 -97t55 -68t95.5 -49.5t101 -33.5t117 -27q5 -1 8 -2
q95 -21 162 -42.5t128.5 -52.5t98.5 -69t58.5 -91.5t21.5 -121.5q0 -183 -136.5 -293.5t-363.5 -119.5l-12 -68q72 0 109.5 -39.5t37.5 -103.5q0 -61 -42.5 -99.5t-121.5 -38.5z" />
    <glyph glyph-name="scedilla" unicode="&#x15f;" horiz-adv-x="1005" 
d="M512 -369q-67 0 -116.5 33t-49.5 82h109q0 -15 16.5 -26t40.5 -11q25 0 41 17t16 43q0 29 -21.5 48t-55.5 19h-84l26 148q-172 19 -270 116t-98 252h180q0 -111 68.5 -172t187.5 -61q125 0 189.5 46.5t64.5 133.5q0 40 -22.5 68.5t-61 44.5t-88 27.5t-104.5 21
t-109.5 21.5t-103.5 33t-86.5 51t-59 80t-19.5 116q3 128 116.5 212.5t291.5 84.5q188 0 288.5 -90t100.5 -250h-180q0 97 -57.5 149t-163.5 52q-99 0 -157 -42t-58 -118q0 -43 28 -73t74 -44.5t104.5 -28.5t120 -24t120 -31.5t104.5 -50.5t74 -82.5t28 -126.5
q0 -141 -105.5 -226.5t-289.5 -92.5l-13 -68q72 0 110 -39.5t38 -103.5q0 -61 -42.5 -99.5t-121.5 -38.5z" />
    <glyph glyph-name="Scaron" unicode="&#x160;" horiz-adv-x="1263" 
d="M545 1688l104 -78l107 78h190l-207 -177h-178l-207 177h191zM1188 393q0 -192 -149.5 -304t-395.5 -112q-270 0 -421.5 134t-151.5 370h194q0 -166 98.5 -255t290.5 -89q169 0 256.5 70.5t87.5 181.5q0 40 -17.5 72t-46 54.5t-76.5 42t-96 32.5t-118 28q-63 13 -113 26.5
t-105 33.5t-97 43t-81 55t-64.5 69t-40.5 86.5t-15 106.5q0 187 132 291.5t362 104.5q234 0 373.5 -118.5t146.5 -326.5h-195q-3 133 -88.5 211t-236.5 78q-143 0 -223.5 -60t-80.5 -171q0 -54 25.5 -97t55 -68t95.5 -49.5t101 -33.5t117 -27q5 -1 8 -2q95 -21 162 -42.5
t128.5 -52.5t98.5 -69t58.5 -91.5t21.5 -121.5z" />
    <glyph glyph-name="scaron" unicode="&#x161;" horiz-adv-x="1005" 
d="M358 1411l134 -131l133 131h153l-207 -223h-159l-207 223h153zM936 299q0 -148 -114 -233.5t-312 -85.5q-205 0 -324.5 100t-119.5 272h180q0 -111 68.5 -172t187.5 -61q125 0 189.5 46.5t64.5 133.5q0 40 -22.5 68.5t-61 44.5t-88 27.5t-104.5 21t-109.5 21.5t-103.5 33
t-86.5 51t-59 80t-19.5 116q3 128 116.5 212.5t291.5 84.5q188 0 288.5 -90t100.5 -250h-180q0 97 -57.5 149t-163.5 52q-99 0 -157 -42t-58 -118q0 -43 28 -73t74 -44.5t104.5 -28.5t120 -24t120 -31.5t104.5 -50.5t74 -82.5t28 -126.5z" />
    <glyph glyph-name="Tcedilla" unicode="&#x162;" horiz-adv-x="1112" 
d="M662 0h-62l-16 -88q72 0 109.5 -39.5t37.5 -103.5q0 -61 -42.5 -99.5t-121.5 -38.5q-67 0 -116.5 33t-49.5 82h109q0 -15 16.5 -26t40.5 -11q25 0 41.5 17t16.5 43q0 29 -22 48t-56 19h-84l29 164h-39l10 352v903h-430v160h1046v-160h-428v-903z" />
    <glyph glyph-name="tcedilla" unicode="&#x163;" horiz-adv-x="712" 
d="M465 -369q-67 0 -116.5 33t-49.5 82h109q0 -15 16.5 -26t40.5 -11q25 0 41 17t16 43q0 29 -22 48t-56 19h-84l27 152q-99 22 -151 98.5t-52 200.5v612h-143v139h143l-6 246h193l-6 -246h319v-139h-319v-598q0 -94 33.5 -137t105.5 -43q96 0 180 24v-143
q-102 -19 -190 -22l-13 -68q72 0 110 -39.5t38 -103.5q0 -61 -42.5 -99.5t-121.5 -38.5z" />
    <glyph glyph-name="Tcaron" unicode="&#x164;" horiz-adv-x="1112" 
d="M453 1688l104 -78l107 78h190l-207 -177h-178l-207 177h191zM662 0h-209l10 352v903h-430v160h1046v-160h-428v-903z" />
    <glyph glyph-name="tcaron" unicode="&#x165;" horiz-adv-x="712" 
d="M539 1094l41 319h200l-108 -319h-133zM684 2q-113 -22 -219 -22q-135 0 -208 79.5t-73 227.5v612h-143v139h143l-6 246h193l-6 -246h319v-139h-319v-598q0 -94 33.5 -137t105.5 -43q96 0 180 24v-143z" />
    <glyph glyph-name="Tbar" unicode="&#x166;" horiz-adv-x="1124" 
d="M668 0h-209l10 352v443h-221v139h221v321h-430v160h1046v-160h-428v-321h234v-139h-234v-443z" />
    <glyph glyph-name="tbar" unicode="&#x167;" horiz-adv-x="729" 
d="M690 2q-113 -22 -219 -22q-135 0 -208 79.5t-73 227.5v379h-137v139h137v94h-143v139h143l-6 246h193l-6 -246h319v-139h-319v-94h325v-139h-325v-365q0 -94 33.5 -137t105.5 -43q96 0 180 24v-143z" />
    <glyph glyph-name="Utilde" unicode="&#x168;" horiz-adv-x="1390" 
d="M567 1505h-102q0 78 44.5 127t111.5 49q31 0 58 -10t42.5 -21.5t33.5 -21.5t33 -10q54 0 54 70h102q0 -78 -44.5 -127.5t-111.5 -49.5q-37 0 -86 32t-81 32q-54 0 -54 -70zM1227 522q0 -252 -141 -397t-386 -145q-249 0 -392.5 145t-143.5 397v537l-6 354h200l-6 -354
v-520q0 -192 90 -296t256 -104q164 0 252 104t88 296v520l-6 354h201l-6 -354v-537z" />
    <glyph glyph-name="utilde" unicode="&#x169;" horiz-adv-x="1105" 
d="M373 1182h-103q0 217 174 217q39 0 74 -16.5t56.5 -36t47.5 -36t50 -16.5q69 0 69 111h103q0 -217 -164 -217q-35 0 -68.5 16t-55.5 36t-52.5 36t-59.5 16q-71 0 -71 -110zM776 129q-39 -76 -115.5 -114t-175.5 -38q-163 0 -256.5 108t-93.5 296v291l-6 366h195l-7 -366
l-2 -277q2 -134 51 -206t140 -72q132 0 202.5 92t69.5 262l-2 201l-6 366h193l-7 -366v-320l5 -352h-181l6 129h-10z" />
    <glyph glyph-name="Umacron" unicode="&#x16a;" horiz-adv-x="1390" 
d="M403 1536v119h574v-119h-574zM1227 522q0 -252 -141 -397t-386 -145q-249 0 -392.5 145t-143.5 397v537l-6 354h200l-6 -354v-520q0 -192 90 -296t256 -104q164 0 252 104t88 296v520l-6 354h201l-6 -354v-537z" />
    <glyph glyph-name="umacron" unicode="&#x16b;" horiz-adv-x="1105" 
d="M256 1241v119h573v-119h-573zM776 129q-39 -76 -115.5 -114t-175.5 -38q-163 0 -256.5 108t-93.5 296v291l-6 366h195l-7 -366l-2 -277q2 -134 51 -206t140 -72q132 0 202.5 92t69.5 262l-2 201l-6 366h193l-7 -366v-320l5 -352h-181l6 129h-10z" />
    <glyph glyph-name="Ubreve" unicode="&#x16c;" horiz-adv-x="1390" 
d="M465 1688h108q7 -60 123 -60t123 60h107q0 -81 -57.5 -126.5t-172.5 -45.5q-116 0 -173.5 45.5t-57.5 126.5zM1227 522q0 -252 -141 -397t-386 -145q-249 0 -392.5 145t-143.5 397v537l-6 354h200l-6 -354v-520q0 -192 90 -296t256 -104q164 0 252 104t88 296v520l-6 354
h201l-6 -354v-537z" />
    <glyph glyph-name="ubreve" unicode="&#x16d;" horiz-adv-x="1105" 
d="M268 1413h129q4 -53 45.5 -81.5t106.5 -28.5t106 28.5t45 81.5h127q0 -107 -73.5 -165t-204.5 -58q-132 0 -206.5 58t-74.5 165zM776 129q-39 -76 -115.5 -114t-175.5 -38q-163 0 -256.5 108t-93.5 296v291l-6 366h195l-7 -366l-2 -277q2 -134 51 -206t140 -72
q132 0 202.5 92t69.5 262l-2 201l-6 366h193l-7 -366v-320l5 -352h-181l6 129h-10z" />
    <glyph glyph-name="Uring" unicode="&#x16e;" horiz-adv-x="1390" 
d="M696 1450q-63 0 -108 46t-45 108q0 63 45 108t108 45t108.5 -45t45.5 -108q0 -62 -45.5 -108t-108.5 -46zM696 1528q29 0 50.5 22.5t21.5 53.5q0 32 -21.5 54.5t-50.5 22.5t-50 -22.5t-21 -54.5q0 -31 21 -53.5t50 -22.5zM1227 522q0 -252 -141 -397t-386 -145
q-249 0 -392.5 145t-143.5 397v537l-6 354h200l-6 -354v-520q0 -192 90 -296t256 -104q164 0 252 104t88 296v520l-6 354h201l-6 -354v-537z" />
    <glyph glyph-name="uring" unicode="&#x16f;" horiz-adv-x="1105" 
d="M549 1126q-63 0 -108.5 46t-45.5 108q0 63 45.5 108.5t108.5 45.5t108 -45.5t45 -108.5q0 -62 -45 -108t-108 -46zM549 1204q29 0 50.5 22.5t21.5 53.5q0 32 -21.5 55t-50.5 23t-50.5 -23t-21.5 -55q0 -31 21.5 -53.5t50.5 -22.5zM776 129q-39 -76 -115.5 -114
t-175.5 -38q-163 0 -256.5 108t-93.5 296v291l-6 366h195l-7 -366l-2 -277q2 -134 51 -206t140 -72q132 0 202.5 92t69.5 262l-2 201l-6 366h193l-7 -366v-320l5 -352h-181l6 129h-10z" />
    <glyph glyph-name="Uhungarumlaut" unicode="&#x170;" horiz-adv-x="1390" 
d="M819 1688l-293 -177h-159l202 177h250zM1241 1688l-293 -177h-160l203 177h250zM1227 522q0 -252 -141 -397t-386 -145q-249 0 -392.5 145t-143.5 397v537l-6 354h200l-6 -354v-520q0 -192 90 -296t256 -104q164 0 252 104t88 296v520l-6 354h201l-6 -354v-537z" />
    <glyph glyph-name="uhungarumlaut" unicode="&#x171;" horiz-adv-x="1105" 
d="M698 1405l-288 -223h-134l183 223h239zM1073 1405l-289 -223h-133l183 223h239zM776 129q-39 -76 -115.5 -114t-175.5 -38q-163 0 -256.5 108t-93.5 296v291l-6 366h195l-7 -366l-2 -277q2 -134 51 -206t140 -72q132 0 202.5 92t69.5 262l-2 201l-6 366h193l-7 -366v-320
l5 -352h-181l6 129h-10z" />
    <glyph glyph-name="Uogonek" unicode="&#x172;" horiz-adv-x="1390" 
d="M786 -309q-43 -24 -112.5 -42t-130.5 -18q-92 0 -143.5 37.5t-51.5 100.5t42.5 118.5t139.5 112.5q-173 45 -269.5 181.5t-96.5 340.5v537l-6 354h200l-6 -354v-520q0 -192 90 -296t256 -104q164 0 252 104t88 296v520l-6 354h201l-6 -354v-537q0 -251 -139.5 -396.5
t-376.5 -145.5q-108 -44 -145.5 -78t-37.5 -72q0 -59 97 -59q29 0 78.5 13t82.5 28v-121z" />
    <glyph glyph-name="uogonek" unicode="&#x173;" horiz-adv-x="1105" 
d="M776 129q-39 -76 -115.5 -114t-175.5 -38q-163 0 -256.5 108t-93.5 296v291l-6 366h195l-7 -366l-2 -277q2 -134 51 -206t140 -72q132 0 202.5 92t69.5 262l-2 201l-6 366h193l-7 -366v-320l5 -274l10 -55l-10 -5v-18h-46q-107 -44 -144.5 -78t-37.5 -72q0 -59 96 -59
q29 0 79 13t83 28v-121q-43 -23 -112.5 -41t-130.5 -18q-92 0 -143.5 37t-51.5 100q0 69 53.5 131t175.5 127l4 82h-10z" />
    <glyph glyph-name="Wcircumflex" unicode="&#x174;" horiz-adv-x="1822" 
d="M805 1511h-191l207 177h178l207 -177h-190l-107 78zM635 0h-195l-290 1061l-107 352h225l80 -352l203 -785h4l303 785l-115 352h193l135 -475l199 -662h6l203 785l80 352h221l-107 -352l-289 -1061h-198l-252 842h-4z" />
    <glyph glyph-name="wcircumflex" unicode="&#x175;" horiz-adv-x="1484" 
d="M606 1190h-153l206 223h160l207 -223h-154l-133 131zM547 0h-176l-213 672l-117 366h199l104 -366l125 -420h6l197 469l-105 317l191 -2l96 -317l152 -459h4l129 412l110 366h203l-127 -366l-213 -672h-178l-172 504h-4z" />
    <glyph glyph-name="Ycircumflex" unicode="&#x176;" 
d="M502 1511h-191l207 177h178l207 -177h-190l-107 78zM715 0h-201l6 352v103l-301 608l-182 350h227l166 -350l182 -381h4l181 379l168 352h227l-184 -354l-299 -604v-103z" />
    <glyph glyph-name="ycircumflex" unicode="&#x177;" horiz-adv-x="1017" 
d="M375 1190h-154l207 223h160l207 -223h-154l-133 131zM473 -369h-194l143 369l-248 672l-141 366h203l129 -366l145 -420h4l141 420l129 366h205l-143 -364z" />
    <glyph glyph-name="Ydieresis" unicode="&#x178;" 
d="M702 1513v173h193v-173h-193zM319 1513v173h191v-173h-191zM715 0h-201l6 352v103l-301 608l-182 350h227l166 -350l182 -381h4l181 379l168 352h227l-184 -354l-299 -604v-103z" />
    <glyph glyph-name="Zacute" unicode="&#x179;" horiz-adv-x="1165" 
d="M954 1688l-292 -177h-160l203 177h249zM1094 0h-1049v145l793 1102v6h-717v160h969v-141l-785 -1106v-6h789v-160z" />
    <glyph glyph-name="zacute" unicode="&#x17a;" horiz-adv-x="882" 
d="M768 1413l-289 -223h-133l182 223h240zM827 0h-774v125l531 780v4l-494 -4v133h709v-127l-523 -776v-4l551 2v-133z" />
    <glyph glyph-name="Zdotaccent" unicode="&#x17b;" horiz-adv-x="1165" 
d="M500 1516v172h190v-172h-190zM1094 0h-1049v145l793 1102v6h-717v160h969v-141l-785 -1106v-6h789v-160z" />
    <glyph glyph-name="zdotaccent" unicode="&#x17c;" horiz-adv-x="882" 
d="M338 1223v190h190v-190h-190zM827 0h-774v125l531 780v4l-494 -4v133h709v-127l-523 -776v-4l551 2v-133z" />
    <glyph glyph-name="Zcaron" unicode="&#x17d;" horiz-adv-x="1165" 
d="M489 1688l105 -78l106 78h191l-207 -177h-178l-207 177h190zM1094 0h-1049v145l793 1102v6h-717v160h969v-141l-785 -1106v-6h789v-160z" />
    <glyph glyph-name="zcaron" unicode="&#x17e;" horiz-adv-x="882" 
d="M289 1411l133 -131l133 131h154l-207 -223h-160l-207 223h154zM827 0h-774v125l531 780v4l-494 -4v133h709v-127l-523 -776v-4l551 2v-133z" />
    <glyph glyph-name="Schwa" unicode="&#x18f;" horiz-adv-x="1411" 
d="M98 895q26 251 182 395t400 144q295 0 466 -196.5t171 -535.5q0 -334 -171 -528t-466 -194q-272 0 -429 204t-157 557h1028q-9 248 -127.5 390.5t-314.5 142.5q-161 0 -264.5 -102t-122.5 -277h-195zM682 139q187 0 298 113.5t136 329.5h-813q26 -215 123.5 -329
t255.5 -114z" />
    <glyph glyph-name="florin" unicode="&#x192;" horiz-adv-x="915" 
d="M29 -109q68 0 111 36.5t55 103.5l151 868h-158l25 139h158l22 119q22 128 111.5 202.5t222.5 74.5q59 0 125 -17l-23 -133q-52 10 -94 10q-68 0 -111 -36t-55 -103l-20 -117h237l-24 -139h-238l-153 -874q-22 -127 -111 -200t-223 -73q-59 0 -125 17l22 133
q57 -11 95 -11z" />
    <glyph glyph-name="Acaron" unicode="&#x1cd;" horiz-adv-x="1320" 
d="M553 1688l104 -78l107 78h190l-206 -177h-179l-207 177h191zM248 0h-215l137 352l379 1061h225l375 -1061l137 -352h-215l-121 352l-4 15h-573l-4 -15zM655 1206l-221 -678h451l-221 678h-9z" />
    <glyph glyph-name="acaron" unicode="&#x1ce;" horiz-adv-x="1083" 
d="M393 1411l133 -131l133 131h154l-207 -223h-160l-206 223h153zM752 131q-100 -151 -359 -151q-64 0 -120 16.5t-101.5 49.5t-71.5 87.5t-26 124.5q0 174 175.5 266t504.5 101v102q0 98 -56 145.5t-178 47.5q-112 0 -170.5 -62.5t-58.5 -150.5h-180q0 72 24 131t64.5 99.5
t95.5 68.5t116 40.5t126 12.5q195 0 295 -82.5t100 -237.5v-559q0 -29 15.5 -45t43.5 -16q33 0 68 18v-139q-47 -18 -133 -18q-75 0 -121.5 35t-46.5 98v18h-6zM254 272q0 -70 48.5 -111.5t139.5 -41.5q145 0 227.5 77t82.5 220v78q-238 0 -368 -57t-130 -165z" />
    <glyph glyph-name="Icaron" unicode="&#x1cf;" horiz-adv-x="548" 
d="M170 1688l104 -78l107 78h190l-206 -177h-179l-206 177h190zM375 0h-201l6 352v709l-6 352h201l-6 -352v-709z" />
    <glyph glyph-name="icaron" unicode="&#x1d0;" horiz-adv-x="485" 
d="M100 1411l133 -131l134 131h153l-207 -223h-159l-207 223h153zM338 0h-191l7 352v320l-7 366h191l-6 -366v-320z" />
    <glyph glyph-name="Ucaron" unicode="&#x1d3;" horiz-adv-x="1390" 
d="M592 1688l104 -78l107 78h190l-207 -177h-178l-207 177h191zM1227 522q0 -252 -141 -397t-386 -145q-249 0 -392.5 145t-143.5 397v537l-6 354h200l-6 -354v-520q0 -192 90 -296t256 -104q164 0 252 104t88 296v520l-6 354h201l-6 -354v-537z" />
    <glyph glyph-name="ucaron" unicode="&#x1d4;" horiz-adv-x="1105" 
d="M406 1411l133 -131l133 131h153l-207 -223h-159l-207 223h154zM776 129q-39 -76 -115.5 -114t-175.5 -38q-163 0 -256.5 108t-93.5 296v291l-6 366h195l-7 -366l-2 -277q2 -134 51 -206t140 -72q132 0 202.5 92t69.5 262l-2 201l-6 366h193l-7 -366v-320l5 -352h-181
l6 129h-10z" />
    <glyph glyph-name="Aringacute" unicode="&#x1fa;" horiz-adv-x="1320" 
d="M248 0h-215l137 352l373 1043q-35 41 -35 94q0 57 38 100.5t95 50.5l119 105h250l-242 -146q47 -47 47 -110q0 -53 -35 -94l369 -1043l137 -352h-215l-121 352l-4 15h-573l-4 -15zM662 1413q29 0 50 22.5t21 53.5q0 32 -21 55t-50 23t-50.5 -23t-21.5 -55
q0 -31 21.5 -53.5t50.5 -22.5zM655 1206l-221 -678h451l-221 678h-9z" />
    <glyph glyph-name="aringacute" unicode="&#x1fb;" horiz-adv-x="1083" 
d="M537 1126q-63 0 -108.5 46t-45.5 108q0 55 35 98t88 52l127 155h239l-239 -186q57 -44 57 -119q0 -62 -45 -108t-108 -46zM537 1204q29 0 50 22.5t21 53.5q0 32 -21 55t-50 23t-50.5 -23t-21.5 -55q0 -31 21.5 -53.5t50.5 -22.5zM752 131q-100 -151 -359 -151
q-64 0 -120 16.5t-101.5 49.5t-71.5 87.5t-26 124.5q0 174 175.5 266t504.5 101v102q0 98 -56 145.5t-178 47.5q-112 0 -170.5 -62.5t-58.5 -150.5h-180q0 72 24 131t64.5 99.5t95.5 68.5t116 40.5t126 12.5q195 0 295 -82.5t100 -237.5v-559q0 -29 15.5 -45t43.5 -16
q33 0 68 18v-139q-47 -18 -133 -18q-75 0 -121.5 35t-46.5 98v18h-6zM254 272q0 -70 48.5 -111.5t139.5 -41.5q145 0 227.5 77t82.5 220v78q-238 0 -368 -57t-130 -165z" />
    <glyph glyph-name="AEacute" unicode="&#x1fc;" horiz-adv-x="1869" 
d="M1438 1688l-293 -177h-160l203 177h250zM203 0h-234l183 309l608 1104h995v-160h-682v-438h653v-160h-653v-495h703v-160h-893l6 352v15h-496l-8 -17zM879 1251l-390 -723h400v723h-10z" />
    <glyph glyph-name="aeacute" unicode="&#x1fd;" horiz-adv-x="1753" 
d="M1214 1413l-288 -223h-133l182 223h239zM807 213q-109 -233 -414 -233q-64 0 -120 16.5t-101.5 49.5t-71.5 87.5t-26 124.5q0 185 177 287.5t503 111.5v70q0 92 -61 142.5t-173 50.5q-110 0 -169.5 -55t-59.5 -158h-180q0 72 24 131t64.5 99.5t95.5 68.5t116 40.5
t126 12.5q255 0 342 -137h2q114 141 342 141q206 0 325 -129t119 -363v-73h-731q-6 -183 68 -281t219 -98q103 0 170 59.5t90 171.5h180q-22 -178 -137 -274t-307 -96q-148 0 -253 61.5t-149 173.5zM1225 930q-118 0 -192 -76t-93 -217h547q-6 141 -74 217t-188 76zM254 272
q0 -70 48.5 -111.5t139.5 -41.5q140 0 225 95.5t85 242.5v69q-235 0 -366.5 -67.5t-131.5 -186.5z" />
    <glyph glyph-name="Oslashacute" unicode="&#x1fe;" horiz-adv-x="1603" 
d="M1176 1688l-293 -177h-160l203 177h250zM1466 715q0 -156 -41.5 -288.5t-120.5 -232.5t-204.5 -157t-284.5 -57q-267 0 -436 159l-156 -168h-203l265 283q-121 192 -121 463q0 147 41.5 275.5t121 227.5t205.5 156.5t283 57.5q260 0 428 -152l139 148h201l-242 -261
q125 -186 125 -454zM358 711q0 -176 62 -312l698 748q-120 127 -303 127q-109 0 -197 -47t-144 -126t-86 -179t-30 -211zM1272 709q0 174 -68 313l-700 -750q121 -131 311 -131q146 0 251 77.5t155.5 204t50.5 286.5z" />
    <glyph glyph-name="oslashacute" unicode="&#x1ff;" horiz-adv-x="1169" 
d="M928 1413l-289 -223h-133l182 223h240zM1063 518q0 -250 -126.5 -394t-346.5 -144q-170 0 -289 92l-61 -74h-191l154 184q-84 131 -84 336q0 249 126.5 395t344.5 146q162 0 276 -82l52 59h192l-139 -168q92 -140 92 -350zM299 520q0 -109 25 -192l444 530
q-71 62 -178 62q-139 0 -215 -104.5t-76 -295.5zM883 520q0 118 -31 209l-451 -539q71 -71 189 -71q141 0 217 104t76 297z" />
    <glyph glyph-name="Scommaaccent" unicode="&#x218;" horiz-adv-x="1263" 
d="M1188 393q0 -192 -149.5 -304t-395.5 -112q-270 0 -421.5 134t-151.5 370h194q0 -166 98.5 -255t290.5 -89q169 0 256.5 70.5t87.5 181.5q0 40 -17.5 72t-46 54.5t-76.5 42t-96 32.5t-118 28q-63 13 -113 26.5t-105 33.5t-97 43t-81 55t-64.5 69t-40.5 86.5t-15 106.5
q0 187 132 291.5t362 104.5q234 0 373.5 -118.5t146.5 -326.5h-195q-3 133 -88.5 211t-236.5 78q-143 0 -223.5 -60t-80.5 -171q0 -54 25.5 -97t55 -68t95.5 -49.5t101 -33.5t117 -27q5 -1 8 -2q95 -21 162 -42.5t128.5 -52.5t98.5 -69t58.5 -91.5t21.5 -121.5zM455 -371
l102 330h174l-137 -330h-139z" />
    <glyph glyph-name="scommaaccent" unicode="&#x219;" horiz-adv-x="1005" 
d="M936 299q0 -148 -114 -233.5t-312 -85.5q-205 0 -324.5 100t-119.5 272h180q0 -111 68.5 -172t187.5 -61q125 0 189.5 46.5t64.5 133.5q0 40 -22.5 68.5t-61 44.5t-88 27.5t-104.5 21t-109.5 21.5t-103.5 33t-86.5 51t-59 80t-19.5 116q3 128 116.5 212.5t291.5 84.5
q188 0 288.5 -90t100.5 -250h-180q0 97 -57.5 149t-163.5 52q-99 0 -157 -42t-58 -118q0 -43 28 -73t74 -44.5t104.5 -28.5t120 -24t120 -31.5t104.5 -50.5t74 -82.5t28 -126.5zM313 -371l103 330h174l-137 -330h-140z" />
    <glyph glyph-name="Tcommaaccent" unicode="&#x21a;" horiz-adv-x="1112" 
d="M662 0h-209l10 352v903h-430v160h1046v-160h-428v-903zM362 -371l103 330h174l-137 -330h-140z" />
    <glyph glyph-name="tcommaaccent" unicode="&#x21b;" horiz-adv-x="712" 
d="M684 2q-113 -22 -219 -22q-135 0 -208 79.5t-73 227.5v612h-143v139h143l-6 246h193l-6 -246h319v-139h-319v-598q0 -94 33.5 -137t105.5 -43q96 0 180 24v-143zM266 -371l103 330h174l-137 -330h-140z" />
    <glyph glyph-name="Ymacron" unicode="&#x232;" 
d="M313 1536v119h574v-119h-574zM715 0h-201l6 352v103l-301 608l-182 350h227l166 -350l182 -381h4l181 379l168 352h227l-184 -354l-299 -604v-103z" />
    <glyph glyph-name="ymacron" unicode="&#x233;" horiz-adv-x="1017" 
d="M215 1241v119h573v-119h-573zM473 -369h-194l143 369l-248 672l-141 366h203l129 -366l145 -420h4l141 420l129 366h205l-143 -364z" />
    <glyph glyph-name="jdotless" unicode="&#x237;" horiz-adv-x="493" 
d="M340 -92q0 -128 -77 -202.5t-210 -74.5q-19 0 -39 4v140q16 -4 27 -4q58 0 89.5 37t31.5 106v758l-6 366h190l-6 -366v-764z" />
    <glyph glyph-name="schwa" unicode="&#x259;" horiz-adv-x="1081" 
d="M88 692q22 179 137 275t307 96q224 0 344.5 -138t120.5 -393q0 -266 -121.5 -409t-347.5 -143q-204 0 -319.5 127.5t-124.5 363.5v74h731q6 183 -68 281t-219 98q-103 0 -170 -60t-90 -172h-180zM526 113q118 0 192 76t93 217h-547q6 -141 74 -217t188 -76z" />
    <glyph glyph-name="circumflex" unicode="&#x2c6;" 
d="M481 1190h-153l207 223h159l207 -223h-153l-134 131z" />
    <glyph glyph-name="caron" unicode="&#x2c7;" 
d="M471 1411l133 -131l133 131h154l-207 -223h-160l-207 223h154z" />
    <glyph glyph-name="breve" unicode="&#x2d8;" 
d="M172 1413h129q4 -53 45.5 -81.5t106.5 -28.5t106 28.5t45 81.5h127q0 -107 -73.5 -165t-204.5 -58q-132 0 -206.5 58t-74.5 165z" />
    <glyph glyph-name="dotaccent" unicode="&#x2d9;" 
d="M408 1223v190h190v-190h-190z" />
    <glyph glyph-name="ring" unicode="&#x2da;" 
d="M496 1126q-63 0 -108.5 46t-45.5 108q0 63 45.5 108.5t108.5 45.5t108 -45.5t45 -108.5q0 -62 -45 -108t-108 -46zM496 1204q29 0 50 22.5t21 53.5q0 32 -21 55t-50 23t-50.5 -23t-21.5 -55q0 -31 21.5 -53.5t50.5 -22.5z" />
    <glyph glyph-name="ogonek" unicode="&#x2db;" 
d="M520 -309q-43 -23 -113 -41.5t-131 -18.5q-92 0 -143 37.5t-51 100.5q0 89 91 167t306 166l21 -100q-142 -54 -190 -92.5t-48 -79.5q0 -59 96 -59q29 0 79 13t83 28v-121z" />
    <glyph glyph-name="tilde" unicode="&#x2dc;" 
d="M281 1190h-103q0 217 174 217q39 0 74 -16.5t56.5 -35.5t47.5 -35.5t50 -16.5q69 0 69 110h103q0 -217 -164 -217q-35 0 -68.5 16t-55.5 36t-52.5 36t-59.5 16q-71 0 -71 -110z" />
    <glyph glyph-name="hungarumlaut" unicode="&#x2dd;" 
d="M645 1413l-289 -223h-133l183 223h239zM1020 1413l-289 -223h-133l182 223h240z" />
    <glyph glyph-name="gravecomb" unicode="&#x300;" horiz-adv-x="1132" 
d="M270 1413h240l182 -223h-133z" />
    <glyph glyph-name="acutecomb" unicode="&#x301;" horiz-adv-x="1132" 
d="M881 1413l-289 -223h-133l182 223h240z" />
    <glyph glyph-name="circumflexcomb" unicode="&#x302;" horiz-adv-x="880" 
d="M309 1190h-153l206 223h160l207 -223h-154l-133 131z" />
    <glyph glyph-name="tildecomb" unicode="&#x303;" horiz-adv-x="931" 
d="M281 1190h-103q0 217 174 217q39 0 74 -16.5t56.5 -35.5t47.5 -35.5t50 -16.5q69 0 69 110h103q0 -217 -164 -217q-35 0 -68.5 16t-55.5 36t-52.5 36t-59.5 16q-71 0 -71 -110z" />
    <glyph glyph-name="macroncomb" unicode="&#x304;" horiz-adv-x="929" 
d="M178 1251v119h574v-119h-574z" />
    <glyph glyph-name="brevecomb" unicode="&#x306;" horiz-adv-x="903" 
d="M172 1413h129q4 -53 45.5 -81.5t106.5 -28.5t106 28.5t45 81.5h127q0 -107 -73.5 -165t-204.5 -58q-132 0 -206.5 58t-74.5 165z" />
    <glyph glyph-name="dotaccentcomb" unicode="&#x307;" horiz-adv-x="1005" 
d="M408 1223v190h190v-190h-190z" />
    <glyph glyph-name="dieresiscomb" unicode="&#x308;" horiz-adv-x="1005" 
d="M598 1223v190h193v-190h-193zM215 1223v190h191v-190h-191z" />
    <glyph glyph-name="ringcomb" unicode="&#x30a;" horiz-adv-x="993" 
d="M496 1126q-63 0 -108.5 46t-45.5 108q0 63 45.5 108.5t108.5 45.5t108 -45.5t45 -108.5q0 -62 -45 -108t-108 -46zM496 1204q29 0 50 22.5t21 53.5q0 32 -21 55t-50 23t-50.5 -23t-21.5 -55q0 -31 21.5 -53.5t50.5 -22.5z" />
    <glyph glyph-name="hungarumlautcomb" unicode="&#x30b;" horiz-adv-x="1216" 
d="M645 1413l-289 -223h-133l183 223h239zM1020 1413l-289 -223h-133l182 223h240z" />
    <glyph glyph-name="caroncomb" unicode="&#x30c;" horiz-adv-x="907" 
d="M309 1411l133 -131l133 131h154l-207 -223h-160l-206 223h153z" />
    <glyph glyph-name="commaturnedabovecomb" unicode="&#x312;" horiz-adv-x="579" 
d="M459 1413l-103 -330h-174l137 330h140z" />
    <glyph glyph-name="commaaboverightcomb" unicode="&#x315;" horiz-adv-x="579" 
d="M199 1083l102 330h174l-137 -330h-139z" />
    <glyph glyph-name="commaaccentcomb" unicode="&#x326;" horiz-adv-x="546" 
d="M86 -371l102 330h174l-137 -330h-139z" />
    <glyph glyph-name="cedillacomb" unicode="&#x327;" horiz-adv-x="761" 
d="M340 -369q-67 0 -116.5 33t-49.5 82h109q0 -15 16.5 -26t40.5 -11q25 0 41 17t16 43q0 29 -22 48t-56 19h-83l36 205h107l-23 -129q72 0 110 -39.5t38 -103.5q0 -61 -42.5 -99.5t-121.5 -38.5z" />
    <glyph glyph-name="ogonekcomb" unicode="&#x328;" horiz-adv-x="643" 
d="M520 -309q-43 -23 -113 -41.5t-131 -18.5q-92 0 -143 37.5t-51 100.5q0 89 91 167t306 166l21 -100q-142 -54 -190 -92.5t-48 -79.5q0 -59 96 -59q29 0 79 13t83 28v-121z" />
    <glyph glyph-name="strokeshortcomb" unicode="&#x335;" horiz-adv-x="663" 
d="M643 1298v-139h-643v139h643z" />
    <glyph glyph-name="strokelongcomb" unicode="&#x336;" horiz-adv-x="1271" 
d="M1231 1298v-139h-1190v139h1190z" />
    <glyph glyph-name="slashshortcomb" unicode="&#x337;" horiz-adv-x="1198" 
d="M1118 1038l-870 -1038h-191l869 1038h192z" />
    <glyph glyph-name="slashlongcomb" unicode="&#x338;" horiz-adv-x="1562" 
d="M1563 1436l-1360 -1459h-203l1362 1459h201z" />
    <glyph glyph-name="Delta" unicode="&#x394;" horiz-adv-x="1339" 
d="M55 168l523 1245h184l522 -1245v-143h-1229v143zM1104 164l-434 1110l-434 -1110h868z" />
    <glyph glyph-name="Omega" unicode="&#x3a9;" horiz-adv-x="1576" 
d="M424 160q-138 66 -212.5 206.5t-74.5 350.5q0 147 41.5 275.5t121 227.5t205.5 156.5t283 57.5t283 -57.5t205.5 -156.5t121.5 -227.5t42 -275.5q0 -210 -74.5 -350.5t-212.5 -206.5h125l197 6v-172l-197 6h-408v160q107 0 193 72t134 198t48 281q0 111 -30 211t-86 179
t-144 126t-197 47t-197 -47t-143.5 -126t-85.5 -179t-30 -211q0 -155 48 -281t134 -198t193 -72v-160h-408l-197 -6v172l197 -6h125z" />
    <glyph glyph-name="mu" unicode="&#x3bc;" horiz-adv-x="1196" 
d="M147 672l-6 366h193l-6 -366l-2 -201q-1 -170 69.5 -262t202.5 -92t202.5 92t69.5 262l-2 201l-6 366h193l-6 -366v-365l4 -307h-181l7 129h-11q-35 -70 -108 -111t-162 -41t-162 41t-108 111h-11l7 -498h-181l4 308v733z" />
    <glyph glyph-name="pi" unicode="&#x3c0;" horiz-adv-x="1392" 
d="M41 1038h1274v-178h-223l-5 -188v-410q0 -69 31.5 -106t89.5 -37q48 0 107 24v-139q-60 -24 -119 -24q-134 0 -210.5 79t-76.5 217v396l-4 188h-454l-5 -188v-305l7 -367h-191l6 367v305l-4 188h-223v178z" />
    <glyph glyph-name="Wgrave" unicode="&#x1e80;" horiz-adv-x="1822" 
d="M547 1688h250l202 -177h-159zM635 0h-195l-290 1061l-107 352h225l80 -352l203 -785h4l303 785l-115 352h193l135 -475l199 -662h6l203 785l80 352h221l-107 -352l-289 -1061h-198l-252 842h-4z" />
    <glyph glyph-name="wgrave" unicode="&#x1e81;" horiz-adv-x="1484" 
d="M430 1413h240l182 -223h-133zM547 0h-176l-213 672l-117 366h199l104 -366l125 -420h6l197 469l-105 317l191 -2l96 -317l152 -459h4l129 412l110 366h203l-127 -366l-213 -672h-178l-172 504h-4z" />
    <glyph glyph-name="Wacute" unicode="&#x1e82;" horiz-adv-x="1822" 
d="M1270 1688l-293 -177h-160l203 177h250zM635 0h-195l-290 1061l-107 352h225l80 -352l203 -785h4l303 785l-115 352h193l135 -475l199 -662h6l203 785l80 352h221l-107 -352l-289 -1061h-198l-252 842h-4z" />
    <glyph glyph-name="wacute" unicode="&#x1e83;" horiz-adv-x="1484" 
d="M1071 1413l-289 -223h-133l182 223h240zM547 0h-176l-213 672l-117 366h199l104 -366l125 -420h6l197 469l-105 317l191 -2l96 -317l152 -459h4l129 412l110 366h203l-127 -366l-213 -672h-178l-172 504h-4z" />
    <glyph glyph-name="Wdieresis" unicode="&#x1e84;" horiz-adv-x="1822" 
d="M1006 1513v173h192v-173h-192zM623 1513v173h190v-173h-190zM635 0h-195l-290 1061l-107 352h225l80 -352l203 -785h4l303 785l-115 352h193l135 -475l199 -662h6l203 785l80 352h221l-107 -352l-289 -1061h-198l-252 842h-4z" />
    <glyph glyph-name="wdieresis" unicode="&#x1e85;" horiz-adv-x="1484" 
d="M836 1223v190h192v-190h-192zM453 1223v190h190v-190h-190zM547 0h-176l-213 672l-117 366h199l104 -366l125 -420h6l197 469l-105 317l191 -2l96 -317l152 -459h4l129 412l110 366h203l-127 -366l-213 -672h-178l-172 504h-4z" />
    <glyph glyph-name="Germandbls" unicode="&#x1e9e;" horiz-adv-x="1398" 
d="M358 0h-198l6 352v643q0 204 142.5 320.5t402.5 116.5q152 0 286.5 -51.5t216.5 -139.5l-210 -448q142 -29 226.5 -140t84.5 -260q0 -192 -120 -302.5t-327 -110.5q-133 0 -217 24l11 158q64 -25 204 -25q123 0 189.5 67t66.5 191q0 128 -91.5 205.5t-254.5 77.5l234 524
q-137 70 -303 70q-177 0 -266 -70.5t-89 -202.5v-647z" />
    <glyph glyph-name="Ygrave" unicode="&#x1ef2;" 
d="M244 1688h250l202 -177h-159zM715 0h-201l6 352v103l-301 608l-182 350h227l166 -350l182 -381h4l181 379l168 352h227l-184 -354l-299 -604v-103z" />
    <glyph glyph-name="ygrave" unicode="&#x1ef3;" horiz-adv-x="1017" 
d="M199 1413h239l183 -223h-134zM473 -369h-194l143 369l-248 672l-141 366h203l129 -366l145 -420h4l141 420l129 366h205l-143 -364z" />
    <glyph glyph-name="endash" unicode="&#x2013;" horiz-adv-x="1128" 
d="M121 567v123h887v-123h-887z" />
    <glyph glyph-name="emdash" unicode="&#x2014;" horiz-adv-x="1613" 
d="M121 563v123h1372v-123h-1372z" />
    <glyph glyph-name="quoteleft" unicode="&#x2018;" horiz-adv-x="417" 
d="M330 979h-135l-144 434h187z" />
    <glyph glyph-name="quoteright" unicode="&#x2019;" horiz-adv-x="417" 
d="M88 979l92 434h187l-144 -434h-135z" />
    <glyph glyph-name="quotesinglbase" unicode="&#x201a;" horiz-adv-x="421" 
d="M41 -254l92 434h186l-143 -434h-135z" />
    <glyph glyph-name="quotedblleft" unicode="&#x201c;" horiz-adv-x="724" 
d="M330 979h-135l-144 434h187zM637 979h-135l-144 434h187z" />
    <glyph glyph-name="quotedblright" unicode="&#x201d;" horiz-adv-x="724" 
d="M395 979l92 434h187l-144 -434h-135zM88 979l92 434h187l-144 -434h-135z" />
    <glyph glyph-name="quotedblbase" unicode="&#x201e;" horiz-adv-x="729" 
d="M348 -254l92 434h187l-144 -434h-135zM41 -254l92 434h186l-143 -434h-135z" />
    <glyph glyph-name="dagger" unicode="&#x2020;" horiz-adv-x="999" 
d="M588 -248h-176l6 367v764l-367 -6v176l367 -6l-6 366h176l-6 -366l366 6v-176l-366 6v-764z" />
    <glyph glyph-name="daggerdbl" unicode="&#x2021;" horiz-adv-x="1110" 
d="M643 -248h-176l6 367l-367 -6v176l367 -6v600l-367 -6v176l367 -6l-6 366h176l-6 -366l367 6v-176l-367 6v-600l367 6v-176l-367 6z" />
    <glyph glyph-name="bullet" unicode="&#x2022;" horiz-adv-x="548" 
d="M274 528q-43 0 -73.5 31t-30.5 74t30.5 73.5t73.5 30.5t74 -30.5t31 -73.5t-31 -74t-74 -31z" />
    <glyph glyph-name="ellipsis" unicode="&#x2026;" horiz-adv-x="1064" 
d="M733 0v219h219v-219h-219zM424 0v219h219v-219h-219zM113 0v219h219v-219h-219z" />
    <glyph glyph-name="perthousand" unicode="&#x2030;" horiz-adv-x="2533" 
d="M397 580q-155 0 -246.5 116.5t-91.5 315.5q0 201 91.5 317.5t248.5 116.5t248.5 -116.5t91.5 -317.5q0 -200 -92 -316t-250 -116zM272 0l1055 1415h143l-1052 -1415h-146zM397 1337q-96 0 -149 -85t-53 -240q0 -156 53 -241t149 -85q97 0 152 85t55 241q0 154 -55 239.5
t-152 85.5zM1362 -14q-155 0 -246.5 116.5t-91.5 315.5q0 201 91.5 317.5t248.5 116.5t248.5 -116.5t91.5 -317.5q0 -200 -92 -316t-250 -116zM2132 -14q-155 0 -246.5 116.5t-91.5 315.5q0 201 91.5 317.5t248.5 116.5t248.5 -116.5t91.5 -317.5q0 -200 -92 -316t-250 -116
zM1362 743q-96 0 -149.5 -85t-53.5 -240q0 -156 53.5 -241t149.5 -85q97 0 152 85t55 241q0 154 -55 239.5t-152 85.5zM2132 743q-96 0 -149.5 -85t-53.5 -240q0 -156 53.5 -241t149.5 -85q97 0 152 85t55 241q0 154 -55 239.5t-152 85.5z" />
    <glyph glyph-name="guilsinglleft" unicode="&#x2039;" horiz-adv-x="716" 
d="M436 98l-391 424l391 422h201l-401 -422l401 -424h-201z" />
    <glyph glyph-name="guilsinglright" unicode="&#x203a;" horiz-adv-x="716" 
d="M281 98h-201l401 424l-401 422h201l391 -422z" />
    <glyph glyph-name="fraction" unicode="&#x2044;" horiz-adv-x="579" 
d="M-307 0l1055 1415h143l-1053 -1415h-145z" />
    <glyph glyph-name="zerosuperior" unicode="&#x2070;" horiz-adv-x="851" 
d="M424 791q-155 0 -246.5 116.5t-91.5 315.5q0 201 91.5 317.5t248.5 116.5t248.5 -116.5t91.5 -317.5q0 -200 -92 -316t-250 -116zM424 1548q-96 0 -149.5 -85t-53.5 -240q0 -156 53.5 -241t149.5 -85q97 0 152 85t55 241q0 154 -55 239.5t-152 85.5z" />
    <glyph glyph-name="foursuperior" unicode="&#x2074;" horiz-adv-x="851" 
d="M66 1008l2 108l409 522h176l-4 -221v-305h135v-104h-135v-37l4 -166h-131l4 166v37h-460zM193 1112h333v408z" />
    <glyph glyph-name="fivesuperior" unicode="&#x2075;" horiz-adv-x="851" 
d="M104 1036h136q-1 -64 48 -100.5t134 -36.5q92 0 143 50t51 138q0 89 -50 139t-142 50q-63 0 -108.5 -27t-59.5 -71h-121l31 460h528v-106h-418l-24 -242h4q27 44 84.5 67t126.5 23q130 0 205.5 -77t75.5 -211q0 -139 -86 -218t-240 -79q-144 0 -231 65t-87 176z" />
    <glyph glyph-name="sixsuperior" unicode="&#x2076;" horiz-adv-x="851" 
d="M172 909q-78 106 -78 297q0 203 88.5 325t261.5 122q129 0 207.5 -57t83.5 -154h-133q-6 48 -51 76t-109 28q-221 0 -225 -327h4q23 64 90 98.5t162 34.5q142 0 218.5 -74.5t76.5 -202.5q0 -126 -85 -203t-237 -77q-191 0 -274 114zM440 1251q-96 0 -146 -45.5
t-50 -132.5q0 -178 196 -178q94 0 143.5 45.5t49.5 132.5q0 86 -49.5 132t-143.5 46z" />
    <glyph glyph-name="sevensuperior" unicode="&#x2077;" horiz-adv-x="851" 
d="M100 1520v118h654v-102q-146 -230 -237 -394.5t-157 -336.5h-147q126 317 381 711v4h-494z" />
    <glyph glyph-name="eightsuperior" unicode="&#x2078;" horiz-adv-x="851" 
d="M293 1255q-81 17 -127.5 67.5t-46.5 119.5q0 99 82.5 157t226.5 58q142 0 223.5 -58t81.5 -157q0 -69 -46.5 -119.5t-125.5 -67.5v-4q95 -15 151 -74t56 -145q0 -110 -91 -173.5t-249 -63.5t-250 63.5t-92 173.5q0 84 55.5 143t151.5 76v4zM428 1554q-84 0 -130 -32
t-46 -92t46 -92.5t130 -32.5q80 0 126 33t46 92t-46 91.5t-126 32.5zM428 1198q-98 0 -152.5 -39.5t-54.5 -111.5t54 -111t153 -39q97 0 151 39t54 111t-54 111.5t-151 39.5z" />
    <glyph glyph-name="ninesuperior" unicode="&#x2079;" horiz-adv-x="851" 
d="M385 1098q-142 0 -221.5 72t-79.5 200t88.5 205.5t235.5 77.5q211 0 292 -148q33 -53 45.5 -128t12.5 -130q0 -218 -94 -335t-273 -117q-130 0 -206 59.5t-76 163.5h131q6 -57 48.5 -89t112.5 -32q67 0 114.5 27.5t72.5 77t36 105.5t11 124h-4q-20 -60 -83.5 -96.5
t-162.5 -36.5zM424 1552q-100 0 -152.5 -45.5t-52.5 -132.5q0 -86 52.5 -132t150.5 -46q87 0 136.5 44t49.5 126q0 91 -47.5 138.5t-136.5 47.5z" />
    <glyph glyph-name="zeroinferior" unicode="&#x2080;" horiz-adv-x="851" 
d="M424 -260q-155 0 -246.5 116.5t-91.5 315.5q0 201 91.5 317.5t248.5 116.5t248.5 -116.5t91.5 -317.5q0 -200 -92 -316t-250 -116zM424 498q-96 0 -149.5 -85.5t-53.5 -240.5q0 -156 53.5 -241t149.5 -85q97 0 152 85t55 241q0 155 -55 240.5t-152 85.5z" />
    <glyph glyph-name="oneinferior" unicode="&#x2081;" horiz-adv-x="851" 
d="M217 -246v140h221l2 67v481q-22 -16 -112 -64t-125 -63v119q50 27 137.5 78.5t116.5 75.5h118l-2 -221v-473h197v-140h-553z" />
    <glyph glyph-name="twoinferior" unicode="&#x2082;" horiz-adv-x="851" 
d="M252 305h-135q0 137 85.5 216t235.5 79q121 0 198 -61.5t77 -167.5q0 -60 -33 -112t-137 -150q-32 -30 -114 -111.5t-136 -132.5h457v-111h-644v72q61 61 157.5 154t129.5 126q121 121 154 167.5t33 93.5q0 62 -42 94.5t-110 32.5q-85 0 -130.5 -49t-45.5 -140z" />
    <glyph glyph-name="threeinferior" unicode="&#x2083;" horiz-adv-x="851" 
d="M424 600q140 0 220.5 -57t80.5 -156q0 -60 -50 -110.5t-128 -63.5v-4q97 -12 154 -69.5t57 -141.5q0 -119 -89 -187.5t-247 -68.5t-248 71t-90 193h133q0 -75 52.5 -116.5t150.5 -41.5q95 0 146.5 38.5t51.5 109.5q0 69 -61 107t-174 38h-51v103h41q103 0 159 34t56 97
q0 57 -43 88t-121 31q-83 0 -127.5 -39t-46.5 -111h-137q0 119 82.5 187.5t228.5 68.5z" />
    <glyph glyph-name="fourinferior" unicode="&#x2084;" horiz-adv-x="851" 
d="M66 -43l2 109l409 522h176l-4 -221v-306h135v-104h-135v-37l4 -166h-131l4 166v37h-460zM193 61h333v408z" />
    <glyph glyph-name="fiveinferior" unicode="&#x2085;" horiz-adv-x="851" 
d="M104 -14h136q-1 -64 48 -101t134 -37q92 0 143 50.5t51 138.5t-50 138t-142 50q-63 0 -108.5 -27t-59.5 -71h-121l31 461h528v-107h-418l-24 -241h4q27 44 84.5 67t126.5 23q130 0 205.5 -77.5t75.5 -211.5q0 -139 -86 -218t-240 -79q-144 0 -231 65t-87 177z" />
    <glyph glyph-name="sixinferior" unicode="&#x2086;" horiz-adv-x="851" 
d="M172 -141q-78 106 -78 297q0 203 88.5 324.5t261.5 121.5q129 0 207.5 -57t83.5 -154h-133q-6 48 -51.5 76.5t-108.5 28.5q-221 0 -225 -328h4q23 64 90 98.5t162 34.5q142 0 218.5 -74t76.5 -202q0 -126 -85 -203.5t-237 -77.5q-190 0 -274 115zM440 201
q-96 0 -146 -45.5t-50 -132.5q0 -88 49.5 -133.5t146.5 -45.5q94 0 143.5 45.5t49.5 133.5q0 86 -49.5 132t-143.5 46z" />
    <glyph glyph-name="seveninferior" unicode="&#x2087;" horiz-adv-x="851" 
d="M98 469v119h654v-103q-146 -230 -237 -394.5t-157 -336.5h-147q126 317 381 711v4h-494z" />
    <glyph glyph-name="eightinferior" unicode="&#x2088;" horiz-adv-x="851" 
d="M293 205q-81 17 -127.5 67t-46.5 119q0 99 82.5 157t226.5 58q142 0 223.5 -58t81.5 -157q0 -69 -46 -119t-126 -67v-4q95 -15 151 -74t56 -145q0 -110 -91 -174t-249 -64t-250 64t-92 174q0 84 55.5 143t151.5 76v4zM428 504q-84 0 -130 -32.5t-46 -92.5t46 -92.5
t130 -32.5q80 0 126 33t46 92t-46 92t-126 33zM428 147q-98 0 -152.5 -39.5t-54.5 -111.5t54 -111t153 -39q97 0 151 39t54 111t-54 111.5t-151 39.5z" />
    <glyph glyph-name="nineinferior" unicode="&#x2089;" horiz-adv-x="851" 
d="M385 47q-142 0 -221.5 72t-79.5 200t88.5 205.5t235.5 77.5q211 0 292 -147q33 -53 45.5 -128t12.5 -130q0 -218 -94 -335.5t-273 -117.5q-130 0 -206 59.5t-76 163.5h131q6 -57 48.5 -89t112.5 -32q67 0 114.5 27.5t72.5 77t36 105.5t11 124h-4q-20 -60 -83.5 -96.5
t-162.5 -36.5zM424 502q-100 0 -152.5 -45.5t-52.5 -132.5q0 -86 52.5 -132.5t150.5 -46.5q87 0 136.5 44t49.5 126q0 91 -47.5 139t-136.5 48z" />
    <glyph glyph-name="euro" unicode="&#x20ac;" horiz-adv-x="1552" 
d="M958 778h-882v137h186q18 111 68.5 205t126.5 164t182.5 110t230.5 40q265 0 417.5 -141t168.5 -369l-201 -2q-23 167 -117.5 259.5t-269.5 92.5q-163 0 -269.5 -98t-139.5 -261h499v-137zM76 641h882v-135h-499q36 -173 145.5 -270t278.5 -97q170 0 264 99.5t115 279.5
h200q-27 -247 -178.5 -392.5t-392.5 -145.5q-261 0 -421.5 143t-205.5 383h-188v135z" />
    <glyph glyph-name="numero" unicode="&#x2116;" horiz-adv-x="2160" 
d="M2071 1108q0 -149 -86.5 -235.5t-237.5 -86.5q-149 0 -235.5 86.5t-86.5 235.5q0 151 86.5 238.5t235.5 87.5q151 0 237.5 -87.5t86.5 -238.5zM375 0h-201l6 352v707l-6 354h203l577 -862l164 -242h8v750l-6 354h201l-6 -354v-707l6 -352h-195l-602 872l-151 232h-4v-752
zM1585 1110q0 -100 42 -154.5t120 -54.5t121 54.5t43 154.5t-43 154.5t-121 54.5t-120 -54.5t-42 -154.5zM1425 553v127h650v-127h-650z" />
    <glyph glyph-name="servicemark" unicode="&#x2120;" horiz-adv-x="1669" 
d="M662 901q0 -91 -76 -148t-199 -57q-132 0 -208.5 68.5t-76.5 187.5h119q0 -84 41.5 -129t116.5 -45q79 0 125.5 32t46.5 91q0 35 -24.5 58.5t-63.5 35.5t-86 21.5t-94 23.5t-86 35t-63.5 61t-24.5 97q0 94 74.5 147.5t203.5 53.5q115 0 181.5 -62.5t66.5 -169.5h-96
q0 73 -41.5 112.5t-118.5 39.5q-76 0 -118 -31t-42 -84q0 -37 33 -62t82 -36.5t106.5 -28.5t106.5 -37.5t82 -65t33 -108.5zM907 705h-125l6 163v392l-6 155h146l231 -563l227 563h146l-6 -162v-385l6 -163h-121l6 161v297l2 109l-213 -537h-104l-209 533l6 -105v-295z" />
    <glyph glyph-name="trademark" unicode="&#x2122;" horiz-adv-x="1693" 
d="M799 705l6 163v392l-6 155h145l232 -563l227 563h145l-6 -162v-385l6 -163h-121l7 161v297l2 109l-213 -537h-105l-209 533l6 -105v-295l9 -163h-125zM322 705l6 256l-4 358h-271v96h666v-96h-270l-5 -358l7 -256h-129z" />
    <glyph glyph-name="estimated" unicode="&#x212e;" horiz-adv-x="1146" 
d="M580 -20q-227 0 -356.5 139t-129.5 391q0 260 130.5 406.5t359.5 146.5q223 0 349.5 -119t135.5 -352v-74h-774v-397q111 -90 289 -90q126 0 229.5 58t159.5 175l45 -24q-64 -126 -177 -193t-261 -67zM295 913v-344h573v363q-101 80 -282 80q-184 0 -291 -99z" />
    <glyph glyph-name="oneseventh" unicode="&#x2150;" horiz-adv-x="1984" 
d="M219 594v139h221l2 68v481q-22 -16 -112 -64t-125 -63v119q198 107 254 153h119l-3 -221v-473h197v-139h-553zM422 0l1055 1415h143l-1053 -1415h-145zM1231 715v119h653v-103q-144 -228 -235.5 -393.5t-157.5 -337.5h-148q126 317 381 711v4h-493z" />
    <glyph glyph-name="oneninth" unicode="&#x2151;" horiz-adv-x="1923" 
d="M219 594v139h221l2 68v481q-22 -16 -112 -64t-125 -63v119q198 107 254 153h119l-3 -221v-473h197v-139h-553zM422 0l1055 1415h143l-1053 -1415h-145zM1456 293q-142 0 -221.5 72t-79.5 200t88.5 205.5t235.5 77.5q212 0 293 -148q57 -92 57 -258q0 -218 -94 -335
t-273 -117q-130 0 -206 59.5t-76 163.5h131q6 -57 49 -89t113 -32q54 0 95.5 19t67 50t42 75.5t22.5 90t6 99.5h-4q-20 -60 -83.5 -96.5t-162.5 -36.5zM1495 748q-100 0 -152.5 -45.5t-52.5 -133.5q0 -86 52.5 -132t150.5 -46q87 0 136.5 44t49.5 126q0 91 -47.5 139
t-136.5 48z" />
    <glyph glyph-name="onetenth" unicode="&#x2152;" horiz-adv-x="2566" 
d="M219 594v139h221l2 68v481q-22 -16 -112 -64t-125 -63v119q198 107 254 153h119l-3 -221v-473h197v-139h-553zM422 0l1055 1415h143l-1053 -1415h-145zM2138 -14q-155 0 -246.5 116.5t-91.5 315.5q0 201 91.5 317.5t248.5 116.5t248.5 -116.5t91.5 -317.5
q0 -200 -92 -316t-250 -116zM1260 0v139h221l2 68v481q-21 -16 -112 -64t-126 -63v119q50 27 137.5 78.5t116.5 75.5h119l-2 -222v-473h196v-139h-552zM2138 743q-96 0 -149.5 -85t-53.5 -240q0 -156 53.5 -241t149.5 -85q97 0 152 85t55 241q0 154 -55 239.5t-152 85.5z
" />
    <glyph glyph-name="onethird" unicode="&#x2153;" horiz-adv-x="1923" 
d="M219 594v139h221l2 68v481q-22 -16 -112 -64t-125 -63v119q198 107 254 153h119l-3 -221v-473h197v-139h-553zM422 0l1055 1415h143l-1053 -1415h-145zM1495 846q140 0 220.5 -57t80.5 -156q0 -60 -50 -110.5t-128 -63.5v-4q97 -12 154 -69.5t57 -141.5
q0 -119 -89 -187.5t-247 -68.5t-248 71t-90 193h133q0 -75 52.5 -116.5t150.5 -41.5q95 0 147 38.5t52 109.5q0 69 -61 107t-175 38h-51v102h41q103 0 159 34.5t56 97.5q0 57 -43 87.5t-121 30.5q-83 0 -127.5 -38.5t-46.5 -110.5h-137q0 119 82.5 187.5t228.5 68.5z" />
    <glyph glyph-name="twothirds" unicode="&#x2154;" horiz-adv-x="1923" 
d="M252 1145h-135q0 137 85.5 216t235.5 79q121 0 198 -62t77 -168q0 -60 -33 -112t-137 -150q-32 -30 -114 -111t-136 -132h457v-111h-644v72q61 61 157.5 154t129.5 126q121 121 154 167.5t33 92.5q0 62 -42 94.5t-110 32.5q-85 0 -130.5 -48.5t-45.5 -139.5zM422 0
l1055 1415h143l-1053 -1415h-145zM1495 846q140 0 220.5 -57t80.5 -156q0 -60 -50 -110.5t-128 -63.5v-4q97 -12 154 -69.5t57 -141.5q0 -119 -89 -187.5t-247 -68.5t-248 71t-90 193h133q0 -75 52.5 -116.5t150.5 -41.5q95 0 147 38.5t52 109.5q0 69 -61 107t-175 38h-51
v102h41q103 0 159 34.5t56 97.5q0 57 -43 87.5t-121 30.5q-83 0 -127.5 -38.5t-46.5 -110.5h-137q0 119 82.5 187.5t228.5 68.5z" />
    <glyph glyph-name="onefifth" unicode="&#x2155;" horiz-adv-x="1943" 
d="M217 594v139h221l2 68v481q-22 -16 -112 -64t-125 -63v119q198 107 254 153h118l-2 -221v-473h197v-139h-553zM422 0l1055 1415h143l-1053 -1415h-145zM1196 231h135q-1 -64 48 -100.5t134 -36.5q92 0 143.5 50.5t51.5 138.5t-50 138t-142 50q-63 0 -108.5 -27t-59.5 -71
h-121l30 461h529v-107h-418l-25 -242h5q27 44 84.5 67t126.5 23q130 0 205 -77t75 -211q0 -139 -86 -218t-240 -79q-144 0 -230.5 64.5t-86.5 176.5z" />
    <glyph glyph-name="twofifths" unicode="&#x2156;" horiz-adv-x="1943" 
d="M252 1145h-135q0 137 85.5 216t235.5 79q121 0 198 -62t77 -168q0 -60 -33 -112t-137 -150q-32 -30 -114 -111t-136 -132h457v-111h-644v72q61 61 157.5 154t129.5 126q121 121 154 167.5t33 92.5q0 62 -42 94.5t-110 32.5q-85 0 -130.5 -48.5t-45.5 -139.5zM422 0
l1055 1415h143l-1053 -1415h-145zM1196 231h135q-1 -64 48 -100.5t134 -36.5q92 0 143.5 50.5t51.5 138.5t-50 138t-142 50q-63 0 -108.5 -27t-59.5 -71h-121l30 461h529v-107h-418l-25 -242h5q27 44 84.5 67t126.5 23q130 0 205 -77t75 -211q0 -139 -86 -218t-240 -79
q-144 0 -230.5 64.5t-86.5 176.5z" />
    <glyph glyph-name="threefifths" unicode="&#x2157;" horiz-adv-x="1943" 
d="M424 1440q140 0 220.5 -57t80.5 -156q0 -60 -50 -110.5t-128 -63.5v-4q97 -12 154 -69.5t57 -141.5q0 -119 -89 -187.5t-247 -68.5t-248 71t-90 193h133q0 -75 52.5 -116.5t150.5 -41.5q95 0 146.5 38.5t51.5 109.5q0 69 -61 107t-174 38h-51v102h41q103 0 159 34t56 97
q0 57 -43 88t-121 31q-83 0 -127.5 -38.5t-46.5 -110.5h-137q0 119 82.5 187.5t228.5 68.5zM422 0l1055 1415h143l-1053 -1415h-145zM1196 231h135q-1 -64 48 -100.5t134 -36.5q92 0 143.5 50.5t51.5 138.5t-50 138t-142 50q-63 0 -108.5 -27t-59.5 -71h-121l30 461h529
v-107h-418l-25 -242h5q27 44 84.5 67t126.5 23q130 0 205 -77t75 -211q0 -139 -86 -218t-240 -79q-144 0 -230.5 64.5t-86.5 176.5z" />
    <glyph glyph-name="fourfifths" unicode="&#x2158;" horiz-adv-x="1943" 
d="M66 797l2 108l409 522h176l-4 -221v-305h135v-104h-135v-37l4 -166h-131l4 166v37h-460zM422 0l1055 1415h143l-1053 -1415h-145zM193 901h333v408zM1196 231h135q-1 -64 48 -100.5t134 -36.5q92 0 143.5 50.5t51.5 138.5t-50 138t-142 50q-63 0 -108.5 -27t-59.5 -71
h-121l30 461h529v-107h-418l-25 -242h5q27 44 84.5 67t126.5 23q130 0 205 -77t75 -211q0 -139 -86 -218t-240 -79q-144 0 -230.5 64.5t-86.5 176.5z" />
    <glyph glyph-name="onesixth" unicode="&#x2159;" horiz-adv-x="1923" 
d="M217 594v139h221l2 68v481q-22 -16 -112 -64t-125 -63v119q198 107 254 153h118l-2 -221v-473h197v-139h-553zM422 0l1055 1415h143l-1053 -1415h-145zM1243 104q-78 106 -78 297q0 203 89 325t262 122q129 0 207 -57t83 -154h-133q-6 48 -51 76t-109 28
q-221 0 -225 -327h4q23 64 90 98.5t162 34.5q142 0 218.5 -74.5t76.5 -202.5q0 -126 -84.5 -203t-236.5 -77q-89 0 -161.5 28.5t-113.5 85.5zM1511 446q-96 0 -146 -45.5t-50 -132.5q0 -178 196 -178q94 0 143.5 45.5t49.5 132.5q0 86 -49.5 132t-143.5 46z" />
    <glyph glyph-name="fivesixths" unicode="&#x215a;" horiz-adv-x="1923" 
d="M104 825h136q-1 -64 48 -100.5t134 -36.5q92 0 143 50.5t51 138.5t-50 138t-142 50q-63 0 -108.5 -27t-59.5 -71h-121l31 460h528v-106h-418l-24 -242h4q27 44 84.5 67t126.5 23q130 0 205.5 -77t75.5 -211q0 -139 -86 -218t-240 -79q-144 0 -231 65t-87 176zM422 0
l1055 1415h143l-1053 -1415h-145zM1243 104q-78 106 -78 297q0 203 89 325t262 122q129 0 207 -57t83 -154h-133q-6 48 -51 76t-109 28q-221 0 -225 -327h4q23 64 90 98.5t162 34.5q142 0 218.5 -74.5t76.5 -202.5q0 -126 -84.5 -203t-236.5 -77q-89 0 -161.5 28.5
t-113.5 85.5zM1511 446q-96 0 -146 -45.5t-50 -132.5q0 -178 196 -178q94 0 143.5 45.5t49.5 132.5q0 86 -49.5 132t-143.5 46z" />
    <glyph glyph-name="oneeighth" unicode="&#x215b;" horiz-adv-x="1923" 
d="M219 594v139h221l2 68v481q-22 -16 -112 -64t-125 -63v119q198 107 254 153h119l-3 -221v-473h197v-139h-553zM422 0l1055 1415h143l-1053 -1415h-145zM1364 451q-81 17 -127.5 67t-46.5 119q0 99 82.5 157t226.5 58q142 0 223.5 -58t81.5 -157q0 -69 -46 -119t-126 -67
v-5q95 -15 151 -74t56 -145q0 -110 -91 -173.5t-249 -63.5t-250 63.5t-92 173.5q0 84 55.5 143t151.5 76v5zM1499 750q-84 0 -130 -32.5t-46 -92.5t46 -92.5t130 -32.5q80 0 126 33t46 92t-46 92t-126 33zM1499 393q-98 0 -152.5 -39.5t-54.5 -111.5t54 -111t153 -39
q97 0 151 39t54 111t-54 111.5t-151 39.5z" />
    <glyph glyph-name="threeeighths" unicode="&#x215c;" horiz-adv-x="1923" 
d="M424 1440q140 0 220.5 -57t80.5 -156q0 -60 -50 -110.5t-128 -63.5v-4q97 -12 154 -69.5t57 -141.5q0 -119 -89 -187.5t-247 -68.5t-248 71t-90 193h133q0 -75 52.5 -116.5t150.5 -41.5q95 0 146.5 38.5t51.5 109.5q0 69 -61 107t-174 38h-51v102h41q103 0 159 34t56 97
q0 57 -43 88t-121 31q-83 0 -127.5 -38.5t-46.5 -110.5h-137q0 119 82.5 187.5t228.5 68.5zM360 0l1055 1415h144l-1053 -1415h-146zM1364 451q-81 17 -127.5 67t-46.5 119q0 99 82.5 157t226.5 58q142 0 223.5 -58t81.5 -157q0 -69 -46 -119t-126 -67v-5q95 -15 151 -74
t56 -145q0 -110 -91 -173.5t-249 -63.5t-250 63.5t-92 173.5q0 84 55.5 143t151.5 76v5zM1499 750q-84 0 -130 -32.5t-46 -92.5t46 -92.5t130 -32.5q80 0 126 33t46 92t-46 92t-126 33zM1499 393q-98 0 -152.5 -39.5t-54.5 -111.5t54 -111t153 -39q97 0 151 39t54 111
t-54 111.5t-151 39.5z" />
    <glyph glyph-name="fiveeighths" unicode="&#x215d;" horiz-adv-x="1923" 
d="M104 825h136q-1 -64 48 -100.5t134 -36.5q92 0 143 50.5t51 138.5t-50 138t-142 50q-63 0 -108.5 -27t-59.5 -71h-121l31 460h528v-106h-418l-24 -242h4q27 44 84.5 67t126.5 23q130 0 205.5 -77t75.5 -211q0 -139 -86 -218t-240 -79q-144 0 -231 65t-87 176zM360 0
l1055 1415h144l-1053 -1415h-146zM1364 451q-81 17 -127.5 67t-46.5 119q0 99 82.5 157t226.5 58q142 0 223.5 -58t81.5 -157q0 -69 -46 -119t-126 -67v-5q95 -15 151 -74t56 -145q0 -110 -91 -173.5t-249 -63.5t-250 63.5t-92 173.5q0 84 55.5 143t151.5 76v5zM1499 750
q-84 0 -130 -32.5t-46 -92.5t46 -92.5t130 -32.5q80 0 126 33t46 92t-46 92t-126 33zM1499 393q-98 0 -152.5 -39.5t-54.5 -111.5t54 -111t153 -39q97 0 151 39t54 111t-54 111.5t-151 39.5z" />
    <glyph glyph-name="seveneighths" unicode="&#x215e;" horiz-adv-x="1923" 
d="M98 1309v118h654v-102q-146 -230 -237 -394.5t-157 -336.5h-147q126 317 381 711v4h-494zM319 0l1055 1415h144l-1053 -1415h-146zM1364 451q-81 17 -127.5 67t-46.5 119q0 99 82.5 157t226.5 58q142 0 223.5 -58t81.5 -157q0 -69 -46 -119t-126 -67v-5q95 -15 151 -74
t56 -145q0 -110 -91 -173.5t-249 -63.5t-250 63.5t-92 173.5q0 84 55.5 143t151.5 76v5zM1499 750q-84 0 -130 -32.5t-46 -92.5t46 -92.5t130 -32.5q80 0 126 33t46 92t-46 92t-126 33zM1499 393q-98 0 -152.5 -39.5t-54.5 -111.5t54 -111t153 -39q97 0 151 39t54 111
t-54 111.5t-151 39.5z" />
    <glyph glyph-name="leftArrow" unicode="&#x2190;" horiz-adv-x="1525" 
d="M528 0l-483 522l487 522h201l-442 -452h1167v-139h-1167l438 -453h-201z" />
    <glyph glyph-name="upArrow" unicode="&#x2191;" horiz-adv-x="1153" 
d="M1100 745v-200l-453 438v-1167h-139v1167l-453 -442v200l523 488z" />
    <glyph glyph-name="rightArrow" unicode="&#x2192;" horiz-adv-x="1525" 
d="M997 0h-200l438 453h-1167v139h1167l-442 452h200l488 -522z" />
    <glyph glyph-name="downArrow" unicode="&#x2193;" horiz-adv-x="1155" 
d="M1100 299l-522 -483l-523 487v201l453 -443v1168h139v-1168l453 439v-201z" />
    <glyph glyph-name="leftRightArrow" unicode="&#x2194;" horiz-adv-x="2144" 
d="M528 0l-483 522l487 522h201l-442 -452h1562l-442 452h201l487 -522l-483 -522h-201l438 453h-1562l438 -453h-201z" />
    <glyph glyph-name="upDownArrow" unicode="&#x2195;" horiz-adv-x="1265" 
d="M111 -20v200l452 -438v1563l-452 -439v201l522 483l522 -487v-201l-453 443v-1563l453 442v-200l-522 -488z" />
    <glyph glyph-name="northWestArrow" unicode="&#x2196;" horiz-adv-x="1153" 
d="M788 1049l144 -142l-631 -10l825 -825l-98 -99l-825 826l-8 -633l-142 141l25 715z" />
    <glyph glyph-name="northEastArrow" unicode="&#x2197;" horiz-adv-x="1153" 
d="M1104 311l-141 -143l-11 631l-825 -826l-98 99l825 825l-633 8l141 142l715 -25z" />
    <glyph glyph-name="southEastArrow" unicode="&#x2198;" horiz-adv-x="1153" 
d="M371 -16l-144 141l631 10l-825 826l98 98l825 -826l9 633l141 -141l-25 -715z" />
    <glyph glyph-name="southWestArrow" unicode="&#x2199;" horiz-adv-x="1153" 
d="M43 717l141 143l11 -631l825 826l98 -99l-825 -825l633 -8l-142 -141l-714 24z" />
    <glyph glyph-name="partialdiff" unicode="&#x2202;" horiz-adv-x="1189" 
d="M1090 625q0 -298 -135.5 -470.5t-370.5 -172.5q-232 0 -367 127.5t-135 347.5q0 224 140.5 353.5t383.5 129.5q176 0 289 -104q-32 216 -128.5 337t-234.5 121q-151 0 -256 -90l-100 99q75 64 170.5 97.5t185.5 33.5q258 0 408 -217t150 -592zM262 457q0 -163 82 -249.5
t240 -86.5q148 0 234.5 126t90.5 353q-103 201 -303 201q-168 0 -256 -88t-88 -256z" />
    <glyph glyph-name="emptyset" unicode="&#x2205;" 
d="M1192 565q0 -157 -77.5 -290t-210 -210t-288.5 -77q-201 0 -356 123l-127 -127l-102 102l127 127q-119 158 -119 352q0 156 77 288.5t210 210t290 77.5q197 0 351 -119l131 131l102 -102l-131 -131q123 -155 123 -355zM223 565q0 -120 60 -227l567 567q-103 86 -234 86
q-163 0 -278 -124.5t-115 -301.5zM1008 565q0 124 -62 232l-569 -570q104 -90 239 -90q162 0 277 125t115 303z" />
    <glyph glyph-name="product" unicode="&#x220f;" horiz-adv-x="1425" 
d="M365 -248h-191l6 367v989l-4 305h1073l-4 -305v-989l6 -367h-190l6 367l-4 1116h-701l-4 -1116z" />
    <glyph glyph-name="summation" unicode="&#x2211;" horiz-adv-x="1079" 
d="M63 1253v160h951v-160h-754l498 -671l-496 -670h754v-160h-950v160l493 670z" />
    <glyph glyph-name="minus" unicode="&#x2212;" horiz-adv-x="1046" 
d="M98 543v141h850v-141h-850z" />
    <glyph glyph-name="radical" unicode="&#x221a;" horiz-adv-x="1175" 
d="M47 559l-49 152l100 32l181 60l325 -836h6l457 1446h115l-531 -1661h-133l-356 844z" />
    <glyph glyph-name="infinity" unicode="&#x221e;" horiz-adv-x="1556" 
d="M381 293q-126 0 -204.5 83t-78.5 230t78.5 230.5t204.5 83.5q197 0 397 -197q200 197 398 197q126 0 204 -83t78 -231q0 -147 -78 -230t-204 -83q-199 0 -398 196q-199 -196 -397 -196zM428 780q-72 0 -110.5 -44.5t-38.5 -129.5t38.5 -129.5t110.5 -44.5q53 0 129.5 46
t153.5 128q-77 82 -153.5 128t-129.5 46zM1128 780q-53 0 -129 -46t-153 -128q77 -82 153 -128t129 -46q72 0 111 45t39 129t-39 129t-111 45z" />
    <glyph glyph-name="integral" unicode="&#x222b;" horiz-adv-x="667" 
d="M649 1425v-139q-58 25 -106 25q-58 0 -89.5 -58.5t-31.5 -167.5v-952q0 -175 -77 -277t-210 -102q-53 0 -119 25v139q56 -24 107 -24q58 0 89.5 58t31.5 167v952q0 175 76.5 277t209.5 102q53 0 119 -25z" />
    <glyph glyph-name="approxequal" unicode="&#x2248;" horiz-adv-x="1046" 
d="M272 653h-180q0 125 66.5 201t165.5 76q60 0 119.5 -21.5t98 -47t80 -47t70.5 -21.5q43 0 66.5 35.5t23.5 101.5h181q0 -125 -67 -201t-169 -76q-59 0 -117.5 21.5t-96.5 47.5t-80 47.5t-71 21.5q-43 0 -66.5 -36t-23.5 -102zM272 289h-180q0 125 66.5 200.5t165.5 75.5
q60 0 119.5 -21.5t98 -47t80 -47t70.5 -21.5q43 0 66.5 35.5t23.5 101.5h181q0 -125 -67 -200.5t-169 -75.5q-59 0 -117.5 21.5t-96.5 47t-80 47t-71 21.5q-43 0 -66.5 -35.5t-23.5 -101.5z" />
    <glyph glyph-name="notequal" unicode="&#x2260;" horiz-adv-x="1046" 
d="M186 193l105 178h-193v143h277l119 201h-396v143h480l94 160h176l-94 -160h194v-143h-278l-117 -201h395v-143h-479l-104 -178h-179z" />
    <glyph glyph-name="lessequal" unicode="&#x2264;" horiz-adv-x="1046" 
d="M881 219l-738 393v103l738 395v-160l-543 -286l543 -287v-158zM881 4h-738v139h738v-139z" />
    <glyph glyph-name="greaterequal" unicode="&#x2265;" horiz-adv-x="1046" 
d="M166 219v158l543 287l-543 286v160l737 -395v-103zM166 4v139h737v-139h-737z" />
    <glyph glyph-name="lozenge" unicode="&#x25ca;" horiz-adv-x="1163" 
d="M672 -20h-180l-437 725l437 731h180l436 -731zM250 705l332 -586l331 586l-331 591z" />
    <glyph glyph-name="Jacute" horiz-adv-x="563" 
d="M651 1688l-293 -177h-159l202 177h250zM383 -92q0 -133 -74.5 -205t-212.5 -72q-54 0 -127 17v166q57 -23 82 -23q69 0 106.5 42t37.5 120v1108l-7 352h201l-6 -352v-1153z" />
    <glyph glyph-name="Q.alt" horiz-adv-x="1460" 
d="M1055 -352q-73 -17 -127 -17q-138 0 -212.5 72t-74.5 205v78q-178 24 -303.5 127.5t-185.5 257.5t-60 346q0 147 41.5 275.5t121 227.5t205.5 156.5t283 57.5q158 0 284 -57.5t205.5 -157t121 -228.5t41.5 -276q0 -144 -36 -269.5t-105 -223.5t-178 -160.5t-247 -77.5
v-31q0 -78 37.5 -120t106.5 -42q25 0 82 23v-166zM287 711q0 -119 29.5 -221.5t85.5 -180.5t144 -123t197 -45q146 0 251 77.5t155.5 204t50.5 286.5q0 111 -29.5 211.5t-85.5 180t-144.5 126.5t-197.5 47t-197 -47t-143.5 -126t-85.5 -179t-30 -211z" />
    <glyph glyph-name="W.alt" horiz-adv-x="1861" 
d="M672 0h-232l-286 1049l-111 364h223l82 -364l203 -791h6l266 1155h211l271 -1155h6l202 795l82 360h224l-111 -362l-291 -1051h-235l-250 1104h-6z" />
    <glyph glyph-name="Wacute.alt" horiz-adv-x="1861" 
d="M1288 1688l-293 -177h-159l202 177h250zM672 0h-232l-286 1049l-111 364h223l82 -364l203 -791h6l266 1155h211l271 -1155h6l202 795l82 360h224l-111 -362l-291 -1051h-235l-250 1104h-6z" />
    <glyph glyph-name="Wcircumflex.alt" horiz-adv-x="1861" 
d="M823 1511h-190l207 177h178l207 -177h-191l-106 78zM672 0h-232l-286 1049l-111 364h223l82 -364l203 -791h6l266 1155h211l271 -1155h6l202 795l82 360h224l-111 -362l-291 -1051h-235l-250 1104h-6z" />
    <glyph glyph-name="Wdieresis.alt" horiz-adv-x="1861" 
d="M1024 1513v173h193v-173h-193zM641 1513v173h190v-173h-190zM672 0h-232l-286 1049l-111 364h223l82 -364l203 -791h6l266 1155h211l271 -1155h6l202 795l82 360h224l-111 -362l-291 -1051h-235l-250 1104h-6z" />
    <glyph glyph-name="Wgrave.alt" horiz-adv-x="1861" 
d="M565 1688h250l203 -177h-160zM672 0h-232l-286 1049l-111 364h223l82 -364l203 -791h6l266 1155h211l271 -1155h6l202 795l82 360h224l-111 -362l-291 -1051h-235l-250 1104h-6z" />
    <glyph glyph-name="Aacute.loclPLK" horiz-adv-x="1320" 
d="M600 1511l45 177h182l-92 -177h-135zM248 0h-215l137 352l379 1061h225l375 -1061l137 -352h-215l-121 352l-4 15h-573l-4 -15zM655 1206l-221 -678h451l-221 678h-9z" />
    <glyph glyph-name="Cacute.loclPLK" horiz-adv-x="1386" 
d="M674 1511l45 177h182l-92 -177h-135zM1313 518q-26 -250 -182.5 -394t-399.5 -144q-295 0 -466 195t-171 536q0 332 171.5 527.5t465.5 195.5q250 0 404.5 -137t171.5 -373h-195q-22 168 -122 259t-261 91q-212 0 -326 -145.5t-114 -417.5q0 -276 114.5 -424t327.5 -148
q165 0 266.5 98.5t120.5 280.5h195z" />
    <glyph glyph-name="Eacute.loclPLK" horiz-adv-x="1161" 
d="M553 1511l45 177h182l-92 -177h-135zM1067 0h-893l6 352v709l-6 352h873v-160h-682v-438h653v-160h-653v-495h702v-160z" />
    <glyph glyph-name="Iacute.loclPLK" horiz-adv-x="548" 
d="M217 1511l45 177h182l-92 -177h-135zM375 0h-201l6 352v709l-6 352h201l-6 -352v-709z" />
    <glyph glyph-name="Nacute.loclPLK" horiz-adv-x="1495" 
d="M690 1511l45 177h183l-93 -177h-135zM375 0h-201l6 352v707l-6 354h203l577 -862l164 -242h8v750l-6 354h201l-6 -354v-707l6 -352h-195l-602 872l-151 232h-4v-752z" />
    <glyph glyph-name="Oacute.loclPLK" horiz-adv-x="1486" 
d="M686 1511l45 177h182l-92 -177h-135zM1395 715q0 -156 -41.5 -288.5t-121 -232.5t-205 -157t-284.5 -57q-127 0 -233.5 37.5t-183 104t-129.5 159t-79 202.5t-26 234q0 147 41.5 275.5t121 227.5t205.5 156.5t283 57.5q158 0 284 -57.5t205.5 -157t121 -228.5t41.5 -276z
M287 711q0 -119 29.5 -221.5t85.5 -180.5t144 -123t197 -45q146 0 251 77.5t155.5 204t50.5 286.5q0 111 -29.5 211.5t-85.5 180t-144.5 126.5t-197.5 47t-197 -47t-143.5 -126t-85.5 -179t-30 -211z" />
    <glyph glyph-name="Sacute.loclPLK" horiz-adv-x="1263" 
d="M592 1511l45 177h182l-92 -177h-135zM1188 393q0 -192 -149.5 -304t-395.5 -112q-270 0 -421.5 134t-151.5 370h194q0 -166 98.5 -255t290.5 -89q169 0 256.5 70.5t87.5 181.5q0 40 -17.5 72t-46 54.5t-76.5 42t-96 32.5t-118 28q-63 13 -113 26.5t-105 33.5t-97 43
t-81 55t-64.5 69t-40.5 86.5t-15 106.5q0 187 132 291.5t362 104.5q234 0 373.5 -118.5t146.5 -326.5h-195q-3 133 -88.5 211t-236.5 78q-143 0 -223.5 -60t-80.5 -171q0 -54 25.5 -97t55 -68t95.5 -49.5t101 -33.5t117 -27q5 -1 8 -2q95 -21 162 -42.5t128.5 -52.5
t98.5 -69t58.5 -91.5t21.5 -121.5z" />
    <glyph glyph-name="Uacute.loclPLK" horiz-adv-x="1390" 
d="M639 1511l45 177h182l-92 -177h-135zM1227 522q0 -252 -141 -397t-386 -145q-249 0 -392.5 145t-143.5 397v537l-6 354h200l-6 -354v-520q0 -192 90 -296t256 -104q164 0 252 104t88 296v520l-6 354h201l-6 -354v-537z" />
    <glyph glyph-name="Zacute.loclPLK" horiz-adv-x="1165" 
d="M537 1511l45 177h182l-92 -177h-135zM1094 0h-1049v145l793 1102v6h-717v160h969v-141l-785 -1106v-6h789v-160z" />
    <glyph glyph-name="idotaccent" horiz-adv-x="485" 
d="M150 1223v190h190v-190h-190zM338 0h-191l7 352v320l-7 366h191l-6 -366v-320z" />
    <glyph glyph-name="jacute" horiz-adv-x="495" 
d="M596 1413l-289 -223h-133l182 223h240zM340 -92q0 -128 -77 -202.5t-210 -74.5q-19 0 -39 4v140q16 -4 27 -4q58 0 89.5 37t31.5 106v758l-6 366h190l-6 -366v-764z" />
    <glyph glyph-name="w.alt" horiz-adv-x="1449" 
d="M557 0h-197l-202 672l-117 366h197l106 -366l107 -404h4l178 770h194l177 -770h6l106 404l105 366h196l-117 -366l-198 -672h-197l-172 776h-6z" />
    <glyph glyph-name="wacute.alt" horiz-adv-x="1449" 
d="M1085 1413l-288 -223h-133l182 223h239zM557 0h-197l-202 672l-117 366h197l106 -366l107 -404h4l178 770h194l177 -770h6l106 404l105 366h196l-117 -366l-198 -672h-197l-172 776h-6z" />
    <glyph glyph-name="wcircumflex.alt" horiz-adv-x="1449" 
d="M616 1190h-153l207 223h159l207 -223h-153l-133 131zM557 0h-197l-202 672l-117 366h197l106 -366l107 -404h4l178 770h194l177 -770h6l106 404l105 366h196l-117 -366l-198 -672h-197l-172 776h-6z" />
    <glyph glyph-name="wdieresis.alt" horiz-adv-x="1449" 
d="M846 1223v190h192v-190h-192zM463 1223v190h190v-190h-190zM557 0h-197l-202 672l-117 366h197l106 -366l107 -404h4l178 770h194l177 -770h6l106 404l105 366h196l-117 -366l-198 -672h-197l-172 776h-6z" />
    <glyph glyph-name="wgrave.alt" horiz-adv-x="1449" 
d="M440 1413h240l182 -223h-133zM557 0h-197l-202 672l-117 366h197l106 -366l107 -404h4l178 770h194l177 -770h6l106 404l105 366h196l-117 -366l-198 -672h-197l-172 776h-6z" />
    <glyph glyph-name="aacute.loclPLK" horiz-adv-x="1083" 
d="M475 1190l57 223h183l-105 -223h-135zM752 131q-100 -151 -359 -151q-64 0 -120 16.5t-101.5 49.5t-71.5 87.5t-26 124.5q0 174 175.5 266t504.5 101v102q0 98 -56 145.5t-178 47.5q-112 0 -170.5 -62.5t-58.5 -150.5h-180q0 72 24 131t64.5 99.5t95.5 68.5t116 40.5
t126 12.5q195 0 295 -82.5t100 -237.5v-559q0 -29 15.5 -45t43.5 -16q33 0 68 18v-139q-47 -18 -133 -18q-75 0 -121.5 35t-46.5 98v18h-6zM254 272q0 -70 48.5 -111.5t139.5 -41.5q145 0 227.5 77t82.5 220v78q-238 0 -368 -57t-130 -165z" />
    <glyph glyph-name="cacute.loclPLK" horiz-adv-x="1073" 
d="M481 1190l58 223h182l-105 -223h-135zM1010 379q-20 -186 -141 -292.5t-310 -106.5q-221 0 -349 143t-128 391q0 252 130.5 398.5t354.5 146.5q180 0 298 -102.5t141 -280.5h-181q-17 118 -83.5 181t-174.5 63q-147 0 -226 -105.5t-79 -300.5q0 -190 77 -292.5
t220 -102.5q115 0 183 66.5t87 193.5h181z" />
    <glyph glyph-name="eacute.loclPLK" horiz-adv-x="1081" 
d="M492 1190l57 223h182l-104 -223h-135zM993 350q-22 -178 -137 -274t-307 -96q-224 0 -344.5 137.5t-120.5 392.5q0 266 121.5 409.5t347.5 143.5q204 0 319.5 -128t124.5 -364v-73h-731q-6 -183 68 -281t219 -98q103 0 170 59.5t90 171.5h180zM555 930q-118 0 -192 -76
t-93 -217h547q-6 141 -74 217t-188 76z" />
    <glyph glyph-name="iacute.loclPLK" horiz-adv-x="485" 
d="M182 1190l58 223h182l-105 -223h-135zM338 0h-191l7 352v320l-7 366h191l-6 -366v-320z" />
    <glyph glyph-name="nacute.loclPLK" horiz-adv-x="1087" 
d="M485 1190l58 223h182l-104 -223h-136zM330 0h-187l7 352v320l-7 366h183l-7 -131h7q47 73 121 112.5t163 39.5q158 0 249 -98.5t91 -268.5v-340l6 -352h-186l6 352v303q0 128 -58 196.5t-167 68.5t-168 -69t-59 -196v-303z" />
    <glyph glyph-name="oacute.loclPLK" horiz-adv-x="1107" 
d="M494 1190l57 223h182l-104 -223h-135zM1026 518q0 -250 -126.5 -394t-346.5 -144q-219 0 -345 144t-126 394q0 249 126.5 395t344.5 146q219 0 346 -145.5t127 -395.5zM262 520q0 -193 75.5 -297t215.5 -104q141 0 217 104t76 297q0 191 -76 295.5t-217 104.5
q-139 0 -215 -104.5t-76 -295.5z" />
    <glyph glyph-name="sacute.loclPLK" horiz-adv-x="1005" 
d="M440 1190l58 223h182l-105 -223h-135zM936 299q0 -148 -114 -233.5t-312 -85.5q-205 0 -324.5 100t-119.5 272h180q0 -111 68.5 -172t187.5 -61q125 0 189.5 46.5t64.5 133.5q0 40 -22.5 68.5t-61 44.5t-88 27.5t-104.5 21t-109.5 21.5t-103.5 33t-86.5 51t-59 80
t-19.5 116q3 128 116.5 212.5t291.5 84.5q188 0 288.5 -90t100.5 -250h-180q0 97 -57.5 149t-163.5 52q-99 0 -157 -42t-58 -118q0 -43 28 -73t74 -44.5t104.5 -28.5t120 -24t120 -31.5t104.5 -50.5t74 -82.5t28 -126.5z" />
    <glyph glyph-name="uacute.loclPLK" horiz-adv-x="1105" 
d="M487 1190l58 223h182l-104 -223h-136zM776 129q-39 -76 -115.5 -114t-175.5 -38q-163 0 -256.5 108t-93.5 296v291l-6 366h195l-7 -366l-2 -277q2 -134 51 -206t140 -72q132 0 202.5 92t69.5 262l-2 201l-6 366h193l-7 -366v-320l5 -352h-181l6 129h-10z" />
    <glyph glyph-name="zacute.loclPLK" horiz-adv-x="882" 
d="M371 1190l57 223h182l-104 -223h-135zM827 0h-774v125l531 780v4l-494 -4v133h709v-127l-523 -776v-4l551 2v-133z" />
    <glyph glyph-name="s_t" horiz-adv-x="1705" 
d="M936 299q0 -148 -114 -233.5t-312 -85.5q-205 0 -324.5 100t-119.5 272h180q0 -111 68.5 -172t187.5 -61q125 0 189.5 46.5t64.5 133.5q0 40 -22.5 68.5t-61 44.5t-88 27.5t-104.5 21t-109.5 21.5t-103.5 33t-86.5 51t-59 80t-19.5 116q3 105 82 183t209 104
q2 94 36.5 165.5t93.5 114.5t134 64.5t164 21.5l547 -2l-10 -375h319v-139h-319v-598q0 -94 33.5 -137t105.5 -43q96 0 180 24v-143q-113 -22 -219 -22q-135 0 -207.5 79.5t-72.5 227.5v612h-144v139h144l-7 238h-350q-238 0 -248 -219q158 -15 242 -103.5t84 -234.5h-180
q0 97 -57.5 149t-163.5 52q-99 0 -157 -42t-58 -118q0 -43 28 -73t74 -44.5t104.5 -28.5t120 -24t120 -31.5t104.5 -50.5t74 -82.5t28 -126.5z" />
    <glyph glyph-name="Q.sc.alt" horiz-adv-x="1308" 
d="M952 -352q-73 -17 -127 -17q-138 0 -212 71.5t-74 205.5v80q-220 34 -338.5 192.5t-118.5 392.5q0 165 63.5 294t194.5 206.5t313 77.5q139 0 249 -45t180.5 -124t107.5 -183.5t37 -227.5q0 -244 -129.5 -404t-370.5 -183v-31q0 -78 37 -120t106 -42q24 0 82 23v-166z
M266 569q0 -194 101 -316t286 -122q186 0 287.5 121t101.5 315q0 119 -43 216t-133 157.5t-213 60.5q-93 0 -167.5 -34.5t-122 -94t-72.5 -137.5t-25 -166z" />
    <glyph glyph-name="W.sc.alt" horiz-adv-x="1697" 
d="M618 0h-202l-240 780l-110 350h210l93 -350l147 -506h4l240 856h174l246 -856h6l141 506l98 350h211l-116 -350l-238 -780h-197l-233 834h-6z" />
    <glyph glyph-name="Wacute.sc.alt" horiz-adv-x="1697" 
d="M1188 1413l-289 -178h-133l182 178h240zM618 0h-202l-240 780l-110 350h210l93 -350l147 -506h4l240 856h174l246 -856h6l141 506l98 350h211l-116 -350l-238 -780h-197l-233 834h-6z" />
    <glyph glyph-name="Wcircumflex.sc.alt" horiz-adv-x="1697" 
d="M735 1237h-190l207 176h178l207 -176h-191l-106 78zM618 0h-202l-240 780l-110 350h210l93 -350l147 -506h4l240 856h174l246 -856h6l141 506l98 350h211l-116 -350l-238 -780h-197l-233 834h-6z" />
    <glyph glyph-name="Wdieresis.sc.alt" horiz-adv-x="1697" 
d="M936 1243v172h192v-172h-192zM553 1243v172h190v-172h-190zM618 0h-202l-240 780l-110 350h210l93 -350l147 -506h4l240 856h174l246 -856h6l141 506l98 350h211l-116 -350l-238 -780h-197l-233 834h-6z" />
    <glyph glyph-name="Wgrave.sc.alt" horiz-adv-x="1697" 
d="M469 1413h240l182 -178h-133zM618 0h-202l-240 780l-110 350h210l93 -350l147 -506h4l240 856h174l246 -856h6l141 506l98 350h211l-116 -350l-238 -780h-197l-233 834h-6z" />
    <glyph glyph-name="A.sc" horiz-adv-x="1191" 
d="M238 0h-205l141 352l293 778h260l293 -778l139 -352h-205l-112 311h-492zM592 954l-184 -491h376l-184 491h-8z" />
    <glyph glyph-name="Aacute.sc" horiz-adv-x="1191" 
d="M944 1413l-289 -178h-133l183 178h239zM238 0h-205l141 352l293 778h260l293 -778l139 -352h-205l-112 311h-492zM592 954l-184 -491h376l-184 491h-8z" />
    <glyph glyph-name="Abreve.sc" horiz-adv-x="1191" 
d="M362 1413h119q5 -52 31.5 -76t81.5 -24t81.5 24t31.5 76h116q0 -96 -58 -149.5t-171 -53.5q-115 0 -173.5 53.5t-58.5 149.5zM238 0h-205l141 352l293 778h260l293 -778l139 -352h-205l-112 311h-492zM592 954l-184 -491h376l-184 491h-8z" />
    <glyph glyph-name="Acaron.sc" horiz-adv-x="1191" 
d="M492 1417l104 -78l106 78h191l-207 -176h-178l-207 176h191zM238 0h-205l141 352l293 778h260l293 -778l139 -352h-205l-112 311h-492zM592 954l-184 -491h376l-184 491h-8z" />
    <glyph glyph-name="Acircumflex.sc" horiz-adv-x="1191" 
d="M492 1237h-191l207 176h178l207 -176h-191l-106 78zM238 0h-205l141 352l293 778h260l293 -778l139 -352h-205l-112 311h-492zM592 954l-184 -491h376l-184 491h-8z" />
    <glyph glyph-name="Adieresis.sc" horiz-adv-x="1191" 
d="M692 1243v172h193v-172h-193zM309 1243v172h191v-172h-191zM238 0h-205l141 352l293 778h260l293 -778l139 -352h-205l-112 311h-492zM592 954l-184 -491h376l-184 491h-8z" />
    <glyph glyph-name="Agrave.sc" horiz-adv-x="1191" 
d="M225 1413h240l182 -178h-133zM238 0h-205l141 352l293 778h260l293 -778l139 -352h-205l-112 311h-492zM592 954l-184 -491h376l-184 491h-8z" />
    <glyph glyph-name="Amacron.sc" horiz-adv-x="1191" 
d="M373 1219v118h434v-118h-434zM238 0h-205l141 352l293 778h260l293 -778l139 -352h-205l-112 311h-492zM592 954l-184 -491h376l-184 491h-8z" />
    <glyph glyph-name="Aogonek.sc" horiz-adv-x="1191" 
d="M238 0h-205l141 352l293 778h260l293 -778l139 -352h-108q-138 -53 -185 -91t-47 -79q0 -59 96 -59q29 0 79 13t83 28v-121q-43 -24 -112.5 -42t-130.5 -18q-92 0 -143.5 37.5t-51.5 100.5q0 78 69 147t226 141l-92 254h-492zM592 954l-184 -491h376l-184 491h-8z" />
    <glyph glyph-name="Aring.sc" horiz-adv-x="1191" 
d="M596 1139q-66 0 -110 41t-44 102t44 102t110 41t110 -41t44 -102t-44 -102t-110 -41zM596 1217q31 0 51.5 18.5t20.5 46.5q0 29 -20.5 48.5t-51.5 19.5t-51.5 -19.5t-20.5 -48.5q0 -28 20.5 -46.5t51.5 -18.5zM238 0h-205l141 352l293 778h260l293 -778l139 -352h-205
l-112 311h-492zM592 954l-184 -491h376l-184 491h-8z" />
    <glyph glyph-name="Aringacute.sc" horiz-adv-x="1191" 
d="M238 0h-205l141 352l291 774q-21 35 -21 74q0 54 34.5 93t90.5 48l115 113h240l-230 -141q58 -39 58 -113q0 -43 -23 -76l291 -772l139 -352h-205l-112 311h-492zM598 1135q31 0 51.5 18.5t20.5 46.5q0 29 -20.5 48.5t-51.5 19.5t-51.5 -19.5t-20.5 -48.5
q0 -28 20.5 -46.5t51.5 -18.5zM592 954l-184 -491h376l-184 491h-8z" />
    <glyph glyph-name="Atilde.sc" horiz-adv-x="1191" 
d="M467 1231h-102q0 78 44 127t111 49q40 0 71.5 -16t55 -32t41.5 -16q53 0 53 70h103q0 -78 -44.5 -127t-111.5 -49q-37 0 -86.5 31.5t-81.5 31.5q-53 0 -53 -69zM238 0h-205l141 352l293 778h260l293 -778l139 -352h-205l-112 311h-492zM592 954l-184 -491h376l-184 491
h-8z" />
    <glyph glyph-name="AE.sc" horiz-adv-x="1585" 
d="M211 0h-219l198 352l400 778h891v-151h-588v-317h563v-150h-563v-360h606v-152h-782l4 291v20h-356zM698 954l-256 -491h279v491h-23z" />
    <glyph glyph-name="AEacute.sc" horiz-adv-x="1585" 
d="M1241 1415l-289 -178h-133l182 178h240zM211 0h-219l198 352l400 778h891v-151h-588v-317h563v-150h-563v-360h606v-152h-782l4 291v20h-356zM698 954l-256 -491h279v491h-23z" />
    <glyph glyph-name="B.sc" horiz-adv-x="1150" 
d="M659 0h-505l6 246v534l-6 350h522q169 0 260.5 -71.5t91.5 -204.5q0 -106 -53.5 -171.5t-151.5 -80.5v-4q119 -23 183.5 -94.5t64.5 -179.5q0 -155 -107 -239.5t-305 -84.5zM334 985l-2 -328h307q97 0 153 43.5t56 118.5q0 77 -45 121.5t-123 44.5h-346zM334 516v-371
h356q92 0 145.5 49.5t53.5 135.5t-53.5 136t-145.5 50h-356z" />
    <glyph glyph-name="C.sc" horiz-adv-x="1216" 
d="M1153 412q-23 -201 -161 -316.5t-353 -115.5q-258 0 -407.5 158.5t-149.5 434.5q0 268 149.5 423t407.5 155q221 0 357 -109.5t151 -300.5h-184q-19 126 -103 193t-221 67q-180 0 -276.5 -112.5t-96.5 -319.5q0 -212 97.5 -326t277.5 -114q143 0 228 73.5t100 209.5h184z
" />
    <glyph glyph-name="Cacute.sc" horiz-adv-x="1216" 
d="M987 1413l-289 -178h-133l183 178h239zM1153 412q-23 -201 -161 -316.5t-353 -115.5q-258 0 -407.5 158.5t-149.5 434.5q0 268 149.5 423t407.5 155q221 0 357 -109.5t151 -300.5h-184q-19 126 -103 193t-221 67q-180 0 -276.5 -112.5t-96.5 -319.5q0 -212 97.5 -326
t277.5 -114q143 0 228 73.5t100 209.5h184z" />
    <glyph glyph-name="Ccaron.sc" horiz-adv-x="1216" 
d="M535 1417l104 -78l106 78h191l-207 -176h-178l-207 176h191zM1153 412q-23 -201 -161 -316.5t-353 -115.5q-258 0 -407.5 158.5t-149.5 434.5q0 268 149.5 423t407.5 155q221 0 357 -109.5t151 -300.5h-184q-19 126 -103 193t-221 67q-180 0 -276.5 -112.5t-96.5 -319.5
q0 -212 97.5 -326t277.5 -114q143 0 228 73.5t100 209.5h184z" />
    <glyph glyph-name="Ccedilla.sc" horiz-adv-x="1216" 
d="M651 -369q-67 0 -116.5 33t-49.5 82h109q0 -15 16.5 -26t40.5 -11q25 0 41.5 17t16.5 43q0 29 -22 48t-56 19h-84l26 146q-230 22 -360.5 178t-130.5 413q0 268 149.5 423t407.5 155q221 0 357 -109.5t151 -300.5h-184q-19 126 -103 193t-221 67q-180 0 -276.5 -112.5
t-96.5 -319.5q0 -212 97.5 -326t277.5 -114q143 0 228 73.5t100 209.5h184q-22 -191 -148 -305t-325 -125l-12 -70q72 0 109.5 -39.5t37.5 -103.5q0 -61 -42.5 -99.5t-121.5 -38.5z" />
    <glyph glyph-name="Ccircumflex.sc" horiz-adv-x="1216" 
d="M535 1237h-191l207 176h178l207 -176h-191l-106 78zM1153 412q-23 -201 -161 -316.5t-353 -115.5q-258 0 -407.5 158.5t-149.5 434.5q0 268 149.5 423t407.5 155q221 0 357 -109.5t151 -300.5h-184q-19 126 -103 193t-221 67q-180 0 -276.5 -112.5t-96.5 -319.5
q0 -212 97.5 -326t277.5 -114q143 0 228 73.5t100 209.5h184z" />
    <glyph glyph-name="Cdotaccent.sc" horiz-adv-x="1216" 
d="M545 1223v190h190v-190h-190zM1153 412q-23 -201 -161 -316.5t-353 -115.5q-258 0 -407.5 158.5t-149.5 434.5q0 268 149.5 423t407.5 155q221 0 357 -109.5t151 -300.5h-184q-19 126 -103 193t-221 67q-180 0 -276.5 -112.5t-96.5 -319.5q0 -212 97.5 -326t277.5 -114
q143 0 228 73.5t100 209.5h184z" />
    <glyph glyph-name="D.sc" horiz-adv-x="1259" 
d="M563 0h-409l6 352v428l-6 350h409q286 0 451.5 -150.5t165.5 -410.5q0 -264 -165.5 -416.5t-451.5 -152.5zM338 981v-829h225q207 0 319.5 108t112.5 307t-112.5 306.5t-319.5 107.5h-225z" />
    <glyph glyph-name="Eth.sc" horiz-adv-x="1269" 
d="M573 0h-409l6 352v144h-125v139h125v145l-6 350h409q286 0 451.5 -150.5t165.5 -410.5q0 -264 -165.5 -416.5t-451.5 -152.5zM649 496h-301v-344h225q207 0 320 108t113 307t-113 306.5t-320 107.5h-225v-346h301v-139z" />
    <glyph glyph-name="Dcaron.sc" horiz-adv-x="1259" 
d="M520 1417l105 -78l106 78h191l-207 -176h-178l-207 176h190zM563 0h-409l6 352v428l-6 350h409q286 0 451.5 -150.5t165.5 -410.5q0 -264 -165.5 -416.5t-451.5 -152.5zM338 981v-829h225q207 0 319.5 108t112.5 307t-112.5 306.5t-319.5 107.5h-225z" />
    <glyph glyph-name="Dcroat.sc" horiz-adv-x="1269" 
d="M573 0h-409l6 352v144h-125v139h125v145l-6 350h409q286 0 451.5 -150.5t165.5 -410.5q0 -264 -165.5 -416.5t-451.5 -152.5zM649 496h-301v-344h225q207 0 320 108t113 307t-113 306.5t-320 107.5h-225v-346h301v-139z" />
    <glyph glyph-name="E.sc" horiz-adv-x="1026" 
d="M940 0h-786l6 352v428l-6 350h768v-151h-588v-317h563v-150h-563v-360h606v-152z" />
    <glyph glyph-name="Eacute.sc" horiz-adv-x="1026" 
d="M887 1413l-289 -178h-133l182 178h240zM940 0h-786l6 352v428l-6 350h768v-151h-588v-317h563v-150h-563v-360h606v-152z" />
    <glyph glyph-name="Ebreve.sc" horiz-adv-x="1026" 
d="M305 1413h119q5 -52 31.5 -76t81.5 -24t81 24t31 76h117q0 -96 -58 -149.5t-171 -53.5q-115 0 -173.5 53.5t-58.5 149.5zM940 0h-786l6 352v428l-6 350h768v-151h-588v-317h563v-150h-563v-360h606v-152z" />
    <glyph glyph-name="Ecaron.sc" horiz-adv-x="1026" 
d="M434 1417l105 -78l106 78h191l-207 -176h-178l-207 176h190zM940 0h-786l6 352v428l-6 350h768v-151h-588v-317h563v-150h-563v-360h606v-152z" />
    <glyph glyph-name="Ecircumflex.sc" horiz-adv-x="1026" 
d="M434 1237h-190l207 176h178l207 -176h-191l-106 78zM940 0h-786l6 352v428l-6 350h768v-151h-588v-317h563v-150h-563v-360h606v-152z" />
    <glyph glyph-name="Edieresis.sc" horiz-adv-x="1026" 
d="M635 1243v172h192v-172h-192zM252 1243v172h190v-172h-190zM940 0h-786l6 352v428l-6 350h768v-151h-588v-317h563v-150h-563v-360h606v-152z" />
    <glyph glyph-name="Edotaccent.sc" horiz-adv-x="1026" 
d="M444 1223v190h191v-190h-191zM940 0h-786l6 352v428l-6 350h768v-151h-588v-317h563v-150h-563v-360h606v-152z" />
    <glyph glyph-name="Egrave.sc" horiz-adv-x="1026" 
d="M168 1413h240l182 -178h-133zM940 0h-786l6 352v428l-6 350h768v-151h-588v-317h563v-150h-563v-360h606v-152z" />
    <glyph glyph-name="Emacron.sc" horiz-adv-x="1026" 
d="M315 1219v118h435v-118h-435zM940 0h-786l6 352v428l-6 350h768v-151h-588v-317h563v-150h-563v-360h606v-152z" />
    <glyph glyph-name="Eogonek.sc" horiz-adv-x="1026" 
d="M940 0h-6q-138 -53 -185 -91t-47 -79q0 -59 97 -59q29 0 79 13t83 28v-121q-43 -23 -113 -41.5t-131 -18.5q-92 0 -143.5 37.5t-51.5 100.5t43.5 118.5t141.5 112.5h-553l6 352v428l-6 350h768v-151h-588v-317h563v-150h-563v-360h606v-152z" />
    <glyph glyph-name="F.sc" horiz-adv-x="958" 
d="M342 0h-188l6 352v428l-6 350h743v-151h-559v-350h520v-150h-520v-127z" />
    <glyph glyph-name="G.sc" horiz-adv-x="1325" 
d="M1055 162q-55 -85 -160 -133.5t-233 -48.5q-269 0 -424.5 158t-155.5 431q0 270 159.5 426t434.5 156q221 0 361.5 -105t162.5 -288h-184q-13 117 -102 180t-240 63q-196 0 -302 -112.5t-106 -319.5q0 -212 105.5 -326t302.5 -114q164 0 259 81t105 232h-370v144h538
v-234l6 -352h-159l4 162h-2z" />
    <glyph glyph-name="Gbreve.sc" horiz-adv-x="1325" 
d="M444 1413h119q5 -52 31.5 -76t81.5 -24t81 24t31 76h117q0 -96 -58 -149.5t-171 -53.5q-115 0 -173.5 53.5t-58.5 149.5zM1055 162q-55 -85 -160 -133.5t-233 -48.5q-269 0 -424.5 158t-155.5 431q0 270 159.5 426t434.5 156q221 0 361.5 -105t162.5 -288h-184
q-13 117 -102 180t-240 63q-196 0 -302 -112.5t-106 -319.5q0 -212 105.5 -326t302.5 -114q164 0 259 81t105 232h-370v144h538v-234l6 -352h-159l4 162h-2z" />
    <glyph glyph-name="Gcircumflex.sc" horiz-adv-x="1325" 
d="M573 1237h-190l207 176h178l207 -176h-191l-106 78zM1055 162q-55 -85 -160 -133.5t-233 -48.5q-269 0 -424.5 158t-155.5 431q0 270 159.5 426t434.5 156q221 0 361.5 -105t162.5 -288h-184q-13 117 -102 180t-240 63q-196 0 -302 -112.5t-106 -319.5q0 -212 105.5 -326
t302.5 -114q164 0 259 81t105 232h-370v144h538v-234l6 -352h-159l4 162h-2z" />
    <glyph glyph-name="Gcommaaccent.sc" horiz-adv-x="1325" 
d="M1055 162q-55 -85 -160 -133.5t-233 -48.5q-269 0 -424.5 158t-155.5 431q0 270 159.5 426t434.5 156q221 0 361.5 -105t162.5 -288h-184q-13 117 -102 180t-240 63q-196 0 -302 -112.5t-106 -319.5q0 -212 105.5 -326t302.5 -114q164 0 259 81t105 232h-370v144h538
v-234l6 -352h-159l4 162h-2zM473 -371l102 330h175l-138 -330h-139z" />
    <glyph glyph-name="Gdotaccent.sc" horiz-adv-x="1325" 
d="M584 1223v190h190v-190h-190zM1055 162q-55 -85 -160 -133.5t-233 -48.5q-269 0 -424.5 158t-155.5 431q0 270 159.5 426t434.5 156q221 0 361.5 -105t162.5 -288h-184q-13 117 -102 180t-240 63q-196 0 -302 -112.5t-106 -319.5q0 -212 105.5 -326t302.5 -114
q164 0 259 81t105 232h-370v144h538v-234l6 -352h-159l4 162h-2z" />
    <glyph glyph-name="H.sc" horiz-adv-x="1259" 
d="M342 0h-188l6 352v428l-6 350h188l-4 -350v-118h584v118l-7 350h191l-6 -350v-428l6 -352h-191l7 352v160h-584v-160z" />
    <glyph glyph-name="Hbar.sc" horiz-adv-x="1292" 
d="M358 0h-188l6 352v445h-125v139h123l-4 194h188l-2 -194h580l-4 194h190l-4 -194h123v-139h-125v-445l6 -352h-190l6 352v160h-584v-160zM354 662h584v135h-584v-135z" />
    <glyph glyph-name="Hcircumflex.sc" horiz-adv-x="1259" 
d="M524 1237h-190l207 176h178l207 -176h-191l-106 78zM342 0h-188l6 352v428l-6 350h188l-4 -350v-118h584v118l-7 350h191l-6 -350v-428l6 -352h-191l7 352v160h-584v-160z" />
    <glyph glyph-name="I.sc" horiz-adv-x="497" 
d="M342 0h-188l6 352v428l-6 350h188l-4 -350v-428z" />
    <glyph glyph-name="IJ.sc" horiz-adv-x="915" 
d="M342 0h-188l6 352v428l-6 350h188l-4 -350v-428zM758 -100q0 -125 -69 -197t-189 -72q-36 0 -117 15v149q50 -16 72 -16q58 0 91.5 43t33.5 117v841l-7 350h189l-4 -350v-880z" />
    <glyph glyph-name="Iacute.sc" horiz-adv-x="497" 
d="M596 1413l-289 -178h-133l182 178h240zM342 0h-188l6 352v428l-6 350h188l-4 -350v-428z" />
    <glyph glyph-name="Ibreve.sc" horiz-adv-x="497" 
d="M14 1413h119q5 -52 31.5 -76t81.5 -24t81 24t31 76h117q0 -96 -58 -149.5t-171 -53.5q-115 0 -173.5 53.5t-58.5 149.5zM342 0h-188l6 352v428l-6 350h188l-4 -350v-428z" />
    <glyph glyph-name="Icaron.sc" horiz-adv-x="497" 
d="M143 1417l105 -78l106 78h191l-207 -176h-178l-207 176h190zM342 0h-188l6 352v428l-6 350h188l-4 -350v-428z" />
    <glyph glyph-name="Icircumflex.sc" horiz-adv-x="497" 
d="M143 1237h-190l207 176h178l207 -176h-191l-106 78zM342 0h-188l6 352v428l-6 350h188l-4 -350v-428z" />
    <glyph glyph-name="Idieresis.sc" horiz-adv-x="497" 
d="M344 1243v172h193v-172h-193zM-39 1243v172h191v-172h-191zM342 0h-188l6 352v428l-6 350h188l-4 -350v-428z" />
    <glyph glyph-name="Idotaccent.sc" horiz-adv-x="497" 
d="M154 1223v190h190v-190h-190zM342 0h-188l6 352v428l-6 350h188l-4 -350v-428z" />
    <glyph glyph-name="Igrave.sc" horiz-adv-x="497" 
d="M-123 1413h240l182 -178h-133zM342 0h-188l6 352v428l-6 350h188l-4 -350v-428z" />
    <glyph glyph-name="Imacron.sc" horiz-adv-x="497" 
d="M25 1219v118h434v-118h-434zM342 0h-188l6 352v428l-6 350h188l-4 -350v-428z" />
    <glyph glyph-name="Iogonek.sc" horiz-adv-x="499" 
d="M344 0h-6q-138 -53 -185 -91t-47 -79q0 -59 97 -59q29 0 79 13t83 28v-121q-43 -23 -113 -41.5t-131 -18.5q-92 0 -143.5 37.5t-51.5 100.5q0 69 54 131t176 127l6 325v428l-6 350h188l-4 -350v-428l4 -350v-2z" />
    <glyph glyph-name="Itilde.sc" horiz-adv-x="497" 
d="M119 1231h-103q0 78 44.5 127t111.5 49q40 0 71.5 -16t55 -32t41.5 -16q53 0 53 70h103q0 -78 -44.5 -127t-111.5 -49q-37 0 -86.5 31.5t-81.5 31.5q-53 0 -53 -69zM342 0h-188l6 352v428l-6 350h188l-4 -350v-428z" />
    <glyph glyph-name="J.sc" horiz-adv-x="505" 
d="M348 -100q0 -125 -69 -197t-189 -72q-36 0 -117 15v149q50 -16 72 -16q58 0 91.5 43t33.5 117v841l-6 350h188l-4 -350v-880z" />
    <glyph glyph-name="Jacute.sc" horiz-adv-x="505" 
d="M616 1413l-288 -178h-133l182 178h239zM348 -100q0 -125 -69 -197t-189 -72q-36 0 -117 15v149q50 -16 72 -16q58 0 91.5 43t33.5 117v841l-6 350h188l-4 -350v-880z" />
    <glyph glyph-name="Jcircumflex.sc" horiz-adv-x="505" 
d="M154 1237h-191l207 176h178l207 -176h-190l-107 78zM348 -100q0 -125 -69 -197t-189 -72q-36 0 -117 15v149q50 -16 72 -16q58 0 91.5 43t33.5 117v841l-6 350h188l-4 -350v-880z" />
    <glyph glyph-name="K.sc" horiz-adv-x="1134" 
d="M342 0h-186l4 352v430l-6 348h188l-6 -348v-137h6l129 135l334 350h260l-352 -350l-123 -127v-4l231 -297l293 -352h-262l-258 352l-125 170h-4l-129 -133v-37z" />
    <glyph glyph-name="Kcommaaccent.sc" horiz-adv-x="1134" 
d="M342 0h-186l4 352v430l-6 348h188l-6 -348v-137h6l129 135l334 350h260l-352 -350l-123 -127v-4l231 -297l293 -352h-262l-258 352l-125 170h-4l-129 -133v-37zM385 -371l102 330h175l-138 -330h-139z" />
    <glyph glyph-name="L.sc" horiz-adv-x="913" 
d="M879 0h-725l6 352v428l-6 350h188l-4 -350v-628h541v-152z" />
    <glyph glyph-name="Lacute.sc" horiz-adv-x="913" 
d="M596 1413l-289 -178h-133l182 178h240zM879 0h-725l6 352v428l-6 350h188l-4 -350v-628h541v-152z" />
    <glyph glyph-name="Lcaron.sc" horiz-adv-x="923" 
d="M879 0h-725l6 352v428l-6 350h188l-4 -350v-628h541v-152zM596 803l41 319h201l-109 -319h-133z" />
    <glyph glyph-name="Lcommaaccent.sc" horiz-adv-x="913" 
d="M879 0h-725l6 352v428l-6 350h188l-4 -350v-628h541v-152zM332 -371l102 330h174l-137 -330h-139z" />
    <glyph glyph-name="Ldot.sc" horiz-adv-x="921" 
d="M879 0h-725l6 352v428l-6 350h188l-4 -350v-628h541v-152zM569 524v217h219v-217h-219z" />
    <glyph glyph-name="Lslash.sc" horiz-adv-x="940" 
d="M903 0h-725l6 352v70l-123 -72v170l123 72v188l-6 350h189l-5 -350v-86l326 189v-170l-326 -189v-372h541v-152z" />
    <glyph glyph-name="M.sc" horiz-adv-x="1544" 
d="M336 0h-182l6 352v428l-6 350h282l334 -847h4l336 847h281l-7 -350v-428l7 -352h-183l4 350v563h-6l-370 -913h-127l-371 905h-6v-553z" />
    <glyph glyph-name="N.sc" horiz-adv-x="1314" 
d="M342 0h-188l6 352v428l-6 350h168l514 -659l137 -176h6v485l-6 350h188l-6 -350v-428l6 -352h-190l-522 674l-109 145h-4v-467z" />
    <glyph glyph-name="Nacute.sc" horiz-adv-x="1314" 
d="M1006 1413l-289 -178h-133l182 178h240zM342 0h-188l6 352v428l-6 350h168l514 -659l137 -176h6v485l-6 350h188l-6 -350v-428l6 -352h-190l-522 674l-109 145h-4v-467z" />
    <glyph glyph-name="Ncaron.sc" horiz-adv-x="1314" 
d="M553 1417l104 -78l107 78h190l-206 -176h-179l-207 176h191zM342 0h-188l6 352v428l-6 350h168l514 -659l137 -176h6v485l-6 350h188l-6 -350v-428l6 -352h-190l-522 674l-109 145h-4v-467z" />
    <glyph glyph-name="Ncommaaccent.sc" horiz-adv-x="1314" 
d="M342 0h-188l6 352v428l-6 350h168l514 -659l137 -176h6v485l-6 350h188l-6 -350v-428l6 -352h-190l-522 674l-109 145h-4v-467zM469 -371l102 330h174l-137 -330h-139z" />
    <glyph glyph-name="Eng.sc" horiz-adv-x="1314" 
d="M342 0h-188l6 352v428l-6 350h168l514 -659l137 -176h6v485l-6 350h188l-6 -350v-428l6 -352v-92q0 -128 -74.5 -202.5t-207.5 -74.5q-19 0 -39 4v140q16 -4 26 -4q58 0 88.5 37t30.5 106v68l-14 18l-522 674l-109 145h-4v-467z" />
    <glyph glyph-name="Ntilde.sc" horiz-adv-x="1314" 
d="M528 1231h-102q0 78 44.5 127t111.5 49q40 0 71.5 -16t55 -32t41.5 -16q53 0 53 70h102q0 -78 -44 -127t-111 -49q-37 0 -86.5 31.5t-81.5 31.5q-54 0 -54 -69zM342 0h-188l6 352v428l-6 350h168l514 -659l137 -176h6v485l-6 350h188l-6 -350v-428l6 -352h-190l-522 674
l-109 145h-4v-467z" />
    <glyph glyph-name="O.sc" horiz-adv-x="1308" 
d="M1227 571q0 -128 -37 -235t-107.5 -187t-180.5 -124.5t-249 -44.5q-183 0 -313.5 78t-194 210.5t-63.5 304.5q0 165 63.5 294t194.5 206.5t313 77.5q139 0 249 -45t180.5 -124t107.5 -183.5t37 -227.5zM266 569q0 -194 101 -316t286 -122q186 0 287.5 121t101.5 315
q0 119 -43 216t-133 157.5t-213 60.5q-93 0 -167.5 -34.5t-122 -94t-72.5 -137.5t-25 -166z" />
    <glyph glyph-name="Oacute.sc" horiz-adv-x="1308" 
d="M1004 1403l-289 -178h-133l182 178h240zM1227 571q0 -128 -37 -235t-107.5 -187t-180.5 -124.5t-249 -44.5q-183 0 -313.5 78t-194 210.5t-63.5 304.5q0 165 63.5 294t194.5 206.5t313 77.5q139 0 249 -45t180.5 -124t107.5 -183.5t37 -227.5zM266 569q0 -194 101 -316
t286 -122q186 0 287.5 121t101.5 315q0 119 -43 216t-133 157.5t-213 60.5q-93 0 -167.5 -34.5t-122 -94t-72.5 -137.5t-25 -166z" />
    <glyph glyph-name="Obreve.sc" horiz-adv-x="1308" 
d="M422 1403h119q5 -52 31 -76t81 -24t81.5 24t31.5 76h117q0 -96 -58.5 -149.5t-171.5 -53.5q-115 0 -173 53.5t-58 149.5zM1227 571q0 -128 -37 -235t-107.5 -187t-180.5 -124.5t-249 -44.5q-183 0 -313.5 78t-194 210.5t-63.5 304.5q0 165 63.5 294t194.5 206.5t313 77.5
q139 0 249 -45t180.5 -124t107.5 -183.5t37 -227.5zM266 569q0 -194 101 -316t286 -122q186 0 287.5 121t101.5 315q0 119 -43 216t-133 157.5t-213 60.5q-93 0 -167.5 -34.5t-122 -94t-72.5 -137.5t-25 -166z" />
    <glyph glyph-name="Ocircumflex.sc" horiz-adv-x="1308" 
d="M551 1227h-191l207 176h178l207 -176h-190l-107 78zM1227 571q0 -128 -37 -235t-107.5 -187t-180.5 -124.5t-249 -44.5q-183 0 -313.5 78t-194 210.5t-63.5 304.5q0 165 63.5 294t194.5 206.5t313 77.5q139 0 249 -45t180.5 -124t107.5 -183.5t37 -227.5zM266 569
q0 -194 101 -316t286 -122q186 0 287.5 121t101.5 315q0 119 -43 216t-133 157.5t-213 60.5q-93 0 -167.5 -34.5t-122 -94t-72.5 -137.5t-25 -166z" />
    <glyph glyph-name="Odieresis.sc" horiz-adv-x="1308" 
d="M752 1233v172h192v-172h-192zM369 1233v172h190v-172h-190zM1227 571q0 -128 -37 -235t-107.5 -187t-180.5 -124.5t-249 -44.5q-183 0 -313.5 78t-194 210.5t-63.5 304.5q0 165 63.5 294t194.5 206.5t313 77.5q139 0 249 -45t180.5 -124t107.5 -183.5t37 -227.5zM266 569
q0 -194 101 -316t286 -122q186 0 287.5 121t101.5 315q0 119 -43 216t-133 157.5t-213 60.5q-93 0 -167.5 -34.5t-122 -94t-72.5 -137.5t-25 -166z" />
    <glyph glyph-name="Ograve.sc" horiz-adv-x="1308" 
d="M285 1403h239l183 -178h-134zM1227 571q0 -128 -37 -235t-107.5 -187t-180.5 -124.5t-249 -44.5q-183 0 -313.5 78t-194 210.5t-63.5 304.5q0 165 63.5 294t194.5 206.5t313 77.5q139 0 249 -45t180.5 -124t107.5 -183.5t37 -227.5zM266 569q0 -194 101 -316t286 -122
q186 0 287.5 121t101.5 315q0 119 -43 216t-133 157.5t-213 60.5q-93 0 -167.5 -34.5t-122 -94t-72.5 -137.5t-25 -166z" />
    <glyph glyph-name="Ohungarumlaut.sc" horiz-adv-x="1308" 
d="M795 1403l-289 -178h-133l182 178h240zM1145 1403l-289 -178h-133l182 178h240zM1227 571q0 -128 -37 -235t-107.5 -187t-180.5 -124.5t-249 -44.5q-183 0 -313.5 78t-194 210.5t-63.5 304.5q0 165 63.5 294t194.5 206.5t313 77.5q139 0 249 -45t180.5 -124t107.5 -183.5
t37 -227.5zM266 569q0 -194 101 -316t286 -122q186 0 287.5 121t101.5 315q0 119 -43 216t-133 157.5t-213 60.5q-93 0 -167.5 -34.5t-122 -94t-72.5 -137.5t-25 -166z" />
    <glyph glyph-name="Omacron.sc" horiz-adv-x="1308" 
d="M432 1208v119h434v-119h-434zM1227 571q0 -128 -37 -235t-107.5 -187t-180.5 -124.5t-249 -44.5q-183 0 -313.5 78t-194 210.5t-63.5 304.5q0 165 63.5 294t194.5 206.5t313 77.5q139 0 249 -45t180.5 -124t107.5 -183.5t37 -227.5zM266 569q0 -194 101 -316t286 -122
q186 0 287.5 121t101.5 315q0 119 -43 216t-133 157.5t-213 60.5q-93 0 -167.5 -34.5t-122 -94t-72.5 -137.5t-25 -166z" />
    <glyph glyph-name="Oslash.sc" horiz-adv-x="1337" 
d="M1243 571q0 -128 -37 -235t-107 -187t-180 -124.5t-249 -44.5q-189 0 -320 81l-47 -57h-209l135 162q-131 158 -131 407q0 123 37 227.5t107.5 183t180.5 123t247 44.5q183 0 317 -78l62 74h213l-150 -178q131 -158 131 -398zM283 569q0 -150 63 -264l535 639
q-88 57 -211 57q-93 0 -167.5 -34.5t-122 -94t-72.5 -137.5t-25 -166zM1059 567q0 147 -66 258l-534 -637q85 -57 211 -57q186 0 287.5 121t101.5 315z" />
    <glyph glyph-name="Oslashacute.sc" horiz-adv-x="1327" 
d="M1016 1403l-289 -178h-133l182 178h240zM1239 571q0 -128 -37 -235t-107 -187t-180 -124.5t-249 -44.5q-173 0 -306 71l-41 -49h-208l125 152q-142 157 -142 419q0 123 37 227.5t107.5 183t180.5 123t247 44.5q193 0 331 -88l68 82h213l-160 -191q121 -154 121 -383z
M279 569q0 -168 73 -278l537 643q-89 67 -223 67q-93 0 -167.5 -34.5t-122 -94t-72.5 -137.5t-25 -166zM1055 567q0 140 -58 244l-528 -631q79 -49 197 -49q186 0 287.5 121t101.5 315z" />
    <glyph glyph-name="Otilde.sc" horiz-adv-x="1308" 
d="M526 1221h-102q0 78 44.5 127t111.5 49q40 0 71.5 -16t55 -32t41.5 -16q53 0 53 70h102q0 -78 -44 -127t-111 -49q-37 0 -86.5 31.5t-81.5 31.5q-54 0 -54 -69zM1227 571q0 -128 -37 -235t-107.5 -187t-180.5 -124.5t-249 -44.5q-183 0 -313.5 78t-194 210.5t-63.5 304.5
q0 165 63.5 294t194.5 206.5t313 77.5q139 0 249 -45t180.5 -124t107.5 -183.5t37 -227.5zM266 569q0 -194 101 -316t286 -122q186 0 287.5 121t101.5 315q0 119 -43 216t-133 157.5t-213 60.5q-93 0 -167.5 -34.5t-122 -94t-72.5 -137.5t-25 -166z" />
    <glyph glyph-name="OE.sc" horiz-adv-x="1908" 
d="M1047 131q-145 -151 -394 -151q-137 0 -246.5 45t-180 125.5t-107.5 188t-37 234.5q0 121 37 225t107 183t180 124.5t247 45.5q245 0 394 -152h4l-9 131h762v-151h-587v-317h563v-150h-563v-360h606v-152h-781l7 131h-2zM266 569q0 -192 101.5 -315t285.5 -123
q186 0 287.5 122t101.5 314q0 87 -25.5 164.5t-72.5 138t-122.5 96t-168.5 35.5q-122 0 -212 -61t-132.5 -157.5t-42.5 -213.5z" />
    <glyph glyph-name="P.sc" horiz-adv-x="1073" 
d="M342 0h-188l6 352v428l-6 350h456q189 0 298.5 -94.5t109.5 -257.5q0 -182 -116 -277t-312 -95h-252v-54zM338 983v-430h252q244 0 244 215q0 103 -58.5 159t-165.5 56h-272z" />
    <glyph glyph-name="Thorn.sc" horiz-adv-x="1089" 
d="M342 0h-188l6 352v428l-6 350h188l-4 -231h297q178 0 280.5 -83t102.5 -228q0 -165 -102.5 -260t-280.5 -95h-297zM338 752v-371h297q96 0 147.5 47.5t51.5 136.5t-52 138t-147 49h-297z" />
    <glyph glyph-name="Q.sc" horiz-adv-x="1308" 
d="M743 -254h-186l6 131l2 107q-232 29 -357.5 189t-125.5 400q0 165 63.5 294t194.5 206.5t313 77.5q139 0 249 -45t180.5 -124t107.5 -183.5t37 -227.5q0 -241 -125.5 -400.5t-360.5 -186.5l-2 -107zM266 569q0 -194 101 -316t286 -122q186 0 287.5 121t101.5 315
q0 119 -43 216t-133 157.5t-213 60.5q-93 0 -167.5 -34.5t-122 -94t-72.5 -137.5t-25 -166z" />
    <glyph glyph-name="R.sc" horiz-adv-x="1138" 
d="M342 0h-188l6 352v428l-6 350h460q187 0 296.5 -93t109.5 -253q0 -106 -61 -190t-166 -121v-6l299 -467h-213l-261 434h-280v-82zM338 983v-401h252q111 0 178.5 52.5t67.5 147.5q0 97 -58.5 149t-167.5 52h-272z" />
    <glyph glyph-name="Racute.sc" horiz-adv-x="1138" 
d="M854 1413l-289 -178h-133l182 178h240zM342 0h-188l6 352v428l-6 350h460q187 0 296.5 -93t109.5 -253q0 -106 -61 -190t-166 -121v-6l299 -467h-213l-261 434h-280v-82zM338 983v-401h252q111 0 178.5 52.5t67.5 147.5q0 97 -58.5 149t-167.5 52h-272z" />
    <glyph glyph-name="Rcaron.sc" horiz-adv-x="1138" 
d="M401 1417l105 -78l106 78h191l-207 -176h-178l-207 176h190zM342 0h-188l6 352v428l-6 350h460q187 0 296.5 -93t109.5 -253q0 -106 -61 -190t-166 -121v-6l299 -467h-213l-261 434h-280v-82zM338 983v-401h252q111 0 178.5 52.5t67.5 147.5q0 97 -58.5 149t-167.5 52
h-272z" />
    <glyph glyph-name="Rcommaaccent.sc" horiz-adv-x="1138" 
d="M342 0h-188l6 352v428l-6 350h460q187 0 296.5 -93t109.5 -253q0 -106 -61 -190t-166 -121v-6l299 -467h-213l-261 434h-280v-82zM338 983v-401h252q111 0 178.5 52.5t67.5 147.5q0 97 -58.5 149t-167.5 52h-272zM317 -371l103 330h174l-137 -330h-140z" />
    <glyph glyph-name="S.sc" horiz-adv-x="1122" 
d="M1057 332q0 -166 -133 -257t-367 -91q-229 0 -361.5 107.5t-132.5 293.5h185q0 -124 81 -191t232 -67q309 0 309 184q0 40 -17.5 72t-43.5 52t-71 37t-83 26t-96 20q-170 35 -228 55q-162 57 -204 175q-16 46 -16 104q0 138 116.5 218.5t315.5 80.5q209 0 334 -94.5
t131 -257.5h-185q-3 101 -74.5 156t-201.5 55q-120 0 -185 -39t-65 -111q0 -97 109 -144q53 -23 210 -55q5 -1 9 -2q53 -11 89 -19t85.5 -23t82.5 -31t69 -41t57 -54.5t35 -70t14 -88.5z" />
    <glyph glyph-name="Sacute.sc" horiz-adv-x="1122" 
d="M891 1413l-289 -178h-133l182 178h240zM1057 332q0 -166 -133 -257t-367 -91q-229 0 -361.5 107.5t-132.5 293.5h185q0 -124 81 -191t232 -67q309 0 309 184q0 40 -17.5 72t-43.5 52t-71 37t-83 26t-96 20q-170 35 -228 55q-162 57 -204 175q-16 46 -16 104
q0 138 116.5 218.5t315.5 80.5q209 0 334 -94.5t131 -257.5h-185q-3 101 -74.5 156t-201.5 55q-120 0 -185 -39t-65 -111q0 -97 109 -144q53 -23 210 -55q5 -1 9 -2q53 -11 89 -19t85.5 -23t82.5 -31t69 -41t57 -54.5t35 -70t14 -88.5z" />
    <glyph glyph-name="Scaron.sc" horiz-adv-x="1122" 
d="M438 1417l105 -78l106 78h191l-207 -176h-178l-207 176h190zM1057 332q0 -166 -133 -257t-367 -91q-229 0 -361.5 107.5t-132.5 293.5h185q0 -124 81 -191t232 -67q309 0 309 184q0 40 -17.5 72t-43.5 52t-71 37t-83 26t-96 20q-170 35 -228 55q-162 57 -204 175
q-16 46 -16 104q0 138 116.5 218.5t315.5 80.5q209 0 334 -94.5t131 -257.5h-185q-3 101 -74.5 156t-201.5 55q-120 0 -185 -39t-65 -111q0 -97 109 -144q53 -23 210 -55q5 -1 9 -2q53 -11 89 -19t85.5 -23t82.5 -31t69 -41t57 -54.5t35 -70t14 -88.5z" />
    <glyph glyph-name="Scedilla.sc" horiz-adv-x="1122" 
d="M567 -369q-67 0 -116.5 33t-49.5 82h109q0 -15 16.5 -26t40.5 -11q25 0 41.5 17t16.5 43q0 29 -22 48t-56 19h-84l26 150q-199 17 -312.5 122.5t-113.5 276.5h185q0 -124 81 -191t232 -67q309 0 309 184q0 40 -17.5 72t-43.5 52t-71 37t-83 26t-96 20q-170 35 -228 55
q-162 57 -204 175q-16 46 -16 104q0 138 116.5 218.5t315.5 80.5q209 0 334 -94.5t131 -257.5h-185q-3 101 -74.5 156t-201.5 55q-120 0 -185 -39t-65 -111q0 -97 109 -144q53 -23 210 -55q5 -1 9 -2q53 -11 89 -19t85.5 -23t82.5 -31t69 -41t57 -54.5t35 -70t14 -88.5
q0 -159 -122 -249.5t-339 -98.5l-12 -72q72 0 109.5 -39.5t37.5 -103.5q0 -61 -42.5 -99.5t-121.5 -38.5z" />
    <glyph glyph-name="Scircumflex.sc" horiz-adv-x="1122" 
d="M438 1237h-190l207 176h178l207 -176h-191l-106 78zM1057 332q0 -166 -133 -257t-367 -91q-229 0 -361.5 107.5t-132.5 293.5h185q0 -124 81 -191t232 -67q309 0 309 184q0 40 -17.5 72t-43.5 52t-71 37t-83 26t-96 20q-170 35 -228 55q-162 57 -204 175q-16 46 -16 104
q0 138 116.5 218.5t315.5 80.5q209 0 334 -94.5t131 -257.5h-185q-3 101 -74.5 156t-201.5 55q-120 0 -185 -39t-65 -111q0 -97 109 -144q53 -23 210 -55q5 -1 9 -2q53 -11 89 -19t85.5 -23t82.5 -31t69 -41t57 -54.5t35 -70t14 -88.5z" />
    <glyph glyph-name="Scommaaccent.sc" horiz-adv-x="1122" 
d="M1057 332q0 -166 -133 -257t-367 -91q-229 0 -361.5 107.5t-132.5 293.5h185q0 -124 81 -191t232 -67q309 0 309 184q0 40 -17.5 72t-43.5 52t-71 37t-83 26t-96 20q-170 35 -228 55q-162 57 -204 175q-16 46 -16 104q0 138 116.5 218.5t315.5 80.5q209 0 334 -94.5
t131 -257.5h-185q-3 101 -74.5 156t-201.5 55q-120 0 -185 -39t-65 -111q0 -97 109 -144q53 -23 210 -55q5 -1 9 -2q53 -11 89 -19t85.5 -23t82.5 -31t69 -41t57 -54.5t35 -70t14 -88.5zM369 -371l102 330h174l-137 -330h-139z" />
    <glyph glyph-name="Germandbls.sc" horiz-adv-x="1255" 
d="M326 0h-187l6 352v439q0 169 131.5 264.5t362.5 95.5q130 0 252.5 -38t204.5 -103l-178 -371q122 -26 194 -114.5t72 -205.5q0 -157 -105 -246t-288 -89q-111 0 -189 20l8 143q55 -18 166 -18q109 0 167 51t58 146q0 97 -76.5 156t-213.5 59l192 407q-124 53 -268 53
q-152 0 -232.5 -53.5t-80.5 -156.5v-439z" />
    <glyph glyph-name="Schwa.sc" horiz-adv-x="1249" 
d="M94 719q23 200 161 316t353 116q258 0 407.5 -159.5t149.5 -434.5q0 -267 -149.5 -422t-407.5 -155q-245 0 -386.5 168t-141.5 458h899q-9 190 -106 292.5t-267 102.5q-140 0 -226 -73t-101 -209h-185zM608 129q153 0 246.5 81.5t118.5 235.5h-690q28 -155 110.5 -236
t214.5 -81z" />
    <glyph glyph-name="T.sc" horiz-adv-x="993" 
d="M596 0h-195l9 352v629h-375v152h923v-152h-370v-629z" />
    <glyph glyph-name="Tbar.sc" horiz-adv-x="1005" 
d="M602 0h-194l8 352v316h-234v139h234v174h-375v152h924v-152h-371v-174h231v-139h-231v-316z" />
    <glyph glyph-name="Tcaron.sc" horiz-adv-x="993" 
d="M393 1417l105 -78l106 78h191l-207 -176h-178l-207 176h190zM596 0h-195l9 352v629h-375v152h923v-152h-370v-629z" />
    <glyph glyph-name="Tcedilla.sc" horiz-adv-x="993" 
d="M596 0h-55l-17 -88q72 0 110 -39.5t38 -103.5q0 -61 -42.5 -99.5t-121.5 -38.5q-67 0 -116.5 33t-49.5 82h109q0 -15 16.5 -26t40.5 -11q25 0 41 17t16 43q0 29 -22 48t-56 19h-84l29 164h-31l9 352v629h-375v152h923v-152h-370v-629z" />
    <glyph glyph-name="Tcommaaccent.sc" horiz-adv-x="993" 
d="M596 0h-195l9 352v629h-375v152h923v-152h-370v-629zM309 -371l103 330h174l-137 -330h-140z" />
    <glyph glyph-name="U.sc" horiz-adv-x="1224" 
d="M1081 424q0 -207 -124 -325.5t-341 -118.5q-220 0 -346.5 118.5t-126.5 325.5v356l-6 350h189l-4 -350v-346q0 -148 75.5 -226.5t216.5 -78.5q139 0 214 78.5t75 224.5v348l-4 350h188l-6 -350v-356z" />
    <glyph glyph-name="Uacute.sc" horiz-adv-x="1224" 
d="M963 1413l-289 -178h-133l182 178h240zM1081 424q0 -207 -124 -325.5t-341 -118.5q-220 0 -346.5 118.5t-126.5 325.5v356l-6 350h189l-4 -350v-346q0 -148 75.5 -226.5t216.5 -78.5q139 0 214 78.5t75 224.5v348l-4 350h188l-6 -350v-356z" />
    <glyph glyph-name="Ubreve.sc" horiz-adv-x="1224" 
d="M381 1413h119q5 -52 31 -76t81 -24t81.5 24t31.5 76h117q0 -96 -58.5 -149.5t-171.5 -53.5q-115 0 -173 53.5t-58 149.5zM1081 424q0 -207 -124 -325.5t-341 -118.5q-220 0 -346.5 118.5t-126.5 325.5v356l-6 350h189l-4 -350v-346q0 -148 75.5 -226.5t216.5 -78.5
q139 0 214 78.5t75 224.5v348l-4 350h188l-6 -350v-356z" />
    <glyph glyph-name="Ucaron.sc" horiz-adv-x="1224" 
d="M510 1417l104 -78l107 78h190l-206 -176h-179l-207 176h191zM1081 424q0 -207 -124 -325.5t-341 -118.5q-220 0 -346.5 118.5t-126.5 325.5v356l-6 350h189l-4 -350v-346q0 -148 75.5 -226.5t216.5 -78.5q139 0 214 78.5t75 224.5v348l-4 350h188l-6 -350v-356z" />
    <glyph glyph-name="Ucircumflex.sc" horiz-adv-x="1224" 
d="M510 1237h-191l207 176h179l206 -176h-190l-107 78zM1081 424q0 -207 -124 -325.5t-341 -118.5q-220 0 -346.5 118.5t-126.5 325.5v356l-6 350h189l-4 -350v-346q0 -148 75.5 -226.5t216.5 -78.5q139 0 214 78.5t75 224.5v348l-4 350h188l-6 -350v-356z" />
    <glyph glyph-name="Udieresis.sc" horiz-adv-x="1224" 
d="M711 1243v172h192v-172h-192zM328 1243v172h190v-172h-190zM1081 424q0 -207 -124 -325.5t-341 -118.5q-220 0 -346.5 118.5t-126.5 325.5v356l-6 350h189l-4 -350v-346q0 -148 75.5 -226.5t216.5 -78.5q139 0 214 78.5t75 224.5v348l-4 350h188l-6 -350v-356z" />
    <glyph glyph-name="Ugrave.sc" horiz-adv-x="1224" 
d="M244 1413h239l183 -178h-134zM1081 424q0 -207 -124 -325.5t-341 -118.5q-220 0 -346.5 118.5t-126.5 325.5v356l-6 350h189l-4 -350v-346q0 -148 75.5 -226.5t216.5 -78.5q139 0 214 78.5t75 224.5v348l-4 350h188l-6 -350v-356z" />
    <glyph glyph-name="Uhungarumlaut.sc" horiz-adv-x="1224" 
d="M754 1413l-289 -178h-133l182 178h240zM1104 1413l-289 -178h-133l182 178h240zM1081 424q0 -207 -124 -325.5t-341 -118.5q-220 0 -346.5 118.5t-126.5 325.5v356l-6 350h189l-4 -350v-346q0 -148 75.5 -226.5t216.5 -78.5q139 0 214 78.5t75 224.5v348l-4 350h188
l-6 -350v-356z" />
    <glyph glyph-name="Umacron.sc" horiz-adv-x="1224" 
d="M391 1219v118h434v-118h-434zM1081 424q0 -207 -124 -325.5t-341 -118.5q-220 0 -346.5 118.5t-126.5 325.5v356l-6 350h189l-4 -350v-346q0 -148 75.5 -226.5t216.5 -78.5q139 0 214 78.5t75 224.5v348l-4 350h188l-6 -350v-356z" />
    <glyph glyph-name="Uogonek.sc" horiz-adv-x="1224" 
d="M799 -309q-43 -23 -113 -41.5t-131 -18.5q-92 0 -143.5 37.5t-51.5 100.5q0 117 160 217q-178 25 -277.5 139.5t-99.5 298.5v356l-6 350h189l-4 -350v-346q0 -148 75.5 -226.5t216.5 -78.5q139 0 214 78.5t75 224.5v348l-4 350h188l-6 -350v-356q0 -169 -83.5 -280
t-235.5 -148q-131 -52 -176 -89t-45 -77q0 -59 96 -59q29 0 79 13t83 28v-121z" />
    <glyph glyph-name="Uring.sc" horiz-adv-x="1224" 
d="M614 1139q-66 0 -109.5 40.5t-43.5 102.5t43.5 102.5t109.5 40.5t110 -41t44 -102t-44 -102t-110 -41zM614 1217q31 0 51.5 18.5t20.5 46.5q0 29 -20.5 48.5t-51.5 19.5t-51 -19.5t-20 -48.5q0 -28 20 -46.5t51 -18.5zM1081 424q0 -207 -124 -325.5t-341 -118.5
q-220 0 -346.5 118.5t-126.5 325.5v356l-6 350h189l-4 -350v-346q0 -148 75.5 -226.5t216.5 -78.5q139 0 214 78.5t75 224.5v348l-4 350h188l-6 -350v-356z" />
    <glyph glyph-name="Utilde.sc" horiz-adv-x="1224" 
d="M485 1231h-102q0 78 44.5 127t111.5 49q40 0 71.5 -16t55 -32t41.5 -16q53 0 53 70h102q0 -78 -44 -127t-111 -49q-37 0 -86.5 31.5t-81.5 31.5q-54 0 -54 -69zM1081 424q0 -207 -124 -325.5t-341 -118.5q-220 0 -346.5 118.5t-126.5 325.5v356l-6 350h189l-4 -350v-346
q0 -148 75.5 -226.5t216.5 -78.5q139 0 214 78.5t75 224.5v348l-4 350h188l-6 -350v-356z" />
    <glyph glyph-name="V.sc" horiz-adv-x="1185" 
d="M684 0h-182l-318 780l-155 350h223l131 -350l211 -544h4l205 544l129 350h223l-154 -350z" />
    <glyph glyph-name="W.sc" horiz-adv-x="1615" 
d="M590 0h-197l-243 780l-111 350h209l96 -350l154 -534h4l225 524l-117 360h203l109 -360l192 -524h4l154 534l96 350h209l-111 -350l-243 -780h-197l-209 539h-2z" />
    <glyph glyph-name="Wacute.sc" horiz-adv-x="1615" 
d="M1153 1413l-289 -178h-133l182 178h240zM590 0h-197l-243 780l-111 350h209l96 -350l154 -534h4l225 524l-117 360h203l109 -360l192 -524h4l154 534l96 350h209l-111 -350l-243 -780h-197l-209 539h-2z" />
    <glyph glyph-name="Wcircumflex.sc" horiz-adv-x="1615" 
d="M700 1237h-190l207 176h178l207 -176h-191l-106 78zM590 0h-197l-243 780l-111 350h209l96 -350l154 -534h4l225 524l-117 360h203l109 -360l192 -524h4l154 534l96 350h209l-111 -350l-243 -780h-197l-209 539h-2z" />
    <glyph glyph-name="Wdieresis.sc" horiz-adv-x="1615" 
d="M901 1243v172h193v-172h-193zM518 1243v172h191v-172h-191zM590 0h-197l-243 780l-111 350h209l96 -350l154 -534h4l225 524l-117 360h203l109 -360l192 -524h4l154 534l96 350h209l-111 -350l-243 -780h-197l-209 539h-2z" />
    <glyph glyph-name="Wgrave.sc" horiz-adv-x="1615" 
d="M434 1413h240l182 -178h-133zM590 0h-197l-243 780l-111 350h209l96 -350l154 -534h4l225 524l-117 360h203l109 -360l192 -524h4l154 534l96 350h209l-111 -350l-243 -780h-197l-209 539h-2z" />
    <glyph glyph-name="X.sc" horiz-adv-x="1101" 
d="M256 0h-244l246 352l160 238v4l-125 186l-250 350h246l209 -350l41 -63h6l47 63l205 350h252l-258 -350l-115 -172v-4l176 -252l246 -352h-250l-221 352l-72 115h-6l-78 -115z" />
    <glyph glyph-name="Y.sc" horiz-adv-x="1112" 
d="M649 0h-188l6 352v35l-217 393l-209 350h242l170 -350l100 -202h4l100 202l174 350h242l-211 -350l-217 -393v-35z" />
    <glyph glyph-name="Yacute.sc" horiz-adv-x="1112" 
d="M901 1413l-289 -178h-133l183 178h239zM649 0h-188l6 352v35l-217 393l-209 350h242l170 -350l100 -202h4l100 202l174 350h242l-211 -350l-217 -393v-35z" />
    <glyph glyph-name="Ycircumflex.sc" horiz-adv-x="1112" 
d="M449 1237h-191l207 176h178l207 -176h-191l-106 78zM649 0h-188l6 352v35l-217 393l-209 350h242l170 -350l100 -202h4l100 202l174 350h242l-211 -350l-217 -393v-35z" />
    <glyph glyph-name="Ydieresis.sc" horiz-adv-x="1112" 
d="M649 1243v172h193v-172h-193zM266 1243v172h191v-172h-191zM649 0h-188l6 352v35l-217 393l-209 350h242l170 -350l100 -202h4l100 202l174 350h242l-211 -350l-217 -393v-35z" />
    <glyph glyph-name="Ygrave.sc" horiz-adv-x="1112" 
d="M182 1413h240l182 -178h-133zM649 0h-188l6 352v35l-217 393l-209 350h242l170 -350l100 -202h4l100 202l174 350h242l-211 -350l-217 -393v-35z" />
    <glyph glyph-name="Ymacron.sc" horiz-adv-x="1112" 
d="M330 1219v118h434v-118h-434zM649 0h-188l6 352v35l-217 393l-209 350h242l170 -350l100 -202h4l100 202l174 350h242l-211 -350l-217 -393v-35z" />
    <glyph glyph-name="Z.sc" horiz-adv-x="1011" 
d="M948 0h-891v133l629 842v4h-594v151h836v-131l-637 -843v-4h657v-152z" />
    <glyph glyph-name="Zacute.sc" horiz-adv-x="1011" 
d="M858 1413l-289 -178h-133l182 178h240zM948 0h-891v133l629 842v4h-594v151h836v-131l-637 -843v-4h657v-152z" />
    <glyph glyph-name="Zcaron.sc" horiz-adv-x="1011" 
d="M406 1417l104 -78l106 78h191l-207 -176h-178l-207 176h191zM948 0h-891v133l629 842v4h-594v151h836v-131l-637 -843v-4h657v-152z" />
    <glyph glyph-name="Zdotaccent.sc" horiz-adv-x="1011" 
d="M416 1223v190h190v-190h-190zM948 0h-891v133l629 842v4h-594v151h836v-131l-637 -843v-4h657v-152z" />
    <glyph glyph-name="Aacute.loclPLK.sc" horiz-adv-x="1191" 
d="M518 1223l49 190h183l-78 -190h-154zM238 0h-205l141 352l293 778h260l293 -778l139 -352h-205l-112 311h-492zM592 954l-184 -491h376l-184 491h-8z" />
    <glyph glyph-name="Cacute.loclPLK.sc" horiz-adv-x="1216" 
d="M561 1223l49 190h183l-78 -190h-154zM1153 412q-23 -201 -161 -316.5t-353 -115.5q-258 0 -407.5 158.5t-149.5 434.5q0 268 149.5 423t407.5 155q221 0 357 -109.5t151 -300.5h-184q-19 126 -103 193t-221 67q-180 0 -276.5 -112.5t-96.5 -319.5q0 -212 97.5 -326
t277.5 -114q143 0 228 73.5t100 209.5h184z" />
    <glyph glyph-name="Eacute.loclPLK.sc" horiz-adv-x="1026" 
d="M461 1223l49 190h182l-78 -190h-153zM940 0h-786l6 352v428l-6 350h768v-151h-588v-317h563v-150h-563v-360h606v-152z" />
    <glyph glyph-name="Iacute.loclPLK.sc" horiz-adv-x="497" 
d="M170 1223l49 190h182l-77 -190h-154zM342 0h-188l6 352v428l-6 350h188l-4 -350v-428z" />
    <glyph glyph-name="Nacute.loclPLK.sc" horiz-adv-x="1314" 
d="M580 1223l49 190h182l-78 -190h-153zM342 0h-188l6 352v428l-6 350h168l514 -659l137 -176h6v485l-6 350h188l-6 -350v-428l6 -352h-190l-522 674l-109 145h-4v-467z" />
    <glyph glyph-name="Oacute.loclPLK.sc" horiz-adv-x="1308" 
d="M578 1212l49 191h182l-78 -191h-153zM1227 571q0 -128 -37 -235t-107.5 -187t-180.5 -124.5t-249 -44.5q-183 0 -313.5 78t-194 210.5t-63.5 304.5q0 165 63.5 294t194.5 206.5t313 77.5q139 0 249 -45t180.5 -124t107.5 -183.5t37 -227.5zM266 569q0 -194 101 -316
t286 -122q186 0 287.5 121t101.5 315q0 119 -43 216t-133 157.5t-213 60.5q-93 0 -167.5 -34.5t-122 -94t-72.5 -137.5t-25 -166z" />
    <glyph glyph-name="Sacute.loclPLK.sc" horiz-adv-x="1122" 
d="M465 1223l49 190h182l-78 -190h-153zM1057 332q0 -166 -133 -257t-367 -91q-229 0 -361.5 107.5t-132.5 293.5h185q0 -124 81 -191t232 -67q309 0 309 184q0 40 -17.5 72t-43.5 52t-71 37t-83 26t-96 20q-170 35 -228 55q-162 57 -204 175q-16 46 -16 104
q0 138 116.5 218.5t315.5 80.5q209 0 334 -94.5t131 -257.5h-185q-3 101 -74.5 156t-201.5 55q-120 0 -185 -39t-65 -111q0 -97 109 -144q53 -23 210 -55q5 -1 9 -2q53 -11 89 -19t85.5 -23t82.5 -31t69 -41t57 -54.5t35 -70t14 -88.5z" />
    <glyph glyph-name="Uacute.loclPLK.sc" horiz-adv-x="1224" 
d="M537 1223l49 190h182l-78 -190h-153zM1081 424q0 -207 -124 -325.5t-341 -118.5q-220 0 -346.5 118.5t-126.5 325.5v356l-6 350h189l-4 -350v-346q0 -148 75.5 -226.5t216.5 -78.5q139 0 214 78.5t75 224.5v348l-4 350h188l-6 -350v-356z" />
    <glyph glyph-name="Zacute.loclPLK.sc" horiz-adv-x="1011" 
d="M432 1223l49 190h183l-78 -190h-154zM948 0h-891v133l629 842v4h-594v151h836v-131l-637 -843v-4h657v-152z" />
    <glyph glyph-name="a.sups" horiz-adv-x="770" 
d="M522 901q-73 -115 -233 -115q-104 0 -163.5 44t-59.5 128q0 107 111.5 163.5t322.5 56.5v41q0 47 -34 73.5t-95 26.5q-69 0 -106.5 -26.5t-37.5 -75.5h-133q0 101 74.5 159t202.5 58q123 0 194.5 -65t71.5 -179v-219q0 -62 37 -62q45 0 74 13v-95q-77 -41 -138 -41
q-40 0 -63 21.5t-23 56.5v37h-2zM203 965q0 -31 26.5 -48.5t69.5 -17.5q97 0 149 43t52 123v22q-153 0 -225 -28.5t-72 -93.5z" />
    <glyph glyph-name="d.sups" horiz-adv-x="778" 
d="M522 889q-22 -48 -72 -75.5t-116 -27.5q-111 0 -187.5 87t-76.5 229q0 154 70.5 243t193.5 89q58 0 108.5 -27.5t79.5 -75.5h6v82l-2 225h142l-2 -225v-405l2 -209h-142l2 90h-6zM229 1108q0 -195 150 -195q145 0 145 191q0 205 -151 205q-144 0 -144 -201z" />
    <glyph glyph-name="egrave.sups" horiz-adv-x="757" 
d="M154 1651h165l117 -166h-112zM682 1028q-11 -111 -92 -175.5t-211 -64.5q-143 0 -226 86.5t-83 235.5q0 150 83 237t226 87t226 -87t83 -237v-25h-459q4 -83 49.5 -132.5t110.5 -49.5q58 0 98.5 34t44.5 91h150zM381 1319q-65 0 -104 -33.5t-39 -93.5h290q0 60 -40 93.5
t-107 33.5z" />
    <glyph glyph-name="n.sups" horiz-adv-x="763" 
d="M264 799h-151l2 209l-2 190l-2 225h141l-2 -118h2q75 129 215 129q85 0 138.5 -64.5t53.5 -171.5v-190l3 -209h-154l6 209v155q0 69 -29.5 107.5t-76.5 38.5q-66 0 -106 -42.5t-40 -117.5v-141z" />
    <glyph glyph-name="o.sups" horiz-adv-x="784" 
d="M715 1108q0 -149 -86.5 -235.5t-237.5 -86.5q-149 0 -235 86.5t-86 235.5q0 151 86 238.5t235 87.5q151 0 237.5 -87.5t86.5 -238.5zM229 1110q0 -100 42 -154.5t120 -54.5t121 54.5t43 154.5t-43 154.5t-121 54.5t-120 -54.5t-42 -154.5z" />
    <glyph glyph-name="r.sups" horiz-adv-x="589" 
d="M264 799h-151l2 209l-2 190l-2 225h141l-2 -118h2q63 129 186 129q70 0 109 -25l-4 -129q-65 33 -123 33q-75 0 -116.5 -46t-41.5 -132v-127z" />
    <glyph glyph-name="s.sups" horiz-adv-x="661" 
d="M600 981q0 -94 -71.5 -144.5t-198.5 -50.5q-129 0 -200 55t-71 165h138q0 -51 34.5 -79t98.5 -28q133 0 133 84q0 24 -21 40t-54.5 24.5t-74.5 16t-81.5 20t-74 32t-54.5 56.5t-21 88q0 82 65 128t177 46q117 0 187.5 -57t70.5 -154h-138q0 47 -30 72.5t-86 25.5
q-109 0 -109 -76q0 -27 21 -44.5t54.5 -26t74.5 -15.5t81.5 -18t74 -28t54.5 -50.5t21 -81.5z" />
    <glyph glyph-name="t.sups" horiz-adv-x="598" 
d="M543 827q-100 -41 -168 -41q-100 0 -157.5 59.5t-57.5 162.5v288h-115v125h133l-2 140h135l-2 -140h238v-125h-238v-274q0 -60 19.5 -86.5t60.5 -26.5q56 0 154 33v-115z" />
    <glyph glyph-name="zero.lf" horiz-adv-x="1179" 
d="M590 -20q-229 0 -358.5 194.5t-129.5 532.5t130.5 532.5t359.5 194.5q228 0 356.5 -194.5t128.5 -532.5t-129 -532.5t-358 -194.5zM590 1294q-150 0 -227.5 -151t-77.5 -436t77.5 -436.5t227.5 -151.5t227.5 151.5t77.5 436.5t-77.5 436t-227.5 151z" />
    <glyph glyph-name="one.lf" horiz-adv-x="923" 
d="M92 0v180h342l2 172v858q-34 -28 -163 -103.5t-181 -100.5v165q53 27 185.5 114t175.5 128h168l-5 -369v-692l2 -172h265v-180h-791z" />
    <glyph glyph-name="two.lf" horiz-adv-x="1124" 
d="M731 604l-407 -452h725v-152h-967v131l543 596q92 102 125 150q63 95 63 184q0 113 -64 173t-188 60q-134 0 -206 -97t-72 -277h-181q0 238 125.5 376t343.5 138q198 0 310 -100t112 -273q0 -68 -13 -121t-50 -109t-78 -101.5t-121 -125.5z" />
    <glyph glyph-name="three.lf" horiz-adv-x="1187" 
d="M590 1434q213 0 332.5 -95t119.5 -260q0 -112 -68.5 -192.5t-189.5 -114.5v-4q142 -31 225 -130t83 -235q0 -197 -132 -310t-366 -113q-242 0 -378 120t-136 328h174q0 -149 85.5 -228t250.5 -79q158 0 239.5 72.5t81.5 209.5q0 134 -97 205.5t-282 71.5h-75v143h49
q176 0 267 62t91 178q0 113 -69 172t-205 59q-142 0 -215.5 -76.5t-75.5 -222.5h-174q0 204 123.5 321.5t341.5 117.5z" />
    <glyph glyph-name="four.lf" horiz-adv-x="1142" 
d="M47 365v127l600 921h246l-6 -366v-541h198v-141h-198v-56l6 -309h-186l6 309v56h-666zM227 506h486v541l-2 198z" />
    <glyph glyph-name="five.lf" horiz-adv-x="1122" 
d="M86 377h178q-3 -124 70.5 -190t220.5 -66q149 0 226 91t77 261q0 173 -76.5 264.5t-224.5 91.5q-216 0 -264 -188h-162l49 772h770l-2 -139h-624l-31 -438h4q46 62 126.5 97.5t178.5 35.5q206 0 322 -131.5t116 -360.5q0 -230 -126.5 -363.5t-350.5 -133.5
q-225 0 -351 106t-126 291z" />
    <glyph glyph-name="six.lf" horiz-adv-x="1171" 
d="M201 158q-34 51 -54.5 113.5t-29.5 140t-11 135.5t-2 151q0 343 139 539.5t386 196.5q186 0 293.5 -91.5t113.5 -252.5h-182q-8 96 -67.5 150t-161.5 54q-158 0 -250 -154.5t-92 -408.5h4q105 193 356 193q206 0 322 -127t116 -348q0 -219 -124.5 -344t-346.5 -125
q-291 0 -409 178zM604 784q-150 0 -227.5 -85t-77.5 -246q0 -162 77.5 -249t227.5 -87q146 0 221.5 86.5t75.5 249.5q0 161 -75 246t-222 85z" />
    <glyph glyph-name="seven.lf" horiz-adv-x="1011" 
d="M43 1257v156h911v-137q-183 -353 -312 -661t-202 -615h-170q138 567 494 1253v4h-721z" />
    <glyph glyph-name="eight.lf" horiz-adv-x="1179" 
d="M367 762q-99 36 -160.5 122.5t-61.5 196.5q0 164 117.5 258.5t325.5 94.5t325 -94.5t117 -258.5q0 -109 -59.5 -197t-155.5 -120v-4q268 -96 268 -381q0 -187 -130.5 -293t-362.5 -106q-231 0 -361.5 106.5t-130.5 292.5q0 140 76 243t193 136v4zM588 1294
q-128 0 -194 -59t-66 -170q0 -116 66 -178t194 -62q129 0 195.5 61.5t66.5 178.5q0 111 -66.5 170t-195.5 59zM592 686q-154 0 -233.5 -73.5t-79.5 -211.5q0 -136 79.5 -208t233.5 -72q151 0 230 72t79 208q0 137 -79 211t-230 74z" />
    <glyph glyph-name="nine.lf" horiz-adv-x="1153" 
d="M518 518q-202 0 -315 122t-113 335t120 336t333 123q78 0 142.5 -12t105 -29t75.5 -44t52.5 -47.5t37.5 -48.5q95 -133 95 -467q0 -375 -136 -590.5t-378 -215.5q-196 0 -305 101t-115 281h182q5 -116 66.5 -180.5t177.5 -64.5q141 0 233 160t92 415h-6
q-54 -90 -134.5 -132t-209.5 -42zM559 1296q-142 0 -215.5 -82t-73.5 -237t74.5 -236.5t218.5 -81.5q140 0 213.5 80t75.5 230q2 159 -72.5 243t-220.5 84z" />
    <glyph glyph-name="zero.osf" horiz-adv-x="1110" 
d="M598 -20q-215 0 -340 157t-125 428q0 272 125 429t342 157q215 0 339 -157t124 -429q0 -271 -125 -428t-340 -157zM598 1012q-136 0 -209.5 -116t-73.5 -331t74 -330.5t211 -115.5q137 2 210 117t73 329q0 215 -74 331t-211 116z" />
    <glyph glyph-name="one.osf" horiz-adv-x="1013" 
d="M481 956q-44 -31 -157.5 -79.5t-165.5 -61.5v164q254 99 325 170h185l-6 -477v-320l4 -213h342v-139h-895v139h364l4 213v604z" />
    <glyph glyph-name="two.osf" horiz-adv-x="1048" 
d="M748 516l-365 -364h643v-152h-913v106l520 515q63 63 96 117.5t33 121.5q0 64 -57 108t-146 44q-116 0 -178 -70.5t-62 -200.5h-180q0 196 112.5 303t319.5 107q167 0 269 -84.5t102 -212.5q0 -50 -13 -94t-44 -87.5t-58.5 -74.5t-78.5 -82z" />
    <glyph glyph-name="three.osf" horiz-adv-x="1112" 
d="M1083 186q0 -187 -129.5 -295t-353.5 -108q-232 0 -366 115t-134 313h174q0 -138 83.5 -212.5t238.5 -74.5q148 0 227.5 68t79.5 194q0 114 -84 175t-239 61l-150 -4v69l385 494v8h-649v141h829v-186l-305 -383q179 0 286 -101t107 -274z" />
    <glyph glyph-name="four.osf" horiz-adv-x="1157" 
d="M739 549h166v-303h234v-142h-234v-79l6 -244h-178l6 244v79h-635v134l562 892h182l-574 -886h465v305z" />
    </font>
</defs>
</svg>
