<svg xmlns="http://www.w3.org/2000/svg" xmlns:xlink="http://www.w3.org/1999/xlink" width="348.429" height="183.427" viewBox="0 0 348.429 183.427">
  <g id="Group_8" data-name="Group 8">
    <path id="Path_20" data-name="Path 20" d="M188.819,88.523V86.858h1.413c.622,0,1.222.1,1.222.815,0,.97-1.007.85-1.725.85Zm0,.6h1.1l1.45,2.288h.742l-1.533-2.288c.9-.073,1.593-.443,1.593-1.439,0-.923-.454-1.426-1.8-1.426h-2.215v5.153h.658Zm1.03,3.534a3.787,3.787,0,1,1,3.774-3.8,3.664,3.664,0,0,1-3.774,3.8m0,.718a4.5,4.5,0,1,0-4.516-4.516,4.507,4.507,0,0,0,4.516,4.516" transform="translate(114.321 52.04)"/>
    <path id="Path_21" data-name="Path 21" d="M13.822,42.823V16.4l-.136-8.2H0V6.234H29.677V8.2H16.058l-.136,8.2V42.823l.136,10.233H13.687Z" transform="translate(0 3.845)"/>
    <path id="Path_22" data-name="Path 22" d="M23.6,42.823V16.4L23.467,6.234h2.372L25.7,16.4V27.1h28.39V16.4L53.958,6.234H56.33L56.194,16.4V42.823l.136,10.233H53.958l.136-10.233V29.068H25.7V42.823l.136,10.233H23.467Z" transform="translate(14.476 3.845)"/>
    <path id="Path_23" data-name="Path 23" d="M76.1,35.369l-9.418-26.9h-.136l-9.418,26.9ZM65.264,6.234h2.71L84.71,53.054H82.2l-2.236-6.91-3.185-8.81H56.455l-3.184,8.81-2.236,6.91H48.528Z" transform="translate(29.934 3.845)"/>
    <path id="Path_24" data-name="Path 24" d="M85.691,42.823V16.4l-.136-8.2H71.869V6.234h29.677V8.2H87.927l-.136,8.2V42.823l.136,10.233H85.555Z" transform="translate(44.332 3.845)"/>
    <path id="Path_25" data-name="Path 25" d="M113.584,37.92c0,10.5,5.827,14.568,14.5,14.568,9.282,0,14.7-4.2,14.7-12.062,0-16.872-30.49-3.184-30.49-22.765,0-7.725,7.454-12.264,15.719-12.264,9.961,0,15.991,6.1,16.33,14.7H141.7c-.2-7.725-5.15-12.6-13.822-12.6-8.265,0-13.347,4.54-13.347,10.1,0,17.347,30.49,3.321,30.49,23.173,0,8.065-5.421,13.824-17.075,13.824-9.96,0-16.938-4.812-16.938-16.668Z" transform="translate(68.475 3.329)"/>
    <path id="Path_26" data-name="Path 26" d="M115.862,10.32A10.318,10.318,0,1,1,105.545,0a10.316,10.316,0,0,1,10.317,10.32" transform="translate(58.739 0)"/>
    <path id="Path_27" data-name="Path 27" d="M129.695,68.888a24.034,24.034,0,1,1-24.033-24.036,24.033,24.033,0,0,1,24.033,24.036" transform="translate(50.35 27.666)"/>
    <path id="Path_28" data-name="Path 28" d="M105.329,107.754A24.034,24.034,0,1,1,81.3,83.718a24.033,24.033,0,0,1,24.033,24.036" transform="translate(35.32 51.641)"/>
    <path id="Path_29" data-name="Path 29" d="M55.795,68.734c0-13.551,6.031-24.461,19.582-24.461,10.705,0,16.668,7.116,17.345,16.6H90.554c-.745-8.807-5.893-14.5-15.245-14.5-12.2,0-17.278,10.367-17.278,22.565s5.15,22.427,17.345,22.427c9.826,0,14.636-6.37,15.109-15.449h2.236c-.947,10.571-6.233,17.549-17.345,17.549-13.551,0-19.582-11.18-19.582-24.731" transform="translate(34.417 27.309)"/>
    <path id="Path_30" data-name="Path 30" d="M116.569,81.7V55.275l-.136-10.163h2.236l22.97,32.862,6.978,10.1h.136l-.068-32.794-.136-10.163h2.372l-.136,10.163V81.7l.136,10.231h-2.236L124.632,57.239l-5.963-8.6H118.6L118.67,81.7l.136,10.231h-2.372Z" transform="translate(71.821 27.826)"/>
    <path id="Path_31" data-name="Path 31" d="M156.7,81.7V55.275l-.136-8.2H142.876V45.111h29.677v1.964H158.935l-.136,8.2V81.7l.136,10.231h-2.372Z" transform="translate(88.132 27.826)"/>
    <path id="Path_32" data-name="Path 32" d="M166.437,81.7V55.275L166.3,45.111h26.426v1.964H168.674l-.136,19.379h23.24V68.42h-23.24l.136,21.548H193.4v1.964H166.3Z" transform="translate(102.581 27.826)"/>
    <path id="Path_33" data-name="Path 33" d="M189.863,81.7V55.343l-.136-10.231h3.389l17.548,40.925h.068l17.279-40.925H231.4l-.136,10.231V81.7l.136,10.231h-2.372l.136-10.163V55.343l.068-7.452h-.068L211.613,89.9h-1.761L192.031,47.891h-.068V81.7l.136,10.231h-2.372Z" transform="translate(117.031 27.826)"/>
    <path id="Path_34" data-name="Path 34" d="M50.983,108.951c8.809,0,13.281-4.066,13.281-11.452,0-5.893-3.523-11.045-11.518-11.045H40.21l-.136,22.5ZM37.974,121.079V94.653L37.838,84.49H53.355c8.673,0,13.145,5.693,13.145,13.347,0,7.523-4.676,13.079-14.636,13.079H40.074v10.163l.136,10.23H37.838Z" transform="translate(23.34 52.117)"/>
    <path id="Path_35" data-name="Path 35" d="M105.572,108.07c8.537,0,13.009-4.2,13.009-10.571,0-5.893-2.981-11.045-12.535-11.045H92.969l-.136,21.616ZM90.733,121.079V94.653L90.6,84.49h15.855c9.352,0,14.366,5.285,14.366,13.009,0,5.895-3.931,11.724-12.13,12.264v.068l12.739,21.478h-2.711l-12.534-21.274H92.833v11.045l.136,10.23H90.6Z" transform="translate(55.884 52.117)"/>
    <path id="Path_36" data-name="Path 36" d="M139.8,113.625l-9.418-26.9h-.136l-9.418,26.9ZM128.957,84.49h2.71L148.4,131.309H145.9L143.66,124.4l-3.185-8.81H120.148l-3.185,8.81-2.234,6.909h-2.508Z" transform="translate(69.222 52.117)"/>
    <path id="Path_37" data-name="Path 37" d="M154.435,108.07c8.537,0,13.009-4.2,13.009-10.571,0-5.893-2.981-11.045-12.535-11.045H141.832L141.7,108.07ZM139.6,121.079V94.653L139.46,84.49h15.855c9.352,0,14.366,5.285,14.366,13.009,0,5.895-3.931,11.724-12.13,12.264v.068l12.739,21.478h-2.711l-12.534-21.274H141.7v11.045l.136,10.23H139.46Z" transform="translate(86.024 52.117)"/>
    <path id="Path_38" data-name="Path 38" d="M176.561,121.079v-6.64L160.706,84.49h2.71l14.094,27.375h.068L191.265,84.49h2.71l-15.313,29.949v6.64l.136,10.23h-2.372Z" transform="translate(99.13 52.117)"/>
  </g>
</svg>
