<svg xmlns="http://www.w3.org/2000/svg" xmlns:xlink="http://www.w3.org/1999/xlink" width="100%" height="100%" viewBox="0 0 713.257 55.335">
  <defs>
    <clipPath id="clip-path">
      <rect id="Rectangle_1" data-name="Rectangle 1" width="713.257" height="55.335"/>
    </clipPath>
  </defs>
  <g id="Group_1" data-name="Group 1" clip-path="url(#clip-path)">
    <path id="Path_1" data-name="Path 1" d="M459.474,10.027V8.436h1.35c.595,0,1.168.091,1.168.779,0,.928-.962.813-1.648.813Zm0,.573h1.052l1.386,2.186h.709L461.156,10.6c.859-.07,1.522-.423,1.522-1.375,0-.882-.434-1.363-1.716-1.363h-2.116v4.923h.629Zm.984,3.377a3.5,3.5,0,0,1-3.629-3.629,3.617,3.617,0,0,1,7.234,0,3.488,3.488,0,0,1-3.606,3.629m0,.686a4.3,4.3,0,1,0-4.316-4.315,4.306,4.306,0,0,0,4.316,4.315" transform="translate(248.506 3.298)"/>
    <path id="Path_2" data-name="Path 2" d="M13.206,41.192V15.944l-.13-7.834H0V6.234H28.355V8.11H15.343l-.13,7.834V41.192l.13,9.775H13.077Z" transform="translate(0 3.395)"/>
    <path id="Path_3" data-name="Path 3" d="M23.6,41.192V15.944l-.13-9.711h2.266l-.13,9.711v10.23H52.729V15.944L52.6,6.234h2.266l-.13,9.711V41.192l.13,9.775H52.6l.13-9.775V28.051H25.6V41.192l.13,9.775H23.467Z" transform="translate(12.785 3.395)"/>
    <path id="Path_4" data-name="Path 4" d="M74.876,34.071l-9-25.7h-.13l-9,25.7ZM64.518,6.234h2.589L83.1,50.968H80.7l-2.136-6.6-3.043-8.418H56.1l-3.043,8.418-2.135,6.6h-2.4Z" transform="translate(26.438 3.396)"/>
    <path id="Path_5" data-name="Path 5" d="M85.075,41.192V15.944l-.13-7.834H71.869V6.234h28.355V8.11H87.212l-.13,7.834V41.192l.13,9.775H84.946Z" transform="translate(39.154 3.395)"/>
    <path id="Path_6" data-name="Path 6" d="M113.47,36.47c0,10.033,5.567,13.919,13.854,13.919,8.869,0,14.048-4.013,14.048-11.524,0-16.12-29.132-3.042-29.132-21.751,0-7.383,7.12-11.717,15.019-11.717,9.518,0,15.278,5.825,15.6,14.047h-2.526c-.193-7.38-4.92-12.042-13.206-12.042-7.9,0-12.752,4.338-12.752,9.646,0,16.574,29.132,3.173,29.132,22.14,0,7.705-5.18,13.208-16.315,13.208-9.516,0-16.185-4.6-16.185-15.925Z" transform="translate(60.478 2.939)"/>
    <path id="Path_7" data-name="Path 7" d="M114.942,9.859A9.858,9.858,0,1,1,105.085,0a9.858,9.858,0,0,1,9.857,9.859" transform="translate(51.879 -0.001)"/>
    <path id="Path_8" data-name="Path 8" d="M212.4,28.939A22.963,22.963,0,1,1,189.436,5.974,22.962,22.962,0,0,1,212.4,28.939" transform="translate(90.693 3.254)"/>
    <path id="Path_9" data-name="Path 9" d="M374,28.372A22.963,22.963,0,1,1,351.034,5.407,22.962,22.962,0,0,1,374,28.372" transform="translate(178.732 2.945)"/>
    <path id="Path_10" data-name="Path 10" d="M140.64,28.766c0-12.947,5.762-23.371,18.709-23.371,10.228,0,15.925,6.8,16.573,15.86H173.85C173.138,12.841,168.219,7.4,159.284,7.4c-11.652,0-16.508,9.905-16.508,21.559s4.92,21.428,16.573,21.428c9.388,0,13.984-6.087,14.436-14.761h2.136c-.905,10.1-5.955,16.767-16.573,16.767-12.947,0-18.709-10.682-18.709-23.629" transform="translate(76.621 2.939)"/>
    <path id="Path_11" data-name="Path 11" d="M201.408,41.192V15.944l-.13-9.711h2.136l21.947,31.4,6.667,9.646h.13l-.065-31.333-.13-9.711h2.266l-.13,9.711V41.192l.13,9.775h-2.136L209.112,17.821l-5.7-8.22h-.065l.065,31.591.13,9.775h-2.266Z" transform="translate(109.656 3.395)"/>
    <path id="Path_12" data-name="Path 12" d="M240.927,41.192V15.944L240.8,8.11H227.721V6.233h28.355V8.11H243.063l-.13,7.834V41.192l.13,9.775H240.8Z" transform="translate(124.062 3.395)"/>
    <path id="Path_13" data-name="Path 13" d="M251.276,41.192V15.944l-.13-9.711h25.248V8.11H253.412l-.13,18.516h22.2V28.5h-22.2l.13,20.588h23.629v1.877h-25.9Z" transform="translate(136.824 3.395)"/>
    <path id="Path_14" data-name="Path 14" d="M274.7,41.192V16.009l-.13-9.775h3.238l16.766,39.1h.065l16.509-39.1h3.236l-.13,9.775V41.192l.13,9.775h-2.266l.13-9.711V16.009l.065-7.12h-.065L295.482,49.026H293.8L276.773,8.889h-.065v32.3l.13,9.775h-2.266Z" transform="translate(149.586 3.395)"/>
    <path id="Path_15" data-name="Path 15" d="M321.206,29.551c8.416,0,12.689-3.885,12.689-10.942,0-5.631-3.366-10.553-11.005-10.553H310.913l-.13,21.494Zm-12.43,11.588V15.891l-.13-9.711h14.825c8.286,0,12.559,5.439,12.559,12.752,0,7.188-4.467,12.5-13.984,12.5H310.783v9.711l.13,9.775h-2.266Z" transform="translate(168.151 3.366)"/>
    <path id="Path_16" data-name="Path 16" d="M375.714,28.709c8.156,0,12.429-4.015,12.429-10.1,0-5.631-2.849-10.553-11.977-10.553H363.672l-.13,20.652ZM361.536,41.139V15.891l-.13-9.711h15.148c8.935,0,13.726,5.05,13.726,12.429,0,5.632-3.755,11.2-11.589,11.717v.065l12.172,20.523h-2.591L376.3,30.586H363.542V41.139l.13,9.775h-2.266Z" transform="translate(196.894 3.366)"/>
    <path id="Path_17" data-name="Path 17" d="M409.378,34.017l-9-25.7h-.131l-9,25.7ZM399.022,6.18h2.588L417.6,50.914h-2.4l-2.136-6.6-3.043-8.418h-19.42l-3.043,8.418-2.135,6.6h-2.4Z" transform="translate(208.675 3.366)"/>
    <path id="Path_18" data-name="Path 18" d="M424.577,28.709c8.156,0,12.429-4.015,12.429-10.1,0-5.631-2.849-10.553-11.977-10.553H412.535l-.13,20.652ZM410.4,41.139V15.891l-.13-9.711h15.148c8.935,0,13.725,5.05,13.725,12.429,0,5.632-3.755,11.2-11.589,11.717v.065l12.172,20.523h-2.591L425.159,30.586H412.406V41.139l.13,9.775h-2.266Z" transform="translate(223.514 3.366)"/>
    <path id="Path_19" data-name="Path 19" d="M446.664,41.139V34.794L431.516,6.18H434.1l13.466,26.155h.065L460.712,6.18H463.3L448.671,34.794v6.344l.13,9.775h-2.266Z" transform="translate(235.089 3.366)"/>
  </g>
</svg>
